<svg width="24" height="24" viewBox="0 0 24 24" fill="none" xmlns="http://www.w3.org/2000/svg">
<path d="M13.0008 19.692C16.6808 19.692 19.6738 16.72 19.6738 13.067C19.6738 9.413 16.6798 6.441 13.0008 6.441C12.1066 6.44015 11.2214 6.61845 10.3973 6.9654C9.57324 7.31234 8.82704 7.82089 8.20276 8.461V3.121H17.3808C17.5297 3.12127 17.6727 3.06248 17.7785 2.95752C17.8842 2.85256 17.944 2.70997 17.9448 2.561C17.9446 2.48712 17.9299 2.41398 17.9015 2.34578C17.8731 2.27758 17.8315 2.21565 17.7791 2.16355C17.7267 2.11144 17.6646 2.07018 17.5962 2.04211C17.5279 2.01405 17.4546 1.99974 17.3808 2H7.63776C7.48879 1.99974 7.34579 2.05852 7.24007 2.16349C7.13436 2.26845 7.07456 2.41103 7.07376 2.56V10.013L7.06676 10.149C7.06267 10.2758 7.1013 10.4003 7.17645 10.5025C7.25161 10.6048 7.35893 10.6788 7.48119 10.7127C7.60345 10.7466 7.73356 10.7384 7.85064 10.6895C7.96771 10.6406 8.06495 10.5538 8.12676 10.443C8.60597 9.56975 9.31136 8.84155 10.1689 8.33482C11.0265 7.82808 12.0047 7.56149 13.0008 7.563C16.0578 7.563 18.5438 10.031 18.5438 13.066C18.5438 16.101 16.0578 18.57 13.0008 18.57C11.9991 18.5689 11.0165 18.2969 10.1568 17.783V13.067C10.1568 11.509 11.4328 10.242 13.0008 10.242C13.7523 10.2401 14.4739 10.5366 15.0071 11.0662C15.5403 11.5959 15.8416 12.3155 15.8448 13.067C15.8448 14.624 14.5698 15.891 13.0008 15.891C12.625 15.8918 12.2528 15.8181 11.9058 15.674C11.7678 15.6168 11.6128 15.6164 11.4746 15.673C11.3363 15.7295 11.226 15.8385 11.1678 15.976C11.1394 16.044 11.1248 16.117 11.1247 16.1906C11.1245 16.2643 11.139 16.3373 11.1671 16.4054C11.1953 16.4735 11.2366 16.5354 11.2887 16.5875C11.3408 16.6396 11.4027 16.6809 11.4708 16.709C11.9568 16.91 12.4708 17.012 13.0008 17.012C15.1918 17.012 16.9748 15.242 16.9748 13.067C16.9748 10.891 15.1918 9.121 13.0008 9.121C10.8108 9.121 9.02776 10.891 9.02776 13.067V16.899C8.37783 16.2393 7.90639 15.4251 7.65776 14.533C7.61824 14.3885 7.52293 14.2655 7.39278 14.1913C7.26263 14.117 7.10831 14.0975 6.96376 14.137C6.81922 14.1765 6.69629 14.2718 6.62203 14.402C6.54777 14.5321 6.52824 14.6865 6.56776 14.831C7.36276 17.693 10.0078 19.692 13.0008 19.692Z" fill="#21272A"/>
<path d="M9.60777 4.83297C9.54023 4.86258 9.4792 4.90525 9.42819 4.95851C9.37718 5.01177 9.3372 5.07458 9.31053 5.14334C9.28386 5.2121 9.27104 5.28545 9.2728 5.35918C9.27455 5.4329 9.29085 5.50556 9.32077 5.57297C9.44777 5.85597 9.78077 5.98297 10.0658 5.85797C11.8358 5.07797 15.3138 4.26197 18.7128 7.57297C18.7658 7.62506 18.8285 7.66618 18.8975 7.69397C18.9664 7.72177 19.0401 7.73569 19.1144 7.73495C19.1887 7.73421 19.2622 7.71881 19.3305 7.68964C19.3989 7.66047 19.4608 7.61811 19.5128 7.56497C19.5646 7.51249 19.6055 7.45026 19.6331 7.38189C19.6607 7.31351 19.6745 7.24033 19.6737 7.16659C19.6728 7.09285 19.6574 7.02001 19.6282 6.95227C19.5991 6.88454 19.5568 6.82326 19.5038 6.77197C15.4838 2.85697 11.2438 4.11197 9.60777 4.83297ZM19.7048 18.13C19.5914 18.0322 19.444 17.9833 19.2947 17.9937C19.1454 18.0042 19.0063 18.0733 18.9078 18.186C18.1705 19.0267 17.262 19.7003 16.2433 20.1614C15.2246 20.6226 14.119 20.8608 13.0008 20.86C9.02077 20.86 5.67877 17.903 5.22777 13.982C5.20998 13.8338 5.13422 13.6988 5.01708 13.6064C4.89995 13.514 4.75097 13.4718 4.60277 13.489C4.45466 13.5053 4.3191 13.5798 4.2259 13.6961C4.1327 13.8123 4.08949 13.9609 4.10577 14.109C4.62177 18.597 8.44577 21.982 13.0008 21.982C14.2805 21.983 15.5457 21.7105 16.7116 21.1828C17.8774 20.655 18.9171 19.8842 19.7608 18.922C19.8094 18.8665 19.8465 18.802 19.87 18.7321C19.8935 18.6622 19.9029 18.5883 19.8977 18.5148C19.8925 18.4412 19.8728 18.3694 19.8397 18.3036C19.8065 18.2377 19.7607 18.179 19.7048 18.131V18.13ZM11.5638 14.426C11.6689 14.5327 11.8122 14.5933 11.962 14.5944C12.1119 14.5956 12.256 14.5371 12.3628 14.432L12.9428 13.864L13.5148 14.439C13.6199 14.5454 13.7629 14.6058 13.9125 14.6069C14.0621 14.6081 14.2061 14.5498 14.3128 14.445C14.3656 14.3935 14.4076 14.332 14.4365 14.2642C14.4654 14.1964 14.4806 14.1235 14.4812 14.0497C14.4817 13.976 14.4676 13.9029 14.4398 13.8346C14.4119 13.7663 14.3708 13.7042 14.3188 13.652L13.7468 13.076L14.3058 12.529C14.3585 12.4774 14.4005 12.4159 14.4293 12.348C14.4581 12.2802 14.4732 12.2073 14.4736 12.1335C14.4741 12.0598 14.46 11.9867 14.432 11.9184C14.404 11.8502 14.3628 11.7882 14.3108 11.736C14.2054 11.63 14.0624 11.5699 13.913 11.5688C13.7636 11.5677 13.6197 11.6256 13.5128 11.73L12.9538 12.278L12.4028 11.723C12.2973 11.6167 12.1542 11.5564 12.0045 11.5553C11.8548 11.5542 11.7108 11.6123 11.6038 11.717C11.551 11.7685 11.5091 11.83 11.4802 11.8979C11.4514 11.9658 11.4363 12.0387 11.4359 12.1124C11.4354 12.1862 11.4496 12.2593 11.4775 12.3275C11.5055 12.3957 11.5467 12.4578 11.5988 12.51L12.1488 13.065L11.5698 13.633C11.517 13.6845 11.4749 13.7459 11.446 13.8137C11.4171 13.8816 11.4019 13.9545 11.4014 14.0282C11.4008 14.102 11.4149 14.1751 11.4428 14.2433C11.4706 14.3116 11.5118 14.3737 11.5638 14.426Z" fill="#21272A"/>
</svg>
