<svg width="24" height="24" viewBox="0 0 24 24" fill="none" xmlns="http://www.w3.org/2000/svg">
<path d="M20.497 15.2781C21.514 17.5681 20.938 19.9541 19.064 21.2161C18.29 21.7381 17.472 21.9991 16.633 21.9991C15.785 21.9991 14.917 21.7331 14.05 21.2021C13.538 20.8881 13.084 20.4821 12.645 20.0901C12.505 19.9651 12.365 19.8401 12.223 19.7191C12.1585 19.6622 12.1011 19.5978 12.052 19.5271C11.93 19.6351 11.813 19.7411 11.699 19.8451C11.267 20.2371 10.858 20.6071 10.413 20.9231C8.77 22.0901 7.137 22.3031 5.557 21.5581C4.56047 21.0891 3.77352 20.2668 3.34859 19.2507C2.92367 18.2346 2.89103 17.0969 3.257 16.0581C3.75 14.6441 4.392 13.2681 5.014 11.9381L5.034 11.8951C5.917 10.0051 6.84 8.09811 7.732 6.25411L8.525 4.61311C8.865 3.90711 9.32 3.11511 10.12 2.58711C10.943 2.04411 11.903 1.87011 12.823 2.09711C13.76 2.33011 14.558 2.95711 15.071 3.86111C15.834 5.20711 16.511 6.62311 17.086 7.84511C18.25 10.3103 19.3871 12.7881 20.497 15.2781ZM14.62 5.97011L14.065 4.80511C13.653 3.93611 12.898 3.41311 12.045 3.40511C11.172 3.40911 10.395 3.91711 9.955 4.79911C9.823 5.06411 9.687 5.32711 9.551 5.58911C9.325 6.02811 9.091 6.48111 8.877 6.93911C7.377 10.1631 5.994 13.1571 4.65 16.0911C4.254 16.9541 4.24 17.8631 4.607 18.7181C4.957 19.5321 5.581 20.1401 6.364 20.4291C6.688 20.5491 7.024 20.6081 7.363 20.6081C7.846 20.6081 8.334 20.4881 8.795 20.2481C9.38 19.9441 9.892 19.5101 10.388 19.0911C10.604 18.9081 10.82 18.7251 11.041 18.5541C11.62 18.1061 11.301 17.5951 11.177 17.3961C10.605 16.4811 10.013 15.5341 9.553 14.5541C9.109 13.6061 9.015 12.6511 9.275 11.7171C9.688 10.2351 11.227 9.38711 12.778 9.78711C14.234 10.1611 15.119 11.6601 14.836 13.2731C14.642 14.3801 14.176 15.4511 13.326 16.7481C13.271 16.8301 13.206 16.9161 13.14 17.0031C12.9 17.3201 12.629 17.6801 12.689 18.0671C12.753 18.4771 13.115 18.7721 13.434 19.0321C13.505 19.0901 13.576 19.1481 13.64 19.2041C14.445 19.9151 15.359 20.5751 16.591 20.5921H16.617L16.642 20.5891C16.72 20.5791 16.798 20.5701 16.877 20.5621C17.067 20.5421 17.266 20.5221 17.466 20.4651C17.8954 20.3429 18.2927 20.128 18.6301 19.8357C18.9675 19.5434 19.2368 19.1807 19.419 18.7731C19.789 17.9431 19.775 17.0071 19.381 16.1391C17.834 12.7291 16.201 9.29311 14.62 5.97011ZM13.458 13.2901C13.641 12.3831 13.512 11.8301 13.028 11.4401C12.717 11.1921 12.386 11.0671 12.04 11.0671C11.784 11.0671 11.52 11.1351 11.247 11.2711C10.702 11.5451 10.467 12.0191 10.51 12.7661C10.586 14.0791 11.257 15.1491 12.014 16.2491C12.647 15.3591 13.235 14.3951 13.458 13.2891V13.2901Z" fill="#21272A"/>
</svg>
