<svg width="24" height="24" viewBox="0 0 24 24" fill="none" xmlns="http://www.w3.org/2000/svg">
<path d="M13 11.9999H15C15.2652 11.9999 15.5196 12.1053 15.7071 12.2928C15.8946 12.4804 16 12.7347 16 12.9999C16 13.2651 15.8946 13.5195 15.7071 13.707C15.5196 13.8946 15.2652 13.9999 15 13.9999H12C11.7348 13.9999 11.4804 13.8946 11.2929 13.707C11.1054 13.5195 11 13.2651 11 12.9999V7.99992C11 7.73471 11.1054 7.48035 11.2929 7.29282C11.4804 7.10528 11.7348 6.99992 12 6.99992C12.2652 6.99992 12.5196 7.10528 12.7071 7.29282C12.8946 7.48035 13 7.73471 13 7.99992V11.9999ZM20.63 10.4379C21.0274 11.7806 21.106 13.1974 20.8596 14.5757C20.6131 15.9541 20.0485 17.2559 19.2106 18.3778C18.3727 19.4996 17.2846 20.4104 16.0329 21.0378C14.7811 21.6653 13.4002 21.992 12 21.992C10.5998 21.992 9.21891 21.6653 7.96715 21.0378C6.71539 20.4104 5.62728 19.4996 4.78937 18.3778C3.95146 17.2559 3.38685 15.9541 3.14045 14.5757C2.89405 13.1974 2.97265 11.7806 3.37 10.4379C2.89989 9.94175 2.53651 9.35446 2.3023 8.71233C2.06809 8.0702 1.96802 7.38686 2.00828 6.70454C2.04853 6.02221 2.22826 5.35539 2.53636 4.74525C2.84445 4.13512 3.27437 3.59463 3.79956 3.15718C4.32475 2.71973 4.93405 2.3946 5.58983 2.20188C6.24561 2.00916 6.93394 1.95295 7.6123 2.03671C8.29066 2.12047 8.94465 2.34242 9.53386 2.68886C10.1231 3.0353 10.635 3.49886 11.038 4.05092C11.6775 3.98295 12.3225 3.98295 12.962 4.05092C13.365 3.49886 13.8769 3.0353 14.4661 2.68886C15.0554 2.34242 15.7093 2.12047 16.3877 2.03671C17.0661 1.95295 17.7544 2.00916 18.4102 2.20188C19.0659 2.3946 19.6752 2.71973 20.2004 3.15718C20.7256 3.59463 21.1555 4.13512 21.4636 4.74525C21.7717 5.35539 21.9515 6.02221 21.9917 6.70454C22.032 7.38686 21.9319 8.0702 21.6977 8.71233C21.4635 9.35446 21.1001 9.94175 20.63 10.4379ZM19.692 8.32492C19.9899 7.72109 20.076 7.0346 19.9364 6.37592C19.7968 5.71723 19.4398 5.12464 18.9226 4.69349C18.4054 4.26233 17.7583 4.01768 17.0852 3.9989C16.4122 3.98011 15.7524 4.18829 15.212 4.58992C17.0774 5.30508 18.6529 6.61863 19.692 8.32492ZM8.787 4.58992C8.2466 4.18829 7.5868 3.98011 6.91376 3.9989C6.24071 4.01768 5.59355 4.26233 5.0764 4.69349C4.55924 5.12464 4.20216 5.71723 4.06261 6.37592C3.92305 7.0346 4.00913 7.72109 4.307 8.32492C5.34606 6.61863 6.92162 5.30508 8.787 4.58992ZM12 19.9999C12.9193 19.9999 13.8295 19.8189 14.6788 19.4671C15.5281 19.1153 16.2997 18.5997 16.9497 17.9497C17.5998 17.2997 18.1154 16.528 18.4672 15.6787C18.8189 14.8294 19 13.9192 19 12.9999C19 12.0807 18.8189 11.1704 18.4672 10.3211C18.1154 9.47186 17.5998 8.70019 16.9497 8.05018C16.2997 7.40017 15.5281 6.88455 14.6788 6.53277C13.8295 6.18098 12.9193 5.99992 12 5.99992C10.1435 5.99992 8.36301 6.73742 7.05025 8.05018C5.7375 9.36293 5 11.1434 5 12.9999C5 14.8564 5.7375 16.6369 7.05025 17.9497C8.36301 19.2624 10.1435 19.9999 12 19.9999Z" fill="#21272A"/>
</svg>
