<svg width="24" height="24" viewBox="0 0 24 24" fill="none" xmlns="http://www.w3.org/2000/svg">
<path d="M12 22C7.5 22 3 15.97 3 11C3 8.61305 3.94821 6.32387 5.63604 4.63604C7.32387 2.94821 9.61305 2 12 2C14.3869 2 16.6761 2.94821 18.364 4.63604C20.0518 6.32387 21 8.61305 21 11C21 15.97 16.5 22 12 22ZM12 20C15.14 20 19 15.131 19 11C19 9.14348 18.2625 7.36301 16.9497 6.05025C15.637 4.7375 13.8565 4 12 4C10.1435 4 8.36301 4.7375 7.05025 6.05025C5.7375 7.36301 5 9.14348 5 11C5 15.131 8.86 20 12 20ZM10.026 15.82C9.497 16.012 7.687 15.241 7.121 13.684C6.554 12.127 7.468 10.365 7.974 10.181C8.48 9.997 10.313 10.759 10.879 12.316C11.446 13.873 10.555 15.626 10.026 15.819V15.82ZM13.974 15.82C13.445 15.627 12.554 13.873 13.121 12.316C13.687 10.759 15.52 9.996 16.026 10.181C16.532 10.365 17.446 12.127 16.879 13.684C16.313 15.241 14.503 16.012 13.974 15.819V15.82Z" fill="#21272A"/>
</svg>
