<svg width="24" height="24" viewBox="0 0 24 24" fill="none" xmlns="http://www.w3.org/2000/svg">
<path d="M12.0098 7H18.0098C18.275 7 18.5293 7.10536 18.7169 7.29289C18.9044 7.48043 19.0098 7.73478 19.0098 8C19.0098 8.26522 18.9044 8.51957 18.7169 8.70711C18.5293 8.89464 18.275 9 18.0098 9H12.0098C11.7445 9 11.4902 8.89464 11.3027 8.70711C11.1151 8.51957 11.0098 8.26522 11.0098 8C11.0098 7.73478 11.1151 7.48043 11.3027 7.29289C11.4902 7.10536 11.7445 7 12.0098 7V7ZM10.0098 15H18.0098C18.275 15 18.5293 15.1054 18.7169 15.2929C18.9044 15.4804 19.0098 15.7348 19.0098 16C19.0098 16.2652 18.9044 16.5196 18.7169 16.7071C18.5293 16.8946 18.275 17 18.0098 17H10.0098C9.74455 17 9.4902 16.8946 9.30266 16.7071C9.11512 16.5196 9.00977 16.2652 9.00977 16C9.00977 15.7348 9.11512 15.4804 9.30266 15.2929C9.4902 15.1054 9.74455 15 10.0098 15ZM6.00977 11H18.0098C18.275 11 18.5293 11.1054 18.7169 11.2929C18.9044 11.4804 19.0098 11.7348 19.0098 12C19.0098 12.2652 18.9044 12.5196 18.7169 12.7071C18.5293 12.8946 18.275 13 18.0098 13H6.00977C5.74455 13 5.4902 12.8946 5.30266 12.7071C5.11512 12.5196 5.00977 12.2652 5.00977 12C5.00977 11.7348 5.11512 11.4804 5.30266 11.2929C5.4902 11.1054 5.74455 11 6.00977 11Z" fill="#21272A"/>
</svg>
