<svg width="24" height="24" viewBox="0 0 24 24" fill="none" xmlns="http://www.w3.org/2000/svg">
<path d="M13.8388 8.24099C13.3548 8.27899 12.7958 8.31599 12.2378 8.39099C11.3818 8.50199 10.5258 8.65199 9.81777 8.98699C8.44177 9.54699 7.50977 10.739 7.50977 12.493C7.50977 14.693 8.92477 15.81 10.7118 15.81C11.3078 15.81 11.7918 15.737 12.2378 15.625C12.9458 15.401 13.5408 14.991 14.2478 14.245C14.6578 14.805 14.7678 15.066 15.4768 15.662C15.6628 15.737 15.8488 15.737 15.9968 15.625C16.5511 15.1616 17.0978 14.6892 17.6368 14.208C17.8218 14.058 17.7838 13.835 17.6728 13.648C17.2628 13.126 16.8538 12.678 16.8538 11.673V8.31599C16.8538 6.89799 16.9638 5.59399 15.9238 4.62599C15.0668 3.83999 13.7258 3.54199 12.6848 3.54199H12.2378C10.3388 3.65499 8.32877 4.47499 7.88177 6.82399C7.80777 7.12199 8.03177 7.23399 8.18077 7.27299L10.2648 7.53299C10.4878 7.49499 10.5988 7.30899 10.6358 7.12299C10.8228 6.30299 11.4928 5.89299 12.2378 5.81799H12.3878C12.8328 5.81799 13.3168 6.00499 13.5778 6.37599C13.8748 6.82399 13.8378 7.42099 13.8378 7.94299V8.24099H13.8388ZM13.8388 10.405C13.8388 11.263 13.8748 11.934 13.4288 12.678C13.1688 13.2 12.7218 13.536 12.2378 13.648C12.1638 13.648 12.0528 13.686 11.9398 13.686C11.1218 13.686 10.6368 13.053 10.6368 12.12C10.6368 10.927 11.3448 10.367 12.2368 10.106C12.7218 9.99399 13.2808 9.95599 13.8388 9.95599V10.406V10.405ZM20.6958 19.265C21.6058 18.495 21.9898 17.098 22.0098 16.368V16.246C22.0148 16.1262 21.9872 16.0073 21.9298 15.902C21.7478 15.68 20.4118 15.476 19.2598 15.821C18.9498 15.9176 18.6565 16.0609 18.3898 16.246C18.1878 16.389 18.2278 16.569 18.4298 16.55C18.6528 16.509 18.9358 16.49 19.2598 16.448C19.9678 16.388 20.7968 16.368 20.9998 16.631C21.2808 16.974 20.6758 18.474 20.4118 19.123C20.3318 19.326 20.5128 19.408 20.6958 19.265Z" fill="#21272A"/>
<path d="M2.10976 16.3679C4.71876 18.7379 8.15676 20.1569 11.9998 20.1569C14.3858 20.1569 17.1358 19.4869 19.2598 18.2119C19.5438 18.0489 19.8258 17.8659 20.0878 17.6639C20.4518 17.4019 20.1288 16.9949 19.7648 17.1569C19.6038 17.2169 19.4208 17.2999 19.2598 17.3599C17.0166 18.237 14.6303 18.6907 12.2218 18.6979C8.62176 18.6979 5.14376 17.7049 2.33176 16.0639C2.06876 15.9229 1.88676 16.1859 2.10976 16.3679Z" fill="#21272A"/>
</svg>
