<svg width="24" height="24" viewBox="0 0 24 24" fill="none" xmlns="http://www.w3.org/2000/svg">
<path d="M18.9398 13.998C18.6799 13.9816 18.4366 13.8646 18.2617 13.6716C18.0868 13.4787 17.9941 13.2252 18.0032 12.965C18.0123 12.7047 18.1226 12.4583 18.3105 12.2781C18.4985 12.0979 18.7494 11.9981 19.0098 12H21.0098C21.275 12 21.5293 12.1054 21.7169 12.2929C21.9044 12.4804 22.0098 12.7348 22.0098 13C22.0098 13.2652 21.9044 13.5196 21.7169 13.7071C21.5293 13.8946 21.275 14 21.0098 14H20.9548C20.7082 16.1999 19.6597 18.2317 18.0095 19.7073C16.3594 21.1828 14.2234 21.9985 12.0098 21.9985C9.79613 21.9985 7.66013 21.1828 6.00999 19.7073C4.35985 18.2317 3.31131 16.1999 3.06477 14H3.00977C2.74455 14 2.4902 13.8946 2.30266 13.7071C2.11512 13.5196 2.00977 13.2652 2.00977 13C2.00977 12.7348 2.11512 12.4804 2.30266 12.2929C2.4902 12.1054 2.74455 12 3.00977 12H5.00977C5.27016 11.9981 5.52101 12.0979 5.70899 12.2781C5.89696 12.4583 6.00723 12.7047 6.01635 12.965C6.02547 13.2252 5.93271 13.4787 5.75781 13.6716C5.58291 13.8646 5.33965 13.9816 5.07977 13.998C5.29595 15.4941 5.99028 16.8801 7.05906 17.949C8.12784 19.018 9.51373 19.7126 11.0098 19.929V9.874C10.0693 9.62827 9.25037 9.04864 8.70597 8.24333C8.16156 7.43802 7.92886 6.4621 8.05133 5.49778C8.1738 4.53346 8.64306 3.64669 9.37149 3.00303C10.0999 2.35937 11.0377 2.00284 12.0098 2C12.984 1.99904 13.9252 2.35369 14.6565 2.99738C15.3878 3.64107 15.8591 4.52954 15.9818 5.49605C16.1046 6.46255 15.8704 7.44062 15.3232 8.24669C14.7759 9.05276 13.9533 9.6314 13.0098 9.874V19.929C14.5058 19.7126 15.8917 19.018 16.9605 17.949C18.0293 16.8801 18.7236 15.4941 18.9398 13.998ZM12.0098 8C12.5402 8 13.0489 7.78929 13.424 7.41422C13.7991 7.03914 14.0098 6.53044 14.0098 6C14.0098 5.46957 13.7991 4.96086 13.424 4.58579C13.0489 4.21072 12.5402 4 12.0098 4C11.4793 4 10.9706 4.21072 10.5956 4.58579C10.2205 4.96086 10.0098 5.46957 10.0098 6C10.0098 6.53044 10.2205 7.03914 10.5956 7.41422C10.9706 7.78929 11.4793 8 12.0098 8Z" fill="#21272A"/>
</svg>
