<svg width="24" height="24" viewBox="0 0 24 24" fill="none" xmlns="http://www.w3.org/2000/svg">
<path d="M8.39977 10.2481H8.37377C8.21586 10.2486 8.06457 10.3116 7.95291 10.4232C7.84126 10.5349 7.77829 10.6862 7.77777 10.8441V13.4381C7.77777 13.7671 8.04477 14.0341 8.37377 14.0341H8.39977C8.55767 14.0335 8.70896 13.9706 8.82062 13.8589C8.93228 13.7473 8.99524 13.596 8.99577 13.4381V10.8441C8.99524 10.686 8.93214 10.5345 8.82027 10.4229C8.70839 10.3112 8.55685 10.2483 8.39877 10.2481H8.39977ZM9.27977 14.4401C9.27977 14.7401 9.52677 14.9861 9.82777 14.9861H10.4138V16.3881C10.4138 16.7171 10.6818 16.9841 11.0098 16.9841H11.0348C11.1928 16.9838 11.3444 16.921 11.4563 16.8093C11.5681 16.6976 11.6312 16.5461 11.6318 16.3881V14.9861H12.4498V16.3881C12.4498 16.7171 12.7198 16.9841 13.0458 16.9841H13.0718C13.2297 16.9835 13.381 16.9206 13.4926 16.8089C13.6043 16.6973 13.6672 16.546 13.6678 16.3881V14.9861H14.2538C14.5538 14.9861 14.8008 14.7411 14.8008 14.4391V10.3431H9.27977V14.4391V14.4401ZM13.4158 7.85907L13.8808 7.14106C13.8879 7.13017 13.8927 7.11798 13.8951 7.10519C13.8975 7.09241 13.8973 7.07928 13.8946 7.06656C13.8919 7.05384 13.8868 7.04177 13.8794 7.03105C13.8721 7.02033 13.8627 7.01116 13.8518 7.00407C13.8409 6.99697 13.8287 6.9921 13.8159 6.98972C13.8031 6.98734 13.79 6.9875 13.7773 6.99019C13.7645 6.99288 13.7525 6.99806 13.7418 7.00541C13.731 7.01277 13.7219 7.02217 13.7148 7.03307L13.2328 7.77607C12.8543 7.62195 12.4494 7.54315 12.0408 7.54407C11.6138 7.54407 11.2108 7.62807 10.8488 7.77607L10.3678 7.03307C10.3607 7.02216 10.3515 7.01276 10.3408 7.00541C10.3301 6.99805 10.318 6.99288 10.3053 6.99018C10.2926 6.98749 10.2794 6.98733 10.2666 6.98971C10.2539 6.99209 10.2417 6.99697 10.2308 7.00407C10.2198 7.01108 10.2103 7.02018 10.2028 7.03087C10.1954 7.04156 10.1901 7.05361 10.1873 7.06634C10.1845 7.07906 10.1843 7.09222 10.1866 7.10504C10.1889 7.11786 10.1937 7.13011 10.2008 7.14106L10.6668 7.85907C9.82777 8.26907 9.26177 9.04407 9.26177 9.93307C9.26177 9.98807 9.26577 10.0421 9.27077 10.0951H14.8118C14.8168 10.0421 14.8198 9.98807 14.8198 9.93307C14.8198 9.04407 14.2538 8.27007 13.4158 7.85907ZM10.7558 9.14307C10.6852 9.14307 10.6176 9.11504 10.5677 9.06516C10.5178 9.01527 10.4898 8.94761 10.4898 8.87706C10.4898 8.80652 10.5178 8.73886 10.5677 8.68897C10.6176 8.63909 10.6852 8.61107 10.7558 8.61107C10.8263 8.61107 10.894 8.63909 10.9439 8.68897C10.9937 8.73886 11.0218 8.80652 11.0218 8.87706C11.0218 8.94761 10.9937 9.01527 10.9439 9.06516C10.894 9.11504 10.8263 9.14307 10.7558 9.14307ZM13.3258 9.14307C13.2552 9.1432 13.1875 9.1153 13.1375 9.06551C13.0876 9.01572 13.0594 8.94811 13.0593 8.87757C13.0591 8.80702 13.087 8.73931 13.1368 8.68933C13.1866 8.63935 13.2542 8.6112 13.3248 8.61107C13.3953 8.61107 13.463 8.63909 13.5129 8.68897C13.5627 8.73886 13.5908 8.80652 13.5908 8.87706C13.5908 8.94761 13.5627 9.01527 13.5129 9.06516C13.463 9.11504 13.3953 9.14307 13.3248 9.14307H13.3258ZM15.7078 10.2481H15.6828C15.5247 10.2483 15.3731 10.3112 15.2613 10.4229C15.1494 10.5345 15.0863 10.686 15.0858 10.8441V13.4381C15.0858 13.7671 15.3558 14.0341 15.6828 14.0341H15.7078C15.8658 14.0338 16.0172 13.9709 16.1289 13.8592C16.2406 13.7475 16.3035 13.5961 16.3038 13.4381V10.8441C16.3032 10.6862 16.2403 10.5349 16.1286 10.4232C16.017 10.3116 15.8657 10.2486 15.7078 10.2481Z" fill="#21272A"/>
<path d="M12.0098 20C14.1315 20 16.1663 19.1571 17.6666 17.6569C19.1669 16.1566 20.0098 14.1217 20.0098 12C20.0098 9.87827 19.1669 7.84344 17.6666 6.34315C16.1663 4.84285 14.1315 4 12.0098 4C9.88803 4 7.8532 4.84285 6.35291 6.34315C4.85262 7.84344 4.00977 9.87827 4.00977 12C4.00977 14.1217 4.85262 16.1566 6.35291 17.6569C7.8532 19.1571 9.88803 20 12.0098 20ZM12.0098 22C6.48677 22 2.00977 17.523 2.00977 12C2.00977 6.477 6.48677 2 12.0098 2C17.5328 2 22.0098 6.477 22.0098 12C22.0098 17.523 17.5328 22 12.0098 22Z" fill="#21272A"/>
</svg>
