<svg width="24" height="24" viewBox="0 0 24 24" fill="none" xmlns="http://www.w3.org/2000/svg">
<path d="M8.39976 10.2481H8.37376C8.21586 10.2486 8.06457 10.3116 7.95291 10.4232C7.84125 10.5349 7.77829 10.6862 7.77776 10.8441V13.4381C7.77776 13.7671 8.04476 14.0341 8.37376 14.0341H8.39976C8.55767 14.0335 8.70896 13.9706 8.82062 13.8589C8.93227 13.7473 8.99524 13.596 8.99576 13.4381V10.8441C8.99523 10.686 8.93214 10.5345 8.82026 10.4229C8.70839 10.3112 8.55684 10.2483 8.39876 10.2481H8.39976ZM9.27976 14.4401C9.27976 14.7401 9.52676 14.9861 9.82776 14.9861H10.4138V16.3881C10.4138 16.7171 10.6818 16.9841 11.0098 16.9841H11.0348C11.1928 16.9838 11.3444 16.921 11.4563 16.8093C11.5681 16.6976 11.6312 16.5461 11.6318 16.3881V14.9861H12.4498V16.3881C12.4498 16.7171 12.7198 16.9841 13.0458 16.9841H13.0718C13.2297 16.9835 13.381 16.9206 13.4926 16.8089C13.6043 16.6973 13.6672 16.546 13.6678 16.3881V14.9861H14.2538C14.5538 14.9861 14.8008 14.7411 14.8008 14.4391V10.3431H9.27976V14.4391V14.4401ZM13.4158 7.85907L13.8808 7.14106C13.8879 7.13017 13.8927 7.11798 13.8951 7.10519C13.8975 7.09241 13.8973 7.07928 13.8946 7.06656C13.8919 7.05384 13.8868 7.04177 13.8794 7.03105C13.8721 7.02033 13.8627 7.01116 13.8518 7.00407C13.8409 6.99697 13.8287 6.9921 13.8159 6.98972C13.8031 6.98734 13.79 6.9875 13.7773 6.99019C13.7645 6.99288 13.7525 6.99806 13.7417 7.00541C13.731 7.01277 13.7219 7.02217 13.7148 7.03307L13.2328 7.77607C12.8543 7.62195 12.4494 7.54315 12.0408 7.54407C11.6138 7.54407 11.2108 7.62807 10.8488 7.77607L10.3678 7.03307C10.3607 7.02216 10.3515 7.01276 10.3408 7.00541C10.3301 6.99805 10.318 6.99288 10.3053 6.99018C10.2925 6.98749 10.2794 6.98733 10.2666 6.98971C10.2539 6.99209 10.2417 6.99697 10.2308 7.00407C10.2198 7.01108 10.2103 7.02018 10.2028 7.03087C10.1954 7.04156 10.1901 7.05361 10.1873 7.06634C10.1845 7.07906 10.1843 7.09222 10.1866 7.10504C10.1889 7.11786 10.1937 7.13011 10.2008 7.14106L10.6668 7.85907C9.82776 8.26907 9.26176 9.04407 9.26176 9.93307C9.26176 9.98807 9.26576 10.0421 9.27076 10.0951H14.8118C14.8168 10.0421 14.8198 9.98807 14.8198 9.93307C14.8198 9.04407 14.2538 8.27007 13.4158 7.85907ZM10.7558 9.14307C10.6852 9.14307 10.6176 9.11504 10.5677 9.06516C10.5178 9.01527 10.4898 8.94761 10.4898 8.87706C10.4898 8.80652 10.5178 8.73886 10.5677 8.68897C10.6176 8.63909 10.6852 8.61107 10.7558 8.61107C10.8263 8.61107 10.894 8.63909 10.9439 8.68897C10.9937 8.73886 11.0218 8.80652 11.0218 8.87706C11.0218 8.94761 10.9937 9.01527 10.9439 9.06516C10.894 9.11504 10.8263 9.14307 10.7558 9.14307ZM13.3258 9.14307C13.2552 9.1432 13.1875 9.1153 13.1375 9.06551C13.0875 9.01572 13.0594 8.94811 13.0593 8.87757C13.0591 8.80702 13.087 8.73931 13.1368 8.68933C13.1866 8.63935 13.2542 8.6112 13.3248 8.61107C13.3953 8.61107 13.463 8.63909 13.5129 8.68897C13.5627 8.73886 13.5908 8.80652 13.5908 8.87706C13.5908 8.94761 13.5627 9.01527 13.5129 9.06516C13.463 9.11504 13.3953 9.14307 13.3248 9.14307H13.3258ZM15.7078 10.2481H15.6828C15.5247 10.2483 15.3731 10.3112 15.2613 10.4229C15.1494 10.5345 15.0863 10.686 15.0858 10.8441V13.4381C15.0858 13.7671 15.3558 14.0341 15.6828 14.0341H15.7078C15.8658 14.0338 16.0172 13.9709 16.1289 13.8592C16.2406 13.7475 16.3035 13.5961 16.3038 13.4381V10.8441C16.3032 10.6862 16.2403 10.5349 16.1286 10.4232C16.017 10.3116 15.8657 10.2486 15.7078 10.2481Z" fill="#21272A"/>
<path d="M6.00977 4C5.47933 4 4.97062 4.21071 4.59555 4.58579C4.22048 4.96086 4.00977 5.46957 4.00977 6V18C4.00977 18.5304 4.22048 19.0391 4.59555 19.4142C4.97062 19.7893 5.47933 20 6.00977 20H18.0098C18.5402 20 19.0489 19.7893 19.424 19.4142C19.7991 19.0391 20.0098 18.5304 20.0098 18V6C20.0098 5.46957 19.7991 4.96086 19.424 4.58579C19.0489 4.21071 18.5402 4 18.0098 4H6.00977ZM6.00977 2H18.0098C19.0706 2 20.088 2.42143 20.8382 3.17157C21.5883 3.92172 22.0098 4.93913 22.0098 6V18C22.0098 19.0609 21.5883 20.0783 20.8382 20.8284C20.088 21.5786 19.0706 22 18.0098 22H6.00977C4.9489 22 3.93148 21.5786 3.18134 20.8284C2.43119 20.0783 2.00977 19.0609 2.00977 18V6C2.00977 4.93913 2.43119 3.92172 3.18134 3.17157C3.93148 2.42143 4.9489 2 6.00977 2V2Z" fill="#21272A"/>
</svg>
