<svg width="24" height="24" viewBox="0 0 24 24" fill="none" xmlns="http://www.w3.org/2000/svg">
<path d="M4.25677 8.51001H4.20577C3.54977 8.51001 3.01577 9.04701 3.01577 9.70001V14.883C3.01577 15.539 3.54977 16.073 4.20577 16.073H4.25777C4.91277 16.073 5.44777 15.538 5.44777 14.883V9.70001C5.44645 9.38463 5.32051 9.08257 5.09741 8.85965C4.87431 8.63674 4.57214 8.51106 4.25677 8.51001ZM6.01677 16.883C6.01677 17.485 6.50877 17.975 7.11077 17.975H8.28077V20.775C8.28077 21.432 8.81577 21.966 9.47077 21.966H9.52077C10.1778 21.966 10.7128 21.431 10.7128 20.774V17.975H12.3468V20.775C12.3468 21.432 12.8848 21.966 13.5388 21.966H13.5888C14.2458 21.966 14.7798 21.431 14.7798 20.774V17.975H15.9498C16.5508 17.975 17.0428 17.485 17.0428 16.883V8.70101H6.01677V16.883ZM14.2758 3.73801L15.2048 2.30501C15.2197 2.28335 15.2302 2.25892 15.2355 2.23316C15.2409 2.20739 15.241 2.18082 15.2359 2.155C15.2308 2.12918 15.2206 2.10465 15.2059 2.08284C15.1912 2.06103 15.1722 2.0424 15.1502 2.02803C15.1281 2.01367 15.1034 2.00387 15.0775 1.99921C15.0516 1.99455 15.0251 1.99512 14.9994 2.0009C14.9737 2.00668 14.9495 2.01754 14.9281 2.03284C14.9067 2.04815 14.8885 2.06758 14.8748 2.09001L13.9118 3.57301C13.156 3.26578 12.3476 3.10885 11.5318 3.11101C10.7153 3.1087 9.90618 3.26563 9.14977 3.57301L8.18877 2.09001C8.17468 2.06796 8.15634 2.04894 8.13482 2.03406C8.1133 2.01918 8.08903 2.00874 8.06343 2.00334C8.03783 1.99794 8.01141 1.9977 7.98571 2.00262C7.96002 2.00754 7.93556 2.01753 7.91377 2.03201C7.892 2.04609 7.87322 2.06434 7.85852 2.08569C7.84381 2.10705 7.83347 2.1311 7.82808 2.15647C7.8227 2.18183 7.82237 2.20801 7.82712 2.2335C7.83187 2.25899 7.8416 2.28329 7.85577 2.30501L8.78577 3.73801C7.10977 4.56001 5.97977 6.10701 5.97977 7.88201C5.97977 7.99201 5.98577 8.09901 5.99577 8.20501H17.0658C17.0745 8.09756 17.0792 7.98981 17.0798 7.88201C17.0798 6.10701 15.9498 4.56001 14.2748 3.73801H14.2758ZM8.96477 6.30501C8.82367 6.30527 8.68825 6.24948 8.58829 6.1499C8.48834 6.05031 8.43203 5.9151 8.43177 5.77401C8.4315 5.63291 8.4873 5.49749 8.58688 5.39753C8.68646 5.29758 8.82167 5.24127 8.96277 5.24101C9.10386 5.24074 9.23928 5.29654 9.33924 5.39612C9.4392 5.4957 9.4955 5.63091 9.49577 5.77201C9.49603 5.9131 9.44024 6.04852 9.34065 6.14848C9.24107 6.24844 9.10586 6.30474 8.96477 6.30501ZM14.0968 6.30501C14.0269 6.3052 13.9577 6.29164 13.8931 6.26509C13.8284 6.23853 13.7697 6.19951 13.7201 6.15025C13.6201 6.05076 13.5637 5.9156 13.5633 5.77451C13.5629 5.63341 13.6185 5.49794 13.718 5.39789C13.8175 5.29784 13.9527 5.24141 14.0938 5.24101C14.2349 5.24061 14.3703 5.29628 14.4704 5.39577C14.5704 5.49525 14.6269 5.63041 14.6273 5.77151C14.6277 5.9126 14.572 6.04808 14.4725 6.14813C14.373 6.24818 14.2379 6.30461 14.0968 6.30501ZM18.8548 8.51001H18.8048C18.1498 8.51001 17.6138 9.04701 17.6138 9.70001V14.883C17.6138 15.539 18.1508 16.073 18.8048 16.073H18.8548C19.5118 16.073 20.0458 15.538 20.0458 14.883V9.70001C20.0458 9.04601 19.5108 8.51001 18.8548 8.51001Z" fill="#21272A"/>
</svg>
