<svg width="24" height="24" viewBox="0 0 24 24" fill="none" xmlns="http://www.w3.org/2000/svg">
<path d="M10.1738 13.107L11.9908 14.156L13.8608 13.076V11.01L11.9698 9.92L10.1738 11.042V13.107ZM8.17377 11.952V4.978C6.31608 5.99492 4.93603 7.70533 4.33477 9.736L8.17477 11.952H8.17377ZM4.01077 11.858L4.00977 12C4.00681 14.0462 4.79094 16.0151 6.19977 17.499L9.98977 15.31L4.01077 11.858ZM10.1738 8.684L15.9818 5.054C14.7728 4.3612 13.4032 3.99776 12.0098 4C11.3778 4 10.7638 4.073 10.1738 4.212V8.684ZM17.6768 6.354L13.8908 8.719L20.0058 12.25C20.0414 11.1601 19.8531 10.0744 19.4525 9.06011C19.0519 8.04582 18.4475 7.12447 17.6768 6.353V6.354ZM15.8608 12.166V19.014C17.6814 18.0122 19.0422 16.3431 19.6568 14.358L15.8608 12.166ZM7.86777 18.846C9.11649 19.6032 10.5494 20.0024 12.0098 20C12.6468 20 13.2668 19.926 13.8598 19.785V15.385L7.86777 18.845V18.846ZM12.0098 22C6.48677 22 2.00977 17.523 2.00977 12C2.00977 6.477 6.48677 2 12.0098 2C17.5328 2 22.0098 6.477 22.0098 12C22.0098 17.523 17.5328 22 12.0098 22Z" fill="#21272A"/>
</svg>
