<svg width="24" height="24" viewBox="0 0 24 24" fill="none" xmlns="http://www.w3.org/2000/svg">
<path d="M14.8098 12.313C14.7978 11.047 15.8438 10.44 15.8898 10.409C15.3028 9.549 14.3878 9.432 14.0618 9.419C13.2828 9.339 12.5418 9.877 12.1468 9.877C11.7528 9.877 11.1428 9.43 10.4968 9.442C9.64776 9.455 8.86576 9.935 8.42876 10.696C7.54676 12.226 8.20276 14.493 9.06176 15.734C9.48176 16.341 9.98276 17.024 10.6408 16.999C11.2738 16.974 11.5128 16.589 12.2788 16.589C13.0448 16.589 13.2588 16.999 13.9288 16.987C14.6108 16.974 15.0428 16.367 15.4598 15.758C15.9418 15.054 16.1408 14.371 16.1528 14.336C16.1378 14.329 14.8228 13.826 14.8108 12.313H14.8098ZM13.5518 8.597C13.9008 8.173 14.1358 7.586 14.0718 7C13.5688 7.02 12.9598 7.335 12.5988 7.757C12.2758 8.132 11.9918 8.73 12.0688 9.305C12.6288 9.348 13.2018 9.019 13.5518 8.597Z" fill="#21272A"/>
<path d="M6.00977 4C5.47933 4 4.97062 4.21071 4.59555 4.58579C4.22048 4.96086 4.00977 5.46957 4.00977 6V18C4.00977 18.5304 4.22048 19.0391 4.59555 19.4142C4.97062 19.7893 5.47933 20 6.00977 20H18.0098C18.5402 20 19.0489 19.7893 19.424 19.4142C19.7991 19.0391 20.0098 18.5304 20.0098 18V6C20.0098 5.46957 19.7991 4.96086 19.424 4.58579C19.0489 4.21071 18.5402 4 18.0098 4H6.00977ZM6.00977 2H18.0098C19.0706 2 20.088 2.42143 20.8382 3.17157C21.5883 3.92172 22.0098 4.93913 22.0098 6V18C22.0098 19.0609 21.5883 20.0783 20.8382 20.8284C20.088 21.5786 19.0706 22 18.0098 22H6.00977C4.9489 22 3.93148 21.5786 3.18134 20.8284C2.43119 20.0783 2.00977 19.0609 2.00977 18V6C2.00977 4.93913 2.43119 3.92172 3.18134 3.17157C3.93148 2.42143 4.9489 2 6.00977 2V2Z" fill="#21272A"/>
</svg>
