<svg width="24" height="24" viewBox="0 0 24 24" fill="none" xmlns="http://www.w3.org/2000/svg">
<path d="M14.8098 12.313C14.7978 11.047 15.8438 10.44 15.8898 10.409C15.3028 9.549 14.3878 9.432 14.0618 9.419C13.2828 9.339 12.5418 9.877 12.1468 9.877C11.7528 9.877 11.1428 9.43 10.4968 9.442C9.64776 9.455 8.86576 9.935 8.42876 10.696C7.54676 12.226 8.20276 14.493 9.06176 15.734C9.48176 16.341 9.98276 17.024 10.6408 16.999C11.2738 16.974 11.5128 16.589 12.2788 16.589C13.0448 16.589 13.2588 16.999 13.9288 16.987C14.6108 16.974 15.0428 16.367 15.4598 15.758C15.9418 15.054 16.1408 14.371 16.1528 14.336C16.1378 14.329 14.8228 13.826 14.8108 12.313H14.8098ZM13.5518 8.597C13.9008 8.173 14.1358 7.586 14.0718 7C13.5688 7.02 12.9598 7.335 12.5988 7.757C12.2758 8.132 11.9918 8.73 12.0688 9.305C12.6288 9.348 13.2018 9.019 13.5518 8.597Z" fill="#21272A"/>
<path d="M12.0098 20C14.1315 20 16.1663 19.1571 17.6666 17.6569C19.1669 16.1566 20.0098 14.1217 20.0098 12C20.0098 9.87827 19.1669 7.84344 17.6666 6.34315C16.1663 4.84285 14.1315 4 12.0098 4C9.88803 4 7.8532 4.84285 6.35291 6.34315C4.85262 7.84344 4.00977 9.87827 4.00977 12C4.00977 14.1217 4.85262 16.1566 6.35291 17.6569C7.8532 19.1571 9.88803 20 12.0098 20ZM12.0098 22C6.48677 22 2.00977 17.523 2.00977 12C2.00977 6.477 6.48677 2 12.0098 2C17.5328 2 22.0098 6.477 22.0098 12C22.0098 17.523 17.5328 22 12.0098 22Z" fill="#21272A"/>
</svg>
