<svg width="24" height="24" viewBox="0 0 24 24" fill="none" xmlns="http://www.w3.org/2000/svg">
<path d="M4.00977 7H20.0098V4H4.00977V7ZM20.0098 9V21C20.0098 21.2652 19.9044 21.5196 19.7169 21.7071C19.5293 21.8946 19.275 22 19.0098 22H5.00977C4.74455 22 4.4902 21.8946 4.30266 21.7071C4.11512 21.5196 4.00977 21.2652 4.00977 21V9H3.00977C2.74455 9 2.4902 8.89464 2.30266 8.70711C2.11512 8.51957 2.00977 8.26522 2.00977 8V3C2.00977 2.73478 2.11512 2.48043 2.30266 2.29289C2.4902 2.10536 2.74455 2 3.00977 2H21.0098C21.275 2 21.5293 2.10536 21.7169 2.29289C21.9044 2.48043 22.0098 2.73478 22.0098 3V8C22.0098 8.26522 21.9044 8.51957 21.7169 8.70711C21.5293 8.89464 21.275 9 21.0098 9H20.0098ZM6.00977 20H18.0098V9H6.00977V20ZM10.0098 16H14.0098C14.275 16 14.5293 16.1054 14.7169 16.2929C14.9044 16.4804 15.0098 16.7348 15.0098 17C15.0098 17.2652 14.9044 17.5196 14.7169 17.7071C14.5293 17.8946 14.275 18 14.0098 18H10.0098C9.74455 18 9.4902 17.8946 9.30266 17.7071C9.11512 17.5196 9.00977 17.2652 9.00977 17C9.00977 16.7348 9.11512 16.4804 9.30266 16.2929C9.4902 16.1054 9.74455 16 10.0098 16Z" fill="#21272A"/>
</svg>
