<svg width="24" height="24" viewBox="0 0 24 24" fill="none" xmlns="http://www.w3.org/2000/svg">
<path d="M6.00977 4C5.47933 4 4.97062 4.21071 4.59555 4.58579C4.22048 4.96086 4.00977 5.46957 4.00977 6V18C4.00977 18.5304 4.22048 19.0391 4.59555 19.4142C4.97062 19.7893 5.47933 20 6.00977 20H18.0098C18.5402 20 19.0489 19.7893 19.424 19.4142C19.7991 19.0391 20.0098 18.5304 20.0098 18V6C20.0098 5.46957 19.7991 4.96086 19.424 4.58579C19.0489 4.21071 18.5402 4 18.0098 4H6.00977ZM6.00977 2H18.0098C19.0706 2 20.088 2.42143 20.8382 3.17157C21.5883 3.92172 22.0098 4.93913 22.0098 6V18C22.0098 19.0609 21.5883 20.0783 20.8382 20.8284C20.088 21.5786 19.0706 22 18.0098 22H6.00977C4.9489 22 3.93148 21.5786 3.18134 20.8284C2.43119 20.0783 2.00977 19.0609 2.00977 18V6C2.00977 4.93913 2.43119 3.92172 3.18134 3.17157C3.93148 2.42143 4.9489 2 6.00977 2V2Z" fill="#21272A"/>
<path d="M13.5958 13H8.00977C7.74455 13 7.4902 12.8946 7.30266 12.7071C7.11512 12.5196 7.00977 12.2652 7.00977 12C7.00977 11.7348 7.11512 11.4804 7.30266 11.2929C7.4902 11.1054 7.74455 11 8.00977 11H13.5958L11.0598 8.464C10.8776 8.2754 10.7768 8.02279 10.7791 7.7606C10.7814 7.4984 10.8865 7.24759 11.0719 7.06218C11.2574 6.87677 11.5082 6.7716 11.7704 6.76932C12.0326 6.76705 12.2852 6.86784 12.4738 7.05L16.7168 11.293C16.81 11.3857 16.8839 11.4958 16.9344 11.6171C16.9848 11.7385 17.0108 11.8686 17.0108 12C17.0108 12.1314 16.9848 12.2615 16.9344 12.3829C16.8839 12.5042 16.81 12.6143 16.7168 12.707L12.4738 16.95C12.3815 17.0455 12.2712 17.1217 12.1492 17.1741C12.0272 17.2265 11.8959 17.2541 11.7632 17.2552C11.6304 17.2564 11.4987 17.2311 11.3758 17.1808C11.2529 17.1305 11.1413 17.0563 11.0474 16.9624C10.9535 16.8685 10.8792 16.7568 10.8289 16.634C10.7787 16.5111 10.7534 16.3794 10.7545 16.2466C10.7557 16.1138 10.7833 15.9826 10.8357 15.8606C10.8881 15.7386 10.9643 15.6282 11.0598 15.536L13.5958 13Z" fill="#21272A"/>
</svg>
