<svg width="24" height="24" viewBox="0 0 24 24" fill="none" xmlns="http://www.w3.org/2000/svg">
<path d="M12.0098 22C6.48677 22 2.00977 17.523 2.00977 12C2.00977 6.477 6.48677 2 12.0098 2C17.5328 2 22.0098 6.477 22.0098 12C22.0098 17.523 17.5328 22 12.0098 22ZM12.0098 20C14.1315 20 16.1663 19.1571 17.6666 17.6569C19.1669 16.1566 20.0098 14.1217 20.0098 12C20.0098 9.87827 19.1669 7.84344 17.6666 6.34315C16.1663 4.84285 14.1315 4 12.0098 4C9.88803 4 7.8532 4.84285 6.35291 6.34315C4.85262 7.84344 4.00977 9.87827 4.00977 12C4.00977 14.1217 4.85262 16.1566 6.35291 17.6569C7.8532 19.1571 9.88803 20 12.0098 20ZM13.5958 13H8.00977C7.74455 13 7.4902 12.8946 7.30266 12.7071C7.11512 12.5196 7.00977 12.2652 7.00977 12C7.00977 11.7348 7.11512 11.4804 7.30266 11.2929C7.4902 11.1054 7.74455 11 8.00977 11H13.5958L11.0598 8.464C10.9643 8.37175 10.8881 8.26141 10.8357 8.1394C10.7833 8.0174 10.7557 7.88618 10.7545 7.7534C10.7534 7.62062 10.7787 7.48894 10.8289 7.36605C10.8792 7.24315 10.9535 7.1315 11.0474 7.0376C11.1413 6.94371 11.2529 6.86946 11.3758 6.81918C11.4987 6.7689 11.6304 6.7436 11.7632 6.74475C11.8959 6.7459 12.0272 6.77349 12.1492 6.8259C12.2712 6.87831 12.3815 6.95449 12.4738 7.05L16.7168 11.293C16.81 11.3857 16.8839 11.4958 16.9344 11.6171C16.9848 11.7385 17.0108 11.8686 17.0108 12C17.0108 12.1314 16.9848 12.2615 16.9344 12.3829C16.8839 12.5042 16.81 12.6143 16.7168 12.707L12.4738 16.95C12.3815 17.0455 12.2712 17.1217 12.1492 17.1741C12.0272 17.2265 11.8959 17.2541 11.7632 17.2552C11.6304 17.2564 11.4987 17.2311 11.3758 17.1808C11.2529 17.1305 11.1413 17.0563 11.0474 16.9624C10.9535 16.8685 10.8792 16.7569 10.8289 16.634C10.7787 16.5111 10.7534 16.3794 10.7545 16.2466C10.7557 16.1138 10.7833 15.9826 10.8357 15.8606C10.8881 15.7386 10.9643 15.6282 11.0598 15.536L13.5958 13Z" fill="#21272A"/>
</svg>
