<svg width="24" height="24" viewBox="0 0 24 24" fill="none" xmlns="http://www.w3.org/2000/svg">
<path d="M15.4098 13.985V8.39998C15.4098 8.13476 15.5151 7.88041 15.7027 7.69287C15.8902 7.50534 16.1445 7.39998 16.4098 7.39998C16.675 7.39998 16.9293 7.50534 17.1169 7.69287C17.3044 7.88041 17.4098 8.13476 17.4098 8.39998V16.4C17.4102 16.5314 17.3846 16.6616 17.3344 16.7831C17.2843 16.9046 17.2107 17.015 17.1178 17.108C17.0248 17.2009 16.9144 17.2746 16.7929 17.3247C16.6714 17.3748 16.5412 17.4004 16.4098 17.4H8.40976C8.14455 17.4 7.89019 17.2946 7.70266 17.1071C7.51512 16.9196 7.40976 16.6652 7.40976 16.4C7.40976 16.1348 7.51512 15.8804 7.70266 15.6929C7.89019 15.5053 8.14455 15.4 8.40976 15.4H13.9948L7.21676 8.62098C7.0346 8.43238 6.93381 8.17978 6.93609 7.91758C6.93837 7.65538 7.04354 7.40457 7.22894 7.21916C7.41435 7.03375 7.66516 6.92859 7.92736 6.92631C8.18956 6.92403 8.44216 7.02482 8.63076 7.20698L15.4098 13.985Z" fill="#21272A"/>
</svg>
