<svg width="24" height="24" viewBox="0 0 24 24" fill="none" xmlns="http://www.w3.org/2000/svg">
<path d="M12.0098 22C6.48677 22 2.00977 17.523 2.00977 12C2.00977 6.477 6.48677 2 12.0098 2C17.5328 2 22.0098 6.477 22.0098 12C22.0098 17.523 17.5328 22 12.0098 22ZM12.0098 20C14.1315 20 16.1663 19.1571 17.6666 17.6569C19.1669 16.1566 20.0098 14.1217 20.0098 12C20.0098 9.87827 19.1669 7.84344 17.6666 6.34315C16.1663 4.84285 14.1315 4 12.0098 4C9.88803 4 7.8532 4.84285 6.35291 6.34315C4.85262 7.84344 4.00977 9.87827 4.00977 12C4.00977 14.1217 4.85262 16.1566 6.35291 17.6569C7.8532 19.1571 9.88803 20 12.0098 20ZM13.8378 11.586L9.88777 15.536C9.79486 15.6288 9.68457 15.7025 9.5632 15.7527C9.44183 15.8029 9.31176 15.8287 9.18041 15.8287C9.04906 15.8287 8.91901 15.8027 8.79768 15.7524C8.67635 15.7021 8.56611 15.6284 8.47327 15.5355C8.38042 15.4426 8.30679 15.3323 8.25656 15.2109C8.20634 15.0896 8.18052 14.9595 8.18056 14.8281C8.18066 14.5629 8.28613 14.3085 8.47377 14.121L12.4238 10.171H8.83777C8.57255 10.171 8.31819 10.0656 8.13066 9.87811C7.94312 9.69057 7.83777 9.43622 7.83777 9.171C7.83777 8.90578 7.94312 8.65143 8.13066 8.46389C8.31819 8.27636 8.57255 8.171 8.83777 8.171H14.8378C14.9692 8.1706 15.0994 8.1962 15.2209 8.24631C15.3424 8.29643 15.4528 8.37007 15.5458 8.46301C15.6387 8.55595 15.7123 8.66634 15.7625 8.78785C15.8126 8.90935 15.8382 9.03957 15.8378 9.171V15.171C15.8378 15.4362 15.7324 15.6906 15.5449 15.8781C15.3573 16.0656 15.103 16.171 14.8378 16.171C14.5725 16.171 14.3182 16.0656 14.1307 15.8781C13.9431 15.6906 13.8378 15.4362 13.8378 15.171V11.587V11.586Z" fill="#21272A"/>
</svg>
