<svg width="24" height="24" viewBox="0 0 24 24" fill="none" xmlns="http://www.w3.org/2000/svg">
<path d="M3.00977 2H9.00977C9.27498 2 9.52934 2.10536 9.71687 2.29289C9.90441 2.48043 10.0098 2.73478 10.0098 3C10.0098 3.26522 9.90441 3.51957 9.71687 3.70711C9.52934 3.89464 9.27498 4 9.00977 4H5.42377L20.0098 18.586V15C20.0098 14.7348 20.1151 14.4804 20.3027 14.2929C20.4902 14.1054 20.7445 14 21.0098 14C21.275 14 21.5293 14.1054 21.7169 14.2929C21.9044 14.4804 22.0098 14.7348 22.0098 15V21C22.0098 21.2652 21.9044 21.5196 21.7169 21.7071C21.5293 21.8946 21.275 22 21.0098 22H15.0098C14.7445 22 14.4902 21.8946 14.3027 21.7071C14.1151 21.5196 14.0098 21.2652 14.0098 21C14.0098 20.7348 14.1151 20.4804 14.3027 20.2929C14.4902 20.1054 14.7445 20 15.0098 20H18.5958L4.00977 5.414V9C4.00977 9.26522 3.90441 9.51957 3.71687 9.70711C3.52934 9.89464 3.27498 10 3.00977 10C2.74455 10 2.4902 9.89464 2.30266 9.70711C2.11512 9.51957 2.00977 9.26522 2.00977 9V3C2.00977 2.73478 2.11512 2.48043 2.30266 2.29289C2.4902 2.10536 2.74455 2 3.00977 2V2Z" fill="#21272A"/>
</svg>
