<svg width="24" height="24" viewBox="0 0 24 24" fill="none" xmlns="http://www.w3.org/2000/svg">
<path d="M6.00977 4C5.47933 4 4.97062 4.21071 4.59555 4.58579C4.22048 4.96086 4.00977 5.46957 4.00977 6V18C4.00977 18.5304 4.22048 19.0391 4.59555 19.4142C4.97062 19.7893 5.47933 20 6.00977 20H18.0098C18.5402 20 19.0489 19.7893 19.424 19.4142C19.7991 19.0391 20.0098 18.5304 20.0098 18V6C20.0098 5.46957 19.7991 4.96086 19.424 4.58579C19.0489 4.21071 18.5402 4 18.0098 4H6.00977ZM6.00977 2H18.0098C19.0706 2 20.088 2.42143 20.8382 3.17157C21.5883 3.92172 22.0098 4.93913 22.0098 6V18C22.0098 19.0609 21.5883 20.0783 20.8382 20.8284C20.088 21.5786 19.0706 22 18.0098 22H6.00977C4.9489 22 3.93148 21.5786 3.18134 20.8284C2.43119 20.0783 2.00977 19.0609 2.00977 18V6C2.00977 4.93913 2.43119 3.92172 3.18134 3.17157C3.93148 2.42143 4.9489 2 6.00977 2V2Z" fill="#21272A"/>
<path d="M10.1818 12.4141L14.1318 8.4641C14.2247 8.37126 14.335 8.29762 14.4563 8.2474C14.5777 8.19718 14.7078 8.17135 14.8391 8.1714C14.9705 8.17145 15.1005 8.19736 15.2219 8.24767C15.3432 8.29798 15.4534 8.37169 15.5463 8.4646C15.6391 8.55751 15.7127 8.6678 15.763 8.78917C15.8132 8.91054 15.839 9.04061 15.839 9.17196C15.8389 9.3033 15.813 9.43336 15.7627 9.55469C15.7124 9.67602 15.6387 9.78626 15.5458 9.8791L11.5958 13.8291H15.1818C15.447 13.8291 15.7013 13.9345 15.8889 14.122C16.0764 14.3095 16.1818 14.5639 16.1818 14.8291C16.1818 15.0943 16.0764 15.3487 15.8889 15.5362C15.7013 15.7237 15.447 15.8291 15.1818 15.8291H9.18177C9.05033 15.8295 8.92012 15.8039 8.79862 15.7538C8.67711 15.7037 8.56672 15.63 8.47378 15.5371C8.38084 15.4442 8.3072 15.3338 8.25708 15.2123C8.20697 15.0907 8.18137 14.9605 8.18177 14.8291V8.8291C8.18177 8.56389 8.28712 8.30953 8.47466 8.12199C8.6622 7.93446 8.91655 7.8291 9.18177 7.8291C9.44698 7.8291 9.70134 7.93446 9.88887 8.12199C10.0764 8.30953 10.1818 8.56389 10.1818 8.8291V12.4141Z" fill="#21272A"/>
</svg>
