<svg width="24" height="24" viewBox="0 0 24 24" fill="none" xmlns="http://www.w3.org/2000/svg">
<path d="M6.00977 4C5.47933 4 4.97062 4.21071 4.59555 4.58579C4.22048 4.96086 4.00977 5.46957 4.00977 6V18C4.00977 18.5304 4.22048 19.0391 4.59555 19.4142C4.97062 19.7893 5.47933 20 6.00977 20H18.0098C18.5402 20 19.0489 19.7893 19.424 19.4142C19.7991 19.0391 20.0098 18.5304 20.0098 18V6C20.0098 5.46957 19.7991 4.96086 19.424 4.58579C19.0489 4.21071 18.5402 4 18.0098 4H6.00977ZM6.00977 2H18.0098C19.0706 2 20.088 2.42143 20.8382 3.17157C21.5883 3.92172 22.0098 4.93913 22.0098 6V18C22.0098 19.0609 21.5883 20.0783 20.8382 20.8284C20.088 21.5786 19.0706 22 18.0098 22H6.00977C4.9489 22 3.93148 21.5786 3.18134 20.8284C2.43119 20.0783 2.00977 19.0609 2.00977 18V6C2.00977 4.93913 2.43119 3.92172 3.18134 3.17157C3.93148 2.42143 4.9489 2 6.00977 2V2Z" fill="#21272A"/>
<path d="M11.0098 13.586V8C11.0098 7.73478 11.1151 7.48043 11.3027 7.29289C11.4902 7.10536 11.7446 7 12.0098 7C12.275 7 12.5293 7.10536 12.7169 7.29289C12.9044 7.48043 13.0098 7.73478 13.0098 8V13.586L15.5458 11.05C15.7344 10.8678 15.987 10.767 16.2492 10.7693C16.5114 10.7716 16.7622 10.8768 16.9476 11.0622C17.133 11.2476 17.2382 11.4984 17.2404 11.7606C17.2427 12.0228 17.1419 12.2754 16.9598 12.464L12.7168 16.707C12.6241 16.8002 12.514 16.8741 12.3926 16.9246C12.2713 16.9751 12.1412 17.001 12.0098 17.001C11.8784 17.001 11.7482 16.9751 11.6269 16.9246C11.5056 16.8741 11.3954 16.8002 11.3028 16.707L7.05977 12.464C6.96426 12.3718 6.88807 12.2614 6.83567 12.1394C6.78326 12.0174 6.75567 11.8862 6.75452 11.7534C6.75336 11.6206 6.77866 11.4889 6.82894 11.366C6.87923 11.2431 6.95348 11.1315 7.04737 11.0376C7.14126 10.9437 7.25292 10.8695 7.37581 10.8192C7.49871 10.7689 7.63039 10.7436 7.76317 10.7448C7.89595 10.7459 8.02717 10.7735 8.14917 10.8259C8.27118 10.8783 8.38152 10.9545 8.47377 11.05L11.0098 13.586Z" fill="#21272A"/>
</svg>
