<svg width="24" height="24" viewBox="0 0 24 24" fill="none" xmlns="http://www.w3.org/2000/svg">
<path d="M11.0098 18.5731V5.41906L8.47377 7.95406C8.28516 8.13622 8.03256 8.23701 7.77037 8.23473C7.50817 8.23245 7.25736 8.12729 7.07195 7.94188C6.88654 7.75647 6.78137 7.50566 6.77909 7.24346C6.77681 6.98126 6.87761 6.72866 7.05977 6.54006L11.3028 2.29706C11.4903 2.10959 11.7446 2.00427 12.0098 2.00427C12.2749 2.00427 12.5292 2.10959 12.7168 2.29706L16.9598 6.54006C17.0553 6.63231 17.1315 6.74265 17.1839 6.86465C17.2363 6.98666 17.2639 7.11788 17.265 7.25066C17.2662 7.38344 17.2409 7.51512 17.1906 7.63801C17.1403 7.76091 17.0661 7.87256 16.9722 7.96645C16.8783 8.06035 16.7666 8.1346 16.6437 8.18488C16.5208 8.23516 16.3891 8.26046 16.2564 8.25931C16.1236 8.25816 15.9924 8.23057 15.8704 8.17816C15.7484 8.12575 15.638 8.04957 15.5458 7.95406L13.0098 5.42006V18.5741L15.5458 16.0381C15.638 15.9425 15.7484 15.8664 15.8704 15.814C15.9924 15.7615 16.1236 15.734 16.2564 15.7328C16.3891 15.7317 16.5208 15.757 16.6437 15.8072C16.7666 15.8575 16.8783 15.9318 16.9722 16.0257C17.0661 16.1196 17.1403 16.2312 17.1906 16.3541C17.2409 16.477 17.2662 16.6087 17.265 16.7415C17.2639 16.8742 17.2363 17.0055 17.1839 17.1275C17.1315 17.2495 17.0553 17.3598 16.9598 17.4521L12.7168 21.6951C12.6241 21.7882 12.514 21.8622 12.3926 21.9127C12.2713 21.9631 12.1412 21.9891 12.0098 21.9891C11.8784 21.9891 11.7482 21.9631 11.6269 21.9127C11.5056 21.8622 11.3954 21.7882 11.3028 21.6951L7.05977 17.4511C6.96426 17.3588 6.88807 17.2485 6.83567 17.1265C6.78326 17.0045 6.75567 16.8732 6.75452 16.7405C6.75336 16.6077 6.77866 16.476 6.82895 16.3531C6.87923 16.2302 6.95348 16.1186 7.04737 16.0247C7.14126 15.9308 7.25292 15.8565 7.37581 15.8062C7.49871 15.756 7.63039 15.7307 7.76317 15.7318C7.89595 15.733 8.02717 15.7605 8.14917 15.813C8.27118 15.8654 8.38152 15.9415 8.47377 16.0371L11.0098 18.5731Z" fill="#21272A"/>
</svg>
