<svg width="24" height="24" viewBox="0 0 24 24" fill="none" xmlns="http://www.w3.org/2000/svg">
<path d="M8.42377 12.6571L12.3738 16.6071C12.5514 16.7965 12.6484 17.0477 12.6442 17.3074C12.64 17.567 12.5349 17.8149 12.3512 17.9985C12.1675 18.1821 11.9195 18.287 11.6598 18.291C11.4002 18.295 11.1491 18.1979 10.9598 18.0201L5.30277 12.3641C5.20958 12.2714 5.13563 12.1613 5.08517 12.0399C5.03471 11.9186 5.00873 11.7885 5.00873 11.6571C5.00873 11.5257 5.03471 11.3956 5.08517 11.2742C5.13563 11.1529 5.20958 11.0427 5.30277 10.9501L10.9598 5.29308C11.052 5.19757 11.1624 5.12139 11.2844 5.06898C11.4064 5.01657 11.5376 4.98898 11.6704 4.98783C11.8031 4.98668 11.9348 5.01198 12.0577 5.06226C12.1806 5.11254 12.2923 5.18679 12.3862 5.28069C12.4801 5.37458 12.5543 5.48623 12.6046 5.60913C12.6549 5.73202 12.6802 5.8637 12.679 5.99648C12.6779 6.12926 12.6503 6.26048 12.5979 6.38249C12.5455 6.50449 12.4693 6.61483 12.3738 6.70708L8.42377 10.6571H18.0098C18.275 10.6571 18.5293 10.7624 18.7169 10.95C18.9044 11.1375 19.0098 11.3919 19.0098 11.6571C19.0098 11.9223 18.9044 12.1767 18.7169 12.3642C18.5293 12.5517 18.275 12.6571 18.0098 12.6571H8.42377Z" fill="#21272A"/>
</svg>
