<svg width="24" height="24" viewBox="0 0 24 24" fill="none" xmlns="http://www.w3.org/2000/svg">
<path d="M12.0098 22C6.48677 22 2.00977 17.523 2.00977 12C2.00977 6.477 6.48677 2 12.0098 2C17.5328 2 22.0098 6.477 22.0098 12C22.0098 17.523 17.5328 22 12.0098 22ZM12.0098 20C14.1315 20 16.1663 19.1571 17.6666 17.6569C19.1669 16.1566 20.0098 14.1217 20.0098 12C20.0098 9.87827 19.1669 7.84344 17.6666 6.34315C16.1663 4.84285 14.1315 4 12.0098 4C9.88803 4 7.8532 4.84285 6.35291 6.34315C4.85262 7.84344 4.00977 9.87827 4.00977 12C4.00977 14.1217 4.85262 16.1566 6.35291 17.6569C7.8532 19.1571 9.88803 20 12.0098 20ZM11.5958 10.172L15.5458 14.122C15.6386 14.2149 15.7122 14.3252 15.7625 14.4466C15.8127 14.5679 15.8385 14.698 15.8385 14.8294C15.8384 14.9607 15.8125 15.0908 15.7622 15.2121C15.7119 15.3334 15.6382 15.4437 15.5453 15.5365C15.4524 15.6293 15.3421 15.703 15.2207 15.7532C15.0993 15.8034 14.9693 15.8292 14.8379 15.8292C14.7066 15.8292 14.5765 15.8032 14.4552 15.7529C14.3338 15.7026 14.2236 15.6289 14.1308 15.536L10.1808 11.586V15.172C10.1808 15.4372 10.0754 15.6916 9.88787 15.8791C9.70034 16.0666 9.44598 16.172 9.18077 16.172C8.91555 16.172 8.6612 16.0666 8.47366 15.8791C8.28612 15.6916 8.18077 15.4372 8.18077 15.172V9.172C8.18037 9.04057 8.20596 8.91035 8.25608 8.78885C8.30619 8.66734 8.37984 8.55695 8.47278 8.46401C8.56571 8.37107 8.67611 8.29743 8.79761 8.24731C8.91912 8.1972 9.04933 8.1716 9.18077 8.172H15.1808C15.446 8.172 15.7003 8.27736 15.8879 8.46489C16.0754 8.65243 16.1808 8.90678 16.1808 9.172C16.1808 9.43722 16.0754 9.69157 15.8879 9.87911C15.7003 10.0666 15.446 10.172 15.1808 10.172H11.5968H11.5958Z" fill="#21272A"/>
</svg>
