<svg width="24" height="24" viewBox="0 0 24 24" fill="none" xmlns="http://www.w3.org/2000/svg">
<path d="M8.76677 10.3279V15.9139C8.76677 16.1792 8.66141 16.4335 8.47387 16.6211C8.28634 16.8086 8.03198 16.9139 7.76677 16.9139C7.50155 16.9139 7.2472 16.8086 7.05966 16.6211C6.87212 16.4335 6.76677 16.1792 6.76677 15.9139V7.91394C6.76637 7.78251 6.79197 7.6523 6.84208 7.53079C6.89219 7.40929 6.96584 7.29889 7.05878 7.20595C7.15171 7.11302 7.26211 7.03937 7.38361 6.98926C7.50512 6.93914 7.63533 6.91355 7.76677 6.91394H15.7668C16.032 6.91394 16.2863 7.0193 16.4739 7.20684C16.6614 7.39437 16.7668 7.64873 16.7668 7.91394C16.7668 8.17916 16.6614 8.43352 16.4739 8.62105C16.2863 8.80859 16.032 8.91394 15.7668 8.91394H10.1818L16.9598 15.6919C17.0527 15.7848 17.1264 15.895 17.1767 16.0164C17.227 16.1377 17.2529 16.2677 17.253 16.3991C17.253 16.5304 17.2272 16.6605 17.177 16.7819C17.1267 16.9032 17.0531 17.0135 16.9603 17.1064C16.8674 17.1994 16.7572 17.2731 16.6359 17.3234C16.5145 17.3737 16.3845 17.3996 16.2531 17.3996C16.1218 17.3997 15.9917 17.3739 15.8703 17.3236C15.749 17.2734 15.6387 17.1998 15.5458 17.1069L8.76677 10.3279Z" fill="#21272A"/>
</svg>
