<svg width="24" height="24" viewBox="0 0 24 24" fill="none" xmlns="http://www.w3.org/2000/svg">
<path d="M11.0098 8.57104L7.05976 12.521C6.87116 12.7032 6.61856 12.804 6.35636 12.8017C6.09417 12.7994 5.84335 12.6943 5.65794 12.5089C5.47254 12.3235 5.36737 12.0726 5.36509 11.8104C5.36281 11.5482 5.46361 11.2956 5.64576 11.107L11.3028 5.45004C11.3954 5.35686 11.5056 5.28291 11.6269 5.23244C11.7482 5.18198 11.8784 5.15601 12.0098 5.15601C12.1412 5.15601 12.2713 5.18198 12.3926 5.23244C12.5139 5.28291 12.6241 5.35686 12.7168 5.45004L18.3738 11.107C18.5514 11.2965 18.6484 11.5476 18.6442 11.8073C18.64 12.067 18.5349 12.3148 18.3512 12.4984C18.1675 12.682 17.9195 12.7869 17.6598 12.791C17.4002 12.795 17.1491 12.6978 16.9598 12.52L13.0098 8.57004V18.156C13.0098 18.4213 12.9044 18.6756 12.7169 18.8631C12.5293 19.0507 12.275 19.156 12.0098 19.156C11.7445 19.156 11.4902 19.0507 11.3027 18.8631C11.1151 18.6756 11.0098 18.4213 11.0098 18.156V8.57004V8.57104Z" fill="#21272A"/>
</svg>
