<svg width="24" height="24" viewBox="0 0 24 24" fill="none" xmlns="http://www.w3.org/2000/svg">
<path d="M13.0098 15.743L16.9598 11.793C17.052 11.6975 17.1624 11.6213 17.2844 11.5689C17.4064 11.5165 17.5376 11.4889 17.6704 11.4877C17.8032 11.4866 17.9348 11.5119 18.0577 11.5622C18.1806 11.6124 18.2923 11.6867 18.3862 11.7806C18.4801 11.8745 18.5543 11.9861 18.6046 12.109C18.6549 12.2319 18.6802 12.3636 18.679 12.4964C18.6779 12.6292 18.6503 12.7604 18.5979 12.8824C18.5455 13.0044 18.4693 13.1147 18.3738 13.207L12.7168 18.864C12.6241 18.9572 12.514 19.0311 12.3926 19.0816C12.2713 19.132 12.1412 19.158 12.0098 19.158C11.8784 19.158 11.7483 19.132 11.6269 19.0816C11.5056 19.0311 11.3954 18.9572 11.3028 18.864L5.64577 13.207C5.55026 13.1147 5.47408 13.0044 5.42167 12.8824C5.36926 12.7604 5.34168 12.6292 5.34052 12.4964C5.33937 12.3636 5.36467 12.2319 5.41495 12.109C5.46523 11.9861 5.53949 11.8745 5.63338 11.7806C5.72727 11.6867 5.83892 11.6124 5.96182 11.5622C6.08472 11.5119 6.21639 11.4866 6.34917 11.4877C6.48195 11.4889 6.61317 11.5165 6.73518 11.5689C6.85718 11.6213 6.96753 11.6975 7.05977 11.793L11.0098 15.743V6.15698C11.0098 5.89177 11.1151 5.63741 11.3027 5.44988C11.4902 5.26234 11.7446 5.15698 12.0098 5.15698C12.275 5.15698 12.5293 5.26234 12.7169 5.44988C12.9044 5.63741 13.0098 5.89177 13.0098 6.15698V15.743Z" fill="#21272A"/>
</svg>
