<svg width="24" height="24" viewBox="0 0 24 24" fill="none" xmlns="http://www.w3.org/2000/svg">
<path d="M6.00977 4C5.47933 4 4.97062 4.21071 4.59555 4.58579C4.22048 4.96086 4.00977 5.46957 4.00977 6V18C4.00977 18.5304 4.22048 19.0391 4.59555 19.4142C4.97062 19.7893 5.47933 20 6.00977 20H18.0098C18.5402 20 19.0489 19.7893 19.424 19.4142C19.7991 19.0391 20.0098 18.5304 20.0098 18V6C20.0098 5.46957 19.7991 4.96086 19.424 4.58579C19.0489 4.21071 18.5402 4 18.0098 4H6.00977ZM6.00977 2H18.0098C19.0706 2 20.088 2.42143 20.8382 3.17157C21.5883 3.92172 22.0098 4.93913 22.0098 6V18C22.0098 19.0609 21.5883 20.0783 20.8382 20.8284C20.088 21.5786 19.0706 22 18.0098 22H6.00977C4.9489 22 3.93148 21.5786 3.18134 20.8284C2.43119 20.0783 2.00977 19.0609 2.00977 18V6C2.00977 4.93913 2.43119 3.92172 3.18134 3.17157C3.93148 2.42143 4.9489 2 6.00977 2V2Z" fill="#21272A"/>
<path d="M10.4238 10.9999H16.0098C16.275 10.9999 16.5293 11.1053 16.7169 11.2928C16.9044 11.4803 17.0098 11.7347 17.0098 11.9999C17.0098 12.2651 16.9044 12.5195 16.7169 12.707C16.5293 12.8946 16.275 12.9999 16.0098 12.9999H10.4238L12.9598 15.5359C13.1419 15.7245 13.2427 15.9771 13.2404 16.2393C13.2382 16.5015 13.133 16.7523 12.9476 16.9377C12.7622 17.1231 12.5114 17.2283 12.2492 17.2306C11.987 17.2329 11.7344 17.1321 11.5458 16.9499L7.30276 12.7069C7.20958 12.6143 7.13563 12.5041 7.08517 12.3828C7.03471 12.2614 7.00873 12.1313 7.00873 11.9999C7.00873 11.8685 7.03471 11.7384 7.08517 11.6171C7.13563 11.4957 7.20958 11.3856 7.30276 11.2929L11.5458 7.04992C11.638 6.95441 11.7484 6.87822 11.8704 6.82582C11.9924 6.77341 12.1236 6.74582 12.2564 6.74467C12.3891 6.74351 12.5208 6.76881 12.6437 6.8191C12.7666 6.86938 12.8783 6.94363 12.9722 7.03752C13.0661 7.13141 13.1403 7.24307 13.1906 7.36596C13.2409 7.48886 13.2662 7.62054 13.265 7.75332C13.2639 7.8861 13.2363 8.01732 13.1839 8.13932C13.1315 8.26133 13.0553 8.37167 12.9598 8.46392L10.4238 10.9999Z" fill="#21272A"/>
</svg>
