<svg width="24" height="24" viewBox="0 0 24 24" fill="none" xmlns="http://www.w3.org/2000/svg">
<path d="M6.00977 4C5.47933 4 4.97062 4.21071 4.59555 4.58579C4.22048 4.96086 4.00977 5.46957 4.00977 6V18C4.00977 18.5304 4.22048 19.0391 4.59555 19.4142C4.97062 19.7893 5.47933 20 6.00977 20H18.0098C18.5402 20 19.0489 19.7893 19.424 19.4142C19.7991 19.0391 20.0098 18.5304 20.0098 18V6C20.0098 5.46957 19.7991 4.96086 19.424 4.58579C19.0489 4.21071 18.5402 4 18.0098 4H6.00977ZM6.00977 2H18.0098C19.0706 2 20.088 2.42143 20.8382 3.17157C21.5883 3.92172 22.0098 4.93913 22.0098 6V18C22.0098 19.0609 21.5883 20.0783 20.8382 20.8284C20.088 21.5786 19.0706 22 18.0098 22H6.00977C4.9489 22 3.93148 21.5786 3.18134 20.8284C2.43119 20.0783 2.00977 19.0609 2.00977 18V6C2.00977 4.93913 2.43119 3.92172 3.18134 3.17157C3.93148 2.42143 4.9489 2 6.00977 2V2Z" fill="#21272A"/>
<path d="M12.4238 13.8279L8.47377 9.87788C8.38099 9.7849 8.30743 9.67457 8.2573 9.55316C8.20716 9.43176 8.18143 9.30167 8.18156 9.17032C8.1817 9.03897 8.20771 8.90894 8.25811 8.78764C8.3085 8.66634 8.38229 8.55616 8.47527 8.46338C8.56824 8.3706 8.67858 8.29704 8.79999 8.24691C8.92139 8.19677 9.05148 8.17104 9.18283 8.17118C9.31418 8.17132 9.44421 8.19733 9.56551 8.24772C9.68681 8.29811 9.79699 8.37191 9.88977 8.46488L13.8398 12.4149V8.82788C13.8398 8.56266 13.9451 8.30831 14.1327 8.12077C14.3202 7.93324 14.5746 7.82788 14.8398 7.82788C15.105 7.82788 15.3593 7.93324 15.5469 8.12077C15.7344 8.30831 15.8398 8.56266 15.8398 8.82788V14.8279C15.8402 14.9593 15.8146 15.0895 15.7645 15.211C15.7143 15.3325 15.6407 15.4429 15.5478 15.5359C15.4548 15.6288 15.3444 15.7025 15.2229 15.7526C15.1014 15.8027 14.9712 15.8283 14.8398 15.8279H8.83977C8.57455 15.8279 8.3202 15.7225 8.13266 15.535C7.94512 15.3475 7.83977 15.0931 7.83977 14.8279C7.83977 14.5627 7.94512 14.3083 8.13266 14.1208C8.3202 13.9332 8.57455 13.8279 8.83977 13.8279H12.4248H12.4238Z" fill="#21272A"/>
</svg>
