<svg width="24" height="24" viewBox="0 0 24 24" fill="none" xmlns="http://www.w3.org/2000/svg">
<path d="M12.0098 22C6.48677 22 2.00977 17.523 2.00977 12C2.00977 6.477 6.48677 2 12.0098 2C17.5328 2 22.0098 6.477 22.0098 12C22.0098 17.523 17.5328 22 12.0098 22ZM12.0098 20C14.1315 20 16.1663 19.1571 17.6666 17.6569C19.1669 16.1566 20.0098 14.1217 20.0098 12C20.0098 9.87827 19.1669 7.84344 17.6666 6.34315C16.1663 4.84285 14.1315 4 12.0098 4C9.88803 4 7.8532 4.84285 6.35291 6.34315C4.85262 7.84344 4.00977 9.87827 4.00977 12C4.00977 14.1217 4.85262 16.1566 6.35291 17.6569C7.8532 19.1571 9.88803 20 12.0098 20ZM10.4238 11H16.0098C16.275 11 16.5293 11.1054 16.7169 11.2929C16.9044 11.4804 17.0098 11.7348 17.0098 12C17.0098 12.2652 16.9044 12.5196 16.7169 12.7071C16.5293 12.8946 16.275 13 16.0098 13H10.4238L12.9598 15.536C13.1419 15.7246 13.2427 15.9772 13.2404 16.2394C13.2382 16.5016 13.133 16.7524 12.9476 16.9378C12.7622 17.1232 12.5114 17.2284 12.2492 17.2307C11.987 17.233 11.7344 17.1322 11.5458 16.95L7.30277 12.707C7.20958 12.6143 7.13563 12.5042 7.08517 12.3829C7.03471 12.2615 7.00873 12.1314 7.00873 12C7.00873 11.8686 7.03471 11.7385 7.08517 11.6171C7.13563 11.4958 7.20958 11.3857 7.30277 11.293L11.5458 7.05C11.7344 6.86784 11.987 6.76705 12.2492 6.76933C12.5114 6.7716 12.7622 6.87677 12.9476 7.06218C13.133 7.24759 13.2382 7.4984 13.2404 7.7606C13.2427 8.0228 13.1419 8.2754 12.9598 8.464L10.4238 11Z" fill="#21272A"/>
</svg>
