<svg width="24" height="24" viewBox="0 0 24 24" fill="none" xmlns="http://www.w3.org/2000/svg">
<path d="M12.0098 22C6.48677 22 2.00977 17.523 2.00977 12C2.00977 6.477 6.48677 2 12.0098 2C17.5328 2 22.0098 6.477 22.0098 12C22.0098 17.523 17.5328 22 12.0098 22ZM12.0098 20C14.1315 20 16.1663 19.1571 17.6666 17.6569C19.1669 16.1566 20.0098 14.1217 20.0098 12C20.0098 9.87827 19.1669 7.84344 17.6666 6.34315C16.1663 4.84285 14.1315 4 12.0098 4C9.88803 4 7.8532 4.84285 6.35291 6.34315C4.85262 7.84344 4.00977 9.87827 4.00977 12C4.00977 14.1217 4.85262 16.1566 6.35291 17.6569C7.8532 19.1571 9.88803 20 12.0098 20ZM12.4238 13.828L8.47377 9.878C8.28639 9.69023 8.18128 9.43571 8.18156 9.17044C8.18184 8.90517 8.28749 8.65088 8.47527 8.4635C8.66304 8.27612 8.91756 8.17102 9.18283 8.1713C9.4481 8.17158 9.70239 8.27723 9.88977 8.465L13.8398 12.415V8.828C13.8398 8.56278 13.9451 8.30843 14.1327 8.12089C14.3202 7.93336 14.5745 7.828 14.8398 7.828C15.105 7.828 15.3593 7.93336 15.5469 8.12089C15.7344 8.30843 15.8398 8.56278 15.8398 8.828V14.828C15.8402 14.9594 15.8146 15.0896 15.7645 15.2112C15.7143 15.3327 15.6407 15.4431 15.5478 15.536C15.4548 15.6289 15.3444 15.7026 15.2229 15.7527C15.1014 15.8028 14.9712 15.8284 14.8398 15.828H8.83977C8.57455 15.828 8.3202 15.7226 8.13266 15.5351C7.94512 15.3476 7.83977 15.0932 7.83977 14.828C7.83977 14.5628 7.94512 14.3084 8.13266 14.1209C8.3202 13.9334 8.57455 13.828 8.83977 13.828H12.4248H12.4238Z" fill="#21272A"/>
</svg>
