<svg width="24" height="24" viewBox="0 0 24 24" fill="none" xmlns="http://www.w3.org/2000/svg">
<path d="M13.8378 8.91394H8.25276C7.98754 8.91394 7.73319 8.80859 7.54565 8.62105C7.35812 8.43352 7.25276 8.17916 7.25276 7.91394C7.25276 7.64873 7.35812 7.39437 7.54565 7.20684C7.73319 7.0193 7.98754 6.91394 8.25276 6.91394H16.2528C16.3842 6.91355 16.5144 6.93914 16.6359 6.98926C16.7574 7.03937 16.8678 7.11302 16.9607 7.20595C17.0537 7.29889 17.1273 7.40929 17.1774 7.53079C17.2276 7.6523 17.2532 7.78251 17.2528 7.91394V15.9139C17.2528 16.1792 17.1474 16.4335 16.9599 16.6211C16.7723 16.8086 16.518 16.9139 16.2528 16.9139C15.9875 16.9139 15.7332 16.8086 15.5457 16.6211C15.3581 16.4335 15.2528 16.1792 15.2528 15.9139V10.3279L8.47376 17.1069C8.28612 17.2945 8.03167 17.3997 7.7664 17.3996C7.50113 17.3996 7.24677 17.2941 7.05926 17.1064C6.87175 16.9188 6.76646 16.6644 6.76656 16.3991C6.76665 16.1338 6.87212 15.8795 7.05976 15.6919L13.8378 8.91394Z" fill="#21272A"/>
</svg>
