<svg width="24" height="24" viewBox="0 0 24 24" fill="none" xmlns="http://www.w3.org/2000/svg">
<path d="M13.0098 10.414V16C13.0098 16.2652 12.9044 16.5196 12.7169 16.7071C12.5293 16.8946 12.275 17 12.0098 17C11.7445 17 11.4902 16.8946 11.3027 16.7071C11.1151 16.5196 11.0098 16.2652 11.0098 16V10.414L8.47377 12.95C8.38152 13.0455 8.27117 13.1217 8.14917 13.1741C8.02717 13.2265 7.89595 13.2541 7.76317 13.2552C7.63039 13.2564 7.49871 13.2311 7.37581 13.1808C7.25292 13.1305 7.14126 13.0563 7.04737 12.9624C6.95348 12.8685 6.87922 12.7569 6.82894 12.634C6.77866 12.5111 6.75336 12.3794 6.75452 12.2466C6.75567 12.1138 6.78326 11.9826 6.83566 11.8606C6.88807 11.7386 6.96426 11.6282 7.05977 11.536L11.3028 7.293C11.3954 7.19982 11.5056 7.12587 11.6269 7.0754C11.7482 7.02494 11.8784 6.99897 12.0098 6.99897C12.1412 6.99897 12.2713 7.02494 12.3926 7.0754C12.514 7.12587 12.6241 7.19982 12.7168 7.293L16.9598 11.536C17.0553 11.6282 17.1315 11.7386 17.1839 11.8606C17.2363 11.9826 17.2639 12.1138 17.265 12.2466C17.2662 12.3794 17.2409 12.5111 17.1906 12.634C17.1403 12.7569 17.0661 12.8685 16.9722 12.9624C16.8783 13.0563 16.7666 13.1305 16.6437 13.1808C16.5208 13.2311 16.3891 13.2564 16.2564 13.2552C16.1236 13.2541 15.9924 13.2265 15.8704 13.1741C15.7484 13.1217 15.638 13.0455 15.5458 12.95L13.0098 10.414ZM12.0098 22C6.48677 22 2.00977 17.523 2.00977 12C2.00977 6.477 6.48677 2 12.0098 2C17.5328 2 22.0098 6.477 22.0098 12C22.0098 17.523 17.5328 22 12.0098 22ZM12.0098 20C14.1315 20 16.1663 19.1571 17.6666 17.6569C19.1669 16.1566 20.0098 14.1217 20.0098 12C20.0098 9.87827 19.1669 7.84344 17.6666 6.34315C16.1663 4.84285 14.1315 4 12.0098 4C9.88803 4 7.8532 4.84285 6.35291 6.34315C4.85262 7.84344 4.00977 9.87827 4.00977 12C4.00977 14.1217 4.85262 16.1566 6.35291 17.6569C7.8532 19.1571 9.88803 20 12.0098 20Z" fill="#21272A"/>
</svg>
