<svg width="24" height="24" viewBox="0 0 24 24" fill="none" xmlns="http://www.w3.org/2000/svg">
<path d="M6.00977 4C5.47933 4 4.97062 4.21071 4.59555 4.58579C4.22048 4.96086 4.00977 5.46957 4.00977 6V18C4.00977 18.5304 4.22048 19.0391 4.59555 19.4142C4.97062 19.7893 5.47933 20 6.00977 20H18.0098C18.5402 20 19.0489 19.7893 19.424 19.4142C19.7991 19.0391 20.0098 18.5304 20.0098 18V6C20.0098 5.46957 19.7991 4.96086 19.424 4.58579C19.0489 4.21071 18.5402 4 18.0098 4H6.00977ZM6.00977 2H18.0098C19.0706 2 20.088 2.42143 20.8382 3.17157C21.5883 3.92172 22.0098 4.93913 22.0098 6V18C22.0098 19.0609 21.5883 20.0783 20.8382 20.8284C20.088 21.5786 19.0706 22 18.0098 22H6.00977C4.9489 22 3.93148 21.5786 3.18134 20.8284C2.43119 20.0783 2.00977 19.0609 2.00977 18V6C2.00977 4.93913 2.43119 3.92172 3.18134 3.17157C3.93148 2.42143 4.9489 2 6.00977 2V2Z" fill="#21272A"/>
<path d="M13.8378 11.586L9.88777 15.536C9.79486 15.6289 9.68457 15.7025 9.5632 15.7527C9.44183 15.8029 9.31176 15.8288 9.18041 15.8287C9.04906 15.8287 8.91901 15.8028 8.79768 15.7525C8.67635 15.7021 8.56611 15.6284 8.47327 15.5355C8.38042 15.4426 8.30679 15.3323 8.25656 15.211C8.20634 15.0896 8.18052 14.9595 8.18056 14.8282C8.18066 14.5629 8.28613 14.3085 8.47377 14.121L12.4238 10.171H8.83777C8.57255 10.171 8.31819 10.0657 8.13066 9.87813C7.94312 9.6906 7.83777 9.43624 7.83777 9.17103C7.83777 8.90581 7.94312 8.65145 8.13066 8.46392C8.31819 8.27638 8.57255 8.17103 8.83777 8.17103H14.8378C14.9692 8.17063 15.0994 8.19622 15.2209 8.24634C15.3424 8.29645 15.4528 8.3701 15.5458 8.46303C15.6387 8.55597 15.7123 8.66637 15.7625 8.78787C15.8126 8.90938 15.8382 9.03959 15.8378 9.17103V15.171C15.8378 15.4362 15.7324 15.6906 15.5449 15.8781C15.3573 16.0657 15.103 16.171 14.8378 16.171C14.5725 16.171 14.3182 16.0657 14.1307 15.8781C13.9431 15.6906 13.8378 15.4362 13.8378 15.171V11.587V11.586Z" fill="#21272A"/>
</svg>
