<svg width="24" height="24" viewBox="0 0 24 24" fill="none" xmlns="http://www.w3.org/2000/svg">
<path d="M6.00977 4C5.47933 4 4.97062 4.21071 4.59555 4.58579C4.22048 4.96086 4.00977 5.46957 4.00977 6V18C4.00977 18.5304 4.22048 19.0391 4.59555 19.4142C4.97062 19.7893 5.47933 20 6.00977 20H18.0098C18.5402 20 19.0489 19.7893 19.424 19.4142C19.7991 19.0391 20.0098 18.5304 20.0098 18V6C20.0098 5.46957 19.7991 4.96086 19.424 4.58579C19.0489 4.21071 18.5402 4 18.0098 4H6.00977ZM6.00977 2H18.0098C19.0706 2 20.088 2.42143 20.8382 3.17157C21.5883 3.92172 22.0098 4.93913 22.0098 6V18C22.0098 19.0609 21.5883 20.0783 20.8382 20.8284C20.088 21.5786 19.0706 22 18.0098 22H6.00977C4.9489 22 3.93148 21.5786 3.18134 20.8284C2.43119 20.0783 2.00977 19.0609 2.00977 18V6C2.00977 4.93913 2.43119 3.92172 3.18134 3.17157C3.93148 2.42143 4.9489 2 6.00977 2V2Z" fill="#21272A"/>
<path d="M11.5958 10.172L15.5458 14.122C15.6386 14.2149 15.7122 14.3252 15.7625 14.4466C15.8127 14.5679 15.8385 14.698 15.8385 14.8294C15.8384 14.9607 15.8125 15.0908 15.7622 15.2121C15.7119 15.3334 15.6382 15.4437 15.5453 15.5365C15.4524 15.6293 15.3421 15.703 15.2207 15.7532C15.0993 15.8034 14.9693 15.8293 14.8379 15.8292C14.7066 15.8292 14.5765 15.8032 14.4552 15.7529C14.3338 15.7026 14.2236 15.6289 14.1308 15.536L10.1808 11.586V15.172C10.1808 15.4372 10.0754 15.6916 9.88787 15.8791C9.70034 16.0666 9.44598 16.172 9.18077 16.172C8.91555 16.172 8.6612 16.0666 8.47366 15.8791C8.28612 15.6916 8.18077 15.4372 8.18077 15.172V9.172C8.18037 9.04057 8.20597 8.91035 8.25608 8.78885C8.3062 8.66735 8.37984 8.55695 8.47278 8.46401C8.56572 8.37107 8.67611 8.29743 8.79762 8.24732C8.91912 8.1972 9.04933 8.17161 9.18077 8.172H15.1808C15.446 8.172 15.7003 8.27736 15.8879 8.4649C16.0754 8.65243 16.1808 8.90679 16.1808 9.172C16.1808 9.43722 16.0754 9.69157 15.8879 9.87911C15.7003 10.0666 15.446 10.172 15.1808 10.172H11.5968H11.5958Z" fill="#21272A"/>
</svg>
