<svg width="24" height="24" viewBox="0 0 24 24" fill="none" xmlns="http://www.w3.org/2000/svg">
<path d="M10.3378 15.4H15.9238C16.189 15.4 16.4433 15.5054 16.6309 15.6929C16.8184 15.8805 16.9238 16.1348 16.9238 16.4C16.9238 16.6652 16.8184 16.9196 16.6309 17.1071C16.4433 17.2947 16.189 17.4 15.9238 17.4H7.92376C7.79233 17.4004 7.66212 17.3748 7.54061 17.3247C7.41911 17.2746 7.30871 17.2009 7.21577 17.108C7.12284 17.0151 7.04919 16.9047 6.99908 16.7832C6.94896 16.6617 6.92337 16.5315 6.92376 16.4V8.40002C6.92376 8.1348 7.02912 7.88045 7.21666 7.69291C7.40419 7.50538 7.65855 7.40002 7.92376 7.40002C8.18898 7.40002 8.44333 7.50538 8.63087 7.69291C8.81841 7.88045 8.92376 8.1348 8.92376 8.40002V13.985L15.7018 7.20702C15.7946 7.11411 15.9048 7.0404 16.0262 6.99009C16.1475 6.93978 16.2776 6.91386 16.4089 6.91382C16.5403 6.91377 16.6703 6.9396 16.7917 6.98982C16.9131 7.04004 17.0234 7.11368 17.1163 7.20652C17.2092 7.29937 17.2829 7.4096 17.3332 7.53093C17.3835 7.65227 17.4094 7.78232 17.4095 7.91367C17.4095 8.04502 17.3837 8.17509 17.3335 8.29646C17.2832 8.41782 17.2096 8.52811 17.1168 8.62102L10.3378 15.4Z" fill="#21272A"/>
</svg>
