<svg width="24" height="24" viewBox="0 0 24 24" fill="none" xmlns="http://www.w3.org/2000/svg">
<path d="M5.43277 10.996H18.5868L16.0498 8.46C15.8623 8.27236 15.757 8.01791 15.7571 7.75264C15.7571 7.6213 15.783 7.49124 15.8333 7.36991C15.8836 7.24858 15.9574 7.13834 16.0503 7.0455C16.1432 6.95265 16.2535 6.87902 16.3748 6.8288C16.4962 6.77857 16.6263 6.75275 16.7576 6.7528C17.0229 6.75289 17.2773 6.85836 17.4648 7.046L21.7068 11.289C21.8942 11.4765 21.9996 11.7308 21.9996 11.996C21.9996 12.2612 21.8942 12.5155 21.7068 12.703L17.4648 16.945C17.3719 17.0379 17.2617 17.1116 17.1404 17.1619C17.019 17.2122 16.889 17.2382 16.7576 17.2382C16.6263 17.2382 16.4962 17.2124 16.3748 17.1622C16.2535 17.112 16.1432 17.0383 16.0503 16.9455C15.9574 16.8527 15.8836 16.7424 15.8333 16.6211C15.783 16.4998 15.7571 16.3697 15.7571 16.2384C15.757 15.9731 15.8623 15.7186 16.0498 15.531L18.5858 12.996H5.43277L7.96977 15.53C8.06261 15.6229 8.13625 15.7332 8.18647 15.8546C8.23669 15.9759 8.26251 16.106 8.26247 16.2374C8.26242 16.3687 8.2365 16.4988 8.1862 16.6201C8.13589 16.7414 8.06218 16.8517 7.96927 16.9445C7.87636 17.0373 7.76607 17.111 7.6447 17.1612C7.52333 17.2114 7.39326 17.2372 7.26191 17.2372C7.13056 17.2372 7.00051 17.2112 6.87918 17.1609C6.75785 17.1106 6.64761 17.0369 6.55477 16.944L2.31177 12.703C2.21858 12.6103 2.14463 12.5002 2.09417 12.3789C2.04371 12.2575 2.01773 12.1274 2.01773 11.996C2.01773 11.8646 2.04371 11.7345 2.09417 11.6131C2.14463 11.4918 2.21858 11.3817 2.31177 11.289L6.55377 7.046C6.74127 6.85822 6.99569 6.75263 7.26106 6.75244C7.52642 6.75225 7.78099 6.85749 7.96877 7.045C8.15654 7.23251 8.26213 7.48693 8.26232 7.75229C8.26251 8.01765 8.15727 8.27222 7.96977 8.46L5.43277 10.996Z" fill="#21272A"/>
</svg>
