<svg width="24" height="24" viewBox="0 0 24 24" fill="none" xmlns="http://www.w3.org/2000/svg">
<path d="M12.0098 22C6.48677 22 2.00977 17.523 2.00977 12C2.00977 6.477 6.48677 2 12.0098 2C17.5328 2 22.0098 6.477 22.0098 12C22.0098 17.523 17.5328 22 12.0098 22ZM12.0098 20C14.1315 20 16.1663 19.1571 17.6666 17.6569C19.1669 16.1566 20.0098 14.1217 20.0098 12C20.0098 9.87827 19.1669 7.84344 17.6666 6.34315C16.1663 4.84285 14.1315 4 12.0098 4C9.88803 4 7.8532 4.84285 6.35291 6.34315C4.85262 7.84344 4.00977 9.87827 4.00977 12C4.00977 14.1217 4.85262 16.1566 6.35291 17.6569C7.8532 19.1571 9.88803 20 12.0098 20ZM10.1818 12.414L14.1318 8.464C14.2247 8.37116 14.335 8.29752 14.4563 8.2473C14.5777 8.19708 14.7078 8.17125 14.8391 8.1713C14.9705 8.17134 15.1005 8.19726 15.2219 8.24757C15.3432 8.29788 15.4534 8.37159 15.5463 8.4645C15.6391 8.55741 15.7127 8.6677 15.763 8.78907C15.8132 8.91043 15.839 9.0405 15.839 9.17185C15.8389 9.3032 15.813 9.43326 15.7627 9.55459C15.7124 9.67592 15.6387 9.78616 15.5458 9.879L11.5958 13.829H15.1818C15.447 13.829 15.7013 13.9344 15.8889 14.1219C16.0764 14.3094 16.1818 14.5638 16.1818 14.829C16.1818 15.0942 16.0764 15.3486 15.8889 15.5361C15.7013 15.7236 15.447 15.829 15.1818 15.829H9.18177C9.05033 15.8294 8.92012 15.8038 8.79861 15.7537C8.67711 15.7036 8.56671 15.6299 8.47378 15.537C8.38084 15.4441 8.30719 15.3337 8.25708 15.2122C8.20696 15.0906 8.18137 14.9604 8.18177 14.829V8.829C8.18177 8.56378 8.28712 8.30943 8.47466 8.12189C8.6622 7.93436 8.91655 7.829 9.18177 7.829C9.44698 7.829 9.70134 7.93436 9.88887 8.12189C10.0764 8.30943 10.1818 8.56378 10.1818 8.829V12.414Z" fill="#21272A"/>
</svg>
