<svg width="24" height="24" viewBox="0 0 24 24" fill="none" xmlns="http://www.w3.org/2000/svg">
<path d="M6.00977 4C5.47933 4 4.97062 4.21071 4.59555 4.58579C4.22048 4.96086 4.00977 5.46957 4.00977 6V18C4.00977 18.5304 4.22048 19.0391 4.59555 19.4142C4.97062 19.7893 5.47933 20 6.00977 20H18.0098C18.5402 20 19.0489 19.7893 19.424 19.4142C19.7991 19.0391 20.0098 18.5304 20.0098 18V6C20.0098 5.46957 19.7991 4.96086 19.424 4.58579C19.0489 4.21071 18.5402 4 18.0098 4H6.00977ZM6.00977 2H18.0098C19.0706 2 20.088 2.42143 20.8382 3.17157C21.5883 3.92172 22.0098 4.93913 22.0098 6V18C22.0098 19.0609 21.5883 20.0783 20.8382 20.8284C20.088 21.5786 19.0706 22 18.0098 22H6.00977C4.9489 22 3.93148 21.5786 3.18134 20.8284C2.43119 20.0783 2.00977 19.0609 2.00977 18V6C2.00977 4.93913 2.43119 3.92172 3.18134 3.17157C3.93148 2.42143 4.9489 2 6.00977 2V2Z" fill="#21272A"/>
<path d="M13.0098 10.4141V16.0001C13.0098 16.2653 12.9044 16.5196 12.7169 16.7072C12.5293 16.8947 12.275 17.0001 12.0098 17.0001C11.7446 17.0001 11.4902 16.8947 11.3027 16.7072C11.1151 16.5196 11.0098 16.2653 11.0098 16.0001V10.4141L8.47377 12.9501C8.38152 13.0456 8.27118 13.1218 8.14917 13.1742C8.02717 13.2266 7.89595 13.2542 7.76317 13.2553C7.63039 13.2565 7.49871 13.2312 7.37581 13.1809C7.25292 13.1306 7.14126 13.0563 7.04737 12.9625C6.95348 12.8686 6.87923 12.7569 6.82894 12.634C6.77866 12.5111 6.75336 12.3794 6.75452 12.2467C6.75567 12.1139 6.78326 11.9827 6.83567 11.8607C6.88807 11.7386 6.96426 11.6283 7.05977 11.5361L11.3028 7.29306C11.3954 7.19987 11.5056 7.12592 11.6269 7.07546C11.7482 7.025 11.8784 6.99902 12.0098 6.99902C12.1412 6.99902 12.2713 7.025 12.3926 7.07546C12.514 7.12592 12.6241 7.19987 12.7168 7.29306L16.9598 11.5361C17.0553 11.6283 17.1315 11.7386 17.1839 11.8607C17.2363 11.9827 17.2639 12.1139 17.265 12.2467C17.2662 12.3794 17.2409 12.5111 17.1906 12.634C17.1403 12.7569 17.0661 12.8686 16.9722 12.9625C16.8783 13.0563 16.7666 13.1306 16.6437 13.1809C16.5208 13.2312 16.3891 13.2565 16.2564 13.2553C16.1236 13.2542 15.9924 13.2266 15.8704 13.1742C15.7484 13.1218 15.638 13.0456 15.5458 12.9501L13.0098 10.4141Z" fill="#21272A"/>
</svg>
