<svg width="24" height="24" viewBox="0 0 24 24" fill="none" xmlns="http://www.w3.org/2000/svg">
<path d="M12.0098 22C6.48677 22 2.00977 17.523 2.00977 12C2.00977 6.477 6.48677 2 12.0098 2C17.5328 2 22.0098 6.477 22.0098 12C22.0098 17.523 17.5328 22 12.0098 22ZM12.0098 20C14.1315 20 16.1663 19.1571 17.6666 17.6569C19.1669 16.1566 20.0098 14.1217 20.0098 12C20.0098 9.87827 19.1669 7.84344 17.6666 6.34315C16.1663 4.84285 14.1315 4 12.0098 4C9.88803 4 7.8532 4.84285 6.35291 6.34315C4.85262 7.84344 4.00977 9.87827 4.00977 12C4.00977 14.1217 4.85262 16.1566 6.35291 17.6569C7.8532 19.1571 9.88803 20 12.0098 20ZM11.0098 13.586V8C11.0098 7.73478 11.1151 7.48043 11.3027 7.29289C11.4902 7.10536 11.7445 7 12.0098 7C12.275 7 12.5293 7.10536 12.7169 7.29289C12.9044 7.48043 13.0098 7.73478 13.0098 8V13.586L15.5458 11.05C15.7344 10.8678 15.987 10.767 16.2492 10.7693C16.5114 10.7716 16.7622 10.8768 16.9476 11.0622C17.133 11.2476 17.2382 11.4984 17.2404 11.7606C17.2427 12.0228 17.1419 12.2754 16.9598 12.464L12.7168 16.707C12.6241 16.8002 12.514 16.8741 12.3926 16.9246C12.2713 16.9751 12.1412 17.001 12.0098 17.001C11.8784 17.001 11.7482 16.9751 11.6269 16.9246C11.5056 16.8741 11.3954 16.8002 11.3028 16.707L7.05977 12.464C6.87761 12.2754 6.77681 12.0228 6.77909 11.7606C6.78137 11.4984 6.88654 11.2476 7.07195 11.0622C7.25736 10.8768 7.50817 10.7716 7.77036 10.7693C8.03256 10.767 8.28516 10.8678 8.47377 11.05L11.0098 13.586Z" fill="#21272A"/>
</svg>
