<svg width="24" height="24" viewBox="0 0 24 24" fill="none" xmlns="http://www.w3.org/2000/svg">
<path d="M19.9428 6.859C20.03 6.7666 20.1351 6.69299 20.2518 6.64268C20.3685 6.59237 20.4942 6.56641 20.6213 6.56641C20.7483 6.56641 20.874 6.59237 20.9907 6.64268C21.1074 6.69299 21.2126 6.7666 21.2998 6.859C21.6748 7.249 21.6748 7.881 21.2998 8.271L9.76977 20.28C9.33388 20.7419 8.80822 21.11 8.22502 21.3615C7.64183 21.6131 7.01339 21.7428 6.37827 21.7428C5.74314 21.7428 5.1147 21.6131 4.53151 21.3615C3.94831 21.11 3.42265 20.7419 2.98677 20.28C1.11377 18.33 1.11377 15.167 2.98677 13.216L13.1598 2.62C13.4213 2.34283 13.7367 2.12201 14.0867 1.97109C14.4366 1.82016 14.8137 1.74231 15.1948 1.74231C15.5759 1.74231 15.9529 1.82016 16.3029 1.97109C16.6528 2.12201 16.9682 2.34283 17.2298 2.62C18.3538 3.79 18.3538 5.688 17.2298 6.859L8.41177 16.04C8.32457 16.1322 8.21946 16.2057 8.10288 16.2559C7.9863 16.3062 7.8607 16.3321 7.73377 16.3321C7.60683 16.3321 7.48123 16.3062 7.36465 16.2559C7.24807 16.2057 7.14297 16.1322 7.05577 16.04C6.87545 15.8492 6.77499 15.5966 6.77499 15.334C6.77499 15.0714 6.87545 14.8188 7.05577 14.628L15.8738 5.445C16.0544 5.25411 16.155 5.00129 16.155 4.7385C16.155 4.47571 16.0544 4.2229 15.8738 4.032C15.7866 3.9396 15.6814 3.86599 15.5647 3.81568C15.448 3.76537 15.3223 3.73941 15.1953 3.73941C15.0682 3.73941 14.9425 3.76537 14.8258 3.81568C14.7091 3.86599 14.604 3.9396 14.5168 4.032L4.34177 14.63C3.21877 15.8 3.21877 17.698 4.34177 18.868C4.60332 19.1452 4.91873 19.366 5.26866 19.5169C5.6186 19.6678 5.99567 19.7457 6.37677 19.7457C6.75786 19.7457 7.13494 19.6678 7.48487 19.5169C7.8348 19.366 8.15022 19.1452 8.41177 18.868L19.9428 6.859Z" fill="#21272A"/>
</svg>
