<svg width="24" height="24" viewBox="0 0 24 24" fill="none" xmlns="http://www.w3.org/2000/svg">
<path d="M6.00977 2H18.0098C19.0706 2 20.088 2.42143 20.8382 3.17157C21.5883 3.92172 22.0098 4.93913 22.0098 6V18C22.0098 19.0609 21.5883 20.0783 20.8382 20.8284C20.088 21.5786 19.0706 22 18.0098 22H6.00977C4.9489 22 3.93148 21.5786 3.18134 20.8284C2.43119 20.0783 2.00977 19.0609 2.00977 18V6C2.00977 4.93913 2.43119 3.92172 3.18134 3.17157C3.93148 2.42143 4.9489 2 6.00977 2V2ZM6.00977 4C5.47933 4 4.97062 4.21071 4.59555 4.58579C4.22048 4.96086 4.00977 5.46957 4.00977 6V18C4.00977 18.5304 4.22048 19.0391 4.59555 19.4142C4.97062 19.7893 5.47933 20 6.00977 20H18.0098C18.5402 20 19.0489 19.7893 19.424 19.4142C19.7991 19.0391 20.0098 18.5304 20.0098 18V6C20.0098 5.46957 19.7991 4.96086 19.424 4.58579C19.0489 4.21071 18.5402 4 18.0098 4H6.00977ZM12.9828 8.754L14.9388 7.356C15.8438 6.71 17.0688 6.967 17.6758 7.932C17.8938 8.278 18.0098 8.685 18.0098 9.102V14.898C18.0098 16.058 17.1268 17 16.0378 17C15.6433 16.9989 15.259 16.8745 14.9388 16.644L12.9828 15.246C12.8278 16.24 12.0158 17 11.0378 17C10.6433 16.9989 10.259 16.8745 9.93877 16.644L5.88377 13.746C4.97877 13.099 4.73777 11.794 5.34377 10.829C5.48677 10.602 5.67077 10.407 5.88377 10.254L9.93977 7.356C10.8448 6.71 12.0698 6.967 12.6768 7.932C12.8338 8.181 12.9368 8.462 12.9838 8.754H12.9828ZM11.0378 14.898V9.102L6.98277 12L11.0378 14.898ZM16.0378 14.898V9.102L13.0178 11.261L13.0138 12.737L16.0378 14.898Z" fill="#21272A"/>
</svg>
