<svg width="24" height="24" viewBox="0 0 24 24" fill="none" xmlns="http://www.w3.org/2000/svg">
<path d="M13.5528 14L14.0588 15.386C14.2288 15.852 14.7928 16.108 15.3188 15.956C15.8438 15.806 16.1318 15.305 15.9618 14.839L13.9118 9.229C13.7148 8.687 13.2368 8.262 12.6268 8.087C11.5768 7.785 10.4478 8.296 10.1068 9.228L8.05977 14.838C7.88977 15.305 8.17777 15.805 8.70277 15.957C9.22777 16.107 9.79277 15.852 9.96277 15.386L10.4678 14H13.5528ZM12.8228 12H11.1978L12.0098 9.776L12.8228 12ZM8.00977 6H16.0098C16.5402 6 17.0489 6.21071 17.424 6.58579C17.7991 6.96086 18.0098 7.46957 18.0098 8V16C18.0098 16.5304 17.7991 17.0391 17.424 17.4142C17.0489 17.7893 16.5402 18 16.0098 18H8.00977C7.47933 18 6.97062 17.7893 6.59555 17.4142C6.22048 17.0391 6.00977 16.5304 6.00977 16V8C6.00977 7.46957 6.22048 6.96086 6.59555 6.58579C6.97062 6.21071 7.47933 6 8.00977 6V6Z" fill="#21272A"/>
</svg>
