<svg width="24" height="24" viewBox="0 0 24 24" fill="none" xmlns="http://www.w3.org/2000/svg">
<path d="M12.0098 22C6.48677 22 2.00977 17.523 2.00977 12C2.00977 6.477 6.48677 2 12.0098 2C17.5328 2 22.0098 6.477 22.0098 12C22.0098 17.523 17.5328 22 12.0098 22ZM12.0098 20C14.1315 20 16.1663 19.1571 17.6666 17.6569C19.1669 16.1566 20.0098 14.1217 20.0098 12C20.0098 9.87827 19.1669 7.84344 17.6666 6.34315C16.1663 4.84285 14.1315 4 12.0098 4C9.88803 4 7.8532 4.84285 6.35291 6.34315C4.85262 7.84344 4.00977 9.87827 4.00977 12C4.00977 14.1217 4.85262 16.1566 6.35291 17.6569C7.8532 19.1571 9.88803 20 12.0098 20ZM12.9828 8.754L14.9388 7.356C15.8438 6.71 17.0688 6.967 17.6758 7.932C17.8938 8.278 18.0098 8.685 18.0098 9.102V14.898C18.0098 16.058 17.1268 17 16.0378 17C15.6433 16.9989 15.259 16.8745 14.9388 16.644L12.9828 15.246C12.8278 16.24 12.0158 17 11.0378 17C10.6433 16.9989 10.259 16.8745 9.93877 16.644L5.88377 13.746C4.97877 13.099 4.73777 11.794 5.34377 10.829C5.48677 10.602 5.67077 10.407 5.88377 10.254L9.93977 7.356C10.8448 6.71 12.0698 6.967 12.6768 7.932C12.8338 8.181 12.9368 8.462 12.9838 8.754H12.9828ZM11.0378 14.898V9.102L6.98277 12L11.0378 14.898ZM16.0378 14.898V9.102L13.0178 11.261L13.0138 12.737L16.0378 14.898Z" fill="#21272A"/>
</svg>
