<svg width="24" height="24" viewBox="0 0 24 24" fill="none" xmlns="http://www.w3.org/2000/svg">
<path d="M18.5198 3.68998C18.6904 3.48999 18.8995 3.32627 19.1346 3.2085C19.3696 3.09074 19.6259 3.02131 19.8883 3.00434C20.1507 2.98737 20.4138 3.0232 20.6621 3.10971C20.9103 3.19622 21.1387 3.33165 21.3338 3.50798C21.7638 3.89398 22.0098 4.44998 22.0098 5.03398V18.966C22.0098 20.089 21.1168 21 20.0158 21C19.7315 20.9993 19.4506 20.9373 19.1925 20.8182C18.9343 20.6992 18.7048 20.5258 18.5198 20.31L12.5078 13.344C12.1869 12.9697 12.0105 12.493 12.0105 12C12.0105 11.507 12.1869 11.0303 12.5078 10.656L18.5198 3.68998ZM20.0158 18.966V5.03398L14.0038 12L20.0158 18.966ZM8.51976 3.68998C8.69044 3.48999 8.8995 3.32627 9.13457 3.2085C9.36963 3.09074 9.62593 3.02131 9.8883 3.00434C10.1507 2.98737 10.4138 3.0232 10.6621 3.10971C10.9103 3.19622 11.1387 3.33165 11.3338 3.50798C11.7638 3.89398 12.0098 4.44998 12.0098 5.03398V18.966C12.0098 20.089 11.1168 21 10.0158 21C9.73145 20.9993 9.45064 20.9373 9.19247 20.8182C8.93429 20.6992 8.70484 20.5258 8.51976 20.31L2.50776 13.344C2.1869 12.9697 2.01053 12.493 2.01053 12C2.01053 11.507 2.1869 11.0303 2.50776 10.656L8.51976 3.68998ZM10.0158 18.966V5.03398L4.00376 12L10.0158 18.966Z" fill="#21272A"/>
</svg>
