<svg width="24" height="24" viewBox="0 0 24 24" fill="none" xmlns="http://www.w3.org/2000/svg">
<path d="M8.00977 15V20H16.0098V15H8.00977ZM18.0098 14.236V20C18.0098 20.5304 17.7991 21.0391 17.424 21.4142C17.0489 21.7893 16.5402 22 16.0098 22H8.00977C7.47933 22 6.97062 21.7893 6.59555 21.4142C6.22048 21.0391 6.00977 20.5304 6.00977 20V14.236C5.39577 13.686 5.00977 12.888 5.00977 12V9C5.00977 8.20435 5.32584 7.44129 5.88845 6.87868C6.45105 6.31607 7.21412 6 8.00977 6H16.0098C16.8054 6 17.5685 6.31607 18.1311 6.87868C18.6937 7.44129 19.0098 8.20435 19.0098 9V12C19.0098 12.888 18.6238 13.687 18.0098 14.236ZM8.00977 8C7.74455 8 7.4902 8.10536 7.30266 8.29289C7.11512 8.48043 7.00977 8.73478 7.00977 9V12C7.00977 12.2652 7.11512 12.5196 7.30266 12.7071C7.4902 12.8946 7.74455 13 8.00977 13H16.0098C16.275 13 16.5293 12.8946 16.7169 12.7071C16.9044 12.5196 17.0098 12.2652 17.0098 12V9C17.0098 8.73478 16.9044 8.48043 16.7169 8.29289C16.5293 8.10536 16.275 8 16.0098 8H8.00977ZM13.0098 13H11.0098V12C11.0098 11.7348 11.1151 11.4804 11.3027 11.2929C11.4902 11.1054 11.7445 11 12.0098 11C12.275 11 12.5293 11.1054 12.7169 11.2929C12.9044 11.4804 13.0098 11.7348 13.0098 12V13ZM13.0098 15V16C13.0098 16.2652 12.9044 16.5196 12.7169 16.7071C12.5293 16.8946 12.275 17 12.0098 17C11.7445 17 11.4902 16.8946 11.3027 16.7071C11.1151 16.5196 11.0098 16.2652 11.0098 16V15H13.0098ZM8.50977 2C8.90759 2 9.28912 2.15804 9.57043 2.43934C9.85173 2.72064 10.0098 3.10218 10.0098 3.5V6.5C10.0098 6.89782 9.85173 7.27936 9.57043 7.56066C9.28912 7.84196 8.90759 8 8.50977 8C8.11194 8 7.73041 7.84196 7.44911 7.56066C7.1678 7.27936 7.00977 6.89782 7.00977 6.5V3.5C7.00977 3.10218 7.1678 2.72064 7.44911 2.43934C7.73041 2.15804 8.11194 2 8.50977 2V2ZM15.5098 2C15.9076 2 16.2891 2.15804 16.5704 2.43934C16.8517 2.72064 17.0098 3.10218 17.0098 3.5V6.5C17.0098 6.89782 16.8517 7.27936 16.5704 7.56066C16.2891 7.84196 15.9076 8 15.5098 8C15.1119 8 14.7304 7.84196 14.4491 7.56066C14.1678 7.27936 14.0098 6.89782 14.0098 6.5V3.5C14.0098 3.10218 14.1678 2.72064 14.4491 2.43934C14.7304 2.15804 15.1119 2 15.5098 2V2Z" fill="#21272A"/>
</svg>
