<svg width="24" height="24" viewBox="0 0 24 24" fill="none" xmlns="http://www.w3.org/2000/svg">
<path d="M12.0098 20C14.1315 20 16.1663 19.1571 17.6666 17.6569C19.1669 16.1566 20.0098 14.1217 20.0098 12C20.0098 9.87827 19.1669 7.84344 17.6666 6.34315C16.1663 4.84285 14.1315 4 12.0098 4C9.88803 4 7.8532 4.84285 6.35291 6.34315C4.85262 7.84344 4.00977 9.87827 4.00977 12C4.00977 14.1217 4.85262 16.1566 6.35291 17.6569C7.8532 19.1571 9.88803 20 12.0098 20ZM12.0098 22C6.48677 22 2.00977 17.523 2.00977 12C2.00977 6.477 6.48677 2 12.0098 2C17.5328 2 22.0098 6.477 22.0098 12C22.0098 17.523 17.5328 22 12.0098 22Z" fill="#21272A"/>
<path d="M9.74077 10.7401C9.79877 11.5901 9.35077 12.3151 8.73777 12.3591C8.12577 12.4031 7.58176 11.7491 7.52376 10.8991C7.46576 10.0491 7.91477 9.32406 8.52777 9.28006C9.13977 9.23606 9.68377 9.89006 9.74077 10.7401ZM13.9578 7.21606C13.3628 7.06006 12.7148 7.60406 12.5108 8.42906C12.3048 9.25506 12.6208 10.0511 13.2158 10.2061C13.8108 10.3621 14.4598 9.81906 14.6638 8.99306C14.9308 7.91806 14.1008 7.25306 13.9578 7.21606ZM15.3528 10.0001C14.7268 10.0101 14.2308 10.6201 14.2448 11.5661C14.2578 12.5111 14.7748 12.9421 15.4018 12.9331C16.0268 12.9231 16.5238 12.4771 16.5108 11.5311C16.4918 10.3011 15.5028 9.99806 15.3528 10.0011V10.0001ZM10.8198 7.00806C10.2238 7.00806 9.74177 7.69206 9.74177 8.53606C9.74177 9.38006 10.2238 10.0641 10.8198 10.0641C11.4148 10.0641 11.8978 9.38006 11.8978 8.53606C11.8978 7.69206 11.4148 7.00806 10.8198 7.00806ZM10.6818 11.7541C10.3378 12.2611 9.94777 12.7561 9.19077 13.4041C8.43377 14.0521 8.11277 14.4991 8.11277 15.1591C8.11277 15.8191 8.47977 16.9141 9.52277 16.9141C10.5668 16.9141 11.0718 16.6781 11.8978 16.6781C12.7228 16.6781 13.2738 17.0081 14.3178 17.0081C15.3608 17.0081 15.7978 15.9951 15.7978 15.3351C15.7978 14.6751 15.6158 14.3021 14.7798 13.5501C14.2438 13.0671 13.7898 12.6731 13.0788 11.6601C12.7268 11.1601 12.3218 11.0951 11.8978 11.0951C11.4728 11.0951 11.0258 11.2481 10.6818 11.7551V11.7541Z" fill="#21272A"/>
</svg>
