<svg width="24" height="24" viewBox="0 0 24 24" fill="none" xmlns="http://www.w3.org/2000/svg">
<path d="M7.51276 9.382C7.62676 11.063 6.73876 12.497 5.52676 12.584C4.31676 12.671 3.24176 11.379 3.12676 9.697C3.01176 8.016 3.90076 6.582 5.11176 6.495C6.32276 6.408 7.39776 7.7 7.51176 9.382H7.51276ZM15.8528 2.412C14.6768 2.104 13.3948 3.179 12.9908 4.812C12.5848 6.445 13.2098 8.019 14.3858 8.327C15.5628 8.635 16.8458 7.56 17.2498 5.927C17.7768 3.8 16.1358 2.485 15.8538 2.412H15.8528ZM18.6128 7.918C17.3748 7.936 16.3928 9.144 16.4198 11.014C16.4468 12.884 17.4698 13.736 18.7098 13.717C19.9458 13.698 20.9298 12.816 20.9018 10.945C20.8658 8.511 18.9088 7.913 18.6118 7.918H18.6128ZM9.64476 2C8.46776 2 7.51276 3.354 7.51276 5.023C7.51276 6.693 8.46776 8.046 9.64476 8.046C10.8228 8.046 11.7778 6.693 11.7778 5.023C11.7778 3.353 10.8228 2 9.64476 2ZM9.37276 11.389C8.69276 12.391 7.92076 13.369 6.42276 14.651C4.92576 15.933 4.29076 16.818 4.29076 18.123C4.29076 19.427 5.01676 21.594 7.08076 21.594C9.14576 21.594 10.1438 21.128 11.7778 21.128C13.4108 21.128 14.5008 21.78 16.5648 21.78C18.6288 21.78 19.4908 19.777 19.4908 18.472C19.4908 17.167 19.1328 16.429 17.4788 14.94C16.4188 13.985 15.5208 13.207 14.1138 11.203C13.4188 10.213 12.6168 10.085 11.7778 10.085C10.9378 10.085 10.0538 10.387 9.37276 11.389Z" fill="#21272A"/>
</svg>
