<svg width="24" height="24" viewBox="0 0 24 24" fill="none" xmlns="http://www.w3.org/2000/svg">
<path d="M20.2068 2.94506C21.0865 3.82496 21.5808 5.01828 21.5808 6.26255C21.5808 7.50683 21.0865 8.70015 20.2068 9.58006L9.58977 20.1971C8.70629 21.0593 7.51858 21.5387 6.28408 21.5311C5.04958 21.5236 3.86778 21.0299 2.99485 20.157C2.12191 19.284 1.62818 18.1022 1.62068 16.8677C1.61318 15.6333 2.09251 14.4455 2.95477 13.5621L13.5718 2.94506C14.4517 2.06528 15.645 1.57104 16.8893 1.57104C18.1335 1.57104 19.3269 2.06528 20.2068 2.94506ZM18.8798 4.27205C18.3519 3.74414 17.6359 3.44757 16.8893 3.44757C16.1427 3.44757 15.4267 3.74414 14.8988 4.27205L4.28177 14.8901C4.01352 15.1499 3.79966 15.4605 3.65265 15.8038C3.50564 16.1472 3.42841 16.5163 3.42546 16.8898C3.42252 17.2632 3.49392 17.6335 3.6355 17.9791C3.77708 18.3247 3.98601 18.6387 4.25012 18.9027C4.51424 19.1668 4.82825 19.3756 5.17388 19.5171C5.5195 19.6586 5.88983 19.7299 6.26329 19.7269C6.63674 19.7238 7.00586 19.6465 7.34914 19.4994C7.69241 19.3523 8.00299 19.1384 8.26277 18.8701L18.8798 8.25406C19.1413 7.99281 19.3487 7.68259 19.4902 7.34114C19.6317 6.99968 19.7046 6.63368 19.7046 6.26405C19.7046 5.89443 19.6317 5.52843 19.4902 5.18697C19.3487 4.84552 19.1413 4.5353 18.8798 4.27405V4.27205ZM12.9078 8.91705L14.2348 10.2441C14.3219 10.3312 14.3911 10.4346 14.4383 10.5484C14.4855 10.6623 14.5097 10.7843 14.5097 10.9076C14.5097 11.0308 14.4855 11.1528 14.4383 11.2667C14.3911 11.3805 14.3219 11.4839 14.2348 11.5711L11.5808 14.2251C11.4937 14.3122 11.3902 14.3814 11.2764 14.4286C11.1625 14.4757 11.0405 14.5 10.9173 14.5C10.794 14.5 10.672 14.4757 10.5582 14.4286C10.4443 14.3814 10.3409 14.3122 10.2538 14.2251L8.92677 12.8981C8.8396 12.8109 8.77045 12.7075 8.72327 12.5937C8.67609 12.4798 8.6518 12.3578 8.6518 12.2346C8.6518 12.1113 8.67609 11.9893 8.72327 11.8754C8.77045 11.7616 8.8396 11.6582 8.92677 11.5711L11.5808 8.91705C11.6679 8.82988 11.7713 8.76073 11.8852 8.71355C11.999 8.66637 12.121 8.64209 12.2443 8.64209C12.3675 8.64209 12.4895 8.66637 12.6034 8.71355C12.7172 8.76073 12.8207 8.82988 12.9078 8.91705ZM13.5718 8.25305C13.4846 8.16592 13.4155 8.06248 13.3684 7.94864C13.3212 7.83479 13.2969 7.71278 13.2969 7.58955C13.2969 7.46633 13.3212 7.34431 13.3684 7.23047C13.4155 7.11663 13.4846 7.01319 13.5718 6.92605C13.6589 6.83892 13.7623 6.76981 13.8762 6.72265C13.99 6.67549 14.112 6.65122 14.2353 6.65122C14.3585 6.65122 14.4805 6.6755 14.5944 6.72265C14.7082 6.76981 14.8116 6.83892 14.8988 6.92605C15.0747 7.10203 15.1736 7.34069 15.1736 7.58955C15.1736 7.83842 15.0747 8.07708 14.8988 8.25305C14.7228 8.42903 14.4841 8.52789 14.2353 8.52789C13.9864 8.52789 13.7477 8.42903 13.5718 8.25305ZM6.93577 14.8901C6.84864 14.8029 6.77952 14.6995 6.73237 14.5856C6.68521 14.4718 6.66094 14.3498 6.66094 14.2266C6.66094 14.1033 6.68521 13.9813 6.73237 13.8675C6.77952 13.7536 6.84864 13.6502 6.93577 13.5631C7.0229 13.4759 7.12634 13.4068 7.24019 13.3597C7.35403 13.3125 7.47605 13.2882 7.59927 13.2882C7.72249 13.2882 7.84451 13.3125 7.95835 13.3597C8.0722 13.4068 8.17564 13.4759 8.26277 13.5631C8.43874 13.739 8.5376 13.9777 8.5376 14.2266C8.5376 14.4754 8.43874 14.7141 8.26277 14.8901C8.0868 15.066 7.84813 15.1649 7.59927 15.1649C7.35041 15.1649 7.11174 15.066 6.93577 14.8901ZM16.8888 7.59005C16.8007 7.50314 16.7307 7.39967 16.6828 7.28559C16.6349 7.17151 16.61 7.04908 16.6097 6.92535C16.6093 6.80162 16.6334 6.67903 16.6806 6.56466C16.7278 6.45028 16.7971 6.34637 16.8846 6.25891C16.9722 6.17146 17.0761 6.10218 17.1905 6.05507C17.3049 6.00796 17.4275 5.98396 17.5513 5.98444C17.675 5.98491 17.7974 6.00987 17.9115 6.05786C18.0255 6.10585 18.1289 6.17592 18.2158 6.26405C18.3029 6.35119 18.372 6.45463 18.4192 6.56847C18.4663 6.68231 18.4906 6.80433 18.4906 6.92755C18.4906 7.05078 18.4663 7.17279 18.4192 7.28664C18.372 7.40048 18.3029 7.50392 18.2158 7.59105C18.1286 7.67819 18.0252 7.7473 17.9114 7.79446C17.7975 7.84161 17.6755 7.86589 17.5523 7.86589C17.429 7.86589 17.307 7.84161 17.1932 7.79446C17.0793 7.7473 16.9759 7.67819 16.8888 7.59105V7.59005ZM6.27277 18.2071C6.18564 18.1199 6.11652 18.0165 6.06937 17.9026C6.02221 17.7888 5.99794 17.6668 5.99794 17.5436C5.99794 17.4203 6.02221 17.2983 6.06937 17.1845C6.11652 17.0706 6.18564 16.9672 6.27277 16.8801C6.3599 16.7929 6.46334 16.7238 6.57719 16.6767C6.69103 16.6295 6.81305 16.6052 6.93627 16.6052C7.05949 16.6052 7.18151 16.6295 7.29535 16.6767C7.4092 16.7238 7.51264 16.7929 7.59977 16.8801C7.77574 17.056 7.8746 17.2947 7.8746 17.5436C7.8746 17.7924 7.77574 18.0311 7.59977 18.2071C7.4238 18.383 7.18513 18.4819 6.93627 18.4819C6.68741 18.4819 6.44874 18.383 6.27277 18.2071Z" fill="#21272A"/>
</svg>
