<svg width="24" height="24" viewBox="0 0 24 24" fill="none" xmlns="http://www.w3.org/2000/svg">
<path d="M6.00977 4C6.27498 4 6.52934 4.10536 6.71687 4.29289C6.90441 4.48043 7.00977 4.73478 7.00977 5V19C7.00977 19.2652 6.90441 19.5196 6.71687 19.7071C6.52934 19.8946 6.27498 20 6.00977 20C5.74455 20 5.4902 19.8946 5.30266 19.7071C5.11512 19.5196 5.00977 19.2652 5.00977 19V5C5.00977 4.73478 5.11512 4.48043 5.30266 4.29289C5.4902 4.10536 5.74455 4 6.00977 4V4ZM18.0098 8C18.275 8 18.5293 8.10536 18.7169 8.29289C18.9044 8.48043 19.0098 8.73478 19.0098 9V19C19.0098 19.2652 18.9044 19.5196 18.7169 19.7071C18.5293 19.8946 18.275 20 18.0098 20C17.7445 20 17.4902 19.8946 17.3027 19.7071C17.1151 19.5196 17.0098 19.2652 17.0098 19V9C17.0098 8.73478 17.1151 8.48043 17.3027 8.29289C17.4902 8.10536 17.7445 8 18.0098 8ZM12.0098 12C12.275 12 12.5293 12.1054 12.7169 12.2929C12.9044 12.4804 13.0098 12.7348 13.0098 13V19C13.0098 19.2652 12.9044 19.5196 12.7169 19.7071C12.5293 19.8946 12.275 20 12.0098 20C11.7445 20 11.4902 19.8946 11.3027 19.7071C11.1151 19.5196 11.0098 19.2652 11.0098 19V13C11.0098 12.7348 11.1151 12.4804 11.3027 12.2929C11.4902 12.1054 11.7445 12 12.0098 12Z" fill="#21272A"/>
</svg>
