<svg width="24" height="24" viewBox="0 0 24 24" fill="none" xmlns="http://www.w3.org/2000/svg">
<path d="M15.0598 13H15.0098C14.7445 13 14.4902 12.8946 14.3027 12.7071C14.1151 12.5196 14.0098 12.2652 14.0098 12C14.0098 11.7348 14.1151 11.4804 14.3027 11.2929C14.4902 11.1054 14.7445 11 15.0098 11H15.0598C15.2457 9.12191 15.9619 7.33541 17.1248 5.849C15.6894 4.65182 13.8789 3.99733 12.0098 4C10.1407 3.99733 8.33013 4.65182 6.89477 5.849C8.05768 7.33541 8.77387 9.12191 8.95977 11H9.00977C9.27498 11 9.52934 11.1054 9.71687 11.2929C9.90441 11.4804 10.0098 11.7348 10.0098 12C10.0098 12.2652 9.90441 12.5196 9.71687 12.7071C9.52934 12.8946 9.27498 13 9.00977 13H8.95977C8.77387 14.8781 8.05768 16.6646 6.89477 18.151C8.33013 19.3482 10.1407 20.0027 12.0098 20C13.8789 20.0027 15.6894 19.3482 17.1248 18.151C15.9619 16.6646 15.2457 14.8781 15.0598 13ZM17.0718 11.002C17.3255 11.0181 17.5636 11.1302 17.7377 11.3156C17.9117 11.501 18.0086 11.7457 18.0086 12C18.0086 12.2543 17.9117 12.499 17.7377 12.6844C17.5636 12.8698 17.3255 12.9819 17.0718 12.998C17.236 14.3219 17.7305 15.5833 18.5098 16.666C19.4876 15.3069 20.0125 13.6743 20.0098 12C20.0098 10.29 19.4718 8.671 18.5098 7.334C17.7305 8.41675 17.236 9.6781 17.0718 11.002ZM6.94777 12.998C6.694 12.9819 6.45589 12.8698 6.28187 12.6844C6.10784 12.499 6.01098 12.2543 6.01098 12C6.01098 11.7457 6.10784 11.501 6.28187 11.3156C6.45589 11.1302 6.694 11.0181 6.94777 11.002C6.78357 9.6781 6.28908 8.41675 5.50977 7.334C4.53189 8.69308 4.00705 10.3257 4.00977 12C4.00977 13.71 4.54777 15.329 5.50977 16.666C6.28908 15.5833 6.78357 14.3219 6.94777 12.998ZM12.0098 22C6.48677 22 2.00977 17.523 2.00977 12C2.00977 6.477 6.48677 2 12.0098 2C17.5328 2 22.0098 6.477 22.0098 12C22.0098 17.523 17.5328 22 12.0098 22Z" fill="#21272A"/>
</svg>
