<svg width="24" height="24" viewBox="0 0 24 24" fill="none" xmlns="http://www.w3.org/2000/svg">
<path d="M13.0098 19.938C14.5243 19.7489 15.9527 19.1286 17.1248 18.151C15.9619 16.6646 15.2457 14.8781 15.0598 13H13.0098V19.938ZM11.0098 19.938V13H8.95977C8.77387 14.8781 8.05768 16.6646 6.89477 18.151C8.06688 19.1286 9.49521 19.7489 11.0098 19.938ZM8.95977 11H11.0098V4.062C9.49521 4.25109 8.06688 4.87136 6.89477 5.849C8.05768 7.33541 8.77387 9.12191 8.95977 11ZM13.0098 4.062V11H15.0598C15.2457 9.12191 15.9619 7.33541 17.1248 5.849C15.9527 4.87136 14.5243 4.25109 13.0098 4.062ZM6.94777 13H4.07177C4.23628 14.3232 4.73077 15.5838 5.50977 16.666C6.28877 15.5838 6.78325 14.3232 6.94777 13ZM4.07177 11H6.94777C6.78325 9.6768 6.28877 8.41617 5.50977 7.334C4.73077 8.41617 4.23628 9.6768 4.07177 11ZM17.0718 11H19.9478C19.7832 9.6768 19.2888 8.41617 18.5098 7.334C17.7308 8.41617 17.2363 9.6768 17.0718 11ZM19.9478 13H17.0718C17.2363 14.3232 17.7308 15.5838 18.5098 16.666C19.2888 15.5838 19.7832 14.3232 19.9478 13ZM12.0098 22C6.48677 22 2.00977 17.523 2.00977 12C2.00977 6.477 6.48677 2 12.0098 2C17.5328 2 22.0098 6.477 22.0098 12C22.0098 17.523 17.5328 22 12.0098 22Z" fill="#21272A"/>
</svg>
