<svg width="24" height="24" viewBox="0 0 24 24" fill="none" xmlns="http://www.w3.org/2000/svg">
<path d="M10.4968 4.03995C11.1985 4.1554 11.8364 4.51641 12.2967 5.05856C12.757 5.60072 13.0097 6.28876 13.0098 6.99995V8.99995H7.00977V6.99995C7.00977 5.96095 7.53777 5.04495 8.33977 4.50695C8.05175 4.2505 7.69573 4.08278 7.31459 4.02401C6.93345 3.96523 6.54344 4.0179 6.19154 4.17567C5.83965 4.33344 5.54087 4.58959 5.3312 4.91326C5.12152 5.23692 5.0099 5.61431 5.00977 5.99995V12H21.0098C21.275 12 21.5293 12.1053 21.7169 12.2928C21.9044 12.4804 22.0098 12.7347 22.0098 13C22.0098 13.2652 21.9044 13.5195 21.7169 13.7071C21.5293 13.8946 21.275 14 21.0098 14V15C21.0099 16.241 20.6253 17.4516 19.909 18.4651C19.1927 19.4785 18.1798 20.245 17.0098 20.659V21C17.0098 21.2652 16.9044 21.5195 16.7169 21.7071C16.5293 21.8946 16.275 22 16.0098 22C15.7445 22 15.4902 21.8946 15.3027 21.7071C15.1151 21.5195 15.0098 21.2652 15.0098 21H9.00977C9.00977 21.2652 8.90441 21.5195 8.71687 21.7071C8.52934 21.8946 8.27498 22 8.00977 22C7.74455 22 7.4902 21.8946 7.30266 21.7071C7.11512 21.5195 7.00977 21.2652 7.00977 21V20.659C5.83978 20.245 4.82688 19.4785 4.11053 18.4651C3.39419 17.4516 3.00961 16.241 3.00977 15V14C2.74455 14 2.4902 13.8946 2.30266 13.7071C2.11512 13.5195 2.00977 13.2652 2.00977 13C2.00977 12.7347 2.11512 12.4804 2.30266 12.2928C2.4902 12.1053 2.74455 12 3.00977 12V5.99995C3.00972 5.11544 3.30286 4.25586 3.84332 3.55566C4.38378 2.85547 5.14107 2.35416 5.99675 2.13016C6.85243 1.90615 7.75823 1.97208 8.57245 2.31764C9.38667 2.66319 10.0634 3.26888 10.4968 4.03995ZM19.0098 14H5.00977V15C5.00977 16.0608 5.43119 17.0782 6.18134 17.8284C6.93148 18.5785 7.9489 19 9.00977 19H15.0098C16.0706 19 17.088 18.5785 17.8382 17.8284C18.5883 17.0782 19.0098 16.0608 19.0098 15V14ZM10.0098 5.99995C9.74455 5.99995 9.4902 6.10531 9.30266 6.29285C9.11512 6.48038 9.00977 6.73474 9.00977 6.99995H11.0098C11.0098 6.73474 10.9044 6.48038 10.7169 6.29285C10.5293 6.10531 10.275 5.99995 10.0098 5.99995Z" fill="#21272A"/>
</svg>
