<svg width="24" height="24" viewBox="0 0 24 24" fill="none" xmlns="http://www.w3.org/2000/svg">
<path d="M4.00977 8V16H19.0098V8H4.00977ZM21.0098 9C21.275 9 21.5293 9.10536 21.7169 9.29289C21.9044 9.48043 22.0098 9.73478 22.0098 10V14C22.0098 14.2652 21.9044 14.5196 21.7169 14.7071C21.5293 14.8946 21.275 15 21.0098 15V16C21.0098 16.5304 20.7991 17.0391 20.424 17.4142C20.0489 17.7893 19.5402 18 19.0098 18H4.00977C3.47933 18 2.97062 17.7893 2.59555 17.4142C2.22048 17.0391 2.00977 16.5304 2.00977 16V8C2.00977 7.46957 2.22048 6.96086 2.59555 6.58579C2.97062 6.21071 3.47933 6 4.00977 6H19.0098C19.5402 6 20.0489 6.21071 20.424 6.58579C20.7991 6.96086 21.0098 7.46957 21.0098 8V9ZM15.7978 12.358C15.7069 12.6069 15.521 12.8096 15.2808 12.9216C15.0406 13.0335 14.7658 13.0455 14.5168 12.955L10.7568 11.587C10.5075 11.4962 10.3045 11.31 10.1924 11.0695C10.0803 10.829 10.0684 10.5538 10.1593 10.3045C10.2501 10.0552 10.4363 9.85219 10.6768 9.74014C10.9173 9.62808 11.1925 9.61616 11.4418 9.707L15.2008 11.076C15.4499 11.1668 15.6528 11.3529 15.7648 11.5934C15.8767 11.8338 15.8886 12.1088 15.7978 12.358ZM12.0398 13.989C11.9949 14.1125 11.9261 14.2259 11.8374 14.3228C11.7487 14.4196 11.6417 14.4981 11.5227 14.5536C11.4036 14.6091 11.2748 14.6407 11.1435 14.6464C11.0123 14.6521 10.8812 14.632 10.7578 14.587L6.99877 13.22C6.87532 13.1751 6.76194 13.1063 6.66508 13.0176C6.56822 12.9288 6.48978 12.8219 6.43425 12.7028C6.32211 12.4624 6.31006 12.1873 6.40077 11.938C6.44568 11.8146 6.51446 11.7012 6.6032 11.6043C6.69193 11.5075 6.79887 11.429 6.91792 11.3735C7.15834 11.2613 7.43346 11.2493 7.68277 11.34L11.4418 12.709C11.6909 12.7997 11.8938 12.9855 12.0059 13.2257C12.1181 13.4659 12.1302 13.7408 12.0398 13.99V13.989ZM12.0998 10.647V13.647C12.0998 13.9122 11.9944 14.1666 11.8069 14.3541C11.6193 14.5416 11.365 14.647 11.0998 14.647C10.8345 14.647 10.5802 14.5416 10.3927 14.3541C10.2051 14.1666 10.0998 13.9122 10.0998 13.647V10.647C10.0998 10.3818 10.2051 10.1274 10.3927 9.93989C10.5802 9.75236 10.8345 9.647 11.0998 9.647C11.365 9.647 11.6193 9.75236 11.8069 9.93989C11.9944 10.1274 12.0998 10.3818 12.0998 10.647Z" fill="#21272A"/>
</svg>
