<svg width="24" height="24" viewBox="0 0 24 24" fill="none" xmlns="http://www.w3.org/2000/svg">
<path d="M4.00977 8V16H19.0098V8H4.00977ZM21.0098 9C21.275 9 21.5293 9.10536 21.7169 9.29289C21.9044 9.48043 22.0098 9.73478 22.0098 10V14C22.0098 14.2652 21.9044 14.5196 21.7169 14.7071C21.5293 14.8946 21.275 15 21.0098 15V16C21.0098 16.5304 20.7991 17.0391 20.424 17.4142C20.0489 17.7893 19.5402 18 19.0098 18H4.00977C3.47933 18 2.97062 17.7893 2.59555 17.4142C2.22048 17.0391 2.00977 16.5304 2.00977 16V8C2.00977 7.46957 2.22048 6.96086 2.59555 6.58579C2.97062 6.21071 3.47933 6 4.00977 6H19.0098C19.5402 6 20.0489 6.21071 20.424 6.58579C20.7991 6.96086 21.0098 7.46957 21.0098 8V9ZM13.0098 8H15.0098V16H13.0098V8Z" fill="#21272A"/>
</svg>
