<svg width="24" height="24" viewBox="0 0 24 24" fill="none" xmlns="http://www.w3.org/2000/svg">
<path d="M18.6768 13.13C18.6768 8.923 15.4988 5.5 11.5928 5.5C7.68677 5.5 4.50977 8.923 4.50977 13.13C4.50977 15.077 5.19177 16.931 6.42977 18.352C6.59677 18.542 6.87377 18.551 7.04977 18.372L7.81377 17.598C7.89865 17.5088 7.94762 17.3914 7.95131 17.2683C7.955 17.1452 7.91315 17.0251 7.83377 16.931C6.925 15.8744 6.42916 14.5246 6.43777 13.131C6.43777 10.068 8.74977 7.577 11.5928 7.577C14.4358 7.577 16.7488 10.068 16.7488 13.131C16.7574 14.5248 16.2611 15.8746 15.3518 16.931L15.3528 16.932C15.2736 17.0261 15.2319 17.1461 15.2358 17.269C15.2397 17.3919 15.2888 17.5091 15.3738 17.598L16.1378 18.371C16.3138 18.551 16.5918 18.541 16.7578 18.351C17.9948 16.931 18.6768 15.077 18.6768 13.131V13.13ZM22.0098 13.15C22.0098 12.13 21.8518 11.124 21.5398 10.16V10.157L21.5378 10.154C21.4961 10.0367 21.4107 9.94002 21.2995 9.88412C21.1883 9.82823 21.0598 9.81744 20.9408 9.854L19.8468 10.183C19.7875 10.1996 19.7322 10.2279 19.6841 10.2663C19.6359 10.3047 19.596 10.3523 19.5666 10.4064C19.5373 10.4605 19.519 10.5199 19.5131 10.5812C19.5071 10.6424 19.5134 10.7043 19.5318 10.763H19.5308C19.8763 11.8336 19.9847 12.9667 19.8484 14.0834C19.7122 15.2001 19.3345 16.2738 18.7418 17.23H18.7428C18.7109 17.2823 18.69 17.3405 18.6811 17.401C18.6723 17.4616 18.6758 17.5233 18.6914 17.5825C18.707 17.6417 18.7344 17.6972 18.7719 17.7455C18.8094 17.7939 18.8563 17.8342 18.9098 17.864L19.8908 18.434C20.1178 18.566 20.4108 18.494 20.5478 18.275C21.5021 16.7355 22.0084 14.9603 22.0098 13.149" fill="#21272A"/>
<path d="M5.27777 17.232C4.68526 16.2755 4.30788 15.2016 4.17181 14.0847C4.03574 12.9679 4.14424 11.8348 4.48977 10.764C4.50797 10.7052 4.51422 10.6434 4.50816 10.5822C4.50211 10.521 4.48387 10.4617 4.45451 10.4076C4.42516 10.3536 4.38529 10.3059 4.33724 10.2675C4.2892 10.2291 4.23396 10.2007 4.17477 10.184L3.08177 9.854C2.96252 9.81693 2.83353 9.82759 2.72199 9.88374C2.61044 9.93989 2.52504 10.0371 2.48377 10.155H2.48177C2.04659 11.4996 1.90973 12.9228 2.0807 14.3257C2.25168 15.7286 2.72639 17.0773 3.47177 18.278H3.47377C3.54201 18.3832 3.64811 18.458 3.77006 18.4871C3.892 18.5161 4.02045 18.4971 4.12877 18.434L5.11077 17.864C5.16382 17.8342 5.21035 17.794 5.2476 17.7459C5.28485 17.6977 5.31207 17.6426 5.32764 17.5838C5.34321 17.525 5.34682 17.4636 5.33826 17.4033C5.32969 17.3431 5.30912 17.2852 5.27777 17.233V17.232Z" fill="#21272A"/>
</svg>
