<svg width="24" height="24" viewBox="0 0 24 24" fill="none" xmlns="http://www.w3.org/2000/svg">
<path d="M15.4718 12.58C15.4718 10.477 13.8838 8.76599 11.9308 8.76599C9.97776 8.76599 8.38876 10.477 8.38876 12.581C8.38876 13.554 8.72876 14.481 9.34876 15.191C9.43176 15.286 9.57076 15.291 9.65876 15.201L10.0408 14.814C10.0831 14.7694 10.1075 14.7108 10.1093 14.6494C10.1112 14.588 10.0903 14.528 10.0508 14.481C9.59642 13.9527 9.34851 13.2778 9.35276 12.581C9.35276 11.05 10.5088 9.80399 11.9308 9.80399C13.3518 9.80399 14.5078 11.05 14.5078 12.581C14.5078 13.289 14.2598 13.964 13.8098 14.481C13.7703 14.5281 13.7497 14.5882 13.7517 14.6496C13.7537 14.711 13.7783 14.7695 13.8208 14.814L14.2028 15.201C14.2908 15.291 14.4298 15.286 14.5128 15.191C15.1318 14.481 15.4728 13.554 15.4728 12.581L15.4718 12.58ZM17.1388 12.59C17.1388 12.08 17.0598 11.578 16.9038 11.095V11.092C16.8828 11.0331 16.8399 10.9846 16.784 10.9566C16.728 10.9286 16.6635 10.9234 16.6038 10.942L16.0578 11.107C16.0281 11.1152 16.0004 11.1294 15.9763 11.1485C15.9521 11.1677 15.9321 11.1915 15.9174 11.2186C15.9027 11.2456 15.8935 11.2753 15.8905 11.306C15.8874 11.3366 15.8906 11.3676 15.8998 11.397C16.0719 11.9323 16.1257 12.4987 16.0575 13.0569C15.9893 13.6151 15.8007 14.1518 15.5048 14.63V14.631C15.4889 14.6572 15.4785 14.6863 15.4742 14.7166C15.4699 14.7469 15.4717 14.7777 15.4795 14.8073C15.4873 14.8369 15.5011 14.8646 15.5198 14.8888C15.5386 14.9129 15.562 14.9331 15.5888 14.948L16.0788 15.233C16.1928 15.298 16.3388 15.263 16.4088 15.153C16.8858 14.38 17.1388 13.493 17.1388 12.59Z" fill="#21272A"/>
<path d="M8.77277 14.632C8.47651 14.1537 8.28782 13.6168 8.21979 13.0583C8.15175 12.4999 8.206 11.9333 8.37877 11.398C8.38794 11.3686 8.39114 11.3377 8.38818 11.3071C8.38522 11.2765 8.37615 11.2468 8.36151 11.2198C8.34688 11.1928 8.32697 11.1689 8.30297 11.1497C8.27896 11.1305 8.25135 11.1163 8.22177 11.108L7.67477 10.943C7.61507 10.9241 7.55038 10.9292 7.49439 10.9572C7.4384 10.9852 7.3955 11.0339 7.37477 11.093C7.1571 11.7653 7.08863 12.477 7.17412 13.1786C7.25961 13.8801 7.497 14.5545 7.86977 15.155C7.90391 15.2079 7.95724 15.2456 8.01857 15.2602C8.07989 15.2747 8.14447 15.265 8.19877 15.233L8.68877 14.948C8.71535 14.933 8.73867 14.9129 8.75735 14.8888C8.77603 14.8648 8.78969 14.8372 8.79753 14.8077C8.80536 14.7782 8.8072 14.7475 8.80295 14.7173C8.7987 14.6871 8.78843 14.6581 8.77277 14.632Z" fill="#21272A"/>
<path d="M6.00977 4C5.47933 4 4.97062 4.21071 4.59555 4.58579C4.22048 4.96086 4.00977 5.46957 4.00977 6V18C4.00977 18.5304 4.22048 19.0391 4.59555 19.4142C4.97062 19.7893 5.47933 20 6.00977 20H18.0098C18.5402 20 19.0489 19.7893 19.424 19.4142C19.7991 19.0391 20.0098 18.5304 20.0098 18V6C20.0098 5.46957 19.7991 4.96086 19.424 4.58579C19.0489 4.21071 18.5402 4 18.0098 4H6.00977ZM6.00977 2H18.0098C19.0706 2 20.088 2.42143 20.8382 3.17157C21.5883 3.92172 22.0098 4.93913 22.0098 6V18C22.0098 19.0609 21.5883 20.0783 20.8382 20.8284C20.088 21.5786 19.0706 22 18.0098 22H6.00977C4.9489 22 3.93148 21.5786 3.18134 20.8284C2.43119 20.0783 2.00977 19.0609 2.00977 18V6C2.00977 4.93913 2.43119 3.92172 3.18134 3.17157C3.93148 2.42143 4.9489 2 6.00977 2V2Z" fill="#21272A"/>
</svg>
