<svg width="24" height="24" viewBox="0 0 24 24" fill="none" xmlns="http://www.w3.org/2000/svg">
<path d="M6.00977 9V18C6.00977 18.2652 6.11512 18.5196 6.30266 18.7071C6.4902 18.8946 6.74455 19 7.00977 19H13.0098C13.275 19 13.5293 18.8946 13.7169 18.7071C13.9044 18.5196 14.0098 18.2652 14.0098 18V9H6.00977ZM16.0098 9H17.0098C17.8054 9 18.5685 9.31607 19.1311 9.87868C19.6937 10.4413 20.0098 11.2044 20.0098 12V15C20.0098 15.7957 19.6937 16.5587 19.1311 17.1213C18.5685 17.6839 17.8054 18 17.0098 18H16.0098C16.0098 18.7957 15.6937 19.5587 15.1311 20.1213C14.5685 20.6839 13.8054 21 13.0098 21H7.00977C6.21412 21 5.45105 20.6839 4.88845 20.1213C4.32584 19.5587 4.00977 18.7957 4.00977 18V9C4.00977 8.46957 4.22048 7.96086 4.59555 7.58579C4.97062 7.21072 5.47933 7 6.00977 7H14.0098C14.5402 7 15.0489 7.21072 15.424 7.58579C15.7991 7.96086 16.0098 8.46957 16.0098 9ZM16.0098 11V16H17.0098C17.275 16 17.5293 15.8946 17.7169 15.7071C17.9044 15.5196 18.0098 15.2652 18.0098 15V12C18.0098 11.7348 17.9044 11.4804 17.7169 11.2929C17.5293 11.1054 17.275 11 17.0098 11H16.0098ZM8.00977 11C8.27498 11 8.52934 11.1054 8.71687 11.2929C8.90441 11.4804 9.00977 11.7348 9.00977 12V16C9.00977 16.2652 8.90441 16.5196 8.71687 16.7071C8.52934 16.8946 8.27498 17 8.00977 17C7.74455 17 7.4902 16.8946 7.30266 16.7071C7.11512 16.5196 7.00977 16.2652 7.00977 16V12C7.00977 11.7348 7.11512 11.4804 7.30266 11.2929C7.4902 11.1054 7.74455 11 8.00977 11ZM12.0098 11C12.275 11 12.5293 11.1054 12.7169 11.2929C12.9044 11.4804 13.0098 11.7348 13.0098 12V16C13.0098 16.2652 12.9044 16.5196 12.7169 16.7071C12.5293 16.8946 12.275 17 12.0098 17C11.7445 17 11.4902 16.8946 11.3027 16.7071C11.1151 16.5196 11.0098 16.2652 11.0098 16V12C11.0098 11.7348 11.1151 11.4804 11.3027 11.2929C11.4902 11.1054 11.7445 11 12.0098 11ZM10.5098 3C11.7032 3 12.8478 3.47411 13.6917 4.31802C14.5357 5.16194 15.0098 6.30653 15.0098 7.5V9.009H4.00977V7.5C4.00977 7.02632 4.10592 6.55756 4.2924 6.12213C4.47889 5.68669 4.75182 5.29364 5.09466 4.96678C5.43751 4.63993 5.84313 4.38606 6.28697 4.22057C6.73081 4.05508 7.20362 3.9814 7.67677 4.004C8.47735 3.35317 9.47801 2.99854 10.5098 3ZM6.00977 7H13.0098C13.0098 6.46957 12.7991 5.96086 12.424 5.58579C12.0489 5.21072 11.5402 5 11.0098 5H10.0098C9.65258 4.99993 9.30189 5.09551 8.99415 5.27682C8.6864 5.45813 8.43282 5.71854 8.25977 6.031C8.17807 6.0102 8.09407 5.99978 8.00977 6H7.00977C6.74455 6 6.4902 6.10536 6.30266 6.2929C6.11512 6.48043 6.00977 6.73479 6.00977 7Z" fill="#21272A"/>
</svg>
