<svg width="24" height="24" viewBox="0 0 24 24" fill="none" xmlns="http://www.w3.org/2000/svg">
<path d="M16.0398 9.88H13.5348V9.258H16.0408V9.881L16.0398 9.88ZM11.8668 12.433C12.0288 12.683 12.1088 12.987 12.1088 13.344C12.1088 13.714 12.0188 14.044 11.8328 14.337C11.7089 14.5428 11.5432 14.7204 11.3466 14.8584C11.1499 14.9963 10.9265 15.0916 10.6908 15.138C10.4014 15.1959 10.1069 15.224 9.81177 15.222H7.00977V9H10.0148C10.7718 9.012 11.3088 9.232 11.6258 9.663C11.8158 9.927 11.9108 10.244 11.9108 10.613C11.9108 10.993 11.8158 11.298 11.6228 11.529C11.5168 11.659 11.3588 11.777 11.1498 11.883C11.4658 11.999 11.7058 12.181 11.8668 12.433ZM8.44477 11.453H9.76177C10.0318 11.453 10.2508 11.402 10.4188 11.299C10.5878 11.196 10.6718 11.014 10.6718 10.752C10.6718 10.462 10.5608 10.27 10.3378 10.178C10.0995 10.1066 9.85141 10.0736 9.60277 10.08H8.44477V11.453ZM10.7988 13.255C10.7988 12.932 10.6658 12.709 10.4028 12.589C10.2548 12.521 10.0468 12.486 9.78077 12.483H8.44477V14.141H9.75977C10.0298 14.141 10.2398 14.106 10.3898 14.032C10.6618 13.897 10.7988 13.639 10.7988 13.255ZM16.9698 12.243C16.9998 12.447 17.0138 12.742 17.0088 13.128H13.7638C13.7818 13.576 13.9358 13.889 14.2298 14.068C14.4058 14.181 14.6198 14.236 14.8718 14.236C15.1368 14.236 15.3518 14.169 15.5188 14.031C15.6182 13.9461 15.6995 13.842 15.7578 13.725H16.9478C16.9158 13.99 16.7728 14.258 16.5158 14.531C16.1158 14.964 15.5578 15.181 14.8388 15.181C14.2673 15.1884 13.7115 14.9944 13.2688 14.633C12.8168 14.267 12.5888 13.673 12.5888 12.848C12.5888 12.075 12.7938 11.483 13.2028 11.071C13.6128 10.658 14.1438 10.453 14.7978 10.453C15.1848 10.453 15.5338 10.522 15.8458 10.661C16.1558 10.801 16.4128 11.02 16.6148 11.321C16.7978 11.587 16.9148 11.893 16.9698 12.243ZM15.7998 12.359C15.7778 12.049 15.6738 11.815 15.4878 11.655C15.2958 11.4915 15.0498 11.4052 14.7978 11.413C14.4978 11.413 14.2668 11.5 14.1018 11.669C13.9368 11.839 13.8338 12.069 13.7918 12.359H15.7998Z" fill="#21272A"/>
<path d="M6.00977 4C5.47933 4 4.97062 4.21071 4.59555 4.58579C4.22048 4.96086 4.00977 5.46957 4.00977 6V18C4.00977 18.5304 4.22048 19.0391 4.59555 19.4142C4.97062 19.7893 5.47933 20 6.00977 20H18.0098C18.5402 20 19.0489 19.7893 19.424 19.4142C19.7991 19.0391 20.0098 18.5304 20.0098 18V6C20.0098 5.46957 19.7991 4.96086 19.424 4.58579C19.0489 4.21071 18.5402 4 18.0098 4H6.00977ZM6.00977 2H18.0098C19.0706 2 20.088 2.42143 20.8382 3.17157C21.5883 3.92172 22.0098 4.93913 22.0098 6V18C22.0098 19.0609 21.5883 20.0783 20.8382 20.8284C20.088 21.5786 19.0706 22 18.0098 22H6.00977C4.9489 22 3.93148 21.5786 3.18134 20.8284C2.43119 20.0783 2.00977 19.0609 2.00977 18V6C2.00977 4.93913 2.43119 3.92172 3.18134 3.17157C3.93148 2.42143 4.9489 2 6.00977 2V2Z" fill="#21272A"/>
</svg>
