<svg width="24" height="24" viewBox="0 0 24 24" fill="none" xmlns="http://www.w3.org/2000/svg">
<path d="M20.0348 7.26899H15.0338V6.02699H20.0348V7.26899ZM11.7048 12.363C12.0268 12.863 12.1878 13.47 12.1878 14.182C12.1878 14.919 12.0058 15.58 11.6368 16.164C11.4091 16.5425 11.1107 16.8735 10.7578 17.139C10.3442 17.4513 9.8646 17.6647 9.35577 17.763C8.77862 17.878 8.19125 17.934 7.60277 17.93H2.00977V5.51099H8.00777C9.51877 5.53599 10.5898 5.97399 11.2238 6.83399C11.6038 7.36199 11.7918 7.99399 11.7918 8.73099C11.7918 9.48999 11.6018 10.097 11.2178 10.559C11.0048 10.818 10.6898 11.053 10.2728 11.266C10.9038 11.497 11.3828 11.861 11.7038 12.363H11.7048ZM4.87477 10.408H7.50177C8.04177 10.408 8.47877 10.305 8.81477 10.1C9.15077 9.89499 9.31877 9.52999 9.31877 9.00799C9.31877 8.42999 9.09677 8.04699 8.65177 7.86199C8.26877 7.73399 7.77977 7.66799 7.18577 7.66799H4.87377V10.408H4.87477ZM9.57177 14.005C9.57177 13.36 9.30777 12.914 8.78177 12.675C8.48677 12.538 8.07177 12.469 7.53977 12.464H4.87377V15.774H7.49977C8.03877 15.774 8.45577 15.703 8.75677 15.556C9.29977 15.285 9.57277 14.77 9.57277 14.005H9.57177ZM21.8898 11.985C21.9498 12.391 21.9778 12.98 21.9668 13.751H15.4898C15.5258 14.645 15.8338 15.27 16.4198 15.628C16.7728 15.852 17.1998 15.962 17.7018 15.962C18.2298 15.962 18.6608 15.828 18.9918 15.553C19.1728 15.408 19.3318 15.203 19.4698 14.943H21.8438C21.7818 15.471 21.4958 16.007 20.9828 16.551C20.1868 17.416 19.0708 17.85 17.6368 17.85C16.4528 17.85 15.4088 17.484 14.5028 16.755C13.5998 16.023 13.1468 14.837 13.1468 13.191C13.1468 11.648 13.5538 10.467 14.3708 9.64499C15.1908 8.82099 16.2488 8.41099 17.5528 8.41099C18.3268 8.41099 19.0228 8.54899 19.6448 8.82699C20.2648 9.10499 20.7768 9.54299 21.1808 10.144C21.5458 10.674 21.7808 11.286 21.8908 11.984L21.8898 11.985ZM19.5528 12.216C19.5098 11.598 19.3028 11.13 18.9318 10.81C18.5628 10.49 18.1018 10.329 17.5528 10.329C16.9548 10.329 16.4928 10.501 16.1658 10.839C15.8358 11.176 15.6298 11.635 15.5458 12.216H19.5528Z" fill="#21272A"/>
</svg>
