<svg width="24" height="24" viewBox="0 0 24 24" fill="none" xmlns="http://www.w3.org/2000/svg">
<path d="M16.6758 13.782L16.0098 13.186V8C16.0098 6.93913 15.5883 5.92172 14.8382 5.17157C14.088 4.42143 13.0706 4 12.0098 4C10.9489 4 9.93149 4.42143 9.18134 5.17157C8.43119 5.92172 8.00977 6.93913 8.00977 8V13.186L7.34377 13.782C6.37731 14.6445 5.66963 15.7586 5.29977 17H18.7198C18.3499 15.7586 17.6422 14.6445 16.6758 13.782ZM15.0098 19C15.0098 19.7956 14.6937 20.5587 14.1311 21.1213C13.5685 21.6839 12.8054 22 12.0098 22C11.2141 22 10.4511 21.6839 9.88845 21.1213C9.32584 20.5587 9.00977 19.7956 9.00977 19H3.00977C3.00841 17.7335 3.27501 16.4811 3.79205 15.325C4.30909 14.1689 5.06488 13.1353 6.00977 12.292V8C6.00977 6.4087 6.64191 4.88258 7.76713 3.75736C8.89234 2.63214 10.4185 2 12.0098 2C13.6011 2 15.1272 2.63214 16.2524 3.75736C17.3776 4.88258 18.0098 6.4087 18.0098 8V12.292C18.9547 13.1353 19.7104 14.1689 20.2275 15.325C20.7445 16.4811 21.0111 17.7335 21.0098 19H15.0098ZM12.0098 20C12.275 20 12.5293 19.8946 12.7169 19.7071C12.9044 19.5196 13.0098 19.2652 13.0098 19H11.0098C11.0098 19.2652 11.1151 19.5196 11.3027 19.7071C11.4902 19.8946 11.7445 20 12.0098 20Z" fill="#21272A"/>
</svg>
