<svg width="24" height="24" viewBox="0 0 24 24" fill="none" xmlns="http://www.w3.org/2000/svg">
<path d="M15.0098 19.5C15.0098 20.2956 14.6937 21.0587 14.1311 21.6213C13.5685 22.1839 12.8054 22.5 12.0098 22.5C11.2141 22.5 10.4511 22.1839 9.88844 21.6213C9.32583 21.0587 9.00976 20.2956 9.00976 19.5H6.66676L8.66676 17.5H18.7198C18.3499 16.2586 17.6422 15.1444 16.6758 14.282L16.0098 13.686V10.156L17.9998 8.16596C18.0068 8.27596 18.0098 8.38796 18.0098 8.49996V12.792C18.9547 13.6352 19.7104 14.6689 20.2275 15.825C20.7445 16.9811 21.0111 18.2335 21.0098 19.5H15.0098ZM3.30476 17.205C3.75474 15.5008 4.69533 13.9663 6.00976 12.792V8.49996C6.00962 7.31317 6.36144 6.15299 7.02072 5.16616C7.68 4.17933 8.61712 3.41019 9.71357 2.956C10.81 2.50182 12.0165 2.383 13.1805 2.61457C14.3445 2.84614 15.4136 3.4177 16.2528 4.25696L14.8378 5.67196C14.2784 5.11272 13.5657 4.7319 12.7899 4.57763C12.0141 4.42336 11.2099 4.50257 10.4791 4.80525C9.74835 5.10793 9.12369 5.62049 8.68416 6.27813C8.24462 6.93577 8.00993 7.70896 8.00976 8.49996V12.5L3.30476 17.205ZM12.0098 20.5C12.275 20.5 12.5293 20.3946 12.7169 20.2071C12.9044 20.0195 13.0098 19.7652 13.0098 19.5H11.0098C11.0098 19.7652 11.1151 20.0195 11.3027 20.2071C11.4902 20.3946 11.7445 20.5 12.0098 20.5ZM21.1018 2.20696C21.2892 2.39449 21.3946 2.6488 21.3946 2.91396C21.3946 3.17912 21.2892 3.43343 21.1018 3.62096L4.13176 20.591C4.03958 20.6865 3.92929 20.7628 3.80733 20.8153C3.68536 20.8678 3.55416 20.8955 3.42138 20.8967C3.28861 20.8979 3.15691 20.8727 3.03398 20.8225C2.91105 20.7724 2.79935 20.6982 2.70539 20.6044C2.61143 20.5105 2.5371 20.3989 2.48673 20.2761C2.43636 20.1532 2.41097 20.0215 2.41203 19.8888C2.41309 19.756 2.44058 19.6248 2.4929 19.5027C2.54522 19.3807 2.62132 19.2703 2.71676 19.178L19.6868 2.20796C19.7796 2.11498 19.8899 2.04122 20.0113 1.9909C20.1327 1.94058 20.2628 1.91467 20.3943 1.91467C20.5257 1.91467 20.6558 1.94058 20.7772 1.9909C20.8986 2.04122 21.0089 2.11498 21.1018 2.20796V2.20696Z" fill="#21272A"/>
</svg>
