<svg width="24" height="24" viewBox="0 0 24 24" fill="none" xmlns="http://www.w3.org/2000/svg">
<path d="M15.9998 11.297C15.9979 11.2489 15.9818 11.2026 15.9535 11.1637C15.9252 11.1249 15.8859 11.0954 15.8408 11.079L11.1368 9.62296C11.0488 9.59596 11.0088 9.64296 11.0468 9.72596L11.9228 11.648C11.972 11.7428 12.0491 11.8203 12.1438 11.87L13.3438 12.42C13.4278 12.457 13.4298 12.524 13.3488 12.567L8.22677 15.291C8.14677 15.334 8.13577 15.319 8.20377 15.257L10.1718 13.485C10.246 13.41 10.2901 13.3103 10.2958 13.205L10.2968 7.83496C10.295 7.7868 10.2789 7.74027 10.2506 7.70128C10.2223 7.66228 10.183 7.63258 10.1378 7.61596L8.16977 7.00696C8.08177 6.97996 8.00977 7.03396 8.00977 7.12696V15.275C8.00977 15.367 8.07077 15.486 8.14577 15.539L10.1468 16.957C10.2218 17.01 10.3468 17.015 10.4268 16.967L15.8568 13.697C15.8988 13.6684 15.9336 13.6305 15.9586 13.5863C15.9836 13.5421 15.998 13.4927 16.0008 13.442V11.297H15.9998Z" fill="#21272A"/>
<path d="M6.00977 4C5.47933 4 4.97062 4.21071 4.59555 4.58579C4.22048 4.96086 4.00977 5.46957 4.00977 6V18C4.00977 18.5304 4.22048 19.0391 4.59555 19.4142C4.97062 19.7893 5.47933 20 6.00977 20H18.0098C18.5402 20 19.0489 19.7893 19.424 19.4142C19.7991 19.0391 20.0098 18.5304 20.0098 18V6C20.0098 5.46957 19.7991 4.96086 19.424 4.58579C19.0489 4.21071 18.5402 4 18.0098 4H6.00977ZM6.00977 2H18.0098C19.0706 2 20.088 2.42143 20.8382 3.17157C21.5883 3.92172 22.0098 4.93913 22.0098 6V18C22.0098 19.0609 21.5883 20.0783 20.8382 20.8284C20.088 21.5786 19.0706 22 18.0098 22H6.00977C4.9489 22 3.93148 21.5786 3.18134 20.8284C2.43119 20.0783 2.00977 19.0609 2.00977 18V6C2.00977 4.93913 2.43119 3.92172 3.18134 3.17157C3.93148 2.42143 4.9489 2 6.00977 2V2Z" fill="#21272A"/>
</svg>
