<svg width="24" height="24" viewBox="0 0 24 24" fill="none" xmlns="http://www.w3.org/2000/svg">
<path d="M19.9828 10.57C19.9789 10.4744 19.9466 10.3821 19.8902 10.3048C19.8338 10.2276 19.7557 10.1688 19.6658 10.136L10.2828 7.23C10.1078 7.176 10.0278 7.269 10.1048 7.436L11.8498 11.269C11.9268 11.437 12.1258 11.636 12.2918 11.712L14.6858 12.808C14.8518 12.884 14.8558 13.017 14.6938 13.103L4.47977 18.535C4.31877 18.621 4.29777 18.591 4.43377 18.468L8.35777 14.934C8.50591 14.7846 8.59414 14.5861 8.60577 14.376L8.60977 3.664C8.60584 3.56814 8.57352 3.47561 8.5169 3.39816C8.46028 3.32071 8.38192 3.26183 8.29177 3.229L4.36477 2.014C4.18977 1.96 4.04677 2.067 4.04677 2.252V18.502C4.04677 18.687 4.16877 18.925 4.31877 19.031L8.30877 21.858C8.45877 21.964 8.70877 21.973 8.86577 21.878L19.6978 15.355C19.7811 15.2981 19.8503 15.2228 19.8999 15.1348C19.9495 15.0469 19.9782 14.9488 19.9838 14.848V10.57H19.9828Z" fill="#21272A"/>
</svg>
