<svg width="24" height="24" viewBox="0 0 24 24" fill="none" xmlns="http://www.w3.org/2000/svg">
<path d="M12.0098 20C14.1315 20 16.1663 19.1571 17.6666 17.6569C19.1669 16.1566 20.0098 14.1217 20.0098 12C20.0098 9.87827 19.1669 7.84344 17.6666 6.34315C16.1663 4.84285 14.1315 4 12.0098 4C9.88803 4 7.8532 4.84285 6.35291 6.34315C4.85262 7.84344 4.00977 9.87827 4.00977 12C4.00977 14.1217 4.85262 16.1566 6.35291 17.6569C7.8532 19.1571 9.88803 20 12.0098 20ZM12.0098 22C6.48677 22 2.00977 17.523 2.00977 12C2.00977 6.477 6.48677 2 12.0098 2C17.5328 2 22.0098 6.477 22.0098 12C22.0098 17.523 17.5328 22 12.0098 22Z" fill="#21272A"/>
<path d="M15.9998 11.297C15.9979 11.2489 15.9818 11.2026 15.9535 11.1637C15.9252 11.1249 15.8859 11.0954 15.8408 11.079L11.1368 9.62296C11.0488 9.59596 11.0088 9.64296 11.0468 9.72596L11.9228 11.648C11.972 11.7428 12.0491 11.8203 12.1438 11.87L13.3438 12.42C13.4278 12.457 13.4298 12.524 13.3488 12.567L8.22677 15.291C8.14677 15.334 8.13577 15.319 8.20377 15.257L10.1718 13.485C10.246 13.41 10.2901 13.3103 10.2958 13.205L10.2968 7.83496C10.295 7.7868 10.2789 7.74027 10.2506 7.70128C10.2223 7.66228 10.183 7.63258 10.1378 7.61596L8.16977 7.00696C8.08177 6.97996 8.00977 7.03396 8.00977 7.12696V15.275C8.00977 15.367 8.07077 15.486 8.14577 15.539L10.1468 16.957C10.2218 17.01 10.3468 17.015 10.4268 16.967L15.8568 13.697C15.8988 13.6684 15.9336 13.6305 15.9586 13.5863C15.9836 13.5421 15.998 13.4927 16.0008 13.442V11.297H15.9998Z" fill="#21272A"/>
</svg>
