<svg width="24" height="24" viewBox="0 0 24 24" fill="none" xmlns="http://www.w3.org/2000/svg">
<path d="M4.00977 19.262V21H20.0098V19.272L16.9038 20.025L12.0438 19.021L7.06677 20.025L4.00977 19.262ZM4.00977 17.2L7.11377 17.975L12.0498 16.979L16.8688 17.975L20.0098 17.214V16C20.0098 15.7348 19.9044 15.4804 19.7169 15.2929C19.5293 15.1054 19.275 15 19.0098 15H5.00977C4.74455 15 4.4902 15.1054 4.30266 15.2929C4.11512 15.4804 4.00977 15.7348 4.00977 16V17.2ZM15.0098 13H19.0098C19.8054 13 20.5685 13.3161 21.1311 13.8787C21.6937 14.4413 22.0098 15.2044 22.0098 16V23H2.00977V16C2.00977 15.2044 2.32584 14.4413 2.88845 13.8787C3.45105 13.3161 4.21412 13 5.00977 13H9.00977V10H15.0098V13ZM13.0098 13V12H11.0098V13H13.0098ZM12.0098 9.4C11.2141 9.4 10.4511 9.08393 9.88845 8.52132C9.32584 7.95871 9.00977 7.19565 9.00977 6.4C9.00977 5.295 10.0098 3.495 12.0098 1C14.0098 3.495 15.0098 5.295 15.0098 6.4C15.0098 7.19565 14.6937 7.95871 14.1311 8.52132C13.5685 9.08393 12.8054 9.4 12.0098 9.4ZM12.0078 7.419C12.5598 7.419 13.0078 6.939 13.0078 6.347C13.0078 5.953 12.6738 5.31 12.0078 4.419C11.3408 5.31 11.0078 5.953 11.0078 6.347C11.0078 6.939 11.4558 7.419 12.0078 7.419Z" fill="#21272A"/>
</svg>
