<svg width="24" height="24" viewBox="0 0 24 24" fill="none" xmlns="http://www.w3.org/2000/svg">
<path d="M13.8198 17C15.5638 17 16.9798 15.58 16.9898 13.846L17.0098 11.293L16.9798 11.153L16.8968 10.979L16.7548 10.869C16.5708 10.725 15.6388 10.879 15.3878 10.651C15.2098 10.488 15.1818 10.195 15.1278 9.796C15.0278 9.025 14.9648 8.985 14.8438 8.723C14.4038 7.794 13.2138 7.096 12.3958 7H10.1788C9.34025 7.00131 8.53633 7.33438 7.94257 7.92645C7.34881 8.51852 7.01346 9.3215 7.00977 10.16V13.846C7.00977 15.58 8.43577 17 10.1798 17H13.8198ZM10.2198 9.581H11.9768C12.3118 9.581 12.5838 9.854 12.5838 10.185C12.5838 10.515 12.3118 10.789 11.9768 10.789H10.2198C10.0594 10.7887 9.90559 10.7251 9.7919 10.612C9.67821 10.4989 9.61382 10.3454 9.61277 10.185C9.61277 9.854 9.88377 9.581 10.2198 9.581ZM9.61277 13.8C9.61277 13.47 9.88377 13.199 10.2198 13.199H13.7898C14.1228 13.199 14.3938 13.469 14.3938 13.8C14.3938 14.127 14.1238 14.401 13.7898 14.401H10.2198C10.0598 14.401 9.90632 14.3379 9.79266 14.2253C9.679 14.1128 9.61435 13.9599 9.61277 13.8Z" fill="#21272A"/>
<path d="M6.00977 4C5.47933 4 4.97062 4.21071 4.59555 4.58579C4.22048 4.96086 4.00977 5.46957 4.00977 6V18C4.00977 18.5304 4.22048 19.0391 4.59555 19.4142C4.97062 19.7893 5.47933 20 6.00977 20H18.0098C18.5402 20 19.0489 19.7893 19.424 19.4142C19.7991 19.0391 20.0098 18.5304 20.0098 18V6C20.0098 5.46957 19.7991 4.96086 19.424 4.58579C19.0489 4.21071 18.5402 4 18.0098 4H6.00977ZM6.00977 2H18.0098C19.0706 2 20.088 2.42143 20.8382 3.17157C21.5883 3.92172 22.0098 4.93913 22.0098 6V18C22.0098 19.0609 21.5883 20.0783 20.8382 20.8284C20.088 21.5786 19.0706 22 18.0098 22H6.00977C4.9489 22 3.93148 21.5786 3.18134 20.8284C2.43119 20.0783 2.00977 19.0609 2.00977 18V6C2.00977 4.93913 2.43119 3.92172 3.18134 3.17157C3.93148 2.42143 4.9489 2 6.00977 2V2Z" fill="#21272A"/>
</svg>
