<svg width="24" height="24" viewBox="0 0 24 24" fill="none" xmlns="http://www.w3.org/2000/svg">
<path d="M15.6028 21.96C19.0828 21.96 21.9098 19.124 21.9298 15.663L21.9688 10.568L21.9098 10.29L21.7428 9.942L21.4598 9.722C21.0928 9.435 19.2318 9.742 18.7308 9.287C18.3758 8.963 18.3208 8.377 18.2128 7.581C18.0128 6.041 17.8868 5.961 17.6448 5.439C16.7698 3.585 14.3918 2.193 12.7598 2H8.33477C4.85477 2 2.00977 4.839 2.00977 8.307V15.663C2.00977 19.124 4.85477 21.959 8.33477 21.959H15.6028V21.96ZM8.41577 7.151H11.9228C12.5928 7.151 13.1348 7.695 13.1348 8.356C13.1348 9.013 12.5928 9.562 11.9228 9.562H8.41577C7.74577 9.562 7.20577 9.013 7.20577 8.356C7.20577 7.695 7.74577 7.151 8.41577 7.151ZM7.20577 15.569C7.20577 14.909 7.74577 14.369 8.41577 14.369H15.5428C16.2078 14.369 16.7478 14.909 16.7478 15.569C16.7478 16.221 16.2078 16.769 15.5428 16.769H8.41577C8.09658 16.769 7.79032 16.6429 7.56368 16.4181C7.33705 16.1934 7.2084 15.8882 7.20577 15.569Z" fill="#21272A"/>
</svg>
