<svg width="24" height="24" viewBox="0 0 24 24" fill="none" xmlns="http://www.w3.org/2000/svg">
<path d="M12.0098 20C14.1315 20 16.1663 19.1571 17.6666 17.6569C19.1669 16.1566 20.0098 14.1217 20.0098 12C20.0098 9.87827 19.1669 7.84344 17.6666 6.34315C16.1663 4.84285 14.1315 4 12.0098 4C9.88803 4 7.8532 4.84285 6.35291 6.34315C4.85262 7.84344 4.00977 9.87827 4.00977 12C4.00977 14.1217 4.85262 16.1566 6.35291 17.6569C7.8532 19.1571 9.88803 20 12.0098 20ZM12.0098 22C6.48677 22 2.00977 17.523 2.00977 12C2.00977 6.477 6.48677 2 12.0098 2C17.5328 2 22.0098 6.477 22.0098 12C22.0098 17.523 17.5328 22 12.0098 22Z" fill="#21272A"/>
<path d="M13.8198 17C15.5638 17 16.9798 15.58 16.9898 13.846L17.0098 11.293L16.9798 11.153L16.8968 10.979L16.7548 10.869C16.5708 10.725 15.6388 10.879 15.3878 10.651C15.2098 10.488 15.1818 10.195 15.1278 9.796C15.0278 9.025 14.9648 8.985 14.8438 8.723C14.4038 7.794 13.2138 7.096 12.3958 7H10.1788C9.34025 7.00131 8.53633 7.33438 7.94257 7.92645C7.34881 8.51852 7.01346 9.3215 7.00977 10.16V13.846C7.00977 15.58 8.43577 17 10.1798 17H13.8198ZM10.2198 9.581H11.9768C12.3118 9.581 12.5838 9.854 12.5838 10.185C12.5838 10.515 12.3118 10.789 11.9768 10.789H10.2198C10.0594 10.7887 9.90559 10.7251 9.7919 10.612C9.67821 10.4989 9.61382 10.3454 9.61277 10.185C9.61277 9.854 9.88377 9.581 10.2198 9.581ZM9.61277 13.8C9.61277 13.47 9.88377 13.199 10.2198 13.199H13.7898C14.1228 13.199 14.3938 13.469 14.3938 13.8C14.3938 14.127 14.1238 14.401 13.7898 14.401H10.2198C10.0598 14.401 9.90632 14.3379 9.79266 14.2253C9.679 14.1128 9.61435 13.9599 9.61277 13.8Z" fill="#21272A"/>
</svg>
