<svg width="24" height="24" viewBox="0 0 24 24" fill="none" xmlns="http://www.w3.org/2000/svg">
<path d="M13.4238 12L17.7178 16.294C17.8109 16.3864 17.8846 16.4964 17.9348 16.6176C17.9849 16.7388 18.0104 16.8688 18.0098 17C18.0098 17.268 17.8938 17.522 17.6598 17.76L12.7128 21.718C12.3428 22.016 11.9748 22.079 11.6078 21.908C11.2408 21.737 11.0418 21.436 11.0098 21.006V14.414L7.71677 17.707C7.62452 17.8025 7.51417 17.8787 7.39217 17.9311C7.27017 17.9835 7.13895 18.0111 7.00617 18.0123C6.87339 18.0134 6.74171 17.9881 6.61881 17.9378C6.49592 17.8875 6.38426 17.8133 6.29037 17.7194C6.19648 17.6255 6.12222 17.5139 6.07194 17.391C6.02166 17.2681 5.99636 17.1364 5.99752 17.0036C5.99867 16.8708 6.02626 16.7396 6.07866 16.6176C6.13107 16.4956 6.20726 16.3852 6.30277 16.293L10.5958 12L6.30277 7.707C6.20726 7.61475 6.13107 7.50441 6.07866 7.3824C6.02626 7.2604 5.99867 7.12918 5.99752 6.9964C5.99636 6.86362 6.02166 6.73194 6.07194 6.60905C6.12222 6.48615 6.19648 6.3745 6.29037 6.2806C6.38426 6.18671 6.49592 6.11246 6.61881 6.06218C6.74171 6.0119 6.87339 5.9866 7.00617 5.98775C7.13895 5.9889 7.27017 6.01649 7.39217 6.0689C7.51417 6.12131 7.62452 6.19749 7.71677 6.293L11.0098 9.586V3.026C11.0098 2.448 11.4578 2 12.0098 2C12.2269 1.99986 12.4382 2.07041 12.6118 2.201L17.5218 6.129C17.8148 6.316 18.0098 6.635 18.0098 7C18.0098 7.33 17.8498 7.623 17.6028 7.805L13.4238 12ZM13.0098 18.92L15.5128 16.917L13.0098 14.414V18.919V18.92ZM15.5128 7.082L13.0098 5.08V9.585L15.5128 7.082Z" fill="#21272A"/>
</svg>
