<svg width="24" height="24" viewBox="0 0 24 24" fill="none" xmlns="http://www.w3.org/2000/svg">
<path d="M10.5098 12.455V15.182H12.0098C12.8378 15.182 13.5098 14.572 13.5098 13.818C13.5098 13.065 12.8378 12.455 12.0098 12.455H10.5098ZM14.0238 11.215C14.9228 11.793 15.5098 12.744 15.5098 13.819C15.5098 15.575 13.9428 17 12.0098 17H8.50977V7.91C8.50977 7.406 8.95777 7 9.50977 7H11.5098C13.1668 7 14.5098 8.221 14.5098 9.727C14.5098 10.277 14.3308 10.787 14.0238 11.216V11.215ZM10.5098 8.819V10.637H11.5098C12.0618 10.637 12.5098 10.23 12.5098 9.728C12.5098 9.226 12.0618 8.819 11.5098 8.819H10.5098Z" fill="#21272A"/>
</svg>
