<svg width="24" height="24" viewBox="0 0 24 24" fill="none" xmlns="http://www.w3.org/2000/svg">
<path d="M8.00977 4C7.74455 4 7.4902 4.10536 7.30266 4.29289C7.11512 4.48043 7.00977 4.73478 7.00977 5V20L9.98777 17.283C10.5405 16.7787 11.2616 16.4992 12.0098 16.4992C12.7579 16.4992 13.4791 16.7787 14.0318 17.283L17.0098 20V5C17.0098 4.73478 16.9044 4.48043 16.7169 4.29289C16.5293 4.10536 16.275 4 16.0098 4H8.00977ZM8.00977 2H16.0098C16.8054 2 17.5685 2.31607 18.1311 2.87868C18.6937 3.44129 19.0098 4.20435 19.0098 5V20C19.0097 20.3877 18.8969 20.7671 18.6851 21.0919C18.4734 21.4167 18.1718 21.6729 17.817 21.8294C17.4623 21.9859 17.0697 22.0359 16.687 21.9733C16.3044 21.9108 15.9482 21.7383 15.6618 21.477L12.6838 18.76C12.4995 18.5919 12.2592 18.4987 12.0098 18.4987C11.7604 18.4987 11.52 18.5919 11.3358 18.76L8.35777 21.477C8.07134 21.7383 7.71513 21.9108 7.33248 21.9733C6.94983 22.0359 6.55725 21.9859 6.20251 21.8294C5.84777 21.6729 5.54617 21.4167 5.33441 21.0919C5.12264 20.7671 5.00986 20.3877 5.00977 20V5C5.00977 4.20435 5.32584 3.44129 5.88845 2.87868C6.45105 2.31607 7.21412 2 8.00977 2V2ZM13.0098 10H15.0098C15.275 10 15.5293 10.1054 15.7169 10.2929C15.9044 10.4804 16.0098 10.7348 16.0098 11C16.0098 11.2652 15.9044 11.5196 15.7169 11.7071C15.5293 11.8946 15.275 12 15.0098 12H13.0098V14C13.0098 14.2652 12.9044 14.5196 12.7169 14.7071C12.5293 14.8946 12.275 15 12.0098 15C11.7445 15 11.4902 14.8946 11.3027 14.7071C11.1151 14.5196 11.0098 14.2652 11.0098 14V12H9.00977C8.74455 12 8.4902 11.8946 8.30266 11.7071C8.11512 11.5196 8.00977 11.2652 8.00977 11C8.00977 10.7348 8.11512 10.4804 8.30266 10.2929C8.4902 10.1054 8.74455 10 9.00977 10H11.0098V8C11.0098 7.73478 11.1151 7.48043 11.3027 7.29289C11.4902 7.10536 11.7445 7 12.0098 7C12.275 7 12.5293 7.10536 12.7169 7.29289C12.9044 7.48043 13.0098 7.73478 13.0098 8V10Z" fill="#21272A"/>
</svg>
