<svg width="24" height="24" viewBox="0 0 24 24" fill="none" xmlns="http://www.w3.org/2000/svg">
<path d="M10.0098 20V22H8.00977V20H5.00977V2H16.0098C16.8054 2 17.5685 2.31607 18.1311 2.87868C18.6937 3.44129 19.0098 4.20435 19.0098 5V17C19.0098 17.7956 18.6937 18.5587 18.1311 19.1213C17.5685 19.6839 16.8054 20 16.0098 20H10.0098ZM8.00977 4H7.00977V18H8.00977V4ZM10.0098 4V18H16.0098C16.275 18 16.5293 17.8946 16.7169 17.7071C16.9044 17.5196 17.0098 17.2652 17.0098 17V5C17.0098 4.73478 16.9044 4.48043 16.7169 4.29289C16.5293 4.10536 16.275 4 16.0098 4H10.0098ZM11.0098 6H16.0098V8H11.0098V6ZM11.0098 9H16.0098V11H11.0098V9Z" fill="#21272A"/>
</svg>
