<svg width="24" height="24" viewBox="0 0 24 24" fill="none" xmlns="http://www.w3.org/2000/svg">
<path d="M8.00977 4C7.74455 4 7.4902 4.10536 7.30266 4.29289C7.11512 4.48043 7.00977 4.73478 7.00977 5V20L9.98777 17.283C10.5405 16.7787 11.2616 16.4992 12.0098 16.4992C12.7579 16.4992 13.4791 16.7787 14.0318 17.283L17.0098 20V5C17.0098 4.73478 16.9044 4.48043 16.7169 4.29289C16.5293 4.10536 16.275 4 16.0098 4H8.00977ZM8.00977 2H16.0098C16.8054 2 17.5685 2.31607 18.1311 2.87868C18.6937 3.44129 19.0098 4.20435 19.0098 5V20C19.0097 20.3877 18.8969 20.7671 18.6851 21.0919C18.4734 21.4167 18.1718 21.6729 17.817 21.8294C17.4623 21.9859 17.0697 22.0359 16.687 21.9733C16.3044 21.9108 15.9482 21.7383 15.6618 21.477L12.6838 18.76C12.4995 18.5919 12.2592 18.4987 12.0098 18.4987C11.7604 18.4987 11.52 18.5919 11.3358 18.76L8.35777 21.477C8.07134 21.7383 7.71513 21.9108 7.33248 21.9733C6.94983 22.0359 6.55725 21.9859 6.20251 21.8294C5.84777 21.6729 5.54617 21.4167 5.33441 21.0919C5.12264 20.7671 5.00986 20.3877 5.00977 20V5C5.00977 4.20435 5.32584 3.44129 5.88845 2.87868C6.45105 2.31607 7.21412 2 8.00977 2V2ZM13.4238 11L14.8378 12.414C14.9333 12.5062 15.0095 12.6166 15.0619 12.7386C15.1143 12.8606 15.1419 12.9918 15.143 13.1246C15.1442 13.2574 15.1189 13.3891 15.0686 13.512C15.0183 13.6349 14.9441 13.7465 14.8502 13.8404C14.7563 13.9343 14.6446 14.0085 14.5217 14.0588C14.3988 14.1091 14.2671 14.1344 14.1344 14.1333C14.0016 14.1321 13.8704 14.1045 13.7484 14.0521C13.6264 13.9997 13.516 13.9235 13.4238 13.828L12.0098 12.414L10.5958 13.828C10.4072 14.0102 10.1546 14.111 9.89236 14.1087C9.63017 14.1064 9.37935 14.0012 9.19395 13.8158C9.00854 13.6304 8.90337 13.3796 8.90109 13.1174C8.89881 12.8552 8.99961 12.6026 9.18177 12.414L10.5958 11L9.18177 9.586C9.08626 9.49375 9.01007 9.38341 8.95766 9.2614C8.90526 9.1394 8.87767 9.00818 8.87652 8.8754C8.87536 8.74262 8.90066 8.61094 8.95094 8.48805C9.00122 8.36515 9.07548 8.2535 9.16937 8.15961C9.26326 8.06571 9.37492 7.99146 9.49781 7.94118C9.62071 7.8909 9.75239 7.8656 9.88517 7.86675C10.0179 7.8679 10.1492 7.89549 10.2712 7.9479C10.3932 8.00031 10.5035 8.07649 10.5958 8.172L12.0098 9.586L13.4238 8.172C13.516 8.07649 13.6264 8.00031 13.7484 7.9479C13.8704 7.89549 14.0016 7.8679 14.1344 7.86675C14.2671 7.8656 14.3988 7.8909 14.5217 7.94118C14.6446 7.99146 14.7563 8.06571 14.8502 8.15961C14.9441 8.2535 15.0183 8.36515 15.0686 8.48805C15.1189 8.61094 15.1442 8.74262 15.143 8.8754C15.1419 9.00818 15.1143 9.1394 15.0619 9.2614C15.0095 9.38341 14.9333 9.49375 14.8378 9.586L13.4238 11Z" fill="#21272A"/>
</svg>
