<svg width="24" height="24" viewBox="0 0 24 24" fill="none" xmlns="http://www.w3.org/2000/svg">
<path d="M16.9848 11H17.0098V20C17.0098 20.5304 16.7991 21.0391 16.424 21.4142C16.0489 21.7893 15.5402 22 15.0098 22H9.00977C8.47933 22 7.97062 21.7893 7.59555 21.4142C7.22048 21.0391 7.00977 20.5304 7.00977 20V11H7.03477C7.12234 10.2226 7.43594 9.48798 7.93677 8.887L9.04677 7.557C9.34645 7.19706 9.5103 6.74336 9.50977 6.275V3C9.50977 2.73478 9.61512 2.48043 9.80266 2.29289C9.9902 2.10536 10.2445 2 10.5098 2H13.5098C13.775 2 14.0293 2.10536 14.2169 2.29289C14.4044 2.48043 14.5098 2.73478 14.5098 3V6.276C14.51 6.7438 14.6742 7.19673 14.9738 7.556L16.0828 8.887C16.5836 9.48798 16.8972 10.2226 16.9848 11ZM14.9588 11C14.8883 10.6941 14.7468 10.4091 14.5458 10.168L13.4368 8.837C12.8377 8.11805 12.5097 7.21182 12.5098 6.276V4H11.5098V6.276C11.5096 7.21148 11.1816 8.11732 10.5828 8.836L9.47277 10.168C9.27243 10.4093 9.13164 10.6943 9.06177 11H14.9598H14.9588ZM15.0098 18H9.00977V20H15.0098V18ZM9.00977 13V16H15.0098V13H9.00977Z" fill="#21272A"/>
</svg>
