<svg width="24" height="24" viewBox="0 0 24 24" fill="none" xmlns="http://www.w3.org/2000/svg">
<path d="M5.00977 4H19.0098C19.8054 4 20.5685 4.31607 21.1311 4.87868C21.6937 5.44129 22.0098 6.20435 22.0098 7V17C22.0098 17.7956 21.6937 18.5587 21.1311 19.1213C20.5685 19.6839 19.8054 20 19.0098 20H5.00977C4.21412 20 3.45105 19.6839 2.88845 19.1213C2.32584 18.5587 2.00977 17.7956 2.00977 17V7C2.00977 6.20435 2.32584 5.44129 2.88845 4.87868C3.45105 4.31607 4.21412 4 5.00977 4V4ZM5.00977 6C4.74455 6 4.4902 6.10536 4.30266 6.29289C4.11512 6.48043 4.00977 6.73478 4.00977 7V17C4.00977 17.2652 4.11512 17.5196 4.30266 17.7071C4.4902 17.8946 4.74455 18 5.00977 18H19.0098C19.275 18 19.5293 17.8946 19.7169 17.7071C19.9044 17.5196 20.0098 17.2652 20.0098 17V7C20.0098 6.73478 19.9044 6.48043 19.7169 6.29289C19.5293 6.10536 19.275 6 19.0098 6H5.00977ZM15.8838 11C15.6613 11.8582 15.1602 12.6183 14.459 13.1609C13.7579 13.7035 12.8964 13.9979 12.0098 13.9979C11.1232 13.9979 10.2617 13.7035 9.5605 13.1609C8.85934 12.6183 8.3582 11.8582 8.13577 11H4.00977V9H20.0098V11H15.8838ZM13.7418 11H10.2778C10.4533 11.304 10.7058 11.5565 11.0098 11.732C11.3138 11.9075 11.6587 11.9999 12.0098 11.9999C12.3608 11.9999 12.7057 11.9075 13.0097 11.732C13.3137 11.5565 13.5662 11.304 13.7418 11Z" fill="#21272A"/>
</svg>
