<svg width="24" height="24" viewBox="0 0 24 24" fill="none" xmlns="http://www.w3.org/2000/svg">
<path d="M7.00976 20C7.27498 20 7.52934 19.8947 7.71687 19.7071C7.90441 19.5196 8.00976 19.2652 8.00976 19C8.00976 18.7348 7.90441 18.4805 7.71687 18.2929C7.52934 18.1054 7.27498 18 7.00976 18C6.74455 18 6.49019 18.1054 6.30266 18.2929C6.11512 18.4805 6.00976 18.7348 6.00976 19C6.00976 19.2652 6.11512 19.5196 6.30266 19.7071C6.49019 19.8947 6.74455 20 7.00976 20ZM8.00976 12.998V16.171C8.67726 16.4069 9.23986 16.8712 9.59812 17.4818C9.95639 18.0924 10.0873 18.81 9.96758 19.5078C9.8479 20.2056 9.4854 20.8386 8.94414 21.2949C8.40288 21.7512 7.71772 22.0015 7.00976 22.0015C6.30181 22.0015 5.61665 21.7512 5.07539 21.2949C4.53413 20.8386 4.17163 20.2056 4.05195 19.5078C3.93228 18.81 4.06314 18.0924 4.4214 17.4818C4.77967 16.8712 5.34227 16.4069 6.00976 16.171V7.82902C5.34227 7.59312 4.77967 7.12883 4.4214 6.51822C4.06314 5.90761 3.93228 5.19 4.05195 4.49223C4.17163 3.79447 4.53413 3.16148 5.07539 2.70515C5.61665 2.24882 6.30181 1.99854 7.00976 1.99854C7.71772 1.99854 8.40288 2.24882 8.94414 2.70515C9.4854 3.16148 9.8479 3.79447 9.96758 4.49223C10.0873 5.19 9.95639 5.90761 9.59812 6.51822C9.23986 7.12883 8.67726 7.59312 8.00976 7.82902V10.169C8.32176 10.059 8.65676 9.99902 9.00676 9.99802L15.0438 9.99202C15.3088 9.99176 15.5629 9.88628 15.7502 9.69878C15.9375 9.51127 16.0428 9.25707 16.0428 8.99202V7.84002C15.3711 7.60992 14.8028 7.14915 14.4388 6.5396C14.0748 5.93006 13.9388 5.2112 14.0547 4.51078C14.1707 3.81036 14.5312 3.17374 15.0723 2.71405C15.6133 2.25435 16.2998 2.00136 17.0098 2.00002C17.7147 1.99973 18.3971 2.24766 18.9375 2.70031C19.4778 3.15297 19.8416 3.78144 19.9648 4.47548C20.088 5.16952 19.963 5.88479 19.6115 6.49582C19.2601 7.10684 18.7047 7.5746 18.0428 7.81702V8.99202C18.0428 9.78715 17.7271 10.5498 17.1651 11.1123C16.6032 11.6748 15.8409 11.9912 15.0458 11.992L9.00876 11.998C8.74372 11.9983 8.48962 12.1038 8.3023 12.2913C8.11498 12.4788 8.00976 12.733 8.00976 12.998ZM7.00976 6.00002C7.27498 6.00002 7.52934 5.89467 7.71687 5.70713C7.90441 5.51959 8.00976 5.26524 8.00976 5.00002C8.00976 4.73481 7.90441 4.48045 7.71687 4.29292C7.52934 4.10538 7.27498 4.00002 7.00976 4.00002C6.74455 4.00002 6.49019 4.10538 6.30266 4.29292C6.11512 4.48045 6.00976 4.73481 6.00976 5.00002C6.00976 5.26524 6.11512 5.51959 6.30266 5.70713C6.49019 5.89467 6.74455 6.00002 7.00976 6.00002ZM17.0098 6.00002C17.275 6.00002 17.5293 5.89467 17.7169 5.70713C17.9044 5.51959 18.0098 5.26524 18.0098 5.00002C18.0098 4.73481 17.9044 4.48045 17.7169 4.29292C17.5293 4.10538 17.275 4.00002 17.0098 4.00002C16.7445 4.00002 16.4902 4.10538 16.3027 4.29292C16.1151 4.48045 16.0098 4.73481 16.0098 5.00002C16.0098 5.26524 16.1151 5.51959 16.3027 5.70713C16.4902 5.89467 16.7445 6.00002 17.0098 6.00002Z" fill="#21272A"/>
</svg>
