<svg width="24" height="24" viewBox="0 0 24 24" fill="none" xmlns="http://www.w3.org/2000/svg">
<path d="M12.0098 14C12.5402 14 13.0489 13.7893 13.424 13.4142C13.7991 13.0391 14.0098 12.5304 14.0098 12C14.0098 11.4696 13.7991 10.9609 13.424 10.5858C13.0489 10.2107 12.5402 10 12.0098 10C11.4793 10 10.9706 10.2107 10.5956 10.5858C10.2205 10.9609 10.0098 11.4696 10.0098 12C10.0098 12.5304 10.2205 13.0391 10.5956 13.4142C10.9706 13.7893 11.4793 14 12.0098 14ZM12.0098 16C10.9489 16 9.93148 15.5786 9.18134 14.8284C8.43119 14.0783 8.00977 13.0609 8.00977 12C8.00977 10.9391 8.43119 9.92172 9.18134 9.17157C9.93148 8.42143 10.9489 8 12.0098 8C13.0706 8 14.088 8.42143 14.8382 9.17157C15.5883 9.92172 16.0098 10.9391 16.0098 12C16.0098 13.0609 15.5883 14.0783 14.8382 14.8284C14.088 15.5786 13.0706 16 12.0098 16ZM18.0098 11H19.0098C19.275 11 19.5293 11.1054 19.7169 11.2929C19.9044 11.4804 20.0098 11.7348 20.0098 12C20.0098 12.2652 19.9044 12.5196 19.7169 12.7071C19.5293 12.8946 19.275 13 19.0098 13H18.0098C17.7445 13 17.4902 12.8946 17.3027 12.7071C17.1151 12.5196 17.0098 12.2652 17.0098 12C17.0098 11.7348 17.1151 11.4804 17.3027 11.2929C17.4902 11.1054 17.7445 11 18.0098 11ZM12.0098 17C12.275 17 12.5293 17.1054 12.7169 17.2929C12.9044 17.4804 13.0098 17.7348 13.0098 18V19C13.0098 19.2652 12.9044 19.5196 12.7169 19.7071C12.5293 19.8946 12.275 20 12.0098 20C11.7445 20 11.4902 19.8946 11.3027 19.7071C11.1151 19.5196 11.0098 19.2652 11.0098 19V18C11.0098 17.7348 11.1151 17.4804 11.3027 17.2929C11.4902 17.1054 11.7445 17 12.0098 17ZM12.0098 4C12.275 4 12.5293 4.10536 12.7169 4.29289C12.9044 4.48043 13.0098 4.73478 13.0098 5V6C13.0098 6.26522 12.9044 6.51957 12.7169 6.70711C12.5293 6.89464 12.275 7 12.0098 7C11.7445 7 11.4902 6.89464 11.3027 6.70711C11.1151 6.51957 11.0098 6.26522 11.0098 6V5C11.0098 4.73478 11.1151 4.48043 11.3027 4.29289C11.4902 4.10536 11.7445 4 12.0098 4V4ZM5.00977 11H6.00977C6.27498 11 6.52934 11.1054 6.71687 11.2929C6.90441 11.4804 7.00977 11.7348 7.00977 12C7.00977 12.2652 6.90441 12.5196 6.71687 12.7071C6.52934 12.8946 6.27498 13 6.00977 13H5.00977C4.74455 13 4.4902 12.8946 4.30266 12.7071C4.11512 12.5196 4.00977 12.2652 4.00977 12C4.00977 11.7348 4.11512 11.4804 4.30266 11.2929C4.4902 11.1054 4.74455 11 5.00977 11ZM16.9598 15.536L17.6668 16.243C17.7623 16.3352 17.8385 16.4456 17.8909 16.5676C17.9433 16.6896 17.9709 16.8208 17.972 16.9536C17.9732 17.0864 17.9479 17.2181 17.8976 17.341C17.8473 17.4639 17.7731 17.5755 17.6792 17.6694C17.5853 17.7633 17.4736 17.8375 17.3507 17.8878C17.2278 17.9381 17.0961 17.9634 16.9634 17.9623C16.8306 17.9611 16.6994 17.9335 16.5774 17.8811C16.4554 17.8287 16.345 17.7525 16.2528 17.657L15.5458 16.95C15.3636 16.7614 15.2628 16.5088 15.2651 16.2466C15.2674 15.9844 15.3725 15.7336 15.5579 15.5482C15.7434 15.3628 15.9942 15.2576 16.2564 15.2553C16.5186 15.253 16.7712 15.3538 16.9598 15.536ZM8.47377 15.536C8.66124 15.7235 8.76655 15.9778 8.76655 16.243C8.76655 16.5082 8.66124 16.7625 8.47377 16.95L7.76677 17.657C7.57816 17.8392 7.32556 17.94 7.06336 17.9377C6.80117 17.9354 6.55036 17.8302 6.36495 17.6448C6.17954 17.4594 6.07437 17.2086 6.07209 16.9464C6.06981 16.6842 6.17061 16.4316 6.35277 16.243L7.05977 15.536C7.24729 15.3485 7.5016 15.2432 7.76677 15.2432C8.03193 15.2432 8.28624 15.3485 8.47377 15.536ZM17.6668 6.343C17.8542 6.53053 17.9596 6.78484 17.9596 7.05C17.9596 7.31516 17.8542 7.56947 17.6668 7.757L16.9598 8.464C16.7712 8.64616 16.5186 8.74695 16.2564 8.74467C15.9942 8.7424 15.7434 8.63723 15.5579 8.45182C15.3725 8.26641 15.2674 8.0156 15.2651 7.7534C15.2628 7.4912 15.3636 7.2386 15.5458 7.05L16.2528 6.343C16.4403 6.15553 16.6946 6.05021 16.9598 6.05021C17.2249 6.05021 17.4792 6.15553 17.6668 6.343ZM7.76677 6.343L8.47377 7.05C8.56928 7.14225 8.64546 7.25259 8.69787 7.3746C8.75028 7.4966 8.77786 7.62782 8.77902 7.7606C8.78017 7.89338 8.75487 8.02506 8.70459 8.14795C8.65431 8.27085 8.58005 8.3825 8.48616 8.4764C8.39227 8.57029 8.28062 8.64454 8.15772 8.69482C8.03482 8.7451 7.90314 8.7704 7.77036 8.76925C7.63759 8.7681 7.50637 8.74051 7.38436 8.6881C7.26236 8.63569 7.15201 8.55951 7.05977 8.464L6.35277 7.757C6.17061 7.5684 6.06981 7.3158 6.07209 7.0536C6.07437 6.7914 6.17954 6.54059 6.36495 6.35518C6.55036 6.16977 6.80117 6.0646 7.06336 6.06233C7.32556 6.06005 7.57816 6.16084 7.76677 6.343Z" fill="#21272A"/>
</svg>
