<svg width="24" height="24" viewBox="0 0 24 24" fill="none" xmlns="http://www.w3.org/2000/svg">
<path d="M12.0098 14C12.5402 14 13.0489 13.7893 13.424 13.4142C13.7991 13.0391 14.0098 12.5304 14.0098 12C14.0098 11.4696 13.7991 10.9609 13.424 10.5858C13.0489 10.2107 12.5402 10 12.0098 10C11.4793 10 10.9706 10.2107 10.5956 10.5858C10.2205 10.9609 10.0098 11.4696 10.0098 12C10.0098 12.5304 10.2205 13.0391 10.5956 13.4142C10.9706 13.7893 11.4793 14 12.0098 14ZM12.0098 16C10.9489 16 9.93148 15.5786 9.18134 14.8284C8.43119 14.0783 8.00977 13.0609 8.00977 12C8.00977 10.9391 8.43119 9.92172 9.18134 9.17157C9.93148 8.42143 10.9489 8 12.0098 8C13.0706 8 14.088 8.42143 14.8382 9.17157C15.5883 9.92172 16.0098 10.9391 16.0098 12C16.0098 13.0609 15.5883 14.0783 14.8382 14.8284C14.088 15.5786 13.0706 16 12.0098 16ZM18.0098 11H21.0098C21.275 11 21.5293 11.1054 21.7169 11.2929C21.9044 11.4804 22.0098 11.7348 22.0098 12C22.0098 12.2652 21.9044 12.5196 21.7169 12.7071C21.5293 12.8946 21.275 13 21.0098 13H18.0098C17.7445 13 17.4902 12.8946 17.3027 12.7071C17.1151 12.5196 17.0098 12.2652 17.0098 12C17.0098 11.7348 17.1151 11.4804 17.3027 11.2929C17.4902 11.1054 17.7445 11 18.0098 11ZM12.0098 17C12.275 17 12.5293 17.1054 12.7169 17.2929C12.9044 17.4804 13.0098 17.7348 13.0098 18V21C13.0098 21.2652 12.9044 21.5196 12.7169 21.7071C12.5293 21.8946 12.275 22 12.0098 22C11.7445 22 11.4902 21.8946 11.3027 21.7071C11.1151 21.5196 11.0098 21.2652 11.0098 21V18C11.0098 17.7348 11.1151 17.4804 11.3027 17.2929C11.4902 17.1054 11.7445 17 12.0098 17ZM12.0098 2C12.275 2 12.5293 2.10536 12.7169 2.29289C12.9044 2.48043 13.0098 2.73478 13.0098 3V6C13.0098 6.26522 12.9044 6.51957 12.7169 6.70711C12.5293 6.89464 12.275 7 12.0098 7C11.7445 7 11.4902 6.89464 11.3027 6.70711C11.1151 6.51957 11.0098 6.26522 11.0098 6V3C11.0098 2.73478 11.1151 2.48043 11.3027 2.29289C11.4902 2.10536 11.7445 2 12.0098 2V2ZM3.00977 11H6.00977C6.27498 11 6.52934 11.1054 6.71687 11.2929C6.90441 11.4804 7.00977 11.7348 7.00977 12C7.00977 12.2652 6.90441 12.5196 6.71687 12.7071C6.52934 12.8946 6.27498 13 6.00977 13H3.00977C2.74455 13 2.4902 12.8946 2.30266 12.7071C2.11512 12.5196 2.00977 12.2652 2.00977 12C2.00977 11.7348 2.11512 11.4804 2.30266 11.2929C2.4902 11.1054 2.74455 11 3.00977 11ZM16.9598 15.536L19.0808 17.656C19.2684 17.8435 19.3739 18.0979 19.374 18.3631C19.3741 18.6284 19.2688 18.8829 19.0813 19.0705C18.8938 19.2581 18.6394 19.3636 18.3741 19.3637C18.1088 19.3638 17.8544 19.2585 17.6668 19.071L15.5458 16.95C15.3636 16.7614 15.2628 16.5088 15.2651 16.2466C15.2674 15.9844 15.3725 15.7336 15.5579 15.5482C15.7434 15.3628 15.9942 15.2576 16.2564 15.2553C16.5186 15.253 16.7712 15.3538 16.9598 15.536ZM8.47377 15.536C8.66124 15.7235 8.76655 15.9778 8.76655 16.243C8.76655 16.5082 8.66124 16.7625 8.47377 16.95L6.35377 19.071C6.16626 19.2586 5.91189 19.3641 5.64662 19.3642C5.38135 19.3643 5.12691 19.259 4.93927 19.0715C4.75163 18.884 4.64616 18.6296 4.64606 18.3644C4.64597 18.0991 4.75126 17.8446 4.93877 17.657L7.05977 15.536C7.24729 15.3485 7.5016 15.2432 7.76677 15.2432C8.03193 15.2432 8.28624 15.3485 8.47377 15.536ZM19.0808 4.929C19.2682 5.11653 19.3736 5.37084 19.3736 5.636C19.3736 5.90116 19.2682 6.15547 19.0808 6.343L16.9598 8.464C16.7712 8.64616 16.5186 8.74695 16.2564 8.74467C15.9942 8.7424 15.7434 8.63723 15.5579 8.45182C15.3725 8.26641 15.2674 8.0156 15.2651 7.7534C15.2628 7.4912 15.3636 7.2386 15.5458 7.05L17.6658 4.929C17.7586 4.83602 17.8689 4.76226 17.9903 4.71194C18.1117 4.66162 18.2418 4.63571 18.3733 4.63571C18.5047 4.63571 18.6348 4.66162 18.7562 4.71194C18.8776 4.76226 18.9879 4.83602 19.0808 4.929ZM6.35277 4.929L8.47377 7.05C8.56928 7.14225 8.64546 7.25259 8.69787 7.3746C8.75028 7.4966 8.77786 7.62782 8.77902 7.7606C8.78017 7.89338 8.75487 8.02506 8.70459 8.14795C8.65431 8.27085 8.58005 8.3825 8.48616 8.4764C8.39227 8.57029 8.28062 8.64454 8.15772 8.69482C8.03482 8.7451 7.90314 8.7704 7.77036 8.76925C7.63759 8.7681 7.50637 8.74051 7.38436 8.6881C7.26236 8.63569 7.15201 8.55951 7.05977 8.464L4.93977 6.344C4.75213 6.15649 4.64666 5.90212 4.64656 5.63685C4.64647 5.37158 4.75176 5.11714 4.93927 4.9295C5.12677 4.74186 5.38114 4.63639 5.64641 4.6363C5.91168 4.6362 6.16612 4.74149 6.35377 4.929H6.35277Z" fill="#21272A"/>
</svg>
