<svg width="24" height="24" viewBox="0 0 24 24" fill="none" xmlns="http://www.w3.org/2000/svg">
<path d="M4.00977 8V18H20.0098V8H4.00977ZM5.00977 7C5.27498 7 5.52934 6.89464 5.71687 6.70711C5.90441 6.51957 6.00977 6.26522 6.00977 6C6.00977 5.73478 5.90441 5.48043 5.71687 5.29289C5.52934 5.10536 5.27498 5 5.00977 5C4.74455 5 4.4902 5.10536 4.30266 5.29289C4.11512 5.48043 4.00977 5.73478 4.00977 6C4.00977 6.26522 4.11512 6.51957 4.30266 6.70711C4.4902 6.89464 4.74455 7 5.00977 7ZM8.00977 7C8.27498 7 8.52934 6.89464 8.71687 6.70711C8.90441 6.51957 9.00977 6.26522 9.00977 6C9.00977 5.73478 8.90441 5.48043 8.71687 5.29289C8.52934 5.10536 8.27498 5 8.00977 5C7.74455 5 7.4902 5.10536 7.30266 5.29289C7.11512 5.48043 7.00977 5.73478 7.00977 6C7.00977 6.26522 7.11512 6.51957 7.30266 6.70711C7.4902 6.89464 7.74455 7 8.00977 7ZM4.00977 4H20.0098C20.5402 4 21.0489 4.21071 21.424 4.58579C21.7991 4.96086 22.0098 5.46957 22.0098 6V18C22.0098 18.5304 21.7991 19.0391 21.424 19.4142C21.0489 19.7893 20.5402 20 20.0098 20H4.00977C3.47933 20 2.97062 19.7893 2.59555 19.4142C2.22048 19.0391 2.00977 18.5304 2.00977 18V6C2.00977 5.46957 2.22048 4.96086 2.59555 4.58579C2.97062 4.21071 3.47933 4 4.00977 4V4Z" fill="#21272A"/>
</svg>
