<svg width="24" height="24" viewBox="0 0 24 24" fill="none" xmlns="http://www.w3.org/2000/svg">
<path d="M8.81599 14.556C7.80799 15.02 7.12599 15.559 6.73199 16.154C6.34856 16.7318 5.97682 17.3172 5.61699 17.91C6.74099 18.154 7.58599 18.037 8.19499 17.629C9.04699 17.059 9.60299 16.408 9.91199 15.652L8.81599 14.556ZM10.211 13.123L11.231 14.143C11.973 13.761 12.72 13.156 13.465 12.311C14.604 11.021 16.526 8.723 19.222 5.431C19.2542 5.39039 19.2704 5.33933 19.2674 5.28758C19.2644 5.23582 19.2424 5.18698 19.2057 5.15038C19.1689 5.11378 19.12 5.09199 19.0683 5.08915C19.0165 5.08631 18.9655 5.10263 18.925 5.135C15.639 7.828 13.342 9.75 12.044 10.893C11.195 11.639 10.59 12.384 10.211 13.123ZM9.30799 19.291C7.69299 20.372 5.48199 20.273 2.67799 18.993C3.42119 17.647 4.21748 16.3309 5.06499 15.048C5.71999 14.061 6.77699 13.254 8.23499 12.626C8.71999 11.5 9.54999 10.423 10.722 9.39C12.042 8.228 14.354 6.294 17.658 3.587C18.082 3.23755 18.6209 3.05857 19.1697 3.08495C19.7185 3.11133 20.2378 3.34119 20.6263 3.72969C21.0148 4.1182 21.2447 4.63749 21.271 5.18628C21.2974 5.73508 21.1184 6.27402 20.769 6.698C18.059 10.008 16.124 12.319 14.965 13.633C13.987 14.741 12.965 15.544 11.898 16.041C11.468 17.339 10.605 18.421 9.30799 19.29V19.291Z" fill="#21272A"/>
</svg>
