<svg width="24" height="24" viewBox="0 0 24 24" fill="none" xmlns="http://www.w3.org/2000/svg">
<path d="M9 11C8.73478 11 8.48043 11.1054 8.29289 11.2929C8.10536 11.4804 8 11.7348 8 12V16C8 17.0609 8.42143 18.0783 9.17157 18.8284C9.92172 19.5786 10.9391 20 12 20C13.0609 20 14.0783 19.5786 14.8284 18.8284C15.5786 18.0783 16 17.0609 16 16V12C16 11.7348 15.8946 11.4804 15.7071 11.2929C15.5196 11.1054 15.2652 11 15 11H9ZM17.236 10H18.883V7C18.883 6.73479 18.9884 6.48043 19.1759 6.2929C19.3634 6.10536 19.6178 6 19.883 6C20.1482 6 20.4026 6.10536 20.5901 6.2929C20.7776 6.48043 20.883 6.73479 20.883 7V10C20.883 10.5304 20.6723 11.0391 20.2972 11.4142C19.9221 11.7893 19.4134 12 18.883 12H18V13H21C21.2652 13 21.5196 13.1054 21.7071 13.2929C21.8946 13.4804 22 13.7348 22 14C22 14.2652 21.8946 14.5196 21.7071 14.7071C21.5196 14.8946 21.2652 15 21 15H18V16H18.883C19.4134 16 19.9221 16.2107 20.2972 16.5858C20.6723 16.9609 20.883 17.4696 20.883 18V21C20.883 21.2652 20.7776 21.5196 20.5901 21.7071C20.4026 21.8946 20.1482 22 19.883 22C19.6178 22 19.3634 21.8946 19.1759 21.7071C18.9884 21.5196 18.883 21.2652 18.883 21V18H17.659C17.2456 19.1707 16.4793 20.1844 15.4657 20.9014C14.4521 21.6185 13.2411 22.0035 11.9995 22.0035C10.7579 22.0035 9.54691 21.6185 8.53331 20.9014C7.51971 20.1844 6.75341 19.1707 6.34 18H5V21C5 21.2652 4.89464 21.5196 4.70711 21.7071C4.51957 21.8946 4.26522 22 4 22C3.73478 22 3.48043 21.8946 3.29289 21.7071C3.10536 21.5196 3 21.2652 3 21V18C3 17.4696 3.21071 16.9609 3.58579 16.5858C3.96086 16.2107 4.46957 16 5 16H6V15H3C2.73478 15 2.48043 14.8946 2.29289 14.7071C2.10536 14.5196 2 14.2652 2 14C2 13.7348 2.10536 13.4804 2.29289 13.2929C2.48043 13.1054 2.73478 13 3 13H6V12H5C4.46957 12 3.96086 11.7893 3.58579 11.4142C3.21071 11.0391 3 10.5304 3 10V7C3 6.73479 3.10536 6.48043 3.29289 6.2929C3.48043 6.10536 3.73478 6 4 6C4.26522 6 4.51957 6.10536 4.70711 6.2929C4.89464 6.48043 5 6.73479 5 7V10H6.764C7.09971 9.62387 7.5248 9.33842 8 9.17V7C8 6.46957 8.21071 5.96086 8.58579 5.58579C8.96086 5.21072 9.46957 5 10 5H10.737C10.394 4.402 9.749 4 9.011 4H7C6.73478 4 6.48043 3.89465 6.29289 3.70711C6.10536 3.51957 6 3.26522 6 3C6 2.73479 6.10536 2.48043 6.29289 2.2929C6.48043 2.10536 6.73478 2 7 2H9.01C9.57555 1.99936 10.1347 2.11925 10.6503 2.35169C11.1659 2.58413 11.626 2.92378 12 3.348C12.374 2.92378 12.8341 2.58413 13.3497 2.35169C13.8653 2.11925 14.4245 1.99936 14.99 2H17C17.2652 2 17.5196 2.10536 17.7071 2.2929C17.8946 2.48043 18 2.73479 18 3C18 3.26522 17.8946 3.51957 17.7071 3.70711C17.5196 3.89465 17.2652 4 17 4H14.99C14.25 4 13.606 4.402 13.263 5H14C14.5304 5 15.0391 5.21072 15.4142 5.58579C15.7893 5.96086 16 6.46957 16 7V9.17C16.4752 9.33842 16.9003 9.62387 17.236 10ZM10 9H14V7H10V9Z" fill="#21272A"/>
</svg>
