<svg width="24" height="24" viewBox="0 0 24 24" fill="none" xmlns="http://www.w3.org/2000/svg">
<path d="M8.5 2H15.5C16.2956 2 17.0587 2.31607 17.6213 2.87868C18.1839 3.44129 18.5 4.20435 18.5 5V22H5.5V5C5.5 4.20435 5.81607 3.44129 6.37868 2.87868C6.94129 2.31607 7.70435 2 8.5 2V2ZM7.5 20H16.5V5C16.5 4.73478 16.3946 4.48043 16.2071 4.29289C16.0196 4.10536 15.7652 4 15.5 4H8.5C8.23478 4 7.98043 4.10536 7.79289 4.29289C7.60536 4.48043 7.5 4.73478 7.5 5V20ZM9.5 6H10.5C10.7652 6 11.0196 6.10536 11.2071 6.29289C11.3946 6.48043 11.5 6.73478 11.5 7C11.5 7.26522 11.3946 7.51957 11.2071 7.70711C11.0196 7.89464 10.7652 8 10.5 8H9.5C9.23478 8 8.98043 7.89464 8.79289 7.70711C8.60536 7.51957 8.5 7.26522 8.5 7C8.5 6.73478 8.60536 6.48043 8.79289 6.29289C8.98043 6.10536 9.23478 6 9.5 6ZM9.5 9H10.5C10.7652 9 11.0196 9.10536 11.2071 9.29289C11.3946 9.48043 11.5 9.73478 11.5 10C11.5 10.2652 11.3946 10.5196 11.2071 10.7071C11.0196 10.8946 10.7652 11 10.5 11H9.5C9.23478 11 8.98043 10.8946 8.79289 10.7071C8.60536 10.5196 8.5 10.2652 8.5 10C8.5 9.73478 8.60536 9.48043 8.79289 9.29289C8.98043 9.10536 9.23478 9 9.5 9ZM9.5 12H10.5C10.7652 12 11.0196 12.1054 11.2071 12.2929C11.3946 12.4804 11.5 12.7348 11.5 13C11.5 13.2652 11.3946 13.5196 11.2071 13.7071C11.0196 13.8946 10.7652 14 10.5 14H9.5C9.23478 14 8.98043 13.8946 8.79289 13.7071C8.60536 13.5196 8.5 13.2652 8.5 13C8.5 12.7348 8.60536 12.4804 8.79289 12.2929C8.98043 12.1054 9.23478 12 9.5 12ZM9.5 15H10.5C10.7652 15 11.0196 15.1054 11.2071 15.2929C11.3946 15.4804 11.5 15.7348 11.5 16C11.5 16.2652 11.3946 16.5196 11.2071 16.7071C11.0196 16.8946 10.7652 17 10.5 17H9.5C9.23478 17 8.98043 16.8946 8.79289 16.7071C8.60536 16.5196 8.5 16.2652 8.5 16C8.5 15.7348 8.60536 15.4804 8.79289 15.2929C8.98043 15.1054 9.23478 15 9.5 15ZM13.5 6H14.5C14.7652 6 15.0196 6.10536 15.2071 6.29289C15.3946 6.48043 15.5 6.73478 15.5 7C15.5 7.26522 15.3946 7.51957 15.2071 7.70711C15.0196 7.89464 14.7652 8 14.5 8H13.5C13.2348 8 12.9804 7.89464 12.7929 7.70711C12.6054 7.51957 12.5 7.26522 12.5 7C12.5 6.73478 12.6054 6.48043 12.7929 6.29289C12.9804 6.10536 13.2348 6 13.5 6ZM13.5 9H14.5C14.7652 9 15.0196 9.10536 15.2071 9.29289C15.3946 9.48043 15.5 9.73478 15.5 10C15.5 10.2652 15.3946 10.5196 15.2071 10.7071C15.0196 10.8946 14.7652 11 14.5 11H13.5C13.2348 11 12.9804 10.8946 12.7929 10.7071C12.6054 10.5196 12.5 10.2652 12.5 10C12.5 9.73478 12.6054 9.48043 12.7929 9.29289C12.9804 9.10536 13.2348 9 13.5 9ZM13.5 12H14.5C14.7652 12 15.0196 12.1054 15.2071 12.2929C15.3946 12.4804 15.5 12.7348 15.5 13C15.5 13.2652 15.3946 13.5196 15.2071 13.7071C15.0196 13.8946 14.7652 14 14.5 14H13.5C13.2348 14 12.9804 13.8946 12.7929 13.7071C12.6054 13.5196 12.5 13.2652 12.5 13C12.5 12.7348 12.6054 12.4804 12.7929 12.2929C12.9804 12.1054 13.2348 12 13.5 12ZM13.5 15H14.5C14.7652 15 15.0196 15.1054 15.2071 15.2929C15.3946 15.4804 15.5 15.7348 15.5 16C15.5 16.2652 15.3946 16.5196 15.2071 16.7071C15.0196 16.8946 14.7652 17 14.5 17H13.5C13.2348 17 12.9804 16.8946 12.7929 16.7071C12.6054 16.5196 12.5 16.2652 12.5 16C12.5 15.7348 12.6054 15.4804 12.7929 15.2929C12.9804 15.1054 13.2348 15 13.5 15ZM10.5 18H13.5C13.7652 18 14.0196 18.1054 14.2071 18.2929C14.3946 18.4804 14.5 18.7348 14.5 19V20H9.5V19C9.5 18.7348 9.60536 18.4804 9.79289 18.2929C9.98043 18.1054 10.2348 18 10.5 18Z" fill="#21272A"/>
</svg>
