<svg width="24" height="24" viewBox="0 0 24 24" fill="none" xmlns="http://www.w3.org/2000/svg">
<path d="M15.0098 19H9.00977V21C9.00977 21.2652 8.90441 21.5196 8.71687 21.7071C8.52934 21.8946 8.27498 22 8.00977 22H7.00977C6.74455 22 6.4902 21.8946 6.30266 21.7071C6.11512 21.5196 6.00977 21.2652 6.00977 21V18.465C5.40142 18.114 4.89627 17.6089 4.54517 17.0007C4.19407 16.3924 4.00941 15.7023 4.00977 15V6C4.00977 4.93913 4.43119 3.92172 5.18134 3.17157C5.93148 2.42143 6.9489 2 8.00977 2H16.0098C17.0706 2 18.088 2.42143 18.8382 3.17157C19.5883 3.92172 20.0098 4.93913 20.0098 6V15C20.0098 16.48 19.2058 17.773 18.0098 18.465V21C18.0098 21.2652 17.9044 21.5196 17.7169 21.7071C17.5293 21.8946 17.275 22 17.0098 22H16.0098C15.7445 22 15.4902 21.8946 15.3027 21.7071C15.1151 21.5196 15.0098 21.2652 15.0098 21V19ZM18.0098 11V6C18.0098 5.46957 17.7991 4.96086 17.424 4.58579C17.0489 4.21071 16.5402 4 16.0098 4H8.00977C7.47933 4 6.97063 4.21071 6.59555 4.58579C6.22048 4.96086 6.00977 5.46957 6.00977 6V11H18.0098ZM18.0098 13H6.00977V15C6.00977 15.5304 6.22048 16.0391 6.59555 16.4142C6.97063 16.7893 7.47933 17 8.00977 17H16.0098C16.5402 17 17.0489 16.7893 17.424 16.4142C17.7991 16.0391 18.0098 15.5304 18.0098 15V13ZM8.00977 5C8.27498 5 8.52934 5.10536 8.71687 5.29289C8.90441 5.48043 9.00977 5.73478 9.00977 6V9C9.00977 9.26522 8.90441 9.51957 8.71687 9.70711C8.52934 9.89464 8.27498 10 8.00977 10C7.74455 10 7.4902 9.89464 7.30266 9.70711C7.11512 9.51957 7.00977 9.26522 7.00977 9V6C7.00977 5.73478 7.11512 5.48043 7.30266 5.29289C7.4902 5.10536 7.74455 5 8.00977 5ZM8.00977 16C7.74455 16 7.4902 15.8946 7.30266 15.7071C7.11512 15.5196 7.00977 15.2652 7.00977 15C7.00977 14.7348 7.11512 14.4804 7.30266 14.2929C7.4902 14.1054 7.74455 14 8.00977 14C8.27498 14 8.52934 14.1054 8.71687 14.2929C8.90441 14.4804 9.00977 14.7348 9.00977 15C9.00977 15.2652 8.90441 15.5196 8.71687 15.7071C8.52934 15.8946 8.27498 16 8.00977 16ZM16.0098 16C15.7445 16 15.4902 15.8946 15.3027 15.7071C15.1151 15.5196 15.0098 15.2652 15.0098 15C15.0098 14.7348 15.1151 14.4804 15.3027 14.2929C15.4902 14.1054 15.7445 14 16.0098 14C16.275 14 16.5293 14.1054 16.7169 14.2929C16.9044 14.4804 17.0098 14.7348 17.0098 15C17.0098 15.2652 16.9044 15.5196 16.7169 15.7071C16.5293 15.8946 16.275 16 16.0098 16Z" fill="#21272A"/>
</svg>
