<svg width="24" height="24" viewBox="0 0 24 24" fill="none" xmlns="http://www.w3.org/2000/svg">
<path d="M22.0098 8.50003V16H16.0098V22H8.00977V18H2.00977V10.5C2.00977 9.83699 2.27316 9.20111 2.742 8.73227C3.21084 8.26343 3.84672 8.00003 4.50977 8.00003C5.17281 8.00003 5.80869 8.26343 6.27753 8.73227C6.74637 9.20111 7.00977 9.83699 7.00977 10.5V13H8.00977V6.00003C8.00862 4.96561 8.40826 3.97096 9.12479 3.22488C9.84132 2.47881 10.819 2.03933 11.8526 1.9987C12.8863 1.95806 13.8955 2.31944 14.6683 3.00697C15.4412 3.6945 15.9177 4.65471 15.9978 5.68603V11H17.0098V8.50003C17.0098 7.83699 17.2732 7.20111 17.742 6.73227C18.2108 6.26343 18.8467 6.00003 19.5098 6.00003C20.1728 6.00003 20.8087 6.26343 21.2775 6.73227C21.7464 7.20111 22.0098 7.83699 22.0098 8.50003ZM10.0098 20H14.0098V14H20.0098V8.50003C20.0098 8.36743 19.9571 8.24025 19.8633 8.14648C19.7696 8.05271 19.6424 8.00003 19.5098 8.00003C19.3772 8.00003 19.25 8.05271 19.1562 8.14648C19.0624 8.24025 19.0098 8.36743 19.0098 8.50003V13H14.0098V6.00003C14.0098 5.4696 13.7991 4.96089 13.424 4.58582C13.0489 4.21075 12.5402 4.00003 12.0098 4.00003C11.4793 4.00003 10.9706 4.21075 10.5956 4.58582C10.2205 4.96089 10.0098 5.4696 10.0098 6.00003V15H5.00977V10.5C5.00977 10.3674 4.95709 10.2402 4.86332 10.1465C4.76955 10.0527 4.64237 10 4.50977 10C4.37716 10 4.24998 10.0527 4.15621 10.1465C4.06244 10.2402 4.00977 10.3674 4.00977 10.5V16H10.0098V20ZM12.0098 11C12.275 11 12.5293 11.1054 12.7169 11.2929C12.9044 11.4805 13.0098 11.7348 13.0098 12V18C13.0098 18.2653 12.9044 18.5196 12.7169 18.7071C12.5293 18.8947 12.275 19 12.0098 19C11.7445 19 11.4902 18.8947 11.3027 18.7071C11.1151 18.5196 11.0098 18.2653 11.0098 18V12C11.0098 11.7348 11.1151 11.4805 11.3027 11.2929C11.4902 11.1054 11.7445 11 12.0098 11ZM12.0098 6.00003C12.275 6.00003 12.5293 6.10539 12.7169 6.29293C12.9044 6.48046 13.0098 6.73482 13.0098 7.00003V9.00003C13.0098 9.26525 12.9044 9.5196 12.7169 9.70714C12.5293 9.89468 12.275 10 12.0098 10C11.7445 10 11.4902 9.89468 11.3027 9.70714C11.1151 9.5196 11.0098 9.26525 11.0098 9.00003V7.00003C11.0098 6.73482 11.1151 6.48046 11.3027 6.29293C11.4902 6.10539 11.7445 6.00003 12.0098 6.00003Z" fill="#21272A"/>
</svg>
