<svg width="24" height="24" viewBox="0 0 24 24" fill="none" xmlns="http://www.w3.org/2000/svg">
<path d="M8.50977 2H15.5098C16.5706 2 17.588 2.42143 18.3382 3.17157C19.0883 3.92172 19.5098 4.93913 19.5098 6V18C19.5098 19.0609 19.0883 20.0783 18.3382 20.8284C17.588 21.5786 16.5706 22 15.5098 22H8.50977C7.4489 22 6.43148 21.5786 5.68134 20.8284C4.93119 20.0783 4.50977 19.0609 4.50977 18V6C4.50977 4.93913 4.93119 3.92172 5.68134 3.17157C6.43148 2.42143 7.4489 2 8.50977 2V2ZM8.50977 4C7.97933 4 7.47062 4.21071 7.09555 4.58579C6.72048 4.96086 6.50977 5.46957 6.50977 6V18C6.50977 18.5304 6.72048 19.0391 7.09555 19.4142C7.47062 19.7893 7.97933 20 8.50977 20H15.5098C16.0402 20 16.5489 19.7893 16.924 19.4142C17.2991 19.0391 17.5098 18.5304 17.5098 18V6C17.5098 5.46957 17.2991 4.96086 16.924 4.58579C16.5489 4.21071 16.0402 4 15.5098 4H8.50977ZM9.50977 6H14.5098C14.775 6 15.0293 6.10536 15.2169 6.29289C15.4044 6.48043 15.5098 6.73478 15.5098 7V9C15.5098 9.26522 15.4044 9.51957 15.2169 9.70711C15.0293 9.89464 14.775 10 14.5098 10H9.50977C9.24455 10 8.9902 9.89464 8.80266 9.70711C8.61512 9.51957 8.50977 9.26522 8.50977 9V7C8.50977 6.73478 8.61512 6.48043 8.80266 6.29289C8.9902 6.10536 9.24455 6 9.50977 6ZM9.50977 11H10.5098C10.775 11 11.0293 11.1054 11.2169 11.2929C11.4044 11.4804 11.5098 11.7348 11.5098 12V13C11.5098 13.2652 11.4044 13.5196 11.2169 13.7071C11.0293 13.8946 10.775 14 10.5098 14H9.50977C9.24455 14 8.9902 13.8946 8.80266 13.7071C8.61512 13.5196 8.50977 13.2652 8.50977 13V12C8.50977 11.7348 8.61512 11.4804 8.80266 11.2929C8.9902 11.1054 9.24455 11 9.50977 11ZM13.5098 11H14.5098C14.775 11 15.0293 11.1054 15.2169 11.2929C15.4044 11.4804 15.5098 11.7348 15.5098 12V13C15.5098 13.2652 15.4044 13.5196 15.2169 13.7071C15.0293 13.8946 14.775 14 14.5098 14H13.5098C13.2445 14 12.9902 13.8946 12.8027 13.7071C12.6151 13.5196 12.5098 13.2652 12.5098 13V12C12.5098 11.7348 12.6151 11.4804 12.8027 11.2929C12.9902 11.1054 13.2445 11 13.5098 11ZM13.5098 15H14.5098C14.775 15 15.0293 15.1054 15.2169 15.2929C15.4044 15.4804 15.5098 15.7348 15.5098 16V17C15.5098 17.2652 15.4044 17.5196 15.2169 17.7071C15.0293 17.8946 14.775 18 14.5098 18H13.5098C13.2445 18 12.9902 17.8946 12.8027 17.7071C12.6151 17.5196 12.5098 17.2652 12.5098 17V16C12.5098 15.7348 12.6151 15.4804 12.8027 15.2929C12.9902 15.1054 13.2445 15 13.5098 15ZM9.50977 15H10.5098C10.775 15 11.0293 15.1054 11.2169 15.2929C11.4044 15.4804 11.5098 15.7348 11.5098 16V17C11.5098 17.2652 11.4044 17.5196 11.2169 17.7071C11.0293 17.8946 10.775 18 10.5098 18H9.50977C9.24455 18 8.9902 17.8946 8.80266 17.7071C8.61512 17.5196 8.50977 17.2652 8.50977 17V16C8.50977 15.7348 8.61512 15.4804 8.80266 15.2929C8.9902 15.1054 9.24455 15 9.50977 15Z" fill="#21272A"/>
</svg>
