<svg width="24" height="24" viewBox="0 0 24 24" fill="none" xmlns="http://www.w3.org/2000/svg">
<path d="M20.0098 10V8C20.0098 7.73478 19.9044 7.48043 19.7169 7.29289C19.5293 7.10536 19.275 7 19.0098 7H18.0098V8C18.0098 8.26522 17.9044 8.51957 17.7169 8.70711C17.5293 8.89464 17.275 9 17.0098 9C16.7445 9 16.4902 8.89464 16.3027 8.70711C16.1151 8.51957 16.0098 8.26522 16.0098 8V7H8.00977V8C8.00977 8.26522 7.90441 8.51957 7.71687 8.70711C7.52934 8.89464 7.27498 9 7.00977 9C6.74455 9 6.4902 8.89464 6.30266 8.70711C6.11512 8.51957 6.00977 8.26522 6.00977 8V7H5.00977C4.74455 7 4.4902 7.10536 4.30266 7.29289C4.11512 7.48043 4.00977 7.73478 4.00977 8V10H20.0098ZM20.0098 12H4.00977V18C4.00977 18.2652 4.11512 18.5196 4.30266 18.7071C4.4902 18.8946 4.74455 19 5.00977 19H19.0098C19.275 19 19.5293 18.8946 19.7169 18.7071C19.9044 18.5196 20.0098 18.2652 20.0098 18V12ZM18.0098 5H19.0098C19.8054 5 20.5685 5.31607 21.1311 5.87868C21.6937 6.44129 22.0098 7.20435 22.0098 8V18C22.0098 18.7956 21.6937 19.5587 21.1311 20.1213C20.5685 20.6839 19.8054 21 19.0098 21H5.00977C4.21412 21 3.45105 20.6839 2.88845 20.1213C2.32584 19.5587 2.00977 18.7956 2.00977 18V8C2.00977 7.20435 2.32584 6.44129 2.88845 5.87868C3.45105 5.31607 4.21412 5 5.00977 5H6.00977V4C6.00977 3.73478 6.11512 3.48043 6.30266 3.29289C6.4902 3.10536 6.74455 3 7.00977 3C7.27498 3 7.52934 3.10536 7.71687 3.29289C7.90441 3.48043 8.00977 3.73478 8.00977 4V5H16.0098V4C16.0098 3.73478 16.1151 3.48043 16.3027 3.29289C16.4902 3.10536 16.7445 3 17.0098 3C17.275 3 17.5293 3.10536 17.7169 3.29289C17.9044 3.48043 18.0098 3.73478 18.0098 4V5Z" fill="#21272A"/>
</svg>
