<svg width="24" height="24" viewBox="0 0 24 24" fill="none" xmlns="http://www.w3.org/2000/svg">
<path d="M7.68577 9H6.00977C5.47933 9 4.97062 9.21071 4.59555 9.58579C4.22048 9.96086 4.00977 10.4696 4.00977 11V16C4.00977 16.5304 4.22048 17.0391 4.59555 17.4142C4.97062 17.7893 5.47933 18 6.00977 18H18.0098C18.5402 18 19.0489 17.7893 19.424 17.4142C19.7991 17.0391 20.0098 16.5304 20.0098 16V11C20.0098 10.4696 19.7991 9.96086 19.424 9.58579C19.0489 9.21071 18.5402 9 18.0098 9H16.3338L15.9468 7.499C15.8354 7.06996 15.5848 6.69001 15.2342 6.41873C14.8837 6.14745 14.453 6.00017 14.0098 6H10.0098C9.56642 5.99983 9.13558 6.14698 8.78497 6.41831C8.43435 6.68965 8.18382 7.06979 8.07277 7.499L7.68577 9ZM6.13577 7C6.57977 5.275 8.14577 4 10.0098 4H14.0098C14.8966 4.00012 15.7583 4.29482 16.4595 4.83783C17.1607 5.38084 17.6617 6.14138 17.8838 7H18.0098C19.0706 7 20.088 7.42143 20.8382 8.17157C21.5883 8.92172 22.0098 9.93913 22.0098 11V16C22.0098 17.0609 21.5883 18.0783 20.8382 18.8284C20.088 19.5786 19.0706 20 18.0098 20H6.00977C4.9489 20 3.93148 19.5786 3.18134 18.8284C2.43119 18.0783 2.00977 17.0609 2.00977 16V11C2.00977 9.93913 2.43119 8.92172 3.18134 8.17157C3.93148 7.42143 4.9489 7 6.00977 7H6.13577ZM12.0098 17C10.9489 17 9.93148 16.5786 9.18134 15.8284C8.43119 15.0783 8.00977 14.0609 8.00977 13C8.00977 11.9391 8.43119 10.9217 9.18134 10.1716C9.93148 9.42143 10.9489 9 12.0098 9C13.0706 9 14.088 9.42143 14.8382 10.1716C15.5883 10.9217 16.0098 11.9391 16.0098 13C16.0098 14.0609 15.5883 15.0783 14.8382 15.8284C14.088 16.5786 13.0706 17 12.0098 17ZM12.0098 15C12.5402 15 13.0489 14.7893 13.424 14.4142C13.7991 14.0391 14.0098 13.5304 14.0098 13C14.0098 12.4696 13.7991 11.9609 13.424 11.5858C13.0489 11.2107 12.5402 11 12.0098 11C11.4793 11 10.9706 11.2107 10.5956 11.5858C10.2205 11.9609 10.0098 12.4696 10.0098 13C10.0098 13.5304 10.2205 14.0391 10.5956 14.4142C10.9706 14.7893 11.4793 15 12.0098 15ZM18.0098 12C18.275 12 18.5293 11.8946 18.7169 11.7071C18.9044 11.5196 19.0098 11.2652 19.0098 11C19.0098 10.7348 18.9044 10.4804 18.7169 10.2929C18.5293 10.1054 18.275 10 18.0098 10C17.7445 10 17.4902 10.1054 17.3027 10.2929C17.1151 10.4804 17.0098 10.7348 17.0098 11C17.0098 11.2652 17.1151 11.5196 17.3027 11.7071C17.4902 11.8946 17.7445 12 18.0098 12Z" fill="#21272A"/>
</svg>
