<svg width="24" height="24" viewBox="0 0 24 24" fill="none" xmlns="http://www.w3.org/2000/svg">
<path d="M20.0098 14V8C20.0098 6.93913 19.5883 5.92172 18.8382 5.17157C18.088 4.42143 17.0706 4 16.0098 4H8.00977C6.9489 4 5.93148 4.42143 5.18134 5.17157C4.43119 5.92172 4.00977 6.93913 4.00977 8V16C4.00977 17.0609 4.43119 18.0783 5.18134 18.8284C5.93148 19.5786 6.9489 20 8.00977 20H16.0098C17.0706 20 18.088 19.5786 18.8382 18.8284C19.5883 18.0783 20.0098 17.0609 20.0098 16H4.00977V14H20.0098ZM8.00977 2H16.0098C17.6011 2 19.1272 2.63214 20.2524 3.75736C21.3776 4.88258 22.0098 6.4087 22.0098 8V16C22.0098 17.5913 21.3776 19.1174 20.2524 20.2426C19.1272 21.3679 17.6011 22 16.0098 22H8.00977C6.41847 22 4.89234 21.3679 3.76712 20.2426C2.64191 19.1174 2.00977 17.5913 2.00977 16L2.00977 8C2.00977 6.4087 2.64191 4.88258 3.76712 3.75736C4.89234 2.63214 6.41847 2 8.00977 2V2ZM8.00977 17H16.0098C16.275 17 16.5293 17.1054 16.7169 17.2929C16.9044 17.4804 17.0098 17.7348 17.0098 18C17.0098 18.2652 16.9044 18.5196 16.7169 18.7071C16.5293 18.8946 16.275 19 16.0098 19H8.00977C7.74455 19 7.4902 18.8946 7.30266 18.7071C7.11512 18.5196 7.00977 18.2652 7.00977 18C7.00977 17.7348 7.11512 17.4804 7.30266 17.2929C7.4902 17.1054 7.74455 17 8.00977 17ZM12.0098 13C10.9489 13 9.93148 12.5786 9.18134 11.8284C8.43119 11.0783 8.00977 10.0609 8.00977 9C8.00977 7.93913 8.43119 6.92172 9.18134 6.17157C9.93148 5.42143 10.9489 5 12.0098 5C13.0706 5 14.088 5.42143 14.8382 6.17157C15.5883 6.92172 16.0098 7.93913 16.0098 9C16.0098 10.0609 15.5883 11.0783 14.8382 11.8284C14.088 12.5786 13.0706 13 12.0098 13ZM12.0098 11C12.5402 11 13.0489 10.7893 13.424 10.4142C13.7991 10.0391 14.0098 9.53043 14.0098 9C14.0098 8.46957 13.7991 7.96086 13.424 7.58579C13.0489 7.21071 12.5402 7 12.0098 7C11.4793 7 10.9706 7.21071 10.5956 7.58579C10.2205 7.96086 10.0098 8.46957 10.0098 9C10.0098 9.53043 10.2205 10.0391 10.5956 10.4142C10.9706 10.7893 11.4793 11 12.0098 11ZM18.0098 13C17.7445 13 17.4902 12.8946 17.3027 12.7071C17.1151 12.5196 17.0098 12.2652 17.0098 12C17.0098 11.7348 17.1151 11.4804 17.3027 11.2929C17.4902 11.1054 17.7445 11 18.0098 11C18.275 11 18.5293 11.1054 18.7169 11.2929C18.9044 11.4804 19.0098 11.7348 19.0098 12C19.0098 12.2652 18.9044 12.5196 18.7169 12.7071C18.5293 12.8946 18.275 13 18.0098 13Z" fill="#21272A"/>
</svg>
