<svg width="24" height="24" viewBox="0 0 24 24" fill="none" xmlns="http://www.w3.org/2000/svg">
<path d="M11.0098 12V18H13.0098V12H11.0098ZM15.0098 18H20.0098C20.5402 18 21.0489 18.2107 21.424 18.5858C21.7991 18.9609 22.0098 19.4696 22.0098 20V21C22.0098 21.5304 21.7991 22.0391 21.424 22.4142C21.0489 22.7893 20.5402 23 20.0098 23H4.00977C3.47933 23 2.97062 22.7893 2.59555 22.4142C2.22048 22.0391 2.00977 21.5304 2.00977 21V20C2.00977 19.4696 2.22048 18.9609 2.59555 18.5858C2.97062 18.2107 3.47933 18 4.00977 18H9.00977V10H15.0098V18ZM4.00977 20V21H20.0098V20H4.00977ZM12.0098 9.4C11.2141 9.4 10.4511 9.08393 9.88845 8.52132C9.32584 7.95871 9.00977 7.19565 9.00977 6.4C9.00977 5.295 10.0098 3.495 12.0098 1C14.0098 3.495 15.0098 5.295 15.0098 6.4C15.0098 7.19565 14.6937 7.95871 14.1311 8.52132C13.5685 9.08393 12.8054 9.4 12.0098 9.4ZM12.0098 7.448C12.5618 7.448 13.0098 6.968 13.0098 6.448C13.0098 5.982 12.6768 5.339 12.0098 4.448C11.3428 5.339 11.0098 5.982 11.0098 6.448C11.0098 6.968 11.4578 7.448 12.0098 7.448Z" fill="#21272A"/>
</svg>
