<svg width="24" height="24" viewBox="0 0 24 24" fill="none" xmlns="http://www.w3.org/2000/svg">
<path d="M15.0098 11V7C15.0098 6.20435 14.6937 5.44129 14.1311 4.87868C13.5685 4.31607 12.8054 4 12.0098 4C11.2141 4 10.4511 4.31607 9.88845 4.87868C9.32584 5.44129 9.00977 6.20435 9.00977 7V11H15.0098ZM15.0098 13H9.00977V17C9.00977 17.7956 9.32584 18.5587 9.88845 19.1213C10.4511 19.6839 11.2141 20 12.0098 20C12.8054 20 13.5685 19.6839 14.1311 19.1213C14.6937 18.5587 15.0098 17.7956 15.0098 17V13ZM12.0098 2C13.3358 2 14.6076 2.52678 15.5453 3.46447C16.483 4.40215 17.0098 5.67392 17.0098 7V17C17.0098 18.3261 16.483 19.5979 15.5453 20.5355C14.6076 21.4732 13.3358 22 12.0098 22C10.6837 22 9.41191 21.4732 8.47423 20.5355C7.53655 19.5979 7.00977 18.3261 7.00977 17V7C7.00977 5.67392 7.53655 4.40215 8.47423 3.46447C9.41191 2.52678 10.6837 2 12.0098 2V2Z" fill="#21272A"/>
</svg>
