<svg width="24" height="24" viewBox="0 0 24 24" fill="none" xmlns="http://www.w3.org/2000/svg">
<path d="M12.0098 10.5V19.5H18.0098V10.5H12.0098ZM20.0098 21.5H2.00977V14.5C2.00977 13.9696 2.22048 13.4609 2.59555 13.0858C2.97062 12.7107 3.47933 12.5 4.00977 12.5H6.00977C6.5402 12.5 7.04891 12.7107 7.42398 13.0858C7.79905 13.4609 8.00977 13.9696 8.00977 14.5H10.0098V10.5C9.47933 10.5 8.97062 10.2893 8.59555 9.91421C8.22048 9.53914 8.00977 9.03043 8.00977 8.5V4.5C8.00977 3.96957 8.22048 3.46086 8.59555 3.08579C8.97062 2.71071 9.47933 2.5 10.0098 2.5H12.0098C12.5402 2.5 13.0489 2.71071 13.424 3.08579C13.7991 3.46086 14.0098 3.96957 14.0098 4.5H16.0098C16.0098 3.96957 16.2205 3.46086 16.5956 3.08579C16.9706 2.71071 17.4793 2.5 18.0098 2.5H20.0098C20.5402 2.5 21.0489 2.71071 21.424 3.08579C21.7991 3.46086 22.0098 3.96957 22.0098 4.5V8.5C22.0098 9.03043 21.7991 9.53914 21.424 9.91421C21.0489 10.2893 20.5402 10.5 20.0098 10.5V21.5ZM10.0098 19.5V16.5H6.00977V14.5H4.00977V19.5H10.0098ZM10.0098 4.5V8.5H20.0098V4.5H18.0098V6.5H12.0098V4.5H10.0098ZM15.0098 15.5C15.5402 15.5 16.0489 15.7107 16.424 16.0858C16.7991 16.4609 17.0098 16.9696 17.0098 17.5V20.5H13.0098V17.5C13.0098 16.9696 13.2205 16.4609 13.5956 16.0858C13.9706 15.7107 14.4793 15.5 15.0098 15.5ZM14.0098 11.5H16.0098C16.275 11.5 16.5293 11.6054 16.7169 11.7929C16.9044 11.9804 17.0098 12.2348 17.0098 12.5C17.0098 12.7652 16.9044 13.0196 16.7169 13.2071C16.5293 13.3946 16.275 13.5 16.0098 13.5H14.0098C13.7445 13.5 13.4902 13.3946 13.3027 13.2071C13.1151 13.0196 13.0098 12.7652 13.0098 12.5C13.0098 12.2348 13.1151 11.9804 13.3027 11.7929C13.4902 11.6054 13.7445 11.5 14.0098 11.5Z" fill="#21272A"/>
</svg>
