<svg width="24" height="24" viewBox="0 0 24 24" fill="none" xmlns="http://www.w3.org/2000/svg">
<path d="M13.0098 19V16.892C14.9938 16.388 16.5108 14.416 16.5108 12.01C16.5108 9.213 14.4618 7.003 12.0108 7.003C9.56076 7.003 7.51076 9.213 7.51076 12.01C7.51076 14.415 9.02676 16.386 11.0098 16.891V19H6.00976C5.74415 19 5.48941 18.8945 5.3016 18.7067C5.11378 18.5189 5.00826 18.2641 5.00826 17.9985C5.00826 17.7329 5.11378 17.4782 5.3016 17.2903C5.48941 17.1025 5.74415 16.997 6.00976 16.997H7.44376C6.25076 15.727 5.51076 13.961 5.51076 12.01C5.51076 8.138 8.42076 5 12.0108 5C15.6008 5 18.5108 8.138 18.5108 12.01C18.5108 13.961 17.7708 15.726 16.5778 16.997H18.0098C18.2754 16.997 18.5301 17.1025 18.7179 17.2903C18.9057 17.4782 19.0113 17.7329 19.0113 17.9985C19.0113 18.2641 18.9057 18.5189 18.7179 18.7067C18.5301 18.8945 18.2754 19 18.0098 19H13.0098Z" fill="#21272A"/>
</svg>
