<svg width="24" height="48" viewBox="0 0 24 48" fill="none" xmlns="http://www.w3.org/2000/svg">
<path d="M10.486 28.73C10.3547 28.7303 10.2247 28.7046 10.1034 28.6545C9.98204 28.6044 9.87181 28.5308 9.77899 28.438L5.53699 24.195C5.44141 24.1028 5.36516 23.9925 5.31266 23.8706C5.26017 23.7486 5.23249 23.6174 5.23125 23.4846C5.23 23.3518 5.25521 23.2201 5.3054 23.0972C5.3556 22.9743 5.42977 22.8626 5.52359 22.7686C5.61742 22.6747 5.72902 22.6003 5.85188 22.55C5.97474 22.4996 6.1064 22.4742 6.23918 22.4753C6.37196 22.4763 6.50319 22.5038 6.62523 22.5561C6.74727 22.6085 6.85767 22.6846 6.94999 22.78L10.485 26.315L16.85 19.952C17.0375 19.7644 17.2919 19.6589 17.5571 19.6588C17.8224 19.6587 18.0768 19.764 18.2645 19.9515C18.4521 20.139 18.5576 20.3934 18.5577 20.6586C18.5578 20.9239 18.4525 21.1784 18.265 21.366L11.193 28.438C11.1002 28.5308 10.9899 28.6044 10.8686 28.6545C10.7473 28.7046 10.6173 28.7303 10.486 28.73Z" fill="#25A249"/>
</svg>
