<svg width="24" height="24" viewBox="0 0 24 24" fill="none" xmlns="http://www.w3.org/2000/svg">
<path d="M13.0098 13V6C13.0098 5.73478 13.1151 5.48043 13.3027 5.29289C13.4902 5.10536 13.7445 5 14.0098 5C14.275 5 14.5293 5.10536 14.7169 5.29289C14.9044 5.48043 15.0098 5.73478 15.0098 6V14C15.0098 14.2652 14.9044 14.5196 14.7169 14.7071C14.5293 14.8946 14.275 15 14.0098 15H6.00977C5.74455 15 5.4902 14.8946 5.30266 14.7071C5.11512 14.5196 5.00977 14.2652 5.00977 14C5.00977 13.7348 5.11512 13.4804 5.30266 13.2929C5.4902 13.1054 5.74455 13 6.00977 13H13.0098ZM17.0098 17V10C17.0098 9.73478 17.1151 9.48043 17.3027 9.29289C17.4902 9.10536 17.7445 9 18.0098 9C18.275 9 18.5293 9.10536 18.7169 9.29289C18.9044 9.48043 19.0098 9.73478 19.0098 10V18C19.0098 18.2652 18.9044 18.5196 18.7169 18.7071C18.5293 18.8946 18.275 19 18.0098 19H10.0098C9.74455 19 9.4902 18.8946 9.30266 18.7071C9.11512 18.5196 9.00977 18.2652 9.00977 18C9.00977 17.7348 9.11512 17.4804 9.30266 17.2929C9.4902 17.1054 9.74455 17 10.0098 17H17.0098Z" fill="#21272A"/>
</svg>
