<svg width="24" height="24" viewBox="0 0 24 24" fill="none" xmlns="http://www.w3.org/2000/svg">
<path d="M6.00977 2H18.0098C19.0706 2 20.088 2.42143 20.8382 3.17157C21.5883 3.92172 22.0098 4.93913 22.0098 6V18C22.0098 19.0609 21.5883 20.0783 20.8382 20.8284C20.088 21.5786 19.0706 22 18.0098 22H6.00977C4.9489 22 3.93148 21.5786 3.18134 20.8284C2.43119 20.0783 2.00977 19.0609 2.00977 18V6C2.00977 4.93913 2.43119 3.92172 3.18134 3.17157C3.93148 2.42143 4.9489 2 6.00977 2V2ZM6.00977 4C5.47933 4 4.97062 4.21071 4.59555 4.58579C4.22048 4.96086 4.00977 5.46957 4.00977 6V18C4.00977 18.5304 4.22048 19.0391 4.59555 19.4142C4.97062 19.7893 5.47933 20 6.00977 20H18.0098C18.5402 20 19.0489 19.7893 19.424 19.4142C19.7991 19.0391 20.0098 18.5304 20.0098 18V6C20.0098 5.46957 19.7991 4.96086 19.424 4.58579C19.0489 4.21071 18.5402 4 18.0098 4H6.00977ZM12.0098 14.958L14.1308 12.837C14.3183 12.6494 14.5726 12.5439 14.8379 12.5438C15.1032 12.5437 15.3576 12.649 15.5453 12.8365C15.7329 13.024 15.8384 13.2784 15.8385 13.5436C15.8386 13.8089 15.7333 14.0634 15.5458 14.251L12.7168 17.079C12.5292 17.2665 12.2749 17.3718 12.0098 17.3718C11.7446 17.3718 11.4903 17.2665 11.3028 17.079L8.47377 14.251C8.28626 14.0634 8.18097 13.8089 8.18106 13.5436C8.18116 13.2784 8.28662 13.024 8.47427 12.8365C8.66191 12.649 8.91635 12.5437 9.18162 12.5438C9.44689 12.5439 9.70126 12.6494 9.88877 12.837L12.0098 14.957V14.958ZM12.0098 9.958L14.1308 7.837C14.3183 7.64936 14.5726 7.54389 14.8379 7.5438C15.1032 7.5437 15.3576 7.64899 15.5453 7.8365C15.7329 8.02401 15.8384 8.27838 15.8385 8.54365C15.8386 8.80892 15.7333 9.06336 15.5458 9.251L12.7168 12.079C12.5292 12.2665 12.2749 12.3718 12.0098 12.3718C11.7446 12.3718 11.4903 12.2665 11.3028 12.079L8.47377 9.251C8.38092 9.15802 8.3073 9.04767 8.2571 8.92624C8.2069 8.80481 8.18112 8.67469 8.18121 8.54329C8.1814 8.27793 8.28699 8.02351 8.47477 7.836C8.66254 7.64849 8.91711 7.54326 9.18247 7.54344C9.44784 7.54363 9.70226 7.64923 9.88977 7.837L12.0098 9.957V9.958Z" fill="#21272A"/>
</svg>
