<svg width="24" height="24" viewBox="0 0 24 24" fill="none" xmlns="http://www.w3.org/2000/svg">
<path d="M13.3378 12.071L18.2878 17.021C18.3833 17.1133 18.4595 17.2236 18.5119 17.3456C18.5643 17.4676 18.5919 17.5988 18.593 17.7316C18.5942 17.8644 18.5689 17.9961 18.5186 18.119C18.4683 18.2419 18.3941 18.3535 18.3002 18.4474C18.2063 18.5413 18.0946 18.6156 17.9717 18.6658C17.8488 18.7161 17.7171 18.7414 17.5844 18.7403C17.4516 18.7391 17.3204 18.7115 17.1984 18.6591C17.0764 18.6067 16.966 18.5305 16.8738 18.435L11.2168 12.778C11.0293 12.5905 10.924 12.3362 10.924 12.071C10.924 11.8059 11.0293 11.5515 11.2168 11.364L16.8738 5.70702C17.0624 5.52486 17.315 5.42407 17.5772 5.42635C17.8394 5.42863 18.0902 5.53379 18.2756 5.7192C18.461 5.90461 18.5662 6.15542 18.5684 6.41762C18.5707 6.67982 18.4699 6.93242 18.2878 7.12102L13.3378 12.071ZM7.33777 12.071L12.2878 17.021C12.3833 17.1133 12.4595 17.2236 12.5119 17.3456C12.5643 17.4676 12.5919 17.5988 12.593 17.7316C12.5942 17.8644 12.5689 17.9961 12.5186 18.119C12.4683 18.2419 12.3941 18.3535 12.3002 18.4474C12.2063 18.5413 12.0946 18.6156 11.9717 18.6658C11.8488 18.7161 11.7171 18.7414 11.5844 18.7403C11.4516 18.7391 11.3204 18.7115 11.1984 18.6591C11.0764 18.6067 10.966 18.5305 10.8738 18.435L5.21677 12.778C5.0293 12.5905 4.92398 12.3362 4.92398 12.071C4.92398 11.8059 5.0293 11.5515 5.21677 11.364L10.8738 5.70702C10.966 5.61151 11.0764 5.53533 11.1984 5.48292C11.3204 5.43051 11.4516 5.40292 11.5844 5.40177C11.7171 5.40062 11.8488 5.42592 11.9717 5.4762C12.0946 5.52648 12.2063 5.60073 12.3002 5.69463C12.3941 5.78852 12.4683 5.90017 12.5186 6.02307C12.5689 6.14596 12.5942 6.27764 12.593 6.41042C12.5919 6.5432 12.5643 6.67442 12.5119 6.79643C12.4595 6.91843 12.3833 7.02877 12.2878 7.12102L7.33777 12.071Z" fill="#21272A"/>
</svg>
