<svg width="24" height="24" viewBox="0 0 24 24" fill="none" xmlns="http://www.w3.org/2000/svg">
<path d="M12 22C6.477 22 2 17.523 2 12C2 6.477 6.477 2 12 2C17.523 2 22 6.477 22 12C22 17.523 17.523 22 12 22ZM12 20C14.1217 20 16.1566 19.1571 17.6569 17.6569C19.1571 16.1566 20 14.1217 20 12C20 9.87827 19.1571 7.84344 17.6569 6.34315C16.1566 4.84285 14.1217 4 12 4C9.87827 4 7.84344 4.84285 6.34315 6.34315C4.84285 7.84344 4 9.87827 4 12C4 14.1217 4.84285 16.1566 6.34315 17.6569C7.84344 19.1571 9.87827 20 12 20ZM12 13.828L15.536 10.293C15.7246 10.1108 15.9772 10.01 16.2394 10.0123C16.5016 10.0146 16.7524 10.1198 16.9378 10.3052C17.1232 10.4906 17.2284 10.7414 17.2307 11.0036C17.233 11.2658 17.1322 11.5184 16.95 11.707L12.707 15.95C12.5195 16.1375 12.2652 16.2428 12 16.2428C11.7348 16.2428 11.4805 16.1375 11.293 15.95L7.05 11.707C6.86784 11.5184 6.76705 11.2658 6.76933 11.0036C6.7716 10.7414 6.87677 10.4906 7.06218 10.3052C7.24759 10.1198 7.4984 10.0146 7.7606 10.0123C8.0228 10.01 8.2754 10.1108 8.464 10.293L12 13.828Z" fill="#21272A"/>
</svg>
