<svg width="24" height="24" viewBox="0 0 24 24" fill="none" xmlns="http://www.w3.org/2000/svg">
<path d="M12 22C6.477 22 2 17.523 2 12C2 6.477 6.477 2 12 2C17.523 2 22 6.477 22 12C22 17.523 17.523 22 12 22ZM12 20C14.1217 20 16.1566 19.1571 17.6569 17.6569C19.1571 16.1566 20 14.1217 20 12C20 9.87827 19.1571 7.84344 17.6569 6.34315C16.1566 4.84285 14.1217 4 12 4C9.87827 4 7.84344 4.84285 6.34315 6.34315C4.84285 7.84344 4 9.87827 4 12C4 14.1217 4.84285 16.1566 6.34315 17.6569C7.84344 19.1571 9.87827 20 12 20ZM12 11.172L8.464 14.707C8.37175 14.8025 8.26141 14.8787 8.1394 14.9311C8.0174 14.9835 7.88618 15.0111 7.7534 15.0123C7.62062 15.0134 7.48894 14.9881 7.36605 14.9378C7.24315 14.8875 7.1315 14.8133 7.0376 14.7194C6.94371 14.6255 6.86946 14.5139 6.81918 14.391C6.7689 14.2681 6.7436 14.1364 6.74475 14.0036C6.7459 13.8708 6.77349 13.7396 6.8259 13.6176C6.87831 13.4956 6.95449 13.3852 7.05 13.293L11.293 9.05C11.4805 8.86253 11.7348 8.75721 12 8.75721C12.2652 8.75721 12.5195 8.86253 12.707 9.05L16.95 13.293C17.1322 13.4816 17.233 13.7342 17.2307 13.9964C17.2284 14.2586 17.1232 14.5094 16.9378 14.6948C16.7524 14.8802 16.5016 14.9854 16.2394 14.9877C15.9772 14.99 15.7246 14.8892 15.536 14.707L12 11.172Z" fill="#21272A"/>
</svg>
