<svg width="24" height="24" viewBox="0 0 24 24" fill="none" xmlns="http://www.w3.org/2000/svg">
<path d="M12.0808 10.328L7.13076 15.278C6.94216 15.4601 6.68956 15.5609 6.42736 15.5586C6.16516 15.5564 5.91435 15.4512 5.72894 15.2658C5.54354 15.0804 5.43837 14.8296 5.43609 14.5674C5.43381 14.3052 5.5346 14.0526 5.71676 13.864L11.3738 8.20697C11.5613 8.0195 11.8156 7.91418 12.0808 7.91418C12.3459 7.91418 12.6002 8.0195 12.7878 8.20697L18.4448 13.864C18.6269 14.0526 18.7277 14.3052 18.7254 14.5674C18.7232 14.8296 18.618 15.0804 18.4326 15.2658C18.2472 15.4512 17.9964 15.5564 17.7342 15.5586C17.472 15.5609 17.2194 15.4601 17.0308 15.278L12.0808 10.328Z" fill="#21272A"/>
</svg>
