<svg width="24" height="24" viewBox="0 0 24 24" fill="none" xmlns="http://www.w3.org/2000/svg">
<path d="M6.00977 2H18.0098C19.0706 2 20.088 2.42143 20.8382 3.17157C21.5883 3.92172 22.0098 4.93913 22.0098 6V18C22.0098 19.0609 21.5883 20.0783 20.8382 20.8284C20.088 21.5786 19.0706 22 18.0098 22H6.00977C4.9489 22 3.93148 21.5786 3.18134 20.8284C2.43119 20.0783 2.00977 19.0609 2.00977 18V6C2.00977 4.93913 2.43119 3.92172 3.18134 3.17157C3.93148 2.42143 4.9489 2 6.00977 2V2ZM6.00977 4C5.47933 4 4.97062 4.21071 4.59555 4.58579C4.22048 4.96086 4.00977 5.46957 4.00977 6V18C4.00977 18.5304 4.22048 19.0391 4.59555 19.4142C4.97062 19.7893 5.47933 20 6.00977 20H18.0098C18.5402 20 19.0489 19.7893 19.424 19.4142C19.7991 19.0391 20.0098 18.5304 20.0098 18V6C20.0098 5.46957 19.7991 4.96086 19.424 4.58579C19.0489 4.21071 18.5402 4 18.0098 4H6.00977ZM14.8278 12L12.7068 9.879C12.5191 9.69149 12.4137 9.43712 12.4136 9.17185C12.4135 8.90658 12.5188 8.65214 12.7063 8.4645C12.8938 8.27686 13.1481 8.17139 13.4134 8.1713C13.6787 8.1712 13.9331 8.27649 14.1208 8.464L16.9488 11.293C17.1362 11.4805 17.2416 11.7348 17.2416 12C17.2416 12.2652 17.1362 12.5195 16.9488 12.707L14.1208 15.536C14.0279 15.6288 13.9176 15.7025 13.7962 15.7527C13.6748 15.8029 13.5448 15.8287 13.4134 15.8287C13.2821 15.8287 13.152 15.8027 13.0307 15.7524C12.9093 15.7021 12.7991 15.6284 12.7063 15.5355C12.6134 15.4426 12.5398 15.3323 12.4896 15.2109C12.4393 15.0896 12.4135 14.9595 12.4136 14.8281C12.4136 14.6968 12.4395 14.5667 12.4898 14.4454C12.5401 14.3241 12.6139 14.2138 12.7068 14.121L14.8278 12ZM9.83777 12L7.71777 9.879C7.53984 9.6898 7.4425 9.4388 7.44635 9.17911C7.45019 8.91942 7.55493 8.67141 7.73838 8.48757C7.92183 8.30372 8.16962 8.19846 8.4293 8.19407C8.68898 8.18967 8.94019 8.28647 9.12977 8.464L11.9598 11.293C12.1472 11.4805 12.2526 11.7348 12.2526 12C12.2526 12.2652 12.1472 12.5195 11.9598 12.707L9.12977 15.536C9.03686 15.6288 8.92657 15.7025 8.8052 15.7527C8.68383 15.8029 8.55376 15.8287 8.42241 15.8287C8.29106 15.8287 8.16101 15.8027 8.03968 15.7524C7.91835 15.7021 7.80811 15.6284 7.71527 15.5355C7.62242 15.4426 7.54879 15.3323 7.49856 15.2109C7.44834 15.0896 7.42252 14.9595 7.42256 14.8281C7.42266 14.5629 7.52812 14.3085 7.71577 14.121L9.83777 12Z" fill="#21272A"/>
</svg>
