<svg width="24" height="24" viewBox="0 0 24 24" fill="none" xmlns="http://www.w3.org/2000/svg">
<path d="M12 22C6.477 22 2 17.523 2 12C2 6.477 6.477 2 12 2C17.523 2 22 6.477 22 12C22 17.523 17.523 22 12 22ZM12 20C14.1217 20 16.1566 19.1571 17.6569 17.6569C19.1571 16.1566 20 14.1217 20 12C20 9.87827 19.1571 7.84344 17.6569 6.34315C16.1566 4.84285 14.1217 4 12 4C9.87827 4 7.84344 4.84285 6.34315 6.34315C4.84285 7.84344 4 9.87827 4 12C4 14.1217 4.84285 16.1566 6.34315 17.6569C7.84344 19.1571 9.87827 20 12 20ZM10.172 12L13.707 15.536C13.8892 15.7246 13.99 15.9772 13.9877 16.2394C13.9854 16.5016 13.8802 16.7524 13.6948 16.9378C13.5094 17.1232 13.2586 17.2284 12.9964 17.2307C12.7342 17.233 12.4816 17.1322 12.293 16.95L8.05 12.707C7.86253 12.5195 7.75721 12.2652 7.75721 12C7.75721 11.7348 7.86253 11.4805 8.05 11.293L12.293 7.05C12.4816 6.86784 12.7342 6.76705 12.9964 6.76933C13.2586 6.7716 13.5094 6.87677 13.6948 7.06218C13.8802 7.24759 13.9854 7.4984 13.9877 7.7606C13.99 8.0228 13.8892 8.2754 13.707 8.464L10.172 12Z" fill="#21272A"/>
</svg>
