<svg width="24" height="24" viewBox="0 0 24 24" fill="none" xmlns="http://www.w3.org/2000/svg">
<path d="M17.0098 7H10.0098C9.74455 7 9.4902 6.89464 9.30266 6.70711C9.11512 6.51957 9.00977 6.26522 9.00977 6C9.00977 5.73478 9.11512 5.48043 9.30266 5.29289C9.4902 5.10536 9.74455 5 10.0098 5H18.0098C18.275 5 18.5293 5.10536 18.7169 5.29289C18.9044 5.48043 19.0098 5.73478 19.0098 6V14C19.0098 14.2652 18.9044 14.5196 18.7169 14.7071C18.5293 14.8946 18.275 15 18.0098 15C17.7445 15 17.4902 14.8946 17.3027 14.7071C17.1151 14.5196 17.0098 14.2652 17.0098 14V7ZM13.0098 11H6.00977C5.74455 11 5.4902 10.8946 5.30266 10.7071C5.11512 10.5196 5.00977 10.2652 5.00977 10C5.00977 9.73478 5.11512 9.48043 5.30266 9.29289C5.4902 9.10536 5.74455 9 6.00977 9H14.0098C14.275 9 14.5293 9.10536 14.7169 9.29289C14.9044 9.48043 15.0098 9.73478 15.0098 10V18C15.0098 18.2652 14.9044 18.5196 14.7169 18.7071C14.5293 18.8946 14.275 19 14.0098 19C13.7445 19 13.4902 18.8946 13.3027 18.7071C13.1151 18.5196 13.0098 18.2652 13.0098 18V11Z" fill="#21272A"/>
</svg>
