<svg width="24" height="24" viewBox="0 0 24 24" fill="none" xmlns="http://www.w3.org/2000/svg">
<path d="M15.0098 9H8.00977C7.74455 9 7.4902 8.89464 7.30266 8.70711C7.11512 8.51957 7.00977 8.26522 7.00977 8C7.00977 7.73478 7.11512 7.48043 7.30266 7.29289C7.4902 7.10536 7.74455 7 8.00977 7H16.0098C16.275 7 16.5293 7.10536 16.7169 7.29289C16.9044 7.48043 17.0098 7.73478 17.0098 8V16C17.0098 16.2652 16.9044 16.5196 16.7169 16.7071C16.5293 16.8946 16.275 17 16.0098 17C15.7445 17 15.4902 16.8946 15.3027 16.7071C15.1151 16.5196 15.0098 16.2652 15.0098 16V9Z" fill="#21272A"/>
</svg>
