<svg width="24" height="24" viewBox="0 0 24 24" fill="none" xmlns="http://www.w3.org/2000/svg">
<path d="M6.00977 2H18.0098C19.0706 2 20.088 2.42143 20.8382 3.17157C21.5883 3.92172 22.0098 4.93913 22.0098 6V18C22.0098 19.0609 21.5883 20.0783 20.8382 20.8284C20.088 21.5786 19.0706 22 18.0098 22H6.00977C4.9489 22 3.93148 21.5786 3.18134 20.8284C2.43119 20.0783 2.00977 19.0609 2.00977 18V6C2.00977 4.93913 2.43119 3.92172 3.18134 3.17157C3.93148 2.42143 4.9489 2 6.00977 2V2ZM6.00977 4C5.47933 4 4.97062 4.21071 4.59555 4.58579C4.22048 4.96086 4.00977 5.46957 4.00977 6V18C4.00977 18.5304 4.22048 19.0391 4.59555 19.4142C4.97062 19.7893 5.47933 20 6.00977 20H18.0098C18.5402 20 19.0489 19.7893 19.424 19.4142C19.7991 19.0391 20.0098 18.5304 20.0098 18V6C20.0098 5.46957 19.7991 4.96086 19.424 4.58579C19.0489 4.21071 18.5402 4 18.0098 4H6.00977ZM10.0098 14H13.0098C13.275 14 13.5293 14.1054 13.7169 14.2929C13.9044 14.4804 14.0098 14.7348 14.0098 15C14.0098 15.2652 13.9044 15.5196 13.7169 15.7071C13.5293 15.8946 13.275 16 13.0098 16H9.00977C8.74455 16 8.4902 15.8946 8.30266 15.7071C8.11512 15.5196 8.00977 15.2652 8.00977 15V11C8.00977 10.7348 8.11512 10.4804 8.30266 10.2929C8.4902 10.1054 8.74455 10 9.00977 10C9.27498 10 9.52934 10.1054 9.71687 10.2929C9.90441 10.4804 10.0098 10.7348 10.0098 11V14ZM13.0098 11H16.0098C16.275 11 16.5293 11.1054 16.7169 11.2929C16.9044 11.4804 17.0098 11.7348 17.0098 12C17.0098 12.2652 16.9044 12.5196 16.7169 12.7071C16.5293 12.8946 16.275 13 16.0098 13H12.0098C11.7445 13 11.4902 12.8946 11.3027 12.7071C11.1151 12.5196 11.0098 12.2652 11.0098 12V8C11.0098 7.73478 11.1151 7.48043 11.3027 7.29289C11.4902 7.10536 11.7445 7 12.0098 7C12.275 7 12.5293 7.10536 12.7169 7.29289C12.9044 7.48043 13.0098 7.73478 13.0098 8V11Z" fill="#21272A"/>
</svg>
