<svg width="24" height="24" viewBox="0 0 24 24" fill="none" xmlns="http://www.w3.org/2000/svg">
<path d="M9.00977 15H16.0098C16.275 15 16.5293 15.1054 16.7169 15.2929C16.9044 15.4804 17.0098 15.7348 17.0098 16C17.0098 16.2652 16.9044 16.5196 16.7169 16.7071C16.5293 16.8946 16.275 17 16.0098 17H8.00977C7.74455 17 7.4902 16.8946 7.30266 16.7071C7.11512 16.5196 7.00977 16.2652 7.00977 16V8C7.00977 7.73478 7.11512 7.48043 7.30266 7.29289C7.4902 7.10536 7.74455 7 8.00977 7C8.27498 7 8.52934 7.10536 8.71687 7.29289C8.90441 7.48043 9.00977 7.73478 9.00977 8V15Z" fill="#21272A"/>
</svg>
