<svg width="24" height="24" viewBox="0 0 24 24" fill="none" xmlns="http://www.w3.org/2000/svg">
<path d="M13.3238 12.071L8.37377 7.12098C8.19161 6.93238 8.09082 6.67978 8.09309 6.41758C8.09537 6.15538 8.20054 5.90457 8.38595 5.71916C8.57136 5.53375 8.82217 5.42859 9.08437 5.42631C9.34656 5.42403 9.59917 5.52482 9.78777 5.70698L15.4448 11.364C15.6322 11.5515 15.7376 11.8058 15.7376 12.071C15.7376 12.3361 15.6322 12.5905 15.4448 12.778L9.78777 18.435C9.59917 18.6171 9.34656 18.7179 9.08437 18.7157C8.82217 18.7134 8.57136 18.6082 8.38595 18.4228C8.20054 18.2374 8.09537 17.9866 8.09309 17.7244C8.09082 17.4622 8.19161 17.2096 8.37377 17.021L13.3238 12.071Z" fill="#21272A"/>
</svg>
