<svg width="24" height="24" viewBox="0 0 24 24" fill="none" xmlns="http://www.w3.org/2000/svg">
<path d="M10.7668 12.0001L15.7168 16.9501C15.8123 17.0423 15.8885 17.1526 15.9409 17.2747C15.9933 17.3967 16.0209 17.5279 16.022 17.6607C16.0232 17.7934 15.9979 17.9251 15.9476 18.048C15.8973 18.1709 15.8231 18.2826 15.7292 18.3765C15.6353 18.4703 15.5236 18.5446 15.4007 18.5949C15.2778 18.6452 15.1461 18.6705 15.0134 18.6693C14.8806 18.6682 14.7494 18.6406 14.6274 18.5882C14.5054 18.5358 14.395 18.4596 14.3028 18.3641L8.64577 12.7071C8.4583 12.5195 8.35298 12.2652 8.35298 12.0001C8.35298 11.7349 8.4583 11.4806 8.64577 11.2931L14.3028 5.63606C14.4914 5.4539 14.744 5.35311 15.0062 5.35538C15.2684 5.35766 15.5192 5.46283 15.7046 5.64824C15.89 5.83365 15.9952 6.08446 15.9974 6.34666C15.9997 6.60885 15.8989 6.86146 15.7168 7.05006L10.7668 12.0001Z" fill="#21272A"/>
</svg>
