<svg width="24" height="24" viewBox="0 0 24 24" fill="none" xmlns="http://www.w3.org/2000/svg">
<path d="M6.00977 2H18.0098C19.0706 2 20.088 2.42143 20.8382 3.17157C21.5883 3.92172 22.0098 4.93913 22.0098 6V18C22.0098 19.0609 21.5883 20.0783 20.8382 20.8284C20.088 21.5786 19.0706 22 18.0098 22H6.00977C4.9489 22 3.93148 21.5786 3.18134 20.8284C2.43119 20.0783 2.00977 19.0609 2.00977 18V6C2.00977 4.93913 2.43119 3.92172 3.18134 3.17157C3.93148 2.42143 4.9489 2 6.00977 2V2ZM6.00977 4C5.47933 4 4.97062 4.21071 4.59555 4.58579C4.22048 4.96086 4.00977 5.46957 4.00977 6V18C4.00977 18.5304 4.22048 19.0391 4.59555 19.4142C4.97062 19.7893 5.47933 20 6.00977 20H18.0098C18.5402 20 19.0489 19.7893 19.424 19.4142C19.7991 19.0391 20.0098 18.5304 20.0098 18V6C20.0098 5.46957 19.7991 4.96086 19.424 4.58579C19.0489 4.21071 18.5402 4 18.0098 4H6.00977ZM11.0098 13H16.0098C16.275 13 16.5293 13.1054 16.7169 13.2929C16.9044 13.4804 17.0098 13.7348 17.0098 14C17.0098 14.2652 16.9044 14.5196 16.7169 14.7071C16.5293 14.8946 16.275 15 16.0098 15H10.0098C9.74455 15 9.4902 14.8946 9.30266 14.7071C9.11512 14.5196 9.00977 14.2652 9.00977 14V8C9.00977 7.73478 9.11512 7.48043 9.30266 7.29289C9.4902 7.10536 9.74455 7 10.0098 7C10.275 7 10.5293 7.10536 10.7169 7.29289C10.9044 7.48043 11.0098 7.73478 11.0098 8V13Z" fill="#21272A"/>
</svg>
