<svg width="24" height="24" viewBox="0 0 24 24" fill="none" xmlns="http://www.w3.org/2000/svg">
<path d="M6.00977 2H18.0098C19.0706 2 20.088 2.42143 20.8382 3.17157C21.5883 3.92172 22.0098 4.93913 22.0098 6V18C22.0098 19.0609 21.5883 20.0783 20.8382 20.8284C20.088 21.5786 19.0706 22 18.0098 22H6.00977C4.9489 22 3.93148 21.5786 3.18134 20.8284C2.43119 20.0783 2.00977 19.0609 2.00977 18V6C2.00977 4.93913 2.43119 3.92172 3.18134 3.17157C3.93148 2.42143 4.9489 2 6.00977 2V2ZM6.00977 4C5.47933 4 4.97062 4.21071 4.59555 4.58579C4.22048 4.96086 4.00977 5.46957 4.00977 6V18C4.00977 18.5304 4.22048 19.0391 4.59555 19.4142C4.97062 19.7893 5.47933 20 6.00977 20H18.0098C18.5402 20 19.0489 19.7893 19.424 19.4142C19.7991 19.0391 20.0098 18.5304 20.0098 18V6C20.0098 5.46957 19.7991 4.96086 19.424 4.58579C19.0489 4.21071 18.5402 4 18.0098 4H6.00977ZM8.83777 12L10.9598 14.121C11.1474 14.3085 11.2529 14.5629 11.253 14.8281C11.2531 15.0934 11.1478 15.3479 10.9603 15.5355C10.7728 15.7231 10.5184 15.8286 10.2531 15.8287C9.98785 15.8288 9.73341 15.7235 9.54577 15.536L6.71677 12.707C6.52929 12.5195 6.42398 12.2652 6.42398 12C6.42398 11.7348 6.52929 11.4805 6.71677 11.293L9.54577 8.464C9.63874 8.37116 9.74909 8.29753 9.87052 8.24734C9.99195 8.19714 10.1221 8.17135 10.2535 8.17144C10.3849 8.17154 10.515 8.19751 10.6363 8.24788C10.7577 8.29825 10.8679 8.37202 10.9608 8.465C11.0536 8.55798 11.1272 8.66833 11.1774 8.78976C11.2276 8.91119 11.2534 9.04131 11.2533 9.17271C11.2532 9.3041 11.2273 9.43419 11.1769 9.55555C11.1265 9.67691 11.0527 9.78716 10.9598 9.88L8.83777 12ZM13.8278 12L15.9488 14.121C16.1364 14.3085 16.2419 14.5629 16.242 14.8281C16.2421 15.0934 16.1368 15.3479 15.9493 15.5355C15.7618 15.7231 15.5074 15.8286 15.2421 15.8287C14.9768 15.8288 14.7224 15.7235 14.5348 15.536L11.7068 12.707C11.5193 12.5195 11.414 12.2652 11.414 12C11.414 11.7348 11.5193 11.4805 11.7068 11.293L14.5348 8.464C14.7225 8.27636 14.9772 8.171 15.2426 8.17109C15.5081 8.17118 15.7626 8.27673 15.9503 8.4645C16.1379 8.65227 16.2433 8.9069 16.2432 9.17235C16.2431 9.43781 16.1375 9.69236 15.9498 9.88L13.8278 12Z" fill="#21272A"/>
</svg>
