<svg width="24" height="24" viewBox="0 0 24 24" fill="none" xmlns="http://www.w3.org/2000/svg">
<path d="M12.0098 22C6.48677 22 2.00977 17.523 2.00977 12C2.00977 6.477 6.48677 2 12.0098 2C17.5328 2 22.0098 6.477 22.0098 12C22.0098 17.523 17.5328 22 12.0098 22ZM12.0098 20C14.1315 20 16.1663 19.1571 17.6666 17.6569C19.1669 16.1566 20.0098 14.1217 20.0098 12C20.0098 9.87827 19.1669 7.84344 17.6666 6.34315C16.1663 4.84285 14.1315 4 12.0098 4C9.88803 4 7.8532 4.84285 6.35291 6.34315C4.85262 7.84344 4.00977 9.87827 4.00977 12C4.00977 14.1217 4.85262 16.1566 6.35291 17.6569C7.8532 19.1571 9.88803 20 12.0098 20ZM14.0098 14V11C14.0098 10.7348 14.1151 10.4804 14.3027 10.2929C14.4902 10.1054 14.7445 10 15.0098 10C15.275 10 15.5293 10.1054 15.7169 10.2929C15.9044 10.4804 16.0098 10.7348 16.0098 11V15C16.0098 15.2652 15.9044 15.5196 15.7169 15.7071C15.5293 15.8946 15.275 16 15.0098 16H11.0098C10.7445 16 10.4902 15.8946 10.3027 15.7071C10.1151 15.5196 10.0098 15.2652 10.0098 15C10.0098 14.7348 10.1151 14.4804 10.3027 14.2929C10.4902 14.1054 10.7445 14 11.0098 14H14.0098ZM11.0098 11V8C11.0098 7.73478 11.1151 7.48043 11.3027 7.29289C11.4902 7.10536 11.7445 7 12.0098 7C12.275 7 12.5293 7.10536 12.7169 7.29289C12.9044 7.48043 13.0098 7.73478 13.0098 8V12C13.0098 12.2652 12.9044 12.5196 12.7169 12.7071C12.5293 12.8946 12.275 13 12.0098 13H8.00977C7.74455 13 7.4902 12.8946 7.30266 12.7071C7.11512 12.5196 7.00977 12.2652 7.00977 12C7.00977 11.7348 7.11512 11.4804 7.30266 11.2929C7.4902 11.1054 7.74455 11 8.00977 11H11.0098Z" fill="#21272A"/>
</svg>
