<svg width="24" height="24" viewBox="0 0 24 24" fill="none" xmlns="http://www.w3.org/2000/svg">
<path d="M6.00977 2H18.0098C19.0706 2 20.088 2.42143 20.8382 3.17157C21.5883 3.92172 22.0098 4.93913 22.0098 6V18C22.0098 19.0609 21.5883 20.0783 20.8382 20.8284C20.088 21.5786 19.0706 22 18.0098 22H6.00977C4.9489 22 3.93148 21.5786 3.18134 20.8284C2.43119 20.0783 2.00977 19.0609 2.00977 18V6C2.00977 4.93913 2.43119 3.92172 3.18134 3.17157C3.93148 2.42143 4.9489 2 6.00977 2V2ZM6.00977 4C5.47933 4 4.97062 4.21071 4.59555 4.58579C4.22048 4.96086 4.00977 5.46957 4.00977 6V18C4.00977 18.5304 4.22048 19.0391 4.59555 19.4142C4.97062 19.7893 5.47933 20 6.00977 20H18.0098C18.5402 20 19.0489 19.7893 19.424 19.4142C19.7991 19.0391 20.0098 18.5304 20.0098 18V6C20.0098 5.46957 19.7991 4.96086 19.424 4.58579C19.0489 4.21071 18.5402 4 18.0098 4H6.00977ZM12.0098 11.172L8.47377 14.707C8.38152 14.8025 8.27117 14.8787 8.14917 14.9311C8.02717 14.9835 7.89595 15.0111 7.76317 15.0123C7.63039 15.0134 7.49871 14.9881 7.37581 14.9378C7.25292 14.8875 7.14126 14.8133 7.04737 14.7194C6.95348 14.6255 6.87922 14.5139 6.82894 14.391C6.77866 14.2681 6.75336 14.1364 6.75452 14.0036C6.75567 13.8708 6.78326 13.7396 6.83566 13.6176C6.88807 13.4956 6.96426 13.3852 7.05977 13.293L11.3028 9.05C11.4903 8.86253 11.7446 8.75721 12.0098 8.75721C12.2749 8.75721 12.5292 8.86253 12.7168 9.05L16.9598 13.293C17.1419 13.4816 17.2427 13.7342 17.2404 13.9964C17.2382 14.2586 17.133 14.5094 16.9476 14.6948C16.7622 14.8802 16.5114 14.9854 16.2492 14.9877C15.987 14.99 15.7344 14.8892 15.5458 14.707L12.0098 11.172Z" fill="#21272A"/>
</svg>
