<svg width="24" height="24" viewBox="0 0 24 24" fill="none" xmlns="http://www.w3.org/2000/svg">
<path d="M7.00977 17H14.0098C14.275 17 14.5293 17.1054 14.7169 17.2929C14.9044 17.4804 15.0098 17.7348 15.0098 18C15.0098 18.2652 14.9044 18.5196 14.7169 18.7071C14.5293 18.8946 14.275 19 14.0098 19H6.00977C5.74455 19 5.4902 18.8946 5.30266 18.7071C5.11512 18.5196 5.00977 18.2652 5.00977 18V10C5.00977 9.73478 5.11512 9.48043 5.30266 9.29289C5.4902 9.10536 5.74455 9 6.00977 9C6.27498 9 6.52934 9.10536 6.71687 9.29289C6.90441 9.48043 7.00977 9.73478 7.00977 10V17ZM11.0098 13H18.0098C18.275 13 18.5293 13.1054 18.7169 13.2929C18.9044 13.4804 19.0098 13.7348 19.0098 14C19.0098 14.2652 18.9044 14.5196 18.7169 14.7071C18.5293 14.8946 18.275 15 18.0098 15H10.0098C9.74455 15 9.4902 14.8946 9.30266 14.7071C9.11512 14.5196 9.00977 14.2652 9.00977 14V6C9.00977 5.73478 9.11512 5.48043 9.30266 5.29289C9.4902 5.10536 9.74455 5 10.0098 5C10.275 5 10.5293 5.10536 10.7169 5.29289C10.9044 5.48043 11.0098 5.73478 11.0098 6V13Z" fill="#21272A"/>
</svg>
