<svg width="24" height="24" viewBox="0 0 24 24" fill="none" xmlns="http://www.w3.org/2000/svg">
<path d="M9.00977 9V16C9.00977 16.2652 8.90441 16.5196 8.71687 16.7071C8.52934 16.8946 8.27498 17 8.00977 17C7.74455 17 7.4902 16.8946 7.30266 16.7071C7.11512 16.5196 7.00977 16.2652 7.00977 16V8C7.00977 7.73478 7.11512 7.48043 7.30266 7.29289C7.4902 7.10536 7.74455 7 8.00977 7H16.0098C16.275 7 16.5293 7.10536 16.7169 7.29289C16.9044 7.48043 17.0098 7.73478 17.0098 8C17.0098 8.26522 16.9044 8.51957 16.7169 8.70711C16.5293 8.89464 16.275 9 16.0098 9H9.00977Z" fill="#21272A"/>
</svg>
