<svg width="24" height="24" viewBox="0 0 24 24" fill="none" xmlns="http://www.w3.org/2000/svg">
<path d="M12.0098 20C14.1315 20 16.1663 19.1571 17.6666 17.6569C19.1669 16.1566 20.0098 14.1217 20.0098 12C20.0098 9.87827 19.1669 7.84344 17.6666 6.34315C16.1663 4.84285 14.1315 4 12.0098 4C9.88803 4 7.8532 4.84285 6.35291 6.34315C4.85262 7.84344 4.00977 9.87827 4.00977 12C4.00977 14.1217 4.85262 16.1566 6.35291 17.6569C7.8532 19.1571 9.88803 20 12.0098 20ZM12.0098 22C6.48677 22 2.00977 17.523 2.00977 12C2.00977 6.477 6.48677 2 12.0098 2C17.5328 2 22.0098 6.477 22.0098 12C22.0098 17.523 17.5328 22 12.0098 22Z" fill="#21272A"/>
<path d="M12.0098 9.38202L9.88877 11.503C9.79659 11.5986 9.6863 11.6749 9.56433 11.7273C9.44236 11.7798 9.31117 11.8075 9.17839 11.8088C9.04561 11.81 8.91391 11.7848 8.79098 11.7346C8.66805 11.6844 8.55635 11.6102 8.46239 11.5164C8.36843 11.4226 8.2941 11.311 8.24373 11.1881C8.19337 11.0653 8.16797 10.9336 8.16903 10.8008C8.17009 10.6681 8.19758 10.5368 8.2499 10.4148C8.30222 10.2927 8.37833 10.1823 8.47377 10.09L11.3028 7.26202C11.4903 7.07455 11.7446 6.96924 12.0098 6.96924C12.2749 6.96924 12.5292 7.07455 12.7168 7.26202L15.5458 10.09C15.6386 10.1829 15.7122 10.2932 15.7625 10.4146C15.8127 10.536 15.8385 10.666 15.8385 10.7974C15.8384 10.9287 15.8125 11.0588 15.7622 11.1801C15.7119 11.3014 15.6382 11.4117 15.5453 11.5045C15.4524 11.5974 15.3421 11.671 15.2207 11.7212C15.0993 11.7714 14.9693 11.7973 14.8379 11.7972C14.7066 11.7972 14.5765 11.7713 14.4552 11.721C14.3338 11.6706 14.2236 11.5969 14.1308 11.504L12.0098 9.38302V9.38202Z" fill="#21272A"/>
<path d="M12.0098 14.382L9.88876 16.503C9.79592 16.596 9.68568 16.6697 9.56435 16.72C9.44302 16.7703 9.31297 16.7962 9.18162 16.7963C9.05027 16.7963 8.9202 16.7705 8.79883 16.7203C8.67746 16.67 8.56717 16.5964 8.47426 16.5035C8.38135 16.4107 8.30764 16.3005 8.25733 16.1791C8.20702 16.0578 8.18111 15.9278 8.18106 15.7964C8.18101 15.6651 8.20684 15.535 8.25706 15.4136C8.30728 15.2922 8.38092 15.182 8.47376 15.089L11.3028 12.261C11.4903 12.0736 11.7446 11.9683 12.0098 11.9683C12.2749 11.9683 12.5292 12.0736 12.7168 12.261L15.5458 15.089C15.6386 15.182 15.7122 15.2922 15.7625 15.4136C15.8127 15.535 15.8385 15.6651 15.8385 15.7964C15.8384 15.9278 15.8125 16.0578 15.7622 16.1791C15.7119 16.3005 15.6382 16.4107 15.5453 16.5035C15.4524 16.5964 15.3421 16.67 15.2207 16.7203C15.0993 16.7705 14.9693 16.7963 14.8379 16.7963C14.7066 16.7962 14.5765 16.7703 14.4552 16.72C14.3338 16.6697 14.2236 16.596 14.1308 16.503L12.0098 14.383V14.382Z" fill="#21272A"/>
</svg>
