<svg width="24" height="24" viewBox="0 0 24 24" fill="none" xmlns="http://www.w3.org/2000/svg">
<path d="M6.00977 2H18.0098C19.0706 2 20.088 2.42143 20.8382 3.17157C21.5883 3.92172 22.0098 4.93913 22.0098 6V18C22.0098 19.0609 21.5883 20.0783 20.8382 20.8284C20.088 21.5786 19.0706 22 18.0098 22H6.00977C4.9489 22 3.93148 21.5786 3.18134 20.8284C2.43119 20.0783 2.00977 19.0609 2.00977 18V6C2.00977 4.93913 2.43119 3.92172 3.18134 3.17157C3.93148 2.42143 4.9489 2 6.00977 2V2ZM6.00977 4C5.47933 4 4.97062 4.21071 4.59555 4.58579C4.22048 4.96086 4.00977 5.46957 4.00977 6V18C4.00977 18.5304 4.22048 19.0391 4.59555 19.4142C4.97062 19.7893 5.47933 20 6.00977 20H18.0098C18.5402 20 19.0489 19.7893 19.424 19.4142C19.7991 19.0391 20.0098 18.5304 20.0098 18V6C20.0098 5.46957 19.7991 4.96086 19.424 4.58579C19.0489 4.21071 18.5402 4 18.0098 4H6.00977ZM12.0098 13.828L15.5458 10.293C15.7344 10.1108 15.987 10.01 16.2492 10.0123C16.5114 10.0146 16.7622 10.1198 16.9476 10.3052C17.133 10.4906 17.2382 10.7414 17.2404 11.0036C17.2427 11.2658 17.1419 11.5184 16.9598 11.707L12.7168 15.95C12.5292 16.1375 12.2749 16.2428 12.0098 16.2428C11.7446 16.2428 11.4903 16.1375 11.3028 15.95L7.05977 11.707C6.87761 11.5184 6.77681 11.2658 6.77909 11.0036C6.78137 10.7414 6.88654 10.4906 7.07195 10.3052C7.25736 10.1198 7.50817 10.0146 7.77036 10.0123C8.03256 10.01 8.28516 10.1108 8.47377 10.293L12.0098 13.828Z" fill="#21272A"/>
</svg>
