<svg width="24" height="24" viewBox="0 0 24 24" fill="none" xmlns="http://www.w3.org/2000/svg">
<path d="M12.0098 22C6.48677 22 2.00977 17.523 2.00977 12C2.00977 6.477 6.48677 2 12.0098 2C17.5328 2 22.0098 6.477 22.0098 12C22.0098 17.523 17.5328 22 12.0098 22ZM12.0098 20C14.1315 20 16.1663 19.1571 17.6666 17.6569C19.1669 16.1566 20.0098 14.1217 20.0098 12C20.0098 9.87827 19.1669 7.84344 17.6666 6.34315C16.1663 4.84285 14.1315 4 12.0098 4C9.88803 4 7.8532 4.84285 6.35291 6.34315C4.85262 7.84344 4.00977 9.87827 4.00977 12C4.00977 14.1217 4.85262 16.1566 6.35291 17.6569C7.8532 19.1571 9.88803 20 12.0098 20ZM13.0098 11H8.00977C7.74455 11 7.4902 10.8946 7.30266 10.7071C7.11512 10.5196 7.00977 10.2652 7.00977 10C7.00977 9.73478 7.11512 9.48043 7.30266 9.29289C7.4902 9.10536 7.74455 9 8.00977 9H14.0098C14.275 9 14.5293 9.10536 14.7169 9.29289C14.9044 9.48043 15.0098 9.73478 15.0098 10V16C15.0098 16.2652 14.9044 16.5196 14.7169 16.7071C14.5293 16.8946 14.275 17 14.0098 17C13.7445 17 13.4902 16.8946 13.3027 16.7071C13.1151 16.5196 13.0098 16.2652 13.0098 16V11Z" fill="#21272A"/>
</svg>
