<svg width="24" height="24" viewBox="0 0 24 24" fill="none" xmlns="http://www.w3.org/2000/svg">
<path d="M12.0098 22C6.48677 22 2.00977 17.523 2.00977 12C2.00977 6.477 6.48677 2 12.0098 2C17.5328 2 22.0098 6.477 22.0098 12C22.0098 17.523 17.5328 22 12.0098 22ZM12.0098 20C14.1315 20 16.1663 19.1571 17.6666 17.6569C19.1669 16.1566 20.0098 14.1217 20.0098 12C20.0098 9.87827 19.1669 7.84344 17.6666 6.34315C16.1663 4.84285 14.1315 4 12.0098 4C9.88803 4 7.8532 4.84285 6.35291 6.34315C4.85262 7.84344 4.00977 9.87827 4.00977 12C4.00977 14.1217 4.85262 16.1566 6.35291 17.6569C7.8532 19.1571 9.88803 20 12.0098 20ZM12.0098 14.71L14.1308 12.59C14.3183 12.4024 14.5726 12.2969 14.8379 12.2968C15.1032 12.2967 15.3576 12.402 15.5453 12.5895C15.7329 12.777 15.8384 13.0314 15.8385 13.2966C15.8386 13.5619 15.7333 13.8164 15.5458 14.004L12.7168 16.832C12.5292 17.0195 12.2749 17.1248 12.0098 17.1248C11.7446 17.1248 11.4903 17.0195 11.3028 16.832L8.47377 14.004C8.38086 13.9111 8.30715 13.8008 8.25687 13.6794C8.20659 13.558 8.18071 13.4279 8.18071 13.2965C8.18071 13.1651 8.20659 13.035 8.25687 12.9136C8.30715 12.7922 8.38086 12.6819 8.47377 12.589C8.56668 12.4961 8.67698 12.4224 8.79837 12.3721C8.91976 12.3218 9.04987 12.2959 9.18127 12.2959C9.31266 12.2959 9.44277 12.3218 9.56416 12.3721C9.68555 12.4224 9.79586 12.4961 9.88877 12.589L12.0098 14.711V14.71ZM12.0098 9.71L14.1308 7.59C14.3183 7.40236 14.5726 7.29689 14.8379 7.2968C15.1032 7.2967 15.3576 7.40199 15.5453 7.5895C15.7329 7.77701 15.8384 8.03138 15.8385 8.29665C15.8386 8.56192 15.7333 8.81636 15.5458 9.004L12.7168 11.832C12.5292 12.0195 12.2749 12.1248 12.0098 12.1248C11.7446 12.1248 11.4903 12.0195 11.3028 11.832L8.47377 9.004C8.38086 8.91102 8.30717 8.80066 8.25691 8.6792C8.20665 8.55775 8.18081 8.42759 8.18086 8.29615C8.1809 8.16471 8.20684 8.03456 8.25718 7.91314C8.30752 7.79172 8.38129 7.68141 8.47427 7.5885C8.56724 7.49559 8.67761 7.4219 8.79906 7.37164C8.92051 7.32139 9.05068 7.29554 9.18212 7.29559C9.31356 7.29564 9.44371 7.32157 9.56512 7.37192C9.68654 7.42226 9.79686 7.49602 9.88977 7.589L12.0098 9.711V9.71Z" fill="#21272A"/>
</svg>
