<svg width="24" height="24" viewBox="0 0 24 24" fill="none" xmlns="http://www.w3.org/2000/svg">
<path d="M12.0098 22C6.48677 22 2.00977 17.523 2.00977 12C2.00977 6.477 6.48677 2 12.0098 2C17.5328 2 22.0098 6.477 22.0098 12C22.0098 17.523 17.5328 22 12.0098 22ZM12.0098 20C14.1315 20 16.1663 19.1571 17.6666 17.6569C19.1669 16.1566 20.0098 14.1217 20.0098 12C20.0098 9.87827 19.1669 7.84344 17.6666 6.34315C16.1663 4.84285 14.1315 4 12.0098 4C9.88803 4 7.8532 4.84285 6.35291 6.34315C4.85262 7.84344 4.00977 9.87827 4.00977 12C4.00977 14.1217 4.85262 16.1566 6.35291 17.6569C7.8532 19.1571 9.88803 20 12.0098 20ZM14.8278 12L12.7068 9.879C12.5191 9.69149 12.4137 9.43712 12.4136 9.17185C12.4135 8.90658 12.5188 8.65214 12.7063 8.4645C12.8938 8.27686 13.1481 8.17139 13.4134 8.1713C13.6787 8.1712 13.9331 8.27649 14.1208 8.464L16.9488 11.293C17.1362 11.4805 17.2416 11.7348 17.2416 12C17.2416 12.2652 17.1362 12.5195 16.9488 12.707L14.1208 15.536C14.0279 15.6288 13.9176 15.7025 13.7962 15.7527C13.6748 15.8029 13.5448 15.8287 13.4134 15.8287C13.2821 15.8287 13.152 15.8027 13.0307 15.7524C12.9093 15.7021 12.7991 15.6284 12.7063 15.5355C12.6134 15.4426 12.5398 15.3323 12.4896 15.2109C12.4393 15.0896 12.4135 14.9595 12.4136 14.8281C12.4136 14.6968 12.4395 14.5667 12.4898 14.4454C12.5401 14.3241 12.6139 14.2138 12.7068 14.121L14.8278 12ZM9.83777 12L7.71777 9.879C7.53984 9.6898 7.4425 9.4388 7.44635 9.17911C7.45019 8.91942 7.55493 8.67141 7.73838 8.48757C7.92183 8.30372 8.16962 8.19846 8.4293 8.19407C8.68898 8.18967 8.94019 8.28647 9.12977 8.464L11.9598 11.293C12.1472 11.4805 12.2526 11.7348 12.2526 12C12.2526 12.2652 12.1472 12.5195 11.9598 12.707L9.12977 15.536C9.03686 15.6288 8.92657 15.7025 8.8052 15.7527C8.68383 15.8029 8.55376 15.8287 8.42241 15.8287C8.29106 15.8287 8.16101 15.8027 8.03968 15.7524C7.91835 15.7021 7.80811 15.6284 7.71527 15.5355C7.62242 15.4426 7.54879 15.3323 7.49856 15.2109C7.44834 15.0896 7.42252 14.9595 7.42256 14.8281C7.42266 14.5629 7.52812 14.3085 7.71577 14.121L9.83777 12Z" fill="#21272A"/>
</svg>
