<svg width="24" height="24" viewBox="0 0 24 24" fill="none" xmlns="http://www.w3.org/2000/svg">
<path d="M6.00977 2H18.0098C19.0706 2 20.088 2.42143 20.8382 3.17157C21.5883 3.92172 22.0098 4.93913 22.0098 6V18C22.0098 19.0609 21.5883 20.0783 20.8382 20.8284C20.088 21.5786 19.0706 22 18.0098 22H6.00977C4.9489 22 3.93148 21.5786 3.18134 20.8284C2.43119 20.0783 2.00977 19.0609 2.00977 18V6C2.00977 4.93913 2.43119 3.92172 3.18134 3.17157C3.93148 2.42143 4.9489 2 6.00977 2V2ZM6.00977 4C5.47933 4 4.97062 4.21071 4.59555 4.58579C4.22048 4.96086 4.00977 5.46957 4.00977 6V18C4.00977 18.5304 4.22048 19.0391 4.59555 19.4142C4.97062 19.7893 5.47933 20 6.00977 20H18.0098C18.5402 20 19.0489 19.7893 19.424 19.4142C19.7991 19.0391 20.0098 18.5304 20.0098 18V6C20.0098 5.46957 19.7991 4.96086 19.424 4.58579C19.0489 4.21071 18.5402 4 18.0098 4H6.00977ZM13.8378 12L10.3028 8.464C10.1206 8.2754 10.0198 8.0228 10.0221 7.7606C10.0244 7.4984 10.1295 7.24759 10.3149 7.06218C10.5004 6.87677 10.7512 6.7716 11.0134 6.76933C11.2756 6.76705 11.5282 6.86784 11.7168 7.05L15.9598 11.293C16.1472 11.4805 16.2526 11.7348 16.2526 12C16.2526 12.2652 16.1472 12.5195 15.9598 12.707L11.7168 16.95C11.6245 17.0455 11.5142 17.1217 11.3922 17.1741C11.2702 17.2265 11.1389 17.2541 11.0062 17.2552C10.8734 17.2564 10.7417 17.2311 10.6188 17.1808C10.4959 17.1305 10.3843 17.0563 10.2904 16.9624C10.1965 16.8685 10.1222 16.7569 10.0719 16.634C10.0217 16.5111 9.99636 16.3794 9.99752 16.2466C9.99867 16.1138 10.0263 15.9826 10.0787 15.8606C10.1311 15.7386 10.2073 15.6282 10.3028 15.536L13.8378 12Z" fill="#21272A"/>
</svg>
