<svg width="24" height="24" viewBox="0 0 24 24" fill="none" xmlns="http://www.w3.org/2000/svg">
<path d="M12.0098 22C6.48677 22 2.00977 17.523 2.00977 12C2.00977 6.477 6.48677 2 12.0098 2C17.5328 2 22.0098 6.477 22.0098 12C22.0098 17.523 17.5328 22 12.0098 22ZM12.0098 20C14.1315 20 16.1663 19.1571 17.6666 17.6569C19.1669 16.1566 20.0098 14.1217 20.0098 12C20.0098 9.87827 19.1669 7.84344 17.6666 6.34315C16.1663 4.84285 14.1315 4 12.0098 4C9.88803 4 7.8532 4.84285 6.35291 6.34315C4.85262 7.84344 4.00977 9.87827 4.00977 12C4.00977 14.1217 4.85262 16.1566 6.35291 17.6569C7.8532 19.1571 9.88803 20 12.0098 20ZM10.0098 14H13.0098C13.275 14 13.5293 14.1054 13.7169 14.2929C13.9044 14.4804 14.0098 14.7348 14.0098 15C14.0098 15.2652 13.9044 15.5196 13.7169 15.7071C13.5293 15.8946 13.275 16 13.0098 16H9.00977C8.74455 16 8.4902 15.8946 8.30266 15.7071C8.11512 15.5196 8.00977 15.2652 8.00977 15V11C8.00977 10.7348 8.11512 10.4804 8.30266 10.2929C8.4902 10.1054 8.74455 10 9.00977 10C9.27498 10 9.52934 10.1054 9.71687 10.2929C9.90441 10.4804 10.0098 10.7348 10.0098 11V14ZM13.0098 11H16.0098C16.275 11 16.5293 11.1054 16.7169 11.2929C16.9044 11.4804 17.0098 11.7348 17.0098 12C17.0098 12.2652 16.9044 12.5196 16.7169 12.7071C16.5293 12.8946 16.275 13 16.0098 13H12.0098C11.7445 13 11.4902 12.8946 11.3027 12.7071C11.1151 12.5196 11.0098 12.2652 11.0098 12V8C11.0098 7.73478 11.1151 7.48043 11.3027 7.29289C11.4902 7.10536 11.7445 7 12.0098 7C12.275 7 12.5293 7.10536 12.7169 7.29289C12.9044 7.48043 13.0098 7.73478 13.0098 8V11Z" fill="#21272A"/>
</svg>
