<svg width="24" height="24" viewBox="0 0 24 24" fill="none" xmlns="http://www.w3.org/2000/svg">
<path d="M6.00977 2H18.0098C19.0706 2 20.088 2.42143 20.8382 3.17157C21.5883 3.92172 22.0098 4.93913 22.0098 6V18C22.0098 19.0609 21.5883 20.0783 20.8382 20.8284C20.088 21.5786 19.0706 22 18.0098 22H6.00977C4.9489 22 3.93148 21.5786 3.18134 20.8284C2.43119 20.0783 2.00977 19.0609 2.00977 18V6C2.00977 4.93913 2.43119 3.92172 3.18134 3.17157C3.93148 2.42143 4.9489 2 6.00977 2V2ZM6.00977 4C5.47933 4 4.97062 4.21071 4.59555 4.58579C4.22048 4.96086 4.00977 5.46957 4.00977 6V18C4.00977 18.5304 4.22048 19.0391 4.59555 19.4142C4.97062 19.7893 5.47933 20 6.00977 20H18.0098C18.5402 20 19.0489 19.7893 19.424 19.4142C19.7991 19.0391 20.0098 18.5304 20.0098 18V6C20.0098 5.46957 19.7991 4.96086 19.424 4.58579C19.0489 4.21071 18.5402 4 18.0098 4H6.00977ZM10.1818 12L13.7168 15.536C13.8989 15.7246 13.9997 15.9772 13.9974 16.2394C13.9952 16.5016 13.89 16.7524 13.7046 16.9378C13.5192 17.1232 13.2684 17.2284 13.0062 17.2307C12.744 17.233 12.4914 17.1322 12.3028 16.95L8.05977 12.707C7.87229 12.5195 7.76698 12.2652 7.76698 12C7.76698 11.7348 7.87229 11.4805 8.05977 11.293L12.3028 7.05C12.4914 6.86784 12.744 6.76705 13.0062 6.76933C13.2684 6.7716 13.5192 6.87677 13.7046 7.06218C13.89 7.24759 13.9952 7.4984 13.9974 7.7606C13.9997 8.0228 13.8989 8.2754 13.7168 8.464L10.1818 12Z" fill="#21272A"/>
</svg>
