<svg width="24" height="24" viewBox="0 0 24 24" fill="none" xmlns="http://www.w3.org/2000/svg">
<path d="M12.0098 22C6.48677 22 2.00977 17.523 2.00977 12C2.00977 6.477 6.48677 2 12.0098 2C17.5328 2 22.0098 6.477 22.0098 12C22.0098 17.523 17.5328 22 12.0098 22ZM12.0098 20C14.1315 20 16.1663 19.1571 17.6666 17.6569C19.1669 16.1566 20.0098 14.1217 20.0098 12C20.0098 9.87827 19.1669 7.84344 17.6666 6.34315C16.1663 4.84285 14.1315 4 12.0098 4C9.88803 4 7.8532 4.84285 6.35291 6.34315C4.85262 7.84344 4.00977 9.87827 4.00977 12C4.00977 14.1217 4.85262 16.1566 6.35291 17.6569C7.8532 19.1571 9.88803 20 12.0098 20ZM14.0098 10H11.0098C10.7445 10 10.4902 9.89464 10.3027 9.70711C10.1151 9.51957 10.0098 9.26522 10.0098 9C10.0098 8.73478 10.1151 8.48043 10.3027 8.29289C10.4902 8.10536 10.7445 8 11.0098 8H15.0098C15.275 8 15.5293 8.10536 15.7169 8.29289C15.9044 8.48043 16.0098 8.73478 16.0098 9V13C16.0098 13.2652 15.9044 13.5196 15.7169 13.7071C15.5293 13.8946 15.275 14 15.0098 14C14.7445 14 14.4902 13.8946 14.3027 13.7071C14.1151 13.5196 14.0098 13.2652 14.0098 13V10ZM11.0098 13H8.00977C7.74455 13 7.4902 12.8946 7.30266 12.7071C7.11512 12.5196 7.00977 12.2652 7.00977 12C7.00977 11.7348 7.11512 11.4804 7.30266 11.2929C7.4902 11.1054 7.74455 11 8.00977 11H12.0098C12.275 11 12.5293 11.1054 12.7169 11.2929C12.9044 11.4804 13.0098 11.7348 13.0098 12V16C13.0098 16.2652 12.9044 16.5196 12.7169 16.7071C12.5293 16.8946 12.275 17 12.0098 17C11.7445 17 11.4902 16.8946 11.3027 16.7071C11.1151 16.5196 11.0098 16.2652 11.0098 16V13Z" fill="#21272A"/>
</svg>
