<svg width="24" height="24" viewBox="0 0 24 24" fill="none" xmlns="http://www.w3.org/2000/svg">
<path d="M6.00977 2H18.0098C19.0706 2 20.088 2.42143 20.8382 3.17157C21.5883 3.92172 22.0098 4.93913 22.0098 6V18C22.0098 19.0609 21.5883 20.0783 20.8382 20.8284C20.088 21.5786 19.0706 22 18.0098 22H6.00977C4.9489 22 3.93148 21.5786 3.18134 20.8284C2.43119 20.0783 2.00977 19.0609 2.00977 18V6C2.00977 4.93913 2.43119 3.92172 3.18134 3.17157C3.93148 2.42143 4.9489 2 6.00977 2V2ZM6.00977 4C5.47933 4 4.97062 4.21071 4.59555 4.58579C4.22048 4.96086 4.00977 5.46957 4.00977 6V18C4.00977 18.5304 4.22048 19.0391 4.59555 19.4142C4.97062 19.7893 5.47933 20 6.00977 20H18.0098C18.5402 20 19.0489 19.7893 19.424 19.4142C19.7991 19.0391 20.0098 18.5304 20.0098 18V6C20.0098 5.46957 19.7991 4.96086 19.424 4.58579C19.0489 4.21071 18.5402 4 18.0098 4H6.00977ZM14.0098 10H11.0098C10.7445 10 10.4902 9.89464 10.3027 9.70711C10.1151 9.51957 10.0098 9.26522 10.0098 9C10.0098 8.73478 10.1151 8.48043 10.3027 8.29289C10.4902 8.10536 10.7445 8 11.0098 8H15.0098C15.275 8 15.5293 8.10536 15.7169 8.29289C15.9044 8.48043 16.0098 8.73478 16.0098 9V13C16.0098 13.2652 15.9044 13.5196 15.7169 13.7071C15.5293 13.8946 15.275 14 15.0098 14C14.7445 14 14.4902 13.8946 14.3027 13.7071C14.1151 13.5196 14.0098 13.2652 14.0098 13V10ZM11.0098 13H8.00977C7.74455 13 7.4902 12.8946 7.30266 12.7071C7.11512 12.5196 7.00977 12.2652 7.00977 12C7.00977 11.7348 7.11512 11.4804 7.30266 11.2929C7.4902 11.1054 7.74455 11 8.00977 11H12.0098C12.275 11 12.5293 11.1054 12.7169 11.2929C12.9044 11.4804 13.0098 11.7348 13.0098 12V16C13.0098 16.2652 12.9044 16.5196 12.7169 16.7071C12.5293 16.8946 12.275 17 12.0098 17C11.7445 17 11.4902 16.8946 11.3027 16.7071C11.1151 16.5196 11.0098 16.2652 11.0098 16V13Z" fill="#21272A"/>
</svg>
