<svg width="24" height="24" viewBox="0 0 24 24" fill="none" xmlns="http://www.w3.org/2000/svg">
<path d="M12.0808 10.314L17.0308 5.364C17.123 5.26849 17.2334 5.19231 17.3554 5.1399C17.4774 5.08749 17.6086 5.05991 17.7414 5.05875C17.8741 5.0576 18.0058 5.0829 18.1287 5.13318C18.2516 5.18346 18.3633 5.25772 18.4572 5.35161C18.5511 5.4455 18.6253 5.55715 18.6756 5.68005C18.7259 5.80295 18.7512 5.93463 18.75 6.06741C18.7489 6.20018 18.7213 6.3314 18.6689 6.45341C18.6165 6.57541 18.5403 6.68576 18.4448 6.778L12.7878 12.435C12.6002 12.6225 12.3459 12.7278 12.0808 12.7278C11.8156 12.7278 11.5613 12.6225 11.3738 12.435L5.71676 6.778C5.62125 6.68576 5.54507 6.57541 5.49266 6.45341C5.44025 6.3314 5.41267 6.20018 5.41151 6.06741C5.41036 5.93463 5.43566 5.80295 5.48594 5.68005C5.53622 5.55715 5.61048 5.4455 5.70437 5.35161C5.79826 5.25772 5.90991 5.18346 6.03281 5.13318C6.15571 5.0829 6.28739 5.0576 6.42017 5.05875C6.55294 5.05991 6.68416 5.08749 6.80617 5.1399C6.92817 5.19231 7.03852 5.26849 7.13076 5.364L12.0808 10.314ZM12.0808 16.314L17.0308 11.364C17.123 11.2685 17.2334 11.1923 17.3554 11.1399C17.4774 11.0875 17.6086 11.0599 17.7414 11.0588C17.8741 11.0576 18.0058 11.0829 18.1287 11.1332C18.2516 11.1835 18.3633 11.2577 18.4572 11.3516C18.5511 11.4455 18.6253 11.5572 18.6756 11.68C18.7259 11.8029 18.7512 11.9346 18.75 12.0674C18.7489 12.2002 18.7213 12.3314 18.6689 12.4534C18.6165 12.5754 18.5403 12.6858 18.4448 12.778L12.7878 18.435C12.6002 18.6225 12.3459 18.7278 12.0808 18.7278C11.8156 18.7278 11.5613 18.6225 11.3738 18.435L5.71676 12.778C5.62125 12.6858 5.54507 12.5754 5.49266 12.4534C5.44025 12.3314 5.41267 12.2002 5.41151 12.0674C5.41036 11.9346 5.43566 11.8029 5.48594 11.68C5.53622 11.5572 5.61048 11.4455 5.70437 11.3516C5.79826 11.2577 5.90991 11.1835 6.03281 11.1332C6.15571 11.0829 6.28739 11.0576 6.42017 11.0588C6.55294 11.0599 6.68416 11.0875 6.80617 11.1399C6.92817 11.1923 7.03852 11.2685 7.13076 11.364L12.0808 16.314Z" fill="#21272A"/>
</svg>
