<svg width="24" height="24" viewBox="0 0 24 24" fill="none" xmlns="http://www.w3.org/2000/svg">
<path d="M6.00977 2H18.0098C19.0706 2 20.088 2.42143 20.8382 3.17157C21.5883 3.92172 22.0098 4.93913 22.0098 6V18C22.0098 19.0609 21.5883 20.0783 20.8382 20.8284C20.088 21.5786 19.0706 22 18.0098 22H6.00977C4.9489 22 3.93148 21.5786 3.18134 20.8284C2.43119 20.0783 2.00977 19.0609 2.00977 18V6C2.00977 4.93913 2.43119 3.92172 3.18134 3.17157C3.93148 2.42143 4.9489 2 6.00977 2V2ZM6.00977 4C5.47933 4 4.97062 4.21071 4.59555 4.58579C4.22048 4.96086 4.00977 5.46957 4.00977 6V18C4.00977 18.5304 4.22048 19.0391 4.59555 19.4142C4.97062 19.7893 5.47933 20 6.00977 20H18.0098C18.5402 20 19.0489 19.7893 19.424 19.4142C19.7991 19.0391 20.0098 18.5304 20.0098 18V6C20.0098 5.46957 19.7991 4.96086 19.424 4.58579C19.0489 4.21071 18.5402 4 18.0098 4H6.00977ZM13.0098 11H8.00977C7.74455 11 7.4902 10.8946 7.30266 10.7071C7.11512 10.5196 7.00977 10.2652 7.00977 10C7.00977 9.73478 7.11512 9.48043 7.30266 9.29289C7.4902 9.10536 7.74455 9 8.00977 9H14.0098C14.275 9 14.5293 9.10536 14.7169 9.29289C14.9044 9.48043 15.0098 9.73478 15.0098 10V16C15.0098 16.2652 14.9044 16.5196 14.7169 16.7071C14.5293 16.8946 14.275 17 14.0098 17C13.7445 17 13.4902 16.8946 13.3027 16.7071C13.1151 16.5196 13.0098 16.2652 13.0098 16V11Z" fill="#21272A"/>
</svg>
