<svg width="24" height="24" viewBox="0 0 24 24" fill="none" xmlns="http://www.w3.org/2000/svg">
<path d="M6.00977 2H18.0098C19.0706 2 20.088 2.42143 20.8382 3.17157C21.5883 3.92172 22.0098 4.93913 22.0098 6V18C22.0098 19.0609 21.5883 20.0783 20.8382 20.8284C20.088 21.5786 19.0706 22 18.0098 22H6.00977C4.9489 22 3.93148 21.5786 3.18134 20.8284C2.43119 20.0783 2.00977 19.0609 2.00977 18V6C2.00977 4.93913 2.43119 3.92172 3.18134 3.17157C3.93148 2.42143 4.9489 2 6.00977 2V2ZM6.00977 4C5.47933 4 4.97062 4.21071 4.59555 4.58579C4.22048 4.96086 4.00977 5.46957 4.00977 6V18C4.00977 18.5304 4.22048 19.0391 4.59555 19.4142C4.97062 19.7893 5.47933 20 6.00977 20H18.0098C18.5402 20 19.0489 19.7893 19.424 19.4142C19.7991 19.0391 20.0098 18.5304 20.0098 18V6C20.0098 5.46957 19.7991 4.96086 19.424 4.58579C19.0489 4.21071 18.5402 4 18.0098 4H6.00977ZM10.0098 10V13C10.0098 13.2652 9.90441 13.5196 9.71687 13.7071C9.52934 13.8946 9.27498 14 9.00977 14C8.74455 14 8.4902 13.8946 8.30266 13.7071C8.11512 13.5196 8.00977 13.2652 8.00977 13V9C8.00977 8.73478 8.11512 8.48043 8.30266 8.29289C8.4902 8.10536 8.74455 8 9.00977 8H13.0098C13.275 8 13.5293 8.10536 13.7169 8.29289C13.9044 8.48043 14.0098 8.73478 14.0098 9C14.0098 9.26522 13.9044 9.51957 13.7169 9.70711C13.5293 9.89464 13.275 10 13.0098 10H10.0098ZM13.0098 13V16C13.0098 16.2652 12.9044 16.5196 12.7169 16.7071C12.5293 16.8946 12.275 17 12.0098 17C11.7445 17 11.4902 16.8946 11.3027 16.7071C11.1151 16.5196 11.0098 16.2652 11.0098 16V12C11.0098 11.7348 11.1151 11.4804 11.3027 11.2929C11.4902 11.1054 11.7445 11 12.0098 11H16.0098C16.275 11 16.5293 11.1054 16.7169 11.2929C16.9044 11.4804 17.0098 11.7348 17.0098 12C17.0098 12.2652 16.9044 12.5196 16.7169 12.7071C16.5293 12.8946 16.275 13 16.0098 13H13.0098Z" fill="#21272A"/>
</svg>
