<svg width="24" height="24" viewBox="0 0 24 24" fill="none" xmlns="http://www.w3.org/2000/svg">
<path d="M6.00977 2H18.0098C19.0706 2 20.088 2.42143 20.8382 3.17157C21.5883 3.92172 22.0098 4.93913 22.0098 6V18C22.0098 19.0609 21.5883 20.0783 20.8382 20.8284C20.088 21.5786 19.0706 22 18.0098 22H6.00977C4.9489 22 3.93148 21.5786 3.18134 20.8284C2.43119 20.0783 2.00977 19.0609 2.00977 18V6C2.00977 4.93913 2.43119 3.92172 3.18134 3.17157C3.93148 2.42143 4.9489 2 6.00977 2V2ZM6.00977 4C5.47933 4 4.97062 4.21071 4.59555 4.58579C4.22048 4.96086 4.00977 5.46957 4.00977 6V18C4.00977 18.5304 4.22048 19.0391 4.59555 19.4142C4.97062 19.7893 5.47933 20 6.00977 20H18.0098C18.5402 20 19.0489 19.7893 19.424 19.4142C19.7991 19.0391 20.0098 18.5304 20.0098 18V6C20.0098 5.46957 19.7991 4.96086 19.424 4.58579C19.0489 4.21071 18.5402 4 18.0098 4H6.00977ZM12.0098 9.382L9.88877 11.503C9.70029 11.6853 9.44776 11.7863 9.18556 11.7842C8.92336 11.7821 8.67247 11.6771 8.48693 11.4918C8.30139 11.3065 8.19604 11.0558 8.19358 10.7936C8.19112 10.5314 8.29174 10.2787 8.47377 10.09L11.3028 7.262C11.4903 7.07453 11.7446 6.96921 12.0098 6.96921C12.2749 6.96921 12.5292 7.07453 12.7168 7.262L15.5458 10.09C15.6386 10.1829 15.7122 10.2932 15.7625 10.4146C15.8127 10.5359 15.8385 10.666 15.8385 10.7974C15.8384 10.9287 15.8125 11.0588 15.7622 11.1801C15.7119 11.3014 15.6382 11.4117 15.5453 11.5045C15.4524 11.5973 15.3421 11.671 15.2207 11.7212C15.0993 11.7714 14.9693 11.7972 14.8379 11.7972C14.7066 11.7972 14.5765 11.7712 14.4552 11.7209C14.3338 11.6706 14.2236 11.5969 14.1308 11.504L12.0098 9.383V9.382ZM12.0098 14.382L9.88877 16.503C9.79592 16.5959 9.68569 16.6696 9.56435 16.7199C9.44302 16.7702 9.31297 16.7962 9.18162 16.7962C9.05027 16.7962 8.9202 16.7704 8.79883 16.7202C8.67746 16.67 8.56718 16.5963 8.47427 16.5035C8.38136 16.4107 8.30764 16.3004 8.25733 16.1791C8.20703 16.0578 8.18111 15.9277 8.18106 15.7964C8.18102 15.665 8.20684 15.5349 8.25706 15.4136C8.30729 15.2922 8.38092 15.1819 8.47377 15.089L11.3028 12.261C11.4903 12.0735 11.7446 11.9682 12.0098 11.9682C12.2749 11.9682 12.5292 12.0735 12.7168 12.261L15.5458 15.089C15.6386 15.1819 15.7122 15.2922 15.7625 15.4136C15.8127 15.5349 15.8385 15.665 15.8385 15.7964C15.8384 15.9277 15.8125 16.0578 15.7622 16.1791C15.7119 16.3004 15.6382 16.4107 15.5453 16.5035C15.4524 16.5963 15.3421 16.67 15.2207 16.7202C15.0993 16.7704 14.9693 16.7962 14.8379 16.7962C14.7066 16.7962 14.5765 16.7702 14.4552 16.7199C14.3338 16.6696 14.2236 16.5959 14.1308 16.503L12.0098 14.383V14.382Z" fill="#21272A"/>
</svg>
