<svg width="24" height="24" viewBox="0 0 24 24" fill="none" xmlns="http://www.w3.org/2000/svg">
<path d="M16.3238 12.071L11.3738 7.12102C11.1916 6.93242 11.0908 6.67982 11.0931 6.41762C11.0954 6.15542 11.2005 5.90461 11.386 5.7192C11.5714 5.53379 11.8222 5.42863 12.0844 5.42635C12.3466 5.42407 12.5992 5.52486 12.7878 5.70702L18.4448 11.364C18.6322 11.5515 18.7376 11.8059 18.7376 12.071C18.7376 12.3362 18.6322 12.5905 18.4448 12.778L12.7878 18.435C12.5992 18.6172 12.3466 18.718 12.0844 18.7157C11.8222 18.7134 11.5714 18.6082 11.386 18.4228C11.2005 18.2374 11.0954 17.9866 11.0931 17.7244C11.0908 17.4622 11.1916 17.2096 11.3738 17.021L16.3238 12.071ZM10.3238 12.071L5.37377 7.12102C5.27826 7.02877 5.20208 6.91843 5.14967 6.79643C5.09726 6.67442 5.06967 6.5432 5.06852 6.41042C5.06737 6.27764 5.09267 6.14596 5.14295 6.02307C5.19323 5.90017 5.26748 5.78852 5.36137 5.69463C5.45527 5.60073 5.56692 5.52648 5.68982 5.4762C5.81271 5.42592 5.94439 5.40062 6.07717 5.40177C6.20995 5.40292 6.34117 5.43051 6.46317 5.48292C6.58518 5.53533 6.69552 5.61151 6.78777 5.70702L12.4448 11.364C12.6322 11.5515 12.7376 11.8059 12.7376 12.071C12.7376 12.3362 12.6322 12.5905 12.4448 12.778L6.78777 18.435C6.59917 18.6172 6.34657 18.718 6.08437 18.7157C5.82217 18.7134 5.57136 18.6082 5.38595 18.4228C5.20054 18.2374 5.09537 17.9866 5.0931 17.7244C5.09082 17.4622 5.19161 17.2096 5.37377 17.021L10.3238 12.071Z" fill="#21272A"/>
</svg>
