<svg width="24" height="24" viewBox="0 0 24 24" fill="none" xmlns="http://www.w3.org/2000/svg">
<path d="M12.0098 22C6.48677 22 2.00977 17.523 2.00977 12C2.00977 6.477 6.48677 2 12.0098 2C17.5328 2 22.0098 6.477 22.0098 12C22.0098 17.523 17.5328 22 12.0098 22ZM12.0098 20C14.1315 20 16.1663 19.1571 17.6666 17.6569C19.1669 16.1566 20.0098 14.1217 20.0098 12C20.0098 9.87827 19.1669 7.84344 17.6666 6.34315C16.1663 4.84285 14.1315 4 12.0098 4C9.88803 4 7.8532 4.84285 6.35291 6.34315C4.85262 7.84344 4.00977 9.87827 4.00977 12C4.00977 14.1217 4.85262 16.1566 6.35291 17.6569C7.8532 19.1571 9.88803 20 12.0098 20ZM10.0098 10V13C10.0098 13.2652 9.90441 13.5196 9.71687 13.7071C9.52934 13.8946 9.27498 14 9.00977 14C8.74455 14 8.4902 13.8946 8.30266 13.7071C8.11512 13.5196 8.00977 13.2652 8.00977 13V9C8.00977 8.73478 8.11512 8.48043 8.30266 8.29289C8.4902 8.10536 8.74455 8 9.00977 8H13.0098C13.275 8 13.5293 8.10536 13.7169 8.29289C13.9044 8.48043 14.0098 8.73478 14.0098 9C14.0098 9.26522 13.9044 9.51957 13.7169 9.70711C13.5293 9.89464 13.275 10 13.0098 10H10.0098ZM13.0098 13V16C13.0098 16.2652 12.9044 16.5196 12.7169 16.7071C12.5293 16.8946 12.275 17 12.0098 17C11.7445 17 11.4902 16.8946 11.3027 16.7071C11.1151 16.5196 11.0098 16.2652 11.0098 16V12C11.0098 11.7348 11.1151 11.4804 11.3027 11.2929C11.4902 11.1054 11.7445 11 12.0098 11H16.0098C16.275 11 16.5293 11.1054 16.7169 11.2929C16.9044 11.4804 17.0098 11.7348 17.0098 12C17.0098 12.2652 16.9044 12.5196 16.7169 12.7071C16.5293 12.8946 16.275 13 16.0098 13H13.0098Z" fill="#21272A"/>
</svg>
