<svg width="24" height="24" viewBox="0 0 24 24" fill="none" xmlns="http://www.w3.org/2000/svg">
<path d="M12 22C6.477 22 2 17.523 2 12C2 6.477 6.477 2 12 2C17.523 2 22 6.477 22 12C22 17.523 17.523 22 12 22ZM12 20C14.1217 20 16.1566 19.1571 17.6569 17.6569C19.1571 16.1566 20 14.1217 20 12C20 9.87827 19.1571 7.84344 17.6569 6.34315C16.1566 4.84285 14.1217 4 12 4C9.87827 4 7.84344 4.84285 6.34315 6.34315C4.84285 7.84344 4 9.87827 4 12C4 14.1217 4.84285 16.1566 6.34315 17.6569C7.84344 19.1571 9.87827 20 12 20ZM13.828 12L10.293 8.464C10.1108 8.2754 10.01 8.0228 10.0123 7.7606C10.0146 7.4984 10.1198 7.24759 10.3052 7.06218C10.4906 6.87677 10.7414 6.7716 11.0036 6.76933C11.2658 6.76705 11.5184 6.86784 11.707 7.05L15.95 11.293C16.1375 11.4805 16.2428 11.7348 16.2428 12C16.2428 12.2652 16.1375 12.5195 15.95 12.707L11.707 16.95C11.6148 17.0455 11.5044 17.1217 11.3824 17.1741C11.2604 17.2265 11.1292 17.2541 10.9964 17.2552C10.8636 17.2564 10.7319 17.2311 10.609 17.1808C10.4861 17.1305 10.3745 17.0563 10.2806 16.9624C10.1867 16.8685 10.1125 16.7569 10.0622 16.634C10.0119 16.5111 9.9866 16.3794 9.98775 16.2466C9.9889 16.1138 10.0165 15.9826 10.0689 15.8606C10.1213 15.7386 10.1975 15.6282 10.293 15.536L13.828 12Z" fill="#21272A"/>
</svg>
