<svg width="24" height="24" viewBox="0 0 24 24" fill="none" xmlns="http://www.w3.org/2000/svg">
<path d="M12.0098 22C6.48677 22 2.00977 17.523 2.00977 12C2.00977 6.477 6.48677 2 12.0098 2C17.5328 2 22.0098 6.477 22.0098 12C22.0098 17.523 17.5328 22 12.0098 22ZM12.0098 20C14.1315 20 16.1663 19.1571 17.6666 17.6569C19.1669 16.1566 20.0098 14.1217 20.0098 12C20.0098 9.87827 19.1669 7.84344 17.6666 6.34315C16.1663 4.84285 14.1315 4 12.0098 4C9.88803 4 7.8532 4.84285 6.35291 6.34315C4.85262 7.84344 4.00977 9.87827 4.00977 12C4.00977 14.1217 4.85262 16.1566 6.35291 17.6569C7.8532 19.1571 9.88803 20 12.0098 20ZM8.83777 12L10.9598 14.121C11.1474 14.3085 11.2529 14.5629 11.253 14.8281C11.2531 15.0934 11.1478 15.3479 10.9603 15.5355C10.7728 15.7231 10.5184 15.8286 10.2531 15.8287C9.98785 15.8288 9.73341 15.7235 9.54577 15.536L6.71677 12.707C6.52929 12.5195 6.42398 12.2652 6.42398 12C6.42398 11.7348 6.52929 11.4805 6.71677 11.293L9.54577 8.464C9.63874 8.37116 9.74909 8.29753 9.87052 8.24734C9.99195 8.19714 10.1221 8.17135 10.2535 8.17144C10.3849 8.17154 10.515 8.19751 10.6363 8.24788C10.7577 8.29825 10.8679 8.37202 10.9608 8.465C11.0536 8.55798 11.1272 8.66833 11.1774 8.78976C11.2276 8.91119 11.2534 9.04131 11.2533 9.17271C11.2532 9.3041 11.2273 9.43419 11.1769 9.55555C11.1265 9.67691 11.0527 9.78716 10.9598 9.88L8.83777 12ZM13.8278 12L15.9488 14.121C16.1364 14.3085 16.2419 14.5629 16.242 14.8281C16.2421 15.0934 16.1368 15.3479 15.9493 15.5355C15.7618 15.7231 15.5074 15.8286 15.2421 15.8287C14.9768 15.8288 14.7224 15.7235 14.5348 15.536L11.7068 12.707C11.5193 12.5195 11.414 12.2652 11.414 12C11.414 11.7348 11.5193 11.4805 11.7068 11.293L14.5348 8.464C14.7225 8.27636 14.9772 8.171 15.2426 8.17109C15.5081 8.17118 15.7626 8.27673 15.9503 8.4645C16.1379 8.65227 16.2433 8.9069 16.2432 9.17235C16.2431 9.43781 16.1375 9.69236 15.9498 9.88L13.8278 12Z" fill="#21272A"/>
</svg>
