<svg width="24" height="24" viewBox="0 0 24 24" fill="none" xmlns="http://www.w3.org/2000/svg">
<path d="M12.0808 7.32797L7.13076 12.278C6.94216 12.4601 6.68956 12.5609 6.42736 12.5586C6.16517 12.5564 5.91435 12.4512 5.72895 12.2658C5.54354 12.0804 5.43837 11.8296 5.43609 11.5674C5.43381 11.3052 5.53461 11.0526 5.71676 10.864L11.3738 5.20697C11.5613 5.0195 11.8156 4.91418 12.0808 4.91418C12.3459 4.91418 12.6002 5.0195 12.7878 5.20697L18.4448 10.864C18.6269 11.0526 18.7277 11.3052 18.7254 11.5674C18.7232 11.8296 18.618 12.0804 18.4326 12.2658C18.2472 12.4512 17.9964 12.5564 17.7342 12.5586C17.472 12.5609 17.2194 12.4601 17.0308 12.278L12.0808 7.32797ZM12.0808 13.328L7.13076 18.278C7.03852 18.3735 6.92817 18.4497 6.80617 18.5021C6.68416 18.5545 6.55294 18.5821 6.42017 18.5832C6.28739 18.5844 6.15571 18.5591 6.03281 18.5088C5.90991 18.4585 5.79826 18.3843 5.70437 18.2904C5.61048 18.1965 5.53622 18.0848 5.48594 17.9619C5.43566 17.839 5.41036 17.7073 5.41151 17.5746C5.41267 17.4418 5.44025 17.3106 5.49266 17.1886C5.54507 17.0666 5.62125 16.9562 5.71676 16.864L11.3738 11.207C11.5613 11.0195 11.8156 10.9142 12.0808 10.9142C12.3459 10.9142 12.6002 11.0195 12.7878 11.207L18.4448 16.864C18.6269 17.0526 18.7277 17.3052 18.7254 17.5674C18.7232 17.8296 18.618 18.0804 18.4326 18.2658C18.2472 18.4512 17.9964 18.5564 17.7342 18.5586C17.472 18.5609 17.2194 18.4601 17.0308 18.278L12.0808 13.328Z" fill="#21272A"/>
</svg>
