<svg width="24" height="24" viewBox="0 0 24 24" fill="none" xmlns="http://www.w3.org/2000/svg">
<path d="M15.0098 15V8C15.0098 7.73478 15.1151 7.48043 15.3027 7.29289C15.4902 7.10536 15.7445 7 16.0098 7C16.275 7 16.5293 7.10536 16.7169 7.29289C16.9044 7.48043 17.0098 7.73478 17.0098 8V16C17.0098 16.2652 16.9044 16.5196 16.7169 16.7071C16.5293 16.8946 16.275 17 16.0098 17H8.00977C7.74455 17 7.4902 16.8946 7.30266 16.7071C7.11512 16.5196 7.00977 16.2652 7.00977 16C7.00977 15.7348 7.11512 15.4804 7.30266 15.2929C7.4902 15.1054 7.74455 15 8.00977 15H15.0098Z" fill="#21272A"/>
</svg>
