<svg width="24" height="24" viewBox="0 0 24 24" fill="none" xmlns="http://www.w3.org/2000/svg">
<path d="M13.0098 13H15.0098C15.275 13 15.5293 13.1054 15.7169 13.2929C15.9044 13.4804 16.0098 13.7348 16.0098 14C16.0098 14.2652 15.9044 14.5196 15.7169 14.7071C15.5293 14.8946 15.275 15 15.0098 15H12.0098C11.8783 15.0004 11.7481 14.9748 11.6266 14.9247C11.5051 14.8746 11.3947 14.8009 11.3018 14.708C11.2088 14.6151 11.1352 14.5047 11.0851 14.3832C11.035 14.2616 11.0094 14.1314 11.0098 14V10C11.0098 9.73478 11.1151 9.48043 11.3027 9.29289C11.4902 9.10536 11.7446 9 12.0098 9C12.275 9 12.5293 9.10536 12.7169 9.29289C12.9044 9.48043 13.0098 9.73478 13.0098 10V13ZM5.87877 8.861C5.65028 8.75503 5.45215 8.59324 5.30266 8.39053C5.15317 8.18783 5.05713 7.95075 5.02339 7.70115C4.98965 7.45156 5.0193 7.19749 5.10961 6.96237C5.19993 6.72725 5.34799 6.51866 5.54014 6.35584C5.7323 6.19301 5.96236 6.08119 6.20911 6.03069C6.45586 5.98019 6.71135 5.99263 6.95203 6.06687C7.1927 6.14112 7.4108 6.27477 7.58623 6.4555C7.76165 6.63623 7.88873 6.85822 7.95577 7.101C8.31614 6.88907 8.69264 6.70584 9.08177 6.553C8.64443 6.2491 8.31556 5.81348 8.1431 5.30962C7.97063 4.80576 7.96357 4.25999 8.12294 3.75184C8.28232 3.24368 8.5998 2.7997 9.02914 2.48459C9.45847 2.16948 9.97721 1.9997 10.5098 2H13.5098C14.0423 1.9997 14.5611 2.16948 14.9904 2.48459C15.4197 2.7997 15.7372 3.24368 15.8966 3.75184C16.056 4.25999 16.0489 4.80576 15.8764 5.30962C15.704 5.81348 15.3751 6.2491 14.9378 6.553C15.3278 6.707 15.7048 6.89 16.0638 7.101C16.1308 6.85822 16.2579 6.63623 16.4333 6.4555C16.6087 6.27477 16.8268 6.14112 17.0675 6.06687C17.3082 5.99263 17.5637 5.98019 17.8104 6.03069C18.0572 6.08119 18.2872 6.19301 18.4794 6.35584C18.6715 6.51866 18.8196 6.72725 18.9099 6.96237C19.0002 7.19749 19.0299 7.45156 18.9961 7.70115C18.9624 7.95075 18.8664 8.18783 18.7169 8.39053C18.5674 8.59324 18.3693 8.75503 18.1408 8.861C19.1186 10.0278 19.7433 11.4495 19.9413 12.959C20.1393 14.4685 19.9025 16.0031 19.2587 17.3827C18.6149 18.7623 17.5908 19.9295 16.3066 20.7473C15.0225 21.5651 13.5317 21.9996 12.0093 21.9996C10.4868 21.9996 8.99603 21.5651 7.7119 20.7473C6.42778 19.9295 5.40367 18.7623 4.75984 17.3827C4.11601 16.0031 3.87921 14.4685 4.07723 12.959C4.27525 11.4495 4.89989 10.0278 5.87777 8.861H5.87877ZM12.0098 20C13.6011 20 15.1272 19.3679 16.2524 18.2426C17.3776 17.1174 18.0098 15.5913 18.0098 14C18.0098 12.4087 17.3776 10.8826 16.2524 9.75736C15.1272 8.63214 13.6011 8 12.0098 8C10.4185 8 8.89234 8.63214 7.76713 9.75736C6.64191 10.8826 6.00977 12.4087 6.00977 14C6.00977 15.5913 6.64191 17.1174 7.76713 18.2426C8.89234 19.3679 10.4185 20 12.0098 20ZM10.5098 4C10.3772 4 10.25 4.05268 10.1562 4.14645C10.0624 4.24022 10.0098 4.36739 10.0098 4.5C10.0098 4.63261 10.0624 4.75979 10.1562 4.85355C10.25 4.94732 10.3772 5 10.5098 5H13.5098C13.6424 5 13.7696 4.94732 13.8633 4.85355C13.9571 4.75979 14.0098 4.63261 14.0098 4.5C14.0098 4.36739 13.9571 4.24022 13.8633 4.14645C13.7696 4.05268 13.6424 4 13.5098 4H10.5098Z" fill="#21272A"/>
</svg>
