<svg width="24" height="24" viewBox="0 0 24 24" fill="none" xmlns="http://www.w3.org/2000/svg">
<path d="M12.8358 8.5L10.4598 15.809C10.4203 15.9352 10.3561 16.0523 10.2711 16.1536C10.186 16.2548 10.0817 16.3382 9.96423 16.3989C9.84674 16.4595 9.71837 16.4963 9.58657 16.507C9.45477 16.5178 9.32215 16.5023 9.19639 16.4614C9.07063 16.4205 8.95422 16.3551 8.8539 16.269C8.75358 16.1828 8.67134 16.0776 8.61195 15.9595C8.55256 15.8413 8.51719 15.7126 8.50789 15.5807C8.49858 15.4488 8.51554 15.3163 8.55777 15.191L10.7328 8.5H7.50977C7.24455 8.5 6.9902 8.39464 6.80266 8.20711C6.61512 8.01957 6.50977 7.76522 6.50977 7.5C6.50977 7.23478 6.61512 6.98043 6.80266 6.79289C6.9902 6.60536 7.24455 6.5 7.50977 6.5H15.5098C15.775 6.5 16.0293 6.60536 16.2169 6.79289C16.4044 6.98043 16.5098 7.23478 16.5098 7.5C16.5098 7.76522 16.4044 8.01957 16.2169 8.20711C16.0293 8.39464 15.775 8.5 15.5098 8.5H12.8358ZM16.1658 14.743L16.8738 15.45C16.9693 15.5422 17.0455 15.6526 17.0979 15.7746C17.1503 15.8966 17.1779 16.0278 17.179 16.1606C17.1802 16.2934 17.1549 16.4251 17.1046 16.548C17.0543 16.6708 16.9801 16.7825 16.8862 16.8764C16.7923 16.9703 16.6806 17.0445 16.5577 17.0948C16.4348 17.1451 16.3031 17.1704 16.1704 17.1693C16.0376 17.1681 15.9064 17.1405 15.7844 17.0881C15.6624 17.0357 15.552 16.9595 15.4598 16.864L14.7528 16.157L14.0458 16.864C13.8583 17.0518 13.6038 17.1574 13.3385 17.1576C13.0731 17.1577 12.8185 17.0525 12.6308 16.865C12.443 16.6775 12.3374 16.4231 12.3372 16.1577C12.337 15.8923 12.4423 15.6378 12.6298 15.45L13.3368 14.743L12.6298 14.036C12.442 13.8482 12.3365 13.5936 12.3365 13.328C12.3365 13.0624 12.442 12.8078 12.6298 12.62C12.8175 12.4322 13.0722 12.3267 13.3378 12.3267C13.6033 12.3267 13.858 12.4322 14.0458 12.62L14.7528 13.327L15.4598 12.62C15.6474 12.4325 15.9018 12.3272 16.1671 12.3273C16.4324 12.3274 16.6868 12.4329 16.8743 12.6205C17.0618 12.8081 17.1671 13.0626 17.167 13.3279C17.1669 13.5931 17.0614 13.8475 16.8738 14.035L16.1668 14.742L16.1658 14.743Z" fill="#21272A"/>
</svg>
