<svg width="24" height="24" viewBox="0 0 24 24" fill="none" xmlns="http://www.w3.org/2000/svg">
<path d="M10.0098 4V6H14.0098V4H10.0098ZM16.0098 4H17.0098C17.5402 4 18.0489 4.21071 18.424 4.58579C18.7991 4.96086 19.0098 5.46957 19.0098 6V20C19.0098 20.5304 18.7991 21.0391 18.424 21.4142C18.0489 21.7893 17.5402 22 17.0098 22H7.00977C6.47933 22 5.97062 21.7893 5.59555 21.4142C5.22048 21.0391 5.00977 20.5304 5.00977 20V6C5.00977 5.46957 5.22048 4.96086 5.59555 4.58579C5.97062 4.21071 6.47933 4 7.00977 4H8.00977C8.00977 3.46957 8.22048 2.96086 8.59555 2.58579C8.97062 2.21071 9.47933 2 10.0098 2H14.0098C14.5402 2 15.0489 2.21071 15.424 2.58579C15.7991 2.96086 16.0098 3.46957 16.0098 4ZM16.0098 6C16.0098 6.53043 15.7991 7.03914 15.424 7.41421C15.0489 7.78929 14.5402 8 14.0098 8H10.0098C9.47933 8 8.97062 7.78929 8.59555 7.41421C8.22048 7.03914 8.00977 6.53043 8.00977 6H7.00977V20H17.0098V6H16.0098ZM9.00977 10H15.0098C15.275 10 15.5293 10.1054 15.7169 10.2929C15.9044 10.4804 16.0098 10.7348 16.0098 11C16.0098 11.2652 15.9044 11.5196 15.7169 11.7071C15.5293 11.8946 15.275 12 15.0098 12H9.00977C8.74455 12 8.4902 11.8946 8.30266 11.7071C8.11512 11.5196 8.00977 11.2652 8.00977 11C8.00977 10.7348 8.11512 10.4804 8.30266 10.2929C8.4902 10.1054 8.74455 10 9.00977 10ZM9.00977 15H15.0098C15.275 15 15.5293 15.1054 15.7169 15.2929C15.9044 15.4804 16.0098 15.7348 16.0098 16C16.0098 16.2652 15.9044 16.5196 15.7169 16.7071C15.5293 16.8946 15.275 17 15.0098 17H9.00977C8.74455 17 8.4902 16.8946 8.30266 16.7071C8.11512 16.5196 8.00977 16.2652 8.00977 16C8.00977 15.7348 8.11512 15.4804 8.30266 15.2929C8.4902 15.1054 8.74455 15 9.00977 15Z" fill="#21272A"/>
</svg>
