<svg width="24" height="24" viewBox="0 0 24 24" fill="none" xmlns="http://www.w3.org/2000/svg">
<path d="M6.00977 2H18.0098C19.0706 2 20.088 2.42143 20.8382 3.17157C21.5883 3.92172 22.0098 4.93913 22.0098 6V18C22.0098 19.0609 21.5883 20.0783 20.8382 20.8284C20.088 21.5786 19.0706 22 18.0098 22H6.00977C4.9489 22 3.93148 21.5786 3.18134 20.8284C2.43119 20.0783 2.00977 19.0609 2.00977 18V6C2.00977 4.93913 2.43119 3.92172 3.18134 3.17157C3.93148 2.42143 4.9489 2 6.00977 2V2ZM6.00977 4C5.47933 4 4.97062 4.21071 4.59555 4.58579C4.22048 4.96086 4.00977 5.46957 4.00977 6V18C4.00977 18.5304 4.22048 19.0391 4.59555 19.4142C4.97062 19.7893 5.47933 20 6.00977 20H18.0098C18.5402 20 19.0489 19.7893 19.424 19.4142C19.7991 19.0391 20.0098 18.5304 20.0098 18V6C20.0098 5.46957 19.7991 4.96086 19.424 4.58579C19.0489 4.21071 18.5402 4 18.0098 4H6.00977ZM13.4238 12L16.2528 14.828C16.4404 15.0156 16.5458 15.2701 16.5458 15.5355C16.5458 15.8009 16.4404 16.0554 16.2528 16.243C16.0651 16.4306 15.8106 16.5361 15.5453 16.5361C15.2799 16.5361 15.0254 16.4306 14.8378 16.243L12.0098 13.414L9.18177 16.243C8.99412 16.4306 8.73963 16.5361 8.47427 16.5361C8.2089 16.5361 7.95441 16.4306 7.76677 16.243C7.57912 16.0554 7.47371 15.8009 7.47371 15.5355C7.47371 15.2701 7.57912 15.0156 7.76677 14.828L10.5958 12L7.76677 9.172C7.57912 8.98436 7.47371 8.72986 7.47371 8.4645C7.47371 8.19914 7.57912 7.94464 7.76677 7.757C7.95441 7.56936 8.2089 7.46394 8.47427 7.46394C8.73963 7.46394 8.99412 7.56936 9.18177 7.757L12.0098 10.586L14.8378 7.757C15.0254 7.56936 15.2799 7.46394 15.5453 7.46394C15.8106 7.46394 16.0651 7.56936 16.2528 7.757C16.4404 7.94464 16.5458 8.19914 16.5458 8.4645C16.5458 8.72986 16.4404 8.98436 16.2528 9.172L13.4238 12Z" fill="#21272A"/>
</svg>
