<svg width="48" height="48" viewBox="0 0 48 48" fill="none" xmlns="http://www.w3.org/2000/svg">
<path d="M25.3141 23.9L28.8491 20.364C28.9446 20.2718 29.0208 20.1614 29.0732 20.0394C29.1256 19.9174 29.1532 19.7862 29.1543 19.6534C29.1555 19.5206 29.1302 19.3889 29.0799 19.266C29.0296 19.1432 28.9554 19.0315 28.8615 18.9376C28.7676 18.8437 28.6559 18.7695 28.533 18.7192C28.4101 18.6689 28.2784 18.6436 28.1457 18.6448C28.0129 18.6459 27.8817 18.6735 27.7597 18.7259C27.6377 18.7783 27.5273 18.8545 27.4351 18.95L23.8991 22.485L20.3641 18.95C20.2718 18.8545 20.1615 18.7783 20.0395 18.7259C19.9175 18.6735 19.7862 18.6459 19.6535 18.6448C19.5207 18.6436 19.389 18.6689 19.2661 18.7192C19.1432 18.7695 19.0316 18.8437 18.9377 18.9376C18.8438 19.0315 18.7695 19.1432 18.7192 19.266C18.669 19.3889 18.6437 19.5206 18.6448 19.6534C18.646 19.7862 18.6736 19.9174 18.726 20.0394C18.7784 20.1614 18.8546 20.2718 18.9501 20.364L22.4851 23.899L18.9501 27.435C18.8546 27.5273 18.7784 27.6376 18.726 27.7596C18.6736 27.8816 18.646 28.0128 18.6448 28.1456C18.6437 28.2784 18.669 28.4101 18.7192 28.533C18.7695 28.6559 18.8438 28.7675 18.9377 28.8614C19.0316 28.9553 19.1432 29.0295 19.2661 29.0798C19.389 29.1301 19.5207 29.1554 19.6535 29.1543C19.7862 29.1531 19.9175 29.1255 20.0395 29.0731C20.1615 29.0207 20.2718 28.9445 20.3641 28.849L23.8991 25.314L27.4351 28.849C27.5273 28.9445 27.6377 29.0207 27.7597 29.0731C27.8817 29.1255 28.0129 29.1531 28.1457 29.1543C28.2784 29.1554 28.4101 29.1301 28.533 29.0798C28.6559 29.0295 28.7676 28.9553 28.8615 28.8614C28.9554 28.7675 29.0296 28.6559 29.0799 28.533C29.1302 28.4101 29.1555 28.2784 29.1543 28.1456C29.1532 28.0128 29.1256 27.8816 29.0732 27.7596C29.0208 27.6376 28.9446 27.5273 28.8491 27.435L25.3141 23.899V23.9Z" fill="#21272A"/>
</svg>
