<svg width="24" height="24" viewBox="0 0 24 24" fill="none" xmlns="http://www.w3.org/2000/svg">
<path d="M13.4238 12L16.2528 14.828C16.4404 15.0156 16.5458 15.2701 16.5458 15.5355C16.5458 15.8009 16.4404 16.0554 16.2528 16.243C16.0651 16.4306 15.8106 16.5361 15.5453 16.5361C15.2799 16.5361 15.0254 16.4306 14.8378 16.243L12.0098 13.414L9.18177 16.243C8.99412 16.4306 8.73963 16.5361 8.47427 16.5361C8.2089 16.5361 7.95441 16.4306 7.76677 16.243C7.57912 16.0554 7.47371 15.8009 7.47371 15.5355C7.47371 15.2701 7.57912 15.0156 7.76677 14.828L10.5958 12L7.76677 9.172C7.57912 8.98436 7.47371 8.72986 7.47371 8.4645C7.47371 8.19914 7.57912 7.94464 7.76677 7.757C7.95441 7.56936 8.2089 7.46394 8.47427 7.46394C8.73963 7.46394 8.99412 7.56936 9.18177 7.757L12.0098 10.586L14.8378 7.757C15.0254 7.56936 15.2799 7.46394 15.5453 7.46394C15.8106 7.46394 16.0651 7.56936 16.2528 7.757C16.4404 7.94464 16.5458 8.19914 16.5458 8.4645C16.5458 8.72986 16.4404 8.98436 16.2528 9.172L13.4238 12ZM12.0098 22C6.48677 22 2.00977 17.523 2.00977 12C2.00977 6.477 6.48677 2 12.0098 2C17.5328 2 22.0098 6.477 22.0098 12C22.0098 17.523 17.5328 22 12.0098 22ZM12.0098 20C14.1315 20 16.1663 19.1571 17.6666 17.6569C19.1669 16.1566 20.0098 14.1217 20.0098 12C20.0098 9.87827 19.1669 7.84344 17.6666 6.34315C16.1663 4.84285 14.1315 4 12.0098 4C9.88803 4 7.8532 4.84285 6.35291 6.34315C4.85262 7.84344 4.00977 9.87827 4.00977 12C4.00977 14.1217 4.85262 16.1566 6.35291 17.6569C7.8532 19.1571 9.88803 20 12.0098 20Z" fill="#21272A"/>
</svg>
