<svg width="24" height="24" viewBox="0 0 24 24" fill="none" xmlns="http://www.w3.org/2000/svg">
<path d="M7.00977 16C6.28654 15.9996 5.57202 15.8423 4.91548 15.539C4.25894 15.2357 3.67602 14.7935 3.20694 14.2431C2.73785 13.6926 2.39376 13.0469 2.19842 12.3506C2.00307 11.6542 1.96111 10.9238 2.07543 10.2097C2.18975 9.49553 2.45764 8.8147 2.8606 8.21414C3.26356 7.61358 3.79202 7.10759 4.4095 6.73107C5.02698 6.35455 5.7188 6.11647 6.43722 6.03324C7.15564 5.95002 7.88356 6.02365 8.57077 6.24903C9.20534 4.76666 10.3321 3.54874 11.7607 2.80098C13.1893 2.05322 14.8323 1.82145 16.412 2.14482C17.9917 2.4682 19.4114 3.32689 20.4313 4.57587C21.4512 5.82484 22.0087 7.38755 22.0098 9.00003C22.0098 10.8565 21.2723 12.637 19.9595 13.9498C18.6468 15.2625 16.8663 16 15.0098 16H7.00977ZM7.00977 14H15.0098C15.9127 13.9996 16.7987 13.7547 17.5737 13.2912C18.3487 12.8278 18.9837 12.1631 19.4113 11.3678C19.8389 10.5725 20.0431 9.67626 20.0024 8.77422C19.9616 7.87217 19.6773 6.998 19.1797 6.24453C18.682 5.49106 17.9896 4.8864 17.176 4.49478C16.3624 4.10315 15.4579 3.93916 14.5586 4.02022C13.6593 4.10128 12.7987 4.42437 12.0682 4.95519C11.3377 5.486 10.7646 6.20472 10.4098 7.03503L9.68977 8.72103L7.94777 8.14903C7.53554 8.01403 7.09894 7.97003 6.66807 8.02005C6.23719 8.07008 5.82229 8.21295 5.45197 8.43882C5.08164 8.66468 4.7647 8.96817 4.52299 9.32835C4.28129 9.68854 4.12056 10.0969 4.0519 10.5252C3.98324 10.9535 4.00827 11.3916 4.12527 11.8092C4.24227 12.2269 4.44847 12.6143 4.72963 12.9446C5.01079 13.2749 5.36024 13.5403 5.75388 13.7225C6.14752 13.9047 6.576 13.9994 7.00977 14ZM8.00977 17C8.27498 17 8.52934 17.1054 8.71687 17.2929C8.90441 17.4805 9.00977 17.7348 9.00977 18C9.00977 18.2652 8.90441 18.5196 8.71687 18.7071C8.52934 18.8947 8.27498 19 8.00977 19C7.74455 19 7.4902 18.8947 7.30266 18.7071C7.11512 18.5196 7.00977 18.2652 7.00977 18C7.00977 17.7348 7.11512 17.4805 7.30266 17.2929C7.4902 17.1054 7.74455 17 8.00977 17ZM12.0098 20C12.275 20 12.5293 20.1054 12.7169 20.2929C12.9044 20.4805 13.0098 20.7348 13.0098 21C13.0098 21.2652 12.9044 21.5196 12.7169 21.7071C12.5293 21.8947 12.275 22 12.0098 22C11.7446 22 11.4902 21.8947 11.3027 21.7071C11.1151 21.5196 11.0098 21.2652 11.0098 21C11.0098 20.7348 11.1151 20.4805 11.3027 20.2929C11.4902 20.1054 11.7446 20 12.0098 20ZM16.0098 18C16.275 18 16.5293 18.1054 16.7169 18.2929C16.9044 18.4805 17.0098 18.7348 17.0098 19C17.0098 19.2652 16.9044 19.5196 16.7169 19.7071C16.5293 19.8947 16.275 20 16.0098 20C15.7446 20 15.4902 19.8947 15.3027 19.7071C15.1151 19.5196 15.0098 19.2652 15.0098 19C15.0098 18.7348 15.1151 18.4805 15.3027 18.2929C15.4902 18.1054 15.7446 18 16.0098 18Z" fill="#21272A"/>
</svg>
