<svg width="24" height="24" viewBox="0 0 24 24" fill="none" xmlns="http://www.w3.org/2000/svg">
<path d="M15.0098 15.5C14.7446 15.5 14.4902 15.3947 14.3027 15.2071C14.1151 15.0196 14.0098 14.7652 14.0098 14.5C14.0098 14.2348 14.1151 13.9805 14.3027 13.7929C14.4902 13.6054 14.7446 13.5 15.0098 13.5C15.9127 13.4996 16.7987 13.2547 17.5737 12.7912C18.3487 12.3278 18.9837 11.6631 19.4113 10.8678C19.8389 10.0725 20.0431 9.17626 20.0024 8.27422C19.9616 7.37217 19.6773 6.498 19.1797 5.74453C18.682 4.99106 17.9896 4.3864 17.176 3.99478C16.3624 3.60315 15.4579 3.43916 14.5586 3.52022C13.6593 3.60128 12.7987 3.92437 12.0682 4.45519C11.3377 4.986 10.7646 5.70472 10.4098 6.53503L9.68977 8.22103L7.94777 7.64903C7.53554 7.51403 7.09894 7.47003 6.66807 7.52005C6.23719 7.57008 5.82229 7.71295 5.45197 7.93882C5.08164 8.16468 4.7647 8.46817 4.52299 8.82835C4.28129 9.18854 4.12056 9.59685 4.0519 10.0252C3.98324 10.4535 4.00827 10.8916 4.12527 11.3092C4.24227 11.7269 4.44847 12.1143 4.72963 12.4446C5.01079 12.7749 5.36024 13.0403 5.75388 13.2225C6.14752 13.4047 6.576 13.4994 7.00977 13.5H9.00977C9.27498 13.5 9.52934 13.6054 9.71687 13.7929C9.90441 13.9805 10.0098 14.2348 10.0098 14.5C10.0098 14.7652 9.90441 15.0196 9.71687 15.2071C9.52934 15.3947 9.27498 15.5 9.00977 15.5H7.00977C6.28654 15.4996 5.57202 15.3423 4.91548 15.039C4.25894 14.7357 3.67602 14.2935 3.20694 13.7431C2.73785 13.1926 2.39376 12.5469 2.19842 11.8506C2.00307 11.1542 1.96111 10.4238 2.07543 9.70966C2.18975 8.99553 2.45764 8.3147 2.8606 7.71414C3.26356 7.11358 3.79202 6.60759 4.4095 6.23107C5.02698 5.85455 5.7188 5.61647 6.43722 5.53324C7.15564 5.45002 7.88356 5.52365 8.57077 5.74903C9.20534 4.26666 10.3321 3.04874 11.7607 2.30098C13.1893 1.55322 14.8323 1.32145 16.412 1.64482C17.9917 1.9682 19.4114 2.82689 20.4313 4.07587C21.4512 5.32484 22.0087 6.88755 22.0098 8.50003C22.0098 10.3565 21.2723 12.137 19.9595 13.4498C18.6468 14.7625 16.8663 15.5 15.0098 15.5ZM12.7198 12.564C13.2388 12.762 13.5068 13.365 13.3178 13.91L11.9498 17.86C11.7598 18.405 11.1868 18.686 10.6678 18.487C10.1488 18.289 9.88177 17.686 10.0708 17.141L11.4388 13.191C11.6268 12.646 12.2008 12.365 12.7198 12.564ZM14.3518 16.513C14.8708 16.711 15.1378 17.314 14.9488 17.859L13.5808 21.809C13.3928 22.354 12.8188 22.635 12.2998 22.436C11.7808 22.238 11.5128 21.635 11.7018 21.09L13.0698 17.14C13.2598 16.595 13.8328 16.314 14.3518 16.513ZM11.0098 16.449H14.0098C14.5618 16.449 15.0098 16.919 15.0098 17.5C15.0098 18.08 14.5618 18.55 14.0098 18.55H11.0098C10.4578 18.55 10.0098 18.08 10.0098 17.5C10.0098 16.92 10.4578 16.45 11.0098 16.45V16.449Z" fill="#21272A"/>
</svg>
