<svg width="24" height="24" viewBox="0 0 24 24" fill="none" xmlns="http://www.w3.org/2000/svg">
<path d="M7.00976 19C6.28654 18.9996 5.57201 18.8423 4.91547 18.539C4.25893 18.2357 3.67601 17.7935 3.20693 17.2431C2.73784 16.6926 2.39376 16.0469 2.19841 15.3506C2.00306 14.6542 1.9611 13.9238 2.07542 13.2097C2.18974 12.4955 2.45763 11.8147 2.86059 11.2141C3.26356 10.6136 3.79201 10.1076 4.40949 9.73107C5.02697 9.35455 5.71879 9.11647 6.43721 9.03324C7.15563 8.95002 7.88355 9.02365 8.57076 9.24903C9.20533 7.76666 10.3321 6.54874 11.7607 5.80098C13.1893 5.05322 14.8322 4.82145 16.412 5.14482C17.9917 5.4682 19.4114 6.32689 20.4313 7.57587C21.4512 8.82484 22.0087 10.3875 22.0098 12C22.0098 13.8565 21.2723 15.637 19.9595 16.9498C18.6468 18.2625 16.8663 19 15.0098 19H7.00976ZM7.00976 17H15.0098C15.9127 16.9996 16.7987 16.7547 17.5737 16.2912C18.3487 15.8278 18.9837 15.1631 19.4113 14.3678C19.8389 13.5725 20.0431 12.6763 20.0023 11.7742C19.9616 10.8722 19.6773 9.998 19.1796 9.24453C18.682 8.49106 17.9896 7.8864 17.176 7.49478C16.3624 7.10315 15.4579 6.93916 14.5586 7.02022C13.6593 7.10128 12.7987 7.42437 12.0682 7.95519C11.3377 8.486 10.7646 9.20472 10.4098 10.035L9.68976 11.721L7.94776 11.149C7.53553 11.014 7.09894 10.97 6.66806 11.0201C6.23719 11.0701 5.82229 11.213 5.45196 11.4388C5.08164 11.6647 4.76469 11.9682 4.52299 12.3284C4.28128 12.6885 4.12055 13.0969 4.05189 13.5252C3.98323 13.9535 4.00826 14.3916 4.12526 14.8092C4.24227 15.2269 4.44846 15.6143 4.72962 15.9446C5.01078 16.2749 5.36023 16.5403 5.75387 16.7225C6.14752 16.9047 6.57599 16.9994 7.00976 17Z" fill="#21272A"/>
</svg>
