<svg width="24" height="24" viewBox="0 0 24 24" fill="none" xmlns="http://www.w3.org/2000/svg">
<path d="M14.7458 4.06404C15.2658 4.26404 15.5328 4.86904 15.3438 5.41704L10.5558 19.305C10.3658 19.853 9.79277 20.135 9.27377 19.936C8.75377 19.736 8.48677 19.131 8.67577 18.583L13.4638 4.69504C13.6538 4.14704 14.2268 3.86504 14.7458 4.06404ZM4.42377 12.256L7.95977 15.99C8.34977 16.402 8.34977 17.07 7.95977 17.482C7.8696 17.5795 7.76025 17.6573 7.63858 17.7105C7.51691 17.7637 7.38556 17.7912 7.25277 17.7912C7.11997 17.7912 6.98862 17.7637 6.86695 17.7105C6.74528 17.6573 6.63593 17.5795 6.54577 17.482L2.30277 13.003C2.11454 12.8 2.00996 12.5334 2.00996 12.2565C2.00996 11.9797 2.11454 11.7131 2.30277 11.51L6.54577 7.03004C6.63593 6.93255 6.74528 6.85476 6.86695 6.80156C6.98862 6.74835 7.11997 6.72089 7.25277 6.72089C7.38556 6.72089 7.51691 6.74835 7.63858 6.80156C7.76025 6.85476 7.8696 6.93255 7.95977 7.03004C8.14784 7.23334 8.25231 7.50009 8.25231 7.77704C8.25231 8.05399 8.14784 8.32075 7.95977 8.52404L4.42377 12.256ZM19.5958 12.256L16.0598 8.52404C15.8715 8.32102 15.767 8.05439 15.767 7.77754C15.767 7.50069 15.8715 7.23406 16.0598 7.03104C16.1499 6.93355 16.2593 6.85576 16.3809 6.80256C16.5026 6.74935 16.634 6.72189 16.7668 6.72189C16.8996 6.72189 17.0309 6.74935 17.1526 6.80256C17.2743 6.85576 17.3836 6.93355 17.4738 7.03104L21.7168 11.51C22.1068 11.922 22.1068 12.59 21.7168 13.003L17.4738 17.481C17.3836 17.5785 17.2743 17.6563 17.1526 17.7095C17.0309 17.7627 16.8996 17.7902 16.7668 17.7902C16.634 17.7902 16.5026 17.7627 16.3809 17.7095C16.2593 17.6563 16.1499 17.5785 16.0598 17.481C15.8718 17.2781 15.7674 17.0117 15.7674 16.735C15.7674 16.4584 15.8718 16.192 16.0598 15.989L19.5958 12.256Z" fill="#21272A"/>
</svg>
