<svg width="24" height="24" viewBox="0 0 24 24" fill="none" xmlns="http://www.w3.org/2000/svg">
<path d="M8.25277 11.657L3.30277 6.70696C3.20726 6.61471 3.13108 6.50437 3.07867 6.38236C3.02626 6.26036 2.99867 6.12914 2.99752 5.99636C2.99637 5.86358 3.02167 5.7319 3.07195 5.60901C3.12223 5.48611 3.19648 5.37446 3.29038 5.28056C3.38427 5.18667 3.49592 5.11242 3.61882 5.06214C3.74171 5.01186 3.87339 4.98655 4.00617 4.98771C4.13895 4.98886 4.27017 5.01645 4.39217 5.06886C4.51418 5.12127 4.62452 5.19745 4.71677 5.29296L10.3738 10.95C10.5612 11.1375 10.6666 11.3918 10.6666 11.657C10.6666 11.9221 10.5612 12.1764 10.3738 12.364L4.71677 18.021C4.62452 18.1165 4.51418 18.1927 4.39217 18.2451C4.27017 18.2975 4.13895 18.3251 4.00617 18.3262C3.87339 18.3274 3.74171 18.3021 3.61882 18.2518C3.49592 18.2015 3.38427 18.1272 3.29038 18.0334C3.19648 17.9395 3.12223 17.8278 3.07195 17.7049C3.02167 17.582 2.99637 17.4503 2.99752 17.3176C2.99867 17.1848 3.02626 17.0536 3.07867 16.9316C3.13108 16.8096 3.20726 16.6992 3.30277 16.607L8.25277 11.657ZM12.0098 16H20.0098C20.275 16 20.5293 16.1053 20.7169 16.2929C20.9044 16.4804 21.0098 16.7347 21.0098 17C21.0098 17.2652 20.9044 17.5195 20.7169 17.7071C20.5293 17.8946 20.275 18 20.0098 18H12.0098C11.7446 18 11.4902 17.8946 11.3027 17.7071C11.1151 17.5195 11.0098 17.2652 11.0098 17C11.0098 16.7347 11.1151 16.4804 11.3027 16.2929C11.4902 16.1053 11.7446 16 12.0098 16Z" fill="#21272A"/>
</svg>
