<svg width="24" height="24" viewBox="0 0 24 24" fill="none" xmlns="http://www.w3.org/2000/svg">
<path d="M12 20C14.1217 20 16.1566 19.1571 17.6569 17.6569C19.1571 16.1566 20 14.1217 20 12C20 9.87827 19.1571 7.84344 17.6569 6.34315C16.1566 4.84285 14.1217 4 12 4C9.87827 4 7.84344 4.84285 6.34315 6.34315C4.84285 7.84344 4 9.87827 4 12C4 14.1217 4.84285 16.1566 6.34315 17.6569C7.84344 19.1571 9.87827 20 12 20ZM12 22C6.477 22 2 17.523 2 12C2 6.477 6.477 2 12 2C17.523 2 22 6.477 22 12C22 17.523 17.523 22 12 22Z" fill="#21272A"/>
<path d="M12.402 7.13105C12.2701 7.04374 12.1151 6.99802 11.957 6.99981C11.7988 7.00159 11.6449 7.05079 11.515 7.14105L7.54 9.91005C7.43546 9.98275 7.35003 10.0796 7.29101 10.1925C7.23198 10.3053 7.2011 10.4307 7.201 10.5581V13.5401C7.20108 13.6707 7.23355 13.7993 7.2955 13.9143C7.35745 14.0293 7.44696 14.1271 7.556 14.1991L11.595 16.8691C11.7241 16.9542 11.8754 16.9996 12.03 16.9996C12.1847 16.9996 12.3359 16.9542 12.465 16.8691L16.585 14.1471C16.6937 14.0751 16.7829 13.9774 16.8447 13.8625C16.9065 13.7477 16.9389 13.6194 16.939 13.4891V10.5591C16.9392 10.4283 16.907 10.2996 16.8452 10.1844C16.7834 10.0692 16.694 9.97119 16.585 9.89905L12.401 7.13105H12.402ZM15.479 10.3611L13.956 11.3841L12.528 10.3461L12.519 8.30305L15.479 10.3621V10.3611ZM11.486 8.30605V10.3051L10.023 11.3271L8.563 10.3481L11.486 8.30505V8.30605ZM8.164 11.3331L9.108 11.9661L8.164 12.6271V11.3331ZM11.511 15.5941L8.564 13.6181L10.036 12.5891L11.511 13.5791V15.5941ZM10.951 11.9501L11.906 11.2831L13.016 12.0131L12.032 12.6751L10.952 11.9501H10.951ZM12.552 15.5941V13.5781L13.962 12.6341L15.479 13.6311L12.552 15.5941ZM15.899 12.6611L14.899 12.0041L15.899 11.3331V12.6611Z" fill="#21272A"/>
</svg>
