<svg width="24" height="24" viewBox="0 0 24 24" fill="none" xmlns="http://www.w3.org/2000/svg">
<path d="M12.549 2.26003C12.288 2.08709 11.981 1.99654 11.6679 2.0001C11.3548 2.00367 11.05 2.10119 10.793 2.28003L2.928 7.76003C2.508 8.05203 2.258 8.53003 2.258 9.04203V14.945C2.258 15.47 2.522 15.959 2.96 16.248L10.954 21.533C11.2095 21.702 11.5091 21.7921 11.8155 21.7921C12.1219 21.7921 12.4215 21.702 12.677 21.533L20.83 16.147C21.268 15.857 21.531 15.367 21.531 14.843V9.04303C21.531 8.51903 21.268 8.03003 20.831 7.74003L12.549 2.26003ZM18.639 8.65303L15.625 10.676L12.799 8.62103L12.781 4.57903L18.638 8.65303H18.639ZM10.737 4.58303V8.54003L7.84 10.564L4.953 8.62703L10.737 4.58303ZM4.16 10.576L6.03 11.829L4.16 13.137V10.577V10.576ZM10.785 19.009L4.954 15.1L7.867 13.063L10.787 15.021V19.011L10.785 19.009ZM9.68 11.796L11.568 10.476L13.768 11.921L11.818 13.231L9.68 11.796ZM12.847 19.009V15.019L15.637 13.149L18.64 15.124L12.847 19.009ZM19.472 13.204L17.492 11.904L19.472 10.575V13.205V13.204Z" fill="#21272A"/>
</svg>
