<svg width="24" height="24" viewBox="0 0 24 24" fill="none" xmlns="http://www.w3.org/2000/svg">
<path d="M4 10C4 10.7879 4.1552 11.5681 4.45673 12.2961C4.75825 13.0241 5.20021 13.6855 5.75736 14.2426C6.31451 14.7998 6.97595 15.2417 7.7039 15.5433C8.43186 15.8448 9.21207 16 10 16C10.7879 16 11.5682 15.8448 12.2961 15.5433C13.0241 15.2417 13.6855 14.7998 14.2426 14.2426C14.7998 13.6855 15.2418 13.0241 15.5433 12.2961C15.8448 11.5681 16 10.7879 16 10V8H4V10ZM18 6H19C19.7957 6 20.5587 6.31607 21.1213 6.87868C21.6839 7.44129 22 8.20435 22 9C22 9.79565 21.6839 10.5587 21.1213 11.1213C20.5587 11.6839 19.7957 12 19 12H17.748C17.2628 13.8872 16.1055 15.5323 14.4934 16.6268C12.8812 17.7212 10.9251 18.1897 8.99209 17.9442C7.05909 17.6987 5.28213 16.7561 3.99475 15.2935C2.70737 13.8308 1.99808 11.9485 2 10V6H18ZM18 10H19C19.2652 10 19.5196 9.89464 19.7071 9.70711C19.8946 9.51957 20 9.26522 20 9C20 8.73478 19.8946 8.48043 19.7071 8.29289C19.5196 8.10536 19.2652 8 19 8H18V10Z" fill="#21272A"/>
</svg>
