<svg width="24" height="24" viewBox="0 0 24 24" fill="none" xmlns="http://www.w3.org/2000/svg">
<path d="M6.232 6.976C5.86333 6.90925 5.53299 6.70694 5.30597 6.40889C5.07896 6.11084 4.9717 5.73862 5.0053 5.36546C5.0389 4.99231 5.21094 4.64524 5.48755 4.39254C5.76417 4.13984 6.12534 3.99981 6.5 4H7C7 3.46957 7.21072 2.96086 7.58579 2.58579C7.96086 2.21071 8.46957 2 9 2H15C15.5304 2 16.0391 2.21071 16.4142 2.58579C16.7893 2.96086 17 3.46957 17 4H17.5C17.8747 3.99981 18.2358 4.13984 18.5125 4.39254C18.7891 4.64524 18.9611 4.99231 18.9947 5.36546C19.0283 5.73862 18.9211 6.11084 18.694 6.40889C18.467 6.70694 18.1367 6.90925 17.768 6.976L17.32 10.781C17.6418 11.198 17.7853 11.7255 17.719 12.248L17.219 16.248C17.1571 16.7463 16.9097 17.203 16.526 17.527L16.104 21.117C16.0753 21.3603 15.9584 21.5845 15.7754 21.7473C15.5923 21.91 15.3559 22 15.111 22H8.889C8.64407 22 8.40767 21.91 8.22463 21.7473C8.0416 21.5845 7.92466 21.3603 7.896 21.117L7.474 17.527C7.09034 17.203 6.84289 16.7463 6.781 16.248L6.281 12.248C6.21534 11.7254 6.35914 11.198 6.681 10.781L6.232 6.976ZM8.25 7L8.603 10H15.399L15.752 7H8.249H8.25ZM8.767 16H15.235L15.735 12H8.266L8.766 16H8.767ZM9.544 18L9.779 20H14.223L14.458 18H9.543H9.544Z" fill="#21272A"/>
</svg>
