<svg width="24" height="24" viewBox="0 0 24 24" fill="none" xmlns="http://www.w3.org/2000/svg">
<path d="M22.0098 10.163C21.6838 10.3463 21.4124 10.613 21.2237 10.9359C21.0349 11.2587 20.9356 11.626 20.9358 12C20.9358 12.789 21.3688 13.476 22.0098 13.837L21.2928 16.243C20.9052 16.1763 20.5067 16.2196 20.1425 16.3678C19.7782 16.516 19.4628 16.7633 19.2319 17.0816C19.001 17.3999 18.8639 17.7766 18.8362 18.1688C18.8084 18.5611 18.891 18.9533 19.0748 19.301L17.0128 20.903C16.7398 20.6792 16.4149 20.5277 16.068 20.4624C15.721 20.3971 15.3633 20.4202 15.0276 20.5295C14.692 20.6387 14.3892 20.8307 14.1472 21.0877C13.9052 21.3447 13.7317 21.6584 13.6428 22L10.3528 21.992C10.2628 21.652 10.0891 21.34 9.84755 21.0845C9.60595 20.829 9.30415 20.6381 8.96975 20.5292C8.63535 20.4204 8.27901 20.3972 7.9333 20.4616C7.58759 20.526 7.26354 20.676 6.99077 20.898L4.93077 19.283C5.10934 18.9367 5.18832 18.5477 5.15891 18.1592C5.1295 17.7708 4.99286 17.3981 4.76419 17.0826C4.53553 16.7672 4.22381 16.5214 3.86374 16.3727C3.50368 16.2239 3.10939 16.178 2.72477 16.24L2.00977 13.825C2.32971 13.6398 2.59528 13.3737 2.77977 13.0533C2.96426 12.733 3.06117 12.3697 3.06077 12C3.06077 11.22 2.63977 10.54 2.00977 10.175L2.72477 7.76C3.10946 7.82225 3.50389 7.77648 3.86411 7.6278C4.22434 7.47912 4.53622 7.23336 4.76502 6.9179C4.99381 6.60243 5.13055 6.22964 5.15999 5.84106C5.18943 5.45247 5.11042 5.06334 4.93177 4.717L6.98977 3.102C7.26254 3.32395 7.58659 3.47399 7.9323 3.53841C8.27801 3.60283 8.63435 3.57957 8.96875 3.47075C9.30315 3.36194 9.60495 3.17104 9.84655 2.91551C10.0881 2.65998 10.2618 2.34797 10.3518 2.008L13.6438 2C13.7327 2.34161 13.9062 2.65535 14.1482 2.91233C14.3902 3.16931 14.693 3.36127 15.0286 3.47053C15.3643 3.5798 15.722 3.60285 16.069 3.53758C16.4159 3.4723 16.7408 3.32079 17.0138 3.097L19.0738 4.7C18.89 5.04769 18.8074 5.43989 18.8352 5.83215C18.8629 6.22442 19 6.60106 19.2309 6.91938C19.4618 7.23771 19.7772 7.485 20.1415 7.63322C20.5057 7.78144 20.9042 7.82467 21.2918 7.758L22.0098 10.162V10.163ZM16.8328 5.68C16.8328 5.617 16.8348 5.555 16.8378 5.492L16.7578 5.43C15.9789 5.64219 15.1546 5.61989 14.3883 5.36588C13.622 5.11187 12.9477 4.63744 12.4498 4.002L11.5458 4.004C11.0497 4.63674 10.3785 5.10966 9.61574 5.36392C8.85297 5.61817 8.03228 5.64255 7.25577 5.434L7.16077 5.51C7.19842 6.41268 6.93745 7.30259 6.41826 8.04197C5.89907 8.78135 5.15061 9.32895 4.28877 9.6C4.79158 10.2988 5.06168 11.1381 5.06077 11.999C5.06077 12.881 4.78077 13.714 4.28877 14.399C5.15061 14.67 5.89907 15.2176 6.41826 15.957C6.93745 16.6964 7.19842 17.5863 7.16077 18.489L7.25677 18.564C8.03316 18.3562 8.85348 18.3809 9.61593 18.6351C10.3784 18.8894 11.0494 19.3619 11.5458 19.994L12.4498 19.996C12.9474 19.3604 13.6215 18.8859 14.3877 18.6319C15.1539 18.3778 15.978 18.3556 16.7568 18.568L16.8368 18.506C16.7956 17.6005 17.055 16.7068 17.5747 15.9642C18.0943 15.2215 18.845 14.6716 19.7098 14.4C19.2065 13.701 18.9361 12.8613 18.9368 12C18.9368 11.118 19.2178 10.284 19.7098 9.6C18.8758 9.33781 18.1471 8.81638 17.6299 8.11155C17.1126 7.40672 16.8337 6.55526 16.8338 5.681L16.8328 5.68ZM12.0098 16C10.9489 16 9.93148 15.5786 9.18134 14.8284C8.43119 14.0783 8.00977 13.0609 8.00977 12C8.00977 10.9391 8.43119 9.92172 9.18134 9.17157C9.93148 8.42143 10.9489 8 12.0098 8C13.0706 8 14.088 8.42143 14.8382 9.17157C15.5883 9.92172 16.0098 10.9391 16.0098 12C16.0098 13.0609 15.5883 14.0783 14.8382 14.8284C14.088 15.5786 13.0706 16 12.0098 16ZM12.0098 14C12.5402 14 13.0489 13.7893 13.424 13.4142C13.7991 13.0391 14.0098 12.5304 14.0098 12C14.0098 11.4696 13.7991 10.9609 13.424 10.5858C13.0489 10.2107 12.5402 10 12.0098 10C11.4793 10 10.9706 10.2107 10.5956 10.5858C10.2205 10.9609 10.0098 11.4696 10.0098 12C10.0098 12.5304 10.2205 13.0391 10.5956 13.4142C10.9706 13.7893 11.4793 14 12.0098 14Z" fill="#21272A"/>
</svg>
