<svg width="24" height="24" viewBox="0 0 24 24" fill="none" xmlns="http://www.w3.org/2000/svg">
<path d="M10.8248 5.094C10.3094 5.13093 9.79239 5.05222 9.3114 4.86363C8.83042 4.67504 8.39766 4.38134 8.04477 4.004L7.96077 4.003C7.60777 4.38048 7.17484 4.67426 6.69367 4.86285C6.2125 5.05144 5.69525 5.13008 5.17977 5.093C5.10133 5.61503 4.90505 6.11234 4.60583 6.54723C4.3066 6.98212 3.91228 7.34317 3.45277 7.603C3.64635 8.0433 3.74631 8.51902 3.74631 9C3.74631 9.48098 3.64635 9.9567 3.45277 10.397C3.91228 10.6568 4.3066 11.0179 4.60583 11.4528C4.90505 11.8877 5.10133 12.385 5.17977 12.907C5.69508 12.8701 6.21214 12.9488 6.69313 13.1374C7.17412 13.326 7.60688 13.6197 7.95977 13.997H8.04377C8.39666 13.6197 8.82942 13.326 9.3104 13.1374C9.79139 12.9488 10.3084 12.8701 10.8238 12.907C10.9022 12.385 11.0985 11.8877 11.3977 11.4528C11.6969 11.0179 12.0913 10.6568 12.5508 10.397C12.3572 9.9567 12.2572 9.48098 12.2572 9C12.2572 8.51902 12.3572 8.0433 12.5508 7.603C12.0914 7.34306 11.6973 6.98196 11.3983 6.54707C11.0992 6.11219 10.9031 5.61494 10.8248 5.093V5.094ZM15.0098 7.714C14.7812 7.84203 14.5909 8.02868 14.4584 8.25471C14.3259 8.48075 14.2561 8.73801 14.2561 9C14.2561 9.26199 14.3259 9.51925 14.4584 9.74529C14.5909 9.97132 14.7812 10.158 15.0098 10.286L14.5078 11.97C14.2365 11.9231 13.9575 11.9532 13.7024 12.0568C13.4474 12.1605 13.2265 12.3335 13.0648 12.5563C12.9031 12.7792 12.8071 13.0428 12.7876 13.3174C12.7682 13.5921 12.8261 13.8666 12.9548 14.11L11.5118 15.232C11.3206 15.0754 11.0932 14.9694 10.8504 14.9237C10.6075 14.8781 10.3571 14.8942 10.1222 14.9707C9.88724 15.0472 9.67531 15.1816 9.50591 15.3614C9.3365 15.5413 9.21506 15.7609 9.15277 16L6.84877 15.994C6.78557 15.7564 6.6639 15.5383 6.49483 15.3598C6.32576 15.1812 6.11468 15.0478 5.88084 14.9718C5.647 14.8957 5.39784 14.8794 5.15608 14.9243C4.91433 14.9693 4.68766 15.074 4.49677 15.229L3.05477 14.098C3.18 13.8556 3.23545 13.5831 3.21491 13.311C3.19437 13.039 3.09865 12.7779 2.93844 12.557C2.77823 12.3362 2.55981 12.1641 2.30755 12.0601C2.05529 11.9561 1.77909 11.9242 1.50977 11.968L1.00977 10.278C1.2343 10.1488 1.42081 9.96263 1.55049 9.73835C1.68018 9.51407 1.74846 9.25957 1.74846 9.0005C1.74846 8.74143 1.68018 8.48693 1.55049 8.26265C1.42081 8.03837 1.2343 7.85224 1.00977 7.723L1.50977 6.033C1.77909 6.07678 2.05529 6.04488 2.30755 5.94088C2.55981 5.83687 2.77823 5.66483 2.93844 5.44396C3.09865 5.22308 3.19437 4.96205 3.21491 4.68996C3.23545 4.41787 3.18 4.14542 3.05477 3.903L4.49677 2.77C4.68767 2.92523 4.91441 3.03016 5.1563 3.07522C5.39818 3.12028 5.6475 3.10403 5.88149 3.02796C6.11548 2.95188 6.32669 2.81841 6.49582 2.63972C6.66496 2.46103 6.78665 2.24281 6.84977 2.005L9.15277 2C9.21513 2.23893 9.33657 2.45834 9.50591 2.63807C9.67524 2.8178 9.88704 2.95207 10.1218 3.02854C10.3566 3.10502 10.6069 3.12124 10.8496 3.07571C11.0923 3.03018 11.3196 2.92437 11.5108 2.768L12.9548 3.89C12.8261 4.13338 12.7682 4.40795 12.7876 4.68256C12.8071 4.95718 12.9031 5.22085 13.0648 5.44366C13.2265 5.66648 13.4474 5.83952 13.7024 5.94315C13.9575 6.04679 14.2365 6.07688 14.5078 6.03L15.0098 7.714ZM9.19777 16.912C10.0115 16.7914 10.8016 16.5451 11.5398 16.182C11.5132 16.2546 11.4842 16.3263 11.4528 16.397C11.9123 16.6568 12.3066 17.0179 12.6058 17.4528C12.9051 17.8877 13.1013 18.385 13.1798 18.907C13.6951 18.8701 14.2121 18.9488 14.6931 19.1374C15.1741 19.326 15.6069 19.6197 15.9598 19.997H16.0438C16.3967 19.6197 16.8294 19.326 17.3104 19.1374C17.7914 18.9488 18.3084 18.8701 18.8238 18.907C18.9022 18.385 19.0985 17.8877 19.3977 17.4528C19.6969 17.0179 20.0913 16.6568 20.5508 16.397C20.3572 15.9567 20.2572 15.481 20.2572 15C20.2572 14.519 20.3572 14.0433 20.5508 13.603C20.0914 13.3431 19.6973 12.982 19.3983 12.5471C19.0992 12.1122 18.9031 11.6149 18.8248 11.093C18.3094 11.1299 17.7924 11.0512 17.3114 10.8626C16.8304 10.674 16.3977 10.3803 16.0448 10.003H15.9608L15.9458 10.019C16.0306 9.34972 16.0313 8.67245 15.9478 8.003L17.1538 8C17.2161 8.23893 17.3376 8.45834 17.5069 8.63807C17.6762 8.8178 17.888 8.95207 18.1228 9.02854C18.3576 9.10502 18.6079 9.12124 18.8506 9.07571C19.0933 9.03018 19.3207 8.92437 19.5118 8.768L20.9558 9.89C20.8271 10.1334 20.7692 10.4079 20.7886 10.6826C20.8081 10.9572 20.9041 11.2208 21.0658 11.4437C21.2275 11.6665 21.4484 11.8395 21.7034 11.9432C21.9585 12.0468 22.2375 12.0769 22.5088 12.03L23.0098 13.714C22.7812 13.842 22.5909 14.0287 22.4584 14.2547C22.3259 14.4807 22.2561 14.738 22.2561 15C22.2561 15.262 22.3259 15.5193 22.4584 15.7453C22.5909 15.9713 22.7812 16.158 23.0098 16.286L22.5078 17.97C22.2365 17.9231 21.9575 17.9532 21.7024 18.0568C21.4474 18.1605 21.2265 18.3335 21.0648 18.5563C20.9031 18.7792 20.8071 19.0428 20.7876 19.3174C20.7682 19.5921 20.8261 19.8666 20.9548 20.11L19.5118 21.232C19.3206 21.0754 19.0932 20.9694 18.8504 20.9237C18.6075 20.8781 18.3571 20.8942 18.1222 20.9707C17.8872 21.0472 17.6753 21.1816 17.5059 21.3614C17.3365 21.5413 17.2151 21.7609 17.1528 22L14.8488 21.994C14.7856 21.7564 14.6639 21.5383 14.4948 21.3598C14.3258 21.1812 14.1147 21.0478 13.8808 20.9718C13.647 20.8957 13.3978 20.8794 13.1561 20.9243C12.9143 20.9693 12.6877 21.074 12.4968 21.229L11.0548 20.098C11.18 19.8556 11.2354 19.5831 11.2149 19.311C11.1944 19.039 11.0987 18.7779 10.9384 18.557C10.7782 18.3362 10.5598 18.1641 10.3076 18.0601C10.0553 17.9561 9.77909 17.9242 9.50977 17.968L9.19777 16.912ZM8.00977 12C7.6158 12 7.22569 11.9224 6.86172 11.7716C6.49774 11.6209 6.16702 11.3999 5.88845 11.1213C5.60987 10.8427 5.38889 10.512 5.23813 10.1481C5.08736 9.78407 5.00977 9.39397 5.00977 9C5.00977 8.60603 5.08736 8.21593 5.23813 7.85195C5.38889 7.48797 5.60987 7.15726 5.88845 6.87868C6.16702 6.6001 6.49774 6.37913 6.86172 6.22836C7.22569 6.0776 7.6158 6 8.00977 6C8.80542 6 9.56848 6.31607 10.1311 6.87868C10.6937 7.44129 11.0098 8.20435 11.0098 9C11.0098 9.79565 10.6937 10.5587 10.1311 11.1213C9.56848 11.6839 8.80542 12 8.00977 12ZM8.00977 10C8.27498 10 8.52934 9.89464 8.71687 9.70711C8.90441 9.51957 9.00977 9.26522 9.00977 9C9.00977 8.73478 8.90441 8.48043 8.71687 8.29289C8.52934 8.10536 8.27498 8 8.00977 8C7.74455 8 7.4902 8.10536 7.30266 8.29289C7.11512 8.48043 7.00977 8.73478 7.00977 9C7.00977 9.26522 7.11512 9.51957 7.30266 9.70711C7.4902 9.89464 7.74455 10 8.00977 10ZM16.0098 18C15.2141 18 14.4511 17.6839 13.8884 17.1213C13.3258 16.5587 13.0098 15.7956 13.0098 15C13.0098 14.2044 13.3258 13.4413 13.8884 12.8787C14.4511 12.3161 15.2141 12 16.0098 12C16.8054 12 17.5685 12.3161 18.1311 12.8787C18.6937 13.4413 19.0098 14.2044 19.0098 15C19.0098 15.7956 18.6937 16.5587 18.1311 17.1213C17.5685 17.6839 16.8054 18 16.0098 18ZM16.0098 16C16.275 16 16.5293 15.8946 16.7169 15.7071C16.9044 15.5196 17.0098 15.2652 17.0098 15C17.0098 14.7348 16.9044 14.4804 16.7169 14.2929C16.5293 14.1054 16.275 14 16.0098 14C15.7445 14 15.4902 14.1054 15.3027 14.2929C15.1151 14.4804 15.0098 14.7348 15.0098 15C15.0098 15.2652 15.1151 15.5196 15.3027 15.7071C15.4902 15.8946 15.7445 16 16.0098 16Z" fill="#21272A"/>
</svg>
