<svg width="24" height="24" viewBox="0 0 24 24" fill="none" xmlns="http://www.w3.org/2000/svg">
<path d="M11.0098 15V13C10.2141 13 9.45105 12.6839 8.88845 12.1213C8.32584 11.5587 8.00977 10.7956 8.00977 10C8.00977 9.20435 8.32584 8.44129 8.88845 7.87868C9.45105 7.31607 10.2141 7 11.0098 7V6C11.0098 5.73478 11.1151 5.48043 11.3027 5.29289C11.4902 5.10536 11.7445 5 12.0098 5C12.275 5 12.5293 5.10536 12.7169 5.29289C12.9044 5.48043 13.0098 5.73478 13.0098 6V7H13.0318C13.8216 7 14.579 7.31375 15.1375 7.87224C15.696 8.43072 16.0098 9.18819 16.0098 9.978C16.0098 10.2432 15.9044 10.4976 15.7169 10.6851C15.5293 10.8726 15.275 10.978 15.0098 10.978C14.7445 10.978 14.4902 10.8726 14.3027 10.6851C14.1151 10.4976 14.0098 10.2432 14.0098 9.978C14.0098 9.71862 13.9067 9.46986 13.7233 9.28645C13.5399 9.10304 13.2911 9 13.0318 9H13.0098V11C13.8054 11 14.5685 11.3161 15.1311 11.8787C15.6937 12.4413 16.0098 13.2044 16.0098 14C16.0098 14.7956 15.6937 15.5587 15.1311 16.1213C14.5685 16.6839 13.8054 17 13.0098 17V18C13.0098 18.2652 12.9044 18.5196 12.7169 18.7071C12.5293 18.8946 12.275 19 12.0098 19C11.7445 19 11.4902 18.8946 11.3027 18.7071C11.1151 18.5196 11.0098 18.2652 11.0098 18V17H10.9588C10.1766 17 9.42655 16.6893 8.87351 16.1363C8.32046 15.5832 8.00977 14.8331 8.00977 14.051C8.00977 13.7858 8.11512 13.5314 8.30266 13.3439C8.4902 13.1564 8.74455 13.051 9.00977 13.051C9.27498 13.051 9.52934 13.1564 9.71687 13.3439C9.90441 13.5314 10.0098 13.7858 10.0098 14.051C10.01 14.3026 10.1101 14.5438 10.288 14.7218C10.4659 14.8997 10.7072 14.9997 10.9588 15H11.0098ZM13.0098 15C13.275 15 13.5293 14.8946 13.7169 14.7071C13.9044 14.5196 14.0098 14.2652 14.0098 14C14.0098 13.7348 13.9044 13.4804 13.7169 13.2929C13.5293 13.1054 13.275 13 13.0098 13V15ZM11.0098 9C10.7445 9 10.4902 9.10536 10.3027 9.29289C10.1151 9.48043 10.0098 9.73478 10.0098 10C10.0098 10.2652 10.1151 10.5196 10.3027 10.7071C10.4902 10.8946 10.7445 11 11.0098 11V9ZM12.0098 22C6.48677 22 2.00977 17.523 2.00977 12C2.00977 6.477 6.48677 2 12.0098 2C17.5328 2 22.0098 6.477 22.0098 12C22.0098 17.523 17.5328 22 12.0098 22ZM12.0098 20C14.1315 20 16.1663 19.1571 17.6666 17.6569C19.1669 16.1566 20.0098 14.1217 20.0098 12C20.0098 9.87827 19.1669 7.84344 17.6666 6.34315C16.1663 4.84285 14.1315 4 12.0098 4C9.88803 4 7.8532 4.84285 6.35291 6.34315C4.85262 7.84344 4.00977 9.87827 4.00977 12C4.00977 14.1217 4.85262 16.1566 6.35291 17.6569C7.8532 19.1571 9.88803 20 12.0098 20Z" fill="#21272A"/>
</svg>
