<svg width="24" height="24" viewBox="0 0 24 24" fill="none" xmlns="http://www.w3.org/2000/svg">
<path d="M12.3368 14.49H8.68177L8.20477 15.796C8.01377 16.32 7.37877 16.608 6.78777 16.438C6.19777 16.268 5.87277 15.704 6.06477 15.18L8.36877 8.86803C8.75277 7.82003 10.0208 7.24403 11.2028 7.58403C11.8898 7.78203 12.4278 8.26003 12.6498 8.86803L14.9548 15.18C15.1458 15.704 14.8218 16.268 14.2308 16.438C13.6408 16.608 13.0058 16.32 12.8138 15.796L12.3368 14.489V14.49ZM11.6078 12.492L10.5098 9.48403L9.40977 12.492H11.6068H11.6078ZM16.0098 11.5C15.4793 11.5 14.9706 11.2893 14.5956 10.9142C14.2205 10.5392 14.0098 10.0305 14.0098 9.50003C14.0098 8.96959 14.2205 8.46089 14.5956 8.08581C14.9706 7.71074 15.4793 7.50003 16.0098 7.50003C16.5402 7.50003 17.0489 7.71074 17.424 8.08581C17.7991 8.46089 18.0098 8.96959 18.0098 9.50003C18.0098 10.0305 17.7991 10.5392 17.424 10.9142C17.0489 11.2893 16.5402 11.5 16.0098 11.5Z" fill="#21272A"/>
</svg>
