<svg width="24" height="24" viewBox="0 0 24 24" fill="none" xmlns="http://www.w3.org/2000/svg">
<path d="M13.9418 11.482C14.0318 11.8211 14.0312 12.1779 13.94 12.5167C13.8489 12.8555 13.6703 13.1644 13.4222 13.4124C13.1741 13.6605 12.8652 13.8391 12.5264 13.9303C12.1876 14.0215 11.8309 14.022 11.4918 13.932L8.47377 16.95C8.38152 17.0455 8.27117 17.1217 8.14917 17.1741C8.02717 17.2265 7.89595 17.2541 7.76317 17.2552C7.63039 17.2564 7.49871 17.2311 7.37581 17.1808C7.25292 17.1305 7.14126 17.0563 7.04737 16.9624C6.95348 16.8685 6.87922 16.7569 6.82894 16.634C6.77866 16.5111 6.75336 16.3794 6.75452 16.2466C6.75567 16.1138 6.78326 15.9826 6.83566 15.8606C6.88807 15.7386 6.96426 15.6282 7.05977 15.536L10.0778 12.518C9.98772 12.1789 9.98831 11.8221 10.0795 11.4833C10.1707 11.1445 10.3492 10.8356 10.5973 10.5876C10.8454 10.3395 11.1543 10.1609 11.4931 10.0697C11.8319 9.97855 12.1887 9.97795 12.5278 10.068L15.5458 7.05C15.7344 6.86784 15.987 6.76705 16.2492 6.76933C16.5114 6.7716 16.7622 6.87677 16.9476 7.06218C17.133 7.24759 17.2382 7.4984 17.2404 7.7606C17.2427 8.0228 17.1419 8.2754 16.9598 8.464L13.9418 11.482ZM12.0098 22C6.48677 22 2.00977 17.523 2.00977 12C2.00977 6.477 6.48677 2 12.0098 2C17.5328 2 22.0098 6.477 22.0098 12C22.0098 17.523 17.5328 22 12.0098 22ZM12.0098 20C14.1315 20 16.1663 19.1571 17.6666 17.6569C19.1669 16.1566 20.0098 14.1217 20.0098 12C20.0098 9.87827 19.1669 7.84344 17.6666 6.34315C16.1663 4.84285 14.1315 4 12.0098 4C9.88803 4 7.8532 4.84285 6.35291 6.34315C4.85262 7.84344 4.00977 9.87827 4.00977 12C4.00977 14.1217 4.85262 16.1566 6.35291 17.6569C7.8532 19.1571 9.88803 20 12.0098 20Z" fill="#21272A"/>
</svg>
