<svg width="24" height="24" viewBox="0 0 24 24" fill="none" xmlns="http://www.w3.org/2000/svg">
<path d="M4.00977 17V18H7.00977V6H4.00977V15H5.00977V17H4.00977ZM3.00977 4H8.00977C8.27498 4 8.52934 4.10536 8.71687 4.29289C8.90441 4.48043 9.00977 4.73478 9.00977 5V19C9.00977 19.2652 8.90441 19.5196 8.71687 19.7071C8.52934 19.8946 8.27498 20 8.00977 20H3.00977C2.74455 20 2.4902 19.8946 2.30266 19.7071C2.11512 19.5196 2.00977 19.2652 2.00977 19V5C2.00977 4.73478 2.11512 4.48043 2.30266 4.29289C2.4902 4.10536 2.74455 4 3.00977 4V4ZM12.0098 7H20.0098C20.5402 7 21.0489 7.21071 21.424 7.58579C21.7991 7.96086 22.0098 8.46957 22.0098 9V15C22.0098 15.5304 21.7991 16.0391 21.424 16.4142C21.0489 16.7893 20.5402 17 20.0098 17H12.0098C11.4793 17 10.9706 16.7893 10.5956 16.4142C10.2205 16.0391 10.0098 15.5304 10.0098 15V9C10.0098 8.46957 10.2205 7.96086 10.5956 7.58579C10.9706 7.21071 11.4793 7 12.0098 7ZM12.0098 9V15H20.0098V9H12.0098ZM14.0098 18H18.0098C18.275 18 18.5293 18.1054 18.7169 18.2929C18.9044 18.4804 19.0098 18.7348 19.0098 19C19.0098 19.2652 18.9044 19.5196 18.7169 19.7071C18.5293 19.8946 18.275 20 18.0098 20H14.0098C13.7445 20 13.4902 19.8946 13.3027 19.7071C13.1151 19.5196 13.0098 19.2652 13.0098 19C13.0098 18.7348 13.1151 18.4804 13.3027 18.2929C13.4902 18.1054 13.7445 18 14.0098 18Z" fill="#21272A"/>
</svg>
