<svg width="24" height="24" viewBox="0 0 24 24" fill="none" xmlns="http://www.w3.org/2000/svg">
<path d="M3.00977 18H21.0098C21.275 18 21.5293 18.1054 21.7169 18.2929C21.9044 18.4804 22.0098 18.7348 22.0098 19C22.0098 19.2652 21.9044 19.5196 21.7169 19.7071C21.5293 19.8946 21.275 20 21.0098 20H3.00977C2.74455 20 2.4902 19.8946 2.30266 19.7071C2.11512 19.5196 2.00977 19.2652 2.00977 19C2.00977 18.7348 2.11512 18.4804 2.30266 18.2929C2.4902 18.1054 2.74455 18 3.00977 18ZM4.00977 4H20.0098C20.5402 4 21.0489 4.21071 21.424 4.58579C21.7991 4.96086 22.0098 5.46957 22.0098 6V16C22.0098 16.2652 21.9044 16.5196 21.7169 16.7071C21.5293 16.8946 21.275 17 21.0098 17H3.00977C2.74455 17 2.4902 16.8946 2.30266 16.7071C2.11512 16.5196 2.00977 16.2652 2.00977 16V6C2.00977 5.46957 2.22048 4.96086 2.59555 4.58579C2.97062 4.21071 3.47933 4 4.00977 4V4ZM20.0098 15V6H4.00977V15H20.0098Z" fill="#21272A"/>
</svg>
