<svg width="24" height="24" viewBox="0 0 24 24" fill="none" xmlns="http://www.w3.org/2000/svg">
<path d="M20.0098 9V7H4.00977V9H20.0098ZM20.0098 12H4.00977V17H20.0098V12ZM4.00977 5H20.0098C20.5402 5 21.0489 5.21071 21.424 5.58579C21.7991 5.96086 22.0098 6.46957 22.0098 7V17C22.0098 17.5304 21.7991 18.0391 21.424 18.4142C21.0489 18.7893 20.5402 19 20.0098 19H4.00977C3.47933 19 2.97062 18.7893 2.59555 18.4142C2.22048 18.0391 2.00977 17.5304 2.00977 17V7C2.00977 6.46957 2.22048 5.96086 2.59555 5.58579C2.97062 5.21071 3.47933 5 4.00977 5V5ZM6.00977 14H7.00977C7.27498 14 7.52934 14.1054 7.71687 14.2929C7.90441 14.4804 8.00977 14.7348 8.00977 15C8.00977 15.2652 7.90441 15.5196 7.71687 15.7071C7.52934 15.8946 7.27498 16 7.00977 16H6.00977C5.74455 16 5.4902 15.8946 5.30266 15.7071C5.11512 15.5196 5.00977 15.2652 5.00977 15C5.00977 14.7348 5.11512 14.4804 5.30266 14.2929C5.4902 14.1054 5.74455 14 6.00977 14ZM11.0098 14H16.0098C16.275 14 16.5293 14.1054 16.7169 14.2929C16.9044 14.4804 17.0098 14.7348 17.0098 15C17.0098 15.2652 16.9044 15.5196 16.7169 15.7071C16.5293 15.8946 16.275 16 16.0098 16H11.0098C10.7445 16 10.4902 15.8946 10.3027 15.7071C10.1151 15.5196 10.0098 15.2652 10.0098 15C10.0098 14.7348 10.1151 14.4804 10.3027 14.2929C10.4902 14.1054 10.7445 14 11.0098 14Z" fill="#21272A"/>
</svg>
