<svg width="24" height="24" viewBox="0 0 24 24" fill="none" xmlns="http://www.w3.org/2000/svg">
<path d="M17.0098 19H9.00977C7.9489 19 6.93148 18.5786 6.18134 17.8284C5.43119 17.0783 5.00977 16.0609 5.00977 15V7H3.00977C2.74455 7 2.4902 6.89464 2.30266 6.70711C2.11512 6.51957 2.00977 6.26522 2.00977 6C2.00977 5.73478 2.11512 5.48043 2.30266 5.29289C2.4902 5.10536 2.74455 5 3.00977 5H5.00977V1V3C5.00977 2.73478 5.11512 2.48043 5.30266 2.29289C5.4902 2.10536 5.74455 2 6.00977 2C6.27498 2 6.52934 2.10536 6.71687 2.29289C6.90441 2.48043 7.00977 2.73478 7.00977 3V5H15.0098C16.0706 5 17.088 5.42143 17.8382 6.17157C18.5883 6.92172 19.0098 7.93913 19.0098 9V17H21.0098C21.275 17 21.5293 17.1054 21.7169 17.2929C21.9044 17.4804 22.0098 17.7348 22.0098 18C22.0098 18.2652 21.9044 18.5196 21.7169 18.7071C21.5293 18.8946 21.275 19 21.0098 19H19.0098V23V21C19.0098 21.2652 18.9044 21.5196 18.7169 21.7071C18.5293 21.8946 18.275 22 18.0098 22C17.7445 22 17.4902 21.8946 17.3027 21.7071C17.1151 21.5196 17.0098 21.2652 17.0098 21V19ZM17.0098 17V9C17.0098 8.46957 16.7991 7.96086 16.424 7.58579C16.0489 7.21071 15.5402 7 15.0098 7H7.00977V15C7.00977 15.5304 7.22048 16.0391 7.59555 16.4142C7.97062 16.7893 8.47933 17 9.00977 17H17.0098Z" fill="#21272A"/>
</svg>
