<svg width="24" height="24" viewBox="0 0 24 24" fill="none" xmlns="http://www.w3.org/2000/svg">
<path d="M4.78576 9.106L5.65776 15H18.3938L19.2608 9.02L15.7678 12.04L12.0128 7.213L8.10376 12.024L4.78576 9.106ZM14.8238 7.569L14.7458 7.636L14.8868 7.65L16.0538 9.149L17.4908 7.907L17.6308 7.921L17.5688 7.839L19.9818 5.753C20.136 5.61991 20.3272 5.53711 20.5298 5.51568C20.7324 5.49425 20.9368 5.53522 21.1154 5.6331C21.2941 5.73098 21.4386 5.8811 21.5297 6.06336C21.6207 6.24563 21.6539 6.45136 21.6248 6.653L20.1248 17H3.93176L2.40876 6.7C2.37851 6.49724 2.41131 6.29007 2.50271 6.10657C2.59412 5.92307 2.73971 5.77209 2.91978 5.67409C3.09985 5.57609 3.30569 5.5358 3.50941 5.55868C3.71314 5.58156 3.90492 5.6665 4.05876 5.802L6.35976 7.827L6.30976 7.887L6.41876 7.879L7.86276 9.149L9.07476 7.656L9.18376 7.647L9.12376 7.595L11.2548 4.976C11.3497 4.85931 11.4697 4.76554 11.6059 4.70167C11.7421 4.6378 11.8909 4.60548 12.0414 4.60711C12.1918 4.60875 12.3399 4.6443 12.4747 4.71111C12.6094 4.77792 12.7274 4.87428 12.8198 4.993L14.8248 7.569H14.8238ZM4.00976 18H20.0098V19C20.0098 19.2652 19.9044 19.5196 19.7169 19.7071C19.5293 19.8946 19.275 20 19.0098 20H5.00976C4.74454 20 4.49019 19.8946 4.30265 19.7071C4.11512 19.5196 4.00976 19.2652 4.00976 19V18Z" fill="#21272A"/>
</svg>
