<svg width="24" height="24" viewBox="0 0 24 24" fill="none" xmlns="http://www.w3.org/2000/svg">
<path d="M5.31276 19.238L13.3788 11.173L14.2728 11.223C15.3378 11.284 16.6418 10.738 17.6878 9.69304C19.3238 8.05604 19.6218 5.97004 18.7478 5.09604C17.8748 4.22304 15.7878 4.52104 14.1518 6.15604C13.1058 7.20304 12.5598 8.50604 12.6208 9.57204L12.6708 10.466L4.60576 18.531C4.51468 18.6253 4.46429 18.7516 4.46543 18.8827C4.46657 19.0138 4.51915 19.1392 4.61185 19.2319C4.70456 19.3247 4.82997 19.3772 4.96106 19.3784C5.09216 19.3795 5.21846 19.3291 5.31276 19.238ZM6.72776 20.653C6.25886 21.1219 5.62289 21.3854 4.95976 21.3854C4.29664 21.3854 3.66067 21.1219 3.19176 20.653C2.72286 20.1841 2.45943 19.5482 2.45943 18.885C2.45943 18.2219 2.72286 17.5859 3.19176 17.117L10.6238 9.68504C10.5318 8.07104 11.2668 6.21404 12.7378 4.74304C15.0808 2.39904 18.4048 1.92504 20.1628 3.68204C21.9198 5.43904 21.4448 8.76304 19.1018 11.107C17.6308 12.577 15.7728 13.312 14.1588 13.221L6.72776 20.653Z" fill="#21272A"/>
</svg>
