<svg width="24" height="24" viewBox="0 0 24 24" fill="none" xmlns="http://www.w3.org/2000/svg">
<path d="M12.8798 17.2259L12.9028 17.1989L8.28577 13.3669L8.28377 13.3699L12.8798 17.2259ZM11.5938 18.7589L9.01377 21.8329L1.85577 21.0299L6.99777 14.9019L11.5938 18.7589ZM8.52977 16.1869L6.23177 14.2599L15.2298 3.53395C15.9118 2.72132 16.8887 2.21291 17.9455 2.12055C19.0024 2.02818 20.0526 2.35944 20.8653 3.04145C21.6779 3.72345 22.1863 4.70033 22.2787 5.7572C22.371 6.81406 22.0398 7.86432 21.3578 8.67695L12.3598 19.3999L10.0618 17.4719L8.13377 19.7699L5.95877 19.2499L8.52977 16.1859V16.1869ZM9.04977 14.0129L12.1138 16.5829L19.8268 7.39095C20.1609 6.98384 20.321 6.46135 20.2723 5.93692C20.2236 5.41248 19.9699 4.92844 19.5665 4.58989C19.163 4.25134 18.6423 4.0856 18.1173 4.12868C17.5924 4.17175 17.1057 4.42015 16.7628 4.81995L9.04977 14.0129ZM18.2948 6.10595C18.4976 6.27644 18.6246 6.52049 18.6476 6.78449C18.6707 7.0485 18.588 7.31086 18.4178 7.51395L17.7758 8.27995C17.6054 8.48323 17.3612 8.61051 17.0969 8.63376C16.8327 8.65701 16.5701 8.57435 16.3668 8.40395C16.1635 8.23354 16.0362 7.98937 16.013 7.72513C15.9897 7.46089 16.0724 7.19823 16.2428 6.99495L16.8858 6.22895C16.9702 6.1282 17.0737 6.04509 17.1903 5.98437C17.3069 5.92365 17.4343 5.88652 17.5653 5.87509C17.6962 5.86367 17.8282 5.87818 17.9535 5.91779C18.0788 5.9574 18.1952 6.02134 18.2958 6.10595H18.2948Z" fill="#21272A"/>
</svg>
