<svg width="24" height="24" viewBox="0 0 24 24" fill="none" xmlns="http://www.w3.org/2000/svg">
<path d="M2.84177 19C2.29117 17.7384 2.00789 16.3765 2.00977 15C2.00977 9.477 6.48677 5 12.0098 5C17.5328 5 22.0098 9.477 22.0098 15C22.0116 16.3765 21.7284 17.7384 21.1778 19H2.84177ZM19.7578 17C20.0613 15.8183 20.0905 14.5828 19.8432 13.388C19.5958 12.1933 19.0785 11.0709 18.3307 10.1068C17.583 9.14276 16.6246 8.36248 15.5289 7.82569C14.4333 7.2889 13.2294 7.00984 12.0093 7.00984C10.7892 7.00984 9.58526 7.2889 8.4896 7.82569C7.39395 8.36248 6.43558 9.14276 5.68782 10.1068C4.94007 11.0709 4.42273 12.1933 4.17538 13.388C3.92804 14.5828 3.95725 15.8183 4.26077 17H19.7578ZM12.0098 10C11.7446 10 11.4902 9.89464 11.3027 9.70711C11.1151 9.51957 11.0098 9.26522 11.0098 9C11.0098 8.73478 11.1151 8.48043 11.3027 8.29289C11.4902 8.10536 11.7446 8 12.0098 8C12.275 8 12.5293 8.10536 12.7169 8.29289C12.9044 8.48043 13.0098 8.73478 13.0098 9C13.0098 9.26522 12.9044 9.51957 12.7169 9.70711C12.5293 9.89464 12.275 10 12.0098 10ZM7.00977 14C6.74455 14 6.4902 13.8946 6.30266 13.7071C6.11512 13.5196 6.00977 13.2652 6.00977 13C6.00977 12.7348 6.11512 12.4804 6.30266 12.2929C6.4902 12.1054 6.74455 12 7.00977 12C7.27498 12 7.52934 12.1054 7.71687 12.2929C7.90441 12.4804 8.00977 12.7348 8.00977 13C8.00977 13.2652 7.90441 13.5196 7.71687 13.7071C7.52934 13.8946 7.27498 14 7.00977 14ZM17.0098 14C16.7446 14 16.4902 13.8946 16.3027 13.7071C16.1151 13.5196 16.0098 13.2652 16.0098 13C16.0098 12.7348 16.1151 12.4804 16.3027 12.2929C16.4902 12.1054 16.7446 12 17.0098 12C17.275 12 17.5293 12.1054 17.7169 12.2929C17.9044 12.4804 18.0098 12.7348 18.0098 13C18.0098 13.2652 17.9044 13.5196 17.7169 13.7071C17.5293 13.8946 17.275 14 17.0098 14ZM12.0098 11C12.275 11 12.5293 11.1054 12.7169 11.2929C12.9044 11.4804 13.0098 11.7348 13.0098 12V15C13.0098 15.2652 12.9044 15.5196 12.7169 15.7071C12.5293 15.8946 12.275 16 12.0098 16C11.7446 16 11.4902 15.8946 11.3027 15.7071C11.1151 15.5196 11.0098 15.2652 11.0098 15V12C11.0098 11.7348 11.1151 11.4804 11.3027 11.2929C11.4902 11.1054 11.7446 11 12.0098 11Z" fill="#21272A"/>
</svg>
