<svg width="24" height="24" viewBox="0 0 24 24" fill="none" xmlns="http://www.w3.org/2000/svg">
<path d="M2.00977 16.2859H5.64977V17.3479H2.00977V16.2859ZM2.00977 14.9049H5.64977V15.9669H2.00977V14.9049ZM2.00977 13.5249H5.64977V14.5869H2.00977V13.5249ZM2.00977 12.1449H5.64977V13.2069H2.00977V12.1449ZM2.00977 10.7639H5.64977V11.8259H2.00977V10.7639ZM6.09177 16.2859H9.73277V17.3479H6.09177V16.2859ZM6.09177 14.9049H9.73277V15.9669H6.09177V14.9049ZM6.09177 13.5249H9.73277V14.5869H6.09177V13.5249ZM10.1738 16.2859H13.8148V17.3479H10.1738V16.2859ZM10.1738 14.9049H13.8148V15.9669H10.1738V14.9049ZM10.1738 13.5249H13.8148V14.5869H10.1738V13.5249ZM10.1738 12.1449H13.8148V13.2069H10.1738V12.1449ZM10.1738 10.7639H13.8148V11.8259H10.1738V10.7639ZM10.1738 9.38395H13.8148V10.4459H10.1738V9.38395ZM10.1738 8.00295H13.8148V9.06495H10.1738V8.00295ZM14.2558 16.2859H17.8968V17.3479H14.2558V16.2859ZM14.2558 14.9049H17.8968V15.9669H14.2558V14.9049ZM14.2558 13.5249H17.8968V14.5869H14.2558V13.5249ZM14.2558 12.1449H17.8968V13.2069H14.2558V12.1449ZM14.2558 10.7639H17.8968V11.8259H14.2558V10.7639ZM18.3378 16.2859H21.9788V17.3479H18.3378V16.2859ZM18.3378 14.9049H21.9788V15.9669H18.3378V14.9049ZM18.3378 13.5249H21.9788V14.5869H18.3378V13.5249ZM18.3378 12.1449H21.9788V13.2069H18.3378V12.1449ZM18.3378 10.7639H21.9788V11.8259H18.3378V10.7639ZM18.3378 9.38395H21.9788V10.4459H18.3378V9.38395ZM18.3378 8.00295H21.9788V9.06495H18.3378V8.00295ZM18.3378 6.62195H21.9788V7.68395H18.3378V6.62195Z" fill="#21272A"/>
</svg>
