<svg width="24" height="24" viewBox="0 0 24 24" fill="none" xmlns="http://www.w3.org/2000/svg">
<path d="M12.0098 20C14.1315 20 16.1663 19.1571 17.6666 17.6569C19.1669 16.1566 20.0098 14.1217 20.0098 12C20.0098 9.87827 19.1669 7.84344 17.6666 6.34315C16.1663 4.84285 14.1315 4 12.0098 4C9.88803 4 7.8532 4.84285 6.35291 6.34315C4.85262 7.84344 4.00977 9.87827 4.00977 12C4.00977 14.1217 4.85262 16.1566 6.35291 17.6569C7.8532 19.1571 9.88803 20 12.0098 20ZM12.0098 22C6.48677 22 2.00977 17.523 2.00977 12C2.00977 6.477 6.48677 2 12.0098 2C17.5328 2 22.0098 6.477 22.0098 12C22.0098 17.523 17.5328 22 12.0098 22Z" fill="#21272A"/>
<path d="M7.00977 14.111H8.82977V15.111H7.00977V14.111Z" fill="#21272A"/>
<path d="M7.00977 13.421H8.82977V14.421H7.00977V13.421Z" fill="#21272A"/>
<path d="M7.00977 12.731H8.82977V13.731H7.00977V12.731Z" fill="#21272A"/>
<path d="M7.00977 12.041H8.82977V13.041H7.00977V12.041Z" fill="#21272A"/>
<path d="M7.00977 11.351H8.82977V12.351H7.00977V11.351ZM9.05077 14.111H10.8708V15.111H9.05077V14.111Z" fill="#21272A"/>
<path d="M9.05077 13.421H10.8708V14.421H9.05077V13.421Z" fill="#21272A"/>
<path d="M9.05077 12.731H10.8708V13.731H9.05077V12.731ZM11.0918 14.111H12.9118V15.111H11.0918V14.111Z" fill="#21272A"/>
<path d="M11.0918 13.421H12.9118V14.421H11.0918V13.421Z" fill="#21272A"/>
<path d="M11.0918 12.731H12.9118V13.731H11.0918V12.731Z" fill="#21272A"/>
<path d="M11.0918 12.041H12.9118V13.041H11.0918V12.041Z" fill="#21272A"/>
<path d="M11.0918 11.351H12.9118V12.351H11.0918V11.351Z" fill="#21272A"/>
<path d="M11.0918 10.66H12.9118V11.66H11.0918V10.66Z" fill="#21272A"/>
<path d="M11.0918 9.96997H12.9118V10.97H11.0918V9.96997ZM13.1328 14.111H14.9538V15.111H13.1328V14.111Z" fill="#21272A"/>
<path d="M13.1328 13.421H14.9538V14.421H13.1328V13.421Z" fill="#21272A"/>
<path d="M13.1328 12.731H14.9538V13.731H13.1328V12.731Z" fill="#21272A"/>
<path d="M13.1328 12.041H14.9538V13.041H13.1328V12.041Z" fill="#21272A"/>
<path d="M13.1328 11.351H14.9538V12.351H13.1328V11.351ZM15.1738 14.111H16.9938V15.111H15.1738V14.111Z" fill="#21272A"/>
<path d="M15.1738 13.421H16.9938V14.421H15.1738V13.421Z" fill="#21272A"/>
<path d="M15.1738 12.731H16.9938V13.731H15.1738V12.731Z" fill="#21272A"/>
<path d="M15.1738 12.041H16.9938V13.041H15.1738V12.041Z" fill="#21272A"/>
<path d="M15.1738 11.35H16.9938V12.35H15.1738V11.35Z" fill="#21272A"/>
<path d="M15.1738 10.66H16.9938V11.66H15.1738V10.66Z" fill="#21272A"/>
<path d="M15.1738 9.96997H16.9938V10.97H15.1738V9.96997Z" fill="#21272A"/>
<path d="M15.1738 9.28003H16.9938V10.28H15.1738V9.28003Z" fill="#21272A"/>
</svg>
