<svg width="24" height="24" viewBox="0 0 24 24" fill="none" xmlns="http://www.w3.org/2000/svg">
<path d="M7.00977 14.111H8.82977V15.111H7.00977V14.111Z" fill="#21272A"/>
<path d="M7.00977 13.421H8.82977V14.421H7.00977V13.421Z" fill="#21272A"/>
<path d="M7.00977 12.731H8.82977V13.731H7.00977V12.731Z" fill="#21272A"/>
<path d="M7.00977 12.041H8.82977V13.041H7.00977V12.041Z" fill="#21272A"/>
<path d="M7.00977 11.351H8.82977V12.351H7.00977V11.351ZM9.05077 14.111H10.8708V15.111H9.05077V14.111Z" fill="#21272A"/>
<path d="M9.05077 13.421H10.8708V14.421H9.05077V13.421Z" fill="#21272A"/>
<path d="M9.05077 12.731H10.8708V13.731H9.05077V12.731ZM11.0918 14.111H12.9118V15.111H11.0918V14.111Z" fill="#21272A"/>
<path d="M11.0918 13.421H12.9118V14.421H11.0918V13.421Z" fill="#21272A"/>
<path d="M11.0918 12.731H12.9118V13.731H11.0918V12.731Z" fill="#21272A"/>
<path d="M11.0918 12.041H12.9118V13.041H11.0918V12.041Z" fill="#21272A"/>
<path d="M11.0918 11.351H12.9118V12.351H11.0918V11.351Z" fill="#21272A"/>
<path d="M11.0918 10.66H12.9118V11.66H11.0918V10.66Z" fill="#21272A"/>
<path d="M11.0918 9.96997H12.9118V10.97H11.0918V9.96997ZM13.1328 14.111H14.9538V15.111H13.1328V14.111Z" fill="#21272A"/>
<path d="M13.1328 13.421H14.9538V14.421H13.1328V13.421Z" fill="#21272A"/>
<path d="M13.1328 12.731H14.9538V13.731H13.1328V12.731Z" fill="#21272A"/>
<path d="M13.1328 12.041H14.9538V13.041H13.1328V12.041Z" fill="#21272A"/>
<path d="M13.1328 11.351H14.9538V12.351H13.1328V11.351ZM15.1738 14.111H16.9938V15.111H15.1738V14.111Z" fill="#21272A"/>
<path d="M15.1738 13.421H16.9938V14.421H15.1738V13.421Z" fill="#21272A"/>
<path d="M15.1738 12.731H16.9938V13.731H15.1738V12.731Z" fill="#21272A"/>
<path d="M15.1738 12.041H16.9938V13.041H15.1738V12.041Z" fill="#21272A"/>
<path d="M15.1738 11.35H16.9938V12.35H15.1738V11.35Z" fill="#21272A"/>
<path d="M15.1738 10.66H16.9938V11.66H15.1738V10.66Z" fill="#21272A"/>
<path d="M15.1738 9.96997H16.9938V10.97H15.1738V9.96997Z" fill="#21272A"/>
<path d="M15.1738 9.28003H16.9938V10.28H15.1738V9.28003Z" fill="#21272A"/>
<path d="M6.00977 4C5.47933 4 4.97062 4.21071 4.59555 4.58579C4.22048 4.96086 4.00977 5.46957 4.00977 6V18C4.00977 18.5304 4.22048 19.0391 4.59555 19.4142C4.97062 19.7893 5.47933 20 6.00977 20H18.0098C18.5402 20 19.0489 19.7893 19.424 19.4142C19.7991 19.0391 20.0098 18.5304 20.0098 18V6C20.0098 5.46957 19.7991 4.96086 19.424 4.58579C19.0489 4.21071 18.5402 4 18.0098 4H6.00977ZM6.00977 2H18.0098C19.0706 2 20.088 2.42143 20.8382 3.17157C21.5883 3.92172 22.0098 4.93913 22.0098 6V18C22.0098 19.0609 21.5883 20.0783 20.8382 20.8284C20.088 21.5786 19.0706 22 18.0098 22H6.00977C4.9489 22 3.93148 21.5786 3.18134 20.8284C2.43119 20.0783 2.00977 19.0609 2.00977 18V6C2.00977 4.93913 2.43119 3.92172 3.18134 3.17157C3.93148 2.42143 4.9489 2 6.00977 2V2Z" fill="#21272A"/>
</svg>
