<svg width="24" height="24" viewBox="0 0 24 24" fill="none" xmlns="http://www.w3.org/2000/svg">
<path d="M9.83777 5H20.0098C20.5402 5 21.0489 5.21071 21.424 5.58579C21.7991 5.96086 22.0098 6.46957 22.0098 7V17C22.0098 17.5304 21.7991 18.0391 21.424 18.4142C21.0489 18.7893 20.5402 19 20.0098 19H9.83777C9.30738 18.9999 8.79875 18.7891 8.42377 18.414L2.71677 12.707C2.5293 12.5195 2.42398 12.2652 2.42398 12C2.42398 11.7348 2.5293 11.4805 2.71677 11.293L8.42377 5.586C8.79875 5.2109 9.30738 5.00011 9.83777 5V5ZM9.83777 17H20.0098V7H9.83777L4.83777 12L9.83777 17ZM16.4238 12L17.8378 13.414C18.0199 13.6026 18.1207 13.8552 18.1184 14.1174C18.1162 14.3796 18.011 14.6304 17.8256 14.8158C17.6402 15.0012 17.3894 15.1064 17.1272 15.1087C16.865 15.111 16.6124 15.0102 16.4238 14.828L15.0098 13.414L13.5958 14.828C13.5035 14.9235 13.3932 14.9997 13.2712 15.0521C13.1492 15.1045 13.0179 15.1321 12.8852 15.1333C12.7524 15.1344 12.6207 15.1091 12.4978 15.0588C12.3749 15.0085 12.2633 14.9343 12.1694 14.8404C12.0755 14.7465 12.0012 14.6349 11.9509 14.512C11.9007 14.3891 11.8754 14.2574 11.8765 14.1246C11.8777 13.9918 11.9053 13.8606 11.9577 13.7386C12.0101 13.6166 12.0863 13.5062 12.1818 13.414L13.5958 12L12.1818 10.586C12.0863 10.4938 12.0101 10.3834 11.9577 10.2614C11.9053 10.1394 11.8777 10.0082 11.8765 9.8754C11.8754 9.74262 11.9007 9.61094 11.9509 9.48805C12.0012 9.36515 12.0755 9.2535 12.1694 9.15961C12.2633 9.06571 12.3749 8.99146 12.4978 8.94118C12.6207 8.8909 12.7524 8.8656 12.8852 8.86675C13.0179 8.8679 13.1492 8.89549 13.2712 8.9479C13.3932 9.00031 13.5035 9.07649 13.5958 9.172L15.0098 10.586L16.4238 9.172C16.516 9.07649 16.6264 9.00031 16.7484 8.9479C16.8704 8.89549 17.0016 8.8679 17.1344 8.86675C17.2671 8.8656 17.3988 8.8909 17.5217 8.94118C17.6446 8.99146 17.7563 9.06571 17.8502 9.15961C17.9441 9.2535 18.0183 9.36515 18.0686 9.48805C18.1189 9.61094 18.1442 9.74262 18.143 9.8754C18.1419 10.0082 18.1143 10.1394 18.0619 10.2614C18.0095 10.3834 17.9333 10.4938 17.8378 10.586L16.4238 12Z" fill="#21272A"/>
</svg>
