<svg width="24" height="24" viewBox="0 0 24 24" fill="none" xmlns="http://www.w3.org/2000/svg">
<path d="M15.2638 7.01001H13.1918L12.3378 8.61801C12.2859 8.71432 12.2088 8.7947 12.1147 8.85054C12.0206 8.90638 11.9132 8.93558 11.8038 8.93501H8.77977V11.488H10.4168C10.5988 11.488 10.7158 11.675 10.6318 11.832L8.77977 15.32V17.01H10.8488L11.7018 15.403C11.7538 15.3069 11.8309 15.2267 11.925 15.1711C12.0191 15.1154 12.1265 15.0863 12.2358 15.087H15.2658V12.533H13.6238C13.5829 12.5339 13.5424 12.5242 13.5065 12.5047C13.4705 12.4853 13.4401 12.4568 13.4185 12.4221C13.3968 12.3875 13.3845 12.3477 13.3828 12.3069C13.3811 12.266 13.39 12.2254 13.4088 12.189L15.2648 8.69401V7.01101L15.2638 7.01001Z" fill="#21272A"/>
<path d="M6.00977 4C5.47933 4 4.97062 4.21071 4.59555 4.58579C4.22048 4.96086 4.00977 5.46957 4.00977 6V18C4.00977 18.5304 4.22048 19.0391 4.59555 19.4142C4.97062 19.7893 5.47933 20 6.00977 20H18.0098C18.5402 20 19.0489 19.7893 19.424 19.4142C19.7991 19.0391 20.0098 18.5304 20.0098 18V6C20.0098 5.46957 19.7991 4.96086 19.424 4.58579C19.0489 4.21071 18.5402 4 18.0098 4H6.00977ZM6.00977 2H18.0098C19.0706 2 20.088 2.42143 20.8382 3.17157C21.5883 3.92172 22.0098 4.93913 22.0098 6V18C22.0098 19.0609 21.5883 20.0783 20.8382 20.8284C20.088 21.5786 19.0706 22 18.0098 22H6.00977C4.9489 22 3.93148 21.5786 3.18134 20.8284C2.43119 20.0783 2.00977 19.0609 2.00977 18V6C2.00977 4.93913 2.43119 3.92172 3.18134 3.17157C3.93148 2.42143 4.9489 2 6.00977 2V2Z" fill="#21272A"/>
</svg>
