<svg width="24" height="24" viewBox="0 0 24 24" fill="none" xmlns="http://www.w3.org/2000/svg">
<path d="M18.4948 2H14.3558L12.6508 5.211C12.5469 5.4029 12.3929 5.56297 12.2051 5.67411C12.0174 5.78525 11.803 5.84328 11.5848 5.842H5.54277V10.942H8.81277C9.17477 10.942 9.40877 11.315 9.24277 11.628L5.54277 18.595V21.97H9.67377L11.3798 18.76C11.4835 18.5679 11.6374 18.4076 11.8252 18.2963C12.013 18.185 12.2275 18.1268 12.4458 18.128H18.4948V13.028H15.2168C15.1351 13.0299 15.0544 13.0106 14.9825 12.9719C14.9107 12.9332 14.8501 12.8765 14.8067 12.8073C14.7633 12.7381 14.7387 12.6588 14.7352 12.5773C14.7317 12.4957 14.7495 12.4146 14.7868 12.342L18.4948 5.362V2Z" fill="#21272A"/>
</svg>
