<svg width="24" height="24" viewBox="0 0 24 24" fill="none" xmlns="http://www.w3.org/2000/svg">
<path d="M12.0098 20C14.1315 20 16.1663 19.1571 17.6666 17.6569C19.1669 16.1566 20.0098 14.1217 20.0098 12C20.0098 9.87827 19.1669 7.84344 17.6666 6.34315C16.1663 4.84285 14.1315 4 12.0098 4C9.88803 4 7.8532 4.84285 6.35291 6.34315C4.85262 7.84344 4.00977 9.87827 4.00977 12C4.00977 14.1217 4.85262 16.1566 6.35291 17.6569C7.8532 19.1571 9.88803 20 12.0098 20ZM12.0098 22C6.48677 22 2.00977 17.523 2.00977 12C2.00977 6.477 6.48677 2 12.0098 2C17.5328 2 22.0098 6.477 22.0098 12C22.0098 17.523 17.5328 22 12.0098 22Z" fill="#21272A"/>
<path d="M15.2638 7.01001H13.1918L12.3378 8.61801C12.2859 8.71432 12.2088 8.7947 12.1147 8.85054C12.0206 8.90638 11.9132 8.93558 11.8038 8.93501H8.77977V11.488H10.4168C10.5988 11.488 10.7158 11.675 10.6318 11.832L8.77977 15.32V17.01H10.8488L11.7018 15.403C11.7538 15.3069 11.8309 15.2267 11.925 15.1711C12.0191 15.1154 12.1265 15.0863 12.2358 15.087H15.2658V12.533H13.6238C13.5829 12.5339 13.5424 12.5242 13.5065 12.5047C13.4705 12.4853 13.4401 12.4568 13.4185 12.4221C13.3968 12.3875 13.3845 12.3477 13.3828 12.3069C13.3811 12.266 13.39 12.2254 13.4088 12.189L15.2648 8.69401V7.01101L15.2638 7.01001Z" fill="#21272A"/>
</svg>
