<svg width="24" height="24" viewBox="0 0 24 24" fill="none" xmlns="http://www.w3.org/2000/svg">
<path d="M18.0098 2C19.0706 2 20.088 2.42143 20.8382 3.17157C21.5883 3.92172 22.0098 4.93913 22.0098 6V18C22.0098 19.0609 21.5883 20.0783 20.8382 20.8284C20.088 21.5786 19.0706 22 18.0098 22H6.00977C4.9489 22 3.93148 21.5786 3.18134 20.8284C2.43119 20.0783 2.00977 19.0609 2.00977 18V6C2.00977 4.93913 2.43119 3.92172 3.18134 3.17157C3.93148 2.42143 4.9489 2 6.00977 2H18.0098ZM18.0098 4H6.00977C5.50519 3.99984 5.0192 4.19041 4.64922 4.5335C4.27924 4.87659 4.05261 5.34684 4.01477 5.85L4.00977 6V18C4.00961 18.5046 4.20017 18.9906 4.54326 19.3605C4.88635 19.7305 5.35661 19.9572 5.85977 19.995L6.00977 20H18.0098C18.5143 20.0002 19.0003 19.8096 19.3703 19.4665C19.7403 19.1234 19.9669 18.6532 20.0048 18.15L20.0098 18V6C20.0099 5.49542 19.8194 5.00943 19.4763 4.63945C19.1332 4.26947 18.6629 4.04284 18.1598 4.005L18.0098 4ZM17.0098 15C17.5402 15 18.0489 15.2107 18.424 15.5858C18.7991 15.9609 19.0098 16.4696 19.0098 17C19.0098 17.5304 18.7991 18.0391 18.424 18.4142C18.0489 18.7893 17.5402 19 17.0098 19C16.4793 19 15.9706 18.7893 15.5956 18.4142C15.2205 18.0391 15.0098 17.5304 15.0098 17C15.0098 16.4696 15.2205 15.9609 15.5956 15.5858C15.9706 15.2107 16.4793 15 17.0098 15ZM12.0098 10C12.5402 10 13.0489 10.2107 13.424 10.5858C13.7991 10.9609 14.0098 11.4696 14.0098 12C14.0098 12.5304 13.7991 13.0391 13.424 13.4142C13.0489 13.7893 12.5402 14 12.0098 14C11.4793 14 10.9706 13.7893 10.5956 13.4142C10.2205 13.0391 10.0098 12.5304 10.0098 12C10.0098 11.4696 10.2205 10.9609 10.5956 10.5858C10.9706 10.2107 11.4793 10 12.0098 10ZM7.00977 5C7.5402 5 8.04891 5.21071 8.42398 5.58579C8.79905 5.96086 9.00977 6.46957 9.00977 7C9.00977 7.53043 8.79905 8.03914 8.42398 8.41421C8.04891 8.78929 7.5402 9 7.00977 9C6.47933 9 5.97062 8.78929 5.59555 8.41421C5.22048 8.03914 5.00977 7.53043 5.00977 7C5.00977 6.46957 5.22048 5.96086 5.59555 5.58579C5.97062 5.21071 6.47933 5 7.00977 5Z" fill="#21272A"/>
</svg>
