<svg width="24" height="24" viewBox="0 0 24 24" fill="none" xmlns="http://www.w3.org/2000/svg">
<path d="M13.0098 2C13.8054 2 14.5685 2.31607 15.1311 2.87868C15.6937 3.44129 16.0098 4.20435 16.0098 5V8H19.0098C19.8054 8 20.5685 8.31607 21.1311 8.87868C21.6937 9.44129 22.0098 10.2044 22.0098 11V19C22.0098 19.7956 21.6937 20.5587 21.1311 21.1213C20.5685 21.6839 19.8054 22 19.0098 22H11.0098C10.2141 22 9.45105 21.6839 8.88845 21.1213C8.32584 20.5587 8.00977 19.7956 8.00977 19V16H5.00977C4.21412 16 3.45105 15.6839 2.88845 15.1213C2.32584 14.5587 2.00977 13.7956 2.00977 13V5C2.00977 4.20435 2.32584 3.44129 2.88845 2.87868C3.45105 2.31607 4.21412 2 5.00977 2H13.0098ZM19.0098 10H11.0098C10.7648 10 10.5284 10.09 10.3454 10.2527C10.1624 10.4155 10.0454 10.6397 10.0168 10.883L10.0098 11V19C10.0098 19.2449 10.0997 19.4813 10.2625 19.6644C10.4252 19.8474 10.6495 19.9643 10.8928 19.993L11.0098 20H19.0098C19.2547 20 19.4911 19.91 19.6741 19.7473C19.8572 19.5845 19.9741 19.3603 20.0028 19.117L20.0098 19V11C20.0097 10.7551 19.9198 10.5187 19.757 10.3356C19.5943 10.1526 19.37 10.0357 19.1268 10.007L19.0098 10ZM12.0098 17C12.275 17 12.5293 17.1054 12.7169 17.2929C12.9044 17.4804 13.0098 17.7348 13.0098 18C13.0098 18.2652 12.9044 18.5196 12.7169 18.7071C12.5293 18.8946 12.275 19 12.0098 19C11.7445 19 11.4902 18.8946 11.3027 18.7071C11.1151 18.5196 11.0098 18.2652 11.0098 18C11.0098 17.7348 11.1151 17.4804 11.3027 17.2929C11.4902 17.1054 11.7445 17 12.0098 17ZM18.0098 17C18.275 17 18.5293 17.1054 18.7169 17.2929C18.9044 17.4804 19.0098 17.7348 19.0098 18C19.0098 18.2652 18.9044 18.5196 18.7169 18.7071C18.5293 18.8946 18.275 19 18.0098 19C17.7445 19 17.4902 18.8946 17.3027 18.7071C17.1151 18.5196 17.0098 18.2652 17.0098 18C17.0098 17.7348 17.1151 17.4804 17.3027 17.2929C17.4902 17.1054 17.7445 17 18.0098 17ZM15.0098 14C15.275 14 15.5293 14.1054 15.7169 14.2929C15.9044 14.4804 16.0098 14.7348 16.0098 15C16.0098 15.2652 15.9044 15.5196 15.7169 15.7071C15.5293 15.8946 15.275 16 15.0098 16C14.7445 16 14.4902 15.8946 14.3027 15.7071C14.1151 15.5196 14.0098 15.2652 14.0098 15C14.0098 14.7348 14.1151 14.4804 14.3027 14.2929C14.4902 14.1054 14.7445 14 15.0098 14ZM13.1268 4.007L13.0098 4H5.00977C4.76483 4.00003 4.52843 4.08996 4.34539 4.25272C4.16236 4.41547 4.04542 4.63975 4.01677 4.883L4.00977 5V13C4.0098 13.2449 4.09972 13.4813 4.26248 13.6644C4.42524 13.8474 4.64951 13.9643 4.89277 13.993L5.00977 14H8.00977V11C8.00977 10.2044 8.32584 9.44129 8.88845 8.87868C9.45105 8.31607 10.2141 8 11.0098 8H14.0098V5C14.0097 4.75507 13.9198 4.51866 13.7571 4.33563C13.5943 4.15259 13.37 4.03566 13.1268 4.007ZM12.0098 11C12.275 11 12.5293 11.1054 12.7169 11.2929C12.9044 11.4804 13.0098 11.7348 13.0098 12C13.0098 12.2652 12.9044 12.5196 12.7169 12.7071C12.5293 12.8946 12.275 13 12.0098 13C11.7445 13 11.4902 12.8946 11.3027 12.7071C11.1151 12.5196 11.0098 12.2652 11.0098 12C11.0098 11.7348 11.1151 11.4804 11.3027 11.2929C11.4902 11.1054 11.7445 11 12.0098 11ZM18.0098 11C18.275 11 18.5293 11.1054 18.7169 11.2929C18.9044 11.4804 19.0098 11.7348 19.0098 12C19.0098 12.2652 18.9044 12.5196 18.7169 12.7071C18.5293 12.8946 18.275 13 18.0098 13C17.7445 13 17.4902 12.8946 17.3027 12.7071C17.1151 12.5196 17.0098 12.2652 17.0098 12C17.0098 11.7348 17.1151 11.4804 17.3027 11.2929C17.4902 11.1054 17.7445 11 18.0098 11ZM6.52277 10.993C6.78798 10.993 7.04234 11.0984 7.22987 11.2859C7.41741 11.4734 7.52277 11.7278 7.52277 11.993C7.52277 12.2582 7.41741 12.5126 7.22987 12.7001C7.04234 12.8876 6.78798 12.993 6.52277 12.993C6.25755 12.993 6.0032 12.8876 5.81566 12.7001C5.62812 12.5126 5.52277 12.2582 5.52277 11.993C5.52277 11.7278 5.62812 11.4734 5.81566 11.2859C6.0032 11.0984 6.25755 10.993 6.52277 10.993ZM6.52277 7.993C6.78798 7.993 7.04234 8.09836 7.22987 8.28589C7.41741 8.47343 7.52277 8.72778 7.52277 8.993C7.52277 9.25822 7.41741 9.51257 7.22987 9.70011C7.04234 9.88764 6.78798 9.993 6.52277 9.993C6.25755 9.993 6.0032 9.88764 5.81566 9.70011C5.62812 9.51257 5.52277 9.25822 5.52277 8.993C5.52277 8.72778 5.62812 8.47343 5.81566 8.28589C6.0032 8.09836 6.25755 7.993 6.52277 7.993ZM6.52277 4.993C6.78798 4.993 7.04234 5.09836 7.22987 5.28589C7.41741 5.47343 7.52277 5.72778 7.52277 5.993C7.52277 6.25822 7.41741 6.51257 7.22987 6.70011C7.04234 6.88764 6.78798 6.993 6.52277 6.993C6.25755 6.993 6.0032 6.88764 5.81566 6.70011C5.62812 6.51257 5.52277 6.25822 5.52277 5.993C5.52277 5.72778 5.62812 5.47343 5.81566 5.28589C6.0032 5.09836 6.25755 4.993 6.52277 4.993ZM11.5228 4.993C11.788 4.993 12.0423 5.09836 12.2299 5.28589C12.4174 5.47343 12.5228 5.72778 12.5228 5.993C12.5228 6.25822 12.4174 6.51257 12.2299 6.70011C12.0423 6.88764 11.788 6.993 11.5228 6.993C11.2575 6.993 11.0032 6.88764 10.8157 6.70011C10.6281 6.51257 10.5228 6.25822 10.5228 5.993C10.5228 5.72778 10.6281 5.47343 10.8157 5.28589C11.0032 5.09836 11.2575 4.993 11.5228 4.993Z" fill="#21272A"/>
</svg>
