<svg width="20" height="24" viewBox="0 0 20 24" fill="none" xmlns="http://www.w3.org/2000/svg">
<g clip-path="url(#clip0_105_32783)">
<path d="M10.0098 5.674C11.0767 5.16876 12.2541 4.94155 13.4324 5.01352C14.6107 5.08549 15.7517 5.4543 16.7492 6.08564C17.7468 6.71697 18.5684 7.59033 19.1378 8.62449C19.7071 9.65864 20.0057 10.82 20.0057 12.0005C20.0057 13.181 19.7071 14.3424 19.1378 15.3765C18.5684 16.4107 17.7468 17.284 16.7492 17.9154C15.7517 18.5467 14.6107 18.9155 13.4324 18.9875C12.2541 19.0595 11.0767 18.8322 10.0098 18.327C8.94283 18.832 7.76552 19.059 6.5873 18.9869C5.40908 18.9148 4.26824 18.5459 3.27086 17.9146C2.27347 17.2832 1.45195 16.4098 0.882695 15.3758C0.313435 14.3417 0.014925 13.1804 0.014925 12C0.014925 10.8196 0.313435 9.65833 0.882695 8.62424C1.45195 7.59015 2.27347 6.71682 3.27086 6.08545C4.26824 5.45408 5.40908 5.08519 6.5873 5.01308C7.76552 4.94096 8.94283 5.16798 10.0098 5.673V5.674ZM10.0098 8C9.38832 8.4653 8.88397 9.06913 8.53678 9.76351C8.1896 10.4579 8.00914 11.2237 8.00977 12C8.00977 13.636 8.79577 15.088 10.0098 16C10.6312 15.5347 11.1356 14.9309 11.4827 14.2365C11.8299 13.5421 12.0104 12.7763 12.0098 12C12.0104 11.2237 11.8299 10.4579 11.4827 9.76351C11.1356 9.06913 10.6312 8.4653 10.0098 8Z" fill="#21272A"/>
</g>
<defs>
<clipPath id="clip0_105_32783">
<rect width="20" height="24" fill="white"/>
</clipPath>
</defs>
</svg>
