<svg width="24" height="24" viewBox="0 0 24 24" fill="none" xmlns="http://www.w3.org/2000/svg">
<path d="M5.548 4.506V8.006H2V15.006H7.544V4.506H5.548ZM3.996 13.256V9.756H5.548V13.256H3.996ZM7.988 8.006H9.984V15.006H7.988V8.006ZM7.988 4.506H9.984V6.475H7.988V4.505V4.506ZM16.193 8.006H10.871V15.006H14.197V16.537H10.871V18.506H16.193V8.006ZM12.867 13.256V9.756H14.197V13.256H12.867ZM21.959 8.006H16.637V15.006H20.185V16.537H16.637V18.506H21.959V8.006ZM20.185 13.256H18.633V9.756H20.185V13.256Z" fill="#21272A"/>
</svg>
