<svg width="24" height="24" viewBox="0 0 24 24" fill="none" xmlns="http://www.w3.org/2000/svg">
<path d="M4 6V10H16.98L19.833 8.286C19.8825 8.25647 19.9235 8.21459 19.952 8.16445C19.9805 8.11432 19.9954 8.05765 19.9954 8C19.9954 7.94235 19.9805 7.88568 19.952 7.83555C19.9235 7.78541 19.8825 7.74353 19.833 7.714L16.98 6H4ZM12 4H16.98C17.3429 4.00011 17.699 4.09898 18.01 4.286L20.863 6C21.2082 6.20734 21.4939 6.50051 21.6922 6.85098C21.8906 7.20146 21.9948 7.5973 21.9948 8C21.9948 8.4027 21.8906 8.79854 21.6922 9.14902C21.4939 9.49949 21.2082 9.79266 20.863 10L18.01 11.714C17.699 11.901 17.3429 11.9999 16.98 12H12V21C12 21.2652 11.8946 21.5196 11.7071 21.7071C11.5196 21.8946 11.2652 22 11 22C10.7348 22 10.4804 21.8946 10.2929 21.7071C10.1054 21.5196 10 21.2652 10 21V12H4C3.46957 12 2.96086 11.7893 2.58579 11.4142C2.21071 11.0391 2 10.5304 2 10V6C2 5.46957 2.21071 4.96086 2.58579 4.58579C2.96086 4.21071 3.46957 4 4 4H10V3C10 2.73478 10.1054 2.48043 10.2929 2.29289C10.4804 2.10536 10.7348 2 11 2C11.2652 2 11.5196 2.10536 11.7071 2.29289C11.8946 2.48043 12 2.73478 12 3V4Z" fill="#21272A"/>
</svg>
