<svg width="24" height="24" viewBox="0 0 24 24" fill="none" xmlns="http://www.w3.org/2000/svg">
<path d="M4 5V9H16.98L19.833 7.286C19.8825 7.25647 19.9235 7.21459 19.952 7.16445C19.9805 7.11432 19.9954 7.05765 19.9954 7C19.9954 6.94235 19.9805 6.88568 19.952 6.83555C19.9235 6.78541 19.8825 6.74353 19.833 6.714L16.98 5H4ZM10 3C10 2.73478 10.1054 2.48043 10.2929 2.29289C10.4804 2.10536 10.7348 2 11 2C11.2652 2 11.5196 2.10536 11.7071 2.29289C11.8946 2.48043 12 2.73478 12 3H16.98C17.3429 3.00011 17.699 3.09898 18.01 3.286L20.863 5C21.2082 5.20734 21.4939 5.50051 21.6922 5.85098C21.8906 6.20146 21.9948 6.5973 21.9948 7C21.9948 7.4027 21.8906 7.79854 21.6922 8.14902C21.4939 8.49949 21.2082 8.79266 20.863 9L18.01 10.714C17.699 10.901 17.3429 10.9999 16.98 11H12V12H19.995C20.5254 12 21.0341 12.2107 21.4092 12.5858C21.7843 12.9609 21.995 13.4696 21.995 14V18C21.995 18.5304 21.7843 19.0391 21.4092 19.4142C21.0341 19.7893 20.5254 20 19.995 20H12V21C12 21.2652 11.8946 21.5196 11.7071 21.7071C11.5196 21.8946 11.2652 22 11 22C10.7348 22 10.4804 21.8946 10.2929 21.7071C10.1054 21.5196 10 21.2652 10 21V20H7.015C6.65208 19.9999 6.29602 19.901 5.985 19.714L3.132 18C2.78678 17.7927 2.50111 17.4995 2.30277 17.149C2.10444 16.7985 2.0002 16.4027 2.0002 16C2.0002 15.5973 2.10444 15.2015 2.30277 14.851C2.50111 14.5005 2.78678 14.2073 3.132 14L5.985 12.286C6.29602 12.099 6.65208 12.0001 7.015 12H10V11H4C3.46957 11 2.96086 10.7893 2.58579 10.4142C2.21071 10.0391 2 9.53043 2 9V5C2 4.46957 2.21071 3.96086 2.58579 3.58579C2.96086 3.21071 3.46957 3 4 3H10ZM19.995 14H7.015L4.162 15.714C4.11248 15.7435 4.07148 15.7854 4.04301 15.8355C4.01454 15.8857 3.99957 15.9423 3.99957 16C3.99957 16.0577 4.01454 16.1143 4.04301 16.1645C4.07148 16.2146 4.11248 16.2565 4.162 16.286L7.015 18H19.995V14Z" fill="#21272A"/>
</svg>
