<svg width="28" height="24" viewBox="0 0 28 24" fill="none" xmlns="http://www.w3.org/2000/svg">
<path d="M20.4598 2C21.5778 2 22.4908 2.901 22.5098 4.025V22L20.3598 20.1L19.1498 18.98L17.8698 17.79L18.3998 19.64H7.05977C6.52077 19.6387 6.00384 19.4258 5.62038 19.047C5.23692 18.6682 5.01763 18.1539 5.00977 17.615V4.06C5.00977 2.932 5.91077 2.019 7.02477 2H20.4598ZM12.3298 6.78L12.2298 6.66H12.1728C11.8998 6.669 10.6868 6.76 9.41977 7.71L9.37177 7.802C9.12077 8.292 7.97977 10.674 7.97977 13.54L7.99977 13.573C8.14177 13.79 9.01877 14.996 11.0298 15.06L11.3248 14.699L11.6998 14.23C10.5338 13.881 10.0338 13.179 9.95977 13.066L9.94977 13.05L9.99077 13.077C10.0358 13.107 10.1178 13.157 10.2298 13.22C10.2398 13.23 10.2498 13.24 10.2698 13.25C10.2998 13.27 10.3298 13.28 10.3598 13.3C10.6098 13.44 10.8598 13.55 11.0898 13.64C11.4998 13.8 11.9898 13.96 12.5598 14.07C13.2888 14.206 14.1398 14.257 15.0678 14.095L15.1498 14.08C15.6198 14 16.0998 13.86 16.5998 13.65C16.9498 13.52 17.3398 13.33 17.7498 13.06L17.7338 13.085C17.6378 13.225 17.1138 13.918 15.9398 14.25L16.1048 14.457C16.3578 14.771 16.5998 15.06 16.5998 15.06C18.8098 14.99 19.6598 13.54 19.6598 13.54C19.6598 10.32 18.2198 7.71 18.2198 7.71C16.9818 6.781 15.7948 6.673 15.4868 6.661L15.4098 6.66L15.2698 6.82C16.7778 7.281 17.5698 7.923 17.7298 8.063L17.7598 8.09C16.2274 7.24492 14.4639 6.91534 12.7298 7.15C12.6698 7.15 12.6198 7.16 12.5598 7.17L12.5038 7.175C12.1238 7.214 11.3068 7.354 10.2898 7.8L10.1448 7.868C9.96277 7.954 9.83077 8.021 9.75977 8.058L9.69977 8.09C9.69977 8.09 10.5128 7.316 12.2758 6.796L12.3298 6.78ZM11.9498 10.39C12.5198 10.39 12.9798 10.89 12.9698 11.5C12.9698 12.11 12.5198 12.61 11.9498 12.61C11.3898 12.61 10.9298 12.11 10.9298 11.5C10.9298 10.89 11.3798 10.39 11.9498 10.39ZM15.5998 10.39C16.1698 10.39 16.6198 10.89 16.6198 11.5C16.6198 12.11 16.1698 12.61 15.5998 12.61C15.0398 12.61 14.5798 12.11 14.5798 11.5C14.5798 10.89 15.0298 10.39 15.5998 10.39Z" fill="#21272A"/>
</svg>
