<svg width="24" height="24" viewBox="0 0 24 24" fill="none" xmlns="http://www.w3.org/2000/svg">
<path d="M12.1818 16.665C11.0452 16.6682 9.94313 16.2745 9.06576 15.552L6.99776 15.823L7.79476 13.92C7.50813 13.3121 7.36023 12.6481 7.36176 11.976C7.36176 9.38599 9.52076 7.28699 12.1808 7.28699C14.8448 7.28699 17.0008 9.38599 17.0008 11.976C17.0008 14.566 14.8448 16.665 12.1808 16.665H12.1818ZM12.2118 9.47499H10.4358V14.476H12.1868C13.8438 14.476 14.8118 13.404 14.8118 11.962V11.949C14.8118 10.507 13.8558 9.47499 12.2118 9.47499Z" fill="#21272A"/>
<path d="M13.5008 11.979C13.5008 12.789 12.9948 13.246 12.2308 13.246H11.7118V10.702H12.2308C12.9948 10.702 13.5008 11.166 13.5008 11.966V11.979Z" fill="#21272A"/>
<path d="M6.00977 4C5.47933 4 4.97062 4.21071 4.59555 4.58579C4.22048 4.96086 4.00977 5.46957 4.00977 6V18C4.00977 18.5304 4.22048 19.0391 4.59555 19.4142C4.97062 19.7893 5.47933 20 6.00977 20H18.0098C18.5402 20 19.0489 19.7893 19.424 19.4142C19.7991 19.0391 20.0098 18.5304 20.0098 18V6C20.0098 5.46957 19.7991 4.96086 19.424 4.58579C19.0489 4.21071 18.5402 4 18.0098 4H6.00977ZM6.00977 2H18.0098C19.0706 2 20.088 2.42143 20.8382 3.17157C21.5883 3.92172 22.0098 4.93913 22.0098 6V18C22.0098 19.0609 21.5883 20.0783 20.8382 20.8284C20.088 21.5786 19.0706 22 18.0098 22H6.00977C4.9489 22 3.93148 21.5786 3.18134 20.8284C2.43119 20.0783 2.00977 19.0609 2.00977 18V6C2.00977 4.93913 2.43119 3.92172 3.18134 3.17157C3.93148 2.42143 4.9489 2 6.00977 2V2Z" fill="#21272A"/>
</svg>
