<svg width="24" height="24" viewBox="0 0 24 24" fill="none" xmlns="http://www.w3.org/2000/svg">
<path d="M12.365 21.25C10.0927 21.2568 7.8893 20.4702 6.135 19.026L2 19.567L3.595 15.762C3.02182 14.5465 2.72602 13.2188 2.729 11.875C2.729 6.696 7.045 2.5 12.364 2.5C17.69 2.5 22 6.696 22 11.875C22 17.054 17.69 21.25 12.365 21.25ZM12.426 6.875H8.875V16.875H12.376C15.689 16.875 17.625 14.731 17.625 11.848V11.82C17.625 8.938 15.714 6.874 12.426 6.874V6.875Z" fill="#21272A"/>
<path d="M15.004 11.881C15.004 13.501 13.991 14.415 12.464 14.415H11.426V9.328H12.464C13.991 9.328 15.004 10.255 15.004 11.855V11.881Z" fill="#21272A"/>
</svg>
