<svg width="24" height="24" viewBox="0 0 24 24" fill="none" xmlns="http://www.w3.org/2000/svg">
<path d="M8.00977 2H16.0098C17.0706 2 18.088 2.42143 18.8382 3.17157C19.5883 3.92172 20.0098 4.93913 20.0098 6V18C20.0098 19.0609 19.5883 20.0783 18.8382 20.8284C18.088 21.5786 17.0706 22 16.0098 22H8.00977C6.9489 22 5.93148 21.5786 5.18134 20.8284C4.43119 20.0783 4.00977 19.0609 4.00977 18V6C4.00977 4.93913 4.43119 3.92172 5.18134 3.17157C5.93148 2.42143 6.9489 2 8.00977 2V2ZM8.00977 4C7.47933 4 6.97062 4.21071 6.59555 4.58579C6.22048 4.96086 6.00977 5.46957 6.00977 6V18C6.00977 18.5304 6.22048 19.0391 6.59555 19.4142C6.97062 19.7893 7.47933 20 8.00977 20H16.0098C16.5402 20 17.0489 19.7893 17.424 19.4142C17.7991 19.0391 18.0098 18.5304 18.0098 18V6C18.0098 5.46957 17.7991 4.96086 17.424 4.58579C17.0489 4.21071 16.5402 4 16.0098 4H8.00977ZM12.0098 19C10.6837 19 9.41191 18.4732 8.47423 17.5355C7.53655 16.5979 7.00977 15.3261 7.00977 14C7.00977 12.6739 7.53655 11.4021 8.47423 10.4645C9.41191 9.52678 10.6837 9 12.0098 9C13.3358 9 14.6076 9.52678 15.5453 10.4645C16.483 11.4021 17.0098 12.6739 17.0098 14C17.0098 15.3261 16.483 16.5979 15.5453 17.5355C14.6076 18.4732 13.3358 19 12.0098 19ZM12.0098 17C12.8054 17 13.5685 16.6839 14.1311 16.1213C14.6937 15.5587 15.0098 14.7956 15.0098 14C15.0098 13.2044 14.6937 12.4413 14.1311 11.8787C13.5685 11.3161 12.8054 11 12.0098 11C11.2141 11 10.4511 11.3161 9.88845 11.8787C9.32584 12.4413 9.00977 13.2044 9.00977 14C9.00977 14.7956 9.32584 15.5587 9.88845 16.1213C10.4511 16.6839 11.2141 17 12.0098 17ZM8.00977 5H12.0098C12.275 5 12.5293 5.10536 12.7169 5.29289C12.9044 5.48043 13.0098 5.73478 13.0098 6V7C13.0098 7.26522 12.9044 7.51957 12.7169 7.70711C12.5293 7.89464 12.275 8 12.0098 8H8.00977C7.74455 8 7.4902 7.89464 7.30266 7.70711C7.11512 7.51957 7.00977 7.26522 7.00977 7V6C7.00977 5.73478 7.11512 5.48043 7.30266 5.29289C7.4902 5.10536 7.74455 5 8.00977 5ZM15.0098 5H16.0098C16.275 5 16.5293 5.10536 16.7169 5.29289C16.9044 5.48043 17.0098 5.73478 17.0098 6V7C17.0098 7.26522 16.9044 7.51957 16.7169 7.70711C16.5293 7.89464 16.275 8 16.0098 8H15.0098C14.7445 8 14.4902 7.89464 14.3027 7.70711C14.1151 7.51957 14.0098 7.26522 14.0098 7V6C14.0098 5.73478 14.1151 5.48043 14.3027 5.29289C14.4902 5.10536 14.7445 5 15.0098 5ZM12.0098 15C11.7445 15 11.4902 14.8946 11.3027 14.7071C11.1151 14.5196 11.0098 14.2652 11.0098 14C11.0098 13.7348 11.1151 13.4804 11.3027 13.2929C11.4902 13.1054 11.7445 13 12.0098 13C12.275 13 12.5293 13.1054 12.7169 13.2929C12.9044 13.4804 13.0098 13.7348 13.0098 14C13.0098 14.2652 12.9044 14.5196 12.7169 14.7071C12.5293 14.8946 12.275 15 12.0098 15Z" fill="#21272A"/>
</svg>
