<svg width="24" height="24" viewBox="0 0 24 24" fill="none" xmlns="http://www.w3.org/2000/svg">
<path d="M8.00977 19H16.0098V17H8.00977V19ZM8.54477 15H15.4748C15.1238 14.3917 14.6187 13.8865 14.0104 13.5354C13.4021 13.1843 12.7121 12.9996 12.0098 13C10.5298 13 9.23677 13.804 8.54477 15ZM16.0098 7V5H8.00977V7H16.0098ZM15.4748 9H8.54477C8.89576 9.60835 9.40082 10.1135 10.0091 10.4646C10.6174 10.8157 11.3074 11.0004 12.0098 11C13.4898 11 14.7828 10.196 15.4748 9ZM15.3278 12C16.153 12.5471 16.8298 13.2901 17.2978 14.1626C17.7659 15.0351 18.0104 16.0099 18.0098 17V21C18.0098 21.2652 17.9044 21.5196 17.7169 21.7071C17.5293 21.8946 17.275 22 17.0098 22C16.7445 22 16.4902 21.8946 16.3027 21.7071C16.1151 21.5196 16.0098 21.2652 16.0098 21H8.00977C8.00977 21.2652 7.90441 21.5196 7.71687 21.7071C7.52934 21.8946 7.27498 22 7.00977 22C6.74455 22 6.4902 21.8946 6.30266 21.7071C6.11512 21.5196 6.00977 21.2652 6.00977 21V17C6.00908 16.0099 6.25367 15.0351 6.72168 14.1626C7.18969 13.2901 7.86654 12.5471 8.69177 12C7.86654 11.4529 7.18969 10.7099 6.72168 9.83744C6.25367 8.96494 6.00908 7.9901 6.00977 7V3C6.00977 2.73478 6.11512 2.48043 6.30266 2.29289C6.4902 2.10536 6.74455 2 7.00977 2C7.27498 2 7.52934 2.10536 7.71687 2.29289C7.90441 2.48043 8.00977 2.73478 8.00977 3H16.0098C16.0098 2.73478 16.1151 2.48043 16.3027 2.29289C16.4902 2.10536 16.7445 2 17.0098 2C17.275 2 17.5293 2.10536 17.7169 2.29289C17.9044 2.48043 18.0098 2.73478 18.0098 3V7C18.0104 7.9901 17.7659 8.96494 17.2978 9.83744C16.8298 10.7099 16.153 11.4529 15.3278 12Z" fill="#21272A"/>
</svg>
