<svg width="24" height="24" viewBox="0 0 24 24" fill="none" xmlns="http://www.w3.org/2000/svg">
<path d="M7.00977 2H17.0098C17.8054 2 18.5685 2.31607 19.1311 2.87868C19.6937 3.44129 20.0098 4.20435 20.0098 5V19C20.0098 19.7956 19.6937 20.5587 19.1311 21.1213C18.5685 21.6839 17.8054 22 17.0098 22H7.00977C6.21412 22 5.45105 21.6839 4.88845 21.1213C4.32584 20.5587 4.00977 19.7956 4.00977 19V5C4.00977 4.20435 4.32584 3.44129 4.88845 2.87868C5.45105 2.31607 6.21412 2 7.00977 2V2ZM7.00977 4C6.74455 4 6.4902 4.10536 6.30266 4.29289C6.11512 4.48043 6.00977 4.73478 6.00977 5V19C6.00977 19.2652 6.11512 19.5196 6.30266 19.7071C6.4902 19.8946 6.74455 20 7.00977 20H17.0098C17.275 20 17.5293 19.8946 17.7169 19.7071C17.9044 19.5196 18.0098 19.2652 18.0098 19V5C18.0098 4.73478 17.9044 4.48043 17.7169 4.29289C17.5293 4.10536 17.275 4 17.0098 4H7.00977ZM9.00977 5H15.0098C15.275 5 15.5293 5.10536 15.7169 5.29289C15.9044 5.48043 16.0098 5.73478 16.0098 6C16.0098 6.26522 15.9044 6.51957 15.7169 6.70711C15.5293 6.89464 15.275 7 15.0098 7H9.00977C8.74455 7 8.4902 6.89464 8.30266 6.70711C8.11512 6.51957 8.00977 6.26522 8.00977 6C8.00977 5.73478 8.11512 5.48043 8.30266 5.29289C8.4902 5.10536 8.74455 5 9.00977 5ZM9.00977 17H11.0098C11.275 17 11.5293 17.1054 11.7169 17.2929C11.9044 17.4804 12.0098 17.7348 12.0098 18C12.0098 18.2652 11.9044 18.5196 11.7169 18.7071C11.5293 18.8946 11.275 19 11.0098 19H9.00977C8.74455 19 8.4902 18.8946 8.30266 18.7071C8.11512 18.5196 8.00977 18.2652 8.00977 18C8.00977 17.7348 8.11512 17.4804 8.30266 17.2929C8.4902 17.1054 8.74455 17 9.00977 17ZM9.00977 13H15.0098C15.275 13 15.5293 13.1054 15.7169 13.2929C15.9044 13.4804 16.0098 13.7348 16.0098 14C16.0098 14.2652 15.9044 14.5196 15.7169 14.7071C15.5293 14.8946 15.275 15 15.0098 15H9.00977C8.74455 15 8.4902 14.8946 8.30266 14.7071C8.11512 14.5196 8.00977 14.2652 8.00977 14C8.00977 13.7348 8.11512 13.4804 8.30266 13.2929C8.4902 13.1054 8.74455 13 9.00977 13ZM9.00977 9H15.0098C15.275 9 15.5293 9.10536 15.7169 9.29289C15.9044 9.48043 16.0098 9.73478 16.0098 10C16.0098 10.2652 15.9044 10.5196 15.7169 10.7071C15.5293 10.8946 15.275 11 15.0098 11H9.00977C8.74455 11 8.4902 10.8946 8.30266 10.7071C8.11512 10.5196 8.00977 10.2652 8.00977 10C8.00977 9.73478 8.11512 9.48043 8.30266 9.29289C8.4902 9.10536 8.74455 9 9.00977 9Z" fill="#21272A"/>
</svg>
