<svg width="24" height="24" viewBox="0 0 24 24" fill="none" xmlns="http://www.w3.org/2000/svg">
<path d="M8.00977 2H16.0098C16.5402 2 17.0489 2.21071 17.424 2.58579C17.7991 2.96086 18.0098 3.46957 18.0098 4V20C18.0098 20.5304 17.7991 21.0391 17.424 21.4142C17.0489 21.7893 16.5402 22 16.0098 22H8.00977C7.47933 22 6.97062 21.7893 6.59555 21.4142C6.22048 21.0391 6.00977 20.5304 6.00977 20V4C6.00977 3.46957 6.22048 2.96086 6.59555 2.58579C6.97062 2.21071 7.47933 2 8.00977 2V2ZM8.00977 4V20H16.0098V4H8.00977ZM10.0098 11H11.0098C11.275 11 11.5293 11.1054 11.7169 11.2929C11.9044 11.4804 12.0098 11.7348 12.0098 12C12.0098 12.2652 11.9044 12.5196 11.7169 12.7071C11.5293 12.8946 11.275 13 11.0098 13H10.0098C9.74455 13 9.4902 12.8946 9.30266 12.7071C9.11512 12.5196 9.00977 12.2652 9.00977 12C9.00977 11.7348 9.11512 11.4804 9.30266 11.2929C9.4902 11.1054 9.74455 11 10.0098 11Z" fill="#21272A"/>
</svg>
