<svg width="24" height="24" viewBox="0 0 24 24" fill="none" xmlns="http://www.w3.org/2000/svg">
<path d="M13.0098 11.641L14.1308 10.521C14.3192 10.3387 14.5718 10.2377 14.834 10.2398C15.0962 10.2419 15.3471 10.3469 15.5326 10.5322C15.7181 10.7175 15.8235 10.9682 15.826 11.2304C15.8284 11.4926 15.7278 11.7453 15.5458 11.934L12.7168 14.763C12.6241 14.8562 12.514 14.9301 12.3926 14.9806C12.2713 15.0311 12.1412 15.057 12.0098 15.057C11.8784 15.057 11.7482 15.0311 11.6269 14.9806C11.5056 14.9301 11.3954 14.8562 11.3028 14.763L8.47377 11.934C8.38092 11.841 8.3073 11.7307 8.2571 11.6092C8.2069 11.4878 8.18112 11.3577 8.18121 11.2263C8.1813 11.0949 8.20727 10.9648 8.25764 10.8435C8.30801 10.7221 8.38179 10.6118 8.47477 10.519C8.56774 10.4262 8.67809 10.3525 8.79952 10.3023C8.92095 10.2521 9.05108 10.2264 9.18247 10.2264C9.31387 10.2265 9.44396 10.2525 9.56532 10.3029C9.68667 10.3532 9.79692 10.427 9.88977 10.52L11.0098 11.641V6C11.0098 5.73478 11.1151 5.48043 11.3027 5.29289C11.4902 5.10536 11.7445 5 12.0098 5C12.275 5 12.5293 5.10536 12.7169 5.29289C12.9044 5.48043 13.0098 5.73478 13.0098 6V11.641ZM6.00977 17H18.0098C18.275 17 18.5293 17.1054 18.7169 17.2929C18.9044 17.4804 19.0098 17.7348 19.0098 18C19.0098 18.2652 18.9044 18.5196 18.7169 18.7071C18.5293 18.8946 18.275 19 18.0098 19H6.00977C5.74455 19 5.4902 18.8946 5.30266 18.7071C5.11512 18.5196 5.00977 18.2652 5.00977 18C5.00977 17.7348 5.11512 17.4804 5.30266 17.2929C5.4902 17.1054 5.74455 17 6.00977 17Z" fill="#21272A"/>
</svg>
