<svg width="24" height="24" viewBox="0 0 24 24" fill="none" xmlns="http://www.w3.org/2000/svg">
<path d="M14.2038 8.82704C13.6918 8.50904 13.2078 8.38404 12.7238 8.06504C12.4248 7.86304 12.0098 7.38204 11.6608 6.96704C11.5938 7.63204 11.3908 7.90304 11.1578 8.09504C10.6658 8.48004 10.3568 8.59504 9.93077 8.82704C9.57277 9.01004 7.63077 10.166 7.63077 12.652C7.63077 15.137 9.72777 16.967 12.0568 16.967C14.3868 16.967 16.4078 15.282 16.4078 12.729C16.4078 10.175 14.5128 9.01904 14.2038 8.82704ZM14.2438 15.996C13.9465 16.2176 13.596 16.3569 13.2278 16.4C12.7058 16.448 11.9998 16.477 11.5748 16.092C11.5078 16.024 11.5258 15.929 11.5748 15.89C11.6228 15.85 11.6618 15.822 11.7198 15.822C11.7788 15.822 11.7678 15.822 11.7978 15.842C11.9908 15.996 12.2808 16.12 12.8988 16.12C13.5178 16.12 13.9528 15.948 14.1458 15.803C14.2328 15.735 14.2718 15.793 14.2818 15.832C14.2918 15.87 14.3108 15.928 14.2428 15.996H14.2438ZM12.5678 15.185C12.6738 15.088 12.8478 14.934 13.0128 14.867C13.1768 14.799 13.2628 14.809 13.4188 14.809C13.5728 14.809 13.7388 14.819 13.8538 14.896C13.9698 14.973 14.0378 15.146 14.0748 15.242C14.1148 15.339 14.0748 15.396 13.9988 15.435C13.9318 15.473 13.9218 15.455 13.8538 15.329C13.7868 15.204 13.7278 15.079 13.3898 15.079C13.0518 15.079 12.9448 15.194 12.7808 15.329C12.6168 15.464 12.5588 15.512 12.5008 15.435C12.4418 15.358 12.4608 15.281 12.5678 15.185ZM16.0568 13.348C16.0568 13.647 15.9608 14.186 15.7278 14.523C15.4968 14.861 15.3518 14.986 15.0798 14.967C14.7318 14.937 14.0358 13.859 13.5918 13.839C13.0318 13.819 11.8128 15.006 10.8558 15.006C10.2758 15.006 10.1018 14.919 9.90877 14.793C9.61877 14.591 9.47377 14.283 9.48277 13.859C9.49277 13.107 10.1978 12.404 11.0878 12.395C12.2178 12.385 13.0028 13.511 13.5718 13.502C14.0558 13.493 14.9838 12.548 15.4388 12.548C15.9218 12.548 16.0568 13.048 16.0568 13.348Z" fill="#21272A"/>
<path d="M6.00977 4C5.47933 4 4.97062 4.21071 4.59555 4.58579C4.22048 4.96086 4.00977 5.46957 4.00977 6V18C4.00977 18.5304 4.22048 19.0391 4.59555 19.4142C4.97062 19.7893 5.47933 20 6.00977 20H18.0098C18.5402 20 19.0489 19.7893 19.424 19.4142C19.7991 19.0391 20.0098 18.5304 20.0098 18V6C20.0098 5.46957 19.7991 4.96086 19.424 4.58579C19.0489 4.21071 18.5402 4 18.0098 4H6.00977ZM6.00977 2H18.0098C19.0706 2 20.088 2.42143 20.8382 3.17157C21.5883 3.92172 22.0098 4.93913 22.0098 6V18C22.0098 19.0609 21.5883 20.0783 20.8382 20.8284C20.088 21.5786 19.0706 22 18.0098 22H6.00977C4.9489 22 3.93148 21.5786 3.18134 20.8284C2.43119 20.0783 2.00977 19.0609 2.00977 18V6C2.00977 4.93913 2.43119 3.92172 3.18134 3.17157C3.93148 2.42143 4.9489 2 6.00977 2V2Z" fill="#21272A"/>
</svg>
