<svg width="24" height="24" viewBox="0 0 24 24" fill="none" xmlns="http://www.w3.org/2000/svg">
<path d="M12 20C14.1217 20 16.1566 19.1571 17.6569 17.6569C19.1571 16.1566 20 14.1217 20 12C20 9.87827 19.1571 7.84344 17.6569 6.34315C16.1566 4.84285 14.1217 4 12 4C9.87827 4 7.84344 4.84285 6.34315 6.34315C4.84285 7.84344 4 9.87827 4 12C4 14.1217 4.84285 16.1566 6.34315 17.6569C7.84344 19.1571 9.87827 20 12 20ZM12 22C6.477 22 2 17.523 2 12C2 6.477 6.477 2 12 2C17.523 2 22 6.477 22 12C22 17.523 17.523 22 12 22Z" fill="#21272A"/>
<path d="M14.194 8.82704C13.682 8.50904 13.198 8.38404 12.714 8.06504C12.415 7.86304 12 7.38204 11.651 6.96704C11.584 7.63204 11.381 7.90304 11.148 8.09504C10.656 8.48004 10.347 8.59504 9.921 8.82704C9.563 9.01004 7.621 10.166 7.621 12.652C7.621 15.137 9.718 16.967 12.047 16.967C14.377 16.967 16.398 15.282 16.398 12.729C16.398 10.175 14.503 9.01904 14.194 8.82704ZM14.234 15.996C13.9367 16.2176 13.5863 16.3569 13.218 16.4C12.696 16.448 11.99 16.477 11.565 16.092C11.498 16.024 11.516 15.929 11.565 15.89C11.613 15.85 11.652 15.822 11.71 15.822C11.769 15.822 11.758 15.822 11.788 15.842C11.981 15.996 12.271 16.12 12.889 16.12C13.508 16.12 13.943 15.948 14.136 15.803C14.223 15.735 14.262 15.793 14.272 15.832C14.282 15.87 14.301 15.928 14.233 15.996H14.234ZM12.558 15.185C12.664 15.088 12.838 14.934 13.003 14.867C13.167 14.799 13.253 14.809 13.409 14.809C13.563 14.809 13.729 14.819 13.844 14.896C13.96 14.973 14.028 15.146 14.065 15.242C14.105 15.339 14.065 15.396 13.989 15.435C13.922 15.473 13.912 15.455 13.844 15.329C13.777 15.204 13.718 15.079 13.38 15.079C13.042 15.079 12.935 15.194 12.771 15.329C12.607 15.464 12.549 15.512 12.491 15.435C12.432 15.358 12.451 15.281 12.558 15.185ZM16.047 13.348C16.047 13.647 15.951 14.186 15.718 14.523C15.487 14.861 15.342 14.986 15.07 14.967C14.722 14.937 14.026 13.859 13.582 13.839C13.022 13.819 11.803 15.006 10.846 15.006C10.266 15.006 10.092 14.919 9.899 14.793C9.609 14.591 9.464 14.283 9.473 13.859C9.483 13.107 10.188 12.404 11.078 12.395C12.208 12.385 12.993 13.511 13.562 13.502C14.046 13.493 14.974 12.548 15.429 12.548C15.912 12.548 16.047 13.048 16.047 13.348Z" fill="#21272A"/>
</svg>
