<svg width="24" height="24" viewBox="0 0 24 24" fill="none" xmlns="http://www.w3.org/2000/svg">
<path d="M16.134 5.711C15.112 5.076 14.145 4.827 13.181 4.191C12.583 3.788 11.754 2.827 11.058 2C10.924 3.327 10.518 3.866 10.055 4.251C9.073 5.019 8.455 5.249 7.605 5.711C6.891 6.077 3.013 8.384 3.013 13.345C3.013 18.306 7.201 21.96 11.85 21.96C16.5 21.96 20.533 18.595 20.533 13.5C20.533 8.404 16.751 6.097 16.133 5.712L16.134 5.711ZM16.212 20.019C16.115 20.115 15.228 20.73 14.186 20.827C13.144 20.923 11.736 20.98 10.887 20.211C10.752 20.076 10.79 19.885 10.887 19.809C10.983 19.73 11.06 19.673 11.177 19.673C11.293 19.673 11.272 19.673 11.331 19.711C11.717 20.019 12.295 20.268 13.529 20.268C14.765 20.268 15.634 19.924 16.019 19.634C16.193 19.5 16.269 19.615 16.289 19.692C16.309 19.769 16.347 19.885 16.212 20.019ZM12.868 18.401C13.081 18.208 13.428 17.9 13.758 17.766C14.085 17.631 14.257 17.65 14.567 17.65C14.875 17.65 15.204 17.67 15.435 17.824C15.666 17.978 15.802 18.324 15.877 18.514C15.955 18.708 15.877 18.823 15.724 18.9C15.59 18.976 15.57 18.938 15.435 18.689C15.301 18.439 15.185 18.189 14.509 18.189C13.834 18.189 13.622 18.419 13.294 18.689C12.966 18.958 12.85 19.054 12.734 18.9C12.618 18.747 12.657 18.592 12.868 18.4V18.401ZM19.832 14.735C19.832 15.331 19.64 16.407 19.176 17.08C18.714 17.754 18.426 18.005 17.883 17.966C17.188 17.907 15.799 15.754 14.912 15.714C13.794 15.677 11.362 18.044 9.452 18.044C8.293 18.044 7.947 17.87 7.562 17.619C6.982 17.215 6.692 16.6 6.712 15.754C6.732 14.254 8.139 12.851 9.915 12.832C12.171 12.812 13.736 15.061 14.873 15.042C15.838 15.025 17.691 13.139 18.598 13.139C19.562 13.139 19.832 14.137 19.832 14.735Z" fill="#21272A"/>
</svg>
