<svg width="24" height="24" viewBox="0 0 24 24" fill="none" xmlns="http://www.w3.org/2000/svg">
<path d="M20.8628 9.72903L19.1698 13.31L17.4698 9.72703H16.2868L16.5898 10.325C16.1898 9.69503 15.3988 9.53503 14.6758 9.53503C12.5608 9.53503 12.4258 10.755 12.4258 10.949H13.4778C13.4778 10.949 13.5328 10.237 14.6028 10.237C15.2978 10.237 15.8358 10.572 15.8358 11.216V11.446H14.6028C13.2348 11.446 12.4068 11.797 12.1698 12.509C12.1938 12.351 12.2068 12.187 12.2068 12.018C12.2068 10.649 11.3308 9.54903 9.85077 9.54903C8.46477 9.54903 8.03377 10.337 8.03377 10.337V7.70203H7.01677V11.713C7.00177 10.842 6.46477 9.53603 4.58677 9.53603C3.17977 9.53703 2.00977 10.164 2.00977 12.059C2.00977 13.559 2.79777 14.504 4.62277 14.504C6.77077 14.504 6.90877 13.014 6.90877 13.014H5.86977C5.86977 13.014 5.64577 13.816 4.55977 13.816C3.67577 13.816 3.03977 13.187 3.03977 12.306H7.01877V13.552C7.01877 13.884 6.99577 14.351 6.99577 14.351H7.98877C7.98877 14.351 8.02477 14.016 8.02477 13.71C8.02477 13.71 8.51477 14.518 9.84877 14.518C10.9868 14.518 11.8288 13.845 12.1078 12.808C12.1028 12.862 12.0988 12.918 12.0988 12.976C12.0988 13.983 12.8988 14.531 13.9808 14.531C15.4548 14.531 15.9298 13.674 15.9298 13.674C15.9298 14.015 15.9548 14.351 15.9548 14.351H16.8898C16.8898 14.351 16.8538 13.934 16.8538 13.668V11.366C16.8538 11.057 16.8058 10.8 16.7188 10.584L18.6158 14.33L17.7238 16.109H18.8488L21.9368 9.72903H20.8638H20.8628ZM3.06277 11.6C3.06277 10.736 3.81177 10.244 4.54977 10.244C5.39177 10.244 5.96577 10.787 5.96577 11.6H3.06277ZM9.59977 13.795C8.58177 13.795 8.03277 12.958 8.03277 12.031C8.03277 11.167 8.52477 10.276 9.59277 10.276C10.5468 10.276 11.1528 11.021 11.1528 12.021C11.1528 13.093 10.4528 13.795 9.59977 13.795ZM15.8348 12.441C15.8348 12.841 15.6008 13.831 14.2248 13.831C13.4728 13.831 13.1488 13.435 13.1488 12.976C13.1488 12.141 14.2368 12.136 15.8348 12.136V12.441Z" fill="#21272A"/>
</svg>
