<svg width="24" height="24" viewBox="0 0 24 24" fill="none" xmlns="http://www.w3.org/2000/svg">
<path d="M12.0098 20C13.6011 20 15.1272 19.3679 16.2524 18.2426C17.3776 17.1174 18.0098 15.5913 18.0098 14C18.0098 9.779 14.5918 4 12.0098 4C9.42777 4 6.00977 9.779 6.00977 14C6.00977 15.5913 6.64191 17.1174 7.76712 18.2426C8.89234 19.3679 10.4185 20 12.0098 20ZM12.0098 22C9.88803 22 7.8532 21.1571 6.35291 19.6569C4.85262 18.1566 4.00977 16.1217 4.00977 14C4.00977 9.582 7.59177 2 12.0098 2C16.4278 2 20.0098 9.582 20.0098 14C20.0098 16.1217 19.1669 18.1566 17.6666 19.6569C16.1663 21.1571 14.1315 22 12.0098 22Z" fill="#21272A"/>
</svg>
