<svg width="24" height="24" viewBox="0 0 24 24" fill="none" xmlns="http://www.w3.org/2000/svg">
<path d="M13.8528 15.87C14.4573 16.2571 15.1549 16.4744 15.8723 16.4991C16.5897 16.5237 17.3006 16.3549 17.9303 16.0102C18.56 15.6655 19.0853 15.1578 19.4512 14.5402C19.8171 13.9225 20.01 13.2179 20.0098 12.5C20.0098 11.262 19.3868 9.364 18.4298 7.802C17.5228 6.322 16.5338 5.5 16.0098 5.5C15.4858 5.5 14.4968 6.322 13.5898 7.802C13.2245 8.40195 12.9117 9.03228 12.6548 9.686C12.2944 8.9723 11.8668 8.29457 11.3778 7.662C12.5318 5.41 14.2698 3.5 16.0098 3.5C19.0098 3.5 22.0098 9.186 22.0098 12.5C22.01 13.5478 21.7359 14.5773 21.2146 15.4863C20.6934 16.3952 19.9432 17.1517 19.0387 17.6807C18.1343 18.2096 17.107 18.4925 16.0593 18.5011C15.0116 18.5098 13.9798 18.2439 13.0668 17.73C13.4268 17.167 13.6968 16.54 13.8528 15.87ZM8.00977 20.5C6.41847 20.5 4.89234 19.8679 3.76712 18.7426C2.64191 17.6174 2.00977 16.0913 2.00977 14.5C2.00977 11.186 5.00977 5.5 8.00977 5.5C11.0098 5.5 14.0098 11.186 14.0098 14.5C14.0098 16.0913 13.3776 17.6174 12.2524 18.7426C11.1272 19.8679 9.60106 20.5 8.00977 20.5ZM8.00977 18.5C9.07063 18.5 10.088 18.0786 10.8382 17.3284C11.5883 16.5783 12.0098 15.5609 12.0098 14.5C12.0098 13.262 11.3868 11.364 10.4298 9.802C9.52277 8.322 8.53377 7.5 8.00977 7.5C7.48577 7.5 6.49677 8.322 5.58977 9.802C4.63277 11.364 4.00977 13.262 4.00977 14.5C4.00977 15.5609 4.43119 16.5783 5.18134 17.3284C5.93148 18.0786 6.9489 18.5 8.00977 18.5Z" fill="#21272A"/>
</svg>
