<svg width="24" height="24" viewBox="0 0 24 24" fill="none" xmlns="http://www.w3.org/2000/svg">
<path d="M12.0098 22C6.48677 22 2.00977 17.523 2.00977 12C2.00977 6.477 6.48677 2 12.0098 2C17.5328 2 22.0098 6.477 22.0098 12C22.0098 17.523 17.5328 22 12.0098 22ZM12.0098 20C14.1315 20 16.1663 19.1571 17.6666 17.6569C19.1669 16.1566 20.0098 14.1217 20.0098 12C20.0098 9.87827 19.1669 7.84344 17.6666 6.34315C16.1663 4.84285 14.1315 4 12.0098 4C9.88803 4 7.8532 4.84285 6.35291 6.34315C4.85262 7.84344 4.00977 9.87827 4.00977 12C4.00977 14.1217 4.85262 16.1566 6.35291 17.6569C7.8532 19.1571 9.88803 20 12.0098 20ZM13.7558 7.413L16.6538 11.468C17.2998 12.373 17.0428 13.598 16.0778 14.205C15.7269 14.4241 15.3214 14.5398 14.9078 14.539H9.11177C7.95177 14.539 7.00977 13.656 7.00977 12.567C7.00977 12.176 7.13377 11.793 7.36577 11.468L10.2638 7.413C10.9108 6.508 12.2158 6.267 13.1808 6.873C13.4078 7.016 13.6028 7.2 13.7558 7.413ZM9.11177 12.567H14.9078L12.0098 8.512L9.11177 12.567ZM8.00977 15.539H16.0098C16.275 15.539 16.5293 15.6444 16.7169 15.8319C16.9044 16.0194 17.0098 16.2738 17.0098 16.539C17.0098 16.8042 16.9044 17.0586 16.7169 17.2461C16.5293 17.4336 16.275 17.539 16.0098 17.539H8.00977C7.74455 17.539 7.4902 17.4336 7.30266 17.2461C7.11512 17.0586 7.00977 16.8042 7.00977 16.539C7.00977 16.2738 7.11512 16.0194 7.30266 15.8319C7.4902 15.6444 7.74455 15.539 8.00977 15.539Z" fill="#21272A"/>
</svg>
