<svg width="24" height="24" viewBox="0 0 24 24" fill="none" xmlns="http://www.w3.org/2000/svg">
<path d="M20.3198 9.50997C21.1628 10.238 21.2448 11.498 20.5018 12.324C20.309 12.5374 20.0736 12.7078 19.8107 12.8243C19.5478 12.9408 19.2633 13.0006 18.9758 13H5.04377C3.92077 13 3.00977 12.107 3.00977 11.006C3.00977 10.433 3.26077 9.88797 3.69977 9.50997L10.6658 3.49797C11.04 3.1771 11.5168 3.00073 12.0098 3.00073C12.5028 3.00073 12.9795 3.1771 13.3538 3.49797L20.3198 9.50997ZM5.04377 11.006H18.9758L12.0098 4.99397L5.04377 11.006ZM21.0098 17V19C21.0098 19.5304 20.7991 20.0391 20.424 20.4142C20.0489 20.7893 19.5402 21 19.0098 21H5.00977C4.47933 21 3.97062 20.7893 3.59555 20.4142C3.22048 20.0391 3.00977 19.5304 3.00977 19V17C3.00977 16.4695 3.22048 15.9608 3.59555 15.5858C3.97062 15.2107 4.47933 15 5.00977 15H19.0098C19.5402 15 20.0489 15.2107 20.424 15.5858C20.7991 15.9608 21.0098 16.4695 21.0098 17ZM19.0098 17H5.00977V19H19.0098V17Z" fill="#21272A"/>
</svg>
