<svg width="24" height="24" viewBox="0 0 24 24" fill="none" xmlns="http://www.w3.org/2000/svg">
<path d="M6.00977 2H18.0098C19.0706 2 20.088 2.42143 20.8382 3.17157C21.5883 3.92172 22.0098 4.93913 22.0098 6V18C22.0098 19.0609 21.5883 20.0783 20.8382 20.8284C20.088 21.5786 19.0706 22 18.0098 22H6.00977C4.9489 22 3.93148 21.5786 3.18134 20.8284C2.43119 20.0783 2.00977 19.0609 2.00977 18V6C2.00977 4.93913 2.43119 3.92172 3.18134 3.17157C3.93148 2.42143 4.9489 2 6.00977 2V2ZM6.00977 4C5.47933 4 4.97062 4.21071 4.59555 4.58579C4.22048 4.96086 4.00977 5.46957 4.00977 6V18C4.00977 18.5304 4.22048 19.0391 4.59555 19.4142C4.97062 19.7893 5.47933 20 6.00977 20H18.0098C18.5402 20 19.0489 19.7893 19.424 19.4142C19.7991 19.0391 20.0098 18.5304 20.0098 18V6C20.0098 5.46957 19.7991 4.96086 19.424 4.58579C19.0489 4.21071 18.5402 4 18.0098 4H6.00977ZM13.7558 7.413L16.6538 11.468C17.2998 12.373 17.0428 13.598 16.0778 14.205C15.7269 14.4241 15.3214 14.5398 14.9078 14.539H9.11177C7.95177 14.539 7.00977 13.656 7.00977 12.567C7.00977 12.176 7.13377 11.793 7.36577 11.468L10.2638 7.413C10.9108 6.508 12.2158 6.267 13.1808 6.873C13.4078 7.016 13.6028 7.2 13.7558 7.413ZM9.11177 12.567H14.9078L12.0098 8.512L9.11177 12.567ZM8.00977 15.539H16.0098C16.275 15.539 16.5293 15.6444 16.7169 15.8319C16.9044 16.0194 17.0098 16.2738 17.0098 16.539C17.0098 16.8042 16.9044 17.0586 16.7169 17.2461C16.5293 17.4336 16.275 17.539 16.0098 17.539H8.00977C7.74455 17.539 7.4902 17.4336 7.30266 17.2461C7.11512 17.0586 7.00977 16.8042 7.00977 16.539C7.00977 16.2738 7.11512 16.0194 7.30266 15.8319C7.4902 15.6444 7.74455 15.539 8.00977 15.539Z" fill="#21272A"/>
</svg>
