<svg width="24" height="24" viewBox="0 0 24 24" fill="none" xmlns="http://www.w3.org/2000/svg">
<path d="M4.33777 8.86797L11.3548 15.121C11.5379 15.284 11.7746 15.3741 12.0198 15.3741C12.265 15.3741 12.5016 15.284 12.6848 15.121L19.6938 8.87497L12.5568 4.20997C12.3941 4.10369 12.204 4.0471 12.0098 4.0471C11.8155 4.0471 11.6254 4.10369 11.4628 4.20997L4.33777 8.86797ZM20.0098 9.08197V11.272L14.0158 16.614C13.4662 17.1037 12.7558 17.3743 12.0198 17.3743C11.2837 17.3743 10.5733 17.1037 10.0238 16.614L4.00977 11.254V9.08297V20H20.0098V9.08197ZM2.91577 7.40797L10.3688 2.53597C10.8567 2.21715 11.4269 2.04736 12.0098 2.04736C12.5926 2.04736 13.1628 2.21715 13.6508 2.53597L21.1038 7.40797C21.382 7.58975 21.6105 7.838 21.7687 8.13027C21.9269 8.42255 22.0097 8.74963 22.0098 9.08197V20C22.0098 20.5304 21.7991 21.0391 21.424 21.4142C21.0489 21.7893 20.5402 22 20.0098 22H4.00977C3.47933 22 2.97062 21.7893 2.59555 21.4142C2.22048 21.0391 2.00977 20.5304 2.00977 20V9.08197C2.00981 8.74963 2.09267 8.42255 2.25085 8.13027C2.40904 7.838 2.63756 7.58975 2.91577 7.40797Z" fill="#21272A"/>
</svg>
