<svg width="24" height="24" viewBox="0 0 24 24" fill="none" xmlns="http://www.w3.org/2000/svg">
<path d="M11.4598 6.14506C11.2676 6.42344 11.0079 6.64853 10.7051 6.79928C10.4023 6.95002 10.0662 7.02149 9.72821 7.00701C9.39025 6.99252 9.06149 6.89255 8.77267 6.71645C8.48385 6.54035 8.24442 6.29386 8.07677 6.00006H6.00977C5.47933 6.00006 4.97062 6.21077 4.59555 6.58585C4.22048 6.96092 4.00977 7.46963 4.00977 8.00006V11.0001C4.00977 11.2653 3.90441 11.5196 3.71687 11.7072C3.52934 11.8947 3.27498 12.0001 3.00977 12.0001C2.74455 12.0001 2.4902 11.8947 2.30266 11.7072C2.11512 11.5196 2.00977 11.2653 2.00977 11.0001V8.00006C2.00977 6.93919 2.43119 5.92178 3.18134 5.17163C3.93148 4.42149 4.9489 4.00006 6.00977 4.00006H8.08677C8.25701 3.70832 8.49837 3.46444 8.78833 3.29119C9.0783 3.11793 9.40742 3.02094 9.745 3.00926C10.0826 2.99758 10.4176 3.07158 10.7189 3.22438C11.0201 3.37718 11.2778 3.60378 11.4678 3.88306C11.4997 3.63155 11.626 3.40156 11.821 3.23961C12.0161 3.07766 12.2654 2.99584 12.5184 3.0107C12.7715 3.02557 13.0095 3.13601 13.1843 3.31968C13.359 3.50335 13.4575 3.74654 13.4598 4.00006H14.7708L20.7318 2.03606L20.7348 2.03806C20.8791 1.99686 21.0308 1.98866 21.1787 2.01408C21.3266 2.03951 21.4669 2.09789 21.5892 2.18491C21.7114 2.27193 21.8125 2.38535 21.885 2.51676C21.9575 2.64818 21.9994 2.79422 22.0078 2.94406L22.0098 2.94506V6.93706L22.0078 6.93806L22.0098 7.00006C22.0099 7.15491 21.974 7.30767 21.905 7.44629C21.8359 7.58492 21.7357 7.70562 21.6121 7.79888C21.4885 7.89215 21.3449 7.95544 21.1926 7.98375C21.0404 8.01207 20.8836 8.00464 20.7348 7.96206L20.7318 7.96406L14.9018 6.00006H13.4598V7.00906C13.4598 7.03906 13.4588 7.06906 13.4558 7.09906C14.462 7.31581 15.3636 7.87084 16.0103 8.67166C16.657 9.47248 17.0098 10.4707 17.0098 11.5001V19.0001C17.0098 19.7957 16.6937 20.5588 16.1311 21.1214C15.5685 21.684 14.8054 22.0001 14.0098 22.0001H11.0098C10.2141 22.0001 9.45105 21.684 8.88845 21.1214C8.32584 20.5588 8.00977 19.7957 8.00977 19.0001V11.5001C8.01 10.488 8.35127 9.50545 8.97849 8.71112C9.60572 7.91679 10.4823 7.35699 11.4668 7.12206C11.4623 7.08455 11.46 7.04683 11.4598 7.00906V6.14506ZM20.0568 5.67406V4.43606L18.1908 5.03306L20.0568 5.67306V5.67406ZM12.5098 9.00006C11.8467 9.00006 11.2108 9.26345 10.742 9.73229C10.2732 10.2011 10.0098 10.837 10.0098 11.5001V19.0001C10.0098 19.2653 10.1151 19.5196 10.3027 19.7072C10.4902 19.8947 10.7445 20.0001 11.0098 20.0001H14.0098C14.275 20.0001 14.5293 19.8947 14.7169 19.7072C14.9044 19.5196 15.0098 19.2653 15.0098 19.0001V11.5001C15.0098 10.837 14.7464 10.2011 14.2775 9.73229C13.8087 9.26345 13.1728 9.00006 12.5098 9.00006Z" fill="#21272A"/>
</svg>
