<svg width="24" height="24" viewBox="0 0 24 24" fill="none" xmlns="http://www.w3.org/2000/svg">
<path d="M17.4078 9.22996L18.8798 7.75796C20.7588 8.84196 22.0098 10.34 22.0098 12C22.0098 15.314 17.0518 17.993 12.0098 18C10.9837 17.9999 9.96051 17.8926 8.95677 17.68L10.7038 15.934C11.1298 15.978 11.5658 16.001 12.0068 16H12.0088C11.5938 16 11.1938 15.937 10.8178 15.82L12.7988 13.838C13.2688 13.636 13.6458 13.259 13.8488 12.789L15.8288 10.808C16.0152 11.4051 16.059 12.0376 15.9566 12.6547C15.8542 13.2718 15.6085 13.8563 15.2392 14.3612C14.87 14.8662 14.3874 15.2774 13.8304 15.562C13.2733 15.8467 12.6573 15.9966 12.0318 16C16.2768 15.985 20.0098 13.816 20.0098 12C20.0098 11.057 18.9878 10.014 17.4078 9.22996ZM8.10577 12.875C7.97471 12.2904 7.97665 11.6838 8.11143 11.1001C8.24621 10.5163 8.5104 9.97031 8.88448 9.50235C9.25855 9.03439 9.73297 8.65643 10.2727 8.39639C10.8124 8.13636 11.4037 8.00088 12.0028 7.99996C7.78477 7.98496 4.00977 10.178 4.00977 12C4.00977 12.896 4.91377 13.877 6.33677 14.644L4.87877 16.1C3.14377 15.028 2.00977 13.585 2.00977 12C2.00977 8.68596 6.99377 5.98296 12.0098 5.99996C12.9238 6.00296 13.8368 6.09396 14.7188 6.26196L12.9418 8.03796C12.6518 8.01596 12.3578 8.00296 12.0618 7.99996C12.3438 8.00396 12.6188 8.03696 12.8848 8.09596L8.10477 12.875H8.10577ZM21.1018 2.70696C21.2892 2.89449 21.3946 3.1488 21.3946 3.41396C21.3946 3.67912 21.2892 3.93343 21.1018 4.12096L4.13177 21.091C4.03959 21.1865 3.9293 21.2628 3.80733 21.3153C3.68536 21.3678 3.55416 21.3955 3.42139 21.3967C3.28861 21.3979 3.15691 21.3727 3.03398 21.3225C2.91105 21.2724 2.79935 21.1982 2.70539 21.1044C2.61143 21.0105 2.5371 20.8989 2.48673 20.7761C2.43636 20.6532 2.41097 20.5215 2.41203 20.3888C2.41309 20.256 2.44058 20.1248 2.4929 20.0027C2.54522 19.8807 2.62132 19.7703 2.71677 19.678L19.6868 2.70796C19.7796 2.61498 19.8899 2.54122 20.0113 2.4909C20.1327 2.44058 20.2628 2.41467 20.3943 2.41467C20.5257 2.41467 20.6558 2.44058 20.7772 2.4909C20.8986 2.54122 21.0089 2.61498 21.1018 2.70796V2.70696Z" fill="#21272A"/>
</svg>
