<svg width="24" height="24" viewBox="0 0 24 24" fill="none" xmlns="http://www.w3.org/2000/svg">
<path d="M20.0098 12C20.0098 10.19 16.2498 8.01496 12.0028 7.99996C7.78477 7.98496 4.00977 10.178 4.00977 12C4.00977 13.825 7.76377 16.006 12.0068 16C16.2618 15.994 20.0098 13.82 20.0098 12ZM12.0098 18C6.96777 18.007 2.00977 15.314 2.00977 12C2.00977 8.68596 6.99377 5.98296 12.0098 5.99996C17.0258 6.01696 22.0098 8.68596 22.0098 12C22.0098 15.314 17.0518 17.993 12.0098 18ZM12.0098 16C10.9489 16 9.93148 15.5785 9.18134 14.8284C8.43119 14.0782 8.00977 13.0608 8.00977 12C8.00977 10.9391 8.43119 9.92168 9.18134 9.17153C9.93148 8.42139 10.9489 7.99996 12.0098 7.99996C13.0706 7.99996 14.088 8.42139 14.8382 9.17153C15.5883 9.92168 16.0098 10.9391 16.0098 12C16.0098 13.0608 15.5883 14.0782 14.8382 14.8284C14.088 15.5785 13.0706 16 12.0098 16ZM12.0098 14C12.5402 14 13.0489 13.7892 13.424 13.4142C13.7991 13.0391 14.0098 12.5304 14.0098 12C14.0098 11.4695 13.7991 10.9608 13.424 10.5857C13.0489 10.2107 12.5402 9.99996 12.0098 9.99996C11.4793 9.99996 10.9706 10.2107 10.5956 10.5857C10.2205 10.9608 10.0098 11.4695 10.0098 12C10.0098 12.5304 10.2205 13.0391 10.5956 13.4142C10.9706 13.7892 11.4793 14 12.0098 14Z" fill="#21272A"/>
</svg>
