<svg width="24" height="24" viewBox="0 0 24 24" fill="none" xmlns="http://www.w3.org/2000/svg">
<path d="M8.51177 14.3481H11.3408L14.0478 11.7701L12.6338 10.4231L8.51177 14.3481ZM6.52477 16.2531C6.08015 16.7289 5.73897 17.2917 5.52277 17.9061L5.18877 18.8601L6.19077 18.5421C6.9209 18.3119 7.5891 17.9186 8.14477 17.3921L9.34077 16.2521H6.52477V16.2531ZM16.8758 11.7701C16.9683 11.8561 17.0421 11.9604 17.0925 12.0763C17.143 12.1921 17.169 12.3172 17.169 12.4436C17.169 12.5699 17.143 12.695 17.0925 12.8108C17.0421 12.9267 16.9683 13.031 16.8758 13.1171C16.6839 13.2962 16.4312 13.3958 16.1688 13.3958C15.9063 13.3958 15.6536 13.2962 15.4618 13.1171L9.55977 18.7381C8.78144 19.4755 7.84546 20.0261 6.82277 20.3481L3.92377 21.2691C3.40077 21.4351 2.83377 21.1661 2.65977 20.6671C2.59124 20.4719 2.59124 20.2592 2.65977 20.0641L3.62577 17.3041C3.97463 16.3137 4.55388 15.4205 5.31577 14.6981L11.2198 9.07605C11.1272 8.98995 11.0535 8.88572 11.003 8.76984C10.9525 8.65396 10.9265 8.52894 10.9265 8.40255C10.9265 8.27617 10.9525 8.15114 11.003 8.03526C11.0535 7.91939 11.1272 7.81515 11.2198 7.72905C11.4116 7.54994 11.6643 7.45031 11.9268 7.45031C12.1892 7.45031 12.4419 7.54994 12.6338 7.72905L16.8758 3.68905C18.0478 2.57305 19.9468 2.57305 21.1188 3.68905C21.3959 3.94749 21.6169 4.26019 21.768 4.60771C21.9191 4.95522 21.9971 5.33011 21.9971 5.70905C21.9971 6.08799 21.9191 6.46288 21.768 6.8104C21.6169 7.15791 21.3959 7.47061 21.1188 7.72905L16.8758 11.7691V11.7701ZM14.0478 9.07605L15.4618 10.4231L19.7048 6.38305C19.7973 6.29695 19.8711 6.19272 19.9215 6.07684C19.972 5.96096 19.998 5.83594 19.998 5.70955C19.998 5.58317 19.972 5.45814 19.9215 5.34226C19.8711 5.22639 19.7973 5.12215 19.7048 5.03605C19.5129 4.85694 19.2602 4.75731 18.9978 4.75731C18.7353 4.75731 18.4826 4.85694 18.2908 5.03605L14.0478 9.07605Z" fill="#21272A"/>
</svg>
