<svg width="24" height="24" viewBox="0 0 24 24" fill="none" xmlns="http://www.w3.org/2000/svg">
<path d="M6.00977 2H18.0098C19.0706 2 20.088 2.42143 20.8382 3.17157C21.5883 3.92172 22.0098 4.93913 22.0098 6V18C22.0098 19.0609 21.5883 20.0783 20.8382 20.8284C20.088 21.5786 19.0706 22 18.0098 22H6.00977C4.9489 22 3.93148 21.5786 3.18134 20.8284C2.43119 20.0783 2.00977 19.0609 2.00977 18V6C2.00977 4.93913 2.43119 3.92172 3.18134 3.17157C3.93148 2.42143 4.9489 2 6.00977 2V2ZM6.00977 4C5.47933 4 4.97062 4.21071 4.59555 4.58579C4.22048 4.96086 4.00977 5.46957 4.00977 6V18C4.00977 18.5304 4.22048 19.0391 4.59555 19.4142C4.97062 19.7893 5.47933 20 6.00977 20H18.0098C18.5402 20 19.0489 19.7893 19.424 19.4142C19.7991 19.0391 20.0098 18.5304 20.0098 18V6C20.0098 5.46957 19.7991 4.96086 19.424 4.58579C19.0489 4.21071 18.5402 4 18.0098 4H6.00977ZM16.0528 13.6L13.5098 16.364C13.3323 16.5634 13.1149 16.7232 12.8716 16.8329C12.6283 16.9427 12.3646 16.9999 12.0977 17.001C11.8308 17.002 11.5667 16.9468 11.3226 16.8389C11.0784 16.7311 10.8597 16.573 10.6808 16.375C10.473 16.1511 10.3146 15.886 10.2158 15.597L9.50977 16.364C9.33234 16.5634 9.1149 16.7232 8.87161 16.8329C8.62831 16.9427 8.36462 16.9999 8.09772 17.001C7.83082 17.002 7.56669 16.9468 7.32255 16.8389C7.07841 16.7311 6.85973 16.573 6.68077 16.375C6.29813 15.9577 6.08737 15.4112 6.09077 14.845V9.156C6.09077 7.966 6.98577 7 8.09077 7C8.63677 7 9.15877 7.241 9.53677 7.667L10.2068 8.425C10.4868 7.595 11.2238 7 12.0898 7C12.6368 7 13.1598 7.241 13.5368 7.667L16.0528 10.509V8C16.0528 7.73478 16.1581 7.48043 16.3457 7.29289C16.5332 7.10536 16.7875 7 17.0528 7C17.318 7 17.5723 7.10536 17.7599 7.29289C17.9474 7.48043 18.0528 7.73478 18.0528 8V16C18.0528 16.2652 17.9474 16.5196 17.7599 16.7071C17.5723 16.8946 17.318 17 17.0528 17C16.7875 17 16.5332 16.8946 16.3457 16.7071C16.1581 16.5196 16.0528 16.2652 16.0528 16V13.6ZM8.08977 14.845L10.2308 12.519L10.2268 11.571L8.08977 9.156V14.844V14.845ZM12.0898 14.845L14.6568 12.057L12.0898 9.157V14.845Z" fill="#21272A"/>
</svg>
