<svg width="24" height="24" viewBox="0 0 24 24" fill="none" xmlns="http://www.w3.org/2000/svg">
<path d="M17.0098 15.085L12.4998 20.31C12.3291 20.51 12.12 20.6737 11.885 20.7915C11.6499 20.9092 11.3936 20.9787 11.1312 20.9956C10.8689 21.0126 10.6058 20.9768 10.3575 20.8903C10.1092 20.8038 9.88079 20.6683 9.68577 20.492C9.47247 20.2992 9.30207 20.0637 9.18561 19.8008C9.06916 19.5379 9.00925 19.2535 9.00977 18.966V15.086L4.49977 20.31C4.32909 20.51 4.12003 20.6737 3.88497 20.7915C3.6499 20.9092 3.3936 20.9787 3.13123 20.9956C2.86886 21.0126 2.60575 20.9768 2.35747 20.8903C2.10919 20.8038 1.88079 20.6683 1.68577 20.492C1.47247 20.2992 1.30207 20.0637 1.18561 19.8008C1.06916 19.5379 1.00925 19.2535 1.00977 18.966V5.034C1.00977 3.911 1.90277 3 3.00377 3C3.57677 3 4.12177 3.251 4.49977 3.69L9.00977 8.915V5.035C9.00977 3.91 9.90277 3 11.0038 3C11.5768 3 12.1218 3.251 12.4998 3.69L17.0098 8.915V5C17.0098 4.46957 17.2205 3.96086 17.5956 3.58579C17.9706 3.21071 18.4793 3 19.0098 3H21.0098C21.5402 3 22.0489 3.21071 22.424 3.58579C22.7991 3.96086 23.0098 4.46957 23.0098 5V19C23.0098 19.5304 22.7991 20.0391 22.424 20.4142C22.0489 20.7893 21.5402 21 21.0098 21H19.0098C18.4793 21 17.9706 20.7893 17.5956 20.4142C17.2205 20.0391 17.0098 19.5304 17.0098 19V15.085ZM17.0098 12.007V11.993L11.0038 5.034V11.84C11.0118 11.947 11.0118 12.055 11.0038 12.162V18.967L17.0098 12.007ZM3.00377 5.034V18.966L9.01577 12L3.00377 5.034ZM19.0098 5V19H21.0098V5H19.0098Z" fill="#21272A"/>
</svg>
