<svg width="24" height="24" viewBox="0 0 24 24" fill="none" xmlns="http://www.w3.org/2000/svg">
<path d="M7.00977 8.915L11.5198 3.69C11.6904 3.49001 11.8995 3.32629 12.1346 3.20852C12.3696 3.09075 12.6259 3.02133 12.8883 3.00436C13.1507 2.98739 13.4138 3.02322 13.6621 3.10973C13.9103 3.19624 14.1387 3.33166 14.3338 3.508C14.7638 3.894 15.0098 4.45 15.0098 5.034V8.914L19.5198 3.69C19.6904 3.49001 19.8995 3.32629 20.1346 3.20852C20.3696 3.09075 20.6259 3.02133 20.8883 3.00436C21.1507 2.98739 21.4138 3.02322 21.6621 3.10973C21.9103 3.19624 22.1387 3.33166 22.3338 3.508C22.7638 3.894 23.0098 4.45 23.0098 5.034V18.966C23.0098 20.089 22.1168 21 21.0158 21C20.7315 20.9993 20.4506 20.9373 20.1925 20.8183C19.9343 20.6992 19.7048 20.5258 19.5198 20.31L15.0098 15.085V18.965C15.0098 20.09 14.1168 21 13.0158 21C12.7315 20.9993 12.4506 20.9373 12.1925 20.8183C11.9343 20.6992 11.7048 20.5258 11.5198 20.31L7.00977 15.085V19C7.00977 19.5304 6.79905 20.0391 6.42398 20.4142C6.04891 20.7893 5.5402 21 5.00977 21H3.00977C2.47933 21 1.97062 20.7893 1.59555 20.4142C1.22048 20.0391 1.00977 19.5304 1.00977 19V5C1.00977 4.46957 1.22048 3.96086 1.59555 3.58579C1.97062 3.21071 2.47933 3 3.00977 3H5.00977C5.5402 3 6.04891 3.21071 6.42398 3.58579C6.79905 3.96086 7.00977 4.46957 7.00977 5V8.915ZM7.00977 12.007L13.0158 18.966V5.034L7.00977 11.993V12.007ZM15.0098 12.007L21.0158 18.966V5.034L15.0098 11.993V12.007ZM3.00977 5V19H5.00977V5H3.00977Z" fill="#21272A"/>
</svg>
