<svg width="24" height="24" viewBox="0 0 24 24" fill="none" xmlns="http://www.w3.org/2000/svg">
<path d="M6.00977 2H18.0098C19.0706 2 20.088 2.42143 20.8382 3.17157C21.5883 3.92172 22.0098 4.93913 22.0098 6V18C22.0098 19.0609 21.5883 20.0783 20.8382 20.8284C20.088 21.5786 19.0706 22 18.0098 22H6.00977C4.9489 22 3.93148 21.5786 3.18134 20.8284C2.43119 20.0783 2.00977 19.0609 2.00977 18V6C2.00977 4.93913 2.43119 3.92172 3.18134 3.17157C3.93148 2.42143 4.9489 2 6.00977 2V2ZM6.00977 4C5.47933 4 4.97062 4.21071 4.59555 4.58579C4.22048 4.96086 4.00977 5.46957 4.00977 6V18C4.00977 18.5304 4.22048 19.0391 4.59555 19.4142C4.97062 19.7893 5.47933 20 6.00977 20H18.0098C18.5402 20 19.0489 19.7893 19.424 19.4142C19.7991 19.0391 20.0098 18.5304 20.0098 18V6C20.0098 5.46957 19.7991 4.96086 19.424 4.58579C19.0489 4.21071 18.5402 4 18.0098 4H6.00977ZM8.08977 13.6V16C8.08977 16.2652 7.98441 16.5196 7.79687 16.7071C7.60934 16.8946 7.35498 17 7.08977 17C6.82455 17 6.5702 16.8946 6.38266 16.7071C6.19512 16.5196 6.08977 16.2652 6.08977 16V8C6.08977 7.73478 6.19512 7.48043 6.38266 7.29289C6.5702 7.10536 6.82455 7 7.08977 7C7.35498 7 7.60934 7.10536 7.79687 7.29289C7.98441 7.48043 8.08977 7.73478 8.08977 8V10.509L10.6058 7.667C10.9828 7.241 11.5058 7 12.0528 7C12.9188 7 13.6568 7.594 13.9348 8.425L14.6058 7.667C14.9828 7.241 15.5058 7 16.0528 7C17.1568 7 18.0528 7.965 18.0528 9.156V14.844C18.0528 15.419 17.8398 15.969 17.4618 16.374C17.2828 16.572 17.0641 16.7301 16.82 16.8379C16.5758 16.9458 16.3117 17.001 16.0448 17C15.7779 16.9989 15.5142 16.9417 15.2709 16.8319C15.0276 16.7222 14.8102 16.5624 14.6328 16.363L13.9268 15.596C13.8268 15.886 13.6688 16.152 13.4618 16.374C13.2828 16.572 13.0641 16.7301 12.82 16.8379C12.5758 16.9458 12.3117 17.001 12.0448 17C11.7779 16.9989 11.5142 16.9417 11.2709 16.8319C11.0276 16.7222 10.8102 16.5624 10.6328 16.363L8.08977 13.6ZM16.0528 14.844V9.156L13.9158 11.57L13.9118 12.518L16.0518 14.844H16.0528ZM12.0528 14.844V9.156L9.48577 12.056L12.0528 14.844Z" fill="#21272A"/>
</svg>
