<svg width="24" height="24" viewBox="0 0 24 24" fill="none" xmlns="http://www.w3.org/2000/svg">
<path d="M12.0098 22C6.48677 22 2.00977 17.523 2.00977 12C2.00977 6.477 6.48677 2 12.0098 2C17.5328 2 22.0098 6.477 22.0098 12C22.0098 17.523 17.5328 22 12.0098 22ZM12.0098 20C14.1315 20 16.1663 19.1571 17.6666 17.6569C19.1669 16.1566 20.0098 14.1217 20.0098 12C20.0098 9.87827 19.1669 7.84344 17.6666 6.34315C16.1663 4.84285 14.1315 4 12.0098 4C9.88803 4 7.8532 4.84285 6.35291 6.34315C4.85262 7.84344 4.00977 9.87827 4.00977 12C4.00977 14.1217 4.85262 16.1566 6.35291 17.6569C7.8532 19.1571 9.88803 20 12.0098 20ZM8.08977 13.6V16C8.08977 16.2652 7.98441 16.5196 7.79687 16.7071C7.60934 16.8946 7.35498 17 7.08977 17C6.82455 17 6.5702 16.8946 6.38266 16.7071C6.19512 16.5196 6.08977 16.2652 6.08977 16V8C6.08977 7.73478 6.19512 7.48043 6.38266 7.29289C6.5702 7.10536 6.82455 7 7.08977 7C7.35498 7 7.60934 7.10536 7.79687 7.29289C7.98441 7.48043 8.08977 7.73478 8.08977 8V10.509L10.6058 7.667C10.9828 7.241 11.5058 7 12.0528 7C12.9188 7 13.6568 7.594 13.9348 8.425L14.6058 7.667C14.9828 7.241 15.5058 7 16.0528 7C17.1568 7 18.0528 7.965 18.0528 9.156V14.844C18.0528 15.419 17.8398 15.969 17.4618 16.374C17.2828 16.572 17.0641 16.7301 16.82 16.8379C16.5758 16.9458 16.3117 17.001 16.0448 17C15.7779 16.9989 15.5142 16.9417 15.2709 16.8319C15.0276 16.7222 14.8102 16.5624 14.6328 16.363L13.9268 15.596C13.8268 15.886 13.6688 16.152 13.4618 16.374C13.2828 16.572 13.0641 16.7301 12.82 16.8379C12.5758 16.9458 12.3117 17.001 12.0448 17C11.7779 16.9989 11.5142 16.9417 11.2709 16.8319C11.0276 16.7222 10.8102 16.5624 10.6328 16.363L8.08977 13.6ZM16.0528 14.844V9.156L13.9158 11.57L13.9118 12.518L16.0518 14.844H16.0528ZM12.0528 14.844V9.156L9.48577 12.056L12.0528 14.844Z" fill="#21272A"/>
</svg>
