<svg width="24" height="24" viewBox="0 0 24 24" fill="none" xmlns="http://www.w3.org/2000/svg">
<path d="M12.0098 22C6.48677 22 2.00977 17.523 2.00977 12C2.00977 6.477 6.48677 2 12.0098 2C17.5328 2 22.0098 6.477 22.0098 12C22.0098 17.523 17.5328 22 12.0098 22ZM12.0098 20C14.1315 20 16.1663 19.1571 17.6666 17.6569C19.1669 16.1566 20.0098 14.1217 20.0098 12C20.0098 9.87827 19.1669 7.84344 17.6666 6.34315C16.1663 4.84285 14.1315 4 12.0098 4C9.88803 4 7.8532 4.84285 6.35291 6.34315C4.85262 7.84344 4.00977 9.87827 4.00977 12C4.00977 14.1217 4.85262 16.1566 6.35291 17.6569C7.8532 19.1571 9.88803 20 12.0098 20ZM16.0528 13.6L13.5098 16.364C13.3323 16.5634 13.1149 16.7232 12.8716 16.8329C12.6283 16.9427 12.3646 16.9999 12.0977 17.001C11.8308 17.002 11.5667 16.9468 11.3226 16.8389C11.0784 16.7311 10.8597 16.573 10.6808 16.375C10.473 16.1511 10.3146 15.886 10.2158 15.597L9.50977 16.364C9.33234 16.5634 9.1149 16.7232 8.87161 16.8329C8.62831 16.9427 8.36462 16.9999 8.09772 17.001C7.83082 17.002 7.56669 16.9468 7.32255 16.8389C7.07841 16.7311 6.85973 16.573 6.68077 16.375C6.29813 15.9577 6.08737 15.4112 6.09077 14.845V9.156C6.09077 7.966 6.98577 7 8.09077 7C8.63677 7 9.15877 7.241 9.53677 7.667L10.2068 8.425C10.4868 7.595 11.2238 7 12.0898 7C12.6368 7 13.1598 7.241 13.5368 7.667L16.0528 10.509V8C16.0528 7.73478 16.1581 7.48043 16.3457 7.29289C16.5332 7.10536 16.7875 7 17.0528 7C17.318 7 17.5723 7.10536 17.7599 7.29289C17.9474 7.48043 18.0528 7.73478 18.0528 8V16C18.0528 16.2652 17.9474 16.5196 17.7599 16.7071C17.5723 16.8946 17.318 17 17.0528 17C16.7875 17 16.5332 16.8946 16.3457 16.7071C16.1581 16.5196 16.0528 16.2652 16.0528 16V13.6ZM8.08977 14.845L10.2308 12.519L10.2268 11.571L8.08977 9.156V14.844V14.845ZM12.0898 14.845L14.6568 12.057L12.0898 9.157V14.845Z" fill="#21272A"/>
</svg>
