<svg width="24" height="24" viewBox="0 0 24 24" fill="none" xmlns="http://www.w3.org/2000/svg">
<path d="M15.3998 12.308L19.0158 8.69202C19.5707 8.1278 19.8803 7.36713 19.877 6.57572C19.8737 5.78431 19.5577 5.02627 18.9981 4.46672C18.4384 3.90717 17.6803 3.59144 16.8889 3.58831C16.0974 3.58519 15.3369 3.89491 14.7728 4.45002L13.2798 5.94402L13.8778 8.17402L14.7738 7.27802C14.9613 7.09037 15.2156 6.98491 15.4809 6.98481C15.7462 6.98472 16.0006 7.09001 16.1883 7.27752C16.3759 7.46502 16.4814 7.71939 16.4815 7.98466C16.4816 8.24993 16.3763 8.50437 16.1888 8.69202L13.1698 11.71L15.3998 12.308ZM13.7668 13.941L11.5368 13.343L8.79676 16.083L11.4568 16.252L13.7668 13.941ZM11.6468 7.57702L7.21976 12.002L7.38276 14.667L12.2428 9.80702L11.6448 7.57702H11.6468ZM6.91276 17.966L3.45976 21.42C3.27116 21.6022 3.01856 21.703 2.75636 21.7007C2.49417 21.6984 2.24335 21.5932 2.05795 21.4078C1.87254 21.2224 1.76737 20.9716 1.76509 20.7094C1.76281 20.4472 1.86361 20.1946 2.04576 20.006L5.49576 16.556L5.16976 11.225L13.3598 3.03502C13.8234 2.56745 14.3748 2.19607 14.9823 1.94218C15.5899 1.68829 16.2416 1.5569 16.9 1.55555C17.5585 1.5542 18.2107 1.68292 18.8193 1.93432C19.4278 2.18572 19.9807 2.55485 20.4463 3.02051C20.9118 3.48617 21.2808 4.03919 21.532 4.64783C21.7832 5.25647 21.9118 5.90874 21.9102 6.56719C21.9087 7.22564 21.7771 7.8773 21.5231 8.48477C21.269 9.09223 20.8975 9.64353 20.4298 10.107L12.2318 18.305L6.91376 17.965L6.91276 17.966Z" fill="#21272A"/>
</svg>
