<svg width="24" height="24" viewBox="0 0 24 24" fill="none" xmlns="http://www.w3.org/2000/svg">
<path d="M12.0098 14C13.3358 14 14.6076 13.4732 15.5453 12.5355C16.483 11.5979 17.0098 10.3261 17.0098 9.00001C17.0098 7.67393 16.483 6.40216 15.5453 5.46447C14.6076 4.52679 13.3358 4.00001 12.0098 4.00001C10.6837 4.00001 9.41191 4.52679 8.47423 5.46447C7.53655 6.40216 7.00977 7.67393 7.00977 9.00001C7.00977 10.3261 7.53655 11.5979 8.47423 12.5355C9.41191 13.4732 10.6837 14 12.0098 14ZM13.0098 18H14.0098C14.275 18 14.5293 18.1054 14.7169 18.2929C14.9044 18.4804 15.0098 18.7348 15.0098 19C15.0098 19.2652 14.9044 19.5196 14.7169 19.7071C14.5293 19.8947 14.275 20 14.0098 20H13.0098V21C13.0098 21.2652 12.9044 21.5196 12.7169 21.7071C12.5293 21.8947 12.275 22 12.0098 22C11.7445 22 11.4902 21.8947 11.3027 21.7071C11.1151 21.5196 11.0098 21.2652 11.0098 21V20H10.0098C9.74455 20 9.4902 19.8947 9.30266 19.7071C9.11512 19.5196 9.00977 19.2652 9.00977 19C9.00977 18.7348 9.11512 18.4804 9.30266 18.2929C9.4902 18.1054 9.74455 18 10.0098 18H11.0098V16C11.0098 15.976 11.0098 15.953 11.0118 15.93C9.26297 15.6738 7.67578 14.7656 6.56869 13.3878C5.4616 12.0101 4.91651 10.2646 5.04282 8.50162C5.16912 6.73867 5.95747 5.08871 7.24967 3.88282C8.54186 2.67693 10.2423 2.00434 12.0098 2.00001C13.7815 1.99733 15.4884 2.6666 16.7861 3.87284C18.0838 5.07909 18.8758 6.73255 19.0025 8.49977C19.1291 10.267 18.5808 12.0165 17.4683 13.3954C16.3558 14.7743 14.7618 15.6801 13.0078 15.93L13.0098 16V18Z" fill="#21272A"/>
</svg>
