<svg width="24" height="24" viewBox="0 0 24 24" fill="none" xmlns="http://www.w3.org/2000/svg">
<path d="M9.00977 17H5.00977C4.47933 17 3.97062 16.7893 3.59555 16.4142C3.22048 16.0391 3.00977 15.5304 3.00977 15V4C3.00977 3.46957 3.22048 2.96086 3.59555 2.58579C3.97062 2.21071 4.47933 2 5.00977 2H13.0098C13.5402 2 14.0489 2.21071 14.424 2.58579C14.7991 2.96086 15.0098 3.46957 15.0098 4V7H18.0098L21.0098 10V20C21.0098 20.5304 20.7991 21.0391 20.424 21.4142C20.0489 21.7893 19.5402 22 19.0098 22H11.0098C10.4793 22 9.97062 21.7893 9.59555 21.4142C9.22048 21.0391 9.00977 20.5304 9.00977 20V17ZM9.00977 15V9C9.00977 8.46957 9.22048 7.96086 9.59555 7.58579C9.97062 7.21071 10.4793 7 11.0098 7H13.0098V4H5.00977V15H9.00977ZM17.1818 9H11.0098V20H19.0098V10.828L17.1818 9Z" fill="#21272A"/>
</svg>
