<svg width="24" height="24" viewBox="0 0 24 24" fill="none" xmlns="http://www.w3.org/2000/svg">
<path d="M14.3078 4H7.00977C6.74455 4 6.4902 4.10536 6.30266 4.29289C6.11512 4.48043 6.00977 4.73478 6.00977 5V19C6.00977 19.2652 6.11512 19.5196 6.30266 19.7071C6.4902 19.8946 6.74455 20 7.00977 20H17.0098C17.275 20 17.5293 19.8946 17.7169 19.7071C17.9044 19.5196 18.0098 19.2652 18.0098 19V6.961L14.3078 4ZM7.00977 2H15.0098L20.0098 6V19C20.0098 19.7956 19.6937 20.5587 19.1311 21.1213C18.5685 21.6839 17.8054 22 17.0098 22H7.00977C6.21412 22 5.45105 21.6839 4.88845 21.1213C4.32584 20.5587 4.00977 19.7956 4.00977 19V5C4.00977 4.20435 4.32584 3.44129 4.88845 2.87868C5.45105 2.31607 6.21412 2 7.00977 2V2Z" fill="#21272A"/>
</svg>
