<svg width="24" height="24" viewBox="0 0 24 24" fill="none" xmlns="http://www.w3.org/2000/svg">
<path d="M4.08976 4L10.5718 12.101C10.8555 12.4558 11.01 12.8967 11.0098 13.351V20L13.0098 18.5V13.35C13.0098 12.896 13.1642 12.4556 13.4478 12.101L19.9298 4H4.09076H4.08976ZM4.08976 2H19.9298C20.3065 2.00005 20.6756 2.10652 20.9946 2.30717C21.3135 2.50781 21.5692 2.79445 21.7323 3.13409C21.8955 3.47372 21.9593 3.85253 21.9166 4.22687C21.8739 4.60122 21.7263 4.95588 21.4908 5.25L15.0098 13.35V18.5C15.0098 18.8105 14.9375 19.1167 14.7986 19.3944C14.6598 19.6721 14.4582 19.9137 14.2098 20.1L12.2098 21.6C11.9126 21.8229 11.5593 21.9586 11.1894 21.9919C10.8195 22.0253 10.4475 21.955 10.1153 21.7889C9.78312 21.6227 9.50373 21.3674 9.30846 21.0515C9.11319 20.7355 9.00976 20.3714 9.00976 20V13.35L2.52876 5.25C2.29328 4.95588 2.14566 4.60122 2.10292 4.22687C2.06018 3.85253 2.12405 3.47372 2.28718 3.13409C2.45031 2.79445 2.70606 2.50781 3.02497 2.30717C3.34388 2.10652 3.71299 2.00005 4.08976 2V2Z" fill="#21272A"/>
</svg>
