<svg width="24" height="24" viewBox="0 0 24 24" fill="none" xmlns="http://www.w3.org/2000/svg">
<path d="M7.00977 9C7.00977 9.26522 6.90441 9.51957 6.71687 9.70711C6.52934 9.89464 6.27498 10 6.00977 10C5.74455 10 5.4902 9.89464 5.30266 9.70711C5.11512 9.51957 5.00977 9.26522 5.00977 9C5.00977 7.14348 5.74726 5.36301 7.06002 4.05025C8.37277 2.7375 10.1533 2 12.0098 2C13.8663 2 15.6468 2.7375 16.9595 4.05025C18.2723 5.36301 19.0098 7.14348 19.0098 9V11C19.0098 11.2652 18.9044 11.5196 18.7169 11.7071C18.5293 11.8946 18.275 12 18.0098 12C17.7445 12 17.4902 11.8946 17.3027 11.7071C17.1151 11.5196 17.0098 11.2652 17.0098 11V9C17.0098 7.67392 16.483 6.40215 15.5453 5.46447C14.6076 4.52678 13.3358 4 12.0098 4C10.6837 4 9.41191 4.52678 8.47423 5.46447C7.53655 6.40215 7.00977 7.67392 7.00977 9ZM10.0098 12C10.0098 12.2652 9.90441 12.5196 9.71687 12.7071C9.52934 12.8946 9.27498 13 9.00977 13C8.74455 13 8.4902 12.8946 8.30266 12.7071C8.11512 12.5196 8.00977 12.2652 8.00977 12V9C8.00977 7.93913 8.43119 6.92172 9.18134 6.17157C9.93148 5.42143 10.9489 5 12.0098 5C13.0706 5 14.088 5.42143 14.8382 6.17157C15.5883 6.92172 16.0098 7.93913 16.0098 9C16.0098 9.26522 15.9044 9.51957 15.7169 9.70711C15.5293 9.89464 15.275 10 15.0098 10C14.7445 10 14.4902 9.89464 14.3027 9.70711C14.1151 9.51957 14.0098 9.26522 14.0098 9C14.0098 8.46957 13.7991 7.96086 13.424 7.58579C13.0489 7.21071 12.5402 7 12.0098 7C11.4793 7 10.9706 7.21071 10.5956 7.58579C10.2205 7.96086 10.0098 8.46957 10.0098 9V12ZM8.00977 15C8.00977 14.7348 8.11512 14.4804 8.30266 14.2929C8.4902 14.1054 8.74455 14 9.00977 14C9.27498 14 9.52934 14.1054 9.71687 14.2929C9.90441 14.4804 10.0098 14.7348 10.0098 15C10.0098 15.5304 10.2205 16.0391 10.5956 16.4142C10.9706 16.7893 11.4793 17 12.0098 17C12.5402 17 13.0489 16.7893 13.424 16.4142C13.7991 16.0391 14.0098 15.5304 14.0098 15V12C14.0098 11.7348 14.1151 11.4804 14.3027 11.2929C14.4902 11.1054 14.7445 11 15.0098 11C15.275 11 15.5293 11.1054 15.7169 11.2929C15.9044 11.4804 16.0098 11.7348 16.0098 12V15C16.0098 16.0609 15.5883 17.0783 14.8382 17.8284C14.088 18.5786 13.0706 19 12.0098 19C10.9489 19 9.93148 18.5786 9.18134 17.8284C8.43119 17.0783 8.00977 16.0609 8.00977 15ZM11.0098 10C11.0098 9.73478 11.1151 9.48043 11.3027 9.29289C11.4902 9.10536 11.7445 9 12.0098 9C12.275 9 12.5293 9.10536 12.7169 9.29289C12.9044 9.48043 13.0098 9.73478 13.0098 10V14C13.0098 14.2652 12.9044 14.5196 12.7169 14.7071C12.5293 14.8946 12.275 15 12.0098 15C11.7445 15 11.4902 14.8946 11.3027 14.7071C11.1151 14.5196 11.0098 14.2652 11.0098 14V10ZM5.00977 13C5.00977 12.7348 5.11512 12.4804 5.30266 12.2929C5.4902 12.1054 5.74455 12 6.00977 12C6.27498 12 6.52934 12.1054 6.71687 12.2929C6.90441 12.4804 7.00977 12.7348 7.00977 13V15C7.00977 16.3261 7.53655 17.5979 8.47423 18.5355C9.41191 19.4732 10.6837 20 12.0098 20C13.3358 20 14.6076 19.4732 15.5453 18.5355C16.483 17.5979 17.0098 16.3261 17.0098 15C17.0098 14.7348 17.1151 14.4804 17.3027 14.2929C17.4902 14.1054 17.7445 14 18.0098 14C18.275 14 18.5293 14.1054 18.7169 14.2929C18.9044 14.4804 19.0098 14.7348 19.0098 15C19.0098 16.8565 18.2723 18.637 16.9595 19.9497C15.6468 21.2625 13.8663 22 12.0098 22C10.1533 22 8.37277 21.2625 7.06002 19.9497C5.74726 18.637 5.00977 16.8565 5.00977 15V13Z" fill="#21272A"/>
</svg>
