<svg width="24" height="24" viewBox="0 0 24 24" fill="none" xmlns="http://www.w3.org/2000/svg">
<path d="M5.00977 9C4.74455 9 4.4902 9.10536 4.30266 9.29289C4.11512 9.48043 4.00977 9.73478 4.00977 10V18C4.00977 18.2652 4.11512 18.5196 4.30266 18.7071C4.4902 18.8946 4.74455 19 5.00977 19H19.0098C19.275 19 19.5293 18.8946 19.7169 18.7071C19.9044 18.5196 20.0098 18.2652 20.0098 18V10C20.0098 9.73478 19.9044 9.48043 19.7169 9.29289C19.5293 9.10536 19.275 9 19.0098 9H5.00977ZM7.00977 7V6C7.00977 5.20435 7.32584 4.44129 7.88845 3.87868C8.45105 3.31607 9.21412 3 10.0098 3H14.0098C14.8054 3 15.5685 3.31607 16.1311 3.87868C16.6937 4.44129 17.0098 5.20435 17.0098 6V7H19.0098C19.8054 7 20.5685 7.31607 21.1311 7.87868C21.6937 8.44129 22.0098 9.20435 22.0098 10V18C22.0098 18.7956 21.6937 19.5587 21.1311 20.1213C20.5685 20.6839 19.8054 21 19.0098 21H5.00977C4.21412 21 3.45105 20.6839 2.88845 20.1213C2.32584 19.5587 2.00977 18.7956 2.00977 18V10C2.00977 9.20435 2.32584 8.44129 2.88845 7.87868C3.45105 7.31607 4.21412 7 5.00977 7H7.00977ZM9.00977 7H15.0098V6C15.0098 5.73478 14.9044 5.48043 14.7169 5.29289C14.5293 5.10536 14.275 5 14.0098 5H10.0098C9.74455 5 9.4902 5.10536 9.30266 5.29289C9.11512 5.48043 9.00977 5.73478 9.00977 6V7ZM11.0098 11H13.0098V17H11.0098V11ZM9.00977 13H15.0098V15H9.00977V13Z" fill="#21272A"/>
</svg>
