<svg width="24" height="24" viewBox="0 0 24 24" fill="none" xmlns="http://www.w3.org/2000/svg">
<path d="M11.3758 9.085C11.7828 9.973 12.0098 10.96 12.0098 12C12.0098 13.04 11.7828 14.027 11.3758 14.915C14.1138 14.567 16.0098 13.215 16.0098 12C16.0098 10.785 14.1138 9.433 11.3758 9.085ZM17.0098 9.577C18.0618 8.393 19.8608 7.503 22.0098 7.157V16.842C19.8608 16.497 18.0618 15.607 17.0098 14.422C15.6448 15.96 13.0218 17 10.0098 17C5.59177 17 2.00977 14.761 2.00977 12C2.00977 9.239 5.59177 7 10.0098 7C13.0218 7 15.6448 8.04 17.0098 9.577ZM20.0098 14V10C18.8598 10.23 18.0098 11.038 18.0098 12C18.0098 12.962 18.8598 13.77 20.0098 14ZM4.00977 12C4.00977 13.27 6.08677 14.696 9.04177 14.958C9.67261 14.101 10.0119 13.0642 10.0098 12C10.0119 10.9358 9.67261 9.89903 9.04177 9.042C6.08677 9.304 4.00977 10.73 4.00977 12ZM7.00977 13C6.74455 13 6.4902 12.8946 6.30266 12.7071C6.11512 12.5196 6.00977 12.2652 6.00977 12C6.00977 11.7348 6.11512 11.4804 6.30266 11.2929C6.4902 11.1054 6.74455 11 7.00977 11C7.27498 11 7.52934 11.1054 7.71687 11.2929C7.90441 11.4804 8.00977 11.7348 8.00977 12C8.00977 12.2652 7.90441 12.5196 7.71687 12.7071C7.52934 12.8946 7.27498 13 7.00977 13Z" fill="#21272A"/>
</svg>
