<svg width="24" height="24" viewBox="0 0 24 24" fill="none" xmlns="http://www.w3.org/2000/svg">
<path d="M18.7598 18.25V8.25H8.75977V7.625C8.75977 6.591 9.60077 5.75 10.6348 5.75H12.5098V2H10.6348C9.14349 2.00185 7.71383 2.59508 6.65934 3.64957C5.60485 4.70406 5.01162 6.13373 5.00977 7.625V8.25H2.50977V12H5.00977V18.25H2.50977V22H11.2598V18.25H8.75977V12H15.0448V18.25H12.5098V22H21.2598V18.25H18.7598Z" fill="#21272A"/>
<path d="M16.8848 5.75C17.9203 5.75 18.7598 4.91053 18.7598 3.875C18.7598 2.83947 17.9203 2 16.8848 2C15.8492 2 15.0098 2.83947 15.0098 3.875C15.0098 4.91053 15.8492 5.75 16.8848 5.75Z" fill="#21272A"/>
</svg>
