<svg width="24" height="24" viewBox="0 0 24 24" fill="none" xmlns="http://www.w3.org/2000/svg">
<path d="M6.00977 3H18.0098C18.5402 3 19.0489 3.21071 19.424 3.58579C19.7991 3.96086 20.0098 4.46957 20.0098 5V12C20.0098 12.5304 19.7991 13.0391 19.424 13.4142C19.0489 13.7893 18.5402 14 18.0098 14H6.00977V21C6.00977 21.2652 5.90441 21.5196 5.71687 21.7071C5.52934 21.8946 5.27498 22 5.00977 22C4.74455 22 4.4902 21.8946 4.30266 21.7071C4.11512 21.5196 4.00977 21.2652 4.00977 21V3C4.00977 2.73478 4.11512 2.48043 4.30266 2.29289C4.4902 2.10536 4.74455 2 5.00977 2C5.27498 2 5.52934 2.10536 5.71687 2.29289C5.90441 2.48043 6.00977 2.73478 6.00977 3ZM6.00977 12H18.0098V5H6.00977V12Z" fill="#21272A"/>
</svg>
