<svg width="24" height="24" viewBox="0 0 24 24" fill="none" xmlns="http://www.w3.org/2000/svg">
<path d="M9.66177 7.594C9.50077 7.788 9.35877 7.962 9.23777 8.116C8.99077 8.431 8.75777 8.739 8.53777 9.038C6.82277 11.383 6.00977 13.204 6.00977 14.381C6.00977 17.461 8.67477 20 12.0098 20C15.3448 20 18.0098 17.462 18.0098 14.381C18.0098 12.493 16.0398 9.251 12.0378 4.928C10.8458 6.235 10.0498 7.128 9.66177 7.594ZM12.0098 22C7.59177 22 4.00977 18.589 4.00977 14.381C4.00977 12.688 4.98077 10.514 6.92377 7.858C7.30655 7.32933 7.70745 6.81402 8.12577 6.313C8.68277 5.645 9.97777 4.207 12.0098 2C17.3428 7.449 20.0098 11.576 20.0098 14.381C20.0098 18.589 16.4278 22 12.0098 22ZM12.0098 19C9.79977 19 8.00977 17.294 8.00977 15.19C8.00977 13.788 9.34277 11.724 12.0098 9C14.6768 11.724 16.0098 13.788 16.0098 15.19C16.0098 17.294 14.2198 19 12.0098 19ZM10.0098 15.19C10.0098 16.167 10.8838 17 12.0098 17C13.1358 17 14.0098 16.167 14.0098 15.19C14.0098 14.653 13.3558 13.515 12.0098 11.95C10.6638 13.515 10.0098 14.653 10.0098 15.19Z" fill="#21272A"/>
</svg>
