<svg width="24" height="24" viewBox="0 0 24 24" fill="none" xmlns="http://www.w3.org/2000/svg">
<path d="M11.0098 4V9.938L9.86777 10.48C8.84191 10.9664 8.01212 11.7874 7.51486 12.808C7.01761 13.8286 6.88251 14.9881 7.13177 16.0957C7.38104 17.2033 7.99984 18.1932 8.88639 18.9024C9.77294 19.6116 10.8745 19.9979 12.0098 19.9979C13.1451 19.9979 14.2466 19.6116 15.1332 18.9024C16.0197 18.1932 16.6385 17.2033 16.8878 16.0957C17.137 14.9881 17.0019 13.8286 16.5047 12.808C16.0074 11.7874 15.1776 10.9664 14.1518 10.48L13.0098 9.938V4H11.0098ZM9.00977 8.674V2H15.0098V8.674C16.4457 9.35514 17.6072 10.5047 18.3031 11.9335C18.999 13.3624 19.1879 14.9856 18.8388 16.5361C18.4897 18.0866 17.6234 19.4722 16.3823 20.4649C15.1411 21.4577 13.5991 21.9986 12.0098 21.9986C10.4204 21.9986 8.87842 21.4577 7.63729 20.4649C6.39616 19.4722 5.52982 18.0866 5.18072 16.5361C4.83163 14.9856 5.02056 13.3624 5.71646 11.9335C6.41237 10.5047 7.5738 9.35514 9.00977 8.674ZM8.54477 13H15.4748C15.8255 13.6081 16.01 14.2978 16.0098 14.9998C16.0095 15.7018 15.8246 16.3914 15.4734 16.9992C15.1223 17.6071 14.6174 18.1118 14.0094 18.4628C13.4014 18.8137 12.7118 18.9984 12.0098 18.9984C11.3078 18.9984 10.6181 18.8137 10.0102 18.4628C9.40218 18.1118 8.89725 17.6071 8.54612 16.9992C8.19499 16.3914 8.01001 15.7018 8.00977 14.9998C8.00954 14.2978 8.19405 13.6081 8.54477 13ZM9.00977 2H15.0098C15.275 2 15.5293 2.10536 15.7169 2.29289C15.9044 2.48043 16.0098 2.73478 16.0098 3C16.0098 3.26522 15.9044 3.51957 15.7169 3.70711C15.5293 3.89464 15.275 4 15.0098 4H9.00977C8.74456 4 8.4902 3.89464 8.30267 3.70711C8.11513 3.51957 8.00977 3.26522 8.00977 3C8.00977 2.73478 8.11513 2.48043 8.30267 2.29289C8.4902 2.10536 8.74456 2 9.00977 2V2Z" fill="#21272A"/>
</svg>
