<svg width="24" height="24" viewBox="0 0 24 24" fill="none" xmlns="http://www.w3.org/2000/svg">
<path d="M13.8198 6.32495L17.6848 10.1899C18.0188 10.0999 18.3268 9.92495 18.5808 9.67195L20.7018 7.54995L16.4598 3.30795L14.3378 5.42795C14.0895 5.67638 13.9108 5.98572 13.8198 6.32495ZM15.7528 11.0849L12.9238 8.25695L3.73177 17.4499C3.5443 17.6375 3.43898 17.8918 3.43898 18.1569C3.43898 18.4221 3.5443 18.6764 3.73177 18.8639L5.14577 20.2779C5.33329 20.4654 5.5876 20.5707 5.85277 20.5707C6.11793 20.5707 6.37224 20.4654 6.55977 20.2779L15.7528 11.0859V11.0849ZM12.9238 4.01495L15.0458 1.89295C15.4208 1.518 15.9294 1.30737 16.4598 1.30737C16.9901 1.30737 17.4987 1.518 17.8738 1.89295L22.1168 6.13595C22.4917 6.511 22.7023 7.01962 22.7023 7.54995C22.7023 8.08027 22.4917 8.58889 22.1168 8.96395L19.9948 11.0859C19.3067 11.7761 18.3895 12.1902 17.4168 12.2499L7.97377 21.6919C7.41118 22.2544 6.64826 22.5703 5.85277 22.5703C5.05727 22.5703 4.29435 22.2544 3.73177 21.6919L2.31777 20.2779C1.75535 19.7154 1.43941 18.9524 1.43941 18.1569C1.43941 17.3615 1.75535 16.5985 2.31777 16.0359L11.7598 6.59295C11.8195 5.62019 12.2336 4.70303 12.9238 4.01495ZM10.8028 13.2069C10.6153 13.0194 10.51 12.7651 10.51 12.4999C10.51 12.2348 10.6153 11.9805 10.8028 11.7929L12.2168 10.3789C12.309 10.2834 12.4194 10.2073 12.5414 10.1548C12.6634 10.1024 12.7946 10.0748 12.9274 10.0737C13.0601 10.0725 13.1918 10.0978 13.3147 10.1481C13.4376 10.1984 13.5493 10.2727 13.6432 10.3666C13.7371 10.4604 13.8113 10.5721 13.8616 10.695C13.9119 10.8179 13.9372 10.9496 13.936 11.0823C13.9349 11.2151 13.9073 11.3463 13.8549 11.4684C13.8025 11.5904 13.7263 11.7007 13.6308 11.7929L12.2168 13.2069C12.0292 13.3944 11.7749 13.4997 11.5098 13.4997C11.2446 13.4997 10.9903 13.3944 10.8028 13.2069Z" fill="#21272A"/>
</svg>
