<svg width="24" height="24" viewBox="0 0 24 24" fill="none" xmlns="http://www.w3.org/2000/svg">
<g clip-path="url(#clip0_105_32660)">
<path d="M13.2498 13.12L13.6308 13.14C13.7714 13.1487 13.9123 13.1274 14.044 13.0774C14.1758 13.0274 14.2953 12.9499 14.3948 12.85L16.5158 10.728L12.9808 7.19204L10.8588 9.31404C10.7589 9.41328 10.6813 9.53265 10.6311 9.66421C10.5809 9.79576 10.5593 9.93649 10.5678 10.077L10.5888 10.457L13.2508 13.119L13.2498 13.12ZM11.5658 14.263L9.44477 12.143L2.37377 19.213C2.1863 19.4006 2.08098 19.6549 2.08098 19.92C2.08098 20.1852 2.1863 20.4395 2.37377 20.627L3.08077 21.335C3.2683 21.5225 3.5226 21.6278 3.78777 21.6278C4.05293 21.6278 4.30724 21.5225 4.49477 21.335L11.5658 14.263ZM9.44477 7.90004L11.5658 5.78004C11.7515 5.59424 11.972 5.44685 12.2147 5.34629C12.4574 5.24573 12.7176 5.19397 12.9803 5.19397C13.243 5.19397 13.5031 5.24573 13.7458 5.34629C13.9885 5.44685 14.209 5.59424 14.3948 5.78004L17.9298 9.31504C18.3047 9.69009 18.5153 10.1987 18.5153 10.729C18.5153 11.2594 18.3047 11.768 17.9298 12.143L15.8098 14.263C15.5117 14.562 15.1537 14.7945 14.7594 14.9453C14.3651 15.0961 13.9433 15.1618 13.5218 15.138L5.90977 22.748C5.34719 23.3105 4.58426 23.6264 3.78877 23.6264C2.99328 23.6264 2.23035 23.3105 1.66777 22.748L0.960768 22.042C0.682139 21.7635 0.461115 21.4327 0.310319 21.0687C0.159523 20.7047 0.0819092 20.3145 0.0819092 19.9205C0.0819092 19.5265 0.159523 19.1364 0.310319 18.7724C0.461115 18.4084 0.682139 18.0776 0.960768 17.799L8.57177 10.188C8.54773 9.76643 8.61317 9.34451 8.76381 8.95001C8.91444 8.5555 9.14685 8.19733 9.44577 7.89904L9.44477 7.90004ZM17.9298 7.90004C17.7423 7.71251 17.637 7.4582 17.637 7.19304C17.637 6.92788 17.7423 6.67357 17.9298 6.48604L20.0518 4.36504C20.144 4.26953 20.2544 4.19335 20.3764 4.14094C20.4984 4.08853 20.6296 4.06094 20.7624 4.05979C20.8951 4.05864 21.0268 4.08394 21.1497 4.13422C21.2726 4.1845 21.3843 4.25875 21.4782 4.35264C21.5721 4.44654 21.6463 4.55819 21.6966 4.68109C21.7469 4.80398 21.7722 4.93566 21.771 5.06844C21.7699 5.20122 21.7423 5.33244 21.6899 5.45444C21.6375 5.57645 21.5613 5.68679 21.4658 5.77904L19.3448 7.90004C19.2519 7.99302 19.1416 8.06677 19.0202 8.1171C18.8988 8.16742 18.7687 8.19333 18.6373 8.19333C18.5059 8.19333 18.3757 8.16742 18.2543 8.1171C18.1329 8.06677 18.0226 7.99302 17.9298 7.90004ZM19.7928 9.57404C19.7587 9.44718 19.75 9.31486 19.7672 9.18464C19.7843 9.05442 19.8269 8.92885 19.8925 8.81509C19.9582 8.70133 20.0456 8.60163 20.1498 8.52166C20.254 8.4417 20.3729 8.38304 20.4998 8.34904L22.4318 7.83104C22.5588 7.7964 22.6915 7.7872 22.8222 7.80398C22.9528 7.82076 23.0788 7.86318 23.193 7.92881C23.3072 7.99444 23.4073 8.08198 23.4876 8.18641C23.5679 8.29084 23.6267 8.41009 23.6608 8.53733C23.6948 8.66457 23.7034 8.79728 23.686 8.92784C23.6686 9.0584 23.6256 9.18424 23.5595 9.29813C23.4933 9.41203 23.4053 9.51173 23.3005 9.59151C23.1957 9.67129 23.0762 9.72958 22.9488 9.76304L21.0178 10.281C20.8909 10.3151 20.7586 10.3238 20.6284 10.3067C20.4981 10.2895 20.3726 10.2469 20.2588 10.1813C20.1451 10.1156 20.0454 10.0282 19.9654 9.92402C19.8854 9.81983 19.8268 9.7009 19.7928 9.57404ZM15.8088 5.77904C15.6213 5.59151 15.516 5.3372 15.516 5.07204C15.516 4.80688 15.6213 4.55257 15.8088 4.36504L17.9298 2.24404C18.1173 2.0564 18.3716 1.95093 18.6369 1.95084C18.9022 1.95074 19.1566 2.05603 19.3443 2.24354C19.5319 2.43105 19.6374 2.68542 19.6375 2.95069C19.6376 3.21596 19.5323 3.4704 19.3448 3.65804L17.2228 5.77904C17.0352 5.96651 16.7809 6.07183 16.5158 6.07183C16.2506 6.07183 15.9963 5.96651 15.8088 5.77904ZM14.1358 3.91704C14.0089 3.88304 13.89 3.82438 13.7858 3.74442C13.6816 3.66445 13.5942 3.56474 13.5285 3.45099C13.4629 3.33723 13.4203 3.21166 13.4032 3.08144C13.386 2.95121 13.3947 2.8189 13.4288 2.69204L13.9458 0.760039C13.9798 0.633183 14.0384 0.514267 14.1184 0.410082C14.1984 0.305898 14.2981 0.218485 14.4118 0.152834C14.5256 0.0871826 14.6512 0.0445795 14.7814 0.0274568C14.9116 0.0103341 15.0439 0.0190271 15.1708 0.0530394C15.2976 0.0870518 15.4165 0.145717 15.5207 0.225687C15.6249 0.305656 15.7123 0.405363 15.778 0.519115C15.8436 0.632867 15.8862 0.758436 15.9034 0.888652C15.9205 1.01887 15.9118 1.15118 15.8778 1.27804L15.3608 3.21004C15.3268 3.3369 15.2681 3.45583 15.1881 3.56002C15.1082 3.66422 15.0085 3.75163 14.8947 3.81729C14.781 3.88294 14.6554 3.92554 14.5252 3.94266C14.3949 3.95977 14.2626 3.95107 14.1358 3.91704Z" fill="#21272A"/>
</g>
<defs>
<clipPath id="clip0_105_32660">
<rect width="24" height="24" fill="white" transform="translate(0.00976562)"/>
</clipPath>
</defs>
</svg>
