<svg width="24" height="24" viewBox="0 0 24 24" fill="none" xmlns="http://www.w3.org/2000/svg">
<path d="M9.37377 14.243C10.6794 14.243 11.7378 13.1846 11.7378 11.879C11.7378 10.5734 10.6794 9.51501 9.37377 9.51501C8.06816 9.51501 7.00977 10.5734 7.00977 11.879C7.00977 13.1846 8.06816 14.243 9.37377 14.243Z" fill="#21272A"/>
<path d="M14.6378 14.243C15.9434 14.243 17.0018 13.1846 17.0018 11.879C17.0018 10.5734 15.9434 9.51501 14.6378 9.51501C13.3322 9.51501 12.2738 10.5734 12.2738 11.879C12.2738 13.1846 13.3322 14.243 14.6378 14.243Z" fill="#21272A"/>
<path d="M12.0098 19.994C14.1315 19.994 16.1663 19.1512 17.6666 17.6509C19.1669 16.1506 20.0098 14.1158 20.0098 11.994C20.0098 9.87229 19.1669 7.83746 17.6666 6.33716C16.1663 4.83687 14.1315 3.99402 12.0098 3.99402C9.88803 3.99402 7.8532 4.83687 6.35291 6.33716C4.85262 7.83746 4.00977 9.87229 4.00977 11.994C4.00977 14.1158 4.85262 16.1506 6.35291 17.6509C7.8532 19.1512 9.88803 19.994 12.0098 19.994ZM12.0098 21.994C6.48677 21.994 2.00977 17.516 2.00977 11.994C2.00977 6.47102 6.48677 1.99402 12.0098 1.99402C17.5328 1.99402 22.0098 6.47102 22.0098 11.994C22.0098 17.516 17.5328 21.994 12.0098 21.994Z" fill="#21272A"/>
</svg>
