<svg width="24" height="24" viewBox="0 0 24 24" fill="none" xmlns="http://www.w3.org/2000/svg">
<path d="M9.10376 13.09C9.21139 12.9291 9.32687 12.7736 9.44976 12.624C9.1824 12.1198 9.04298 11.5577 9.04376 10.987C8.38527 10.3338 8.01291 9.44597 8.00841 8.51847C8.00391 7.59096 8.36764 6.69957 9.01976 6.04C9.02709 5.12126 9.39537 4.24224 10.0451 3.59267C10.6949 2.94309 11.574 2.57506 12.4928 2.568C12.8188 2.22973 13.2098 1.96077 13.6423 1.77725C14.0748 1.59373 14.5399 1.49943 15.0098 1.5C15.9528 1.5 16.8088 1.873 17.4378 2.48C17.899 2.47776 18.3562 2.56661 18.783 2.74145C19.2098 2.91629 19.5979 3.17368 19.925 3.49886C20.2522 3.82403 20.5119 4.2106 20.6893 4.63637C20.8667 5.06215 20.9582 5.51875 20.9588 5.98C21.629 6.64768 22.007 7.55397 22.0098 8.5C22.0098 9.45 21.6308 10.313 21.0158 10.943V11C21.0158 11.4644 20.9235 11.9241 20.7441 12.3525C20.5647 12.7808 20.3019 13.1691 19.9709 13.4949C19.64 13.8206 19.2475 14.0773 18.8164 14.2498C18.3852 14.4224 17.9241 14.5074 17.4598 14.5C16.8288 15.118 15.9638 15.5 15.0098 15.5C14.0498 15.5 13.1798 15.113 12.5468 14.487C11.9597 14.4879 11.3819 14.3407 10.8668 14.059C10.3723 14.7346 10.1165 15.5554 10.1394 16.3922C10.1624 17.2291 10.463 18.0346 10.9938 18.682L12.7838 20.866C12.9519 21.0711 13.0317 21.3347 13.0055 21.5986C12.9794 21.8626 12.8494 22.1054 12.6443 22.2735C12.4391 22.4417 12.1756 22.5214 11.9116 22.4953C11.6477 22.4691 11.4049 22.3391 11.2368 22.134L9.44676 19.95C9.03181 19.4447 8.70583 18.8726 8.48276 18.258C7.95589 18.5508 7.35729 18.6894 6.75536 18.6581C6.15342 18.6268 5.57243 18.4268 5.07876 18.081C4.11076 17.402 3.28376 15.22 2.59876 11.534C5.74076 11.711 7.79576 12.139 8.76476 12.817C8.88476 12.902 8.99876 12.993 9.10476 13.091L9.10376 13.09ZM13.3688 12.486L13.9548 13.066C14.2348 13.343 14.6078 13.5 15.0098 13.5C15.4098 13.5 15.7798 13.346 16.0598 13.071L16.6558 12.487L17.4908 12.5C18.3448 12.5 19.0158 11.829 19.0158 11L19.0028 10.143L19.5838 9.547C19.8568 9.267 20.0098 8.898 20.0098 8.5C20.0098 8.09 19.8468 7.71 19.5598 7.428L18.9538 6.835L18.9588 5.988C18.9588 5.151 18.2878 4.479 17.4588 4.479L16.6358 4.484L16.0508 3.92C15.7719 3.64947 15.3983 3.49873 15.0098 3.5C14.8083 3.49943 14.6088 3.53972 14.4233 3.61844C14.2379 3.69716 14.0703 3.81268 13.9308 3.958L13.3478 4.561L12.5078 4.568C12.1141 4.57114 11.7374 4.72892 11.4591 5.00729C11.1807 5.28567 11.0229 5.66233 11.0198 6.056L11.0138 6.868L10.4428 7.446C10.1658 7.726 10.0098 8.098 10.0098 8.5C10.0098 8.907 10.1698 9.283 10.4528 9.565L11.0448 10.152V10.986C11.0448 11.3838 11.2028 11.7654 11.4841 12.0467C11.7654 12.328 12.1469 12.486 12.5448 12.486H13.3688ZM15.0098 10.5C14.4793 10.5 13.9706 10.2893 13.5955 9.91422C13.2205 9.53914 13.0098 9.03044 13.0098 8.5C13.0098 7.96957 13.2205 7.46086 13.5955 7.08579C13.9706 6.71072 14.4793 6.5 15.0098 6.5C15.5402 6.5 16.0489 6.71072 16.424 7.08579C16.799 7.46086 17.0098 7.96957 17.0098 8.5C17.0098 9.03044 16.799 9.53914 16.424 9.91422C16.0489 10.2893 15.5402 10.5 15.0098 10.5ZM6.22676 16.442C6.49043 16.6114 6.80944 16.6722 7.11695 16.6117C7.42445 16.5511 7.69658 16.3738 7.87629 16.1171C8.056 15.8603 8.12936 15.5439 8.08097 15.2343C8.03259 14.9246 7.86623 14.6457 7.61676 14.456C7.25876 14.205 6.41876 13.965 5.14676 13.782C5.56676 15.348 5.97276 16.265 6.22676 16.442Z" fill="#21272A"/>
</svg>
