<svg width="24" height="24" viewBox="0 0 24 24" fill="none" xmlns="http://www.w3.org/2000/svg">
<path d="M20.0098 9C20.0098 8.73478 19.9044 8.48043 19.7169 8.29289C19.5293 8.10536 19.275 8 19.0098 8H11.4248L10.9538 6.666C10.8845 6.47105 10.7566 6.30233 10.5875 6.18307C10.4185 6.06381 10.2166 5.99985 10.0098 6H5.00977C4.74455 6 4.4902 6.10536 4.30266 6.29289C4.11512 6.48043 4.00977 6.73478 4.00977 7V9H20.0098ZM20.0098 11H4.00977V17C4.00977 17.2652 4.11512 17.5196 4.30266 17.7071C4.4902 17.8946 4.74455 18 5.00977 18H19.0098C19.275 18 19.5293 17.8946 19.7169 17.7071C19.9044 17.5196 20.0098 17.2652 20.0098 17V11ZM12.8398 6H19.0098C19.8054 6 20.5685 6.31607 21.1311 6.87868C21.6937 7.44129 22.0098 8.20435 22.0098 9V17C22.0098 17.7956 21.6937 18.5587 21.1311 19.1213C20.5685 19.6839 19.8054 20 19.0098 20H5.00977C4.21412 20 3.45105 19.6839 2.88845 19.1213C2.32584 18.5587 2.00977 17.7956 2.00977 17V7C2.00977 6.20435 2.32584 5.44129 2.88845 4.87868C3.45105 4.31607 4.21412 4 5.00977 4H10.0098C11.3158 4 12.4268 4.835 12.8398 6Z" fill="#21272A"/>
</svg>
