<svg width="24" height="24" viewBox="0 0 24 24" fill="none" xmlns="http://www.w3.org/2000/svg">
<path d="M8.84477 16H15.1748C15.7167 14.7356 16.0006 13.3756 16.0098 12C16.0098 10.63 15.7078 9.259 15.1748 8H8.84477C8.30287 9.26443 8.01898 10.6244 8.00977 12C8.00977 13.37 8.31177 14.741 8.84477 16ZM9.95077 18C10.4348 18.688 10.9608 19.254 11.4498 19.63C11.7928 19.895 12.0298 20 12.0098 20C11.9898 20 12.2268 19.895 12.5698 19.63C13.0588 19.254 13.5848 18.688 14.0688 18H9.94977H9.95077ZM13.0098 13H14.0098C14.275 13 14.5293 13.1054 14.7169 13.2929C14.9044 13.4804 15.0098 13.7348 15.0098 14C15.0098 14.2652 14.9044 14.5196 14.7169 14.7071C14.5293 14.8946 14.275 15 14.0098 15H10.0098C9.74455 15 9.4902 14.8946 9.30266 14.7071C9.11512 14.5196 9.00977 14.2652 9.00977 14C9.00977 13.7348 9.11512 13.4804 9.30266 13.2929C9.4902 13.1054 9.74455 13 10.0098 13H11.0098V11H10.0098C9.74455 11 9.4902 10.8946 9.30266 10.7071C9.11512 10.5196 9.00977 10.2652 9.00977 10C9.00977 9.73478 9.11512 9.48043 9.30266 9.29289C9.4902 9.10536 9.74455 9 10.0098 9H14.0098C14.275 9 14.5293 9.10536 14.7169 9.29289C14.9044 9.48043 15.0098 9.73478 15.0098 10C15.0098 10.2652 14.9044 10.5196 14.7169 10.7071C14.5293 10.8946 14.275 11 14.0098 11H13.0098V13ZM9.95077 6H14.0698C13.5858 5.312 13.0598 4.746 12.5708 4.37C12.2268 4.105 11.9898 4 12.0098 4C12.0298 4 11.7928 4.105 11.4498 4.37C10.9608 4.746 10.4348 5.312 9.95077 6ZM12.0098 22C10.0098 22 6.00977 17.523 6.00977 12C6.00977 6.477 10.0098 2 12.0098 2C14.0098 2 18.0098 6.477 18.0098 12C18.0098 17.523 14.0098 22 12.0098 22Z" fill="#21272A"/>
</svg>
