<svg width="24" height="24" viewBox="0 0 24 24" fill="none" xmlns="http://www.w3.org/2000/svg">
<path d="M12.0098 20C12.275 20 12.5293 19.8947 12.7169 19.7071C12.9044 19.5196 13.0098 19.2652 13.0098 19C13.0098 18.7348 12.9044 18.4805 12.7169 18.2929C12.5293 18.1054 12.275 18 12.0098 18C11.7445 18 11.4902 18.1054 11.3027 18.2929C11.1151 18.4805 11.0098 18.7348 11.0098 19C11.0098 19.2652 11.1151 19.5196 11.3027 19.7071C11.4902 19.8947 11.7445 20 12.0098 20ZM13.0428 16.183C13.7059 16.4266 14.2619 16.8962 14.6128 17.5094C14.9637 18.1225 15.0871 18.8398 14.9612 19.5349C14.8353 20.23 14.4682 20.8585 13.9245 21.3096C13.3808 21.7607 12.6955 22.0055 11.989 22.001C11.2826 21.9965 10.6004 21.7429 10.0625 21.2849C9.52469 20.8269 9.16566 20.1938 9.04866 19.4971C8.93165 18.8004 9.06418 18.0848 9.42291 17.4762C9.78164 16.8676 10.3436 16.4051 11.0098 16.17V15.123C11.0098 15.049 11.0128 14.975 11.0178 14.902C10.9878 14.7701 10.9315 14.6457 10.8521 14.5362C10.7726 14.4267 10.6718 14.3344 10.5558 14.265L7.46976 12.42C7.02452 12.1537 6.65595 11.7765 6.40006 11.3251C6.14417 10.8738 6.00969 10.3638 6.00976 9.84502V7.82902C5.34227 7.59312 4.77967 7.12883 4.4214 6.51822C4.06314 5.90761 3.93228 5.19 4.05195 4.49223C4.17163 3.79447 4.53413 3.16148 5.07539 2.70515C5.61665 2.24882 6.30181 1.99854 7.00976 1.99854C7.71772 1.99854 8.40288 2.24882 8.94414 2.70515C9.4854 3.16148 9.8479 3.79447 9.96758 4.49223C10.0873 5.19 9.95639 5.90761 9.59812 6.51822C9.23986 7.12883 8.67726 7.59312 8.00976 7.82902V9.84502C8.00983 10.0179 8.05474 10.1879 8.14009 10.3383C8.22545 10.4886 8.34834 10.6143 8.49676 10.703L11.5828 12.549C11.74 12.6433 11.8883 12.7517 12.0258 12.873C12.1635 12.7517 12.3122 12.6432 12.4698 12.549L15.5558 10.703C15.7042 10.6143 15.8271 10.4886 15.9124 10.3383C15.9978 10.1879 16.0427 10.0179 16.0428 9.84502V7.84102C15.3704 7.61144 14.8013 7.15076 14.4367 6.54097C14.0722 5.93117 13.9358 5.2118 14.0518 4.51087C14.1678 3.80994 14.5288 3.17291 15.0704 2.71314C15.6121 2.25336 16.2993 2.00067 17.0098 2.00002C17.7147 1.99973 18.3971 2.24766 18.9375 2.70031C19.4778 3.15297 19.8416 3.78144 19.9648 4.47548C20.088 5.16952 19.963 5.88479 19.6115 6.49582C19.2601 7.10684 18.7047 7.5746 18.0428 7.81702V9.84502C18.0428 10.3638 17.9084 10.8738 17.6525 11.3251C17.3966 11.7765 17.028 12.1537 16.5828 12.42L13.4968 14.266C13.3807 14.3354 13.2799 14.4277 13.2005 14.5372C13.1211 14.6467 13.0647 14.7711 13.0348 14.903C13.0398 14.976 13.0428 15.05 13.0428 15.123V16.183ZM7.00976 6.00002C7.27498 6.00002 7.52934 5.89467 7.71687 5.70713C7.90441 5.51959 8.00976 5.26524 8.00976 5.00002C8.00976 4.73481 7.90441 4.48045 7.71687 4.29292C7.52934 4.10538 7.27498 4.00002 7.00976 4.00002C6.74455 4.00002 6.49019 4.10538 6.30266 4.29292C6.11512 4.48045 6.00976 4.73481 6.00976 5.00002C6.00976 5.26524 6.11512 5.51959 6.30266 5.70713C6.49019 5.89467 6.74455 6.00002 7.00976 6.00002ZM17.0098 6.00002C17.275 6.00002 17.5293 5.89467 17.7169 5.70713C17.9044 5.51959 18.0098 5.26524 18.0098 5.00002C18.0098 4.73481 17.9044 4.48045 17.7169 4.29292C17.5293 4.10538 17.275 4.00002 17.0098 4.00002C16.7445 4.00002 16.4902 4.10538 16.3027 4.29292C16.1151 4.48045 16.0098 4.73481 16.0098 5.00002C16.0098 5.26524 16.1151 5.51959 16.3027 5.70713C16.4902 5.89467 16.7445 6.00002 17.0098 6.00002Z" fill="#21272A"/>
</svg>
