<svg width="24" height="24" viewBox="0 0 24 24" fill="none" xmlns="http://www.w3.org/2000/svg">
<path d="M15.4998 20.31C15.3291 20.51 15.12 20.6737 14.885 20.7915C14.6499 20.9092 14.3936 20.9787 14.1312 20.9956C13.8689 21.0126 13.6058 20.9768 13.3575 20.8903C13.1092 20.8038 12.8808 20.6683 12.6858 20.492C12.4725 20.2992 12.3021 20.0637 12.1856 19.8008C12.0692 19.5379 12.0092 19.2535 12.0098 18.966V5.034C12.0098 3.911 12.9028 3 14.0038 3C14.5768 3 15.1218 3.251 15.4998 3.69L21.5118 10.656C22.1758 11.424 22.1758 12.576 21.5118 13.344L15.4998 20.31ZM14.0038 5.034V18.966L20.0158 12L14.0038 5.034ZM5.49977 20.31C5.32909 20.51 5.12003 20.6737 4.88497 20.7915C4.6499 20.9092 4.3936 20.9787 4.13123 20.9956C3.86886 21.0126 3.60575 20.9768 3.35747 20.8903C3.10919 20.8038 2.88079 20.6683 2.68577 20.492C2.47247 20.2992 2.30207 20.0637 2.18561 19.8008C2.06916 19.5379 2.00925 19.2535 2.00977 18.966V5.034C2.00977 3.911 2.90277 3 4.00377 3C4.57677 3 5.12177 3.251 5.49977 3.69L11.5118 10.656C12.1758 11.424 12.1758 12.576 11.5118 13.344L5.49977 20.31ZM4.00377 5.034V18.966L10.0158 12L4.00377 5.034Z" fill="#21272A"/>
</svg>
