<svg width="24" height="24" viewBox="0 0 24 24" fill="none" xmlns="http://www.w3.org/2000/svg">
<path d="M12.0098 22C6.48677 22 2.00977 17.523 2.00977 12C2.00977 6.477 6.48677 2 12.0098 2C17.5328 2 22.0098 6.477 22.0098 12C22.0098 17.523 17.5328 22 12.0098 22ZM12.0098 20C14.1315 20 16.1663 19.1571 17.6666 17.6569C19.1669 16.1566 20.0098 14.1217 20.0098 12C20.0098 9.87827 19.1669 7.84344 17.6666 6.34315C16.1663 4.84285 14.1315 4 12.0098 4C9.88803 4 7.8532 4.84285 6.35291 6.34315C4.85262 7.84344 4.00977 9.87827 4.00977 12C4.00977 14.1217 4.85262 16.1566 6.35291 17.6569C7.8532 19.1571 9.88803 20 12.0098 20ZM11.0368 15.246L9.08077 16.644C8.17577 17.29 6.95077 17.033 6.34377 16.068C6.1247 15.7171 6.00895 15.3116 6.00977 14.898V9.102C6.00977 7.942 6.89277 7 7.98177 7C8.37277 7 8.75577 7.124 9.08077 7.356L11.0368 8.754C11.1918 7.76 12.0038 7 12.9818 7C13.3728 7 13.7558 7.124 14.0808 7.356L18.1358 10.254C19.0408 10.901 19.2818 12.206 18.6758 13.171C18.5348 13.3959 18.3514 13.5913 18.1358 13.746L14.0808 16.644C13.1758 17.29 11.9508 17.033 11.3438 16.068C11.1869 15.8176 11.0824 15.538 11.0368 15.246ZM12.9818 9.102V14.898L17.0368 12L12.9818 9.102ZM7.98177 9.102V14.898L11.0018 12.739L11.0058 11.263L7.98177 9.102Z" fill="#21272A"/>
</svg>
