<svg width="24" height="24" viewBox="0 0 24 24" fill="none" xmlns="http://www.w3.org/2000/svg">
<path d="M18.4768 2.771C18.2777 2.53042 18.0281 2.33663 17.7457 2.20338C17.4633 2.07013 17.155 2.00069 16.8428 2L7.16877 2C5.98377 2 5.01977 2.987 5.01977 4.2V20.986C5.01977 21.404 5.27277 21.778 5.65477 21.926C5.84138 21.9991 6.04615 22.012 6.24049 21.9631C6.43483 21.9142 6.60903 21.8057 6.73877 21.653L11.9278 15.668H15.4088C16.4728 15.668 17.3658 14.888 17.5318 13.813L18.9668 4.543C19.0157 4.22985 18.9974 3.90987 18.9131 3.60435C18.8288 3.29882 18.6804 3.01474 18.4778 2.771H18.4768ZM16.0738 7.615H11.4748C10.9248 7.615 10.4598 8.076 10.4698 8.64C10.4798 9.187 10.9158 9.627 11.4528 9.627H15.6128C15.6847 9.62818 15.7555 9.64486 15.8203 9.6759C15.8852 9.70693 15.9426 9.7516 15.9887 9.80684C16.0347 9.86208 16.0683 9.92661 16.0871 9.99601C16.1059 10.0654 16.1096 10.1381 16.0978 10.209L15.6328 13.233C15.6158 13.3504 15.5573 13.4578 15.468 13.5357C15.3787 13.6137 15.2643 13.6571 15.1458 13.658L11.4838 13.656C11.3441 13.6565 11.2062 13.687 11.0794 13.7455C10.9526 13.804 10.8398 13.8891 10.7488 13.995L6.98577 18.335V4.2C6.98577 4.096 7.06777 4.012 7.16877 4.012H16.4408C16.5124 4.01286 16.5831 4.02912 16.6479 4.05968C16.7127 4.09023 16.7702 4.13436 16.8165 4.18908C16.8628 4.2438 16.8968 4.30783 16.9161 4.37683C16.9355 4.44583 16.9398 4.51819 16.9288 4.589L16.5608 7.183C16.5453 7.30163 16.4876 7.41069 16.3981 7.49008C16.3086 7.56946 16.1934 7.61383 16.0738 7.615Z" fill="#21272A"/>
</svg>
