<svg width="24" height="24" viewBox="0 0 24 24" fill="none" xmlns="http://www.w3.org/2000/svg">
<g clip-path="url(#clip0_105_32717)">
<path d="M7.00977 11H8.00977C8.27498 11 8.52934 11.1054 8.71687 11.2929C8.90441 11.4804 9.00977 11.7348 9.00977 12C9.00977 12.2652 8.90441 12.5196 8.71687 12.7071C8.52934 12.8946 8.27498 13 8.00977 13H7.00977V14C7.00977 14.2652 6.90441 14.5196 6.71687 14.7071C6.52934 14.8946 6.27498 15 6.00977 15C5.74455 15 5.4902 14.8946 5.30266 14.7071C5.11512 14.5196 5.00977 14.2652 5.00977 14V13H4.00977C3.74455 13 3.4902 12.8946 3.30266 12.7071C3.11512 12.5196 3.00977 12.2652 3.00977 12C3.00977 11.7348 3.11512 11.4804 3.30266 11.2929C3.4902 11.1054 3.74455 11 4.00977 11H5.00977V10C5.00977 9.73478 5.11512 9.48043 5.30266 9.29289C5.4902 9.10536 5.74455 9 6.00977 9C6.27498 9 6.52934 9.10536 6.71687 9.29289C6.90441 9.48043 7.00977 9.73478 7.00977 10V11ZM6.00977 6H18.0098C19.0106 5.99998 19.9956 6.25032 20.8749 6.72823C21.7543 7.20613 22.5002 7.89643 23.0446 8.73625C23.589 9.57607 23.9147 10.5387 23.992 11.5366C24.0693 12.5344 23.8957 13.5358 23.4872 14.4494C23.0786 15.3631 22.4479 16.16 21.6527 16.7676C20.8574 17.3753 19.9227 17.7743 18.9338 17.9284C17.9449 18.0826 16.9332 17.9868 15.9907 17.65C15.0482 17.3132 14.205 16.746 13.5378 16H10.4818C9.81454 16.746 8.9713 17.3132 8.02883 17.65C7.08636 17.9868 6.07461 18.0826 5.08571 17.9284C4.0968 17.7743 3.16215 17.3753 2.36688 16.7676C1.5716 16.16 0.940959 15.3631 0.532376 14.4494C0.123794 13.5358 -0.0497482 12.5344 0.0275525 11.5366C0.104853 10.5387 0.430541 9.57607 0.974959 8.73625C1.51938 7.89643 2.26523 7.20613 3.1446 6.72823C4.02397 6.25032 5.00892 5.99998 6.00977 6V6ZM6.00977 8C5.3425 8 4.68584 8.16692 4.09957 8.48557C3.51331 8.80421 3.01607 9.26446 2.65315 9.8244C2.29022 10.3843 2.07314 11.0262 2.02166 11.6914C1.97019 12.3567 2.08596 13.0243 2.35844 13.6334C2.63092 14.2425 3.05144 14.7737 3.58171 15.1788C4.11198 15.5838 4.73515 15.8498 5.39448 15.9524C6.0538 16.055 6.72833 15.9911 7.35662 15.7664C7.98492 15.5417 8.54703 15.1634 8.99177 14.666L9.58777 14H14.4318L15.0278 14.666C15.4725 15.1634 16.0346 15.5417 16.6629 15.7664C17.2912 15.9911 17.9657 16.055 18.6251 15.9524C19.2844 15.8498 19.9076 15.5838 20.4378 15.1788C20.9681 14.7737 21.3886 14.2425 21.6611 13.6334C21.9336 13.0243 22.0493 12.3567 21.9979 11.6914C21.9464 11.0262 21.7293 10.3843 21.3664 9.8244C21.0035 9.26446 20.5062 8.80421 19.92 8.48557C19.3337 8.16692 18.677 8 18.0098 8H6.00977ZM18.0098 11C17.7445 11 17.4902 10.8946 17.3027 10.7071C17.1151 10.5196 17.0098 10.2652 17.0098 10C17.0098 9.73478 17.1151 9.48043 17.3027 9.29289C17.4902 9.10536 17.7445 9 18.0098 9C18.275 9 18.5293 9.10536 18.7169 9.29289C18.9044 9.48043 19.0098 9.73478 19.0098 10C19.0098 10.2652 18.9044 10.5196 18.7169 10.7071C18.5293 10.8946 18.275 11 18.0098 11ZM16.0098 13C15.7445 13 15.4902 12.8946 15.3027 12.7071C15.1151 12.5196 15.0098 12.2652 15.0098 12C15.0098 11.7348 15.1151 11.4804 15.3027 11.2929C15.4902 11.1054 15.7445 11 16.0098 11C16.275 11 16.5293 11.1054 16.7169 11.2929C16.9044 11.4804 17.0098 11.7348 17.0098 12C17.0098 12.2652 16.9044 12.5196 16.7169 12.7071C16.5293 12.8946 16.275 13 16.0098 13ZM20.0098 13C19.7445 13 19.4902 12.8946 19.3027 12.7071C19.1151 12.5196 19.0098 12.2652 19.0098 12C19.0098 11.7348 19.1151 11.4804 19.3027 11.2929C19.4902 11.1054 19.7445 11 20.0098 11C20.275 11 20.5293 11.1054 20.7169 11.2929C20.9044 11.4804 21.0098 11.7348 21.0098 12C21.0098 12.2652 20.9044 12.5196 20.7169 12.7071C20.5293 12.8946 20.275 13 20.0098 13ZM18.0098 15C17.7445 15 17.4902 14.8946 17.3027 14.7071C17.1151 14.5196 17.0098 14.2652 17.0098 14C17.0098 13.7348 17.1151 13.4804 17.3027 13.2929C17.4902 13.1054 17.7445 13 18.0098 13C18.275 13 18.5293 13.1054 18.7169 13.2929C18.9044 13.4804 19.0098 13.7348 19.0098 14C19.0098 14.2652 18.9044 14.5196 18.7169 14.7071C18.5293 14.8946 18.275 15 18.0098 15Z" fill="#21272A"/>
</g>
<defs>
<clipPath id="clip0_105_32717">
<rect width="24" height="24" fill="white" transform="translate(0.00976562)"/>
</clipPath>
</defs>
</svg>
