<svg width="24" height="24" viewBox="0 0 24 24" fill="none" xmlns="http://www.w3.org/2000/svg">
<g clip-path="url(#clip0_105_32828)">
<path d="M7.00977 9.00006H8.00977C8.27498 9.00006 8.52934 9.10542 8.71687 9.29295C8.90441 9.48049 9.00977 9.73484 9.00977 10.0001C9.00977 10.2653 8.90441 10.5196 8.71687 10.7072C8.52934 10.8947 8.27498 11.0001 8.00977 11.0001H7.00977V12.0001C7.00977 12.2653 6.90441 12.5196 6.71687 12.7072C6.52934 12.8947 6.27498 13.0001 6.00977 13.0001C5.74455 13.0001 5.4902 12.8947 5.30266 12.7072C5.11512 12.5196 5.00977 12.2653 5.00977 12.0001V11.0001H4.00977C3.74455 11.0001 3.4902 10.8947 3.30266 10.7072C3.11512 10.5196 3.00977 10.2653 3.00977 10.0001C3.00977 9.73484 3.11512 9.48049 3.30266 9.29295C3.4902 9.10542 3.74455 9.00006 4.00977 9.00006H5.00977V8.00006C5.00977 7.73484 5.11512 7.48049 5.30266 7.29295C5.4902 7.10542 5.74455 7.00006 6.00977 7.00006C6.27498 7.00006 6.52934 7.10542 6.71687 7.29295C6.90441 7.48049 7.00977 7.73484 7.00977 8.00006V9.00006ZM9.32777 5.00006H14.6918C15.5958 4.40003 16.6456 4.05639 17.7295 4.0057C18.8133 3.95501 19.8906 4.19918 20.8467 4.71221C21.8028 5.22524 22.6019 5.98793 23.1589 6.91909C23.7159 7.85025 24.0099 8.91502 24.0098 10.0001C24.0098 13.3141 21.3238 20.0001 18.0098 20.0001C16.0338 20.0001 14.2808 17.6221 13.1878 15.0001H10.8318C9.73977 17.6221 7.98577 20.0001 6.00977 20.0001C2.69577 20.0001 0.00976569 13.3141 0.00976569 10.0001C0.00960067 8.91502 0.303668 7.85025 0.860663 6.91909C1.41766 5.98793 2.21673 5.22524 3.17282 4.71221C4.1289 4.19918 5.20621 3.95501 6.29006 4.0057C7.37391 4.05639 8.42373 4.40003 9.32777 5.00006ZM15.2958 7.00006H8.72377L8.21977 6.66506C7.61698 6.2655 6.91716 6.03683 6.19475 6.00339C5.47234 5.96995 4.75438 6.13298 4.11726 6.47513C3.48014 6.81729 2.9477 7.32577 2.57659 7.94647C2.20548 8.56718 2.00959 9.27688 2.00977 10.0001C2.00977 13.1171 4.55177 18.0001 6.00977 18.0001C6.73177 18.0001 8.01377 16.5621 8.98577 14.2301L9.49977 13.0001H14.5218L15.0348 14.2301C16.0058 16.5621 17.2878 18.0001 18.0098 18.0001C19.4678 18.0001 22.0098 13.1171 22.0098 10.0001C22.0099 9.27688 21.814 8.56718 21.4429 7.94647C21.0718 7.32577 20.5394 6.81729 19.9023 6.47513C19.2652 6.13298 18.5472 5.96995 17.8248 6.00339C17.1024 6.03683 16.4025 6.2655 15.7998 6.66506L15.2958 7.00006ZM18.0098 9.00006C17.7445 9.00006 17.4902 8.8947 17.3027 8.70717C17.1151 8.51963 17.0098 8.26528 17.0098 8.00006C17.0098 7.73484 17.1151 7.48049 17.3027 7.29295C17.4902 7.10542 17.7445 7.00006 18.0098 7.00006C18.275 7.00006 18.5293 7.10542 18.7169 7.29295C18.9044 7.48049 19.0098 7.73484 19.0098 8.00006C19.0098 8.26528 18.9044 8.51963 18.7169 8.70717C18.5293 8.8947 18.275 9.00006 18.0098 9.00006ZM16.0098 11.0001C15.7445 11.0001 15.4902 10.8947 15.3027 10.7072C15.1151 10.5196 15.0098 10.2653 15.0098 10.0001C15.0098 9.73484 15.1151 9.48049 15.3027 9.29295C15.4902 9.10542 15.7445 9.00006 16.0098 9.00006C16.275 9.00006 16.5293 9.10542 16.7169 9.29295C16.9044 9.48049 17.0098 9.73484 17.0098 10.0001C17.0098 10.2653 16.9044 10.5196 16.7169 10.7072C16.5293 10.8947 16.275 11.0001 16.0098 11.0001ZM20.0098 11.0001C19.7445 11.0001 19.4902 10.8947 19.3027 10.7072C19.1151 10.5196 19.0098 10.2653 19.0098 10.0001C19.0098 9.73484 19.1151 9.48049 19.3027 9.29295C19.4902 9.10542 19.7445 9.00006 20.0098 9.00006C20.275 9.00006 20.5293 9.10542 20.7169 9.29295C20.9044 9.48049 21.0098 9.73484 21.0098 10.0001C21.0098 10.2653 20.9044 10.5196 20.7169 10.7072C20.5293 10.8947 20.275 11.0001 20.0098 11.0001ZM18.0098 13.0001C17.7445 13.0001 17.4902 12.8947 17.3027 12.7072C17.1151 12.5196 17.0098 12.2653 17.0098 12.0001C17.0098 11.7348 17.1151 11.4805 17.3027 11.293C17.4902 11.1054 17.7445 11.0001 18.0098 11.0001C18.275 11.0001 18.5293 11.1054 18.7169 11.293C18.9044 11.4805 19.0098 11.7348 19.0098 12.0001C19.0098 12.2653 18.9044 12.5196 18.7169 12.7072C18.5293 12.8947 18.275 13.0001 18.0098 13.0001Z" fill="#21272A"/>
</g>
<defs>
<clipPath id="clip0_105_32828">
<rect width="24" height="24" fill="white" transform="translate(0.00976562)"/>
</clipPath>
</defs>
</svg>
