<svg width="24" height="24" viewBox="0 0 24 24" fill="none" xmlns="http://www.w3.org/2000/svg">
<path d="M12 20C14.1217 20 16.1566 19.1571 17.6569 17.6569C19.1571 16.1566 20 14.1217 20 12C20 9.87827 19.1571 7.84344 17.6569 6.34315C16.1566 4.84285 14.1217 4 12 4C9.87827 4 7.84344 4.84285 6.34315 6.34315C4.84285 7.84344 4 9.87827 4 12C4 14.1217 4.84285 16.1566 6.34315 17.6569C7.84344 19.1571 9.87827 20 12 20ZM12 22C6.477 22 2 17.523 2 12C2 6.477 6.477 2 12 2C17.523 2 22 6.477 22 12C22 17.523 17.523 22 12 22Z" fill="#21272A"/>
<path d="M7.024 14.6551H10.944V16.5421H7.024V14.6551ZM12.905 14.6551H16.823V16.5421H12.905V14.6551ZM7.021 10.8811H16.823V12.7681H7.021V10.8811ZM7.024 7.10706H12.905V8.99406H7.024V7.10706ZM14.865 7.10706H16.825V8.99406H14.865V7.10706Z" fill="#21272A"/>
</svg>
