<svg width="24" height="24" viewBox="0 0 24 24" fill="none" xmlns="http://www.w3.org/2000/svg">
<path d="M10.1898 17.008C10.3098 17.008 10.4008 17.004 10.4608 16.996C10.5312 16.9818 10.5946 16.944 10.6408 16.889C10.7008 16.826 10.7308 16.735 10.7308 16.615L10.7268 16.058C10.7238 15.703 10.7228 15.421 10.7228 15.214L10.5348 15.247C10.3843 15.2707 10.232 15.2801 10.0798 15.275C9.88852 15.2716 9.69789 15.2526 9.50976 15.218C9.31012 15.1808 9.12225 15.0964 8.96176 14.972C8.79353 14.8447 8.66797 14.6693 8.60176 14.469L8.51976 14.28C8.45079 14.1312 8.36417 13.9912 8.26176 13.863C8.16982 13.7316 8.0473 13.6245 7.90476 13.551L7.84776 13.511C7.80851 13.4821 7.77292 13.4485 7.74176 13.411C7.71153 13.3769 7.68658 13.3385 7.66776 13.297C7.65176 13.259 7.66476 13.227 7.70776 13.203C7.78323 13.1727 7.86465 13.16 7.94576 13.166L8.10976 13.191C8.21976 13.212 8.35476 13.278 8.51576 13.387C8.67576 13.497 8.80876 13.638 8.91276 13.813C9.03876 14.037 9.18976 14.208 9.36776 14.325C9.52488 14.4358 9.71154 14.4971 9.90376 14.501C10.0838 14.501 10.2398 14.488 10.3708 14.461C10.4983 14.4346 10.6222 14.3929 10.7398 14.337C10.7888 13.972 10.9218 13.69 11.1398 13.494C10.8567 13.466 10.5763 13.4165 10.3008 13.346C10.0318 13.2719 9.77308 13.1644 9.53076 13.026C9.27699 12.8883 9.05275 12.7021 8.87076 12.478C8.69676 12.259 8.55376 11.973 8.44076 11.618C8.32294 11.2192 8.26663 10.8048 8.27376 10.389C8.27376 9.72901 8.48976 9.16601 8.92076 8.70201C8.71876 8.20501 8.73776 7.64801 8.97776 7.03101C9.13676 6.98101 9.37176 7.01801 9.68276 7.14101C9.99376 7.26401 10.2228 7.36901 10.3668 7.45701C10.5118 7.54401 10.6268 7.61701 10.7148 7.67701C11.2269 7.53476 11.7562 7.46343 12.2878 7.46501C12.8278 7.46501 13.3528 7.53501 13.8608 7.67801L14.1708 7.48101C14.3848 7.35101 14.6358 7.23001 14.9248 7.12101C15.2148 7.01101 15.4358 6.98101 15.5888 7.03101C15.8348 7.64801 15.8568 8.20501 15.6538 8.70101C16.0858 9.16601 16.3018 9.72801 16.3018 10.389C16.3018 10.853 16.2458 11.264 16.1338 11.622C16.0218 11.98 15.8768 12.266 15.6998 12.482C15.5148 12.7039 15.2895 12.8889 15.0358 13.027C14.7935 13.1654 14.5348 13.2729 14.2658 13.347C13.9899 13.4173 13.7091 13.4664 13.4258 13.494C13.7098 13.739 13.8518 14.127 13.8518 14.657V16.614C13.8518 16.707 13.8658 16.782 13.8928 16.84C13.9055 16.8676 13.9236 16.8924 13.9461 16.9129C13.9686 16.9333 13.995 16.949 14.0238 16.959C14.0838 16.98 14.1378 16.994 14.1838 16.999C14.2308 17.005 14.2968 17.008 14.3838 17.008H10.1908H10.1898Z" fill="#21272A"/>
<path d="M12.0098 20C14.1315 20 16.1663 19.1571 17.6666 17.6569C19.1669 16.1566 20.0098 14.1217 20.0098 12C20.0098 9.87827 19.1669 7.84344 17.6666 6.34315C16.1663 4.84285 14.1315 4 12.0098 4C9.88803 4 7.8532 4.84285 6.35291 6.34315C4.85262 7.84344 4.00977 9.87827 4.00977 12C4.00977 14.1217 4.85262 16.1566 6.35291 17.6569C7.8532 19.1571 9.88803 20 12.0098 20ZM12.0098 22C6.48677 22 2.00977 17.523 2.00977 12C2.00977 6.477 6.48677 2 12.0098 2C17.5328 2 22.0098 6.477 22.0098 12C22.0098 17.523 17.5328 22 12.0098 22Z" fill="#21272A"/>
</svg>
