<svg width="24" height="24" viewBox="0 0 24 24" fill="none" xmlns="http://www.w3.org/2000/svg">
<path d="M12.0098 16.616L10.1688 10.95H13.8508L12.0098 16.616ZM12.0098 16.616L7.58777 10.95H10.1678L12.0098 16.616ZM7.58777 10.95L12.0098 16.616L7.16677 13.098C7.10154 13.0506 7.05303 12.9837 7.02823 12.907C7.00343 12.8303 7.00362 12.7476 7.02877 12.671L7.58877 10.949L7.58777 10.95ZM7.58777 10.95L8.69777 7.53703C8.71002 7.49865 8.73416 7.46515 8.76669 7.44139C8.79923 7.41762 8.83848 7.40481 8.87877 7.40481C8.91906 7.40481 8.95831 7.41762 8.99084 7.44139C9.02338 7.46515 9.04751 7.49865 9.05977 7.53703L10.1688 10.95H7.58877H7.58777ZM12.0098 16.616L13.8508 10.949H16.4308L12.0098 16.616ZM16.4318 10.949L16.9918 12.671C17.0167 12.7479 17.0166 12.8306 16.9914 12.9074C16.9663 12.9841 16.9174 13.0509 16.8518 13.098L12.0098 16.616L16.4318 10.949ZM16.4318 10.949H13.8518L14.9598 7.53603C14.9718 7.49727 14.9959 7.46337 15.0285 7.43929C15.0612 7.41521 15.1007 7.40222 15.1413 7.40222C15.1818 7.40222 15.2214 7.41521 15.254 7.43929C15.2867 7.46337 15.3108 7.49727 15.3228 7.53603L16.4318 10.949Z" fill="#21272A"/>
<path d="M6.00977 4C5.47933 4 4.97062 4.21071 4.59555 4.58579C4.22048 4.96086 4.00977 5.46957 4.00977 6V18C4.00977 18.5304 4.22048 19.0391 4.59555 19.4142C4.97062 19.7893 5.47933 20 6.00977 20H18.0098C18.5402 20 19.0489 19.7893 19.424 19.4142C19.7991 19.0391 20.0098 18.5304 20.0098 18V6C20.0098 5.46957 19.7991 4.96086 19.424 4.58579C19.0489 4.21071 18.5402 4 18.0098 4H6.00977ZM6.00977 2H18.0098C19.0706 2 20.088 2.42143 20.8382 3.17157C21.5883 3.92172 22.0098 4.93913 22.0098 6V18C22.0098 19.0609 21.5883 20.0783 20.8382 20.8284C20.088 21.5786 19.0706 22 18.0098 22H6.00977C4.9489 22 3.93148 21.5786 3.18134 20.8284C2.43119 20.0783 2.00977 19.0609 2.00977 18V6C2.00977 4.93913 2.43119 3.92172 3.18134 3.17157C3.93148 2.42143 4.9489 2 6.00977 2V2Z" fill="#21272A"/>
</svg>
