<svg width="24" height="24" viewBox="0 0 24 24" fill="none" xmlns="http://www.w3.org/2000/svg">
<path d="M12.0158 20.943L8.33577 9.61804H15.6958L12.0158 20.943ZM12.0158 20.943L3.17777 9.61804H8.33577L12.0158 20.943ZM3.17777 9.61804L12.0158 20.943L2.33577 13.911C2.20571 13.8163 2.10897 13.6829 2.05939 13.5299C2.00981 13.3768 2.00994 13.212 2.05977 13.059L3.17777 9.61804ZM3.17777 9.61804L5.39477 2.79604C5.41927 2.71927 5.46755 2.65229 5.53262 2.60476C5.59769 2.55722 5.67618 2.53161 5.75677 2.53161C5.83735 2.53161 5.91584 2.55722 5.98091 2.60476C6.04598 2.65229 6.09426 2.71927 6.11877 2.79604L8.33577 9.61804H3.17777ZM12.0158 20.943L15.6958 9.61804H20.8528L12.0158 20.943ZM20.8528 9.61804L21.9718 13.059C22.0215 13.2121 22.0215 13.377 21.9717 13.53C21.9219 13.6831 21.825 13.8165 21.6948 13.911L12.0148 20.943L20.8528 9.61804ZM20.8528 9.61804H15.6958L17.9118 2.79604C17.936 2.7189 17.9843 2.65151 18.0494 2.60367C18.1146 2.55583 18.1934 2.53003 18.2743 2.53003C18.3551 2.53003 18.4339 2.55583 18.4991 2.60367C18.5643 2.65151 18.6125 2.7189 18.6368 2.79604L20.8528 9.61804Z" fill="#21272A"/>
</svg>
