<svg width="24" height="24" viewBox="0 0 24 24" fill="none" xmlns="http://www.w3.org/2000/svg">
<path d="M12.0098 20C14.1315 20 16.1663 19.1571 17.6666 17.6569C19.1669 16.1566 20.0098 14.1217 20.0098 12C20.0098 9.87827 19.1669 7.84344 17.6666 6.34315C16.1663 4.84285 14.1315 4 12.0098 4C9.88803 4 7.8532 4.84285 6.35291 6.34315C4.85262 7.84344 4.00977 9.87827 4.00977 12C4.00977 14.1217 4.85262 16.1566 6.35291 17.6569C7.8532 19.1571 9.88803 20 12.0098 20ZM12.0098 22C6.48677 22 2.00977 17.523 2.00977 12C2.00977 6.477 6.48677 2 12.0098 2C17.5328 2 22.0098 6.477 22.0098 12C22.0098 17.523 17.5328 22 12.0098 22Z" fill="#21272A"/>
<path d="M12.0098 16.616L10.1688 10.95H13.8508L12.0098 16.616ZM12.0098 16.616L7.58777 10.95H10.1678L12.0098 16.616ZM7.58777 10.95L12.0098 16.616L7.16677 13.098C7.10154 13.0506 7.05303 12.9837 7.02823 12.907C7.00343 12.8303 7.00362 12.7476 7.02877 12.671L7.58877 10.949L7.58777 10.95ZM7.58777 10.95L8.69777 7.53703C8.71002 7.49865 8.73416 7.46515 8.76669 7.44139C8.79923 7.41762 8.83847 7.40481 8.87877 7.40481C8.91906 7.40481 8.9583 7.41762 8.99084 7.44139C9.02337 7.46515 9.04751 7.49865 9.05977 7.53703L10.1688 10.95H7.58877H7.58777ZM12.0098 16.616L13.8508 10.949H16.4308L12.0098 16.616ZM16.4318 10.949L16.9918 12.671C17.0167 12.7479 17.0166 12.8306 16.9914 12.9074C16.9663 12.9841 16.9173 13.0509 16.8518 13.098L12.0098 16.616L16.4318 10.949ZM16.4318 10.949H13.8518L14.9598 7.53603C14.9718 7.49727 14.9959 7.46337 15.0285 7.43929C15.0612 7.41521 15.1007 7.40222 15.1413 7.40222C15.1818 7.40222 15.2214 7.41521 15.254 7.43929C15.2867 7.46337 15.3108 7.49727 15.3228 7.53603L16.4318 10.949Z" fill="#21272A"/>
</svg>
