<svg width="24" height="24" viewBox="0 0 24 24" fill="none" xmlns="http://www.w3.org/2000/svg">
<path d="M7.00977 7C7.00977 7.79226 7.19803 8.57318 7.55905 9.2784C7.92007 9.98363 8.4435 10.593 9.08621 11.0562C9.72893 11.5195 10.4725 11.8233 11.2557 11.9428C12.0389 12.0623 12.8393 11.994 13.5909 11.7434C14.3425 11.4929 15.0238 11.0673 15.5787 10.5018C16.1336 9.93632 16.5461 9.24706 16.7823 8.49084C17.0186 7.73462 17.0717 6.93308 16.9374 6.15229C16.8031 5.3715 16.4851 4.63381 16.0098 4H8.00977C7.36677 4.854 7.00977 5.897 7.00977 7ZM11.0098 20V13.93C9.71801 13.7431 8.50421 13.1989 7.50535 12.3587C6.50649 11.5186 5.76234 10.416 5.35687 9.17535C4.95141 7.93473 4.90077 6.60547 5.21068 5.33759C5.52059 4.06971 6.17871 2.91369 7.11077 2L16.9088 2C17.8408 2.91369 18.4989 4.06971 18.8088 5.33759C19.1188 6.60547 19.0681 7.93473 18.6627 9.17535C18.2572 10.416 17.513 11.5186 16.5142 12.3587C15.5153 13.1989 14.3015 13.7431 13.0098 13.93V20H15.0098C15.275 20 15.5293 20.1054 15.7169 20.2929C15.9044 20.4804 16.0098 20.7348 16.0098 21C16.0098 21.2652 15.9044 21.5196 15.7169 21.7071C15.5293 21.8946 15.275 22 15.0098 22H9.00977C8.74455 22 8.4902 21.8946 8.30266 21.7071C8.11512 21.5196 8.00977 21.2652 8.00977 21C8.00977 20.7348 8.11512 20.4804 8.30266 20.2929C8.4902 20.1054 8.74455 20 9.00977 20H11.0098Z" fill="#21272A"/>
</svg>
