<svg width="24" height="24" viewBox="0 0 24 24" fill="none" xmlns="http://www.w3.org/2000/svg">
<path d="M10.0098 12.5C9.74455 12.5 9.4902 12.6054 9.30266 12.7929C9.11512 12.9804 9.00977 13.2348 9.00977 13.5V20.5H15.0098V13.5C15.0098 13.2348 14.9044 12.9804 14.7169 12.7929C14.5293 12.6054 14.275 12.5 14.0098 12.5H10.0098ZM11.0098 7.5V2.5C11.0098 2.23478 11.1151 1.98043 11.3027 1.79289C11.4902 1.60536 11.7445 1.5 12.0098 1.5C12.275 1.5 12.5293 1.60536 12.7169 1.79289C12.9044 1.98043 13.0098 2.23478 13.0098 2.5V7.5H14.0098C14.275 7.5 14.5293 7.60536 14.7169 7.79289C14.9044 7.98043 15.0098 8.23478 15.0098 8.5V10.67C16.1748 11.083 17.0098 12.194 17.0098 13.5V20.5C17.0098 21.0304 16.7991 21.5391 16.424 21.9142C16.0489 22.2893 15.5402 22.5 15.0098 22.5H9.00977C8.47933 22.5 7.97062 22.2893 7.59555 21.9142C7.22048 21.5391 7.00977 21.0304 7.00977 20.5V13.5C7.00977 12.194 7.84477 11.083 9.00977 10.67V8.5C9.00977 8.23478 9.11512 7.98043 9.30266 7.79289C9.4902 7.60536 9.74455 7.5 10.0098 7.5H11.0098ZM11.0098 9.5V10.5H13.0098V9.5H11.0098Z" fill="#21272A"/>
</svg>
