<svg width="24" height="24" viewBox="0 0 24 24" fill="none" xmlns="http://www.w3.org/2000/svg">
<path d="M9.19777 11.034C8.97335 11.6869 8.98325 12.3976 9.22577 13.044C9.37787 13.4495 9.61675 13.817 9.9257 14.1205C10.2346 14.4241 10.6062 14.6565 11.0143 14.8015C11.4225 14.9464 11.8574 15.0005 12.2886 14.9598C12.7198 14.9191 13.1369 14.7847 13.5108 14.566C14.1002 14.2207 14.5532 13.6834 14.7938 13.044H12.1198V11.066H16.9228C17.0916 11.9575 17.0149 12.8782 16.7008 13.7295C16.3867 14.5808 15.8471 15.3307 15.1398 15.899C14.5165 16.3993 13.7824 16.743 12.999 16.9011C12.2156 17.0593 11.4057 17.0273 10.6371 16.8079C9.8686 16.5886 9.16386 16.1881 8.58199 15.6402C8.00011 15.0923 7.55806 14.413 7.29287 13.659C7.02769 12.905 6.94711 12.0985 7.05788 11.307C7.16865 10.5155 7.46755 9.76206 7.92953 9.10987C8.3915 8.45769 9.00309 7.92575 9.71302 7.55865C10.4229 7.19155 11.2105 6.99998 12.0098 7C13.1754 6.99886 14.3046 7.40651 15.2008 8.152L13.5808 9.478C13.2013 9.24173 12.7734 9.09405 12.3289 9.04595C11.8845 8.99785 11.4349 9.05057 11.0136 9.20018C10.5923 9.3498 10.2102 9.59246 9.89567 9.91013C9.58112 10.2278 9.34223 10.6123 9.19676 11.035H9.19777V11.034Z" fill="#21272A"/>
<path d="M6.00977 4C5.47933 4 4.97062 4.21071 4.59555 4.58579C4.22048 4.96086 4.00977 5.46957 4.00977 6V18C4.00977 18.5304 4.22048 19.0391 4.59555 19.4142C4.97062 19.7893 5.47933 20 6.00977 20H18.0098C18.5402 20 19.0489 19.7893 19.424 19.4142C19.7991 19.0391 20.0098 18.5304 20.0098 18V6C20.0098 5.46957 19.7991 4.96086 19.424 4.58579C19.0489 4.21071 18.5402 4 18.0098 4H6.00977ZM6.00977 2H18.0098C19.0706 2 20.088 2.42143 20.8382 3.17157C21.5883 3.92172 22.0098 4.93913 22.0098 6V18C22.0098 19.0609 21.5883 20.0783 20.8382 20.8284C20.088 21.5786 19.0706 22 18.0098 22H6.00977C4.9489 22 3.93148 21.5786 3.18134 20.8284C2.43119 20.0783 2.00977 19.0609 2.00977 18V6C2.00977 4.93913 2.43119 3.92172 3.18134 3.17157C3.93148 2.42143 4.9489 2 6.00977 2V2Z" fill="#21272A"/>
</svg>
