<svg width="24" height="24" viewBox="0 0 24 24" fill="none" xmlns="http://www.w3.org/2000/svg">
<path d="M19.5098 10.5V8H18.2598V10.5H15.7598V11.75H18.2598V14.25H19.5098V11.75H22.0098V10.5H19.5098ZM8.25977 10.5V13H11.7958C11.5364 13.7306 11.0573 14.3631 10.4242 14.8107C9.79113 15.2583 9.03508 15.4991 8.25977 15.5C7.26561 15.4987 6.31255 15.1032 5.60958 14.4002C4.9066 13.6972 4.51109 12.7442 4.50977 11.75C4.51109 10.7558 4.9066 9.80279 5.60958 9.09981C6.31255 8.39684 7.26561 8.00133 8.25977 8C9.15577 8 10.0188 8.321 10.6888 8.905L12.3298 7.02C11.2011 6.03855 9.75546 5.49865 8.25977 5.5C6.60273 5.50186 5.0141 6.16093 3.84239 7.33263C2.67069 8.50433 2.01162 10.093 2.00977 11.75C2.01162 13.407 2.67069 14.9957 3.84239 16.1674C5.0141 17.3391 6.60273 17.9981 8.25977 18C9.9168 17.9981 11.5054 17.3391 12.6771 16.1674C13.8488 14.9957 14.5079 13.407 14.5098 11.75V10.5H8.25977Z" fill="#21272A"/>
</svg>
