<svg width="24" height="24" viewBox="0 0 24 24" fill="none" xmlns="http://www.w3.org/2000/svg">
<path d="M9.19777 11.034C8.97336 11.6869 8.98326 12.3976 9.22577 13.044C9.37788 13.4495 9.61676 13.817 9.9257 14.1205C10.2346 14.4241 10.6062 14.6565 11.0143 14.8015C11.4225 14.9464 11.8574 15.0005 12.2886 14.9598C12.7198 14.9191 13.1369 14.7847 13.5108 14.566C14.1003 14.2207 14.5532 13.6834 14.7938 13.044H12.1198V11.066H16.9228C17.0916 11.9575 17.0149 12.8782 16.7008 13.7295C16.3867 14.5808 15.8472 15.3307 15.1398 15.899C14.5165 16.3993 13.7824 16.743 12.999 16.9011C12.2156 17.0593 11.4057 17.0273 10.6371 16.8079C9.86861 16.5886 9.16387 16.1881 8.582 15.6402C8.00012 15.0923 7.55806 14.413 7.29288 13.659C7.0277 12.905 6.94711 12.0985 7.05789 11.307C7.16866 10.5155 7.46756 9.76206 7.92954 9.10987C8.39151 8.45769 9.0031 7.92575 9.71303 7.55865C10.423 7.19155 11.2105 6.99998 12.0098 7C13.1755 6.99886 14.3046 7.40651 15.2008 8.152L13.5808 9.478C13.2013 9.24173 12.7734 9.09405 12.3289 9.04595C11.8845 8.99785 11.4349 9.05057 11.0136 9.20018C10.5923 9.3498 10.2102 9.59246 9.89567 9.91013C9.58112 10.2278 9.34223 10.6123 9.19677 11.035H9.19777V11.034Z" fill="#21272A"/>
<path d="M12.0098 20C14.1315 20 16.1663 19.1571 17.6666 17.6569C19.1669 16.1566 20.0098 14.1217 20.0098 12C20.0098 9.87827 19.1669 7.84344 17.6666 6.34315C16.1663 4.84285 14.1315 4 12.0098 4C9.88803 4 7.8532 4.84285 6.35291 6.34315C4.85262 7.84344 4.00977 9.87827 4.00977 12C4.00977 14.1217 4.85262 16.1566 6.35291 17.6569C7.8532 19.1571 9.88803 20 12.0098 20ZM12.0098 22C6.48677 22 2.00977 17.523 2.00977 12C2.00977 6.477 6.48677 2 12.0098 2C17.5328 2 22.0098 6.477 22.0098 12C22.0098 17.523 17.5328 22 12.0098 22Z" fill="#21272A"/>
</svg>
