<svg width="24" height="24" viewBox="0 0 24 24" fill="none" xmlns="http://www.w3.org/2000/svg">
<path d="M20.6348 11.267L16.9998 9.167L14.0098 12.061L16.7428 14.705L20.6348 12.455C20.7391 12.3952 20.8258 12.3088 20.8858 12.2047C20.9459 12.1005 20.9773 11.9823 20.9768 11.862C20.9776 11.7414 20.9464 11.6227 20.8863 11.5182C20.8262 11.4136 20.7394 11.3269 20.6348 11.267ZM16.3828 8.81L12.3828 6.498L3.61677 2L13.5178 11.584L16.3828 8.81ZM3.76177 21.98L12.3978 17.217L16.1258 15.062L13.5178 12.538L3.76177 21.98ZM3.03177 2.388L3.02177 21.743L13.0248 12.061L3.03177 2.388Z" fill="#21272A"/>
</svg>
