<svg width="24" height="24" viewBox="0 0 24 24" fill="none" xmlns="http://www.w3.org/2000/svg">
<path d="M16.3448 11.61L14.5278 10.56L13.0328 12.006L14.3988 13.328L16.3448 12.204C16.3972 12.1742 16.4408 12.131 16.471 12.0788C16.5012 12.0266 16.517 11.9673 16.5168 11.907C16.5172 11.8465 16.5015 11.787 16.4712 11.7346C16.441 11.6822 16.3973 11.6389 16.3448 11.609V11.61ZM14.2198 10.38L12.2198 9.22498L7.83577 6.97498L12.7858 11.768L14.2198 10.38ZM7.90977 16.966L12.2268 14.584L14.0908 13.507L12.7868 12.244L7.90977 16.966ZM7.54377 7.16998L7.53876 16.847L12.5408 12.006L7.54377 7.16998Z" fill="#21272A"/>
<path d="M6.00977 4C5.47933 4 4.97062 4.21071 4.59555 4.58579C4.22048 4.96086 4.00977 5.46957 4.00977 6V18C4.00977 18.5304 4.22048 19.0391 4.59555 19.4142C4.97062 19.7893 5.47933 20 6.00977 20H18.0098C18.5402 20 19.0489 19.7893 19.424 19.4142C19.7991 19.0391 20.0098 18.5304 20.0098 18V6C20.0098 5.46957 19.7991 4.96086 19.424 4.58579C19.0489 4.21071 18.5402 4 18.0098 4H6.00977ZM6.00977 2H18.0098C19.0706 2 20.088 2.42143 20.8382 3.17157C21.5883 3.92172 22.0098 4.93913 22.0098 6V18C22.0098 19.0609 21.5883 20.0783 20.8382 20.8284C20.088 21.5786 19.0706 22 18.0098 22H6.00977C4.9489 22 3.93148 21.5786 3.18134 20.8284C2.43119 20.0783 2.00977 19.0609 2.00977 18V6C2.00977 4.93913 2.43119 3.92172 3.18134 3.17157C3.93148 2.42143 4.9489 2 6.00977 2V2Z" fill="#21272A"/>
</svg>
