<svg width="24" height="24" viewBox="0 0 24 24" fill="none" xmlns="http://www.w3.org/2000/svg">
<path d="M15.7598 11.5V10.25H15.1348V11.5H13.8848V12.125H15.1348V13.375H15.7598V12.125H17.0098V11.5H15.7598ZM10.1348 11.5V12.75H11.9028C11.773 13.1153 11.5334 13.4315 11.2169 13.6553C10.9004 13.8791 10.5224 13.9995 10.1348 14C9.63765 13.9995 9.16104 13.8018 8.80953 13.4502C8.45801 13.0987 8.2603 12.6221 8.25977 12.125C8.25977 11.091 9.10077 10.25 10.1348 10.25C10.5828 10.25 11.0148 10.41 11.3488 10.703L12.1708 9.76C11.6062 9.26905 10.883 8.99909 10.1348 9C9.30629 9.00106 8.51205 9.33064 7.92623 9.91646C7.3404 10.5023 7.01082 11.2965 7.00977 12.125C7.01082 12.9535 7.3404 13.7477 7.92623 14.3335C8.51205 14.9194 9.30629 15.2489 10.1348 15.25C10.9632 15.2489 11.7575 14.9194 12.3433 14.3335C12.9291 13.7477 13.2587 12.9535 13.2598 12.125V11.5H10.1348Z" fill="#21272A"/>
<path d="M6.00977 4C5.47933 4 4.97062 4.21071 4.59555 4.58579C4.22048 4.96086 4.00977 5.46957 4.00977 6V18C4.00977 18.5304 4.22048 19.0391 4.59555 19.4142C4.97062 19.7893 5.47933 20 6.00977 20H18.0098C18.5402 20 19.0489 19.7893 19.424 19.4142C19.7991 19.0391 20.0098 18.5304 20.0098 18V6C20.0098 5.46957 19.7991 4.96086 19.424 4.58579C19.0489 4.21071 18.5402 4 18.0098 4H6.00977ZM6.00977 2H18.0098C19.0706 2 20.088 2.42143 20.8382 3.17157C21.5883 3.92172 22.0098 4.93913 22.0098 6V18C22.0098 19.0609 21.5883 20.0783 20.8382 20.8284C20.088 21.5786 19.0706 22 18.0098 22H6.00977C4.9489 22 3.93148 21.5786 3.18134 20.8284C2.43119 20.0783 2.00977 19.0609 2.00977 18V6C2.00977 4.93913 2.43119 3.92172 3.18134 3.17157C3.93148 2.42143 4.9489 2 6.00977 2V2Z" fill="#21272A"/>
</svg>
