<svg width="24" height="24" viewBox="0 0 24 24" fill="none" xmlns="http://www.w3.org/2000/svg">
<path d="M12.0098 20C14.1315 20 16.1663 19.1571 17.6666 17.6569C19.1669 16.1566 20.0098 14.1217 20.0098 12C20.0098 9.87827 19.1669 7.84344 17.6666 6.34315C16.1663 4.84285 14.1315 4 12.0098 4C9.88803 4 7.8532 4.84285 6.35291 6.34315C4.85262 7.84344 4.00977 9.87827 4.00977 12C4.00977 14.1217 4.85262 16.1566 6.35291 17.6569C7.8532 19.1571 9.88803 20 12.0098 20ZM12.0098 22C6.48677 22 2.00977 17.523 2.00977 12C2.00977 6.477 6.48677 2 12.0098 2C17.5328 2 22.0098 6.477 22.0098 12C22.0098 17.523 17.5328 22 12.0098 22Z" fill="#21272A"/>
<path d="M15.7598 11.5V10.25H15.1348V11.5H13.8848V12.125H15.1348V13.375H15.7598V12.125H17.0098V11.5H15.7598ZM10.1348 11.5V12.75H11.9028C11.773 13.1153 11.5334 13.4315 11.2169 13.6553C10.9004 13.8791 10.5224 13.9995 10.1348 14C9.63765 13.9995 9.16104 13.8018 8.80953 13.4502C8.45801 13.0987 8.2603 12.6221 8.25977 12.125C8.25977 11.091 9.10077 10.25 10.1348 10.25C10.5828 10.25 11.0148 10.41 11.3488 10.703L12.1708 9.76C11.6062 9.26905 10.883 8.99909 10.1348 9C9.30629 9.00106 8.51205 9.33064 7.92623 9.91646C7.3404 10.5023 7.01082 11.2965 7.00977 12.125C7.01082 12.9535 7.3404 13.7477 7.92623 14.3335C8.51205 14.9194 9.30629 15.2489 10.1348 15.25C10.9632 15.2489 11.7575 14.9194 12.3433 14.3335C12.9291 13.7477 13.2587 12.9535 13.2598 12.125V11.5H10.1348Z" fill="#21272A"/>
</svg>
