<svg width="24" height="24" viewBox="0 0 24 24" fill="none" xmlns="http://www.w3.org/2000/svg">
<path d="M12.0098 20C14.1315 20 16.1663 19.1571 17.6666 17.6569C19.1669 16.1566 20.0098 14.1217 20.0098 12C20.0098 9.87827 19.1669 7.84344 17.6666 6.34315C16.1663 4.84285 14.1315 4 12.0098 4C9.88803 4 7.8532 4.84285 6.35291 6.34315C4.85262 7.84344 4.00977 9.87827 4.00977 12C4.00977 14.1217 4.85262 16.1566 6.35291 17.6569C7.8532 19.1571 9.88803 20 12.0098 20ZM12.0098 22C6.48677 22 2.00977 17.523 2.00977 12C2.00977 6.477 6.48677 2 12.0098 2C17.5328 2 22.0098 6.477 22.0098 12C22.0098 17.523 17.5328 22 12.0098 22Z" fill="#21272A"/>
<path d="M16.3448 11.61L14.5278 10.56L13.0328 12.006L14.3988 13.328L16.3448 12.204C16.3972 12.1742 16.4408 12.131 16.471 12.0788C16.5012 12.0266 16.517 11.9673 16.5168 11.907C16.5172 11.8465 16.5015 11.787 16.4712 11.7346C16.441 11.6822 16.3973 11.6389 16.3448 11.609V11.61ZM14.2198 10.38L12.2198 9.22498L7.83577 6.97498L12.7858 11.768L14.2198 10.38ZM7.90977 16.966L12.2268 14.584L14.0908 13.507L12.7868 12.244L7.90977 16.966ZM7.54377 7.16998L7.53876 16.847L12.5408 12.006L7.54377 7.16998Z" fill="#21272A"/>
</svg>
