<svg width="24" height="24" viewBox="0 0 24 24" fill="none" xmlns="http://www.w3.org/2000/svg">
<path d="M20.4228 3.90003L4.14176 10.226L8.97076 12.232C10.3823 12.8175 11.5037 13.9393 12.0888 15.351L14.0948 20.179L20.4228 3.90003ZM22.2698 4.58203L15.9418 20.863C15.5418 21.893 14.3908 22.42 13.3708 22.043C13.1222 21.9512 12.8953 21.8091 12.7043 21.6255C12.5133 21.4419 12.3623 21.2208 12.2608 20.976L10.2538 16.146C9.86333 15.2054 9.11563 14.458 8.17476 14.068L3.34676 12.062C2.34276 11.645 1.88476 10.486 2.32376 9.47203C2.43161 9.22417 2.58742 9.00009 2.78221 8.81268C2.977 8.62527 3.20693 8.47823 3.45876 8.38003L19.7398 2.05203C20.0935 1.90989 20.4811 1.87481 20.8546 1.95115C21.228 2.02749 21.5708 2.21188 21.8404 2.48142C22.1099 2.75096 22.2943 3.09376 22.3706 3.46722C22.447 3.84068 22.4119 4.22834 22.2698 4.58203Z" fill="#21272A"/>
</svg>
