<svg width="24" height="24" viewBox="0 0 24 24" fill="none" xmlns="http://www.w3.org/2000/svg">
<path d="M4.00977 4V8H8.00977V4H4.00977ZM4.00977 2H8.00977C8.5402 2 9.04891 2.21071 9.42398 2.58579C9.79905 2.96086 10.0098 3.46957 10.0098 4V8C10.0098 8.53043 9.79905 9.03914 9.42398 9.41421C9.04891 9.78929 8.5402 10 8.00977 10H4.00977C3.47933 10 2.97062 9.78929 2.59555 9.41421C2.22048 9.03914 2.00977 8.53043 2.00977 8V4C2.00977 3.46957 2.22048 2.96086 2.59555 2.58579C2.97062 2.21071 3.47933 2 4.00977 2V2ZM16.0098 2H20.0098C20.5402 2 21.0489 2.21071 21.424 2.58579C21.7991 2.96086 22.0098 3.46957 22.0098 4V8C22.0098 8.53043 21.7991 9.03914 21.424 9.41421C21.0489 9.78929 20.5402 10 20.0098 10H16.0098C15.4793 10 14.9706 9.78929 14.5956 9.41421C14.2205 9.03914 14.0098 8.53043 14.0098 8V4C14.0098 3.46957 14.2205 2.96086 14.5956 2.58579C14.9706 2.21071 15.4793 2 16.0098 2V2ZM16.0098 4V8H20.0098V4H16.0098ZM16.0098 14H20.0098C20.5402 14 21.0489 14.2107 21.424 14.5858C21.7991 14.9609 22.0098 15.4696 22.0098 16V20C22.0098 20.5304 21.7991 21.0391 21.424 21.4142C21.0489 21.7893 20.5402 22 20.0098 22H16.0098C15.4793 22 14.9706 21.7893 14.5956 21.4142C14.2205 21.0391 14.0098 20.5304 14.0098 20V16C14.0098 15.4696 14.2205 14.9609 14.5956 14.5858C14.9706 14.2107 15.4793 14 16.0098 14ZM16.0098 16V20H20.0098V16H16.0098ZM4.00977 14H8.00977C8.5402 14 9.04891 14.2107 9.42398 14.5858C9.79905 14.9609 10.0098 15.4696 10.0098 16V20C10.0098 20.5304 9.79905 21.0391 9.42398 21.4142C9.04891 21.7893 8.5402 22 8.00977 22H4.00977C3.47933 22 2.97062 21.7893 2.59555 21.4142C2.22048 21.0391 2.00977 20.5304 2.00977 20V16C2.00977 15.4696 2.22048 14.9609 2.59555 14.5858C2.97062 14.2107 3.47933 14 4.00977 14ZM4.00977 16V20H8.00977V16H4.00977Z" fill="#21272A"/>
</svg>
