<svg width="24" height="24" viewBox="0 0 24 24" fill="none" xmlns="http://www.w3.org/2000/svg">
<path d="M8.00977 10.2859H12.0268L12.6108 10.8569C13.1583 11.3953 13.8497 11.7641 14.6018 11.9189L15.6978 12.1429L18.0618 18.6379C18.1067 18.7614 18.1755 18.8748 18.2642 18.9716C18.3529 19.0685 18.4599 19.1469 18.5789 19.2025C18.698 19.258 18.8268 19.2895 18.958 19.2953C19.0892 19.301 19.2203 19.2809 19.3438 19.2359C19.4672 19.191 19.5806 19.1222 19.6775 19.0335C19.7743 18.9448 19.8527 18.8378 19.9083 18.7188C19.9638 18.5997 19.9953 18.4709 20.0011 18.3397C20.0068 18.2085 19.9867 18.0774 19.9418 17.9539L17.6088 11.5469L18.4018 10.6549C19.0919 9.87977 19.4537 8.8667 19.4108 7.82973C19.3678 6.79275 18.9235 5.81306 18.1717 5.09758C17.4199 4.3821 16.4194 3.98684 15.3816 3.99531C14.3437 4.00377 13.3498 4.41529 12.6098 5.14294L12.0258 5.71394H8.00977V10.2859ZM6.00977 10.2859V5.71394H4.00977V10.2859H6.00977ZM11.2098 12.2859H4.00977C3.47933 12.2859 2.97062 12.0752 2.59555 11.7002C2.22048 11.3251 2.00977 10.8164 2.00977 10.2859V5.71394C2.00977 5.18351 2.22048 4.6748 2.59555 4.29973C2.97062 3.92466 3.47933 3.71394 4.00977 3.71394H11.2098C12.3202 2.62305 13.8111 2.0064 15.3676 1.9942C16.9242 1.98201 18.4246 2.57523 19.5519 3.6486C20.6793 4.72196 21.3454 6.19145 21.4095 7.74674C21.4737 9.30203 20.9309 10.8214 19.8958 11.9839L21.8208 17.2699C21.9591 17.6409 22.0227 18.0357 22.0077 18.4313C21.9928 18.827 21.8997 19.2158 21.7338 19.5754C21.5679 19.9349 21.3324 20.258 21.041 20.5261C20.7496 20.7942 20.408 21.0019 20.0359 21.1373C19.6638 21.2728 19.2686 21.3332 18.8731 21.3151C18.4775 21.2971 18.0895 21.2009 17.7313 21.0321C17.3731 20.8634 17.0518 20.6253 16.786 20.3318C16.5203 20.0383 16.3152 19.6951 16.1828 19.3219L14.2008 13.8779C13.0716 13.6462 12.0334 13.0934 11.2108 12.2859H11.2098ZM14.0098 6.99994H17.0098C17.275 6.99994 17.5293 7.1053 17.7169 7.29284C17.9044 7.48037 18.0098 7.73473 18.0098 7.99994C18.0098 8.26516 17.9044 8.51951 17.7169 8.70705C17.5293 8.89459 17.275 8.99994 17.0098 8.99994H14.0098C13.7445 8.99994 13.4902 8.89459 13.3027 8.70705C13.1151 8.51951 13.0098 8.26516 13.0098 7.99994C13.0098 7.73473 13.1151 7.48037 13.3027 7.29284C13.4902 7.1053 13.7445 6.99994 14.0098 6.99994Z" fill="#21272A"/>
</svg>
