<svg width="24" height="24" viewBox="0 0 24 24" fill="none" xmlns="http://www.w3.org/2000/svg">
<path d="M4.04577 10.4L6.87377 13.228L13.2378 6.86401L10.4088 4.03601L4.04577 10.399V10.4ZM16.7728 16.056L11.8228 11.106L11.1168 11.814L16.0668 16.764L16.7728 16.056ZM18.1878 17.471L17.4808 18.178L19.2478 19.945C19.3421 20.0361 19.4684 20.0865 19.5995 20.0853C19.7306 20.0842 19.856 20.0316 19.9487 19.9389C20.0414 19.8462 20.094 19.7208 20.0951 19.5897C20.0962 19.4586 20.0458 19.3323 19.9548 19.238L18.1878 17.471ZM7.51977 4.09601L8.99477 2.62001C9.18049 2.43421 9.40101 2.28681 9.64371 2.18625C9.88642 2.08569 10.1466 2.03394 10.4093 2.03394C10.672 2.03394 10.9321 2.08569 11.1748 2.18625C11.4175 2.28681 11.638 2.43421 11.8238 2.62001L14.6518 5.44901C15.0267 5.82406 15.2373 6.33268 15.2373 6.86301C15.2373 7.39334 15.0267 7.90195 14.6518 8.27701L13.2378 9.69101L21.3698 17.823C21.6019 18.0552 21.7861 18.3308 21.9118 18.6342C22.0374 18.9375 22.1021 19.2627 22.1021 19.591C22.1021 19.9194 22.0374 20.2445 21.9118 20.5478C21.7861 20.8512 21.6019 21.1268 21.3698 21.359C21.1376 21.5912 20.862 21.7754 20.5586 21.901C20.2552 22.0267 19.9301 22.0913 19.6018 22.0913C19.2734 22.0913 18.9483 22.0267 18.6449 21.901C18.3416 21.7754 18.0659 21.5912 17.8338 21.359L9.70177 13.227L8.28777 14.641C7.91271 15.016 7.40409 15.2266 6.87377 15.2266C6.34344 15.2266 5.83482 15.016 5.45977 14.641L2.62977 11.814C2.44396 11.6283 2.29657 11.4078 2.19601 11.1651C2.09545 10.9224 2.04369 10.6622 2.04369 10.3995C2.04369 10.1368 2.09545 9.87666 2.19601 9.63396C2.29657 9.39125 2.44396 9.17074 2.62977 8.98501L4.10477 7.51101C3.97089 7.23098 3.92718 6.91633 3.97966 6.61042C4.03214 6.3045 4.17822 6.02241 4.39777 5.80301L5.81277 4.39001C6.03216 4.17046 6.31426 4.02438 6.62017 3.9719C6.92608 3.91943 7.24074 3.96314 7.52077 4.09701L7.51977 4.09601Z" fill="#21272A"/>
</svg>
