<svg width="24" height="24" viewBox="0 0 24 24" fill="none" xmlns="http://www.w3.org/2000/svg">
<path d="M11.0098 11V13H13.0098V11H11.0098ZM11.0098 9H13.0098V6C13.0098 5.73478 13.1151 5.48043 13.3027 5.29289C13.4902 5.10536 13.7445 5 14.0098 5C14.275 5 14.5293 5.10536 14.7169 5.29289C14.9044 5.48043 15.0098 5.73478 15.0098 6V9H18.0098C18.275 9 18.5293 9.10536 18.7169 9.29289C18.9044 9.48043 19.0098 9.73478 19.0098 10C19.0098 10.2652 18.9044 10.5196 18.7169 10.7071C18.5293 10.8946 18.275 11 18.0098 11H15.0098V13H18.0098C18.275 13 18.5293 13.1054 18.7169 13.2929C18.9044 13.4804 19.0098 13.7348 19.0098 14C19.0098 14.2652 18.9044 14.5196 18.7169 14.7071C18.5293 14.8946 18.275 15 18.0098 15H15.0098V18C15.0098 18.2652 14.9044 18.5196 14.7169 18.7071C14.5293 18.8946 14.275 19 14.0098 19C13.7445 19 13.4902 18.8946 13.3027 18.7071C13.1151 18.5196 13.0098 18.2652 13.0098 18V15H11.0098V18C11.0098 18.2652 10.9044 18.5196 10.7169 18.7071C10.5293 18.8946 10.275 19 10.0098 19C9.74455 19 9.4902 18.8946 9.30266 18.7071C9.11512 18.5196 9.00977 18.2652 9.00977 18V15H6.00977C5.74455 15 5.4902 14.8946 5.30266 14.7071C5.11512 14.5196 5.00977 14.2652 5.00977 14C5.00977 13.7348 5.11512 13.4804 5.30266 13.2929C5.4902 13.1054 5.74455 13 6.00977 13H9.00977V11H6.00977C5.74455 11 5.4902 10.8946 5.30266 10.7071C5.11512 10.5196 5.00977 10.2652 5.00977 10C5.00977 9.73478 5.11512 9.48043 5.30266 9.29289C5.4902 9.10536 5.74455 9 6.00977 9H9.00977V6C9.00977 5.73478 9.11512 5.48043 9.30266 5.29289C9.4902 5.10536 9.74455 5 10.0098 5C10.275 5 10.5293 5.10536 10.7169 5.29289C10.9044 5.48043 11.0098 5.73478 11.0098 6V9Z" fill="#21272A"/>
</svg>
