<svg width="24" height="24" viewBox="0 0 24 24" fill="none" xmlns="http://www.w3.org/2000/svg">
<path d="M6.50977 10.5H10.5098V7.5C10.5098 7.23478 10.6151 6.98043 10.8027 6.79289C10.9902 6.60536 11.2445 6.5 11.5098 6.5C11.775 6.5 12.0293 6.60536 12.2169 6.79289C12.4044 6.98043 12.5098 7.23478 12.5098 7.5V15.5C12.5098 15.7652 12.4044 16.0196 12.2169 16.2071C12.0293 16.3946 11.775 16.5 11.5098 16.5C11.2445 16.5 10.9902 16.3946 10.8027 16.2071C10.6151 16.0196 10.5098 15.7652 10.5098 15.5V12.5H6.50977V15.5C6.50977 15.7652 6.40441 16.0196 6.21687 16.2071C6.02934 16.3946 5.77498 16.5 5.50977 16.5C5.24455 16.5 4.9902 16.3946 4.80266 16.2071C4.61512 16.0196 4.50977 15.7652 4.50977 15.5V7.5C4.50977 7.23478 4.61512 6.98043 4.80266 6.79289C4.9902 6.60536 5.24455 6.5 5.50977 6.5C5.77498 6.5 6.02934 6.60536 6.21687 6.79289C6.40441 6.98043 6.50977 7.23478 6.50977 7.5V10.5ZM18.9628 13.013L19.0058 13.068C19.2598 13.402 19.3858 13.796 19.3858 14.24C19.3858 14.877 19.1468 15.427 18.6788 15.868C18.2128 16.307 17.6188 16.526 16.9158 16.526C16.2448 16.526 15.6808 16.317 15.2448 15.899C14.8088 15.481 14.5718 14.916 14.5318 14.223L14.5098 13.853H16.3128L16.3598 14.148C16.3978 14.386 16.4718 14.545 16.5748 14.638C16.6748 14.729 16.8048 14.775 16.9768 14.775C17.0542 14.7788 17.1317 14.7667 17.2043 14.7393C17.2769 14.712 17.3431 14.67 17.3988 14.616C17.4506 14.5675 17.4914 14.5085 17.5187 14.443C17.5459 14.3775 17.5589 14.3069 17.5568 14.236C17.5568 14.073 17.4898 13.941 17.3328 13.817C17.1628 13.683 16.8948 13.607 16.5178 13.602L16.1728 13.598V12.428L16.5178 12.424C16.8948 12.42 17.1638 12.344 17.3328 12.209C17.4898 12.085 17.5568 11.954 17.5568 11.791C17.559 11.7199 17.5461 11.6492 17.5189 11.5834C17.4916 11.5177 17.4507 11.4586 17.3988 11.41C17.3431 11.356 17.2769 11.314 17.2043 11.2867C17.1317 11.2593 17.0542 11.2472 16.9768 11.251C16.83 11.2432 16.6859 11.2927 16.5748 11.389C16.4718 11.481 16.3978 11.64 16.3598 11.878L16.3128 12.173H14.5098L14.5318 11.803C14.5718 11.11 14.8088 10.545 15.2448 10.128C15.6808 9.709 16.2448 9.5 16.9148 9.5C17.6188 9.5 18.2128 9.72 18.6788 10.158C19.1468 10.599 19.3868 11.149 19.3868 11.787C19.3943 12.2329 19.2442 12.6671 18.9628 13.013Z" fill="#21272A"/>
</svg>
