<svg width="24" height="24" viewBox="0 0 24 24" fill="none" xmlns="http://www.w3.org/2000/svg">
<path d="M6.50977 11H10.5098V8C10.5098 7.73478 10.6151 7.48043 10.8027 7.29289C10.9902 7.10536 11.2445 7 11.5098 7C11.775 7 12.0293 7.10536 12.2169 7.29289C12.4044 7.48043 12.5098 7.73478 12.5098 8V16C12.5098 16.2652 12.4044 16.5196 12.2169 16.7071C12.0293 16.8946 11.775 17 11.5098 17C11.2445 17 10.9902 16.8946 10.8027 16.7071C10.6151 16.5196 10.5098 16.2652 10.5098 16V13H6.50977V16C6.50977 16.2652 6.40441 16.5196 6.21687 16.7071C6.02934 16.8946 5.77498 17 5.50977 17C5.24455 17 4.9902 16.8946 4.80266 16.7071C4.61512 16.5196 4.50977 16.2652 4.50977 16V8C4.50977 7.73478 4.61512 7.48043 4.80266 7.29289C4.9902 7.10536 5.24455 7 5.50977 7C5.77498 7 6.02934 7.10536 6.21687 7.29289C6.40441 7.48043 6.50977 7.73478 6.50977 8V11ZM18.4588 13.057C18.8888 13.497 19.1098 14.056 19.1098 14.697C19.1098 15.326 18.8818 15.877 18.4398 16.317C17.9978 16.754 17.4498 16.98 16.8268 16.98C16.5188 16.9857 16.2131 16.9269 15.9291 16.8076C15.6451 16.6883 15.3892 16.511 15.1778 16.287C14.7478 15.837 14.5258 15.302 14.5258 14.707C14.5258 14.483 14.5598 14.258 14.6258 14.035C14.6888 13.824 15.2898 12.408 15.4628 12.069C15.7138 11.578 16.1128 10.865 16.6598 9.932L18.4398 10.584L17.5228 12.464C17.7718 12.577 18.2558 12.85 18.4588 13.057ZM16.8288 13.822C16.7154 13.8209 16.6029 13.8425 16.498 13.8856C16.3931 13.9286 16.2978 13.9922 16.2179 14.0727C16.1379 14.1531 16.0749 14.2487 16.0324 14.3539C15.99 14.459 15.969 14.5716 15.9708 14.685C15.9696 14.7988 15.9913 14.9118 16.0346 15.0171C16.0778 15.1224 16.1418 15.2179 16.2228 15.298C16.3437 15.4203 16.4983 15.5037 16.6669 15.5377C16.8355 15.5717 17.0104 15.5546 17.1692 15.4887C17.3281 15.4228 17.4637 15.3111 17.5587 15.1677C17.6538 15.0244 17.7039 14.856 17.7028 14.684C17.7043 14.5706 17.6829 14.458 17.64 14.353C17.597 14.2481 17.5334 14.1528 17.4528 14.073C17.3709 13.9918 17.2736 13.9277 17.1666 13.8846C17.0596 13.8415 16.9451 13.8202 16.8298 13.822H16.8288Z" fill="#21272A"/>
</svg>
