<svg width="24" height="24" viewBox="0 0 24 24" fill="none" xmlns="http://www.w3.org/2000/svg">
<path d="M10.0098 11H14.0098V8C14.0098 7.73478 14.1151 7.48043 14.3027 7.29289C14.4902 7.10536 14.7445 7 15.0098 7C15.275 7 15.5293 7.10536 15.7169 7.29289C15.9044 7.48043 16.0098 7.73478 16.0098 8V16C16.0098 16.2652 15.9044 16.5196 15.7169 16.7071C15.5293 16.8946 15.275 17 15.0098 17C14.7445 17 14.4902 16.8946 14.3027 16.7071C14.1151 16.5196 14.0098 16.2652 14.0098 16V13H10.0098V16C10.0098 16.2652 9.90441 16.5196 9.71687 16.7071C9.52934 16.8946 9.27498 17 9.00977 17C8.74455 17 8.4902 16.8946 8.30266 16.7071C8.11512 16.5196 8.00977 16.2652 8.00977 16V8C8.00977 7.73478 8.11512 7.48043 8.30266 7.29289C8.4902 7.10536 8.74455 7 9.00977 7C9.27498 7 9.52934 7.10536 9.71687 7.29289C9.90441 7.48043 10.0098 7.73478 10.0098 8V11Z" fill="#21272A"/>
</svg>
