<svg width="24" height="24" viewBox="0 0 24 24" fill="none" xmlns="http://www.w3.org/2000/svg">
<path d="M6.00977 10.5H10.0098V7.5C10.0098 7.23478 10.1151 6.98043 10.3027 6.79289C10.4902 6.60536 10.7445 6.5 11.0098 6.5C11.275 6.5 11.5293 6.60536 11.7169 6.79289C11.9044 6.98043 12.0098 7.23478 12.0098 7.5V15.5C12.0098 15.7652 11.9044 16.0196 11.7169 16.2071C11.5293 16.3946 11.275 16.5 11.0098 16.5C10.7445 16.5 10.4902 16.3946 10.3027 16.2071C10.1151 16.0196 10.0098 15.7652 10.0098 15.5V12.5H6.00977V15.5C6.00977 15.7652 5.90441 16.0196 5.71687 16.2071C5.52934 16.3946 5.27498 16.5 5.00977 16.5C4.74455 16.5 4.4902 16.3946 4.30266 16.2071C4.11512 16.0196 4.00977 15.7652 4.00977 15.5V7.5C4.00977 7.23478 4.11512 6.98043 4.30266 6.79289C4.4902 6.60536 4.74455 6.5 5.00977 6.5C5.27498 6.5 5.52934 6.60536 5.71687 6.79289C5.90441 6.98043 6.00977 7.23478 6.00977 7.5V10.5ZM14.0128 14.817H16.6928C17.0788 14.817 17.3918 14.53 17.3918 14.175C17.3918 13.82 17.0788 13.533 16.6938 13.533H14.0198L14.0218 13.289L14.0098 9.5H19.0958V11.388H15.9518L15.9658 12.005H17.0798C18.4348 12.005 19.5488 12.989 19.6028 14.235C19.6548 15.445 18.6308 16.466 17.3148 16.515L17.2198 16.516L14.0098 16.496V15.23L14.0128 14.816V14.817Z" fill="#21272A"/>
</svg>
