<svg width="24" height="24" viewBox="0 0 24 24" fill="none" xmlns="http://www.w3.org/2000/svg">
<path d="M7.00977 11H11.0098V8C11.0098 7.73478 11.1151 7.48043 11.3027 7.29289C11.4902 7.10536 11.7445 7 12.0098 7C12.275 7 12.5293 7.10536 12.7169 7.29289C12.9044 7.48043 13.0098 7.73478 13.0098 8V16C13.0098 16.2652 12.9044 16.5196 12.7169 16.7071C12.5293 16.8946 12.275 17 12.0098 17C11.7445 17 11.4902 16.8946 11.3027 16.7071C11.1151 16.5196 11.0098 16.2652 11.0098 16V13H7.00977V16C7.00977 16.2652 6.90441 16.5196 6.71687 16.7071C6.52934 16.8946 6.27498 17 6.00977 17C5.74455 17 5.4902 16.8946 5.30266 16.7071C5.11512 16.5196 5.00977 16.2652 5.00977 16V8C5.00977 7.73478 5.11512 7.48043 5.30266 7.29289C5.4902 7.10536 5.74455 7 6.00977 7C6.27498 7 6.52934 7.10536 6.71687 7.29289C6.90441 7.48043 7.00977 7.73478 7.00977 8V11ZM16.5298 11.779H15.0098V10H18.3698V17H16.5298V11.779Z" fill="#21272A"/>
</svg>
