<svg width="24" height="24" viewBox="0 0 24 24" fill="none" xmlns="http://www.w3.org/2000/svg">
<path d="M4.00977 18.59C4.00977 18.8552 3.90441 19.1096 3.71687 19.2971C3.52934 19.4846 3.27498 19.59 3.00977 19.59C2.74455 19.59 2.4902 19.4846 2.30266 19.2971C2.11512 19.1096 2.00977 18.8552 2.00977 18.59V12.5C2.00977 6.977 6.48677 2.5 12.0098 2.5C17.5328 2.5 22.0098 6.977 22.0098 12.5V15.586C22.0098 15.8512 21.9044 16.1056 21.7169 16.2931C21.5293 16.4806 21.275 16.586 21.0098 16.586C20.7445 16.586 20.4902 16.4806 20.3027 16.2931C20.1151 16.1056 20.0098 15.8512 20.0098 15.586V12.5C20.0098 10.3783 19.1669 8.34344 17.6666 6.84315C16.1663 5.34285 14.1315 4.5 12.0098 4.5C9.88803 4.5 7.8532 5.34285 6.35291 6.84315C4.85262 8.34344 4.00977 10.3783 4.00977 12.5V18.59ZM4.00977 12.5H6.00977C6.5402 12.5 7.04891 12.7107 7.42398 13.0858C7.79905 13.4609 8.00977 13.9696 8.00977 14.5V19.5C8.00977 20.0304 7.79905 20.5391 7.42398 20.9142C7.04891 21.2893 6.5402 21.5 6.00977 21.5H4.00977C3.47933 21.5 2.97062 21.2893 2.59555 20.9142C2.22048 20.5391 2.00977 20.0304 2.00977 19.5V14.5C2.00977 13.9696 2.22048 13.4609 2.59555 13.0858C2.97062 12.7107 3.47933 12.5 4.00977 12.5ZM4.00977 14.5V19.5H6.00977V14.5H4.00977ZM18.0098 12.5H20.0098C20.5402 12.5 21.0489 12.7107 21.424 13.0858C21.7991 13.4609 22.0098 13.9696 22.0098 14.5V19.5C22.0098 20.0304 21.7991 20.5391 21.424 20.9142C21.0489 21.2893 20.5402 21.5 20.0098 21.5H18.0098C17.4793 21.5 16.9706 21.2893 16.5956 20.9142C16.2205 20.5391 16.0098 20.0304 16.0098 19.5V14.5C16.0098 13.9696 16.2205 13.4609 16.5956 13.0858C16.9706 12.7107 17.4793 12.5 18.0098 12.5ZM18.0098 14.5V19.5H20.0098V14.5H18.0098Z" fill="#21272A"/>
</svg>
