<svg width="24" height="24" viewBox="0 0 24 24" fill="none" xmlns="http://www.w3.org/2000/svg">
<path d="M6.50977 11H10.5098V8C10.5098 7.73478 10.6151 7.48043 10.8027 7.29289C10.9902 7.10536 11.2445 7 11.5098 7C11.775 7 12.0293 7.10536 12.2169 7.29289C12.4044 7.48043 12.5098 7.73478 12.5098 8V16C12.5098 16.2652 12.4044 16.5196 12.2169 16.7071C12.0293 16.8946 11.775 17 11.5098 17C11.2445 17 10.9902 16.8946 10.8027 16.7071C10.6151 16.5196 10.5098 16.2652 10.5098 16V13H6.50977V16C6.50977 16.2652 6.40441 16.5196 6.21687 16.7071C6.02934 16.8946 5.77498 17 5.50977 17C5.24455 17 4.9902 16.8946 4.80266 16.7071C4.61512 16.5196 4.50977 16.2652 4.50977 16V8C4.50977 7.73478 4.61512 7.48043 4.80266 7.29289C4.9902 7.10536 5.24455 7 5.50977 7C5.77498 7 6.02934 7.10536 6.21687 7.29289C6.40441 7.48043 6.50977 7.73478 6.50977 8V11ZM19.3898 15.352V17H14.5098V15.986L14.6098 15.74L16.3948 13.827C16.8248 13.392 17.1878 13.057 17.3178 12.816C17.4418 12.586 17.4998 12.389 17.4998 12.229C17.4998 12.089 17.4598 11.987 17.3728 11.902C17.3261 11.8579 17.2708 11.8239 17.2104 11.8021C17.1501 11.7802 17.0858 11.771 17.0218 11.775C16.9545 11.7726 16.8875 11.7856 16.826 11.813C16.7645 11.8404 16.71 11.8814 16.6668 11.933C16.5618 12.05 16.5018 12.221 16.4938 12.458L16.4818 12.796H14.6578L14.6738 12.43C14.7078 11.695 14.9458 11.1 15.3918 10.66C15.8378 10.22 16.4118 10 17.0948 10C17.5188 10 17.8998 10.091 18.2348 10.275C18.5718 10.4626 18.8507 10.7394 19.0408 11.075C19.2388 11.418 19.3408 11.775 19.3408 12.138C19.3408 12.554 19.1108 12.987 18.8848 13.445C18.6628 13.895 18.3508 14.321 17.8208 15L17.7048 15.123L17.4508 15.352H19.3888H19.3898Z" fill="#21272A"/>
</svg>
