<svg width="24" height="24" viewBox="0 0 24 24" fill="none" xmlns="http://www.w3.org/2000/svg">
<path d="M6.50977 11H10.5098V8C10.5098 7.73478 10.6151 7.48043 10.8027 7.29289C10.9902 7.10536 11.2445 7 11.5098 7C11.775 7 12.0293 7.10536 12.2169 7.29289C12.4044 7.48043 12.5098 7.73478 12.5098 8V16C12.5098 16.2652 12.4044 16.5196 12.2169 16.7071C12.0293 16.8946 11.775 17 11.5098 17C11.2445 17 10.9902 16.8946 10.8027 16.7071C10.6151 16.5196 10.5098 16.2652 10.5098 16V13H6.50977V16C6.50977 16.2652 6.40441 16.5196 6.21687 16.7071C6.02934 16.8946 5.77498 17 5.50977 17C5.24455 17 4.9902 16.8946 4.80266 16.7071C4.61512 16.5196 4.50977 16.2652 4.50977 16V8C4.50977 7.73478 4.61512 7.48043 4.80266 7.29289C4.9902 7.10536 5.24455 7 5.50977 7C5.77498 7 6.02934 7.10536 6.21687 7.29289C6.40441 7.48043 6.50977 7.73478 6.50977 8V11ZM17.1458 15.74H14.5098V14.302L14.5698 14.104L17.2838 9.994H18.9708V13.946H19.5088V15.74H18.9708V17H17.1458V15.74ZM17.2998 14.457V12.774L16.1998 14.457H17.2998Z" fill="#21272A"/>
</svg>
