<svg width="24" height="24" viewBox="0 0 24 24" fill="none" xmlns="http://www.w3.org/2000/svg">
<path d="M5.64577 11.208L12.0098 17.572L18.3738 11.208C18.9364 10.6453 19.2525 9.8822 19.2525 9.08649C19.2525 8.29077 18.9364 7.52764 18.3738 6.96499C18.0952 6.68639 17.7644 6.46539 17.4004 6.31461C17.0364 6.16384 16.6463 6.08623 16.2523 6.08623C15.4566 6.08623 14.6934 6.40233 14.1308 6.96499L12.0098 9.08599L9.88877 6.96599C9.32468 6.41088 8.56409 6.10116 7.77268 6.10429C6.98127 6.10742 6.22315 6.42314 5.66347 6.98269C5.10379 7.54224 4.78788 8.30028 4.78457 9.0917C4.78125 9.88311 5.09079 10.6438 5.64577 11.208ZM11.3028 5.54999L12.0098 6.25699L12.7168 5.54999C13.1803 5.08236 13.7317 4.71089 14.3392 4.45692C14.9467 4.20294 15.5984 4.07146 16.2568 4.07002C16.9153 4.06857 17.5675 4.1972 18.1761 4.44851C18.7847 4.69983 19.3377 5.06887 19.8033 5.53447C20.2689 6.00007 20.6379 6.55304 20.8892 7.16165C21.1406 7.77025 21.2692 8.4225 21.2677 9.08095C21.2663 9.7394 21.1348 10.3911 20.8808 10.9986C20.6269 11.6061 20.2554 12.1574 19.7878 12.621L12.7178 19.692C12.6249 19.785 12.5146 19.8587 12.3932 19.909C12.2718 19.9594 12.1417 19.9853 12.0103 19.9853C11.8789 19.9853 11.7487 19.9594 11.6273 19.909C11.5059 19.8587 11.3956 19.785 11.3028 19.692L4.23177 12.622C3.75778 12.1599 3.38026 11.6083 3.1211 10.9992C2.86194 10.3901 2.72631 9.73565 2.72206 9.07372C2.71782 8.41179 2.84506 7.75561 3.09639 7.14324C3.34772 6.53087 3.71815 5.9745 4.18618 5.5064C4.65421 5.03831 5.21053 4.6678 5.82286 4.41638C6.4352 4.16497 7.09136 4.03764 7.75329 4.04179C8.41522 4.04593 9.06974 4.18147 9.67887 4.44055C10.288 4.69962 10.8396 5.07706 11.3018 5.55099L11.3028 5.54999Z" fill="#21272A"/>
</svg>
