<svg width="24" height="24" viewBox="0 0 24 24" fill="none" xmlns="http://www.w3.org/2000/svg">
<path d="M17.0098 20H19.0098C19.275 20 19.5293 19.8946 19.7169 19.7071C19.9044 19.5196 20.0098 19.2652 20.0098 19V17H17.0098V20ZM15.0098 12C14.2141 12 13.4511 12.3161 12.8884 12.8787C12.3258 13.4413 12.0098 14.2044 12.0098 15H15.0098V12ZM17.0098 12V15H22.0098V19C22.0098 19.7956 21.6937 20.5587 21.1311 21.1213C20.5685 21.6839 19.8054 22 19.0098 22H15.0098V17H12.0098V22C11.5628 21.989 11.2298 21.972 11.0098 21.95C5.95677 21.45 2.00977 17.186 2.00977 12C2.00977 6.477 6.48677 2 12.0098 2C17.1878 2 21.4468 5.936 21.9588 10.98C21.9808 11.203 21.9988 11.543 22.0098 12H17.0098ZM10.0098 15C10.0098 13.6739 10.5365 12.4021 11.4742 11.4645C12.4119 10.5268 13.6837 10 15.0098 10H19.7588C19.3143 8.28276 18.3121 6.76175 16.9096 5.67577C15.5071 4.5898 13.7836 4.00036 12.0098 4C9.88803 4 7.8532 4.84285 6.35291 6.34315C4.85262 7.84344 4.00977 9.87827 4.00977 12C4.01012 13.7738 4.59956 15.4973 5.68554 16.8998C6.77151 18.3024 8.29253 19.3045 10.0098 19.749V15ZM8.00977 12C7.47933 12 6.97062 11.7893 6.59555 11.4142C6.22048 11.0391 6.00977 10.5304 6.00977 10C6.00977 9.46957 6.22048 8.96086 6.59555 8.58579C6.97062 8.21071 7.47933 8 8.00977 8C8.5402 8 9.04891 8.21071 9.42398 8.58579C9.79905 8.96086 10.0098 9.46957 10.0098 10C10.0098 10.5304 9.79905 11.0391 9.42398 11.4142C9.04891 11.7893 8.5402 12 8.00977 12Z" fill="#21272A"/>
</svg>
