<svg width="24" height="24" viewBox="0 0 24 24" fill="none" xmlns="http://www.w3.org/2000/svg">
<path d="M12.0098 22C6.48677 22 2.00977 17.523 2.00977 12C2.00977 6.477 6.48677 2 12.0098 2C17.5328 2 22.0098 6.477 22.0098 12C22.0098 17.523 17.5328 22 12.0098 22ZM12.0098 20C14.1315 20 16.1663 19.1571 17.6666 17.6569C19.1669 16.1566 20.0098 14.1217 20.0098 12C20.0098 9.87827 19.1669 7.84344 17.6666 6.34315C16.1663 4.84285 14.1315 4 12.0098 4C9.88803 4 7.8532 4.84285 6.35291 6.34315C4.85262 7.84344 4.00977 9.87827 4.00977 12C4.00977 14.1217 4.85262 16.1566 6.35291 17.6569C7.8532 19.1571 9.88803 20 12.0098 20ZM12.0098 17C11.7445 17 11.4902 16.8946 11.3027 16.7071C11.1151 16.5196 11.0098 16.2652 11.0098 16C11.0098 15.7348 11.1151 15.4804 11.3027 15.2929C11.4902 15.1054 11.7445 15 12.0098 15C12.275 15 12.5293 15.1054 12.7169 15.2929C12.9044 15.4804 13.0098 15.7348 13.0098 16C13.0098 16.2652 12.9044 16.5196 12.7169 16.7071C12.5293 16.8946 12.275 17 12.0098 17ZM13.2858 13.782C13.0768 13.9454 12.8114 14.019 12.5481 13.9868C12.2848 13.9545 12.0451 13.819 11.8818 13.61C11.7184 13.401 11.6447 13.1357 11.677 12.8724C11.7092 12.6091 11.8448 12.3694 12.0538 12.206L12.4478 11.898C12.6037 11.777 12.7342 11.6264 12.8318 11.4548C12.9295 11.2832 12.9923 11.0941 13.0166 10.8982C13.041 10.7023 13.0265 10.5036 12.9739 10.3133C12.9213 10.123 12.8316 9.94504 12.7101 9.78949C12.5886 9.63395 12.4375 9.50392 12.2657 9.40686C12.0938 9.3098 11.9044 9.24762 11.7085 9.22388C11.5125 9.20015 11.3138 9.21532 11.1237 9.26854C10.9336 9.32176 10.7559 9.41197 10.6008 9.534L10.2068 9.842C10.1037 9.92729 9.98466 9.99106 9.85656 10.0295C9.72846 10.068 9.59394 10.0803 9.46098 10.0659C9.32801 10.0514 9.1993 10.0104 9.08245 9.94537C8.96561 9.88029 8.863 9.79243 8.78071 9.68699C8.69842 9.58155 8.63812 9.46068 8.60337 9.33152C8.56863 9.20237 8.56014 9.06755 8.57842 8.93506C8.5967 8.80257 8.64138 8.67509 8.7098 8.56017C8.77822 8.44524 8.869 8.34522 8.97677 8.266L9.36977 7.958C10.1012 7.38646 11.0298 7.1289 11.9512 7.24198C12.8725 7.35507 13.7112 7.82953 14.2828 8.561C14.8543 9.29247 15.1119 10.221 14.9988 11.1424C14.8857 12.0638 14.4112 12.9025 13.6798 13.474L13.2858 13.782Z" fill="#21272A"/>
</svg>
