<svg width="24" height="24" viewBox="0 0 24 24" fill="none" xmlns="http://www.w3.org/2000/svg">
<path d="M8.54777 12.06L7.51277 15.267L9.28877 17.042L12.4538 15.965L8.54777 12.059V12.06ZM9.78777 10.47L14.0298 14.713L20.3938 8.34897C20.5796 8.16324 20.727 7.94273 20.8275 7.70002C20.9281 7.45732 20.9798 7.19718 20.9798 6.93447C20.9798 6.67176 20.9281 6.41162 20.8275 6.16892C20.727 5.92621 20.5796 5.7057 20.3938 5.51997L18.9798 4.10597C18.794 3.92017 18.5735 3.77278 18.3308 3.67222C18.0881 3.57166 17.828 3.5199 17.5653 3.5199C17.3026 3.5199 17.0424 3.57166 16.7997 3.67222C16.557 3.77278 16.3365 3.92017 16.1508 4.10597L9.78677 10.47H9.78777ZM6.28477 16.87L4.38977 18.765L6.04277 19.916L7.68677 18.272L6.28477 16.87ZM20.3938 2.69197L21.8078 4.10597C22.1792 4.47741 22.4739 4.91837 22.6749 5.40369C22.8759 5.889 22.9794 6.40917 22.9794 6.93447C22.9794 7.45978 22.8759 7.97994 22.6749 8.46525C22.4739 8.95057 22.1792 9.39153 21.8078 9.76297L14.0298 17.541L9.80977 18.978L6.27377 22.513L1.28777 19.04L5.57877 14.748L6.95977 10.47L14.7378 2.69197C15.1092 2.32051 15.5502 2.02586 16.0355 1.82483C16.5208 1.62379 17.041 1.52032 17.5663 1.52032C18.0916 1.52032 18.6117 1.62379 19.097 1.82483C19.5824 2.02586 20.0233 2.32051 20.3948 2.69197H20.3938Z" fill="#21272A"/>
</svg>
