<svg width="24" height="24" viewBox="0 0 24 24" fill="none" xmlns="http://www.w3.org/2000/svg">
<path d="M14.1158 11H18.0688C18.6148 11 19.0568 11.448 19.0568 12C19.0568 12.552 18.6148 13 18.0688 13H13.1278C12.9972 12.9992 12.8681 12.9727 12.7478 12.922C12.6275 12.8714 12.5184 12.7975 12.4267 12.7046C12.3349 12.6118 12.2624 12.5017 12.2131 12.3808C12.1639 12.2599 12.139 12.1305 12.1398 12V6C12.1398 5.448 12.5818 5 13.1278 5C13.6738 5 14.1158 5.448 14.1158 6V11ZM20.1158 4.929C21.9756 6.81183 23.0159 9.35348 23.0098 12C23.0098 17.523 18.5858 22 13.1278 22V20C17.4938 20 21.0338 16.418 21.0338 12C21.0388 9.88253 20.2063 7.84899 18.7178 6.343C17.9883 5.60074 17.1183 5.01126 16.1585 4.60898C15.1988 4.20669 14.1684 3.99967 13.1278 4C9.58377 4 6.58377 6.36 5.58077 9.612L6.93277 8.689C7.04024 8.61562 7.16125 8.56436 7.28873 8.53821C7.41621 8.51205 7.54762 8.51153 7.67531 8.53665C7.803 8.56178 7.92441 8.61206 8.03248 8.68457C8.14055 8.75708 8.2331 8.85037 8.30477 8.959C8.45144 9.17907 8.50566 9.44801 8.4557 9.70772C8.40574 9.96742 8.25562 10.1971 8.03777 10.347L4.76076 12.584C4.65329 12.6574 4.53228 12.7086 4.4048 12.7348C4.27732 12.7609 4.14591 12.7615 4.01822 12.7363C3.89053 12.7112 3.76912 12.6609 3.66105 12.5884C3.55298 12.5159 3.46043 12.4226 3.38876 12.314L1.17976 8.998C1.03277 8.77785 0.978378 8.50868 1.02835 8.24873C1.07832 7.98878 1.22863 7.75896 1.44676 7.609C1.55424 7.53562 1.67525 7.48436 1.80273 7.45821C1.93021 7.43205 2.06162 7.43153 2.18931 7.45665C2.317 7.48178 2.43841 7.53206 2.54648 7.60457C2.65455 7.67708 2.7471 7.77037 2.81876 7.879L3.65776 9.138C4.87277 5.01 8.65276 2 13.1278 2C15.8568 2 18.3278 3.12 20.1158 4.929Z" fill="#21272A"/>
</svg>
