<svg width="24" height="24" viewBox="0 0 24 24" fill="none" xmlns="http://www.w3.org/2000/svg">
<path d="M20.0098 20V9.13199L12.0098 4.33199L4.00977 9.13199V20H8.00977V17.25C8.00977 16.1891 8.43119 15.1717 9.18134 14.4216C9.93148 13.6714 10.9489 13.25 12.0098 13.25C13.0706 13.25 14.088 13.6714 14.8382 14.4216C15.5883 15.1717 16.0098 16.1891 16.0098 17.25V20H20.0098ZM14.0098 22V17.25C14.0098 16.7196 13.7991 16.2108 13.424 15.8358C13.0489 15.4607 12.5402 15.25 12.0098 15.25C11.4793 15.25 10.9706 15.4607 10.5956 15.8358C10.2205 16.2108 10.0098 16.7196 10.0098 17.25V22H4.00977C3.47933 22 2.97062 21.7893 2.59555 21.4142C2.22048 21.0391 2.00977 20.5304 2.00977 20V9.13199C2.00976 8.78662 2.0992 8.44713 2.26936 8.14659C2.43952 7.84604 2.68461 7.59468 2.98077 7.41699L10.9808 2.61699C11.2916 2.43049 11.6473 2.33197 12.0098 2.33197C12.3723 2.33197 12.7279 2.43049 13.0388 2.61699L21.0388 7.41699C21.3349 7.59468 21.58 7.84604 21.7502 8.14659C21.9203 8.44713 22.0098 8.78662 22.0098 9.13199V20C22.0098 20.5304 21.7991 21.0391 21.424 21.4142C21.0489 21.7893 20.5402 22 20.0098 22H14.0098Z" fill="#21272A"/>
</svg>
