<svg width="24" height="24" viewBox="0 0 24 24" fill="none" xmlns="http://www.w3.org/2000/svg">
<path d="M9.00977 4V8C9.00977 8.79565 9.32584 9.55871 9.88845 10.1213C10.4511 10.6839 11.2141 11 12.0098 11C12.8054 11 13.5685 10.6839 14.1311 10.1213C14.6937 9.55871 15.0098 8.79565 15.0098 8V4H9.00977ZM17.0098 20C17.275 20 17.5293 20.1054 17.7169 20.2929C17.9044 20.4804 18.0098 20.7348 18.0098 21C18.0098 21.2652 17.9044 21.5196 17.7169 21.7071C17.5293 21.8946 17.275 22 17.0098 22H7.00977C6.74455 22 6.4902 21.8946 6.30266 21.7071C6.11512 21.5196 6.00977 21.2652 6.00977 21C6.00977 20.7348 6.11512 20.4804 6.30266 20.2929C6.4902 20.1054 6.74455 20 7.00977 20V16C7.00899 15.2236 7.18937 14.4578 7.53657 13.7634C7.88377 13.069 8.38821 12.4652 9.00977 12C8.38832 11.5347 7.88397 10.9309 7.53678 10.2365C7.1896 9.54212 7.00914 8.77633 7.00977 8V4C6.74455 4 6.4902 3.89464 6.30266 3.70711C6.11512 3.51957 6.00977 3.26522 6.00977 3C6.00977 2.73478 6.11512 2.48043 6.30266 2.29289C6.4902 2.10536 6.74455 2 7.00977 2H17.0098C17.275 2 17.5293 2.10536 17.7169 2.29289C17.9044 2.48043 18.0098 2.73478 18.0098 3C18.0098 3.26522 17.9044 3.51957 17.7169 3.70711C17.5293 3.89464 17.275 4 17.0098 4V8C17.0104 8.77633 16.8299 9.54212 16.4827 10.2365C16.1356 10.9309 15.6312 11.5347 15.0098 12C15.6313 12.4652 16.1358 13.069 16.483 13.7634C16.8302 14.4578 17.0105 15.2236 17.0098 16V20ZM15.0098 20V16C15.0098 15.2044 14.6937 14.4413 14.1311 13.8787C13.5685 13.3161 12.8054 13 12.0098 13C11.2141 13 10.4511 13.3161 9.88845 13.8787C9.32584 14.4413 9.00977 15.2044 9.00977 16V20H15.0098Z" fill="#21272A"/>
</svg>
