<svg width="24" height="24" viewBox="0 0 24 24" fill="none" xmlns="http://www.w3.org/2000/svg">
<path d="M12.0098 4C11.2141 4 10.4511 4.31607 9.88845 4.87868C9.32584 5.44129 9.00977 6.20435 9.00977 7V13C9.00977 13.2652 9.11512 13.5196 9.30266 13.7071C9.4902 13.8946 9.74455 14 10.0098 14H14.0098C14.275 14 14.5293 13.8946 14.7169 13.7071C14.9044 13.5196 15.0098 13.2652 15.0098 13V7C15.0098 6.20435 14.6937 5.44129 14.1311 4.87868C13.5685 4.31607 12.8054 4 12.0098 4ZM13.0098 16V21C13.0098 21.2652 12.9044 21.5196 12.7169 21.7071C12.5293 21.8946 12.275 22 12.0098 22C11.7445 22 11.4902 21.8946 11.3027 21.7071C11.1151 21.5196 11.0098 21.2652 11.0098 21V16H10.0098C9.21412 16 8.45105 15.6839 7.88845 15.1213C7.32584 14.5587 7.00977 13.7956 7.00977 13V7C7.00977 5.67392 7.53655 4.40215 8.47423 3.46447C9.41191 2.52678 10.6837 2 12.0098 2C13.3358 2 14.6076 2.52678 15.5453 3.46447C16.483 4.40215 17.0098 5.67392 17.0098 7V13C17.0098 13.7956 16.6937 14.5587 16.1311 15.1213C15.5685 15.6839 14.8054 16 14.0098 16H13.0098Z" fill="#21272A"/>
</svg>
