<svg width="24" height="24" viewBox="0 0 24 24" fill="none" xmlns="http://www.w3.org/2000/svg">
<path d="M4.00977 5H20.0098C20.5402 5 21.0489 5.21071 21.424 5.58579C21.7991 5.96086 22.0098 6.46957 22.0098 7V17C22.0098 17.5304 21.7991 18.0391 21.424 18.4142C21.0489 18.7893 20.5402 19 20.0098 19H4.00977C3.47933 19 2.97062 18.7893 2.59555 18.4142C2.22048 18.0391 2.00977 17.5304 2.00977 17V7C2.00977 6.46957 2.22048 5.96086 2.59555 5.58579C2.97062 5.21071 3.47933 5 4.00977 5V5ZM4.00977 7V17H20.0098V7H4.00977ZM13.0098 9H18.0098C18.275 9 18.5293 9.10536 18.7169 9.29289C18.9044 9.48043 19.0098 9.73478 19.0098 10C19.0098 10.2652 18.9044 10.5196 18.7169 10.7071C18.5293 10.8946 18.275 11 18.0098 11H13.0098C12.7445 11 12.4902 10.8946 12.3027 10.7071C12.1151 10.5196 12.0098 10.2652 12.0098 10C12.0098 9.73478 12.1151 9.48043 12.3027 9.29289C12.4902 9.10536 12.7445 9 13.0098 9ZM13.0098 12H18.0098C18.275 12 18.5293 12.1054 18.7169 12.2929C18.9044 12.4804 19.0098 12.7348 19.0098 13C19.0098 13.2652 18.9044 13.5196 18.7169 13.7071C18.5293 13.8946 18.275 14 18.0098 14H13.0098C12.7445 14 12.4902 13.8946 12.3027 13.7071C12.1151 13.5196 12.0098 13.2652 12.0098 13C12.0098 12.7348 12.1151 12.4804 12.3027 12.2929C12.4902 12.1054 12.7445 12 13.0098 12ZM6.00977 9H9.00977C9.27498 9 9.52934 9.10536 9.71687 9.29289C9.90441 9.48043 10.0098 9.73478 10.0098 10V13C10.0098 13.2652 9.90441 13.5196 9.71687 13.7071C9.52934 13.8946 9.27498 14 9.00977 14H6.00977C5.74455 14 5.4902 13.8946 5.30266 13.7071C5.11512 13.5196 5.00977 13.2652 5.00977 13V10C5.00977 9.73478 5.11512 9.48043 5.30266 9.29289C5.4902 9.10536 5.74455 9 6.00977 9Z" fill="#21272A"/>
</svg>
