<svg width="24" height="24" viewBox="0 0 24 24" fill="none" xmlns="http://www.w3.org/2000/svg">
<path d="M4.00977 6.961V20H20.0098V6.961L16.3078 4H7.71177L4.00977 6.961ZM2.00977 6L7.00977 2H17.0098L22.0098 6V20C22.0098 20.5304 21.7991 21.0391 21.424 21.4142C21.0489 21.7893 20.5402 22 20.0098 22H4.00977C3.47933 22 2.97062 21.7893 2.59555 21.4142C2.22048 21.0391 2.00977 20.5304 2.00977 20V6ZM15.8838 8C15.6613 8.85824 15.1602 9.61832 14.459 10.1609C13.7579 10.7035 12.8964 10.9979 12.0098 10.9979C11.1232 10.9979 10.2617 10.7035 9.5605 10.1609C8.85934 9.61832 8.3582 8.85824 8.13577 8H4.00977V6H20.0098V8H15.8838ZM13.7418 8H10.2778C10.4533 8.30401 10.7058 8.55647 11.0098 8.73199C11.3138 8.90751 11.6587 8.99991 12.0098 8.99991C12.3608 8.99991 12.7057 8.90751 13.0097 8.73199C13.3137 8.55647 13.5662 8.30401 13.7418 8ZM15.8838 15C15.6613 15.8582 15.1602 16.6183 14.459 17.1609C13.7579 17.7035 12.8964 17.9979 12.0098 17.9979C11.1232 17.9979 10.2617 17.7035 9.5605 17.1609C8.85934 16.6183 8.3582 15.8582 8.13577 15H4.00977V13H20.0098V15H15.8838ZM13.7418 15H10.2778C10.4533 15.304 10.7058 15.5565 11.0098 15.732C11.3138 15.9075 11.6587 15.9999 12.0098 15.9999C12.3608 15.9999 12.7057 15.9075 13.0097 15.732C13.3137 15.5565 13.5662 15.304 13.7418 15Z" fill="#21272A"/>
</svg>
