<svg width="24" height="24" viewBox="0 0 24 24" fill="none" xmlns="http://www.w3.org/2000/svg">
<path d="M4.00977 10.702V17H20.0098V10.702L17.0488 7H6.96977L4.00977 10.702ZM2.00977 10L6.00977 5H18.0098L22.0098 10V17C22.0098 17.5304 21.7991 18.0391 21.424 18.4142C21.0489 18.7893 20.5402 19 20.0098 19H4.00977C3.47933 19 2.97062 18.7893 2.59555 18.4142C2.22048 18.0391 2.00977 17.5304 2.00977 17V10ZM15.8838 12C15.6613 12.8582 15.1602 13.6183 14.459 14.1609C13.7579 14.7035 12.8964 14.9979 12.0098 14.9979C11.1232 14.9979 10.2617 14.7035 9.5605 14.1609C8.85934 13.6183 8.3582 12.8582 8.13577 12H4.00977V10H20.0098V12H15.8838ZM13.7418 12H10.2778C10.4533 12.304 10.7058 12.5565 11.0098 12.732C11.3138 12.9075 11.6587 12.9999 12.0098 12.9999C12.3608 12.9999 12.7057 12.9075 13.0097 12.732C13.3137 12.5565 13.5662 12.304 13.7418 12Z" fill="#21272A"/>
</svg>
