<svg width="24" height="24" viewBox="0 0 24 24" fill="none" xmlns="http://www.w3.org/2000/svg">
<path d="M6.50976 7H18.5098C18.775 7 19.0293 7.10536 19.2169 7.29289C19.4044 7.48043 19.5098 7.73478 19.5098 8C19.5098 8.26522 19.4044 8.51957 19.2169 8.70711C19.0293 8.89464 18.775 9 18.5098 9H6.50976C6.24455 9 5.99019 8.89464 5.80266 8.70711C5.61512 8.51957 5.50976 8.26522 5.50976 8C5.50976 7.73478 5.61512 7.48043 5.80266 7.29289C5.99019 7.10536 6.24455 7 6.50976 7V7ZM6.50976 15H18.5098C18.775 15 19.0293 15.1054 19.2169 15.2929C19.4044 15.4804 19.5098 15.7348 19.5098 16C19.5098 16.2652 19.4044 16.5196 19.2169 16.7071C19.0293 16.8946 18.775 17 18.5098 17H6.50976C6.24455 17 5.99019 16.8946 5.80266 16.7071C5.61512 16.5196 5.50976 16.2652 5.50976 16C5.50976 15.7348 5.61512 15.4804 5.80266 15.2929C5.99019 15.1054 6.24455 15 6.50976 15ZM12.5098 11H18.5098C18.775 11 19.0293 11.1054 19.2169 11.2929C19.4044 11.4804 19.5098 11.7348 19.5098 12C19.5098 12.2652 19.4044 12.5196 19.2169 12.7071C19.0293 12.8946 18.775 13 18.5098 13H12.5098C12.2445 13 11.9902 12.8946 11.8027 12.7071C11.6151 12.5196 11.5098 12.2652 11.5098 12C11.5098 11.7348 11.6151 11.4804 11.8027 11.2929C11.9902 11.1054 12.2445 11 12.5098 11ZM8.94976 12.857L6.89176 14.091C6.74004 14.1822 6.56685 14.2314 6.38987 14.2337C6.21288 14.236 6.03846 14.1913 5.8844 14.1042C5.73035 14.0171 5.60218 13.8906 5.51299 13.7377C5.42381 13.5848 5.3768 13.411 5.37676 13.234V10.766C5.3768 10.589 5.42381 10.4152 5.51299 10.2623C5.60218 10.1094 5.73035 9.98294 5.8844 9.8958C6.03846 9.80865 6.21288 9.76396 6.38987 9.76628C6.56685 9.7686 6.74004 9.81785 6.89176 9.909L8.94776 11.143C9.09561 11.2319 9.21795 11.3575 9.30288 11.5077C9.38781 11.6579 9.43245 11.8275 9.43245 12C9.43245 12.1725 9.38781 12.3421 9.30288 12.4923C9.21795 12.6425 9.09561 12.7681 8.94776 12.857H8.94976Z" fill="#21272A"/>
</svg>
