<svg width="24" height="24" viewBox="0 0 24 24" fill="none" xmlns="http://www.w3.org/2000/svg">
<path d="M7.50977 15.5C7.96939 15.5 8.42452 15.4094 8.84916 15.2336C9.2738 15.0577 9.65964 14.7999 9.98464 14.4748C10.3096 14.1498 10.5675 13.764 10.7433 13.3394C10.9192 12.9147 11.0098 12.4596 11.0098 12C11.0098 11.5403 10.9192 11.0852 10.7433 10.6606C10.5675 10.2359 10.3096 9.85011 9.98464 9.5251C9.65964 9.2001 9.2738 8.94229 8.84916 8.7664C8.42452 8.59051 7.96939 8.49998 7.50977 8.49998C6.58151 8.49998 5.69127 8.86872 5.03489 9.5251C4.37852 10.1815 4.00977 11.0717 4.00977 12C4.00977 12.9282 4.37852 13.8185 5.03489 14.4748C5.69127 15.1312 6.58151 15.5 7.50977 15.5ZM13.0098 12C13.0099 12.8334 13.3073 13.6394 13.8486 14.273C14.3899 14.9066 15.1396 15.3263 15.9627 15.4566C16.7858 15.5869 17.6284 15.4191 18.3389 14.9836C19.0495 14.5481 19.5812 13.8733 19.8386 13.0807C20.096 12.288 20.0622 11.4296 19.7431 10.6597C19.4241 9.88978 18.8408 9.25901 18.0982 8.8808C17.3555 8.50259 16.5023 8.40178 15.692 8.59649C14.8817 8.7912 14.1675 9.26865 13.6778 9.94298C13.4507 9.26295 13.1125 8.6253 12.6768 8.05598C13.4836 7.27203 14.5113 6.75433 15.6215 6.57267C16.7317 6.39102 17.8708 6.55416 18.8854 7.04008C19.9 7.52601 20.7411 8.31136 21.2955 9.29023C21.8498 10.2691 22.0907 11.3944 21.9856 12.5144C21.8804 13.6344 21.4344 14.6953 20.7076 15.5539C19.9808 16.4125 19.0082 17.0277 17.921 17.3163C16.8337 17.605 15.6841 17.5533 14.6271 17.1683C13.5701 16.7832 12.6566 16.0833 12.0098 15.163C11.2547 16.2375 10.1401 17.0063 8.86745 17.3305C7.59482 17.6547 6.24821 17.5128 5.07109 16.9305C3.89398 16.3482 2.96407 15.3639 2.44952 14.1557C1.93497 12.9474 1.86973 11.5949 2.26561 10.3427C2.6615 9.09056 3.49236 8.02136 4.60797 7.32848C5.72358 6.63561 7.05029 6.36478 8.34821 6.56498C9.64612 6.76518 10.8296 7.42319 11.6845 8.42002C12.5395 9.41685 13.0096 10.6867 13.0098 12Z" fill="#21272A"/>
</svg>
