<svg width="24" height="24" viewBox="0 0 24 24" fill="none" xmlns="http://www.w3.org/2000/svg">
<path d="M12.0098 22C6.48677 22 2.00977 17.523 2.00977 12C2.00977 6.477 6.48677 2 12.0098 2C17.5328 2 22.0098 6.477 22.0098 12C22.0098 17.523 17.5328 22 12.0098 22ZM12.0098 20C14.1315 20 16.1663 19.1571 17.6666 17.6569C19.1669 16.1566 20.0098 14.1217 20.0098 12C20.0098 9.87827 19.1669 7.84344 17.6666 6.34315C16.1663 4.84285 14.1315 4 12.0098 4C9.88803 4 7.8532 4.84285 6.35291 6.34315C4.85262 7.84344 4.00977 9.87827 4.00977 12C4.00977 14.1217 4.85262 16.1566 6.35291 17.6569C7.8532 19.1571 9.88803 20 12.0098 20ZM12.0098 10C12.275 10 12.5293 10.1054 12.7169 10.2929C12.9044 10.4804 13.0098 10.7348 13.0098 11V16C13.0098 16.2652 12.9044 16.5196 12.7169 16.7071C12.5293 16.8946 12.275 17 12.0098 17C11.7445 17 11.4902 16.8946 11.3027 16.7071C11.1151 16.5196 11.0098 16.2652 11.0098 16V11C11.0098 10.7348 11.1151 10.4804 11.3027 10.2929C11.4902 10.1054 11.7445 10 12.0098 10ZM12.0098 9C11.7445 9 11.4902 8.89464 11.3027 8.70711C11.1151 8.51957 11.0098 8.26522 11.0098 8C11.0098 7.73478 11.1151 7.48043 11.3027 7.29289C11.4902 7.10536 11.7445 7 12.0098 7C12.275 7 12.5293 7.10536 12.7169 7.29289C12.9044 7.48043 13.0098 7.73478 13.0098 8C13.0098 8.26522 12.9044 8.51957 12.7169 8.70711C12.5293 8.89464 12.275 9 12.0098 9Z" fill="#21272A"/>
</svg>
