<svg width="24" height="24" viewBox="0 0 24 24" fill="none" xmlns="http://www.w3.org/2000/svg">
<path d="M18.0098 10.322V4H6.00977V16H9.58577L13.5558 10.708C13.809 10.3705 14.1305 10.0902 14.4994 9.88543C14.8682 9.68064 15.2762 9.55596 15.6965 9.51954C16.1168 9.48311 16.5401 9.53575 16.9387 9.67403C17.3373 9.8123 17.7023 10.0331 18.0098 10.322ZM18.0098 14.075L16.8218 12.009C16.7392 11.8655 16.6223 11.7448 16.4816 11.6576C16.3409 11.5704 16.1807 11.5195 16.0155 11.5095C15.8502 11.4995 15.6851 11.5307 15.5349 11.6002C15.3846 11.6698 15.254 11.7755 15.1548 11.908L12.0858 16H18.0098V14.075ZM18.0098 18H6.00977V20H18.0098V18ZM6.00977 2H18.0098C18.5402 2 19.0489 2.21071 19.424 2.58579C19.7991 2.96086 20.0098 3.46957 20.0098 4V20C20.0098 20.5304 19.7991 21.0391 19.424 21.4142C19.0489 21.7893 18.5402 22 18.0098 22H6.00977C5.47933 22 4.97062 21.7893 4.59555 21.4142C4.22048 21.0391 4.00977 20.5304 4.00977 20V4C4.00977 3.46957 4.22048 2.96086 4.59555 2.58579C4.97062 2.21071 5.47933 2 6.00977 2V2ZM10.0098 11C9.21412 11 8.45105 10.6839 7.88845 10.1213C7.32584 9.55871 7.00977 8.79565 7.00977 8C7.00977 7.20435 7.32584 6.44129 7.88845 5.87868C8.45105 5.31607 9.21412 5 10.0098 5C10.8054 5 11.5685 5.31607 12.1311 5.87868C12.6937 6.44129 13.0098 7.20435 13.0098 8C13.0098 8.79565 12.6937 9.55871 12.1311 10.1213C11.5685 10.6839 10.8054 11 10.0098 11ZM10.0098 9C10.275 9 10.5293 8.89464 10.7169 8.70711C10.9044 8.51957 11.0098 8.26522 11.0098 8C11.0098 7.73478 10.9044 7.48043 10.7169 7.29289C10.5293 7.10536 10.275 7 10.0098 7C9.74455 7 9.4902 7.10536 9.30266 7.29289C9.11512 7.48043 9.00977 7.73478 9.00977 8C9.00977 8.26522 9.11512 8.51957 9.30266 8.70711C9.4902 8.89464 9.74455 9 10.0098 9Z" fill="#21272A"/>
</svg>
