<svg width="24" height="24" viewBox="0 0 24 24" fill="none" xmlns="http://www.w3.org/2000/svg">
<path d="M9.00977 19C7.96016 18.9995 6.9241 18.7631 5.97825 18.308C5.0324 17.853 4.20098 17.1911 3.54553 16.3714C2.89007 15.5516 2.42736 14.5949 2.19163 13.5721C1.95591 12.5493 1.95321 11.4866 2.18373 10.4626C2.41425 9.43863 2.87209 8.4796 3.52337 7.6565C4.17465 6.83339 5.0027 6.16728 5.94622 5.70747C6.88975 5.24765 7.92459 5.0059 8.97418 5.00011C10.0238 4.99431 11.0612 5.22463 12.0098 5.674C13.0767 5.16875 14.2541 4.94155 15.4324 5.01352C16.6107 5.08549 17.7517 5.4543 18.7492 6.08563C19.7468 6.71697 20.5684 7.59033 21.1378 8.62448C21.7071 9.65863 22.0057 10.82 22.0057 12.0005C22.0057 13.181 21.7071 14.3424 21.1378 15.3765C20.5684 16.4107 19.7468 17.284 18.7492 17.9154C17.7517 18.5467 16.6107 18.9155 15.4324 18.9875C14.2541 19.0594 13.0767 18.8322 12.0098 18.327C11.0723 18.7717 10.0474 19.0017 9.00977 19ZM9.00977 7C8.3112 7.0007 7.62054 7.14778 6.98229 7.43174C6.34405 7.71571 5.77239 8.13027 5.30417 8.64869C4.83595 9.16711 4.48155 9.77789 4.26384 10.4417C4.04612 11.1054 3.9699 11.8075 4.04011 12.5025C4.11031 13.1975 4.32538 13.8701 4.67144 14.4769C5.0175 15.0838 5.48688 15.6113 6.04932 16.0257C6.61176 16.44 7.25477 16.7318 7.93691 16.8824C8.61905 17.033 9.32517 17.039 10.0098 16.9C8.72545 15.5927 8.00703 13.8326 8.00977 12C8.00736 10.1675 8.72572 8.40746 10.0098 7.1C9.68062 7.03332 9.34561 6.99982 9.00977 7ZM16.0098 12C16.0125 13.8326 15.2941 15.5927 14.0098 16.9C14.7359 17.0475 15.4858 17.0317 16.2052 16.8538C16.9245 16.6759 17.5953 16.3403 18.169 15.8714C18.7428 15.4024 19.2051 14.8118 19.5226 14.1423C19.8401 13.4727 20.0048 12.741 20.0048 12C20.0048 11.259 19.8401 10.5273 19.5226 9.85772C19.2051 9.18818 18.7428 8.59758 18.169 8.12863C17.5953 7.65969 16.9245 7.32413 16.2052 7.14623C15.4858 6.96833 14.7359 6.95254 14.0098 7.1C15.2941 8.40728 16.0125 10.1674 16.0098 12Z" fill="#21272A"/>
</svg>
