<svg width="24" height="24" viewBox="0 0 24 24" fill="none" xmlns="http://www.w3.org/2000/svg">
<path d="M9.773 15L11.723 9H10.5C10.2348 9 9.98043 8.89464 9.79289 8.70711C9.60536 8.51957 9.5 8.26522 9.5 8C9.5 7.73478 9.60536 7.48043 9.79289 7.29289C9.98043 7.10536 10.2348 7 10.5 7H15.5C15.7652 7 16.0196 7.10536 16.2071 7.29289C16.3946 7.48043 16.5 7.73478 16.5 8C16.5 8.26522 16.3946 8.51957 16.2071 8.70711C16.0196 8.89464 15.7652 9 15.5 9H13.826L11.876 15H13.5C13.7652 15 14.0196 15.1054 14.2071 15.2929C14.3946 15.4804 14.5 15.7348 14.5 16C14.5 16.2652 14.3946 16.5196 14.2071 16.7071C14.0196 16.8946 13.7652 17 13.5 17H8.5C8.23478 17 7.98043 16.8946 7.79289 16.7071C7.60536 16.5196 7.5 16.2652 7.5 16C7.5 15.7348 7.60536 15.4804 7.79289 15.2929C7.98043 15.1054 8.23478 15 8.5 15H9.773Z" fill="#21272A"/>
</svg>
