<svg width="24" height="24" viewBox="0 0 24 24" fill="none" xmlns="http://www.w3.org/2000/svg">
<path d="M14 8C14.5304 8 15.0391 7.78929 15.4142 7.41422C15.7893 7.03914 16 6.53044 16 6C16 5.46957 15.7893 4.96086 15.4142 4.58579C15.0391 4.21072 14.5304 4 14 4C13.4696 4 12.9609 4.21072 12.5858 4.58579C12.2107 4.96086 12 5.46957 12 6C12 6.53044 12.2107 7.03914 12.5858 7.41422C12.9609 7.78929 13.4696 8 14 8ZM15 15H17C17.7956 15 18.5587 15.3161 19.1213 15.8787C19.6839 16.4413 20 17.2044 20 18V22H4V18C4 17.2044 4.31607 16.4413 4.87868 15.8787C5.44129 15.3161 6.20435 15 7 15H13V9.874C12.0595 9.62827 11.2406 9.04864 10.6962 8.24333C10.1518 7.43802 9.9191 6.4621 10.0416 5.49778C10.164 4.53346 10.6333 3.64669 11.3617 3.00303C12.0901 2.35937 13.0279 2.00284 14 2C14.9743 1.99904 15.9154 2.35369 16.6467 2.99738C17.3781 3.64107 17.8493 4.52954 17.9721 5.49605C18.0948 6.46255 17.8606 7.44062 17.3134 8.24669C16.7662 9.05276 15.9436 9.6314 15 9.874V15ZM6 20H18V18C18 17.7348 17.8946 17.4804 17.7071 17.2929C17.5196 17.1054 17.2652 17 17 17H7C6.73478 17 6.48043 17.1054 6.29289 17.2929C6.10536 17.4804 6 17.7348 6 18V20ZM8.5 14H10.5C10.8978 14 11.2794 14.158 11.5607 14.4393C11.842 14.7206 12 15.1022 12 15.5C12 15.8978 11.842 16.2794 11.5607 16.5607C11.2794 16.842 10.8978 17 10.5 17H8.5C8.10218 17 7.72064 16.842 7.43934 16.5607C7.15804 16.2794 7 15.8978 7 15.5C7 15.1022 7.15804 14.7206 7.43934 14.4393C7.72064 14.158 8.10218 14 8.5 14Z" fill="#21272A"/>
</svg>
