<svg width="24" height="24" viewBox="0 0 24 24" fill="none" xmlns="http://www.w3.org/2000/svg">
<path d="M9.612 17.337L13.358 13.59L14.385 13.773C15.4329 13.9609 16.5134 13.8094 17.4692 13.3406C18.425 12.8719 19.2063 12.1102 19.6992 11.1666C20.1921 10.2231 20.371 9.14676 20.2099 8.09445C20.0487 7.04213 19.5558 6.06873 18.803 5.31595C18.0503 4.56317 17.0769 4.07031 16.0245 3.90913C14.9722 3.74794 13.8959 3.92684 12.9523 4.41978C12.0087 4.91272 11.2471 5.69397 10.7783 6.64979C10.3096 7.60561 10.1581 8.68611 10.346 9.73399L10.53 10.762L3.536 17.756L3.713 20.407L6.364 20.584L8.197 18.751L7.49 18.044C7.30249 17.8563 7.1972 17.6019 7.19729 17.3366C7.19739 17.0714 7.30286 16.817 7.4905 16.6295C7.67814 16.442 7.93258 16.3367 8.19785 16.3368C8.46312 16.3369 8.71749 16.4423 8.905 16.63L9.612 17.337ZM10.319 3.90199C11.1701 3.05085 12.2264 2.43357 13.3857 2.10977C14.545 1.78597 15.7683 1.7666 16.9373 2.05351C18.1063 2.34043 19.1815 2.92395 20.0592 3.74771C20.9369 4.57146 21.5873 5.60762 21.9477 6.75611C22.308 7.9046 22.3661 9.12661 22.1164 10.3041C21.8667 11.4816 21.3175 12.5748 20.522 13.4782C19.7264 14.3815 18.7114 15.0644 17.5749 15.461C16.4384 15.8575 15.2188 15.9543 14.034 15.742L7.137 22.64L2.707 22.345C2.46506 22.329 2.23717 22.2257 2.06572 22.0543C1.89427 21.8828 1.79096 21.6549 1.775 21.413L1.48 16.983L8.378 10.085C8.17842 8.97433 8.25063 7.83186 8.58846 6.75517C8.92628 5.67848 9.51969 4.69955 10.318 3.90199H10.319ZM14.561 9.55799C14.186 9.18284 13.9754 8.67408 13.9754 8.14363C13.9755 7.61319 14.1863 7.1045 14.5615 6.72949C14.9366 6.35447 15.4454 6.14384 15.9759 6.14394C16.5063 6.14403 17.015 6.35484 17.39 6.72999C17.765 7.10514 17.9756 7.61389 17.9755 8.14434C17.9755 8.67479 17.7646 9.18347 17.3895 9.55849C17.0143 9.9335 16.5056 10.1441 15.9751 10.144C15.4447 10.1439 14.936 9.93314 14.561 9.55799Z" fill="#21272A"/>
</svg>
