<svg width="24" height="24" viewBox="0 0 24 24" fill="none" xmlns="http://www.w3.org/2000/svg">
<path d="M5.00977 5H19.0098C19.8054 5 20.5685 5.31607 21.1311 5.87868C21.6937 6.44129 22.0098 7.20435 22.0098 8V16C22.0098 16.7956 21.6937 17.5587 21.1311 18.1213C20.5685 18.6839 19.8054 19 19.0098 19H5.00977C4.21412 19 3.45105 18.6839 2.88845 18.1213C2.32584 17.5587 2.00977 16.7956 2.00977 16V8C2.00977 7.20435 2.32584 6.44129 2.88845 5.87868C3.45105 5.31607 4.21412 5 5.00977 5V5ZM5.00977 7C4.74455 7 4.4902 7.10536 4.30266 7.29289C4.11512 7.48043 4.00977 7.73478 4.00977 8V16C4.00977 16.2652 4.11512 16.5196 4.30266 16.7071C4.4902 16.8946 4.74455 17 5.00977 17H19.0098C19.275 17 19.5293 16.8946 19.7169 16.7071C19.9044 16.5196 20.0098 16.2652 20.0098 16V8C20.0098 7.73478 19.9044 7.48043 19.7169 7.29289C19.5293 7.10536 19.275 7 19.0098 7H5.00977ZM5.00977 11H7.00977V13H5.00977V11ZM5.00977 8H7.00977V10H5.00977V8ZM5.00977 14H7.00977V16H5.00977V14ZM8.00977 14H16.0098V16H8.00977V14ZM8.00977 11H10.0098V13H8.00977V11ZM8.00977 8H10.0098V10H8.00977V8ZM11.0098 11H13.0098V13H11.0098V11ZM11.0098 8H13.0098V10H11.0098V8ZM17.0098 14H19.0098V16H17.0098V14ZM14.0098 11H16.0098V13H14.0098V11ZM14.0098 8H16.0098V10H14.0098V8ZM17.0098 8H19.0098V13H17.0098V8Z" fill="#21272A"/>
</svg>
