<svg width="24" height="24" viewBox="0 0 24 24" fill="none" xmlns="http://www.w3.org/2000/svg">
<path d="M13.5348 16H17.9198L15.9268 11.046L13.5348 16ZM18.7248 18H12.5688L10.9108 21.435C10.7954 21.674 10.5898 21.8573 10.3393 21.9447C10.0887 22.0321 9.81372 22.0164 9.57476 21.901C9.3358 21.7856 9.15246 21.5801 9.06507 21.3295C8.97768 21.079 8.99339 20.804 9.10876 20.565L14.1258 10.177C14.2943 9.82813 14.5606 9.53574 14.8922 9.33536C15.2239 9.13498 15.6066 9.03524 15.9938 9.04827C16.3811 9.0613 16.7562 9.18653 17.0736 9.40874C17.391 9.63096 17.637 9.94059 17.7818 10.3L21.9378 20.627C22.0367 20.8731 22.0338 21.1485 21.9297 21.3924C21.8256 21.6364 21.6289 21.8291 21.3828 21.928C21.1366 22.0269 20.8613 22.024 20.6173 21.9199C20.3733 21.8159 20.1807 21.6191 20.0818 21.373L18.7248 18ZM3.00976 2H11.0098C11.275 2 11.5293 2.10536 11.7169 2.29289C11.9044 2.48043 12.0098 2.73478 12.0098 3C12.0098 3.26522 11.9044 3.51957 11.7169 3.70711C11.5293 3.89464 11.275 4 11.0098 4H3.00976C2.74455 4 2.49019 3.89464 2.30266 3.70711C2.11512 3.51957 2.00976 3.26522 2.00976 3C2.00976 2.73478 2.11512 2.48043 2.30266 2.29289C2.49019 2.10536 2.74455 2 3.00976 2V2ZM3.00976 7C2.74455 7 2.49019 6.89464 2.30266 6.70711C2.11512 6.51957 2.00976 6.26522 2.00976 6C2.00976 5.73478 2.11512 5.48043 2.30266 5.29289C2.49019 5.10536 2.74455 5 3.00976 5H10.0128C10.363 5.00011 10.7071 5.0922 11.0105 5.26704C11.314 5.44188 11.5663 5.69335 11.742 5.99629C11.9178 6.29922 12.0109 6.64301 12.0121 6.99324C12.0133 7.34348 11.9225 7.68788 11.7488 7.992C10.8038 9.646 9.75576 10.836 8.58376 11.546C7.11176 12.439 5.26376 12.918 3.04676 12.999C2.91359 13.0073 2.7801 12.9888 2.65416 12.9447C2.52823 12.9006 2.41239 12.8318 2.31348 12.7422C2.21457 12.6526 2.13458 12.5442 2.07823 12.4232C2.02188 12.3023 1.9903 12.1713 1.98537 12.0379C1.98043 11.9046 2.00222 11.7716 2.04947 11.6468C2.09672 11.522 2.16847 11.408 2.26048 11.3113C2.3525 11.2147 2.46292 11.1375 2.58525 11.0842C2.70758 11.0309 2.83934 11.0026 2.97276 11.001C4.87076 10.931 6.39176 10.537 7.54676 9.836C8.39376 9.323 9.22276 8.382 10.0128 7H3.00976Z" fill="#21272A"/>
</svg>
