<svg width="24" height="24" viewBox="0 0 24 24" fill="none" xmlns="http://www.w3.org/2000/svg">
<path d="M14.5808 11.762L20.9978 14.337C21.1822 14.411 21.3404 14.5383 21.4522 14.7026C21.5639 14.867 21.6242 15.0609 21.6253 15.2596C21.6263 15.4583 21.5682 15.6529 21.4582 15.8184C21.3482 15.984 21.1914 16.113 21.0078 16.189L12.1578 19.853C11.9128 19.9544 11.6377 19.9544 11.3928 19.853L2.54177 16.19C2.35814 16.114 2.20133 15.985 2.09134 15.8194C1.98136 15.6539 1.92319 15.4593 1.92427 15.2606C1.92534 15.0619 1.9856 14.868 2.09737 14.7036C2.20913 14.5393 2.36733 14.412 2.55177 14.338L9.08177 11.718C9.45577 11.568 10.6378 12.008 11.7748 12.012C12.9898 12.016 14.1618 11.595 14.5808 11.763V11.762ZM5.57377 15.28L11.7748 17.847L17.9768 15.28L11.7748 12.791L5.57377 15.28ZM12.1478 4.78597L20.9978 8.33697C21.1822 8.411 21.3404 8.53831 21.4522 8.70264C21.5639 8.86697 21.6242 9.06088 21.6253 9.25961C21.6263 9.45835 21.5682 9.6529 21.4582 9.81843C21.3482 9.98396 21.1914 10.113 21.0078 10.189L12.1578 13.853C11.9128 13.9544 11.6377 13.9544 11.3928 13.853L2.54177 10.19C2.35814 10.114 2.20133 9.98496 2.09134 9.81943C1.98136 9.6539 1.92319 9.45935 1.92427 9.26061C1.92534 9.06188 1.9856 8.86797 2.09737 8.70364C2.20913 8.53931 2.36733 8.412 2.55177 8.33797L11.4018 4.78597C11.6411 4.68975 11.9084 4.68975 12.1478 4.78597ZM5.57377 9.27997L11.7748 11.847L17.9768 9.27997L11.7748 6.79097L5.57377 9.27997Z" fill="#21272A"/>
</svg>
