<svg width="24" height="24" viewBox="0 0 24 24" fill="none" xmlns="http://www.w3.org/2000/svg">
<path d="M12.0098 20H18.0098C18.275 20 18.5293 19.8946 18.7169 19.7071C18.9044 19.5196 19.0098 19.2652 19.0098 19V5C19.0098 4.73478 18.9044 4.48043 18.7169 4.29289C18.5293 4.10536 18.275 4 18.0098 4H6.00977C5.74455 4 5.4902 4.10536 5.30266 4.29289C5.11512 4.48043 5.00977 4.73478 5.00977 5V19C5.00977 19.2652 5.11512 19.5196 5.30266 19.7071C5.4902 19.8946 5.74455 20 6.00977 20H10.0098V10H5.00977V8H19.0098V10H12.0098V20ZM6.00977 2H18.0098C18.8054 2 19.5685 2.31607 20.1311 2.87868C20.6937 3.44129 21.0098 4.20435 21.0098 5V19C21.0098 19.7956 20.6937 20.5587 20.1311 21.1213C19.5685 21.6839 18.8054 22 18.0098 22H6.00977C5.21412 22 4.45105 21.6839 3.88845 21.1213C3.32584 20.5587 3.00977 19.7956 3.00977 19V5C3.00977 4.20435 3.32584 3.44129 3.88845 2.87868C4.45105 2.31607 5.21412 2 6.00977 2V2Z" fill="#21272A"/>
</svg>
