<svg width="24" height="24" viewBox="0 0 24 24" fill="none" xmlns="http://www.w3.org/2000/svg">
<path d="M6.74677 16.747C5.98005 18.059 5.57623 19.5514 5.57677 21.071C5.57677 21.3362 5.47141 21.5906 5.28387 21.7781C5.09634 21.9657 4.84198 22.071 4.57677 22.071C4.31155 22.071 4.0572 21.9657 3.86966 21.7781C3.68212 21.5906 3.57677 21.3362 3.57677 21.071C3.57677 18.948 4.21377 16.908 5.36177 15.192C4.61048 14.0389 4.21569 12.6899 4.22672 11.3137C4.23774 9.93745 4.6541 8.59498 5.42377 7.45403C6.86577 5.31703 11.5898 3.43303 19.5938 1.80103C19.3258 8.65203 18.4718 13.146 17.0308 15.283C16.4834 16.0946 15.7719 16.7824 14.9422 17.3019C14.1125 17.8214 13.1831 18.1611 12.2139 18.299C11.2448 18.437 10.2575 18.3701 9.31575 18.1028C8.37404 17.8355 7.49887 17.3736 6.74677 16.747ZM7.95277 15.147C8.48746 15.6103 9.11437 15.9548 9.79208 16.1578C10.4698 16.3608 11.1829 16.4177 11.8842 16.3247C12.5855 16.2317 13.2591 15.9909 13.8605 15.6183C14.4619 15.2457 14.9773 14.7496 15.3728 14.163C16.3768 12.675 17.1098 9.34803 17.4568 4.31303C11.5138 5.70003 7.99377 7.22203 7.08177 8.57303C6.59237 9.29806 6.30182 10.1388 6.23918 11.0113C6.17653 11.8838 6.34397 12.7575 6.72477 13.545C7.15477 13.122 7.62177 12.734 8.12477 12.385L8.63277 12.033C8.85078 11.882 9.11985 11.8237 9.38081 11.8711C9.64177 11.9184 9.87323 12.0675 10.0243 12.2855C10.1753 12.5035 10.2336 12.7726 10.1862 13.0336C10.1389 13.2945 9.98978 13.526 9.77177 13.677L9.26477 14.029C8.7909 14.3569 8.35134 14.7318 7.95277 15.148V15.147Z" fill="#21272A"/>
</svg>
