<svg width="24" height="24" viewBox="0 0 24 24" fill="none" xmlns="http://www.w3.org/2000/svg">
<path d="M12.0098 20C14.1315 20 16.1663 19.1571 17.6666 17.6569C19.1669 16.1566 20.0098 14.1217 20.0098 12C20.0098 9.87827 19.1669 7.84344 17.6666 6.34315C16.1663 4.84285 14.1315 4 12.0098 4C9.88803 4 7.8532 4.84285 6.35291 6.34315C4.85262 7.84344 4.00977 9.87827 4.00977 12C4.00977 14.1217 4.85262 16.1566 6.35291 17.6569C7.8532 19.1571 9.88803 20 12.0098 20ZM12.0098 22C6.48677 22 2.00977 17.523 2.00977 12C2.00977 6.477 6.48677 2 12.0098 2C17.5328 2 22.0098 6.477 22.0098 12C22.0098 17.523 17.5328 22 12.0098 22ZM15.4558 9.968C15.1115 9.38474 14.625 8.89826 14.0418 8.554L17.6668 4.929L19.0808 6.343L15.4558 9.968ZM9.97777 15.446L6.35277 19.071L4.93877 17.657L8.56377 14.032C8.90802 14.6153 9.39451 15.1017 9.97777 15.446ZM9.97777 8.554C9.39451 8.89826 8.90802 9.38474 8.56377 9.968L4.93877 6.343L6.35277 4.93L9.97777 8.555V8.554ZM14.7138 14.948C13.943 15.655 12.9259 16.032 11.8806 15.9981C10.8352 15.9643 9.84464 15.5223 9.12119 14.767C8.39773 14.0116 7.99892 13.0029 8.0102 11.9571C8.02149 10.9112 8.44197 9.91136 9.18154 9.17178C9.92112 8.4322 10.921 8.01172 11.9668 8.00044C13.0127 7.98916 14.0214 8.38797 14.7767 9.11142C15.5321 9.83488 15.974 10.8254 16.0079 11.8708C16.0417 12.9162 15.6648 13.9332 14.9578 14.704C15.1508 14.494 15.3168 14.269 15.4558 14.032L18.3298 16.906C17.919 17.4343 17.4441 17.9093 16.9158 18.32L14.0418 15.446C14.2788 15.306 14.5038 15.141 14.7138 14.948ZM12.0098 14C12.5402 14 13.0489 13.7893 13.424 13.4142C13.7991 13.0391 14.0098 12.5304 14.0098 12C14.0098 11.4696 13.7991 10.9609 13.424 10.5858C13.0489 10.2107 12.5402 10 12.0098 10C11.4793 10 10.9706 10.2107 10.5956 10.5858C10.2205 10.9609 10.0098 11.4696 10.0098 12C10.0098 12.5304 10.2205 13.0391 10.5956 13.4142C10.9706 13.7893 11.4793 14 12.0098 14Z" fill="#21272A"/>
</svg>
