<svg width="24" height="24" viewBox="0 0 24 24" fill="none" xmlns="http://www.w3.org/2000/svg">
<path d="M14.0098 16V13.702L14.8658 13.105C15.7396 12.4969 16.3965 11.6258 16.7409 10.6184C17.0853 9.61107 17.0992 8.5201 16.7805 7.50432C16.4619 6.48854 15.8273 5.60098 14.9692 4.97086C14.1112 4.34073 13.0744 4.00094 12.0098 4.00094C10.9452 4.00094 9.90838 4.34073 9.0503 4.97086C8.19222 5.60098 7.55767 6.48854 7.23901 7.50432C6.92035 8.5201 6.93423 9.61107 7.27862 10.6184C7.62301 11.6258 8.27994 12.4969 9.15377 13.105L10.0098 13.702V16H11.0098V7.99999C11.0098 7.73477 11.1151 7.48042 11.3027 7.29288C11.4902 7.10535 11.7446 6.99999 12.0098 6.99999C12.275 6.99999 12.5293 7.10535 12.7169 7.29288C12.9044 7.48042 13.0098 7.73477 13.0098 7.99999V16H14.0098ZM14.0098 18H10.0098V20H14.0098V18ZM5.00977 8.99999C5.00984 7.79636 5.32027 6.61308 5.91108 5.56443C6.50189 4.51578 7.35312 3.63719 8.38255 3.0135C9.41199 2.38981 10.5849 2.0421 11.7879 2.00395C12.9909 1.96579 14.1834 2.23849 15.2503 2.79569C16.3172 3.3529 17.2224 4.17579 17.8785 5.1849C18.5345 6.194 18.9193 7.35523 18.9957 8.55644C19.072 9.75765 18.8373 10.9582 18.3143 12.0423C17.7913 13.1263 16.9975 14.0572 16.0098 14.745V20C16.0098 20.5304 15.7991 21.0391 15.424 21.4142C15.0489 21.7893 14.5402 22 14.0098 22H10.0098C9.47933 22 8.97063 21.7893 8.59555 21.4142C8.22048 21.0391 8.00977 20.5304 8.00977 20V14.745C7.08317 14.1006 6.32634 13.2415 5.80392 12.2411C5.2815 11.2406 5.00902 10.1286 5.00977 8.99999Z" fill="#21272A"/>
</svg>
