<svg width="24" height="24" viewBox="0 0 24 24" fill="none" xmlns="http://www.w3.org/2000/svg">
<path d="M21.9238 11.503C21.7987 12.2751 21.5401 13.0195 21.1598 13.703C20.9808 14.027 20.1038 15.261 19.8348 15.587C18.3568 17.375 15.8818 19.438 11.7428 21.444C11.6549 21.4867 11.5573 21.5051 11.4599 21.4972C11.3626 21.4892 11.2691 21.4553 11.1894 21.3988C11.1097 21.3424 11.0466 21.2656 11.0067 21.1764C10.9668 21.0873 10.9517 20.989 10.9628 20.892L11.1728 19.007C11.181 18.9356 11.1749 18.8633 11.1551 18.7942C11.1352 18.7251 11.1019 18.6606 11.057 18.6045C11.0121 18.5483 10.9565 18.5016 10.8935 18.4671C10.8305 18.4325 10.7612 18.4107 10.6898 18.403C5.79077 17.888 2.00977 14.54 2.00977 10.486C2.00977 6.076 6.48577 2.5 12.0068 2.5C17.3728 2.5 21.7508 5.877 21.9938 10.115C22.0008 10.238 22.0198 10.631 22.0038 10.895C21.9928 11.055 21.9698 11.26 21.9238 11.503ZM6.50977 12.103V8.74C6.51282 8.67093 6.50185 8.60195 6.47753 8.53723C6.4532 8.47251 6.41601 8.41339 6.36822 8.36343C6.32042 8.31347 6.263 8.27371 6.19941 8.24655C6.13583 8.21938 6.06741 8.20538 5.99827 8.20538C5.92912 8.20538 5.8607 8.21938 5.79712 8.24655C5.73354 8.27371 5.67611 8.31347 5.62832 8.36343C5.58052 8.41339 5.54333 8.47251 5.51901 8.53723C5.49468 8.60195 5.48371 8.67093 5.48677 8.74V12.617C5.48677 12.901 5.71677 13.131 5.99877 13.131H8.04377C8.17995 13.131 8.31056 13.0769 8.40687 12.9806C8.50317 12.8843 8.55727 12.7537 8.55727 12.6175C8.55727 12.4813 8.50317 12.3507 8.40687 12.2544C8.31056 12.1581 8.17995 12.104 8.04377 12.104H6.50977V12.103ZM9.66377 13.131C9.71638 13.131 9.76848 13.1206 9.81707 13.1005C9.86567 13.0803 9.90981 13.0507 9.94696 13.0135C9.98412 12.9762 10.0136 12.932 10.0336 12.8834C10.0536 12.8347 10.0639 12.7826 10.0638 12.73V8.628C10.064 8.5753 10.0539 8.52307 10.0339 8.47431C10.0139 8.42555 9.98449 8.38122 9.94732 8.34386C9.91015 8.30651 9.86596 8.27687 9.8173 8.25664C9.76864 8.23641 9.71646 8.226 9.66377 8.226H9.44077C9.38807 8.226 9.33589 8.23641 9.28723 8.25664C9.23857 8.27687 9.19438 8.30651 9.15721 8.34386C9.12004 8.38122 9.09062 8.42555 9.07064 8.47431C9.05065 8.52307 9.0405 8.5753 9.04077 8.628V12.73C9.04077 12.8361 9.08291 12.9378 9.15792 13.0128C9.23294 13.0879 9.33468 13.13 9.44077 13.13H9.66377V13.131ZM13.7968 8.74V11.109C13.7968 11.109 11.7548 8.433 11.7228 8.399C11.673 8.34248 11.6113 8.29772 11.5421 8.26797C11.4729 8.23822 11.398 8.22423 11.3228 8.227C11.1879 8.23596 11.0617 8.29637 10.9701 8.39575C10.8786 8.49513 10.8287 8.62589 10.8308 8.761V12.617C10.8277 12.6861 10.8387 12.7551 10.863 12.8198C10.8873 12.8845 10.9245 12.9436 10.9723 12.9936C11.0201 13.0435 11.0775 13.0833 11.1411 13.1105C11.2047 13.1376 11.2731 13.1516 11.3423 13.1516C11.4114 13.1516 11.4798 13.1376 11.5434 13.1105C11.607 13.0833 11.6644 13.0435 11.7122 12.9936C11.76 12.9436 11.7972 12.8845 11.8215 12.8198C11.8459 12.7551 11.8568 12.6861 11.8538 12.617V10.263C11.8538 10.263 13.9268 12.961 13.9578 12.99C14.0478 13.076 14.1688 13.13 14.3038 13.13C14.5878 13.133 14.8198 12.881 14.8198 12.596V8.74C14.8228 8.67093 14.8119 8.60195 14.7875 8.53723C14.7632 8.47251 14.726 8.41339 14.6782 8.36343C14.6304 8.31347 14.573 8.27371 14.5094 8.24655C14.4458 8.21938 14.3774 8.20538 14.3083 8.20538C14.2391 8.20538 14.1707 8.21938 14.1071 8.24655C14.0435 8.27371 13.9861 8.31347 13.9383 8.36343C13.8905 8.41339 13.8533 8.47251 13.829 8.53723C13.8047 8.60195 13.7937 8.67093 13.7968 8.74ZM18.6548 8.74C18.655 8.6726 18.642 8.6058 18.6164 8.54345C18.5908 8.4811 18.5531 8.42442 18.5055 8.37667C18.4579 8.32891 18.4014 8.29102 18.3392 8.26516C18.2769 8.23931 18.2102 8.226 18.1428 8.226H16.0978C16.0304 8.22613 15.9638 8.23954 15.9017 8.26545C15.8395 8.29137 15.7831 8.32928 15.7357 8.37702C15.6882 8.42476 15.6506 8.4814 15.6251 8.54368C15.5995 8.60597 15.5865 8.67268 15.5868 8.74V12.617C15.5868 12.901 15.8158 13.131 16.0978 13.131H18.1428C18.279 13.131 18.4096 13.0769 18.5059 12.9806C18.6022 12.8843 18.6563 12.7537 18.6563 12.6175C18.6563 12.4813 18.6022 12.3507 18.5059 12.2544C18.4096 12.1581 18.279 12.104 18.1428 12.104H16.6098V11.192H18.1438C18.28 11.192 18.4106 11.1379 18.5069 11.0416C18.6032 10.9453 18.6573 10.8147 18.6573 10.6785C18.6573 10.5423 18.6032 10.4117 18.5069 10.3154C18.4106 10.2191 18.28 10.165 18.1438 10.165H16.6098V9.253H18.1438C18.4268 9.253 18.6558 9.023 18.6558 8.74H18.6548Z" fill="#21272A"/>
</svg>
