<svg width="24" height="24" viewBox="0 0 24 24" fill="none" xmlns="http://www.w3.org/2000/svg">
<path d="M17.0098 13.13V16.827H14.8668V13.377C14.8668 12.511 14.5568 11.92 13.7808 11.92C13.1888 11.92 12.8358 12.318 12.6808 12.704C12.6248 12.842 12.6098 13.034 12.6098 13.226V16.827H10.4658C10.4658 16.827 10.4948 10.985 10.4658 10.38H12.6098V11.293L12.5958 11.314H12.6098V11.294C12.8948 10.854 13.4028 10.228 14.5418 10.228C15.9518 10.228 17.0098 11.15 17.0098 13.13ZM8.22277 7.271C7.48977 7.271 7.00977 7.753 7.00977 8.385C7.00977 9.005 7.47577 9.5 8.19477 9.5H8.20877C8.95677 9.5 9.42177 9.004 9.42177 8.385C9.40777 7.753 8.95677 7.271 8.22277 7.271ZM7.13677 16.827H9.28077V10.38H7.13677V16.827Z" fill="#21272A"/>
<path d="M12.0098 20C14.1315 20 16.1663 19.1571 17.6666 17.6569C19.1669 16.1566 20.0098 14.1217 20.0098 12C20.0098 9.87827 19.1669 7.84344 17.6666 6.34315C16.1663 4.84285 14.1315 4 12.0098 4C9.88803 4 7.8532 4.84285 6.35291 6.34315C4.85262 7.84344 4.00977 9.87827 4.00977 12C4.00977 14.1217 4.85262 16.1566 6.35291 17.6569C7.8532 19.1571 9.88803 20 12.0098 20ZM12.0098 22C6.48677 22 2.00977 17.523 2.00977 12C2.00977 6.477 6.48677 2 12.0098 2C17.5328 2 22.0098 6.477 22.0098 12C22.0098 17.523 17.5328 22 12.0098 22Z" fill="#21272A"/>
</svg>
