<svg width="24" height="24" viewBox="0 0 24 24" fill="none" xmlns="http://www.w3.org/2000/svg">
<path d="M17.0098 13.13V16.827H14.8668V13.377C14.8668 12.511 14.5568 11.92 13.7808 11.92C13.1888 11.92 12.8358 12.318 12.6808 12.704C12.6248 12.842 12.6098 13.034 12.6098 13.226V16.827H10.4658C10.4658 16.827 10.4948 10.985 10.4658 10.38H12.6098V11.293L12.5958 11.314H12.6098V11.294C12.8948 10.854 13.4028 10.228 14.5418 10.228C15.9518 10.228 17.0098 11.15 17.0098 13.13ZM8.22277 7.271C7.48977 7.271 7.00977 7.753 7.00977 8.385C7.00977 9.005 7.47577 9.5 8.19477 9.5H8.20877C8.95677 9.5 9.42177 9.004 9.42177 8.385C9.40777 7.753 8.95677 7.271 8.22277 7.271ZM7.13677 16.827H9.28077V10.38H7.13677V16.827Z" fill="#21272A"/>
<path d="M6.00977 4C5.47933 4 4.97062 4.21071 4.59555 4.58579C4.22048 4.96086 4.00977 5.46957 4.00977 6V18C4.00977 18.5304 4.22048 19.0391 4.59555 19.4142C4.97062 19.7893 5.47933 20 6.00977 20H18.0098C18.5402 20 19.0489 19.7893 19.424 19.4142C19.7991 19.0391 20.0098 18.5304 20.0098 18V6C20.0098 5.46957 19.7991 4.96086 19.424 4.58579C19.0489 4.21071 18.5402 4 18.0098 4H6.00977ZM6.00977 2H18.0098C19.0706 2 20.088 2.42143 20.8382 3.17157C21.5883 3.92172 22.0098 4.93913 22.0098 6V18C22.0098 19.0609 21.5883 20.0783 20.8382 20.8284C20.088 21.5786 19.0706 22 18.0098 22H6.00977C4.9489 22 3.93148 21.5786 3.18134 20.8284C2.43119 20.0783 2.00977 19.0609 2.00977 18V6C2.00977 4.93913 2.43119 3.92172 3.18134 3.17157C3.93148 2.42143 4.9489 2 6.00977 2V2Z" fill="#21272A"/>
</svg>
