<svg width="24" height="24" viewBox="0 0 24 24" fill="none" xmlns="http://www.w3.org/2000/svg">
<path d="M6.19976 12.345C6.3816 12.1637 6.62794 12.0618 6.88476 12.0618C7.14158 12.0618 7.38792 12.1637 7.56976 12.345C7.65959 12.4347 7.73086 12.5413 7.77948 12.6586C7.8281 12.7758 7.85313 12.9016 7.85313 13.0285C7.85313 13.1555 7.8281 13.2812 7.77948 13.3985C7.73086 13.5158 7.65959 13.6223 7.56976 13.712L5.51476 15.764C5.33495 15.9435 5.19229 16.1566 5.09495 16.3913C4.99762 16.6259 4.94752 16.8775 4.94752 17.1315C4.94752 17.3856 4.99762 17.6371 5.09495 17.8718C5.19229 18.1064 5.33495 18.3196 5.51476 18.499C5.87843 18.8618 6.37111 19.0655 6.88476 19.0655C7.3984 19.0655 7.89108 18.8618 8.25476 18.499L13.0488 13.712C13.1386 13.6223 13.2099 13.5158 13.2585 13.3985C13.3071 13.2812 13.3321 13.1555 13.3321 13.0285C13.3321 12.9016 13.3071 12.7758 13.2585 12.6586C13.2099 12.5413 13.1386 12.4347 13.0488 12.345C12.9588 12.2553 12.8874 12.1487 12.8387 12.0313C12.79 11.9139 12.7649 11.7881 12.7649 11.661C12.7649 11.5339 12.79 11.4081 12.8387 11.2907C12.8874 11.1734 12.9588 11.0668 13.0488 10.977C13.2306 10.7957 13.4769 10.6938 13.7338 10.6938C13.9906 10.6938 14.2369 10.7957 14.4188 10.977C14.6886 11.2462 14.9026 11.566 15.0486 11.918C15.1947 12.27 15.2699 12.6474 15.2699 13.0285C15.2699 13.4096 15.1947 13.787 15.0486 14.139C14.9026 14.4911 14.6886 14.8108 14.4188 15.08L9.62376 19.867C8.89654 20.5927 7.91113 21.0003 6.88376 21.0003C5.85639 21.0003 4.87098 20.5927 4.14376 19.867C3.78413 19.5081 3.49882 19.0818 3.30415 18.6125C3.10948 18.1432 3.00928 17.6401 3.00928 17.132C3.00928 16.6239 3.10948 16.1209 3.30415 15.6515C3.49882 15.1822 3.78413 14.7559 4.14376 14.397L6.19976 12.344V12.345ZM17.8198 11.655C17.6379 11.8364 17.3916 11.9382 17.1348 11.9382C16.8779 11.9382 16.6316 11.8364 16.4498 11.655C16.3599 11.5653 16.2887 11.4588 16.24 11.3415C16.1914 11.2242 16.1664 11.0985 16.1664 10.9715C16.1664 10.8446 16.1914 10.7188 16.24 10.6016C16.2887 10.4843 16.3599 10.3777 16.4498 10.288L18.5048 8.23602C18.6846 8.05657 18.8272 7.84342 18.9246 7.60876C19.0219 7.37411 19.072 7.12256 19.072 6.86852C19.072 6.61448 19.0219 6.36294 18.9246 6.12828C18.8272 5.89363 18.6846 5.68048 18.5048 5.50102C18.1411 5.1383 17.6484 4.9346 17.1348 4.9346C16.6211 4.9346 16.1284 5.1383 15.7648 5.50102L10.9718 10.288C10.8819 10.3777 10.8107 10.4843 10.762 10.6016C10.7134 10.7188 10.6884 10.8446 10.6884 10.9715C10.6884 11.0985 10.7134 11.2242 10.762 11.3415C10.8107 11.4588 10.8819 11.5653 10.9718 11.655C11.0617 11.7448 11.1331 11.8514 11.1818 11.9687C11.2306 12.0861 11.2556 12.2119 11.2556 12.339C11.2556 12.4661 11.2306 12.5919 11.1818 12.7093C11.1331 12.8267 11.0617 12.9333 10.9718 13.023C10.7899 13.2044 10.5436 13.3062 10.2868 13.3062C10.0299 13.3062 9.7836 13.2044 9.60176 13.023C9.33196 12.7538 9.11792 12.4341 8.97187 12.082C8.82582 11.73 8.75065 11.3526 8.75065 10.9715C8.75065 10.5904 8.82582 10.213 8.97187 9.861C9.11792 9.50898 9.33196 9.18921 9.60176 8.92002L14.3968 4.13302C15.124 3.40732 16.1094 2.99976 17.1368 2.99976C18.1641 2.99976 19.1495 3.40732 19.8768 4.13302C20.2364 4.49193 20.5217 4.91824 20.7164 5.38755C20.911 5.85685 21.0112 6.35994 21.0112 6.86802C21.0112 7.3761 20.911 7.8792 20.7164 8.3485C20.5217 8.81781 20.2364 9.24412 19.8768 9.60302L17.8198 11.656V11.655Z" fill="#21272A"/>
</svg>
