<svg width="24" height="24" viewBox="0 0 24 24" fill="none" xmlns="http://www.w3.org/2000/svg">
<path d="M8.42377 10.828H14.0658C14.1971 10.828 14.3271 10.8539 14.4484 10.9041C14.5698 10.9544 14.68 11.028 14.7729 11.1209C14.8657 11.2138 14.9394 11.324 14.9896 11.4453C15.0399 11.5666 15.0658 11.6967 15.0658 11.828C15.0658 11.9593 15.0399 12.0894 14.9896 12.2107C14.9394 12.332 14.8657 12.4422 14.7729 12.5351C14.68 12.628 14.5698 12.7016 14.4484 12.7519C14.3271 12.8021 14.1971 12.828 14.0658 12.828H8.42377L9.54577 13.95C9.73327 14.1376 9.83856 14.3921 9.83847 14.6574C9.83837 14.9226 9.73291 15.177 9.54527 15.3645C9.35763 15.552 9.10318 15.6573 8.83791 15.6572C8.57264 15.6571 8.31827 15.5516 8.13077 15.364L5.30277 12.536C5.20943 12.4433 5.13535 12.3331 5.0848 12.2117C5.03425 12.0903 5.00823 11.96 5.00823 11.8285C5.00823 11.697 5.03425 11.5667 5.0848 11.4453C5.13535 11.3239 5.20943 11.2137 5.30277 11.121L8.12977 8.293C8.31727 8.10536 8.57164 7.99989 8.83691 7.9998C9.10218 7.9997 9.35663 8.10499 9.54427 8.2925C9.73191 8.48001 9.83737 8.73438 9.83747 8.99965C9.83756 9.26492 9.73227 9.51936 9.54477 9.707L8.42377 10.828ZM18.0098 3C18.275 3 18.5293 3.10536 18.7169 3.29289C18.9044 3.48043 19.0098 3.73478 19.0098 4V20C19.0098 20.2652 18.9044 20.5196 18.7169 20.7071C18.5293 20.8946 18.275 21 18.0098 21C17.7445 21 17.4902 20.8946 17.3027 20.7071C17.1151 20.5196 17.0098 20.2652 17.0098 20V4C17.0098 3.73478 17.1151 3.48043 17.3027 3.29289C17.4902 3.10536 17.7445 3 18.0098 3V3Z" fill="#21272A"/>
</svg>
