<svg width="24" height="24" viewBox="0 0 24 24" fill="none" xmlns="http://www.w3.org/2000/svg">
<path d="M11.6508 12.828H6.00977C5.74455 12.828 5.4902 12.7226 5.30266 12.5351C5.11512 12.3476 5.00977 12.0932 5.00977 11.828C5.00977 11.5628 5.11512 11.3084 5.30266 11.1209C5.4902 10.9334 5.74455 10.828 6.00977 10.828H11.6508L10.5308 9.708C10.3485 9.51953 10.2475 9.26699 10.2496 9.00479C10.2517 8.74259 10.3567 8.4917 10.5419 8.30616C10.7272 8.12062 10.978 8.01528 11.2402 8.01281C11.5024 8.01035 11.755 8.11097 11.9438 8.293L14.7728 11.12C14.8661 11.2127 14.9402 11.3229 14.9907 11.4443C15.0413 11.5657 15.0673 11.696 15.0673 11.8275C15.0673 11.959 15.0413 12.0893 14.9907 12.2107C14.9402 12.3321 14.8661 12.4423 14.7728 12.535L11.9438 15.363C11.7544 15.5408 11.5034 15.6379 11.2437 15.6339C10.984 15.6299 10.7361 15.525 10.5524 15.3414C10.3686 15.1578 10.2636 14.91 10.2593 14.6503C10.2551 14.3906 10.3521 14.1395 10.5298 13.95L11.6508 12.828ZM18.0098 3C18.275 3 18.5293 3.10536 18.7169 3.29289C18.9044 3.48043 19.0098 3.73478 19.0098 4V20C19.0098 20.2652 18.9044 20.5196 18.7169 20.7071C18.5293 20.8946 18.275 21 18.0098 21C17.7445 21 17.4902 20.8946 17.3027 20.7071C17.1151 20.5196 17.0098 20.2652 17.0098 20V4C17.0098 3.73478 17.1151 3.48043 17.3027 3.29289C17.4902 3.10536 17.7445 3 18.0098 3V3Z" fill="#21272A"/>
</svg>
