<svg width="24" height="24" viewBox="0 0 24 24" fill="none" xmlns="http://www.w3.org/2000/svg">
<path d="M14.0098 8V17C14.0098 17.2652 13.9044 17.5196 13.7169 17.7071C13.5293 17.8946 13.275 18 13.0098 18C12.7445 18 12.4902 17.8946 12.3027 17.7071C12.1151 17.5196 12.0098 17.2652 12.0098 17V12H11.0098C10.2141 12 9.45105 11.6839 8.88844 11.1213C8.32583 10.5587 8.00976 9.79565 8.00976 9C8.00976 8.20435 8.32583 7.44129 8.88844 6.87868C9.45105 6.31607 10.2141 6 11.0098 6H18.0098C18.275 6 18.5293 6.10536 18.7169 6.29289C18.9044 6.48043 19.0098 6.73478 19.0098 7C19.0098 7.26522 18.9044 7.51957 18.7169 7.70711C18.5293 7.89464 18.275 8 18.0098 8H17.0098V17C17.0098 17.2652 16.9044 17.5196 16.7169 17.7071C16.5293 17.8946 16.275 18 16.0098 18C15.7445 18 15.4902 17.8946 15.3027 17.7071C15.1151 17.5196 15.0098 17.2652 15.0098 17V8H14.0098ZM6.66676 15L5.29376 16.36C5.20397 16.4488 5.13268 16.5546 5.08402 16.6711C5.03537 16.7877 5.01032 16.9127 5.01032 17.039C5.01032 17.1653 5.03537 17.2903 5.08402 17.4069C5.13268 17.5234 5.20397 17.6292 5.29376 17.718C5.47662 17.8986 5.72327 17.9998 5.98026 17.9998C6.23726 17.9998 6.48391 17.8986 6.66676 17.718L8.72576 15.68C8.81586 15.5912 8.88741 15.4853 8.93624 15.3686C8.98508 15.2518 9.01022 15.1265 9.01022 15C9.01022 14.8735 8.98508 14.7482 8.93624 14.6314C8.88741 14.5147 8.81586 14.4088 8.72576 14.32L6.66576 12.282C6.48295 12.1017 6.23652 12.0007 5.97976 12.0007C5.72301 12.0007 5.47658 12.1017 5.29376 12.282C5.20381 12.3708 5.1324 12.4766 5.08365 12.5933C5.03491 12.7099 5.00981 12.8351 5.00981 12.9615C5.00981 13.0879 5.03491 13.2131 5.08365 13.3297C5.1324 13.4464 5.20381 13.5522 5.29376 13.641L6.66676 15ZM12.0098 8H11.0098C10.7445 8 10.4902 8.10536 10.3027 8.29289C10.1151 8.48043 10.0098 8.73478 10.0098 9C10.0098 9.26522 10.1151 9.51957 10.3027 9.70711C10.4902 9.89464 10.7445 10 11.0098 10H12.0098V8Z" fill="#21272A"/>
</svg>
