<svg width="24" height="24" viewBox="0 0 24 24" fill="none" xmlns="http://www.w3.org/2000/svg">
<path d="M17 10V18H15V10H9V18H7V10C6.20435 10 5.44129 10.3161 4.87868 10.8787C4.31607 11.4413 4 12.2044 4 13V15C4 15.7957 4.31607 16.5587 4.87868 17.1213C5.44129 17.6839 6.20435 18 7 18H17C17.7956 18 18.5587 17.6839 19.1213 17.1213C19.6839 16.5587 20 15.7957 20 15V13C20 12.2044 19.6839 11.4413 19.1213 10.8787C18.5587 10.3161 17.7956 10 17 10ZM9.17 8H14.83C14.622 7.41583 14.2384 6.91033 13.7317 6.55288C13.225 6.19542 12.6201 6.00353 12 6.00353C11.3799 6.00353 10.775 6.19542 10.2683 6.55288C9.76163 6.91033 9.37798 7.41583 9.17 8ZM7.1 8C7.33148 6.87136 7.94549 5.85723 8.83827 5.12898C9.73105 4.40072 10.8479 4.00299 12 4.00299C13.1521 4.00299 14.2689 4.40072 15.1617 5.12898C16.0545 5.85723 16.6685 6.87136 16.9 8H17C18.3261 8 19.5979 8.52678 20.5355 9.46447C21.4732 10.4021 22 11.6739 22 13V15C22 16.3261 21.4732 17.5979 20.5355 18.5355C19.5979 19.4732 18.3261 20 17 20H7C5.67392 20 4.40215 19.4732 3.46447 18.5355C2.52678 17.5979 2 16.3261 2 15V13C2 11.6739 2.52678 10.4021 3.46447 9.46447C4.40215 8.52678 5.67392 8 7 8H7.1Z" fill="#21272A"/>
</svg>
