<svg width="24" height="24" viewBox="0 0 24 24" fill="none" xmlns="http://www.w3.org/2000/svg">
<path d="M15.243 8.67198L18.778 5.13598L18.071 4.42898L14.536 7.96398L15.243 8.67198ZM13.828 10.086L13.121 9.37898L3.93 18.57L4.637 19.277L13.829 10.085L13.828 10.086ZM18.778 2.30798L20.899 4.42798C20.992 4.52085 21.0657 4.63114 21.1161 4.75254C21.1664 4.87393 21.1923 5.00406 21.1923 5.13548C21.1923 5.26689 21.1664 5.39702 21.1161 5.51842C21.0657 5.63981 20.992 5.7501 20.899 5.84298L5.343 21.4C5.15547 21.5874 4.90116 21.6928 4.636 21.6928C4.37083 21.6928 4.11652 21.5874 3.929 21.4L1.808 19.28C1.71502 19.1871 1.64126 19.0768 1.59094 18.9554C1.54061 18.834 1.51471 18.7039 1.51471 18.5725C1.51471 18.4411 1.54061 18.3109 1.59094 18.1895C1.64126 18.0681 1.71502 17.9578 1.808 17.865L17.364 2.30798C17.5515 2.1205 17.8058 2.01519 18.071 2.01519C18.3362 2.01519 18.5905 2.1205 18.778 2.30798ZM9.586 1.59998L10.979 2.30398L12.414 1.59998L11.734 3.05998L12.414 4.42798L11.03 3.76398L9.586 4.42798L10.275 3.00798L9.585 1.59998H9.586ZM19.486 8.66998L20.879 9.37498L22.314 8.67098L21.634 10.131L22.314 11.499L20.93 10.835L19.485 11.499L20.175 10.079L19.485 8.67098L19.486 8.66998Z" fill="#21272A"/>
</svg>
