<svg width="24" height="24" viewBox="0 0 24 24" fill="none" xmlns="http://www.w3.org/2000/svg">
<path d="M15 14C15 11.122 13.484 9 12 9C10.516 9 9 11.122 9 14V20C9 20.5304 8.78929 21.0391 8.41421 21.4142C8.03914 21.7893 7.53043 22 7 22H4C3.46957 22 2.96086 21.7893 2.58579 21.4142C2.21071 21.0391 2 20.5304 2 20V14C2 7.373 6.477 2 12 2C17.523 2 22 7.373 22 14V20C22 20.5304 21.7893 21.0391 21.4142 21.4142C21.0391 21.7893 20.5304 22 20 22H17C16.4696 22 15.9609 21.7893 15.5858 21.4142C15.2107 21.0391 15 20.5304 15 20V14ZM17 14H20C20 8.405 16.33 4 12 4C7.67 4 4 8.405 4 14H7C7 10.134 9.239 7 12 7C14.761 7 17 10.134 17 14ZM4 20H7V16H4V20ZM17 20H20V16H17V20Z" fill="#21272A"/>
</svg>
