<svg width="24" height="24" viewBox="0 0 24 24" fill="none" xmlns="http://www.w3.org/2000/svg">
<path d="M6.864 17.136C7.32755 17.6036 7.8789 17.9751 8.4864 18.2291C9.0939 18.483 9.74558 18.6145 10.404 18.616C11.0625 18.6174 11.7147 18.4888 12.3233 18.2375C12.9319 17.9861 13.4849 17.6171 13.9505 17.1515C14.4161 16.6859 14.7852 16.1329 15.0365 15.5243C15.2878 14.9157 15.4164 14.2635 15.415 13.605C15.4135 12.9466 15.282 12.2949 15.0281 11.6874C14.7741 11.0799 14.4026 10.5285 13.935 10.065C12.9959 9.13409 11.7263 8.61308 10.404 8.61598C9.08175 8.61887 7.81445 9.14543 6.87945 10.0804C5.94445 11.0154 5.41789 12.2827 5.41499 13.605C5.4121 14.9273 5.9331 16.1969 6.864 17.136ZM14.592 7.99398L17.145 5.44098H15.628C15.3628 5.44098 15.1084 5.33563 14.9209 5.14809C14.7334 4.96055 14.628 4.7062 14.628 4.44098C14.628 4.17577 14.7334 3.92141 14.9209 3.73388C15.1084 3.54634 15.3628 3.44098 15.628 3.44098H19.628C19.7594 3.44059 19.8896 3.46618 20.0111 3.5163C20.1327 3.56641 20.243 3.64006 20.336 3.73299C20.4289 3.82593 20.5026 3.93633 20.5527 4.05783C20.6028 4.17934 20.6284 4.30955 20.628 4.44098V8.44098C20.628 8.7062 20.5226 8.96055 20.3351 9.14809C20.1476 9.33563 19.8932 9.44098 19.628 9.44098C19.3628 9.44098 19.1084 9.33563 18.9209 9.14809C18.7334 8.96055 18.628 8.7062 18.628 8.44098V6.78598L16.006 9.40798C17.0586 10.826 17.5365 12.5894 17.3439 14.3449C17.1513 16.1003 16.3025 17.7182 14.9676 18.8743C13.6326 20.0305 11.9101 20.6395 10.1452 20.5793C8.3802 20.5192 6.70314 19.7943 5.45 18.55C4.19783 17.2987 3.46622 15.6195 3.40249 13.8505C3.33876 12.0814 3.94763 10.3539 5.10651 9.0158C6.26539 7.67768 7.88821 6.82831 9.64822 6.63871C11.4082 6.44912 13.1747 6.93337 14.592 7.99398Z" fill="#21272A"/>
</svg>
