<svg width="24" height="24" viewBox="0 0 24 24" fill="none" xmlns="http://www.w3.org/2000/svg">
<path d="M17.0098 9C17.0098 7.67392 16.483 6.40215 15.5453 5.46447C14.6076 4.52678 13.3358 4 12.0098 4C10.6837 4 9.41191 4.52678 8.47423 5.46447C7.53655 6.40215 7.00977 7.67392 7.00977 9C7.00977 10.726 8.66977 14.031 12.0098 18.653C15.3498 14.031 17.0098 10.726 17.0098 9ZM12.0098 22C7.34277 15.91 5.00977 11.577 5.00977 9C5.00977 7.14348 5.74726 5.36301 7.06002 4.05025C8.37277 2.7375 10.1533 2 12.0098 2C13.8663 2 15.6468 2.7375 16.9595 4.05025C18.2723 5.36301 19.0098 7.14348 19.0098 9C19.0098 11.577 16.6768 15.91 12.0098 22ZM12.0098 13C10.9489 13 9.93148 12.5786 9.18134 11.8284C8.43119 11.0783 8.00977 10.0609 8.00977 9C8.00977 7.93913 8.43119 6.92172 9.18134 6.17157C9.93148 5.42143 10.9489 5 12.0098 5C13.0706 5 14.088 5.42143 14.8382 6.17157C15.5883 6.92172 16.0098 7.93913 16.0098 9C16.0098 10.0609 15.5883 11.0783 14.8382 11.8284C14.088 12.5786 13.0706 13 12.0098 13ZM12.0098 11C12.5402 11 13.0489 10.7893 13.424 10.4142C13.7991 10.0391 14.0098 9.53043 14.0098 9C14.0098 8.46957 13.7991 7.96086 13.424 7.58579C13.0489 7.21071 12.5402 7 12.0098 7C11.4793 7 10.9706 7.21071 10.5956 7.58579C10.2205 7.96086 10.0098 8.46957 10.0098 9C10.0098 9.53043 10.2205 10.0391 10.5956 10.4142C10.9706 10.7893 11.4793 11 12.0098 11Z" fill="#21272A"/>
</svg>
