<svg width="24" height="24" viewBox="0 0 24 24" fill="none" xmlns="http://www.w3.org/2000/svg">
<path d="M4 19.613L7.419 18.473C7.60936 18.4094 7.80338 18.3573 8 18.317V4.38698L4 5.72098V19.613ZM3.338 21.941C3.18705 21.9952 3.02528 22.0123 2.86633 21.9909C2.70738 21.9694 2.55592 21.9101 2.42473 21.8178C2.29354 21.7255 2.18647 21.6031 2.11255 21.4607C2.03862 21.3184 2.00002 21.1604 2 21V4.99998C1.99996 4.78607 2.06851 4.57779 2.19558 4.40572C2.32265 4.23365 2.50155 4.10686 2.706 4.04398L7.419 2.47298C8.44525 2.13093 9.55475 2.13093 10.581 2.47298L14.051 3.62998C14.667 3.83538 15.333 3.83538 15.949 3.62998L20.662 2.05898C20.8129 2.00477 20.9747 1.98766 21.1337 2.0091C21.2926 2.03053 21.4441 2.08989 21.5753 2.18216C21.7065 2.27442 21.8135 2.39689 21.8875 2.53922C21.9614 2.68156 22 2.83959 22 2.99998V19C22 19.2139 21.9315 19.4222 21.8044 19.5942C21.6773 19.7663 21.4985 19.8931 21.294 19.956L16.581 21.527C15.5548 21.869 14.4452 21.869 13.419 21.527L9.949 20.37C9.33301 20.1646 8.66699 20.1646 8.051 20.37L3.338 21.941ZM20 18.28V4.38698L16.581 5.52698C16.3906 5.59059 16.1966 5.64268 16 5.68298V19.613L20 18.279V18.28ZM14 19.614V5.68298C13.8034 5.64268 13.6094 5.59059 13.419 5.52698L10 4.38698V18.317C10.1966 18.3573 10.3906 18.4094 10.581 18.473L14 19.613V19.614Z" fill="#21272A"/>
</svg>
