<svg width="24" height="24" viewBox="0 0 24 24" fill="none" xmlns="http://www.w3.org/2000/svg">
<path d="M12.0098 7.52C13.7698 6.84 15.2698 6.5 16.5098 6.5C17.9685 6.5 19.3674 7.07946 20.3989 8.11091C21.4303 9.14236 22.0098 10.5413 22.0098 12C22.0098 13.4587 21.4303 14.8576 20.3989 15.8891C19.3674 16.9205 17.9685 17.5 16.5098 17.5C15.2698 17.5 13.7698 17.148 12.0098 16.443C10.2498 17.148 8.74977 17.5 7.50977 17.5C6.05107 17.5 4.65213 16.9205 3.62068 15.8891C2.58923 14.8576 2.00977 13.4587 2.00977 12C2.00977 10.5413 2.58923 9.14236 3.62068 8.11091C4.65213 7.07946 6.05107 6.5 7.50977 6.5C8.74977 6.5 10.2498 6.84 12.0098 7.52ZM12.7308 9.386L12.0098 9.664L11.2888 9.386C9.74077 8.788 8.47277 8.5 7.50977 8.5C6.58151 8.5 5.69127 8.86875 5.03489 9.52513C4.37851 10.1815 4.00977 11.0717 4.00977 12C4.00977 12.9283 4.37851 13.8185 5.03489 14.4749C5.69127 15.1313 6.58151 15.5 7.50977 15.5C8.46277 15.5 9.72477 15.204 11.2668 14.587L12.0098 14.289L12.7528 14.587C14.2948 15.204 15.5568 15.5 16.5098 15.5C17.438 15.5 18.3283 15.1313 18.9846 14.4749C19.641 13.8185 20.0098 12.9283 20.0098 12C20.0098 11.0717 19.641 10.1815 18.9846 9.52513C18.3283 8.86875 17.438 8.5 16.5098 8.5C15.5468 8.5 14.2788 8.788 12.7308 9.386ZM8.00977 13.5C6.90477 13.5 6.00977 12.828 6.00977 12C6.00977 11.172 6.90477 10.5 8.00977 10.5C9.11477 10.5 10.0098 11.172 10.0098 12C10.0098 12.828 9.11477 13.5 8.00977 13.5ZM16.0098 13.5C14.9048 13.5 14.0098 12.828 14.0098 12C14.0098 11.172 14.9048 10.5 16.0098 10.5C17.1148 10.5 18.0098 11.172 18.0098 12C18.0098 12.828 17.1148 13.5 16.0098 13.5Z" fill="#21272A"/>
</svg>
