<svg width="24" height="24" viewBox="0 0 24 24" fill="none" xmlns="http://www.w3.org/2000/svg">
<path d="M8.00977 15.517L7.39777 14.259C7.30543 14.0682 7.15485 13.9116 6.96777 13.812L4.96777 12.752C4.76194 12.6425 4.60083 12.4646 4.51227 12.2489C4.42371 12.0333 4.41328 11.7935 4.48277 11.571L5.19277 9.29797C5.25335 9.10393 5.25335 8.89602 5.19277 8.70197L4.48277 6.42897C4.4131 6.2062 4.42355 5.96608 4.51231 5.75021C4.60107 5.53433 4.76255 5.35631 4.96877 5.24697L6.96777 4.18697C7.1547 4.08757 7.30526 3.93141 7.39777 3.74097L8.40277 1.67397C8.50941 1.45477 8.69246 1.28206 8.91749 1.18833C9.14252 1.0946 9.39404 1.08629 9.62477 1.16497L11.6868 1.86797C11.8962 1.93944 12.1234 1.93944 12.3328 1.86797L14.3948 1.16497C14.6256 1.08636 14.8772 1.09482 15.1023 1.18874C15.3273 1.28266 15.5103 1.45558 15.6168 1.67497L16.6218 3.74097C16.7141 3.93178 16.8647 4.08831 17.0518 4.18797L19.0518 5.24797C19.2576 5.35743 19.4187 5.53536 19.5073 5.751C19.5958 5.96665 19.6063 6.20645 19.5368 6.42897L18.8268 8.70197C18.7662 8.89602 18.7662 9.10393 18.8268 9.29797L19.5368 11.571C19.6064 11.7937 19.596 12.0339 19.5072 12.2497C19.4185 12.4656 19.257 12.6436 19.0508 12.753L17.0518 13.813C16.8648 13.9124 16.7143 14.0685 16.6218 14.259L16.0098 15.517V22.396L12.0098 21.038L8.00977 22.396V15.516V15.517ZM10.0098 16.704V19.604L12.0098 18.925L14.0098 19.605V16.704L12.3328 16.132C12.1234 16.0605 11.8962 16.0605 11.6868 16.132L10.0098 16.704ZM14.8228 13.384C15.1009 12.8118 15.5537 12.3429 16.1158 12.045L17.3798 11.375L16.9178 9.89497C16.7356 9.31221 16.7356 8.68774 16.9178 8.10497L17.3798 6.62497L16.1158 5.95497C15.5535 5.65676 15.1007 5.18748 14.8228 4.61497L14.2038 3.34297L12.9778 3.76097C12.3502 3.97492 11.6694 3.97492 11.0418 3.76097L9.81577 3.34297L9.19677 4.61597C8.91864 5.18811 8.46583 5.65702 7.90377 5.95497L6.63977 6.62497L7.10177 8.10497C7.28392 8.68774 7.28392 9.31221 7.10177 9.89497L6.63977 11.375L7.90377 12.045C8.46599 12.3432 8.91881 12.8125 9.19677 13.385L9.81577 14.657L11.0418 14.239C11.6694 14.025 12.3502 14.025 12.9778 14.239L14.2038 14.657L14.8228 13.384ZM12.0098 5.99997C12.275 5.99997 12.5293 6.10533 12.7169 6.29287C12.9044 6.4804 13.0098 6.73476 13.0098 6.99997V11C13.0098 11.2652 12.9044 11.5195 12.7169 11.7071C12.5293 11.8946 12.275 12 12.0098 12C11.7446 12 11.4902 11.8946 11.3027 11.7071C11.1151 11.5195 11.0098 11.2652 11.0098 11V6.99997C11.0098 6.73476 11.1151 6.4804 11.3027 6.29287C11.4902 6.10533 11.7446 5.99997 12.0098 5.99997Z" fill="#21272A"/>
</svg>
