<svg width="24" height="24" viewBox="0 0 24 24" fill="none" xmlns="http://www.w3.org/2000/svg">
<path d="M8.19577 9.632C8.20205 9.57097 8.19393 9.50932 8.17204 9.452C8.15016 9.39469 8.11513 9.34331 8.06977 9.302L7.13577 8.17V8H10.0358L12.2758 12.952L14.2458 8H17.0098V8.17L16.2118 8.94C16.1778 8.96607 16.1516 9.00086 16.136 9.04067C16.1203 9.08048 16.1157 9.1238 16.1228 9.166V14.834C16.1159 14.876 16.1206 14.9192 16.1362 14.9588C16.1519 14.9984 16.178 15.033 16.2118 15.059L16.9918 15.831V16H13.0698V15.83L13.8768 15.04C13.9568 14.96 13.9568 14.937 13.9568 14.815V10.234L11.7098 15.981H11.4068L8.79277 10.234V14.086C8.78203 14.1658 8.7895 14.2471 8.81461 14.3236C8.83972 14.4002 8.88182 14.47 8.93777 14.528L9.98777 15.812V15.982H7.00977V15.812L8.05977 14.528C8.11532 14.47 8.15655 14.3999 8.18017 14.3231C8.20378 14.2464 8.20912 14.1652 8.19577 14.086V9.632Z" fill="#21272A"/>
<path d="M6.00977 4C5.47933 4 4.97062 4.21071 4.59555 4.58579C4.22048 4.96086 4.00977 5.46957 4.00977 6V18C4.00977 18.5304 4.22048 19.0391 4.59555 19.4142C4.97062 19.7893 5.47933 20 6.00977 20H18.0098C18.5402 20 19.0489 19.7893 19.424 19.4142C19.7991 19.0391 20.0098 18.5304 20.0098 18V6C20.0098 5.46957 19.7991 4.96086 19.424 4.58579C19.0489 4.21071 18.5402 4 18.0098 4H6.00977ZM6.00977 2H18.0098C19.0706 2 20.088 2.42143 20.8382 3.17157C21.5883 3.92172 22.0098 4.93913 22.0098 6V18C22.0098 19.0609 21.5883 20.0783 20.8382 20.8284C20.088 21.5786 19.0706 22 18.0098 22H6.00977C4.9489 22 3.93148 21.5786 3.18134 20.8284C2.43119 20.0783 2.00977 19.0609 2.00977 18V6C2.00977 4.93913 2.43119 3.92172 3.18134 3.17157C3.93148 2.42143 4.9489 2 6.00977 2V2Z" fill="#21272A"/>
</svg>
