<svg width="24" height="24" viewBox="0 0 24 24" fill="none" xmlns="http://www.w3.org/2000/svg">
<path d="M9.00977 14.917V15.5C9.00977 16.6935 9.48387 17.8381 10.3278 18.682C11.1717 19.5259 12.3163 20 13.5098 20C14.7032 20 15.8478 19.5259 16.6917 18.682C17.5357 17.8381 18.0098 16.6935 18.0098 15.5V13.83C17.3423 13.5941 16.7797 13.1298 16.4214 12.5192C16.0631 11.9086 15.9323 11.191 16.052 10.4932C16.1716 9.79545 16.5341 9.16246 17.0754 8.70613C17.6167 8.2498 18.3018 7.99951 19.0098 7.99951C19.7177 7.99951 20.4029 8.2498 20.9441 8.70613C21.4854 9.16246 21.8479 9.79545 21.9676 10.4932C22.0873 11.191 21.9564 11.9086 21.5981 12.5192C21.2399 13.1298 20.6773 13.5941 20.0098 13.83V15.5C20.0098 17.2239 19.3249 18.8772 18.106 20.0962C16.887 21.3152 15.2337 22 13.5098 22C11.7859 22 10.1326 21.3152 8.91357 20.0962C7.69458 18.8772 7.00977 17.2239 7.00977 15.5V14.917C5.61169 14.6803 4.34258 13.9562 3.42737 12.8732C2.51215 11.7901 2.00995 10.418 2.00977 9L2.00977 4C2.00977 3.46957 2.22048 2.96086 2.59555 2.58579C2.97062 2.21071 3.47933 2 4.00977 2H5.00977C5.27498 2 5.52934 2.10536 5.71687 2.29289C5.90441 2.48043 6.00977 2.73478 6.00977 3C6.00977 3.26522 5.90441 3.51957 5.71687 3.70711C5.52934 3.89464 5.27498 4 5.00977 4H4.00977V9C4.00977 10.0609 4.43119 11.0783 5.18134 11.8284C5.93148 12.5786 6.9489 13 8.00977 13C9.07063 13 10.088 12.5786 10.8382 11.8284C11.5883 11.0783 12.0098 10.0609 12.0098 9V4H11.0098C10.7445 4 10.4902 3.89464 10.3027 3.70711C10.1151 3.51957 10.0098 3.26522 10.0098 3C10.0098 2.73478 10.1151 2.48043 10.3027 2.29289C10.4902 2.10536 10.7445 2 11.0098 2H12.0098C12.5402 2 13.0489 2.21071 13.424 2.58579C13.7991 2.96086 14.0098 3.46957 14.0098 4V9C14.0096 10.418 13.5074 11.7901 12.5922 12.8732C11.677 13.9562 10.4078 14.6803 9.00977 14.917ZM19.0098 12C19.275 12 19.5293 11.8946 19.7169 11.7071C19.9044 11.5196 20.0098 11.2652 20.0098 11C20.0098 10.7348 19.9044 10.4804 19.7169 10.2929C19.5293 10.1054 19.275 10 19.0098 10C18.7445 10 18.4902 10.1054 18.3027 10.2929C18.1151 10.4804 18.0098 10.7348 18.0098 11C18.0098 11.2652 18.1151 11.5196 18.3027 11.7071C18.4902 11.8946 18.7445 12 19.0098 12Z" fill="#21272A"/>
</svg>
