<svg width="24" height="24" viewBox="0 0 24 24" fill="none" xmlns="http://www.w3.org/2000/svg">
<path d="M4.38177 7.264C4.39402 7.14227 4.37761 7.01935 4.33385 6.9051C4.29009 6.79084 4.2202 6.68841 4.12977 6.606L2.26177 4.339V4H8.05977L12.5418 13.905L16.4818 4H22.0098V4.339L20.4128 5.88C20.3451 5.93225 20.2929 6.00189 20.2617 6.0815C20.2305 6.16111 20.2216 6.24769 20.2358 6.332V17.666C20.2216 17.7503 20.2305 17.8369 20.2617 17.9165C20.2929 17.9961 20.3451 18.0658 20.4128 18.118L21.9728 19.66V20H14.1298V19.661L15.7448 18.081C15.9038 17.921 15.9038 17.874 15.9038 17.63V8.468L11.4118 19.962H10.8058L5.57577 8.468V16.172C5.53277 16.496 5.63977 16.822 5.86577 17.056L7.96677 19.624V19.962H2.00977V19.624L4.10977 17.056C4.22088 16.9401 4.30334 16.7997 4.35057 16.6462C4.3978 16.4928 4.40848 16.3304 4.38177 16.172V7.264Z" fill="#21272A"/>
</svg>
