<svg width="24" height="24" viewBox="0 0 24 24" fill="none" xmlns="http://www.w3.org/2000/svg">
<path d="M12.0098 20C14.1315 20 16.1663 19.1571 17.6666 17.6569C19.1669 16.1566 20.0098 14.1217 20.0098 12C20.0098 9.87827 19.1669 7.84344 17.6666 6.34315C16.1663 4.84285 14.1315 4 12.0098 4C9.88803 4 7.8532 4.84285 6.35291 6.34315C4.85262 7.84344 4.00977 9.87827 4.00977 12C4.00977 14.1217 4.85262 16.1566 6.35291 17.6569C7.8532 19.1571 9.88803 20 12.0098 20ZM12.0098 22C6.48677 22 2.00977 17.523 2.00977 12C2.00977 6.477 6.48677 2 12.0098 2C17.5328 2 22.0098 6.477 22.0098 12C22.0098 17.523 17.5328 22 12.0098 22Z" fill="#21272A"/>
<path d="M8.19577 9.632C8.20205 9.57097 8.19393 9.50932 8.17204 9.452C8.15016 9.39469 8.11513 9.34331 8.06977 9.302L7.13577 8.17V8H10.0358L12.2758 12.952L14.2458 8H17.0098V8.17L16.2118 8.94C16.1778 8.96607 16.1516 9.00086 16.136 9.04067C16.1203 9.08048 16.1157 9.1238 16.1228 9.166V14.834C16.1159 14.876 16.1206 14.9192 16.1362 14.9588C16.1519 14.9984 16.178 15.033 16.2118 15.059L16.9918 15.831V16H13.0698V15.83L13.8768 15.04C13.9568 14.96 13.9568 14.937 13.9568 14.815V10.234L11.7098 15.981H11.4068L8.79277 10.234V14.086C8.78203 14.1658 8.7895 14.2471 8.81461 14.3236C8.83972 14.4002 8.88182 14.47 8.93777 14.528L9.98777 15.812V15.982H7.00977V15.812L8.05977 14.528C8.11532 14.47 8.15655 14.3999 8.18017 14.3231C8.20378 14.2464 8.20912 14.1652 8.19577 14.086V9.632Z" fill="#21272A"/>
</svg>
