<svg width="24" height="24" viewBox="0 0 24 24" fill="none" xmlns="http://www.w3.org/2000/svg">
<path d="M6.00977 7H11.0098C11.275 7 11.5293 7.10536 11.7169 7.29289C11.9044 7.48043 12.0098 7.73478 12.0098 8C12.0098 8.26522 11.9044 8.51957 11.7169 8.70711C11.5293 8.89464 11.275 9 11.0098 9H6.00977C5.74455 9 5.4902 8.89464 5.30266 8.70711C5.11512 8.51957 5.00977 8.26522 5.00977 8C5.00977 7.73478 5.11512 7.48043 5.30266 7.29289C5.4902 7.10536 5.74455 7 6.00977 7V7ZM13.0098 15H18.0098C18.275 15 18.5293 15.1054 18.7169 15.2929C18.9044 15.4804 19.0098 15.7348 19.0098 16C19.0098 16.2652 18.9044 16.5196 18.7169 16.7071C18.5293 16.8946 18.275 17 18.0098 17H13.0098C12.7445 17 12.4902 16.8946 12.3027 16.7071C12.1151 16.5196 12.0098 16.2652 12.0098 16C12.0098 15.7348 12.1151 15.4804 12.3027 15.2929C12.4902 15.1054 12.7445 15 13.0098 15ZM6.00977 11H18.0098C18.275 11 18.5293 11.1054 18.7169 11.2929C18.9044 11.4804 19.0098 11.7348 19.0098 12C19.0098 12.2652 18.9044 12.5196 18.7169 12.7071C18.5293 12.8946 18.275 13 18.0098 13H6.00977C5.74455 13 5.4902 12.8946 5.30266 12.7071C5.11512 12.5196 5.00977 12.2652 5.00977 12C5.00977 11.7348 5.11512 11.4804 5.30266 11.2929C5.4902 11.1054 5.74455 11 6.00977 11Z" fill="#21272A"/>
</svg>
