<svg width="24" height="24" viewBox="0 0 24 24" fill="none" xmlns="http://www.w3.org/2000/svg">
<path d="M12.0098 6C12.275 6 12.5293 5.89464 12.7169 5.70711C12.9044 5.51957 13.0098 5.26522 13.0098 5C13.0098 4.73478 12.9044 4.48043 12.7169 4.29289C12.5293 4.10536 12.275 4 12.0098 4C11.7445 4 11.4902 4.10536 11.3027 4.29289C11.1151 4.48043 11.0098 4.73478 11.0098 5C11.0098 5.26522 11.1151 5.51957 11.3027 5.70711C11.4902 5.89464 11.7445 6 12.0098 6ZM11.0098 7.83C10.3436 7.59496 9.78164 7.13243 9.42291 6.52385C9.06418 5.91526 8.93165 5.19962 9.04866 4.50293C9.16566 3.80624 9.52469 3.17316 10.0625 2.71515C10.6004 2.25713 11.2826 2.00354 11.989 1.99902C12.6955 1.99451 13.3808 2.23935 13.9245 2.69045C14.4682 3.14155 14.8353 3.76999 14.9612 4.46513C15.0871 5.16026 14.9637 5.87753 14.6128 6.49066C14.2619 7.10379 13.7059 7.57346 13.0428 7.817V9.845C13.0428 9.919 13.0398 9.993 13.0348 10.066C13.0647 10.1979 13.1211 10.3224 13.2005 10.4319C13.2799 10.5413 13.3807 10.6336 13.4968 10.703L16.5828 12.549C17.028 12.8153 17.3966 13.1926 17.6525 13.6439C17.9084 14.0952 18.0428 14.6052 18.0428 15.124V16.183C18.7074 16.4269 19.2643 16.8979 19.6152 17.5128C19.9661 18.1277 20.0884 18.8468 19.9603 19.5431C19.8323 20.2393 19.4622 20.8679 18.9155 21.3177C18.3688 21.7675 17.6807 22.0095 16.9728 22.001C16.2649 21.9925 15.5828 21.7341 15.0471 21.2713C14.5113 20.8085 14.1564 20.1712 14.0451 19.4721C13.9338 18.7729 14.0733 18.0569 14.4388 17.4507C14.8044 16.8444 15.3725 16.3869 16.0428 16.159V15.124C16.0427 14.9511 15.9978 14.7811 15.9124 14.6308C15.8271 14.4804 15.7042 14.3547 15.5558 14.266L12.4698 12.42C12.3122 12.3258 12.1635 12.2174 12.0258 12.096C11.8883 12.2173 11.74 12.3258 11.5828 12.42L8.49676 14.266C8.34834 14.3547 8.22545 14.4804 8.14009 14.6308C8.05474 14.7811 8.00983 14.9511 8.00976 15.124V16.171C8.67726 16.4069 9.23986 16.8712 9.59812 17.4818C9.95639 18.0924 10.0873 18.81 9.96758 19.5078C9.8479 20.2056 9.4854 20.8385 8.94414 21.2949C8.40288 21.7512 7.71772 22.0015 7.00976 22.0015C6.30181 22.0015 5.61665 21.7512 5.07539 21.2949C4.53413 20.8385 4.17163 20.2056 4.05195 19.5078C3.93228 18.81 4.06314 18.0924 4.4214 17.4818C4.77967 16.8712 5.34227 16.4069 6.00976 16.171V15.124C6.00969 14.6052 6.14417 14.0952 6.40006 13.6439C6.65595 13.1926 7.02452 12.8153 7.46976 12.549L10.5558 10.703C10.6718 10.6336 10.7726 10.5413 10.8521 10.4319C10.9315 10.3224 10.9878 10.1979 11.0178 10.066C11.0124 9.99246 11.0097 9.91874 11.0098 9.845V7.829V7.83ZM7.00976 20C7.27498 20 7.52934 19.8946 7.71687 19.7071C7.90441 19.5196 8.00976 19.2652 8.00976 19C8.00976 18.7348 7.90441 18.4804 7.71687 18.2929C7.52934 18.1054 7.27498 18 7.00976 18C6.74455 18 6.49019 18.1054 6.30266 18.2929C6.11512 18.4804 6.00976 18.7348 6.00976 19C6.00976 19.2652 6.11512 19.5196 6.30266 19.7071C6.49019 19.8946 6.74455 20 7.00976 20ZM17.0098 20C17.275 20 17.5293 19.8946 17.7169 19.7071C17.9044 19.5196 18.0098 19.2652 18.0098 19C18.0098 18.7348 17.9044 18.4804 17.7169 18.2929C17.5293 18.1054 17.275 18 17.0098 18C16.7445 18 16.4902 18.1054 16.3027 18.2929C16.1151 18.4804 16.0098 18.7348 16.0098 19C16.0098 19.2652 16.1151 19.5196 16.3027 19.7071C16.4902 19.8946 16.7445 20 17.0098 20Z" fill="#21272A"/>
</svg>
