<svg width="24" height="24" viewBox="0 0 24 24" fill="none" xmlns="http://www.w3.org/2000/svg">
<path d="M13.0198 17.959C12.8338 17.977 11.3938 19.235 8.69877 21.733C8.55555 21.8658 8.37657 21.9538 8.18392 21.9861C7.99127 22.0184 7.79339 21.9935 7.61471 21.9146C7.43603 21.8357 7.28437 21.7061 7.17847 21.542C7.07256 21.3779 7.01704 21.1863 7.01877 20.991C7.03877 18.629 7.02977 17.282 6.99477 16.951C6.97677 16.778 7.02677 16.671 6.99477 16.651C4.71777 15.212 3.00977 12.775 3.00977 10.005C3.00977 5.584 7.03977 2 12.0098 2C16.9798 2 21.0098 5.584 21.0098 10.004C21.0098 14.121 17.5148 17.513 13.0198 17.959ZM9.02977 18.703C11.7068 16.24 12.0358 16.046 12.8218 15.968C16.3738 15.615 19.0098 13.01 19.0098 10.004C19.0098 6.744 15.9248 4.001 12.0098 4.001C8.09477 4.001 5.00977 6.745 5.00977 10.004C5.00977 11.897 6.18477 13.771 8.06377 14.961C8.84677 15.456 9.02177 16.078 9.00477 16.739C9.00324 16.7891 9.00024 16.8391 8.99577 16.889C9.01777 17.219 9.02777 17.809 9.02877 18.703H9.02977ZM15.0098 12C14.4793 12 13.9706 11.7893 13.5956 11.4142C13.2205 11.0391 13.0098 10.5304 13.0098 10C13.0098 9.46957 13.2205 8.96086 13.5956 8.58579C13.9706 8.21071 14.4793 8 15.0098 8C15.5402 8 16.0489 8.21071 16.424 8.58579C16.7991 8.96086 17.0098 9.46957 17.0098 10C17.0098 10.5304 16.7991 11.0391 16.424 11.4142C16.0489 11.7893 15.5402 12 15.0098 12ZM9.00977 12C8.47933 12 7.97062 11.7893 7.59555 11.4142C7.22048 11.0391 7.00977 10.5304 7.00977 10C7.00977 9.46957 7.22048 8.96086 7.59555 8.58579C7.97062 8.21071 8.47933 8 9.00977 8C9.5402 8 10.0489 8.21071 10.424 8.58579C10.7991 8.96086 11.0098 9.46957 11.0098 10C11.0098 10.5304 10.7991 11.0391 10.424 11.4142C10.0489 11.7893 9.5402 12 9.00977 12Z" fill="#21272A"/>
</svg>
