<svg width="24" height="24" viewBox="0 0 24 24" fill="none" xmlns="http://www.w3.org/2000/svg">
<path d="M9.41277 16.026L10.0528 15.916C10.1768 15.894 10.3248 15.862 10.4958 15.818C12.6098 15.288 14.0098 13.708 14.0098 12C14.0098 9.865 11.8338 8 9.00977 8C6.18577 8 4.00977 9.865 4.00977 12C4.00977 13.218 4.71177 14.378 5.94077 15.15L5.97677 15.17L7.00977 15.74V18.503L9.41277 16.026ZM10.3948 17.886L6.72777 21.666C6.58918 21.809 6.41108 21.9073 6.21627 21.9484C6.02147 21.9895 5.81882 21.9715 5.63429 21.8968C5.44975 21.822 5.29174 21.6939 5.18048 21.5288C5.06922 21.3637 5.00977 21.1691 5.00977 20.97V16.92C4.96509 16.8959 4.92107 16.8705 4.87777 16.844C3.13877 15.752 2.00977 13.989 2.00977 12C2.00977 8.686 5.14377 6 9.00977 6C12.8758 6 16.0098 8.686 16.0098 12C16.0098 14.726 13.8888 17.028 10.9838 17.758C10.7891 17.8079 10.5926 17.8506 10.3948 17.886ZM8.94577 5C10.1558 3.207 12.4198 2 15.0098 2C18.8758 2 22.0098 4.686 22.0098 8C22.0098 9.989 20.8798 11.752 19.1418 12.844C19.0985 12.8705 19.0544 12.8959 19.0098 12.92V16.97C19.0098 17.1691 18.9503 17.3637 18.8391 17.5288C18.7278 17.6939 18.5698 17.822 18.3852 17.8968C18.2007 17.9715 17.9981 17.9895 17.8033 17.9484C17.6084 17.9073 17.4303 17.809 17.2918 17.666L15.5568 15.878L16.5998 14.08L17.0098 14.503V11.74L18.0428 11.17L18.0788 11.15C19.3088 10.378 20.0098 9.218 20.0098 8C20.0098 5.865 17.8338 4 15.0098 4C13.7298 4 12.5838 4.383 11.7128 5H8.94577Z" fill="#21272A"/>
</svg>
