<svg width="24" height="24" viewBox="0 0 24 24" fill="none" xmlns="http://www.w3.org/2000/svg">
<path d="M8.98777 16.969C8.98795 16.958 8.98862 16.947 8.98977 16.936L8.98777 16.969ZM8.98877 16.802C8.9891 16.803 8.98943 16.804 8.98977 16.805V16.802H8.98877ZM9.02877 18.702C11.7068 16.24 12.0358 16.046 12.8218 15.968C16.3738 15.615 19.0098 13.01 19.0098 10.004C19.0098 6.744 15.9248 4.001 12.0098 4.001C8.09477 4.001 5.00977 6.745 5.00977 10.004C5.00977 11.897 6.18477 13.771 8.06377 14.961C8.84677 15.456 9.02177 16.078 9.00477 16.739C9.00324 16.7891 9.00024 16.8391 8.99577 16.889C9.01777 17.219 9.02777 17.809 9.02877 18.703V18.702ZM13.0188 17.959C12.8338 17.977 11.3938 19.235 8.69877 21.733C8.55555 21.8658 8.37657 21.9538 8.18392 21.9861C7.99127 22.0184 7.79339 21.9935 7.61471 21.9146C7.43603 21.8357 7.28437 21.7061 7.17847 21.542C7.07256 21.3779 7.01704 21.1863 7.01877 20.991C7.03877 18.629 7.02977 17.282 6.99477 16.951C6.97677 16.778 7.02677 16.671 6.99477 16.651C4.71777 15.212 3.00977 12.775 3.00977 10.005C3.00977 5.584 7.03977 2 12.0098 2C16.9798 2 21.0098 5.584 21.0098 10.004C21.0098 14.121 17.5148 17.513 13.0198 17.959H13.0188Z" fill="#21272A"/>
</svg>
