<svg width="24" height="24" viewBox="0 0 24 24" fill="none" xmlns="http://www.w3.org/2000/svg">
<path d="M11.3878 14.5H19.0098C19.275 14.5 19.5293 14.3946 19.7169 14.2071C19.9044 14.0196 20.0098 13.7652 20.0098 13.5V5.5C20.0098 5.23478 19.9044 4.98043 19.7169 4.79289C19.5293 4.60536 19.275 4.5 19.0098 4.5H5.00977C4.74455 4.5 4.4902 4.60536 4.30266 4.79289C4.11512 4.98043 4.00977 5.23478 4.00977 5.5V13.5C4.00977 13.7652 4.11512 14.0196 4.30266 14.2071C4.4902 14.3946 4.74455 14.5 5.00977 14.5C5.27498 14.5 5.52934 14.6054 5.71687 14.7929C5.90441 14.9804 6.00977 15.2348 6.00977 15.5V18.513L11.3878 14.5ZM5.00977 2.5H19.0098C19.8054 2.5 20.5685 2.81607 21.1311 3.37868C21.6937 3.94129 22.0098 4.70435 22.0098 5.5V13.5C22.0098 14.2956 21.6937 15.0587 21.1311 15.6213C20.5685 16.1839 19.8054 16.5 19.0098 16.5H12.0518L5.60777 21.308C5.45905 21.419 5.28241 21.4863 5.09758 21.5026C4.91275 21.5189 4.72704 21.4835 4.56121 21.4003C4.39538 21.317 4.25598 21.1893 4.15859 21.0314C4.0612 20.8735 4.00967 20.6915 4.00977 20.506V16.5C3.47933 16.5 2.97062 16.2893 2.59555 15.9142C2.22048 15.5391 2.00977 15.0304 2.00977 14.5V5.5C2.00977 4.70435 2.32584 3.94129 2.88845 3.37868C3.45105 2.81607 4.21412 2.5 5.00977 2.5V2.5Z" fill="#21272A"/>
</svg>
