<svg width="24" height="24" viewBox="0 0 24 24" fill="none" xmlns="http://www.w3.org/2000/svg">
<path d="M5.66577 20.479C5.52219 20.6038 5.34597 20.6851 5.1578 20.7133C4.96963 20.7415 4.77732 20.7155 4.60345 20.6382C4.42958 20.5609 4.28137 20.4356 4.17621 20.2771C4.07105 20.1185 4.01331 19.9332 4.00977 19.743V17.5C3.47933 17.5 2.97062 17.2893 2.59555 16.9142C2.22048 16.5391 2.00977 16.0304 2.00977 15.5V8.5C2.00977 7.96957 2.22048 7.46086 2.59555 7.08579C2.97062 6.71071 3.47933 6.5 4.00977 6.5H15.0098C15.5402 6.5 16.0489 6.71071 16.424 7.08579C16.7991 7.46086 17.0098 7.96957 17.0098 8.5V15.5C17.0098 16.0304 16.7991 16.5391 16.424 16.9142C16.0489 17.2893 15.5402 17.5 15.0098 17.5H10.0128L5.66577 20.479ZM6.50977 17.386C6.60089 17.3855 6.69037 17.3617 6.76977 17.317L9.12477 15.679C9.29237 15.5624 9.49162 15.5 9.69577 15.5H14.0098C14.275 15.5 14.5293 15.3946 14.7169 15.2071C14.9044 15.0196 15.0098 14.7652 15.0098 14.5V9.5C15.0098 9.23478 14.9044 8.98043 14.7169 8.79289C14.5293 8.60536 14.275 8.5 14.0098 8.5H5.00977C4.74455 8.5 4.4902 8.60536 4.30266 8.79289C4.11512 8.98043 4.00977 9.23478 4.00977 9.5V14.5C4.00977 15.04 4.43877 15.482 5.00977 15.5C5.41977 15.516 5.71677 15.583 5.85377 15.726C5.98177 15.86 5.98877 16.086 6.00977 16.516C6.01277 16.579 6.01277 16.693 6.00977 16.886C6.00977 17.0186 6.06244 17.1458 6.15621 17.2396C6.24998 17.3333 6.37716 17.386 6.50977 17.386ZM18.0098 12.516C18.0066 12.6393 18.0066 12.7627 18.0098 12.886V12.516C18.0298 12.086 18.0378 11.86 18.1658 11.726C18.3028 11.583 18.5998 11.516 19.0098 11.5C19.5808 11.482 20.0098 11.04 20.0098 10.5V5.5C20.0098 5.23478 19.9044 4.98043 19.7169 4.79289C19.5293 4.60536 19.275 4.5 19.0098 4.5H10.0098C9.74455 4.5 9.4902 4.60536 9.30266 4.79289C9.11512 4.98043 9.00977 5.23478 9.00977 5.5H7.00977V4.5C7.00977 3.96957 7.22048 3.46086 7.59555 3.08579C7.97062 2.71071 8.47933 2.5 9.00977 2.5H20.0098C20.5402 2.5 21.0489 2.71071 21.424 3.08579C21.7991 3.46086 22.0098 3.96957 22.0098 4.5V11.5C22.0098 12.0304 21.7991 12.5391 21.424 12.9142C21.0489 13.2893 20.5402 13.5 20.0098 13.5V15.743C20.0062 15.9332 19.9485 16.1185 19.8433 16.2771C19.7382 16.4356 19.5899 16.5609 19.4161 16.6382C19.2422 16.7155 19.0499 16.7415 18.8617 16.7133C18.6736 16.6851 18.4973 16.6038 18.3538 16.479L18.0098 16.243V12.517V12.516Z" fill="#21272A"/>
</svg>
