<svg width="24" height="24" viewBox="0 0 24 24" fill="none" xmlns="http://www.w3.org/2000/svg">
<path d="M12.0098 4C11.2141 4 10.4511 4.31607 9.88845 4.87868C9.32584 5.44129 9.00977 6.20435 9.00977 7V13C9.00977 13.7956 9.32584 14.5587 9.88845 15.1213C10.4511 15.6839 11.2141 16 12.0098 16C12.8054 16 13.5685 15.6839 14.1311 15.1213C14.6937 14.5587 15.0098 13.7956 15.0098 13V7C15.0098 6.20435 14.6937 5.44129 14.1311 4.87868C13.5685 4.31607 12.8054 4 12.0098 4ZM12.0098 2C12.6664 2 13.3166 2.12933 13.9232 2.3806C14.5298 2.63188 15.081 3.00017 15.5453 3.46447C16.0096 3.92876 16.3779 4.47995 16.6292 5.08658C16.8804 5.69321 17.0098 6.34339 17.0098 7V13C17.0098 14.3261 16.483 15.5979 15.5453 16.5355C14.6076 17.4732 13.3358 18 12.0098 18C10.6837 18 9.41191 17.4732 8.47423 16.5355C7.53655 15.5979 7.00977 14.3261 7.00977 13V7C7.00977 5.67392 7.53655 4.40215 8.47423 3.46447C9.41191 2.52678 10.6837 2 12.0098 2V2ZM3.00977 13.03C3.00977 12.7648 3.11512 12.5104 3.30266 12.3229C3.4902 12.1354 3.74455 12.03 4.00977 12.03C4.27498 12.03 4.52934 12.1354 4.71687 12.3229C4.90441 12.5104 5.00977 12.7648 5.00977 13.03C5.00977 14.8786 5.7441 16.6514 7.05123 17.9585C8.35836 19.2657 10.1312 20 11.9798 20H12.0398C13.8883 20 15.6612 19.2657 16.9683 17.9585C18.2754 16.6514 19.0098 14.8786 19.0098 13.03C19.0098 12.7648 19.1151 12.5104 19.3027 12.3229C19.4902 12.1354 19.7445 12.03 20.0098 12.03C20.275 12.03 20.5293 12.1354 20.7169 12.3229C20.9044 12.5104 21.0098 12.7648 21.0098 13.03C21.0098 15.409 20.0647 17.6905 18.3825 19.3727C16.7003 21.0549 14.4188 22 12.0398 22H11.9798C9.60077 22 7.31922 21.0549 5.63702 19.3727C3.95482 17.6905 3.00977 15.409 3.00977 13.03H3.00977Z" fill="#21272A"/>
</svg>
