<svg width="24" height="24" viewBox="0 0 24 24" fill="none" xmlns="http://www.w3.org/2000/svg">
<path d="M6.00977 2H18.0098C19.0706 2 20.088 2.42143 20.8382 3.17157C21.5883 3.92172 22.0098 4.93913 22.0098 6V18C22.0098 19.0609 21.5883 20.0783 20.8382 20.8284C20.088 21.5786 19.0706 22 18.0098 22H6.00977C4.9489 22 3.93148 21.5786 3.18134 20.8284C2.43119 20.0783 2.00977 19.0609 2.00977 18V6C2.00977 4.93913 2.43119 3.92172 3.18134 3.17157C3.93148 2.42143 4.9489 2 6.00977 2V2ZM6.00977 4C5.47933 4 4.97062 4.21071 4.59555 4.58579C4.22048 4.96086 4.00977 5.46957 4.00977 6V18C4.00977 18.5304 4.22048 19.0391 4.59555 19.4142C4.97062 19.7893 5.47933 20 6.00977 20H18.0098C18.5402 20 19.0489 19.7893 19.424 19.4142C19.7991 19.0391 20.0098 18.5304 20.0098 18V6C20.0098 5.46957 19.7991 4.96086 19.424 4.58579C19.0489 4.21071 18.5402 4 18.0098 4H6.00977ZM12.0098 5.605C12.8054 5.605 13.5685 5.92107 14.1311 6.48368C14.6937 7.04629 15.0098 7.80935 15.0098 8.605V12.605C15.0098 13.4006 14.6937 14.1637 14.1311 14.7263C13.5685 15.2889 12.8054 15.605 12.0098 15.605C11.2141 15.605 10.4511 15.2889 9.88845 14.7263C9.32584 14.1637 9.00977 13.4006 9.00977 12.605V8.605C9.00977 7.80935 9.32584 7.04629 9.88845 6.48368C10.4511 5.92107 11.2141 5.605 12.0098 5.605ZM12.0098 7.605C11.7445 7.605 11.4902 7.71036 11.3027 7.89789C11.1151 8.08543 11.0098 8.33978 11.0098 8.605V12.605C11.0098 12.8702 11.1151 13.1246 11.3027 13.3121C11.4902 13.4996 11.7445 13.605 12.0098 13.605C12.275 13.605 12.5293 13.4996 12.7169 13.3121C12.9044 13.1246 13.0098 12.8702 13.0098 12.605V8.605C13.0098 8.33978 12.9044 8.08543 12.7169 7.89789C12.5293 7.71036 12.275 7.605 12.0098 7.605ZM6.00977 12.605C6.00977 12.3398 6.11512 12.0854 6.30266 11.8979C6.4902 11.7104 6.74455 11.605 7.00977 11.605C7.27498 11.605 7.52934 11.7104 7.71687 11.8979C7.90441 12.0854 8.00977 12.3398 8.00977 12.605V12.627C8.00977 13.6879 8.43119 14.7053 9.18134 15.4554C9.93148 16.2056 10.9489 16.627 12.0098 16.627C13.0706 16.627 14.088 16.2056 14.8382 15.4554C15.5883 14.7053 16.0098 13.6879 16.0098 12.627V12.605C16.0098 12.3398 16.1151 12.0854 16.3027 11.8979C16.4902 11.7104 16.7445 11.605 17.0098 11.605C17.275 11.605 17.5293 11.7104 17.7169 11.8979C17.9044 12.0854 18.0098 12.3398 18.0098 12.605V12.627C18.0098 14.2183 17.3776 15.7444 16.2524 16.8696C15.1272 17.9949 13.6011 18.627 12.0098 18.627C10.4185 18.627 8.89234 17.9949 7.76713 16.8696C6.64191 15.7444 6.00977 14.2183 6.00977 12.627V12.605Z" fill="#21272A"/>
</svg>
