<svg width="24" height="24" viewBox="0 0 24 24" fill="none" xmlns="http://www.w3.org/2000/svg">
<path d="M15.4748 16H14.0098C13.7445 16 13.4902 15.8946 13.3027 15.7071C13.1151 15.5196 13.0098 15.2652 13.0098 15C13.0098 14.7348 13.1151 14.4804 13.3027 14.2929C13.4902 14.1054 13.7445 14 14.0098 14H16.0098V12H14.0098C13.7445 12 13.4902 11.8946 13.3027 11.7071C13.1151 11.5196 13.0098 11.2652 13.0098 11C13.0098 10.7348 13.1151 10.4804 13.3027 10.2929C13.4902 10.1054 13.7445 10 14.0098 10H16.0098V8H14.0098C13.7445 8 13.4902 7.89464 13.3027 7.70711C13.1151 7.51957 13.0098 7.26522 13.0098 7C13.0098 6.73478 13.1151 6.48043 13.3027 6.29289C13.4902 6.10536 13.7445 6 14.0098 6H15.4748C15.1238 5.39165 14.6187 4.88651 14.0104 4.53541C13.4021 4.1843 12.7121 3.99964 12.0098 4C10.5298 4 9.23677 4.804 8.54477 6H10.0098C10.275 6 10.5293 6.10536 10.7169 6.29289C10.9044 6.48043 11.0098 6.73478 11.0098 7C11.0098 7.26522 10.9044 7.51957 10.7169 7.70711C10.5293 7.89464 10.275 8 10.0098 8H8.00977V10H10.0098C10.275 10 10.5293 10.1054 10.7169 10.2929C10.9044 10.4804 11.0098 10.7348 11.0098 11C11.0098 11.2652 10.9044 11.5196 10.7169 11.7071C10.5293 11.8946 10.275 12 10.0098 12H8.00977V14H10.0098C10.275 14 10.5293 14.1054 10.7169 14.2929C10.9044 14.4804 11.0098 14.7348 11.0098 15C11.0098 15.2652 10.9044 15.5196 10.7169 15.7071C10.5293 15.8946 10.275 16 10.0098 16H8.54477C8.89576 16.6083 9.40082 17.1135 10.0091 17.4646C10.6174 17.8157 11.3074 18.0004 12.0098 18C13.4898 18 14.7828 17.196 15.4748 16ZM13.9828 19.668C14.0308 19.9546 14.0158 20.2483 13.9388 20.5285C13.8618 20.8087 13.7246 21.0688 13.5369 21.2906C13.3491 21.5124 13.1153 21.6907 12.8516 21.8129C12.588 21.9352 12.3009 21.9985 12.0103 21.9985C11.7197 21.9985 11.4325 21.9352 11.1689 21.8129C10.9052 21.6907 10.6714 21.5124 10.4837 21.2906C10.2959 21.0688 10.1588 20.8087 10.0818 20.5285C10.0048 20.2483 9.98974 19.9546 10.0378 19.668C8.86118 19.2581 7.84129 18.4922 7.11954 17.4766C6.39779 16.461 6.00993 15.246 6.00977 14V8C6.00977 6.4087 6.64191 4.88258 7.76712 3.75736C8.89234 2.63214 10.4185 2 12.0098 2C13.6011 2 15.1272 2.63214 16.2524 3.75736C17.3776 4.88258 18.0098 6.4087 18.0098 8V14C18.0097 15.2458 17.622 16.4608 16.9004 17.4764C16.1788 18.492 15.1592 19.2579 13.9828 19.668Z" fill="#21272A"/>
</svg>
