<svg width="24" height="24" viewBox="0 0 24 24" fill="none" xmlns="http://www.w3.org/2000/svg">
<path d="M8.00977 5H16.0098C16.8054 5 17.5685 5.31607 18.1311 5.87868C18.6937 6.44129 19.0098 7.20435 19.0098 8V16C19.0098 16.7956 18.6937 17.5587 18.1311 18.1213C17.5685 18.6839 16.8054 19 16.0098 19H8.00977C7.21412 19 6.45105 18.6839 5.88845 18.1213C5.32584 17.5587 5.00977 16.7956 5.00977 16V8C5.00977 7.20435 5.32584 6.44129 5.88845 5.87868C6.45105 5.31607 7.21412 5 8.00977 5ZM8.00977 7C7.74455 7 7.4902 7.10536 7.30266 7.29289C7.11512 7.48043 7.00977 7.73478 7.00977 8V16C7.00977 16.2652 7.11512 16.5196 7.30266 16.7071C7.4902 16.8946 7.74455 17 8.00977 17H16.0098C16.275 17 16.5293 16.8946 16.7169 16.7071C16.9044 16.5196 17.0098 16.2652 17.0098 16V8C17.0098 7.73478 16.9044 7.48043 16.7169 7.29289C16.5293 7.10536 16.275 7 16.0098 7H8.00977ZM10.0098 9H14.0098C14.275 9 14.5293 9.10536 14.7169 9.29289C14.9044 9.48043 15.0098 9.73478 15.0098 10V14C15.0098 14.2652 14.9044 14.5196 14.7169 14.7071C14.5293 14.8946 14.275 15 14.0098 15H10.0098C9.74455 15 9.4902 14.8946 9.30266 14.7071C9.11512 14.5196 9.00977 14.2652 9.00977 14V10C9.00977 9.73478 9.11512 9.48043 9.30266 9.29289C9.4902 9.10536 9.74455 9 10.0098 9ZM11.0098 11V13H13.0098V11H11.0098ZM8.00977 2C8.27498 2 8.52934 2.10536 8.71687 2.29289C8.90441 2.48043 9.00977 2.73478 9.00977 3V5C9.00977 5.26522 8.90441 5.51957 8.71687 5.70711C8.52934 5.89464 8.27498 6 8.00977 6C7.74455 6 7.4902 5.89464 7.30266 5.70711C7.11512 5.51957 7.00977 5.26522 7.00977 5V3C7.00977 2.73478 7.11512 2.48043 7.30266 2.29289C7.4902 2.10536 7.74455 2 8.00977 2V2ZM3.00977 7H5.00977C5.27498 7 5.52934 7.10536 5.71687 7.29289C5.90441 7.48043 6.00977 7.73478 6.00977 8C6.00977 8.26522 5.90441 8.51957 5.71687 8.70711C5.52934 8.89464 5.27498 9 5.00977 9H3.00977C2.74455 9 2.4902 8.89464 2.30266 8.70711C2.11512 8.51957 2.00977 8.26522 2.00977 8C2.00977 7.73478 2.11512 7.48043 2.30266 7.29289C2.4902 7.10536 2.74455 7 3.00977 7ZM19.0098 7H21.0098C21.275 7 21.5293 7.10536 21.7169 7.29289C21.9044 7.48043 22.0098 7.73478 22.0098 8C22.0098 8.26522 21.9044 8.51957 21.7169 8.70711C21.5293 8.89464 21.275 9 21.0098 9H19.0098C18.7445 9 18.4902 8.89464 18.3027 8.70711C18.1151 8.51957 18.0098 8.26522 18.0098 8C18.0098 7.73478 18.1151 7.48043 18.3027 7.29289C18.4902 7.10536 18.7445 7 19.0098 7ZM3.00977 11H5.00977C5.27498 11 5.52934 11.1054 5.71687 11.2929C5.90441 11.4804 6.00977 11.7348 6.00977 12C6.00977 12.2652 5.90441 12.5196 5.71687 12.7071C5.52934 12.8946 5.27498 13 5.00977 13H3.00977C2.74455 13 2.4902 12.8946 2.30266 12.7071C2.11512 12.5196 2.00977 12.2652 2.00977 12C2.00977 11.7348 2.11512 11.4804 2.30266 11.2929C2.4902 11.1054 2.74455 11 3.00977 11ZM19.0098 11H21.0098C21.275 11 21.5293 11.1054 21.7169 11.2929C21.9044 11.4804 22.0098 11.7348 22.0098 12C22.0098 12.2652 21.9044 12.5196 21.7169 12.7071C21.5293 12.8946 21.275 13 21.0098 13H19.0098C18.7445 13 18.4902 12.8946 18.3027 12.7071C18.1151 12.5196 18.0098 12.2652 18.0098 12C18.0098 11.7348 18.1151 11.4804 18.3027 11.2929C18.4902 11.1054 18.7445 11 19.0098 11ZM3.00977 15H5.00977C5.27498 15 5.52934 15.1054 5.71687 15.2929C5.90441 15.4804 6.00977 15.7348 6.00977 16C6.00977 16.2652 5.90441 16.5196 5.71687 16.7071C5.52934 16.8946 5.27498 17 5.00977 17H3.00977C2.74455 17 2.4902 16.8946 2.30266 16.7071C2.11512 16.5196 2.00977 16.2652 2.00977 16C2.00977 15.7348 2.11512 15.4804 2.30266 15.2929C2.4902 15.1054 2.74455 15 3.00977 15ZM19.0098 15H21.0098C21.275 15 21.5293 15.1054 21.7169 15.2929C21.9044 15.4804 22.0098 15.7348 22.0098 16C22.0098 16.2652 21.9044 16.5196 21.7169 16.7071C21.5293 16.8946 21.275 17 21.0098 17H19.0098C18.7445 17 18.4902 16.8946 18.3027 16.7071C18.1151 16.5196 18.0098 16.2652 18.0098 16C18.0098 15.7348 18.1151 15.4804 18.3027 15.2929C18.4902 15.1054 18.7445 15 19.0098 15ZM8.00977 18C8.27498 18 8.52934 18.1054 8.71687 18.2929C8.90441 18.4804 9.00977 18.7348 9.00977 19V21C9.00977 21.2652 8.90441 21.5196 8.71687 21.7071C8.52934 21.8946 8.27498 22 8.00977 22C7.74455 22 7.4902 21.8946 7.30266 21.7071C7.11512 21.5196 7.00977 21.2652 7.00977 21V19C7.00977 18.7348 7.11512 18.4804 7.30266 18.2929C7.4902 18.1054 7.74455 18 8.00977 18ZM16.0098 2C16.275 2 16.5293 2.10536 16.7169 2.29289C16.9044 2.48043 17.0098 2.73478 17.0098 3V5C17.0098 5.26522 16.9044 5.51957 16.7169 5.70711C16.5293 5.89464 16.275 6 16.0098 6C15.7445 6 15.4902 5.89464 15.3027 5.70711C15.1151 5.51957 15.0098 5.26522 15.0098 5V3C15.0098 2.73478 15.1151 2.48043 15.3027 2.29289C15.4902 2.10536 15.7445 2 16.0098 2V2ZM16.0098 18C16.275 18 16.5293 18.1054 16.7169 18.2929C16.9044 18.4804 17.0098 18.7348 17.0098 19V21C17.0098 21.2652 16.9044 21.5196 16.7169 21.7071C16.5293 21.8946 16.275 22 16.0098 22C15.7445 22 15.4902 21.8946 15.3027 21.7071C15.1151 21.5196 15.0098 21.2652 15.0098 21V19C15.0098 18.7348 15.1151 18.4804 15.3027 18.2929C15.4902 18.1054 15.7445 18 16.0098 18ZM12.0098 2C12.275 2 12.5293 2.10536 12.7169 2.29289C12.9044 2.48043 13.0098 2.73478 13.0098 3V5C13.0098 5.26522 12.9044 5.51957 12.7169 5.70711C12.5293 5.89464 12.275 6 12.0098 6C11.7445 6 11.4902 5.89464 11.3027 5.70711C11.1151 5.51957 11.0098 5.26522 11.0098 5V3C11.0098 2.73478 11.1151 2.48043 11.3027 2.29289C11.4902 2.10536 11.7445 2 12.0098 2V2ZM12.0098 18C12.275 18 12.5293 18.1054 12.7169 18.2929C12.9044 18.4804 13.0098 18.7348 13.0098 19V21C13.0098 21.2652 12.9044 21.5196 12.7169 21.7071C12.5293 21.8946 12.275 22 12.0098 22C11.7445 22 11.4902 21.8946 11.3027 21.7071C11.1151 21.5196 11.0098 21.2652 11.0098 21V19C11.0098 18.7348 11.1151 18.4804 11.3027 18.2929C11.4902 18.1054 11.7445 18 12.0098 18Z" fill="#21272A"/>
</svg>
