<svg width="24" height="24" viewBox="0 0 24 24" fill="none" xmlns="http://www.w3.org/2000/svg">
<path d="M6.00977 4C5.47933 4 4.97062 4.21071 4.59555 4.58579C4.22048 4.96086 4.00977 5.46957 4.00977 6V18C4.00977 18.5304 4.22048 19.0391 4.59555 19.4142C4.97062 19.7893 5.47933 20 6.00977 20H18.0098C18.5402 20 19.0489 19.7893 19.424 19.4142C19.7991 19.0391 20.0098 18.5304 20.0098 18V6C20.0098 5.46957 19.7991 4.96086 19.424 4.58579C19.0489 4.21071 18.5402 4 18.0098 4H6.00977ZM6.00977 2H18.0098C19.0706 2 20.088 2.42143 20.8382 3.17157C21.5883 3.92172 22.0098 4.93913 22.0098 6V18C22.0098 19.0609 21.5883 20.0783 20.8382 20.8284C20.088 21.5786 19.0706 22 18.0098 22H6.00977C4.9489 22 3.93148 21.5786 3.18134 20.8284C2.43119 20.0783 2.00977 19.0609 2.00977 18V6C2.00977 4.93913 2.43119 3.92172 3.18134 3.17157C3.93148 2.42143 4.9489 2 6.00977 2V2ZM7.00977 11H17.0098C17.275 11 17.5293 11.1054 17.7169 11.2929C17.9044 11.4804 18.0098 11.7348 18.0098 12C18.0098 12.2652 17.9044 12.5196 17.7169 12.7071C17.5293 12.8946 17.275 13 17.0098 13H7.00977C6.74455 13 6.4902 12.8946 6.30266 12.7071C6.11512 12.5196 6.00977 12.2652 6.00977 12C6.00977 11.7348 6.11512 11.4804 6.30266 11.2929C6.4902 11.1054 6.74455 11 7.00977 11Z" fill="#21272A"/>
</svg>
