<svg width="24" height="24" viewBox="0 0 24 24" fill="none" xmlns="http://www.w3.org/2000/svg">
<path d="M6.00977 12C6.00977 16.43 9.48777 20 13.7518 20C14.4098 20 15.0538 19.915 15.6738 19.752C12.6778 17.552 10.7778 13.966 10.7778 10C10.7778 7.91 11.3048 5.905 12.2668 4.147C8.70877 4.863 6.00977 8.097 6.00977 12ZM12.7778 10C12.7778 14.632 15.8458 18.528 20.0098 19.665C18.2726 21.1708 16.0507 21.9999 13.7518 22C8.37177 22 4.00977 17.523 4.00977 12C4.00977 6.477 8.37177 2 13.7518 2C14.6198 2 15.4618 2.117 16.2628 2.335C15.1639 3.28612 14.2836 4.46347 13.6821 5.78644C13.0806 7.1094 12.7721 8.54673 12.7778 10Z" fill="#21272A"/>
</svg>
