<svg width="24" height="24" viewBox="0 0 24 24" fill="none" xmlns="http://www.w3.org/2000/svg">
<path d="M5.00977 13C5.27498 13 5.52934 12.8946 5.71687 12.7071C5.90441 12.5196 6.00977 12.2652 6.00977 12C6.00977 11.7348 5.90441 11.4804 5.71687 11.2929C5.52934 11.1054 5.27498 11 5.00977 11C4.74455 11 4.4902 11.1054 4.30266 11.2929C4.11512 11.4804 4.00977 11.7348 4.00977 12C4.00977 12.2652 4.11512 12.5196 4.30266 12.7071C4.4902 12.8946 4.74455 13 5.00977 13ZM5.00977 15C4.21412 15 3.45105 14.6839 2.88845 14.1213C2.32584 13.5587 2.00977 12.7956 2.00977 12C2.00977 11.2044 2.32584 10.4413 2.88845 9.87868C3.45105 9.31607 4.21412 9 5.00977 9C5.80542 9 6.56848 9.31607 7.13109 9.87868C7.6937 10.4413 8.00977 11.2044 8.00977 12C8.00977 12.7956 7.6937 13.5587 7.13109 14.1213C6.56848 14.6839 5.80542 15 5.00977 15ZM19.0098 15C18.2141 15 17.4511 14.6839 16.8884 14.1213C16.3258 13.5587 16.0098 12.7956 16.0098 12C16.0098 11.2044 16.3258 10.4413 16.8884 9.87868C17.4511 9.31607 18.2141 9 19.0098 9C19.8054 9 20.5685 9.31607 21.1311 9.87868C21.6937 10.4413 22.0098 11.2044 22.0098 12C22.0098 12.7956 21.6937 13.5587 21.1311 14.1213C20.5685 14.6839 19.8054 15 19.0098 15ZM19.0098 13C19.275 13 19.5293 12.8946 19.7169 12.7071C19.9044 12.5196 20.0098 12.2652 20.0098 12C20.0098 11.7348 19.9044 11.4804 19.7169 11.2929C19.5293 11.1054 19.275 11 19.0098 11C18.7445 11 18.4902 11.1054 18.3027 11.2929C18.1151 11.4804 18.0098 11.7348 18.0098 12C18.0098 12.2652 18.1151 12.5196 18.3027 12.7071C18.4902 12.8946 18.7445 13 19.0098 13ZM12.0098 15C11.2141 15 10.4511 14.6839 9.88845 14.1213C9.32584 13.5587 9.00977 12.7956 9.00977 12C9.00977 11.2044 9.32584 10.4413 9.88845 9.87868C10.4511 9.31607 11.2141 9 12.0098 9C12.8054 9 13.5685 9.31607 14.1311 9.87868C14.6937 10.4413 15.0098 11.2044 15.0098 12C15.0098 12.7956 14.6937 13.5587 14.1311 14.1213C13.5685 14.6839 12.8054 15 12.0098 15ZM12.0098 13C12.275 13 12.5293 12.8946 12.7169 12.7071C12.9044 12.5196 13.0098 12.2652 13.0098 12C13.0098 11.7348 12.9044 11.4804 12.7169 11.2929C12.5293 11.1054 12.275 11 12.0098 11C11.7445 11 11.4902 11.1054 11.3027 11.2929C11.1151 11.4804 11.0098 11.7348 11.0098 12C11.0098 12.2652 11.1151 12.5196 11.3027 12.7071C11.4902 12.8946 11.7445 13 12.0098 13Z" fill="#21272A"/>
</svg>
