<svg width="24" height="24" viewBox="0 0 24 24" fill="none" xmlns="http://www.w3.org/2000/svg">
<path d="M12.0098 6C12.275 6 12.5293 5.89464 12.7169 5.70711C12.9044 5.51957 13.0098 5.26522 13.0098 5C13.0098 4.73478 12.9044 4.48043 12.7169 4.29289C12.5293 4.10536 12.275 4 12.0098 4C11.7445 4 11.4902 4.10536 11.3027 4.29289C11.1151 4.48043 11.0098 4.73478 11.0098 5C11.0098 5.26522 11.1151 5.51957 11.3027 5.70711C11.4902 5.89464 11.7445 6 12.0098 6ZM12.0098 8C11.2141 8 10.4511 7.68393 9.88845 7.12132C9.32584 6.55871 9.00977 5.79565 9.00977 5C9.00977 4.20435 9.32584 3.44129 9.88845 2.87868C10.4511 2.31607 11.2141 2 12.0098 2C12.8054 2 13.5685 2.31607 14.1311 2.87868C14.6937 3.44129 15.0098 4.20435 15.0098 5C15.0098 5.79565 14.6937 6.55871 14.1311 7.12132C13.5685 7.68393 12.8054 8 12.0098 8ZM12.0098 22C11.2141 22 10.4511 21.6839 9.88845 21.1213C9.32584 20.5587 9.00977 19.7956 9.00977 19C9.00977 18.2044 9.32584 17.4413 9.88845 16.8787C10.4511 16.3161 11.2141 16 12.0098 16C12.8054 16 13.5685 16.3161 14.1311 16.8787C14.6937 17.4413 15.0098 18.2044 15.0098 19C15.0098 19.7956 14.6937 20.5587 14.1311 21.1213C13.5685 21.6839 12.8054 22 12.0098 22ZM12.0098 20C12.275 20 12.5293 19.8946 12.7169 19.7071C12.9044 19.5196 13.0098 19.2652 13.0098 19C13.0098 18.7348 12.9044 18.4804 12.7169 18.2929C12.5293 18.1054 12.275 18 12.0098 18C11.7445 18 11.4902 18.1054 11.3027 18.2929C11.1151 18.4804 11.0098 18.7348 11.0098 19C11.0098 19.2652 11.1151 19.5196 11.3027 19.7071C11.4902 19.8946 11.7445 20 12.0098 20ZM12.0098 15C11.2141 15 10.4511 14.6839 9.88845 14.1213C9.32584 13.5587 9.00977 12.7956 9.00977 12C9.00977 11.2044 9.32584 10.4413 9.88845 9.87868C10.4511 9.31607 11.2141 9 12.0098 9C12.8054 9 13.5685 9.31607 14.1311 9.87868C14.6937 10.4413 15.0098 11.2044 15.0098 12C15.0098 12.7956 14.6937 13.5587 14.1311 14.1213C13.5685 14.6839 12.8054 15 12.0098 15ZM12.0098 13C12.275 13 12.5293 12.8946 12.7169 12.7071C12.9044 12.5196 13.0098 12.2652 13.0098 12C13.0098 11.7348 12.9044 11.4804 12.7169 11.2929C12.5293 11.1054 12.275 11 12.0098 11C11.7445 11 11.4902 11.1054 11.3027 11.2929C11.1151 11.4804 11.0098 11.7348 11.0098 12C11.0098 12.2652 11.1151 12.5196 11.3027 12.7071C11.4902 12.8946 11.7445 13 12.0098 13Z" fill="#21272A"/>
</svg>
