<svg width="24" height="24" viewBox="0 0 24 24" fill="none" xmlns="http://www.w3.org/2000/svg">
<path d="M16.8558 12.334L12.8708 5.57198C12.7824 5.42207 12.6565 5.29781 12.5054 5.21148C12.3543 5.12515 12.1833 5.07974 12.0093 5.07974C11.8352 5.07974 11.6642 5.12515 11.5132 5.21148C11.3621 5.29781 11.2361 5.42207 11.1478 5.57198L9.11976 9.01498C9.32176 10.994 10.0628 11.798 11.5068 11.798C13.5118 11.798 15.3228 11.974 16.8568 12.334H16.8558ZM18.4108 14.971C16.8638 14.204 14.4338 13.798 11.5058 13.798C9.68676 13.798 8.39576 12.966 7.69276 11.434L4.12276 17.492C4.03316 17.6439 3.98534 17.8168 3.98414 17.9932C3.98294 18.1696 4.02842 18.3431 4.11594 18.4962C4.20347 18.6494 4.32995 18.7766 4.48253 18.8651C4.63511 18.9536 4.80838 19.0001 4.98476 19H19.0348C19.2111 18.9999 19.3842 18.9533 19.5366 18.8647C19.6891 18.7762 19.8154 18.6489 19.9028 18.4958C19.9902 18.3427 20.0356 18.1692 20.0344 17.9929C20.0331 17.8167 19.9853 17.6438 19.8958 17.492L18.4108 14.972V14.971ZM14.5938 4.55598L21.6188 16.476C21.8875 16.9316 22.0309 17.4502 22.0346 17.9791C22.0383 18.5081 21.9021 19.0286 21.6397 19.4879C21.3774 19.9472 20.9982 20.329 20.5407 20.5946C20.0833 20.8601 19.5637 21 19.0348 21H4.98476C4.45586 21 3.93635 20.8603 3.47888 20.5949C3.02141 20.3294 2.64224 19.9478 2.3798 19.4886C2.11736 19.0294 1.98098 18.509 1.98449 17.9801C1.98799 17.4512 2.13126 16.9327 2.39976 16.477L9.42476 4.55698C9.68977 4.10701 10.0676 3.73401 10.521 3.47487C10.9744 3.21572 11.4876 3.07941 12.0098 3.07941C12.532 3.07941 13.0451 3.21572 13.4985 3.47487C13.9519 3.73401 14.3298 4.10701 14.5948 4.55698L14.5938 4.55598Z" fill="#21272A"/>
</svg>
