<svg width="24" height="24" viewBox="0 0 24 24" fill="none" xmlns="http://www.w3.org/2000/svg">
<g clip-path="url(#clip0_105_32621)">
<path d="M19.3088 10.957L18.1878 9.83598C18.0001 9.64847 17.8947 9.3941 17.8946 9.12883C17.8945 8.86356 17.9998 8.60912 18.1873 8.42148C18.3748 8.23384 18.6291 8.12837 18.8944 8.12827C19.1597 8.12818 19.4141 8.23347 19.6018 8.42098L22.4298 11.25C22.6172 11.4375 22.7226 11.6918 22.7226 11.957C22.7226 12.2221 22.6172 12.4764 22.4298 12.664L19.6018 15.492C19.4132 15.6741 19.1606 15.7749 18.8984 15.7726C18.6362 15.7704 18.3854 15.6652 18.1999 15.4798C18.0145 15.2944 17.9094 15.0436 17.9071 14.7814C17.9048 14.5192 18.0056 14.2666 18.1878 14.078L19.3088 12.957H12.8238V19.442L13.9448 18.321C14.1334 18.1388 14.386 18.038 14.6482 18.0403C14.9104 18.0426 15.1612 18.1478 15.3466 18.3332C15.532 18.5186 15.6372 18.7694 15.6394 19.0316C15.6417 19.2938 15.5409 19.5464 15.3588 19.735L12.5308 22.564C12.3432 22.7514 12.0889 22.8568 11.8238 22.8568C11.5586 22.8568 11.3043 22.7514 11.1168 22.564L8.28777 19.735C8.10561 19.5464 8.00481 19.2938 8.00709 19.0316C8.00937 18.7694 8.11454 18.5186 8.29995 18.3332C8.48536 18.1478 8.73617 18.0426 8.99837 18.0403C9.26056 18.038 9.51317 18.1388 9.70177 18.321L10.8238 19.442V12.957H4.33777L5.45977 14.078C5.64192 14.2666 5.74272 14.5192 5.74044 14.7814C5.73816 15.0436 5.63299 15.2944 5.44759 15.4798C5.26218 15.6652 5.01136 15.7704 4.74917 15.7726C4.48697 15.7749 4.23437 15.6741 4.04577 15.492L1.21677 12.664C1.0293 12.4764 0.923981 12.2221 0.923981 11.957C0.923981 11.6918 1.0293 11.4375 1.21677 11.25L4.04577 8.41998C4.23354 8.23247 4.48811 8.12723 4.75347 8.12742C5.01884 8.12761 5.27326 8.2332 5.46077 8.42098C5.64828 8.60875 5.75351 8.86332 5.75332 9.12868C5.75314 9.39405 5.64754 9.64847 5.45977 9.83598L4.33777 10.956H10.8238V4.47298L9.70177 5.59298C9.51317 5.77513 9.26056 5.87593 8.99837 5.87365C8.73617 5.87137 8.48536 5.7662 8.29995 5.5808C8.11454 5.39539 8.00937 5.14457 8.00709 4.88238C8.00481 4.62018 8.10561 4.36758 8.28777 4.17898L11.1168 1.34998C11.3043 1.16251 11.5586 1.05719 11.8238 1.05719C12.0889 1.05719 12.3432 1.16251 12.5308 1.34998L15.3588 4.17898C15.4543 4.27122 15.5305 4.38157 15.5829 4.50357C15.6353 4.62558 15.6629 4.7568 15.664 4.88958C15.6652 5.02235 15.6399 5.15403 15.5896 5.27693C15.5393 5.39983 15.4651 5.51148 15.3712 5.60537C15.2773 5.69926 15.1656 5.77352 15.0427 5.8238C14.9198 5.87408 14.7881 5.89938 14.6554 5.89823C14.5226 5.89707 14.3914 5.86949 14.2694 5.81708C14.1474 5.76467 14.037 5.68849 13.9448 5.59298L12.8238 4.47198V10.957H19.3088Z" fill="#21272A"/>
</g>
<defs>
<clipPath id="clip0_105_32621">
<rect width="24" height="24" fill="white" transform="translate(0.00976562)"/>
</clipPath>
</defs>
</svg>
