<svg width="24" height="24" viewBox="0 0 24 24" fill="none" xmlns="http://www.w3.org/2000/svg">
<path d="M16.5958 6H15.0098C14.7445 6 14.4902 5.89464 14.3027 5.70711C14.1151 5.51957 14.0098 5.26522 14.0098 5C14.0098 4.73478 14.1151 4.48043 14.3027 4.29289C14.4902 4.10536 14.7445 4 15.0098 4H19.0098C19.275 4 19.5293 4.10536 19.7169 4.29289C19.9044 4.48043 20.0098 4.73478 20.0098 5V9C20.0098 9.26522 19.9044 9.51957 19.7169 9.70711C19.5293 9.89464 19.275 10 19.0098 10C18.7445 10 18.4902 9.89464 18.3027 9.70711C18.1151 9.51957 18.0098 9.26522 18.0098 9V7.414L13.4238 12L18.0098 16.586V15C18.0098 14.7348 18.1151 14.4804 18.3027 14.2929C18.4902 14.1054 18.7445 14 19.0098 14C19.275 14 19.5293 14.1054 19.7169 14.2929C19.9044 14.4804 20.0098 14.7348 20.0098 15V19C20.0098 19.2652 19.9044 19.5196 19.7169 19.7071C19.5293 19.8946 19.275 20 19.0098 20H15.0098C14.7445 20 14.4902 19.8946 14.3027 19.7071C14.1151 19.5196 14.0098 19.2652 14.0098 19C14.0098 18.7348 14.1151 18.4804 14.3027 18.2929C14.4902 18.1054 14.7445 18 15.0098 18H16.5958L12.0098 13.414L7.42377 18H9.00977C9.27498 18 9.52934 18.1054 9.71687 18.2929C9.90441 18.4804 10.0098 18.7348 10.0098 19C10.0098 19.2652 9.90441 19.5196 9.71687 19.7071C9.52934 19.8946 9.27498 20 9.00977 20H5.00977C4.74455 20 4.4902 19.8946 4.30266 19.7071C4.11512 19.5196 4.00977 19.2652 4.00977 19V15C4.00977 14.7348 4.11512 14.4804 4.30266 14.2929C4.4902 14.1054 4.74455 14 5.00977 14C5.27498 14 5.52934 14.1054 5.71687 14.2929C5.90441 14.4804 6.00977 14.7348 6.00977 15V16.586L10.5958 12L6.00977 7.414V9C6.00977 9.26522 5.90441 9.51957 5.71687 9.70711C5.52934 9.89464 5.27498 10 5.00977 10C4.74455 10 4.4902 9.89464 4.30266 9.70711C4.11512 9.51957 4.00977 9.26522 4.00977 9V5C4.00977 4.73478 4.11512 4.48043 4.30266 4.29289C4.4902 4.10536 4.74455 4 5.00977 4H9.00977C9.27498 4 9.52934 4.10536 9.71687 4.29289C9.90441 4.48043 10.0098 4.73478 10.0098 5C10.0098 5.26522 9.90441 5.51957 9.71687 5.70711C9.52934 5.89464 9.27498 6 9.00977 6H7.42377L12.0098 10.586L16.5958 6Z" fill="#21272A"/>
</svg>
