<svg width="24" height="24" viewBox="0 0 24 24" fill="none" xmlns="http://www.w3.org/2000/svg">
<path d="M6.00977 4C5.47933 4 4.97062 4.21071 4.59555 4.58579C4.22048 4.96086 4.00977 5.46957 4.00977 6V18C4.00977 18.5304 4.22048 19.0391 4.59555 19.4142C4.97062 19.7893 5.47933 20 6.00977 20H13.0098C13.5402 20 14.0489 19.7893 14.424 19.4142C14.7991 19.0391 15.0098 18.5304 15.0098 18V6C15.0098 5.46957 14.7991 4.96086 14.424 4.58579C14.0489 4.21071 13.5402 4 13.0098 4H6.00977ZM16.8838 5H18.0098C19.0706 5 20.088 5.42143 20.8382 6.17157C21.5883 6.92172 22.0098 7.93913 22.0098 9V12C22.0098 13.0609 21.5883 14.0783 20.8382 14.8284C20.088 15.5786 19.0706 16 18.0098 16H17.0098V18C17.0098 19.0609 16.5883 20.0783 15.8382 20.8284C15.088 21.5786 14.0706 22 13.0098 22H6.00977C4.9489 22 3.93148 21.5786 3.18134 20.8284C2.43119 20.0783 2.00977 19.0609 2.00977 18V6C2.00977 4.93913 2.43119 3.92172 3.18134 3.17157C3.93148 2.42143 4.9489 2 6.00977 2H13.0098C13.8966 2.00012 14.7583 2.29482 15.4595 2.83783C16.1607 3.38084 16.6617 4.14138 16.8838 5ZM17.0098 14H18.0098C18.5402 14 19.0489 13.7893 19.424 13.4142C19.7991 13.0391 20.0098 12.5304 20.0098 12V9C20.0098 8.46957 19.7991 7.96086 19.424 7.58579C19.0489 7.21071 18.5402 7 18.0098 7H17.0098V14Z" fill="#21272A"/>
</svg>
