<svg width="24" height="24" viewBox="0 0 24 24" fill="none" xmlns="http://www.w3.org/2000/svg">
<path d="M14.9638 14.304V3C14.9638 2.73478 15.0691 2.48043 15.2567 2.29289C15.4442 2.10536 15.6985 2 15.9638 2H15.9918C16.257 2 16.5113 2.10536 16.6989 2.29289C16.8864 2.48043 16.9918 2.73478 16.9918 3V17.065C17.1888 19.034 15.5718 21.055 13.1178 21.758C10.4278 22.53 7.74976 21.425 7.13776 19.29C6.52576 17.155 8.21076 14.799 10.9018 14.027C12.3718 13.606 13.8368 13.744 14.9638 14.304ZM12.5638 19.825C14.2618 19.338 15.2088 18.015 14.9338 17.055C14.6578 16.094 13.1538 15.473 11.4558 15.96C9.75776 16.447 8.81076 17.77 9.08576 18.731C9.36176 19.691 10.8658 20.312 12.5638 19.825Z" fill="#21272A"/>
</svg>
