<svg width="24" height="24" viewBox="0 0 24 24" fill="none" xmlns="http://www.w3.org/2000/svg">
<path d="M12.0098 20C14.1315 20 16.1663 19.1571 17.6666 17.6569C19.1669 16.1566 20.0098 14.1217 20.0098 12C20.0098 9.87827 19.1669 7.84344 17.6666 6.34315C16.1663 4.84285 14.1315 4 12.0098 4C9.88803 4 7.8532 4.84285 6.35291 6.34315C4.85262 7.84344 4.00977 9.87827 4.00977 12C4.00977 14.1217 4.85262 16.1566 6.35291 17.6569C7.8532 19.1571 9.88803 20 12.0098 20ZM12.0098 22C6.48677 22 2.00977 17.523 2.00977 12C2.00977 6.477 6.48677 2 12.0098 2C17.5328 2 22.0098 6.477 22.0098 12C22.0098 17.523 17.5328 22 12.0098 22Z" fill="#21272A"/>
<path d="M8.42777 12.718C9.13911 12.718 9.71577 12.1472 9.71577 11.443C9.71577 10.7389 9.13911 10.168 8.42777 10.168C7.71642 10.168 7.13977 10.7389 7.13977 11.443C7.13977 12.1472 7.71642 12.718 8.42777 12.718Z" fill="#21272A"/>
<path d="M8.40977 13.051C7.62977 13.061 7.00977 13.705 7.00977 14.477V14.836C7.00977 14.919 7.07777 14.986 7.16177 14.986H9.69277C9.7126 14.9861 9.73226 14.9824 9.75063 14.9749C9.769 14.9674 9.78572 14.9564 9.79983 14.9425C9.81395 14.9286 9.82518 14.912 9.83289 14.8937C9.8406 14.8754 9.84463 14.8558 9.84477 14.836V14.454C9.84387 14.2673 9.8059 14.0826 9.73307 13.9107C9.66024 13.7388 9.55399 13.5831 9.4205 13.4526C9.287 13.3221 9.12891 13.2194 8.95541 13.1504C8.7819 13.0815 8.59643 13.0477 8.40977 13.051Z" fill="#21272A"/>
<path d="M11.6898 12.531C12.4597 12.531 13.0838 11.9131 13.0838 11.151C13.0838 10.3888 12.4597 9.771 11.6898 9.771C10.9199 9.771 10.2958 10.3888 10.2958 11.151C10.2958 11.9131 10.9199 12.531 11.6898 12.531Z" fill="#21272A"/>
<path d="M11.6708 12.892C11.2663 12.8991 10.8809 13.0648 10.5975 13.3534C10.3141 13.642 10.1554 14.0305 10.1558 14.435V14.835C10.1558 14.919 10.2238 14.986 10.3078 14.986H13.0718C13.0917 14.9862 13.1114 14.9826 13.1299 14.9752C13.1484 14.9677 13.1653 14.9568 13.1795 14.9428C13.1937 14.9289 13.205 14.9123 13.2128 14.8939C13.2206 14.8756 13.2246 14.8559 13.2248 14.836V14.411C13.2248 13.566 12.5268 12.881 11.6708 12.892ZM15.2528 12.175C16.1348 12.175 16.8498 11.467 16.8498 10.594C16.8498 9.72098 16.1348 9.01398 15.2528 9.01398C14.3708 9.01398 13.6558 9.72098 13.6558 10.594C13.6558 11.467 14.3708 12.174 15.2528 12.174V12.175ZM15.2528 12.588C14.2828 12.588 13.4958 13.367 13.4958 14.328V14.836C13.4958 14.919 13.5638 14.986 13.6478 14.986H16.8578C16.8776 14.9861 16.8973 14.9823 16.9156 14.9749C16.934 14.9674 16.9507 14.9564 16.9648 14.9425C16.9789 14.9285 16.9902 14.912 16.9979 14.8937C17.0056 14.8754 17.0096 14.8558 17.0098 14.836V14.327C17.0098 13.367 16.2228 12.587 15.2528 12.587V12.588Z" fill="#21272A"/>
</svg>
