<svg width="24" height="24" viewBox="0 0 24 24" fill="none" xmlns="http://www.w3.org/2000/svg">
<path d="M4.84477 13.435C6.26745 13.435 7.42077 12.2933 7.42077 10.885C7.42077 9.4767 6.26745 8.33502 4.84477 8.33502C3.42208 8.33502 2.26877 9.4767 2.26877 10.885C2.26877 12.2933 3.42208 13.435 4.84477 13.435Z" fill="#21272A"/>
<path d="M4.80977 14.102C3.24977 14.121 2.00977 15.41 2.00977 16.954V17.672C2.00977 17.838 2.14577 17.972 2.31377 17.972H7.37677C7.45678 17.9723 7.53366 17.9409 7.59061 17.8847C7.64756 17.8285 7.67997 17.752 7.68077 17.672V16.909C7.68077 15.347 6.39177 14.083 4.81077 14.102H4.80977Z" fill="#21272A"/>
<path d="M11.3708 13.063C12.9105 13.063 14.1588 11.8273 14.1588 10.303C14.1588 8.77872 12.9105 7.54303 11.3708 7.54303C9.831 7.54303 8.58277 8.77872 8.58277 10.303C8.58277 11.8273 9.831 13.063 11.3708 13.063Z" fill="#21272A"/>
<path d="M11.3328 13.784C9.64477 13.804 8.30277 15.199 8.30277 16.87V17.672C8.30276 17.7116 8.31062 17.7509 8.32589 17.7875C8.34115 17.8241 8.36352 17.8573 8.39169 17.8852C8.41987 17.9131 8.45329 17.9351 8.49004 17.95C8.52678 17.9649 8.56612 17.9724 8.60577 17.972H14.1348C14.2148 17.9722 14.2917 17.9409 14.3486 17.8846C14.4056 17.8284 14.438 17.752 14.4388 17.672V16.822C14.4388 15.132 13.0448 13.764 11.3328 13.784ZM18.4958 12.35C20.2588 12.35 21.6888 10.934 21.6888 9.18798C21.6888 7.44198 20.2588 6.02698 18.4958 6.02698C16.7318 6.02698 15.3028 7.44198 15.3028 9.18798C15.3028 10.934 16.7328 12.35 18.4958 12.35ZM18.4958 13.175C16.5558 13.175 14.9818 14.733 14.9818 16.655V17.672C14.9818 17.838 15.1178 17.972 15.2858 17.972H21.7058C21.7858 17.9722 21.8627 17.9409 21.9196 17.8846C21.9766 17.8284 22.009 17.752 22.0098 17.672V16.654C22.0098 14.733 20.4368 13.175 18.4958 13.175Z" fill="#21272A"/>
</svg>
