<svg width="24" height="24" viewBox="0 0 24 24" fill="none" xmlns="http://www.w3.org/2000/svg">
<path d="M13.0448 13.99C12.7569 14.2625 12.4167 14.4738 12.0448 14.611C11.668 14.4826 11.3254 14.2702 11.0428 13.99H13.0448Z" fill="#21272A"/>
<path d="M9.00477 8.435C9.38082 7.99682 9.84721 7.64519 10.372 7.40422C10.8967 7.16326 11.4673 7.03867 12.0448 7.039C13.2598 7.039 14.3328 7.575 15.0838 8.435C15.4101 8.34413 15.7462 8.29276 16.0848 8.282V9.688C16.5848 10.022 16.9428 10.624 16.9428 11.303C16.9428 11.983 16.5848 12.575 16.0848 12.91L16.0488 12.948C15.8348 15.013 14.1188 16.6 12.0438 16.6C9.93377 16.6 8.21777 14.984 8.00377 12.91C7.73913 12.7338 7.52211 12.495 7.37201 12.2147C7.22191 11.9344 7.14337 11.6214 7.14337 11.3035C7.14337 10.9856 7.22191 10.6726 7.37201 10.3923C7.52211 10.112 7.73913 9.8732 8.00377 9.697V8.282C8.36077 8.292 8.68277 8.349 9.00377 8.435H9.00477ZM10.1848 9.927C9.78554 9.5731 9.3071 9.32034 8.78977 9.19V12.48C8.78977 14.315 10.2558 15.787 12.0438 15.787C13.8318 15.787 15.2628 14.315 15.2628 12.47V9.19C14.7606 9.33241 14.2962 9.58408 13.9028 9.927C13.3612 9.53694 12.7112 9.32609 12.0438 9.324C11.3638 9.324 10.7208 9.544 10.1838 9.927H10.1848ZM10.1848 8.971C10.757 8.66448 11.3956 8.50309 12.0448 8.501C12.7238 8.501 13.3308 8.674 13.9038 8.971C14.0275 8.87962 14.159 8.79931 14.2968 8.731C13.692 8.14744 12.8841 7.82183 12.0438 7.823C11.1858 7.823 10.3638 8.167 9.79077 8.741C9.89877 8.798 10.0768 8.884 10.1848 8.971Z" fill="#21272A"/>
<path d="M13.0448 12.48C13.5818 12.412 14.5118 12.422 14.5118 12.422C14.4758 12.594 14.5118 13.082 13.9748 13.388C13.8199 13.4685 13.6492 13.5139 13.4748 13.521C12.9748 13.541 12.2588 13.551 12.2588 13.551C12.4018 12.967 12.5798 12.527 13.0448 12.479V12.48ZM11.0428 12.48C11.4728 12.527 11.6868 12.967 11.8298 13.55C11.8298 13.55 11.1138 13.54 10.6138 13.521C10.4393 13.5136 10.2685 13.4679 10.1138 13.387C9.57677 13.081 9.61277 12.594 9.57677 12.422C9.57677 12.422 10.5068 12.412 11.0428 12.479V12.48ZM12.9738 15.109C12.7238 15.281 12.4018 15.376 12.0438 15.376C11.7036 15.3779 11.3696 15.2855 11.0788 15.109C11.0788 15.109 11.1138 15.003 11.1498 14.917C11.1842 14.86 11.2337 14.8137 11.2928 14.783C11.7834 14.9246 12.3041 14.9246 12.7948 14.783C12.7948 14.783 12.8668 14.822 12.9378 14.936C12.9591 14.9913 12.9713 15.0497 12.9738 15.109Z" fill="#21272A"/>
<path d="M6.00977 4C5.47933 4 4.97062 4.21071 4.59555 4.58579C4.22048 4.96086 4.00977 5.46957 4.00977 6V18C4.00977 18.5304 4.22048 19.0391 4.59555 19.4142C4.97062 19.7893 5.47933 20 6.00977 20H18.0098C18.5402 20 19.0489 19.7893 19.424 19.4142C19.7991 19.0391 20.0098 18.5304 20.0098 18V6C20.0098 5.46957 19.7991 4.96086 19.424 4.58579C19.0489 4.21071 18.5402 4 18.0098 4H6.00977ZM6.00977 2H18.0098C19.0706 2 20.088 2.42143 20.8382 3.17157C21.5883 3.92172 22.0098 4.93913 22.0098 6V18C22.0098 19.0609 21.5883 20.0783 20.8382 20.8284C20.088 21.5786 19.0706 22 18.0098 22H6.00977C4.9489 22 3.93148 21.5786 3.18134 20.8284C2.43119 20.0783 2.00977 19.0609 2.00977 18V6C2.00977 4.93913 2.43119 3.92172 3.18134 3.17157C3.93148 2.42143 4.9489 2 6.00977 2V2Z" fill="#21272A"/>
</svg>
