<svg width="24" height="24" viewBox="0 0 24 24" fill="none" xmlns="http://www.w3.org/2000/svg">
<path d="M14.0798 15.98C13.5035 16.5256 12.8224 16.9485 12.0778 17.223C11.3249 16.9656 10.6404 16.5406 10.0758 15.98H14.0808" fill="#21272A"/>
<path d="M5.99976 4.87C7.49976 3.15 9.64576 2.078 12.0768 2.078C14.5088 2.078 16.6538 3.149 18.1568 4.87C18.8094 4.68826 19.4816 4.58553 20.1588 4.564V7.375C20.686 7.73359 21.1179 8.21535 21.4169 8.77854C21.7159 9.34174 21.8731 9.96936 21.8748 10.607C21.8729 11.242 21.7156 11.8668 21.4164 12.427C21.1173 12.9871 20.6855 13.4653 20.1588 13.82L20.0868 13.896C19.6578 18.026 16.2258 21.2 12.0768 21.2C7.85676 21.2 4.42476 17.968 3.99576 13.82C3.47051 13.4636 3.03983 12.9848 2.74087 12.4249C2.44192 11.865 2.28367 11.2407 2.27976 10.606C2.27976 9.248 2.99476 8.043 3.99676 7.393V4.563C4.71176 4.583 5.35576 4.697 5.99876 4.869L5.99976 4.87ZM8.35976 7.853C7.56113 7.14589 6.60426 6.64105 5.56976 6.381V12.959C5.56976 16.63 8.50276 19.575 12.0778 19.575C15.6538 19.575 18.5148 16.63 18.5148 12.939V6.381C17.5118 6.66563 16.584 7.16827 15.7978 7.853C14.7138 7.0732 13.413 6.65219 12.0778 6.649C10.7188 6.649 9.43176 7.089 8.35976 7.853ZM8.35976 5.941C9.50376 5.348 10.7198 5.004 12.0778 5.004C13.4378 5.004 14.6528 5.348 15.7978 5.941C16.0118 5.769 16.2978 5.616 16.5838 5.463C15.4398 4.335 13.7938 3.646 12.0778 3.646C10.3618 3.646 8.71676 4.335 7.57176 5.482C7.78676 5.597 8.14476 5.769 8.35976 5.942V5.941Z" fill="#21272A"/>
<path d="M14.0798 12.959C15.1538 12.825 17.0128 12.844 17.0128 12.844C16.9418 13.188 17.0128 14.164 15.9408 14.775C15.7978 14.871 15.3678 15.023 14.9398 15.043C13.9378 15.081 12.5078 15.1 12.5078 15.1C12.7938 13.934 13.1508 13.054 14.0808 12.959H14.0798ZM10.0758 12.959C10.9338 13.054 11.3628 13.934 11.6488 15.1C11.6488 15.1 10.2188 15.08 9.21777 15.043C8.78777 15.023 8.35977 14.87 8.21577 14.775C7.14277 14.163 7.21577 13.188 7.14277 12.844C7.14277 12.844 9.00277 12.824 10.0758 12.959ZM13.9378 18.217C13.4378 18.561 12.7938 18.753 12.0778 18.753C11.3973 18.7559 10.7293 18.5704 10.1478 18.217C10.1478 18.217 10.2178 18.007 10.2898 17.834C10.4328 17.624 10.5758 17.567 10.5758 17.567C11.0642 17.7068 11.5698 17.7775 12.0778 17.777C12.5778 17.777 13.0788 17.7 13.5798 17.567C13.5798 17.567 13.7228 17.643 13.8658 17.873C13.9378 18.064 13.9378 18.217 13.9378 18.217Z" fill="#21272A"/>
</svg>
