<svg width="24" height="24" viewBox="0 0 24 24" fill="none" xmlns="http://www.w3.org/2000/svg">
<path d="M7.00977 2H17.0098C17.8054 2 18.5685 2.31607 19.1311 2.87868C19.6937 3.44129 20.0098 4.20435 20.0098 5V19C20.0098 19.7956 19.6937 20.5587 19.1311 21.1213C18.5685 21.6839 17.8054 22 17.0098 22H7.00977C6.21412 22 5.45105 21.6839 4.88845 21.1213C4.32584 20.5587 4.00977 19.7956 4.00977 19V5C4.00977 4.20435 4.32584 3.44129 4.88845 2.87868C5.45105 2.31607 6.21412 2 7.00977 2V2ZM7.00977 4C6.74455 4 6.4902 4.10536 6.30266 4.29289C6.11512 4.48043 6.00977 4.73478 6.00977 5V19C6.00977 19.2652 6.11512 19.5196 6.30266 19.7071C6.4902 19.8946 6.74455 20 7.00977 20H17.0098C17.275 20 17.5293 19.8946 17.7169 19.7071C17.9044 19.5196 18.0098 19.2652 18.0098 19V5C18.0098 4.73478 17.9044 4.48043 17.7169 4.29289C17.5293 4.10536 17.275 4 17.0098 4H7.00977ZM9.00977 17H11.0098C11.275 17 11.5293 17.1054 11.7169 17.2929C11.9044 17.4804 12.0098 17.7348 12.0098 18C12.0098 18.2652 11.9044 18.5196 11.7169 18.7071C11.5293 18.8946 11.275 19 11.0098 19H9.00977C8.74455 19 8.4902 18.8946 8.30266 18.7071C8.11512 18.5196 8.00977 18.2652 8.00977 18C8.00977 17.7348 8.11512 17.4804 8.30266 17.2929C8.4902 17.1054 8.74455 17 9.00977 17ZM15.0098 5C15.275 5 15.5293 5.10536 15.7169 5.29289C15.9044 5.48043 16.0098 5.73478 16.0098 6C16.0098 6.26522 15.9044 6.51957 15.7169 6.70711C15.5293 6.89464 15.275 7 15.0098 7C14.7445 7 14.4902 6.89464 14.3027 6.70711C14.1151 6.51957 14.0098 6.26522 14.0098 6C14.0098 5.73478 14.1151 5.48043 14.3027 5.29289C14.4902 5.10536 14.7445 5 15.0098 5ZM15.0098 8C15.275 8 15.5293 8.10536 15.7169 8.29289C15.9044 8.48043 16.0098 8.73478 16.0098 9C16.0098 9.26522 15.9044 9.51957 15.7169 9.70711C15.5293 9.89464 15.275 10 15.0098 10C14.7445 10 14.4902 9.89464 14.3027 9.70711C14.1151 9.51957 14.0098 9.26522 14.0098 9C14.0098 8.73478 14.1151 8.48043 14.3027 8.29289C14.4902 8.10536 14.7445 8 15.0098 8ZM9.00977 14H15.0098C15.275 14 15.5293 14.1054 15.7169 14.2929C15.9044 14.4804 16.0098 14.7348 16.0098 15C16.0098 15.2652 15.9044 15.5196 15.7169 15.7071C15.5293 15.8946 15.275 16 15.0098 16H9.00977C8.74455 16 8.4902 15.8946 8.30266 15.7071C8.11512 15.5196 8.00977 15.2652 8.00977 15C8.00977 14.7348 8.11512 14.4804 8.30266 14.2929C8.4902 14.1054 8.74455 14 9.00977 14ZM9.00977 11H15.0098C15.275 11 15.5293 11.1054 15.7169 11.2929C15.9044 11.4804 16.0098 11.7348 16.0098 12C16.0098 12.2652 15.9044 12.5196 15.7169 12.7071C15.5293 12.8946 15.275 13 15.0098 13H9.00977C8.74455 13 8.4902 12.8946 8.30266 12.7071C8.11512 12.5196 8.00977 12.2652 8.00977 12C8.00977 11.7348 8.11512 11.4804 8.30266 11.2929C8.4902 11.1054 8.74455 11 9.00977 11ZM9.50977 5H11.5098C11.9076 5 12.2891 5.15804 12.5704 5.43934C12.8517 5.72064 13.0098 6.10218 13.0098 6.5V8.5C13.0098 8.89782 12.8517 9.27936 12.5704 9.56066C12.2891 9.84196 11.9076 10 11.5098 10H9.50977C9.11194 10 8.73041 9.84196 8.44911 9.56066C8.1678 9.27936 8.00977 8.89782 8.00977 8.5V6.5C8.00977 6.10218 8.1678 5.72064 8.44911 5.43934C8.73041 5.15804 9.11194 5 9.50977 5Z" fill="#21272A"/>
</svg>
