<svg width="24" height="24" viewBox="0 0 24 24" fill="none" xmlns="http://www.w3.org/2000/svg">
<path d="M4.00977 5H20.0098C20.5402 5 21.0489 5.21071 21.424 5.58579C21.7991 5.96086 22.0098 6.46957 22.0098 7V17C22.0098 17.5304 21.7991 18.0391 21.424 18.4142C21.0489 18.7893 20.5402 19 20.0098 19H4.00977C3.47933 19 2.97062 18.7893 2.59555 18.4142C2.22048 18.0391 2.00977 17.5304 2.00977 17V7C2.00977 6.46957 2.22048 5.96086 2.59555 5.58579C2.97062 5.21071 3.47933 5 4.00977 5V5ZM4.00977 7V17H20.0098V7H4.00977ZM7.00977 13H13.0098C13.275 13 13.5293 13.1054 13.7169 13.2929C13.9044 13.4804 14.0098 13.7348 14.0098 14C14.0098 14.2652 13.9044 14.5196 13.7169 14.7071C13.5293 14.8946 13.275 15 13.0098 15H7.00977C6.74455 15 6.4902 14.8946 6.30266 14.7071C6.11512 14.5196 6.00977 14.2652 6.00977 14C6.00977 13.7348 6.11512 13.4804 6.30266 13.2929C6.4902 13.1054 6.74455 13 7.00977 13ZM17.0098 8H19.0098V10H17.0098V8Z" fill="#21272A"/>
</svg>
