<svg width="24" height="24" viewBox="0 0 24 24" fill="none" xmlns="http://www.w3.org/2000/svg">
<path d="M11.5398 13.996C10.7698 13.915 10.0768 13.724 9.48277 13.256C9.40877 13.198 9.33277 13.142 9.26577 13.076C9.00577 12.826 8.97877 12.537 9.18577 12.241C9.36077 11.987 9.65577 11.919 9.96377 12.064C10.0231 12.0932 10.08 12.1274 10.1338 12.166C11.2408 12.932 12.7618 12.953 13.8738 12.2C13.9807 12.1127 14.1042 12.0481 14.2368 12.01C14.3597 11.974 14.4912 11.9804 14.6101 12.0283C14.7289 12.0762 14.8281 12.1628 14.8918 12.274C15.0548 12.541 15.0518 12.801 14.8518 13.008C14.545 13.32 14.1741 13.5616 13.7648 13.716C13.3768 13.868 12.9508 13.944 12.5298 13.995C12.5938 14.065 12.6238 14.099 12.6638 14.139C13.2348 14.717 13.8088 15.293 14.3788 15.873C14.5728 16.071 14.6138 16.316 14.5068 16.546C14.3898 16.796 14.1278 16.962 13.8718 16.944C13.7164 16.9283 13.5727 16.8544 13.4698 16.737C13.0388 16.3 12.5998 15.871 12.1768 15.426C12.0538 15.296 11.9938 15.321 11.8858 15.433C11.4518 15.883 11.0108 16.326 10.5668 16.767C10.3678 16.964 10.1308 17 9.89977 16.887C9.78143 16.8312 9.6817 16.7425 9.61252 16.6315C9.54335 16.5204 9.50767 16.3918 9.50977 16.261C9.52272 16.0991 9.598 15.9485 9.71977 15.841L11.4138 14.132C11.4508 14.094 11.4858 14.054 11.5398 13.996Z" fill="#21272A"/>
<path d="M11.9978 12C11.3372 11.9942 10.7058 11.7275 10.241 11.2581C9.77628 10.7887 9.51595 10.1546 9.51677 9.494C9.51994 8.83059 9.78605 8.1955 10.2568 7.72798C10.7275 7.26047 11.3643 6.99867 12.0278 7.00001C12.3577 7.00183 12.6841 7.06888 12.9881 7.1973C13.292 7.32572 13.5676 7.51298 13.7989 7.7483C14.0302 7.98362 14.2127 8.26236 14.3359 8.56847C14.4591 8.87459 14.5206 9.20205 14.5168 9.53201C14.5098 10.898 13.3798 12.005 11.9978 12ZM13.2418 9.49801C13.2422 9.3373 13.2108 9.1781 13.1493 9.02958C13.0879 8.88107 12.9977 8.74618 12.884 8.63268C12.7702 8.51918 12.6351 8.42932 12.4864 8.36828C12.3377 8.30723 12.1785 8.27621 12.0178 8.277C11.8558 8.2762 11.6953 8.30765 11.5456 8.36954C11.3959 8.43144 11.26 8.52252 11.1459 8.63748C11.0317 8.75244 10.9416 8.88898 10.8808 9.03913C10.8201 9.18928 10.7898 9.35003 10.7918 9.51201C10.7925 9.67272 10.8251 9.83169 10.8876 9.97976C10.9501 10.1278 11.0413 10.2621 11.1559 10.3747C11.2705 10.4874 11.4063 10.5762 11.5554 10.6362C11.7046 10.6961 11.8641 10.726 12.0248 10.724C12.1854 10.7241 12.3444 10.6925 12.4927 10.6308C12.641 10.5691 12.7757 10.4787 12.8888 10.3647C13.002 10.2507 13.0914 10.1154 13.152 9.96665C13.2126 9.8179 13.2431 9.65862 13.2418 9.49801Z" fill="#21272A"/>
<path d="M12.0098 20C14.1315 20 16.1663 19.1571 17.6666 17.6569C19.1669 16.1566 20.0098 14.1217 20.0098 12C20.0098 9.87827 19.1669 7.84344 17.6666 6.34315C16.1663 4.84285 14.1315 4 12.0098 4C9.88803 4 7.8532 4.84285 6.35291 6.34315C4.85262 7.84344 4.00977 9.87827 4.00977 12C4.00977 14.1217 4.85262 16.1566 6.35291 17.6569C7.8532 19.1571 9.88803 20 12.0098 20ZM12.0098 22C6.48677 22 2.00977 17.523 2.00977 12C2.00977 6.477 6.48677 2 12.0098 2C17.5328 2 22.0098 6.477 22.0098 12C22.0098 17.523 17.5328 22 12.0098 22Z" fill="#21272A"/>
</svg>
