<svg width="24" height="24" viewBox="0 0 24 24" fill="none" xmlns="http://www.w3.org/2000/svg">
<path d="M10.9838 16.011C9.45276 15.851 8.07176 15.471 6.88976 14.54C6.74276 14.424 6.59076 14.312 6.45776 14.183C5.93976 13.683 5.88776 13.109 6.29776 12.519C6.64776 12.013 7.23576 11.878 7.84676 12.169C7.96476 12.224 8.07676 12.295 8.18576 12.37C10.3888 13.894 13.4158 13.936 15.6268 12.439C15.8468 12.269 16.0808 12.131 16.3518 12.061C16.8798 11.925 17.3718 12.12 17.6548 12.585C17.9788 13.115 17.9748 13.635 17.5758 14.046C16.9648 14.679 16.2288 15.136 15.4118 15.455C14.6388 15.757 13.7918 15.909 12.9548 16.009C13.0808 16.148 13.1408 16.216 13.2198 16.296C14.3568 17.446 15.4998 18.593 16.6338 19.747C17.0198 20.141 17.1008 20.628 16.8878 21.086C16.6548 21.586 16.1348 21.915 15.6238 21.88C15.3008 21.857 15.0488 21.695 14.8238 21.468C13.9658 20.598 13.0918 19.744 12.2508 18.858C12.0058 18.6 11.8878 18.649 11.6718 18.873C10.8088 19.768 9.93176 20.649 9.04776 21.526C8.65176 21.919 8.17976 21.99 7.71976 21.766C7.23176 21.526 6.91976 21.025 6.94476 20.52C6.96076 20.178 7.12776 19.918 7.36076 19.684C8.48676 18.552 9.60876 17.417 10.7318 16.284C10.8058 16.208 10.8758 16.128 10.9838 16.011Z" fill="#21272A"/>
<path d="M11.9168 12.069C9.18477 12.059 6.94476 9.77902 6.95976 7.02302C6.97576 4.23702 9.21777 1.99302 11.9768 2.00002C14.7408 2.00702 16.9598 4.28502 16.9468 7.10002C16.9318 9.85002 14.6768 12.078 11.9168 12.069ZM14.3998 7.02902C14.4016 6.70697 14.3398 6.38774 14.2179 6.08967C14.0959 5.7916 13.9163 5.52056 13.6893 5.29214C13.4622 5.06373 13.1923 4.88243 12.895 4.75867C12.5977 4.63492 12.2788 4.57114 11.9568 4.57102C11.6317 4.5707 11.3098 4.63516 11.0099 4.76064C10.71 4.88611 10.4382 5.07008 10.2102 5.3018C9.98216 5.53352 9.80262 5.80834 9.68202 6.11022C9.56142 6.4121 9.50219 6.73499 9.50776 7.06002C9.50815 7.38219 9.57226 7.7011 9.69639 7.9984C9.82053 8.29569 10.0022 8.5655 10.2311 8.79229C10.4599 9.01907 10.7313 9.19836 11.0297 9.31982C11.3281 9.44128 11.6476 9.50252 11.9698 9.50002C12.2919 9.49885 12.6107 9.43388 12.9076 9.30884C13.2045 9.1838 13.4737 9.00119 13.6996 8.77153C13.9256 8.54187 14.1038 8.26973 14.2239 7.97082C14.3441 7.67191 14.4039 7.35215 14.3998 7.03002V7.02902Z" fill="#21272A"/>
</svg>
