<svg width="24" height="24" viewBox="0 0 24 24" fill="none" xmlns="http://www.w3.org/2000/svg">
<path d="M17.4278 3.57C15.9328 2.56 14.0818 2 11.9948 2C10.0848 2 8.37477 2.466 6.95177 3.32C4.21177 4.944 2.52377 7.987 2.52377 11.886C2.52377 17.16 6.31077 21.964 11.9928 21.964C17.6738 21.964 21.4608 17.161 21.4608 11.886C21.4608 8.179 19.9348 5.246 17.4278 3.57ZM11.9938 3.863C15.0418 3.863 15.7788 8.045 15.7788 11.845C15.7788 15.365 15.3168 20.075 12.0308 20.075C8.74377 20.075 8.20177 15.319 8.20177 11.799C8.20177 7.999 8.94577 3.863 11.9938 3.863Z" fill="#21272A"/>
</svg>
