<svg width="24" height="24" viewBox="0 0 24 24" fill="none" xmlns="http://www.w3.org/2000/svg">
<path d="M12.0098 20C14.1315 20 16.1663 19.1571 17.6666 17.6569C19.1669 16.1566 20.0098 14.1217 20.0098 12C20.0098 9.87827 19.1669 7.84344 17.6666 6.34315C16.1663 4.84285 14.1315 4 12.0098 4C9.88803 4 7.8532 4.84285 6.35291 6.34315C4.85262 7.84344 4.00977 9.87827 4.00977 12C4.00977 14.1217 4.85262 16.1566 6.35291 17.6569C7.8532 19.1571 9.88803 20 12.0098 20ZM12.0098 22C6.48677 22 2.00977 17.523 2.00977 12C2.00977 6.477 6.48677 2 12.0098 2C17.5328 2 22.0098 6.477 22.0098 12C22.0098 17.523 17.5328 22 12.0098 22Z" fill="#21272A"/>
<path d="M14.7228 7.78698C13.9738 7.28098 13.0468 7.00098 12.0018 7.00098C11.0458 7.00098 10.1888 7.23398 9.47577 7.66098C8.10277 8.47598 7.25777 9.99998 7.25777 11.953C7.25777 14.594 9.15477 17 12.0008 17C14.8468 17 16.7428 14.594 16.7428 11.952C16.7428 10.095 15.9788 8.62598 14.7228 7.78598V7.78698ZM12.0018 7.93398C13.5278 7.93398 13.8978 10.029 13.8978 11.931C13.8978 13.695 13.6658 16.054 12.0198 16.054C10.3738 16.054 10.1018 13.672 10.1018 11.91C10.1018 10.007 10.4748 7.93498 12.0018 7.93498V7.93398Z" fill="#21272A"/>
</svg>
