<svg width="24" height="24" viewBox="0 0 24 24" fill="none" xmlns="http://www.w3.org/2000/svg">
<path d="M14.7228 7.78698C13.9738 7.28098 13.0468 7.00098 12.0018 7.00098C11.0458 7.00098 10.1888 7.23398 9.47577 7.66098C8.10277 8.47598 7.25777 9.99998 7.25777 11.953C7.25777 14.594 9.15477 17 12.0008 17C14.8468 17 16.7428 14.594 16.7428 11.952C16.7428 10.095 15.9788 8.62598 14.7228 7.78598V7.78698ZM12.0018 7.93398C13.5278 7.93398 13.8978 10.029 13.8978 11.931C13.8978 13.695 13.6658 16.054 12.0198 16.054C10.3738 16.054 10.1018 13.672 10.1018 11.91C10.1018 10.007 10.4748 7.93498 12.0018 7.93498V7.93398Z" fill="#21272A"/>
<path d="M6.00977 4C5.47933 4 4.97062 4.21071 4.59555 4.58579C4.22048 4.96086 4.00977 5.46957 4.00977 6V18C4.00977 18.5304 4.22048 19.0391 4.59555 19.4142C4.97062 19.7893 5.47933 20 6.00977 20H18.0098C18.5402 20 19.0489 19.7893 19.424 19.4142C19.7991 19.0391 20.0098 18.5304 20.0098 18V6C20.0098 5.46957 19.7991 4.96086 19.424 4.58579C19.0489 4.21071 18.5402 4 18.0098 4H6.00977ZM6.00977 2H18.0098C19.0706 2 20.088 2.42143 20.8382 3.17157C21.5883 3.92172 22.0098 4.93913 22.0098 6V18C22.0098 19.0609 21.5883 20.0783 20.8382 20.8284C20.088 21.5786 19.0706 22 18.0098 22H6.00977C4.9489 22 3.93148 21.5786 3.18134 20.8284C2.43119 20.0783 2.00977 19.0609 2.00977 18V6C2.00977 4.93913 2.43119 3.92172 3.18134 3.17157C3.93148 2.42143 4.9489 2 6.00977 2V2Z" fill="#21272A"/>
</svg>
