<svg width="24" height="24" viewBox="0 0 24 24" fill="none" xmlns="http://www.w3.org/2000/svg">
<path d="M9.00977 6.99997H18.0098C18.275 6.99997 18.5293 7.10533 18.7169 7.29286C18.9044 7.4804 19.0098 7.73475 19.0098 7.99997C19.0098 8.26519 18.9044 8.51954 18.7169 8.70708C18.5293 8.89461 18.275 8.99997 18.0098 8.99997H9.00977C8.74456 8.99997 8.4902 8.89461 8.30267 8.70708C8.11513 8.51954 8.00977 8.26519 8.00977 7.99997C8.00977 7.73475 8.11513 7.4804 8.30267 7.29286C8.4902 7.10533 8.74456 6.99997 9.00977 6.99997ZM9.00977 15H18.0098C18.275 15 18.5293 15.1053 18.7169 15.2929C18.9044 15.4804 19.0098 15.7348 19.0098 16C19.0098 16.2652 18.9044 16.5195 18.7169 16.7071C18.5293 16.8946 18.275 17 18.0098 17H9.00977C8.74456 17 8.4902 16.8946 8.30267 16.7071C8.11513 16.5195 8.00977 16.2652 8.00977 16C8.00977 15.7348 8.11513 15.4804 8.30267 15.2929C8.4902 15.1053 8.74456 15 9.00977 15ZM9.00977 11H18.0098C18.275 11 18.5293 11.1053 18.7169 11.2929C18.9044 11.4804 19.0098 11.7348 19.0098 12C19.0098 12.2652 18.9044 12.5195 18.7169 12.7071C18.5293 12.8946 18.275 13 18.0098 13H9.00977C8.74456 13 8.4902 12.8946 8.30267 12.7071C8.11513 12.5195 8.00977 12.2652 8.00977 12C8.00977 11.7348 8.11513 11.4804 8.30267 11.2929C8.4902 11.1053 8.74456 11 9.00977 11ZM5.44777 6.84497H6.16777L6.12077 8.99997H5.65977L5.70977 7.27997H5.23377L5.44777 6.84497ZM5.53277 11.59L5.08277 11.537C5.09377 11.293 5.17277 11.098 5.31677 10.955C5.39026 10.8837 5.47739 10.828 5.57293 10.7912C5.66847 10.7544 5.77046 10.7374 5.87277 10.741C6.01177 10.741 6.13577 10.771 6.24277 10.83C6.35172 10.8902 6.44175 10.9795 6.50277 11.088C6.56499 11.1913 6.59848 11.3094 6.59977 11.43C6.59541 11.5819 6.55605 11.7307 6.48477 11.865C6.40977 12.018 6.27377 12.195 6.07777 12.4L5.91977 12.57H6.56677V13H5.02377L5.03877 12.769L5.70477 12.089C5.86277 11.929 5.96777 11.801 6.01777 11.707C6.06205 11.6326 6.08745 11.5484 6.09177 11.462C6.09299 11.4305 6.08767 11.3992 6.07613 11.3699C6.0646 11.3407 6.04711 11.3141 6.02477 11.292C6.00105 11.2692 5.97294 11.2516 5.94217 11.2401C5.91139 11.2285 5.8786 11.2234 5.84577 11.225C5.81134 11.2242 5.77715 11.231 5.74568 11.245C5.71421 11.259 5.68624 11.2799 5.66377 11.306C5.62977 11.344 5.58677 11.438 5.53277 11.59ZM6.51477 15.988C6.59477 16.094 6.63577 16.218 6.63577 16.361C6.63708 16.4603 6.61724 16.5587 6.57759 16.6497C6.53793 16.7408 6.47937 16.8223 6.40577 16.889C6.24857 17.034 6.04054 17.1113 5.82677 17.104C5.72704 17.1077 5.62756 17.0917 5.53403 17.0568C5.4405 17.022 5.35478 16.969 5.28177 16.901C5.13977 16.765 5.06177 16.581 5.09877 16.298L5.55477 16.34C5.56977 16.441 5.60477 16.514 5.65477 16.56C5.70848 16.6064 5.77782 16.6307 5.84877 16.628C5.93177 16.628 5.99877 16.602 6.05177 16.55C6.0777 16.5257 6.09822 16.4962 6.112 16.4635C6.12579 16.4308 6.13252 16.3955 6.13177 16.36C6.13168 16.3189 6.12173 16.2786 6.10276 16.2422C6.08379 16.2058 6.05636 16.1745 6.02277 16.151C5.94777 16.091 5.83577 16.061 5.63677 16.008L5.68277 15.607C5.75231 15.6044 5.82093 15.5902 5.88577 15.565C5.9229 15.5482 5.95472 15.5216 5.97777 15.488C5.99842 15.4587 6.00959 15.4238 6.00977 15.388C6.01052 15.3676 6.00689 15.3474 5.99912 15.3286C5.99136 15.3098 5.97964 15.2929 5.96477 15.279C5.92993 15.2481 5.88426 15.2323 5.83777 15.235C5.79075 15.2347 5.74499 15.2502 5.70777 15.279C5.66948 15.3069 5.64139 15.3466 5.62777 15.392L5.57977 15.427L5.13577 15.371C5.15023 15.2167 5.21527 15.0715 5.32077 14.958C5.3892 14.887 5.47167 14.831 5.56292 14.7937C5.65417 14.7563 5.75221 14.7384 5.85077 14.741C6.03977 14.741 6.20077 14.801 6.32977 14.923C6.39137 14.9776 6.44061 15.0448 6.47424 15.12C6.50786 15.1951 6.52509 15.2766 6.52477 15.359C6.52542 15.4622 6.49512 15.5632 6.43777 15.649C6.38177 15.734 6.30177 15.802 6.19177 15.769C6.32002 15.8057 6.43319 15.8824 6.51477 15.988Z" fill="#21272A"/>
</svg>
