<svg width="21" height="20" viewBox="0 0 21 20" fill="none" xmlns="http://www.w3.org/2000/svg">
<g clip-path="url(#clip0_105_32745)">
<path d="M2.00977 10.941V17.941H14.0098V10.941H2.00977ZM2.00977 8.941H14.0098C14.5402 8.941 15.0489 9.15171 15.424 9.52679C15.7991 9.90186 16.0098 10.4106 16.0098 10.941V17.941C16.0098 18.4714 15.7991 18.9801 15.424 19.3552C15.0489 19.7303 14.5402 19.941 14.0098 19.941H2.00977C1.47933 19.941 0.970625 19.7303 0.595552 19.3552C0.220479 18.9801 0.00976563 18.4714 0.00976562 17.941V10.941C0.00976563 10.4106 0.220479 9.90186 0.595552 9.52679C0.970625 9.15171 1.47933 8.941 2.00977 8.941ZM11.0218 6.941H9.02177V2C9.02177 1.46957 9.23248 0.960859 9.60755 0.585786C9.98263 0.210714 10.4913 0 11.0218 0L18.0218 0C18.5522 0 19.0609 0.210714 19.436 0.585786C19.8111 0.960859 20.0218 1.46957 20.0218 2V14C20.0218 14.5304 19.8111 15.0391 19.436 15.4142C19.0609 15.7893 18.5522 16 18.0218 16H18.0098V14H18.0218V2H11.0218V6.941Z" fill="#21272A"/>
</g>
<defs>
<clipPath id="clip0_105_32745">
<rect width="21" height="20" fill="white" transform="translate(0.00976562)"/>
</clipPath>
</defs>
</svg>
