<svg width="24" height="24" viewBox="0 0 24 24" fill="none" xmlns="http://www.w3.org/2000/svg">
<path d="M7.00977 14V20H17.0098V14H7.00977ZM15.0098 7C15.0098 6.60603 14.9322 6.21593 14.7814 5.85195C14.6306 5.48797 14.4097 5.15726 14.1311 4.87868C13.8525 4.6001 13.5218 4.37913 13.1578 4.22836C12.7938 4.0776 12.4037 4 12.0098 4C11.6158 4 11.2257 4.0776 10.8617 4.22836C10.4977 4.37913 10.167 4.6001 9.88845 4.87868C9.60987 5.15726 9.38889 5.48797 9.23813 5.85195C9.08736 6.21593 9.00977 6.60603 9.00977 7V12H17.0098C17.5402 12 18.0489 12.2107 18.424 12.5858C18.7991 12.9609 19.0098 13.4696 19.0098 14V20C19.0098 20.5304 18.7991 21.0391 18.424 21.4142C18.0489 21.7893 17.5402 22 17.0098 22H7.00977C6.47933 22 5.97062 21.7893 5.59555 21.4142C5.22048 21.0391 5.00977 20.5304 5.00977 20V14C5.00977 13.4696 5.22048 12.9609 5.59555 12.5858C5.97062 12.2107 6.47933 12 7.00977 12V7C7.00977 5.67392 7.53655 4.40215 8.47423 3.46447C9.41191 2.52678 10.6837 2 12.0098 2C13.3358 2 14.6076 2.52678 15.5453 3.46447C16.483 4.40215 17.0098 5.67392 17.0098 7C17.0098 7.26522 16.9044 7.51957 16.7169 7.70711C16.5293 7.89464 16.275 8 16.0098 8C15.7445 8 15.4902 7.89464 15.3027 7.70711C15.1151 7.51957 15.0098 7.26522 15.0098 7ZM12.0098 19C11.4793 19 10.9706 18.7893 10.5956 18.4142C10.2205 18.0391 10.0098 17.5304 10.0098 17C10.0098 16.4696 10.2205 15.9609 10.5956 15.5858C10.9706 15.2107 11.4793 15 12.0098 15C12.5402 15 13.0489 15.2107 13.424 15.5858C13.7991 15.9609 14.0098 16.4696 14.0098 17C14.0098 17.5304 13.7991 18.0391 13.424 18.4142C13.0489 18.7893 12.5402 19 12.0098 19Z" fill="#21272A"/>
</svg>
