<svg width="24" height="24" viewBox="0 0 24 24" fill="none" xmlns="http://www.w3.org/2000/svg">
<path d="M12.0098 20C13.0706 20 14.088 19.5786 14.8382 18.8284C15.5883 18.0783 16.0098 17.0609 16.0098 16C16.0098 14.9391 15.5883 13.9217 14.8382 13.1716C14.088 12.4214 13.0706 12 12.0098 12C10.9489 12 9.93148 12.4214 9.18134 13.1716C8.43119 13.9217 8.00976 14.9391 8.00976 16C8.00976 17.0609 8.43119 18.0783 9.18134 18.8284C9.93148 19.5786 10.9489 20 12.0098 20ZM8.00976 11.528V6C8.00976 4.93913 8.43119 3.92172 9.18134 3.17157C9.93148 2.42143 10.9489 2 12.0098 2C13.0706 2 14.088 2.42143 14.8382 3.17157C15.5883 3.92172 16.0098 4.93913 16.0098 6V7C16.0098 7.26522 15.9044 7.51957 15.7169 7.70711C15.5293 7.89464 15.275 8 15.0098 8C14.7445 8 14.4902 7.89464 14.3027 7.70711C14.1151 7.51957 14.0098 7.26522 14.0098 7V6C14.0098 5.46957 13.7991 4.96086 13.424 4.58579C13.0489 4.21071 12.5402 4 12.0098 4C11.4793 4 10.9706 4.21071 10.5956 4.58579C10.2205 4.96086 10.0098 5.46957 10.0098 6V10.341C11.4145 9.84368 12.9541 9.88691 14.3287 10.4623C15.7033 11.0376 16.8147 12.1039 17.4464 13.4536C18.0781 14.8032 18.1849 16.3397 17.7461 17.7638C17.3073 19.1879 16.3543 20.3978 15.0725 21.1578C13.7907 21.9179 12.272 22.1738 10.8119 21.8758C9.35187 21.5777 8.05498 20.7469 7.17373 19.5452C6.29248 18.3436 5.88995 16.8569 6.04448 15.3748C6.19902 13.8926 6.89958 12.521 8.00976 11.527V11.528ZM12.0098 18C11.4793 18 10.9706 17.7893 10.5956 17.4142C10.2205 17.0391 10.0098 16.5304 10.0098 16C10.0098 15.4696 10.2205 14.9609 10.5956 14.5858C10.9706 14.2107 11.4793 14 12.0098 14C12.5402 14 13.0489 14.2107 13.424 14.5858C13.7991 14.9609 14.0098 15.4696 14.0098 16C14.0098 16.5304 13.7991 17.0391 13.424 17.4142C13.0489 17.7893 12.5402 18 12.0098 18Z" fill="#21272A"/>
</svg>
