<svg width="24" height="24" viewBox="0 0 24 24" fill="none" xmlns="http://www.w3.org/2000/svg">
<path d="M12.0098 20C13.0706 20 14.088 19.5786 14.8382 18.8284C15.5883 18.0783 16.0098 17.0609 16.0098 16C16.0098 14.9391 15.5883 13.9217 14.8382 13.1716C14.088 12.4214 13.0706 12 12.0098 12C10.9489 12 9.93149 12.4214 9.18134 13.1716C8.43119 13.9217 8.00977 14.9391 8.00977 16C8.00977 17.0609 8.43119 18.0783 9.18134 18.8284C9.93149 19.5786 10.9489 20 12.0098 20ZM8.00977 11.528V6C8.00977 4.93913 8.43119 3.92172 9.18134 3.17157C9.93149 2.42143 10.9489 2 12.0098 2C13.0706 2 14.088 2.42143 14.8382 3.17157C15.5883 3.92172 16.0098 4.93913 16.0098 6V11.528C16.9155 12.3381 17.5539 13.4041 17.8405 14.585C18.1271 15.7659 18.0484 17.0059 17.6148 18.1411C17.1812 19.2762 16.4132 20.253 15.4123 20.9421C14.4114 21.6312 13.2249 22.0001 12.0098 22.0001C10.7946 22.0001 9.60811 21.6312 8.60724 20.9421C7.60637 20.253 6.83833 19.2762 6.40473 18.1411C5.97114 17.0059 5.89244 15.7659 6.17904 14.585C6.46565 13.4041 7.10405 12.3381 8.00977 11.528ZM10.0098 10.34C10.6523 10.1138 11.3286 9.99879 12.0098 10C12.7108 10 13.3838 10.12 14.0098 10.341V6C14.0098 5.46957 13.7991 4.96086 13.424 4.58579C13.0489 4.21071 12.5402 4 12.0098 4C11.4793 4 10.9706 4.21071 10.5956 4.58579C10.2205 4.96086 10.0098 5.46957 10.0098 6V10.341V10.34ZM12.0098 18C11.4793 18 10.9706 17.7893 10.5956 17.4142C10.2205 17.0391 10.0098 16.5304 10.0098 16C10.0098 15.4696 10.2205 14.9609 10.5956 14.5858C10.9706 14.2107 11.4793 14 12.0098 14C12.5402 14 13.0489 14.2107 13.424 14.5858C13.7991 14.9609 14.0098 15.4696 14.0098 16C14.0098 16.5304 13.7991 17.0391 13.424 17.4142C13.0489 17.7893 12.5402 18 12.0098 18Z" fill="#21272A"/>
</svg>
