<svg width="24" height="24" viewBox="0 0 24 24" fill="none" xmlns="http://www.w3.org/2000/svg">
<path d="M6.00977 11H8.00977C8.27498 11 8.52934 11.1054 8.71687 11.2929C8.90441 11.4804 9.00977 11.7348 9.00977 12C9.00977 12.2652 8.90441 12.5196 8.71687 12.7071C8.52934 12.8946 8.27498 13 8.00977 13H6.00977C5.74455 13 5.4902 12.8946 5.30266 12.7071C5.11512 12.5196 5.00977 12.2652 5.00977 12C5.00977 11.7348 5.11512 11.4804 5.30266 11.2929C5.4902 11.1054 5.74455 11 6.00977 11ZM16.0098 11H18.0098C18.275 11 18.5293 11.1054 18.7169 11.2929C18.9044 11.4804 19.0098 11.7348 19.0098 12C19.0098 12.2652 18.9044 12.5196 18.7169 12.7071C18.5293 12.8946 18.275 13 18.0098 13H16.0098C15.7445 13 15.4902 12.8946 15.3027 12.7071C15.1151 12.5196 15.0098 12.2652 15.0098 12C15.0098 11.7348 15.1151 11.4804 15.3027 11.2929C15.4902 11.1054 15.7445 11 16.0098 11ZM11.0098 11H13.0098C13.275 11 13.5293 11.1054 13.7169 11.2929C13.9044 11.4804 14.0098 11.7348 14.0098 12C14.0098 12.2652 13.9044 12.5196 13.7169 12.7071C13.5293 12.8946 13.275 13 13.0098 13H11.0098C10.7445 13 10.4902 12.8946 10.3027 12.7071C10.1151 12.5196 10.0098 12.2652 10.0098 12C10.0098 11.7348 10.1151 11.4804 10.3027 11.2929C10.4902 11.1054 10.7445 11 11.0098 11ZM5.00977 6C5.00977 5.73478 5.11512 5.48043 5.30266 5.29289C5.4902 5.10536 5.74455 5 6.00977 5C6.27498 5 6.52934 5.10536 6.71687 5.29289C6.90441 5.48043 7.00977 5.73478 7.00977 6V8.014H17.0098V6C17.0098 5.73478 17.1151 5.48043 17.3027 5.29289C17.4902 5.10536 17.7445 5 18.0098 5C18.275 5 18.5293 5.10536 18.7169 5.29289C18.9044 5.48043 19.0098 5.73478 19.0098 6V8.014C19.0098 8.54443 18.7991 9.05314 18.424 9.42821C18.0489 9.80329 17.5402 10.014 17.0098 10.014H7.00977C6.47933 10.014 5.97062 9.80329 5.59555 9.42821C5.22048 9.05314 5.00977 8.54443 5.00977 8.014V6ZM5.00977 18.014V16C5.00977 15.4696 5.22048 14.9609 5.59555 14.5858C5.97062 14.2107 6.47933 14 7.00977 14H17.0098C17.5402 14 18.0489 14.2107 18.424 14.5858C18.7991 14.9609 19.0098 15.4696 19.0098 16V18.014C19.0098 18.2792 18.9044 18.5336 18.7169 18.7211C18.5293 18.9086 18.275 19.014 18.0098 19.014C17.7445 19.014 17.4902 18.9086 17.3027 18.7211C17.1151 18.5336 17.0098 18.2792 17.0098 18.014V16H7.00977V18.014C7.00977 18.2792 6.90441 18.5336 6.71687 18.7211C6.52934 18.9086 6.27498 19.014 6.00977 19.014C5.74455 19.014 5.4902 18.9086 5.30266 18.7211C5.11512 18.5336 5.00977 18.2792 5.00977 18.014Z" fill="#21272A"/>
</svg>
