<svg width="24" height="24" viewBox="0 0 24 24" fill="none" xmlns="http://www.w3.org/2000/svg">
<path d="M18.9168 6.44L11.2618 14.095C11.4888 14.42 11.6818 14.771 11.8368 15.143L13.7468 19.742L18.9168 6.439V6.44ZM9.91476 12.748L17.5708 5.092L4.26776 10.262L8.86676 12.173C9.23592 12.3261 9.58732 12.5189 9.91476 12.748ZM21.5328 4.886L15.5058 20.392C15.1258 21.372 14.0288 21.875 13.0568 21.516C12.82 21.4285 12.6039 21.293 12.422 21.118C12.2401 20.943 12.0963 20.7322 11.9998 20.499L10.0898 15.9C9.71812 15.0038 9.006 14.2916 8.10976 13.92L3.50976 12.01C2.55576 11.613 2.11976 10.51 2.53776 9.544C2.64026 9.30796 2.78845 9.09454 2.97381 8.91605C3.15917 8.73755 3.37803 8.59751 3.61776 8.504L19.1238 2.475C19.4607 2.33922 19.8301 2.30552 20.186 2.3781C20.542 2.45069 20.8687 2.62634 21.1256 2.8832C21.3824 3.14006 21.5581 3.46679 21.6307 3.82272C21.7032 4.17865 21.6695 4.54807 21.5338 4.885L21.5328 4.886Z" fill="#21272A"/>
</svg>
