<svg width="24" height="24" viewBox="0 0 24 24" fill="none" xmlns="http://www.w3.org/2000/svg">
<path d="M17.0098 7V18C17.0098 18.2652 16.9044 18.5196 16.7169 18.7071C16.5293 18.8946 16.275 19 16.0098 19C15.7445 19 15.4902 18.8946 15.3027 18.7071C15.1151 18.5196 15.0098 18.2652 15.0098 18V7H13.0098V18C13.0098 18.2652 12.9044 18.5196 12.7169 18.7071C12.5293 18.8946 12.275 19 12.0098 19C11.7445 19 11.4902 18.8946 11.3027 18.7071C11.1151 18.5196 11.0098 18.2652 11.0098 18V13H9.00977C7.9489 13 6.93148 12.5786 6.18134 11.8284C5.43119 11.0783 5.00977 10.0609 5.00977 9C5.00977 7.93913 5.43119 6.92172 6.18134 6.17157C6.93148 5.42143 7.9489 5 9.00977 5H18.0098C18.275 5 18.5293 5.10536 18.7169 5.29289C18.9044 5.48043 19.0098 5.73478 19.0098 6C19.0098 6.26522 18.9044 6.51957 18.7169 6.70711C18.5293 6.89464 18.275 7 18.0098 7H17.0098ZM11.0098 11V7H9.00977C8.47933 7 7.97062 7.21071 7.59555 7.58579C7.22048 7.96086 7.00977 8.46957 7.00977 9C7.00977 9.53043 7.22048 10.0391 7.59555 10.4142C7.97062 10.7893 8.47933 11 9.00977 11H11.0098Z" fill="#21272A"/>
</svg>
