<svg width="24" height="24" viewBox="0 0 24 24" fill="none" xmlns="http://www.w3.org/2000/svg">
<path d="M12.0098 20C14.1315 20 16.1663 19.1571 17.6666 17.6569C19.1669 16.1566 20.0098 14.1217 20.0098 12C20.0098 9.87827 19.1669 7.84344 17.6666 6.34315C16.1663 4.84285 14.1315 4 12.0098 4C9.88803 4 7.8532 4.84285 6.35291 6.34315C4.85262 7.84344 4.00977 9.87827 4.00977 12C4.00977 14.1217 4.85262 16.1566 6.35291 17.6569C7.8532 19.1571 9.88803 20 12.0098 20ZM12.0098 22C6.48677 22 2.00977 17.523 2.00977 12C2.00977 6.477 6.48677 2 12.0098 2C17.5328 2 22.0098 6.477 22.0098 12C22.0098 17.523 17.5328 22 12.0098 22Z" fill="#21272A"/>
<path d="M13.4738 7.20599C11.4978 7.20599 9.89077 8.80399 9.89077 10.769C9.89077 12.727 11.4978 14.32 13.4738 14.32C15.4428 14.32 17.0438 12.727 17.0438 10.769C17.0419 9.82338 16.665 8.91714 15.9957 8.24915C15.3264 7.58115 14.4194 7.20599 13.4738 7.20599ZM7.09377 16.696V7.20599H8.84577V16.696H7.09377Z" fill="#21272A"/>
</svg>
