<svg width="24" height="24" viewBox="0 0 24 24" fill="none" xmlns="http://www.w3.org/2000/svg">
<path d="M6.00977 3H8.00977C8.5402 3 9.04891 3.21071 9.42398 3.58579C9.79905 3.96086 10.0098 4.46957 10.0098 5V19C10.0098 19.5304 9.79905 20.0391 9.42398 20.4142C9.04891 20.7893 8.5402 21 8.00977 21H6.00977C5.47933 21 4.97062 20.7893 4.59555 20.4142C4.22048 20.0391 4.00977 19.5304 4.00977 19V5C4.00977 4.46957 4.22048 3.96086 4.59555 3.58579C4.97062 3.21071 5.47933 3 6.00977 3V3ZM6.00977 5V19H8.00977V5H6.00977ZM16.0098 3H18.0098C18.5402 3 19.0489 3.21071 19.424 3.58579C19.7991 3.96086 20.0098 4.46957 20.0098 5V19C20.0098 19.5304 19.7991 20.0391 19.424 20.4142C19.0489 20.7893 18.5402 21 18.0098 21H16.0098C15.4793 21 14.9706 20.7893 14.5956 20.4142C14.2205 20.0391 14.0098 19.5304 14.0098 19V5C14.0098 4.46957 14.2205 3.96086 14.5956 3.58579C14.9706 3.21071 15.4793 3 16.0098 3V3ZM16.0098 5V19H18.0098V5H16.0098Z" fill="#21272A"/>
</svg>
