<svg width="24" height="24" viewBox="0 0 24 24" fill="none" xmlns="http://www.w3.org/2000/svg">
<path d="M8.33777 18.127L8.32677 18.197C8.29025 18.4056 8.18124 18.5947 8.01897 18.7308C7.85669 18.8669 7.65157 18.9413 7.43977 18.941H4.90977C4.78007 18.9411 4.65193 18.9128 4.53426 18.8583C4.41659 18.8037 4.31224 18.7242 4.22846 18.6252C4.14469 18.5262 4.08351 18.4101 4.04919 18.285C4.01488 18.1599 4.00825 18.0289 4.02977 17.901L6.57977 2.745C6.61456 2.53676 6.72208 2.34762 6.88322 2.21121C7.04435 2.07479 7.24864 1.99995 7.45977 2H14.3798C14.9237 1.99987 15.4622 2.10688 15.9648 2.31493C16.4673 2.52297 16.9239 2.82798 17.3085 3.21252C17.6932 3.59706 17.9983 4.0536 18.2065 4.55608C18.4146 5.05855 18.5218 5.59711 18.5218 6.141C18.5218 6.414 18.5048 6.681 18.4718 6.945C18.945 7.2805 19.3308 7.72455 19.597 8.23991C19.8632 8.75527 20.002 9.32694 20.0018 9.907C20.0018 11.4242 19.3992 12.8793 18.3265 13.9524C17.2539 15.0254 15.799 15.6285 14.2818 15.629H13.6988C13.3823 15.6293 13.0761 15.7416 12.8345 15.9461C12.5929 16.1505 12.4314 16.4339 12.3788 16.746L12.0648 18.616L12.3788 16.746C12.4313 16.4338 12.5926 16.1503 12.8343 15.9459C13.0759 15.7414 13.3822 15.6291 13.6988 15.629H14.2808C15.7983 15.629 17.2537 15.0261 18.3268 13.9531C19.3999 12.88 20.0028 11.4246 20.0028 9.907C20.003 9.32694 19.8642 8.75527 19.598 8.23991C19.3318 7.72455 18.946 7.2805 18.4728 6.945C18.2767 8.5228 17.5109 9.97458 16.3193 11.0273C15.1278 12.0799 13.5927 12.6609 12.0028 12.661H10.0698C9.85972 12.6613 9.65544 12.7298 9.48771 12.8562C9.31997 12.9826 9.19786 13.1601 9.13977 13.362L7.98477 20.224C7.90477 20.704 8.27377 21.14 8.75977 21.14H10.9738C11.1595 21.14 11.3393 21.0742 11.4811 20.9543C11.623 20.8344 11.7178 20.6681 11.7488 20.485L12.0638 18.615L11.7488 20.485C11.7178 20.6681 11.623 20.8344 11.4811 20.9543C11.3393 21.0742 11.1595 21.14 10.9738 21.14H8.76077C8.64652 21.1403 8.5336 21.1156 8.42994 21.0675C8.32628 21.0195 8.2344 20.9494 8.16077 20.862C8.08674 20.7749 8.03271 20.6726 8.00248 20.5624C7.97224 20.4522 7.96654 20.3367 7.98577 20.224L8.33777 18.127Z" fill="#21272A"/>
<path d="M19.4598 7.995C19.8248 8.562 20.0378 9.237 20.0378 9.962C20.0378 10.7134 19.8898 11.4575 19.6022 12.1517C19.3146 12.8459 18.8932 13.4767 18.3618 14.0081C17.8305 14.5394 17.1997 14.9609 16.5055 15.2484C15.8113 15.536 15.0672 15.684 14.3158 15.684H13.7348C13.0808 15.684 12.5228 16.156 12.4148 16.801L11.7848 20.54C11.7538 20.723 11.6592 20.8891 11.5175 21.009C11.3758 21.1289 11.1963 21.1948 11.0108 21.195H8.98277L10.1328 14.362C10.2508 13.952 10.6278 13.662 11.0628 13.662H12.9948C14.5762 13.662 16.1038 13.0872 17.293 12.0447C18.4822 11.0021 19.2519 9.56287 19.4588 7.995H19.4598ZM8.98277 21.195H8.79577C8.68156 21.195 8.56873 21.1701 8.46514 21.122C8.36154 21.0739 8.26966 21.0039 8.19589 20.9167C8.12213 20.8295 8.06825 20.7273 8.038 20.6172C8.00776 20.507 8.00188 20.3916 8.02077 20.279L8.07777 19.941H8.43277C8.64425 19.9411 8.84902 19.8667 9.01107 19.7308C9.17312 19.5949 9.28207 19.4063 9.31877 19.198L9.33077 19.128L8.98277 21.195Z" fill="#21272A"/>
</svg>
