<svg width="24" height="24" viewBox="0 0 24 24" fill="none" xmlns="http://www.w3.org/2000/svg">
<path d="M10.2618 15.405L10.2558 15.441C10.2369 15.5498 10.1802 15.6484 10.0956 15.7194C10.0111 15.7904 9.90417 15.8292 9.79377 15.829H8.47377C8.40632 15.8288 8.33973 15.8139 8.27861 15.7853C8.2175 15.7568 8.16333 15.7153 8.11985 15.6637C8.07637 15.6122 8.04463 15.5518 8.02683 15.4867C8.00903 15.4217 8.0056 15.3535 8.01677 15.287L9.34577 7.387C9.36417 7.27882 9.42024 7.18064 9.50406 7.10982C9.58787 7.039 9.69403 7.0001 9.80377 7H13.4098C14.6018 7 15.5678 7.966 15.5678 9.158C15.5678 9.3 15.5588 9.44 15.5418 9.578C16.0248 9.92 16.3398 10.484 16.3398 11.121C16.3398 11.9119 16.0256 12.6704 15.4664 13.2296C14.9071 13.7888 14.1486 14.103 13.3578 14.103H13.0548C12.8898 14.1031 12.7302 14.1616 12.6043 14.2681C12.4783 14.3746 12.3942 14.5223 12.3668 14.685L12.2028 15.659L12.3668 14.685C12.3942 14.5223 12.4783 14.3746 12.6043 14.2681C12.7302 14.1616 12.8898 14.1031 13.0548 14.103H13.3578C14.1486 14.103 14.9071 13.7888 15.4664 13.2296C16.0256 12.6704 16.3398 11.9119 16.3398 11.121C16.3398 10.484 16.0248 9.921 15.5418 9.577C15.4398 10.3995 15.0408 11.1564 14.4198 11.7052C13.7987 12.254 12.9985 12.557 12.1698 12.557H11.1648C11.0554 12.557 10.949 12.5925 10.8615 12.6581C10.7741 12.7237 10.7103 12.816 10.6798 12.921L10.0778 16.497C10.0679 16.5557 10.0709 16.6159 10.0867 16.6734C10.1024 16.7308 10.1305 16.7842 10.1689 16.8297C10.2074 16.8752 10.2553 16.9117 10.3093 16.9368C10.3634 16.9619 10.4222 16.975 10.4818 16.975H11.6358C11.8358 16.975 12.0058 16.83 12.0398 16.633L12.2038 15.659L12.0398 16.633C12.0237 16.7286 11.9743 16.8153 11.9003 16.8779C11.8264 16.9405 11.7327 16.9749 11.6358 16.975H10.4818C10.4221 16.9753 10.3631 16.9625 10.3089 16.9375C10.2547 16.9125 10.2066 16.876 10.1681 16.8304C10.1296 16.7848 10.1015 16.7313 10.0859 16.6737C10.0703 16.6161 10.0675 16.5558 10.0778 16.497L10.2618 15.405Z" fill="#21272A"/>
<path d="M15.9768 10C16.1668 10.295 16.2778 10.647 16.2778 11.025C16.2778 11.8157 15.9637 12.574 15.4047 13.1332C14.8457 13.6924 14.0875 14.0067 13.2968 14.007H12.9928C12.8278 14.0071 12.6682 14.0656 12.5423 14.1721C12.4163 14.2786 12.3322 14.4263 12.3048 14.589L11.9778 16.538C11.9615 16.6334 11.912 16.7199 11.8381 16.7823C11.7641 16.8447 11.6705 16.879 11.5738 16.879H10.5168L11.1168 13.319C11.1469 13.2138 11.2104 13.1212 11.2977 13.0552C11.385 12.9892 11.4913 12.9533 11.6008 12.953H12.6078C13.4319 12.9531 14.228 12.6536 14.8478 12.1103C15.4676 11.5671 15.8688 10.8171 15.9768 10ZM10.5168 16.88H10.4198C10.3602 16.88 10.3014 16.8669 10.2473 16.8418C10.1933 16.8167 10.1454 16.7802 10.1069 16.7347C10.0685 16.6892 10.0404 16.6358 10.0247 16.5784C10.0089 16.5209 10.0059 16.4607 10.0158 16.402L10.0458 16.226H10.2308C10.341 16.226 10.4477 16.187 10.532 16.1161C10.6163 16.0451 10.6729 15.9466 10.6918 15.838L10.6988 15.802L10.5168 16.879V16.88Z" fill="#21272A"/>
<path d="M6.00977 4C5.47933 4 4.97062 4.21071 4.59555 4.58579C4.22048 4.96086 4.00977 5.46957 4.00977 6V18C4.00977 18.5304 4.22048 19.0391 4.59555 19.4142C4.97062 19.7893 5.47933 20 6.00977 20H18.0098C18.5402 20 19.0489 19.7893 19.424 19.4142C19.7991 19.0391 20.0098 18.5304 20.0098 18V6C20.0098 5.46957 19.7991 4.96086 19.424 4.58579C19.0489 4.21071 18.5402 4 18.0098 4H6.00977ZM6.00977 2H18.0098C19.0706 2 20.088 2.42143 20.8382 3.17157C21.5883 3.92172 22.0098 4.93913 22.0098 6V18C22.0098 19.0609 21.5883 20.0783 20.8382 20.8284C20.088 21.5786 19.0706 22 18.0098 22H6.00977C4.9489 22 3.93148 21.5786 3.18134 20.8284C2.43119 20.0783 2.00977 19.0609 2.00977 18V6C2.00977 4.93913 2.43119 3.92172 3.18134 3.17157C3.93148 2.42143 4.9489 2 6.00977 2V2Z" fill="#21272A"/>
</svg>
