<svg width="24" height="24" viewBox="0 0 24 24" fill="none" xmlns="http://www.w3.org/2000/svg">
<path d="M8.15776 15.276L6.50776 16.376L6.09276 18.056L7.75776 17.636L8.86176 15.98L8.15776 15.276ZM9.60976 13.899L10.2368 14.526L10.3278 14.494C11.2648 14.16 12.2078 13.475 13.1518 12.405C14.2908 11.115 16.2128 8.81798 18.9088 5.52598C18.9421 5.48549 18.9591 5.43406 18.9566 5.38169C18.954 5.32932 18.9321 5.27978 18.895 5.24271C18.858 5.20564 18.8084 5.18369 18.756 5.18115C18.7037 5.17862 18.6522 5.19566 18.6118 5.22898C15.3258 7.92198 13.0288 9.84498 11.7308 10.987C10.6548 11.933 9.97076 12.875 9.64276 13.806L9.60976 13.899ZM8.99476 19.385L3.35276 20.814L4.75276 15.143L7.75676 13.139C8.20976 11.863 9.09276 10.645 10.4098 9.48598C11.7298 8.32398 14.0418 6.38898 17.3458 3.68198C17.7697 3.33148 18.3091 3.15167 18.8586 3.17771C19.408 3.20375 19.928 3.43376 20.3169 3.82278C20.7058 4.2118 20.9357 4.73187 20.9615 5.28133C20.9874 5.83079 20.8074 6.37015 20.4568 6.79398C17.7468 10.103 15.8118 12.414 14.6528 13.728C13.4968 15.038 12.2798 15.921 11.0008 16.378L8.99576 19.385H8.99476Z" fill="#21272A"/>
</svg>
