<svg width="24" height="24" viewBox="0 0 24 24" fill="none" xmlns="http://www.w3.org/2000/svg">
<path d="M14.7478 7.97199L5.70976 17.01L5.11876 19.026L7.09376 18.455L16.1618 9.38699L14.7478 7.97199ZM16.2898 6.42999L17.7038 7.84399L19.0218 6.52599C19.1155 6.43223 19.1682 6.30508 19.1682 6.17249C19.1682 6.03991 19.1155 5.91276 19.0218 5.81899L18.3138 5.11199C18.22 5.01826 18.0928 4.9656 17.9603 4.9656C17.8277 4.9656 17.7005 5.01826 17.6068 5.11199L16.2908 6.42999H16.2898ZM19.7288 3.69799L20.4358 4.40499C20.9044 4.87381 21.1677 5.50958 21.1677 6.17249C21.1677 6.8354 20.9044 7.47117 20.4358 7.93999L8.14376 20.233L3.92376 21.453C3.75175 21.5026 3.56958 21.5051 3.39627 21.4603C3.22295 21.4154 3.06485 21.3249 2.93847 21.1981C2.81209 21.0713 2.72207 20.9129 2.67779 20.7395C2.63351 20.566 2.63661 20.3838 2.68676 20.212L3.93476 15.957L16.1948 3.69699C16.6636 3.22832 17.2994 2.96503 17.9623 2.96503C18.6252 2.96503 19.2609 3.22832 19.7298 3.69699L19.7288 3.69799Z" fill="#21272A"/>
</svg>
