<svg width="24" height="24" viewBox="0 0 24 24" fill="none" xmlns="http://www.w3.org/2000/svg">
<path d="M12.0028 7C9.79977 7 8.01477 8.758 8.01477 10.926C8.01477 13.503 11.2578 16.986 12.0028 16.986C12.7478 16.986 15.9898 13.601 15.9898 10.926C15.9898 8.758 14.2048 7 12.0028 7ZM11.9848 13.865C10.4168 13.865 9.14577 12.614 9.14577 11.07C9.14577 9.527 10.4168 8.276 11.9848 8.276C13.5518 8.276 14.8228 9.526 14.8228 11.07C14.8228 12.614 13.5528 13.865 11.9848 13.865Z" fill="#21272A"/>
<path d="M11.9848 8.81598C11.9148 8.81598 11.8448 8.81898 11.7748 8.82598C11.9448 9.01798 12.0468 9.26798 12.0468 9.54198C12.0468 10.148 11.5488 10.638 10.9338 10.638C10.5038 10.638 10.1298 10.398 9.94476 10.045C9.78476 10.353 9.69476 10.701 9.69476 11.07C9.69476 12.315 10.7198 13.325 11.9848 13.325C13.2488 13.325 14.2748 12.315 14.2748 11.07C14.2748 9.82498 13.2498 8.81598 11.9848 8.81598Z" fill="#21272A"/>
<path d="M12.0098 20C14.1315 20 16.1663 19.1571 17.6666 17.6569C19.1669 16.1566 20.0098 14.1217 20.0098 12C20.0098 9.87827 19.1669 7.84344 17.6666 6.34315C16.1663 4.84285 14.1315 4 12.0098 4C9.88803 4 7.8532 4.84285 6.35291 6.34315C4.85262 7.84344 4.00977 9.87827 4.00977 12C4.00977 14.1217 4.85262 16.1566 6.35291 17.6569C7.8532 19.1571 9.88803 20 12.0098 20ZM12.0098 22C6.48677 22 2.00977 17.523 2.00977 12C2.00977 6.477 6.48677 2 12.0098 2C17.5328 2 22.0098 6.477 22.0098 12C22.0098 17.523 17.5328 22 12.0098 22Z" fill="#21272A"/>
</svg>
