<svg width="24" height="24" viewBox="0 0 24 24" fill="none" xmlns="http://www.w3.org/2000/svg">
<path d="M11.9958 2C7.58977 2 4.01977 5.516 4.01977 9.852C4.01977 15.007 10.5048 21.972 11.9958 21.972C13.4858 21.972 19.9708 15.202 19.9708 9.852C19.9698 5.516 16.3998 2 11.9958 2ZM11.9598 15.73C8.82377 15.73 6.28277 13.227 6.28277 10.14C6.28277 7.054 8.82377 4.551 11.9598 4.551C15.0948 4.551 17.6358 7.054 17.6358 10.141C17.6358 13.227 15.0948 15.73 11.9598 15.73Z" fill="#21272A"/>
<path d="M11.9598 5.631C11.8188 5.631 11.6798 5.638 11.5418 5.651C11.8798 6.035 12.0848 6.536 12.0848 7.084C12.0848 8.295 11.0878 9.277 9.85777 9.277C9.45118 9.27827 9.05199 9.16835 8.70336 8.95914C8.35473 8.74993 8.06993 8.44938 7.87977 8.09C7.55977 8.705 7.37977 9.40101 7.37977 10.14C7.37977 12.63 9.42977 14.649 11.9598 14.649C14.4888 14.649 16.5398 12.63 16.5398 10.139C16.5398 7.649 14.4888 5.63 11.9598 5.63V5.631Z" fill="#21272A"/>
</svg>
