<svg width="24" height="24" viewBox="0 0 24 24" fill="none" xmlns="http://www.w3.org/2000/svg">
<path d="M12.0028 7C9.79977 7 8.01477 8.758 8.01477 10.926C8.01477 13.503 11.2578 16.986 12.0028 16.986C12.7478 16.986 15.9898 13.601 15.9898 10.926C15.9898 8.758 14.2048 7 12.0028 7ZM11.9848 13.865C10.4168 13.865 9.14577 12.614 9.14577 11.07C9.14577 9.527 10.4168 8.276 11.9848 8.276C13.5518 8.276 14.8228 9.526 14.8228 11.07C14.8228 12.614 13.5528 13.865 11.9848 13.865Z" fill="#21272A"/>
<path d="M11.9848 8.81598C11.9148 8.81598 11.8448 8.81898 11.7748 8.82598C11.9448 9.01798 12.0468 9.26798 12.0468 9.54198C12.0468 10.148 11.5488 10.638 10.9338 10.638C10.5038 10.638 10.1298 10.398 9.94476 10.045C9.78476 10.353 9.69476 10.701 9.69476 11.07C9.69476 12.315 10.7198 13.325 11.9848 13.325C13.2488 13.325 14.2748 12.315 14.2748 11.07C14.2748 9.82498 13.2498 8.81598 11.9848 8.81598Z" fill="#21272A"/>
<path d="M6.00977 4C5.47933 4 4.97062 4.21071 4.59555 4.58579C4.22048 4.96086 4.00977 5.46957 4.00977 6V18C4.00977 18.5304 4.22048 19.0391 4.59555 19.4142C4.97062 19.7893 5.47933 20 6.00977 20H18.0098C18.5402 20 19.0489 19.7893 19.424 19.4142C19.7991 19.0391 20.0098 18.5304 20.0098 18V6C20.0098 5.46957 19.7991 4.96086 19.424 4.58579C19.0489 4.21071 18.5402 4 18.0098 4H6.00977ZM6.00977 2H18.0098C19.0706 2 20.088 2.42143 20.8382 3.17157C21.5883 3.92172 22.0098 4.93913 22.0098 6V18C22.0098 19.0609 21.5883 20.0783 20.8382 20.8284C20.088 21.5786 19.0706 22 18.0098 22H6.00977C4.9489 22 3.93148 21.5786 3.18134 20.8284C2.43119 20.0783 2.00977 19.0609 2.00977 18V6C2.00977 4.93913 2.43119 3.92172 3.18134 3.17157C3.93148 2.42143 4.9489 2 6.00977 2V2Z" fill="#21272A"/>
</svg>
