<svg width="24" height="24" viewBox="0 0 24 24" fill="none" xmlns="http://www.w3.org/2000/svg">
<path d="M9.00977 2H15.0098C15.8054 2 16.5685 2.31607 17.1311 2.87868C17.6937 3.44129 18.0098 4.20435 18.0098 5V19C18.0098 19.7956 17.6937 20.5587 17.1311 21.1213C16.5685 21.6839 15.8054 22 15.0098 22H9.00977C8.21412 22 7.45105 21.6839 6.88845 21.1213C6.32584 20.5587 6.00977 19.7956 6.00977 19V5C6.00977 4.20435 6.32584 3.44129 6.88845 2.87868C7.45105 2.31607 8.21412 2 9.00977 2V2ZM9.00977 4C8.74455 4 8.4902 4.10536 8.30266 4.29289C8.11512 4.48043 8.00977 4.73478 8.00977 5V19C8.00977 19.2652 8.11512 19.5196 8.30266 19.7071C8.4902 19.8946 8.74455 20 9.00977 20H15.0098C15.275 20 15.5293 19.8946 15.7169 19.7071C15.9044 19.5196 16.0098 19.2652 16.0098 19V5C16.0098 4.73478 15.9044 4.48043 15.7169 4.29289C15.5293 4.10536 15.275 4 15.0098 4H9.00977ZM12.0098 19C11.7445 19 11.4902 18.8946 11.3027 18.7071C11.1151 18.5196 11.0098 18.2652 11.0098 18C11.0098 17.7348 11.1151 17.4804 11.3027 17.2929C11.4902 17.1054 11.7445 17 12.0098 17C12.275 17 12.5293 17.1054 12.7169 17.2929C12.9044 17.4804 13.0098 17.7348 13.0098 18C13.0098 18.2652 12.9044 18.5196 12.7169 18.7071C12.5293 18.8946 12.275 19 12.0098 19Z" fill="#21272A"/>
</svg>
