<svg width="24" height="24" viewBox="0 0 24 24" fill="none" xmlns="http://www.w3.org/2000/svg">
<path d="M4.00977 10V20H16.0098V10H4.00977ZM6.00977 8V4C6.00977 3.46957 6.22048 2.96086 6.59555 2.58579C6.97062 2.21071 7.47933 2 8.00977 2H20.0098C20.5402 2 21.0489 2.21071 21.424 2.58579C21.7991 2.96086 22.0098 3.46957 22.0098 4V14C22.0098 14.5304 21.7991 15.0391 21.424 15.4142C21.0489 15.7893 20.5402 16 20.0098 16H18.0098V20C18.0098 20.5304 17.7991 21.0391 17.424 21.4142C17.0489 21.7893 16.5402 22 16.0098 22H4.00977C3.47933 22 2.97062 21.7893 2.59555 21.4142C2.22048 21.0391 2.00977 20.5304 2.00977 20V10C2.00977 9.46957 2.22048 8.96086 2.59555 8.58579C2.97062 8.21071 3.47933 8 4.00977 8H6.00977ZM8.00977 8H16.0098C16.5402 8 17.0489 8.21071 17.424 8.58579C17.7991 8.96086 18.0098 9.46957 18.0098 10V14H20.0098V4H8.00977V8ZM8.00977 17C7.21412 17 6.45105 16.6839 5.88845 16.1213C5.32584 15.5587 5.00977 14.7956 5.00977 14C5.00977 13.2044 5.32584 12.4413 5.88845 11.8787C6.45105 11.3161 7.21412 11 8.00977 11C8.80542 11 9.56848 11.3161 10.1311 11.8787C10.6937 12.4413 11.0098 13.2044 11.0098 14C11.0098 14.7956 10.6937 15.5587 10.1311 16.1213C9.56848 16.6839 8.80542 17 8.00977 17ZM8.00977 15C8.27498 15 8.52934 14.8946 8.71687 14.7071C8.90441 14.5196 9.00977 14.2652 9.00977 14C9.00977 13.7348 8.90441 13.4804 8.71687 13.2929C8.52934 13.1054 8.27498 13 8.00977 13C7.74455 13 7.4902 13.1054 7.30266 13.2929C7.11512 13.4804 7.00977 13.7348 7.00977 14C7.00977 14.2652 7.11512 14.5196 7.30266 14.7071C7.4902 14.8946 7.74455 15 8.00977 15ZM9.00977 8C9.00977 7.20435 9.32584 6.44129 9.88845 5.87868C10.4511 5.31607 11.2141 5 12.0098 5C12.8054 5 13.5685 5.31607 14.1311 5.87868C14.6937 6.44129 15.0098 7.20435 15.0098 8H13.0098C13.0098 7.73478 12.9044 7.48043 12.7169 7.29289C12.5293 7.10536 12.275 7 12.0098 7C11.7445 7 11.4902 7.10536 11.3027 7.29289C11.1151 7.48043 11.0098 7.73478 11.0098 8H9.00977ZM10.8738 21.518L9.14577 20.511L11.8708 15.838C12.1073 15.4322 12.4358 15.0876 12.8299 14.832C13.2239 14.5763 13.6725 14.4168 14.1395 14.3662C14.6065 14.3156 15.0788 14.3754 15.5185 14.5407C15.9581 14.706 16.3528 14.9723 16.6708 15.318L17.7588 16.502L16.2858 17.856L15.1988 16.672C15.0927 16.5568 14.9611 16.4681 14.8145 16.413C14.668 16.358 14.5105 16.3381 14.3548 16.355C14.1992 16.372 14.0497 16.4252 13.9183 16.5105C13.787 16.5958 13.6776 16.7107 13.5988 16.846L10.8738 21.518ZM17.3858 8.548C17.9473 8.33129 18.5611 8.28884 19.1471 8.4262C19.7331 8.56355 20.264 8.87434 20.6708 9.318L21.7588 10.502L20.2858 11.856L19.1988 10.672C19.0512 10.5114 18.8551 10.4034 18.6404 10.3646C18.4257 10.3258 18.2043 10.3582 18.0098 10.457V10C18.0098 9.429 17.7698 8.913 17.3858 8.549V8.548Z" fill="#21272A"/>
</svg>
