<svg width="24" height="24" viewBox="0 0 24 24" fill="none" xmlns="http://www.w3.org/2000/svg">
<path d="M4.00977 17V13C4.00977 13.2652 3.90441 13.5196 3.71687 13.7071C3.52934 13.8946 3.27498 14 3.00977 14C2.74455 14 2.4902 13.8946 2.30266 13.7071C2.11512 13.5196 2.00977 13.2652 2.00977 13V11C2.00977 10.7348 2.11512 10.4804 2.30266 10.2929C2.4902 10.1054 2.74455 10 3.00977 10C3.27498 10 3.52934 10.1054 3.71687 10.2929C3.90441 10.4804 4.00977 10.7348 4.00977 11V7C4.00977 7.26522 3.90441 7.51957 3.71687 7.70711C3.52934 7.89464 3.27498 8 3.00977 8C2.74455 8 2.4902 7.89464 2.30266 7.70711C2.11512 7.51957 2.00977 7.26522 2.00977 7C2.00977 6.20435 2.32584 5.44129 2.88845 4.87868C3.45105 4.31607 4.21412 4 5.00977 4C5.27498 4 5.52934 4.10536 5.71687 4.29289C5.90441 4.48043 6.00977 4.73478 6.00977 5C6.00977 5.26522 5.90441 5.51957 5.71687 5.70711C5.52934 5.89464 5.27498 6 5.00977 6H9.00977C8.74455 6 8.4902 5.89464 8.30266 5.70711C8.11512 5.51957 8.00977 5.26522 8.00977 5C8.00977 4.73478 8.11512 4.48043 8.30266 4.29289C8.4902 4.10536 8.74455 4 9.00977 4H12.0098C12.275 4 12.5293 4.10536 12.7169 4.29289C12.9044 4.48043 13.0098 4.73478 13.0098 5C13.0098 5.26522 12.9044 5.51957 12.7169 5.70711C12.5293 5.89464 12.275 6 12.0098 6H16.0098C15.7445 6 15.4902 5.89464 15.3027 5.70711C15.1151 5.51957 15.0098 5.26522 15.0098 5C15.0098 4.73478 15.1151 4.48043 15.3027 4.29289C15.4902 4.10536 15.7445 4 16.0098 4H19.0098C19.8054 4 20.5685 4.31607 21.1311 4.87868C21.6937 5.44129 22.0098 6.20435 22.0098 7V17C22.0098 17.7956 21.6937 18.5587 21.1311 19.1213C20.5685 19.6839 19.8054 20 19.0098 20H5.00977C4.21412 20 3.45105 19.6839 2.88845 19.1213C2.32584 18.5587 2.00977 17.7956 2.00977 17C2.00977 16.7348 2.11512 16.4804 2.30266 16.2929C2.4902 16.1054 2.74455 16 3.00977 16C3.27498 16 3.52934 16.1054 3.71687 16.2929C3.90441 16.4804 4.00977 16.7348 4.00977 17ZM20.0098 12.503V7C20.0098 6.73478 19.9044 6.48043 19.7169 6.29289C19.5293 6.10536 19.275 6 19.0098 6H5.00977C4.74455 6 4.4902 6.10536 4.30266 6.29289C4.11512 6.48043 4.00977 6.73478 4.00977 7V17C4.00977 17.2652 4.11512 17.5196 4.30266 17.7071C4.4902 17.8946 4.74455 18 5.00977 18H8.51377L12.9038 10.678C13.1381 10.2874 13.4582 9.95533 13.8399 9.70689C14.2217 9.45844 14.6549 9.30018 15.1069 9.24409C15.5589 9.188 16.0178 9.23556 16.4486 9.38316C16.8795 9.53077 17.2711 9.77454 17.5938 10.096L20.0098 12.503ZM20.0098 15.326L16.1818 11.512C16.0741 11.405 15.9436 11.3238 15.7999 11.2747C15.6563 11.2256 15.5034 11.2099 15.3528 11.2287C15.2021 11.2475 15.0578 11.3003 14.9306 11.3832C14.8034 11.4661 14.6968 11.5768 14.6188 11.707L10.8458 18H19.0098C19.275 18 19.5293 17.8946 19.7169 17.7071C19.9044 17.5196 20.0098 17.2652 20.0098 17V15.326ZM8.00977 13C7.21412 13 6.45105 12.6839 5.88845 12.1213C5.32584 11.5587 5.00977 10.7956 5.00977 10C5.00977 9.20435 5.32584 8.44129 5.88845 7.87868C6.45105 7.31607 7.21412 7 8.00977 7C8.80542 7 9.56848 7.31607 10.1311 7.87868C10.6937 8.44129 11.0098 9.20435 11.0098 10C11.0098 10.7956 10.6937 11.5587 10.1311 12.1213C9.56848 12.6839 8.80542 13 8.00977 13ZM8.00977 11C8.27498 11 8.52934 10.8946 8.71687 10.7071C8.90441 10.5196 9.00977 10.2652 9.00977 10C9.00977 9.73478 8.90441 9.48043 8.71687 9.29289C8.52934 9.10536 8.27498 9 8.00977 9C7.74455 9 7.4902 9.10536 7.30266 9.29289C7.11512 9.48043 7.00977 9.73478 7.00977 10C7.00977 10.2652 7.11512 10.5196 7.30266 10.7071C7.4902 10.8946 7.74455 11 8.00977 11Z" fill="#21272A"/>
</svg>
