<svg width="24" height="24" viewBox="0 0 24 24" fill="none" xmlns="http://www.w3.org/2000/svg">
<path d="M20.0098 12.503V7C20.0098 6.73478 19.9044 6.48043 19.7169 6.29289C19.5293 6.10536 19.275 6 19.0098 6H5.00977C4.74455 6 4.4902 6.10536 4.30266 6.29289C4.11512 6.48043 4.00977 6.73478 4.00977 7V17C4.00977 17.2652 4.11512 17.5196 4.30266 17.7071C4.4902 17.8946 4.74455 18 5.00977 18H8.51377L12.9038 10.678C13.1381 10.2874 13.4582 9.95533 13.8399 9.70689C14.2217 9.45844 14.6549 9.30018 15.1069 9.24409C15.5589 9.188 16.0178 9.23556 16.4486 9.38316C16.8795 9.53077 17.2711 9.77454 17.5938 10.096L20.0098 12.503ZM20.0098 15.326L16.1818 11.512C16.0741 11.405 15.9436 11.3238 15.7999 11.2747C15.6563 11.2256 15.5034 11.2099 15.3528 11.2287C15.2021 11.2475 15.0578 11.3003 14.9306 11.3832C14.8034 11.4661 14.6968 11.5768 14.6188 11.707L10.8458 18H19.0098C19.275 18 19.5293 17.8946 19.7169 17.7071C19.9044 17.5196 20.0098 17.2652 20.0098 17V15.326ZM5.00977 4H19.0098C19.8054 4 20.5685 4.31607 21.1311 4.87868C21.6937 5.44129 22.0098 6.20435 22.0098 7V17C22.0098 17.7956 21.6937 18.5587 21.1311 19.1213C20.5685 19.6839 19.8054 20 19.0098 20H5.00977C4.21412 20 3.45105 19.6839 2.88845 19.1213C2.32584 18.5587 2.00977 17.7956 2.00977 17V7C2.00977 6.20435 2.32584 5.44129 2.88845 4.87868C3.45105 4.31607 4.21412 4 5.00977 4V4ZM8.00977 13C7.21412 13 6.45105 12.6839 5.88845 12.1213C5.32584 11.5587 5.00977 10.7956 5.00977 10C5.00977 9.20435 5.32584 8.44129 5.88845 7.87868C6.45105 7.31607 7.21412 7 8.00977 7C8.80542 7 9.56848 7.31607 10.1311 7.87868C10.6937 8.44129 11.0098 9.20435 11.0098 10C11.0098 10.7956 10.6937 11.5587 10.1311 12.1213C9.56848 12.6839 8.80542 13 8.00977 13ZM8.00977 11C8.27498 11 8.52934 10.8946 8.71687 10.7071C8.90441 10.5196 9.00977 10.2652 9.00977 10C9.00977 9.73478 8.90441 9.48043 8.71687 9.29289C8.52934 9.10536 8.27498 9 8.00977 9C7.74455 9 7.4902 9.10536 7.30266 9.29289C7.11512 9.48043 7.00977 9.73478 7.00977 10C7.00977 10.2652 7.11512 10.5196 7.30266 10.7071C7.4902 10.8946 7.74455 11 8.00977 11Z" fill="#21272A"/>
</svg>
