<svg width="24" height="24" viewBox="0 0 24 24" fill="none" xmlns="http://www.w3.org/2000/svg">
<path d="M21.9598 13C21.4588 18.053 17.1948 22 12.0098 22C6.48677 22 2.00977 17.523 2.00977 12C2.00977 6.81501 5.95677 2.55101 11.0098 2.05001V4.06201C8.99248 4.31869 7.14862 5.33388 5.85295 6.90123C4.55729 8.46858 3.90705 10.4705 4.03439 12.5C4.16173 14.5296 5.0571 16.4345 6.53851 17.8276C8.01992 19.2207 9.97621 19.9975 12.0098 20C13.9584 20 15.84 19.2888 17.3015 18C18.763 16.7112 19.704 14.9333 19.9478 13H21.9608H21.9598ZM21.9598 11H19.9478C19.7252 9.23762 18.9226 7.59935 17.6665 6.34325C16.4104 5.08715 14.7722 4.2846 13.0098 4.06201V2.04901C15.3049 2.28025 17.4496 3.29762 19.0806 4.92883C20.7117 6.56005 21.7288 8.70485 21.9598 11Z" fill="#21272A"/>
</svg>
