<svg width="24" height="24" viewBox="0 0 24 24" fill="none" xmlns="http://www.w3.org/2000/svg">
<path d="M11.0098 11.9C9.79842 11.6491 8.72302 10.9582 7.99128 9.96074C7.25953 8.9633 6.92336 7.73009 7.04768 6.49929C7.17201 5.26848 7.74801 4.12741 8.66444 3.29645C9.58087 2.4655 10.7727 2.00361 12.0098 2C13.2497 1.99876 14.4459 2.45828 15.3661 3.28938C16.2863 4.12047 16.8649 5.26383 16.9895 6.49751C17.1141 7.73118 16.7759 8.96715 16.0405 9.96548C15.305 10.9638 14.2249 11.6533 13.0098 11.9V21C13.0098 21.2652 12.9044 21.5196 12.7169 21.7071C12.5293 21.8946 12.275 22 12.0098 22C11.7446 22 11.4902 21.8946 11.3027 21.7071C11.1151 21.5196 11.0098 21.2652 11.0098 21V11.9ZM12.0098 10C12.8054 10 13.5685 9.68393 14.1311 9.12132C14.6937 8.55871 15.0098 7.79565 15.0098 7C15.0098 6.20435 14.6937 5.44129 14.1311 4.87868C13.5685 4.31607 12.8054 4 12.0098 4C11.2141 4 10.4511 4.31607 9.88845 4.87868C9.32584 5.44129 9.00977 6.20435 9.00977 7C9.00977 7.79565 9.32584 8.55871 9.88845 9.12132C10.4511 9.68393 11.2141 10 12.0098 10Z" fill="#21272A"/>
</svg>
