<svg width="24" height="24" viewBox="0 0 24 24" fill="none" xmlns="http://www.w3.org/2000/svg">
<path d="M15.1358 13.846L14.9518 12.81L19.4418 8.31901L16.5908 5.46701L12.0988 9.95701L11.0638 9.77301C10.1451 9.6083 9.19874 9.70142 8.32977 10.042L14.8678 16.579C15.2078 15.7103 15.3006 14.7643 15.1358 13.846ZM10.8858 15.45L5.17977 21.154C4.99067 21.3431 4.7342 21.4493 4.46677 21.4493C4.19934 21.4493 3.94287 21.3431 3.75377 21.154C3.56467 20.9649 3.45844 20.7084 3.45844 20.441C3.45844 20.1736 3.56467 19.9171 3.75377 19.728L9.45877 14.024L5.17977 9.74501C5.98399 8.93955 6.97125 8.34075 8.05719 7.99979C9.14313 7.65882 10.2955 7.58581 11.4158 7.78701L15.1628 4.04001C15.3501 3.85263 15.5725 3.70399 15.8172 3.60258C16.062 3.50117 16.3243 3.44897 16.5893 3.44897C16.8542 3.44897 17.1166 3.50117 17.3613 3.60258C17.6061 3.70399 17.8285 3.85263 18.0158 4.04001L20.8678 6.89301C21.2459 7.27125 21.4583 7.78418 21.4583 8.31901C21.4583 8.85383 21.2459 9.36676 20.8678 9.74501L17.1208 13.492C17.322 14.6123 17.249 15.7646 16.908 16.8506C16.567 17.9365 15.9682 18.9238 15.1628 19.728L10.8858 15.45Z" fill="#21272A"/>
</svg>
