<svg width="24" height="24" viewBox="0 0 24 24" fill="none" xmlns="http://www.w3.org/2000/svg">
<path d="M11.3648 13.614C11.1098 14.99 10.7998 16.31 9.87577 17C9.59177 14.92 10.2948 13.356 10.6208 11.697C10.0648 10.733 10.6878 8.79097 11.8608 9.26997C13.3058 9.85797 10.6108 12.856 12.4208 13.23C14.3088 13.622 15.0808 9.85597 13.9088 8.62997C12.2168 6.86197 8.98176 8.58997 9.37976 11.122C9.47676 11.742 10.0978 11.929 9.62777 12.783C8.54477 12.536 8.22176 11.656 8.26276 10.483C8.32976 8.56297 9.93777 7.21997 11.5518 7.03297C13.5918 6.79797 15.5058 7.80497 15.7708 9.78097C16.0678 12.011 14.8498 14.427 12.6678 14.253C12.0778 14.206 11.8278 13.903 11.3648 13.613V13.614Z" fill="#21272A"/>
<path d="M12.0098 20C14.1315 20 16.1663 19.1571 17.6666 17.6569C19.1669 16.1566 20.0098 14.1217 20.0098 12C20.0098 9.87827 19.1669 7.84344 17.6666 6.34315C16.1663 4.84285 14.1315 4 12.0098 4C9.88803 4 7.8532 4.84285 6.35291 6.34315C4.85262 7.84344 4.00977 9.87827 4.00977 12C4.00977 14.1217 4.85262 16.1566 6.35291 17.6569C7.8532 19.1571 9.88803 20 12.0098 20ZM12.0098 22C6.48677 22 2.00977 17.523 2.00977 12C2.00977 6.477 6.48677 2 12.0098 2C17.5328 2 22.0098 6.477 22.0098 12C22.0098 17.523 17.5328 22 12.0098 22Z" fill="#21272A"/>
</svg>
