<svg width="24" height="24" viewBox="0 0 24 24" fill="none" xmlns="http://www.w3.org/2000/svg">
<path d="M10.6798 15.097C10.1738 17.823 9.55776 20.437 7.72976 21.802C7.16676 17.682 8.55876 14.587 9.20476 11.302C8.10276 9.392 9.33776 5.547 11.6618 6.494C14.5218 7.66 9.18476 13.596 12.7678 14.338C16.5088 15.112 18.0368 7.655 15.7168 5.229C12.3648 1.728 5.95976 5.15 6.74776 10.163C6.93976 11.389 8.16876 11.761 7.23876 13.453C5.09376 12.962 4.45376 11.22 4.53676 8.897C4.66876 5.097 7.85376 2.435 11.0478 2.067C15.0878 1.601 18.8788 3.594 19.4018 7.507C19.9918 11.923 17.5788 16.707 13.2598 16.362C12.0888 16.269 11.5968 15.672 10.6798 15.097Z" fill="#21272A"/>
</svg>
