<svg width="24" height="24" viewBox="0 0 24 24" fill="none" xmlns="http://www.w3.org/2000/svg">
<path d="M11.3648 13.614C11.1098 14.99 10.7998 16.31 9.87577 17C9.59177 14.92 10.2948 13.356 10.6208 11.697C10.0648 10.733 10.6878 8.79097 11.8608 9.26997C13.3058 9.85797 10.6108 12.856 12.4208 13.23C14.3088 13.622 15.0808 9.85597 13.9088 8.62997C12.2168 6.86197 8.98176 8.58997 9.37976 11.122C9.47676 11.742 10.0978 11.929 9.62777 12.783C8.54477 12.536 8.22176 11.656 8.26276 10.483C8.32976 8.56297 9.93777 7.21997 11.5518 7.03297C13.5918 6.79797 15.5058 7.80497 15.7708 9.78097C16.0678 12.011 14.8498 14.427 12.6678 14.253C12.0778 14.206 11.8278 13.903 11.3648 13.613V13.614Z" fill="#21272A"/>
<path d="M6.00977 4C5.47933 4 4.97062 4.21071 4.59555 4.58579C4.22048 4.96086 4.00977 5.46957 4.00977 6V18C4.00977 18.5304 4.22048 19.0391 4.59555 19.4142C4.97062 19.7893 5.47933 20 6.00977 20H18.0098C18.5402 20 19.0489 19.7893 19.424 19.4142C19.7991 19.0391 20.0098 18.5304 20.0098 18V6C20.0098 5.46957 19.7991 4.96086 19.424 4.58579C19.0489 4.21071 18.5402 4 18.0098 4H6.00977ZM6.00977 2H18.0098C19.0706 2 20.088 2.42143 20.8382 3.17157C21.5883 3.92172 22.0098 4.93913 22.0098 6V18C22.0098 19.0609 21.5883 20.0783 20.8382 20.8284C20.088 21.5786 19.0706 22 18.0098 22H6.00977C4.9489 22 3.93148 21.5786 3.18134 20.8284C2.43119 20.0783 2.00977 19.0609 2.00977 18V6C2.00977 4.93913 2.43119 3.92172 3.18134 3.17157C3.93148 2.42143 4.9489 2 6.00977 2V2Z" fill="#21272A"/>
</svg>
