<svg width="24" height="24" viewBox="0 0 24 24" fill="none" xmlns="http://www.w3.org/2000/svg">
<path d="M6.26777 8.884L11.9798 18.977L17.5978 9.147C16.2678 9.042 14.8858 8.694 13.3558 8.155C12.9608 8.015 12.7578 7.984 12.5758 8.007C12.4218 8.027 10.8528 8.576 9.93277 8.809C8.77177 9.103 7.54877 9.126 6.26777 8.884ZM4.85777 6.394C6.55977 7.064 8.08177 7.214 9.44177 6.87C10.1798 6.683 11.9198 6.074 12.3248 6.023C12.8538 5.956 13.3548 6.033 14.0208 6.268C15.7948 6.894 17.3168 7.224 18.7238 7.177L19.6108 5.625C17.2097 4.54818 14.6072 3.99427 11.9758 4C9.36867 3.99449 6.78967 4.5383 4.40677 5.596L4.85777 6.393V6.394ZM2.55177 4.268C5.46674 2.76982 8.69833 1.9921 11.9758 2C15.3378 2 18.5818 2.8 21.4718 4.306C21.5911 4.3682 21.6967 4.45386 21.7821 4.55783C21.8676 4.66181 21.9312 4.78196 21.9691 4.9111C22.007 5.04023 22.0184 5.17569 22.0028 5.30936C21.9871 5.44303 21.9445 5.57215 21.8778 5.689L12.8438 21.496C12.7561 21.6492 12.6293 21.7765 12.4765 21.8649C12.3237 21.9533 12.1502 21.9996 11.9736 21.9992C11.7971 21.9988 11.6238 21.9516 11.4713 21.8626C11.3189 21.7735 11.1928 21.6456 11.1058 21.492L2.13977 5.65C2.07369 5.53292 2.0319 5.40371 2.01689 5.27011C2.00189 5.13651 2.01397 5.00125 2.05244 4.87242C2.0909 4.7436 2.15494 4.62385 2.24073 4.52035C2.32653 4.41684 2.43231 4.33169 2.55177 4.27V4.268ZM10.0098 12C9.74455 12 9.4902 11.8946 9.30266 11.7071C9.11512 11.5196 9.00977 11.2652 9.00977 11C9.00977 10.7348 9.11512 10.4804 9.30266 10.2929C9.4902 10.1054 9.74455 10 10.0098 10C10.275 10 10.5293 10.1054 10.7169 10.2929C10.9044 10.4804 11.0098 10.7348 11.0098 11C11.0098 11.2652 10.9044 11.5196 10.7169 11.7071C10.5293 11.8946 10.275 12 10.0098 12ZM13.0098 15C12.7445 15 12.4902 14.8946 12.3027 14.7071C12.1151 14.5196 12.0098 14.2652 12.0098 14C12.0098 13.7348 12.1151 13.4804 12.3027 13.2929C12.4902 13.1054 12.7445 13 13.0098 13C13.275 13 13.5293 13.1054 13.7169 13.2929C13.9044 13.4804 14.0098 13.7348 14.0098 14C14.0098 14.2652 13.9044 14.5196 13.7169 14.7071C13.5293 14.8946 13.275 15 13.0098 15Z" fill="#21272A"/>
</svg>
