<svg width="24" height="24" viewBox="0 0 24 24" fill="none" xmlns="http://www.w3.org/2000/svg">
<path d="M12.2348 10.594L6.72576 16.104L4.85576 15.327L4.68876 15.496L7.06876 17.083L8.65676 19.463L8.82476 19.295L8.04876 17.425L13.5578 11.917L17.8858 18.169L18.0958 17.961L15.2088 10.265L19.6088 5.86701C19.6956 5.78014 19.7645 5.67701 19.8116 5.56351C19.8586 5.45001 19.8828 5.32836 19.8828 5.20551C19.8828 5.08266 19.8586 4.96101 19.8116 4.84751C19.7645 4.73401 19.6956 4.63088 19.6088 4.54401C19.5219 4.45714 19.4188 4.38823 19.3053 4.34122C19.1918 4.29421 19.0701 4.27001 18.9473 4.27001C18.8244 4.27001 18.7028 4.29421 18.5893 4.34122C18.4758 4.38823 18.3726 4.45714 18.2858 4.54401L13.8858 8.94301L6.19176 6.05701L5.98176 6.26601L12.2348 10.594ZM17.6248 21.077L13.2948 14.824L10.2548 17.864L11.0318 19.734L8.36576 22.399L5.72076 18.432L1.75276 15.786L4.41876 13.12L6.28776 13.896L9.32776 10.856L3.07476 6.52801L5.72076 3.88301L13.4158 6.76801L16.9628 3.22101C17.2222 2.95534 17.5317 2.74379 17.8735 2.59863C18.2152 2.45346 18.5824 2.37757 18.9537 2.37536C19.325 2.37314 19.6931 2.44463 20.0365 2.5857C20.38 2.72677 20.6921 2.93461 20.9546 3.19716C21.2172 3.45972 21.425 3.77177 21.5661 4.11524C21.7071 4.45871 21.7786 4.82676 21.7764 5.19807C21.7742 5.56937 21.6983 5.93654 21.5531 6.2783C21.408 6.62006 21.1964 6.92961 20.9308 7.18901L17.3838 10.736L20.2698 18.432L17.6238 21.077H17.6248Z" fill="#21272A"/>
</svg>
