<svg width="24" height="24" viewBox="0 0 24 24" fill="none" xmlns="http://www.w3.org/2000/svg">
<path d="M12.0098 22C6.48677 22 2.00977 17.523 2.00977 12C2.00977 6.477 6.48677 2 12.0098 2C17.5328 2 22.0098 6.477 22.0098 12C22.0098 17.523 17.5328 22 12.0098 22ZM12.0098 20C14.1315 20 16.1663 19.1571 17.6666 17.6569C19.1669 16.1566 20.0098 14.1217 20.0098 12C20.0098 9.87827 19.1669 7.84344 17.6666 6.34315C16.1663 4.84285 14.1315 4 12.0098 4C9.88803 4 7.8532 4.84285 6.35291 6.34315C4.85262 7.84344 4.00977 9.87827 4.00977 12C4.00977 14.1217 4.85262 16.1566 6.35291 17.6569C7.8532 19.1571 9.88803 20 12.0098 20ZM16.1358 13.746L12.0808 16.644C11.1758 17.29 9.95077 17.033 9.34377 16.068C9.1247 15.7171 9.00895 15.3116 9.00977 14.898V9.102C9.00977 7.942 9.89277 7 10.9818 7C11.3728 7 11.7558 7.124 12.0808 7.356L16.1358 10.254C17.0408 10.901 17.2818 12.206 16.6758 13.171C16.5348 13.3959 16.3514 13.5913 16.1358 13.746ZM10.9818 9.102V14.898L15.0368 12L10.9818 9.102Z" fill="#21272A"/>
</svg>
