<svg width="24" height="24" viewBox="0 0 24 24" fill="none" xmlns="http://www.w3.org/2000/svg">
<path d="M17.8298 12.523C17.9 12.4128 17.9473 12.2896 17.969 12.1608C17.9907 12.032 17.9863 11.9001 17.9561 11.773C17.9259 11.6458 17.8705 11.5261 17.7931 11.4208C17.7157 11.3155 17.618 11.2268 17.5058 11.16L7.58377 5.128C7.42242 5.03033 7.23737 4.9788 7.04877 4.979C6.48877 4.979 6.03577 5.422 6.03577 5.969V18.03C6.03577 18.215 6.08877 18.396 6.18877 18.553C6.48477 19.017 7.10877 19.159 7.58377 18.87L17.5058 12.839C17.6368 12.759 17.7488 12.65 17.8308 12.522L17.8298 12.523ZM18.5758 14.52L8.65477 20.551C7.22977 21.418 5.35477 20.991 4.46877 19.6C4.16921 19.1311 4.00996 18.5864 4.00977 18.03V5.97C4.00977 4.329 5.36977 3 7.04977 3C7.61677 3 8.17277 3.155 8.65477 3.448L18.5758 9.48C20.0008 10.346 20.4378 12.176 19.5508 13.568C19.3048 13.954 18.9708 14.28 18.5758 14.52Z" fill="#21272A"/>
</svg>
