<svg width="24" height="24" viewBox="0 0 24 24" fill="none" xmlns="http://www.w3.org/2000/svg">
<path d="M6.00977 2H18.0098C19.0706 2 20.088 2.42143 20.8382 3.17157C21.5883 3.92172 22.0098 4.93913 22.0098 6V18C22.0098 19.0609 21.5883 20.0783 20.8382 20.8284C20.088 21.5786 19.0706 22 18.0098 22H6.00977C4.9489 22 3.93148 21.5786 3.18134 20.8284C2.43119 20.0783 2.00977 19.0609 2.00977 18V6C2.00977 4.93913 2.43119 3.92172 3.18134 3.17157C3.93148 2.42143 4.9489 2 6.00977 2V2ZM6.00977 4C5.47933 4 4.97062 4.21071 4.59555 4.58579C4.22048 4.96086 4.00977 5.46957 4.00977 6V18C4.00977 18.5304 4.22048 19.0391 4.59555 19.4142C4.97062 19.7893 5.47933 20 6.00977 20H18.0098C18.5402 20 19.0489 19.7893 19.424 19.4142C19.7991 19.0391 20.0098 18.5304 20.0098 18V6C20.0098 5.46957 19.7991 4.96086 19.424 4.58579C19.0489 4.21071 18.5402 4 18.0098 4H6.00977ZM16.1358 13.746L12.0808 16.644C11.1758 17.29 9.95077 17.033 9.34377 16.068C9.1247 15.7171 9.00895 15.3116 9.00977 14.898V9.102C9.00977 7.942 9.89277 7 10.9818 7C11.3728 7 11.7558 7.124 12.0808 7.356L16.1358 10.254C17.0408 10.901 17.2818 12.206 16.6758 13.171C16.5348 13.3959 16.3514 13.5913 16.1358 13.746ZM10.9818 9.102V14.898L15.0368 12L10.9818 9.102Z" fill="#21272A"/>
</svg>
