<svg width="24" height="24" viewBox="0 0 24 24" fill="none" xmlns="http://www.w3.org/2000/svg">
<path d="M8.00977 11V14.5C8.00977 15.4283 8.37851 16.3185 9.03489 16.9749C9.69127 17.6313 10.5815 18 11.5098 18H12.5098C13.438 18 14.3283 17.6313 14.9846 16.9749C15.641 16.3185 16.0098 15.4283 16.0098 14.5V11H8.00977ZM14.0098 9V3C14.0098 2.73478 14.1151 2.48043 14.3027 2.29289C14.4902 2.10536 14.7445 2 15.0098 2C15.275 2 15.5293 2.10536 15.7169 2.29289C15.9044 2.48043 16.0098 2.73478 16.0098 3V9C16.5402 9 17.0489 9.21071 17.424 9.58579C17.7991 9.96086 18.0098 10.4696 18.0098 11V14.5C18.0096 15.7247 17.6009 16.9144 16.8483 17.8805C16.0957 18.8467 15.0422 19.5342 13.8548 19.834C13.9681 20.0628 14.0212 20.3167 14.009 20.5717C13.9968 20.8267 13.9197 21.0744 13.785 21.2913C13.6503 21.5082 13.4625 21.6871 13.2394 21.8111C13.0162 21.9352 12.7651 22.0002 12.5098 22H11.5098C11.2545 22.0002 11.0033 21.9352 10.7802 21.8111C10.557 21.6871 10.3692 21.5082 10.2345 21.2913C10.0998 21.0744 10.0227 20.8267 10.0105 20.5717C9.99832 20.3167 10.0514 20.0628 10.1648 19.834C8.97732 19.5342 7.92386 18.8467 7.17125 17.8805C6.41863 16.9144 6.00989 15.7247 6.00977 14.5V11C6.00977 10.4696 6.22048 9.96086 6.59555 9.58579C6.97062 9.21071 7.47933 9 8.00977 9V3C8.00977 2.73478 8.11512 2.48043 8.30266 2.29289C8.4902 2.10536 8.74455 2 9.00977 2C9.27498 2 9.52934 2.10536 9.71687 2.29289C9.90441 2.48043 10.0098 2.73478 10.0098 3V9H14.0098Z" fill="#21272A"/>
</svg>
