<svg width="24" height="24" viewBox="0 0 24 24" fill="none" xmlns="http://www.w3.org/2000/svg">
<path d="M13.4098 11.4V6.39999C13.4098 6.13478 13.3044 5.88042 13.1169 5.69289C12.9293 5.50535 12.675 5.39999 12.4098 5.39999C12.1446 5.39999 11.8902 5.50535 11.7027 5.69289C11.5151 5.88042 11.4098 6.13478 11.4098 6.39999V11.4H6.40977C6.14455 11.4 5.8902 11.5054 5.70266 11.6929C5.51512 11.8804 5.40977 12.1348 5.40977 12.4C5.40977 12.6652 5.51512 12.9196 5.70266 13.1071C5.8902 13.2946 6.14455 13.4 6.40977 13.4H11.4098V18.4C11.4098 18.6652 11.5151 18.9196 11.7027 19.1071C11.8902 19.2946 12.1446 19.4 12.4098 19.4C12.675 19.4 12.9293 19.2946 13.1169 19.1071C13.3044 18.9196 13.4098 18.6652 13.4098 18.4V13.4H18.4098C18.675 13.4 18.9293 13.2946 19.1169 13.1071C19.3044 12.9196 19.4098 12.6652 19.4098 12.4C19.4098 12.1348 19.3044 11.8804 19.1169 11.6929C18.9293 11.5054 18.675 11.4 18.4098 11.4H13.4098Z" fill="#21272A"/>
</svg>
