<svg width="24" height="24" viewBox="0 0 24 24" fill="none" xmlns="http://www.w3.org/2000/svg">
<path d="M12.0098 22C6.48677 22 2.00977 17.523 2.00977 12C2.00977 6.477 6.48677 2 12.0098 2C17.5328 2 22.0098 6.477 22.0098 12C22.0098 17.523 17.5328 22 12.0098 22ZM12.0098 20C14.1315 20 16.1663 19.1571 17.6666 17.6569C19.1669 16.1566 20.0098 14.1217 20.0098 12C20.0098 9.87827 19.1669 7.84344 17.6666 6.34315C16.1663 4.84285 14.1315 4 12.0098 4C9.88803 4 7.8532 4.84285 6.35291 6.34315C4.85262 7.84344 4.00977 9.87827 4.00977 12C4.00977 14.1217 4.85262 16.1566 6.35291 17.6569C7.8532 19.1571 9.88803 20 12.0098 20ZM13.0098 13V17C13.0098 17.2652 12.9044 17.5196 12.7169 17.7071C12.5293 17.8946 12.275 18 12.0098 18C11.7445 18 11.4902 17.8946 11.3027 17.7071C11.1151 17.5196 11.0098 17.2652 11.0098 17V13H7.00977C6.74455 13 6.4902 12.8946 6.30266 12.7071C6.11512 12.5196 6.00977 12.2652 6.00977 12C6.00977 11.7348 6.11512 11.4804 6.30266 11.2929C6.4902 11.1054 6.74455 11 7.00977 11H11.0098V7C11.0098 6.73478 11.1151 6.48043 11.3027 6.29289C11.4902 6.10536 11.7445 6 12.0098 6C12.275 6 12.5293 6.10536 12.7169 6.29289C12.9044 6.48043 13.0098 6.73478 13.0098 7V11H17.0098C17.275 11 17.5293 11.1054 17.7169 11.2929C17.9044 11.4804 18.0098 11.7348 18.0098 12C18.0098 12.2652 17.9044 12.5196 17.7169 12.7071C17.5293 12.8946 17.275 13 17.0098 13H13.0098Z" fill="#21272A"/>
</svg>
