<svg width="24" height="24" viewBox="0 0 24 24" fill="none" xmlns="http://www.w3.org/2000/svg">
<path d="M13.0098 14H15.0098C15.275 14 15.5293 14.1054 15.7169 14.2929C15.9044 14.4804 16.0098 14.7348 16.0098 15C16.0098 15.2652 15.9044 15.5196 15.7169 15.7071C15.5293 15.8946 15.275 16 15.0098 16H12.0098C11.7446 16 11.4902 15.8946 11.3027 15.7071C11.1151 15.5196 11.0098 15.2652 11.0098 15V11C11.0098 10.7348 11.1151 10.4804 11.3027 10.2929C11.4902 10.1054 11.7446 10 12.0098 10C12.275 10 12.5293 10.1054 12.7169 10.2929C12.9044 10.4804 13.0098 10.7348 13.0098 11V14ZM11.0098 6.732V6C11.0098 5.73479 11.1151 5.48043 11.3027 5.2929C11.4902 5.10536 11.7446 5 12.0098 5C12.275 5 12.5293 5.10536 12.7169 5.2929C12.9044 5.48043 13.0098 5.73479 13.0098 6V6.732C13.3911 6.51187 13.689 6.17207 13.8575 5.76532C14.026 5.35856 14.0556 4.90758 13.9416 4.48231C13.8277 4.05705 13.5766 3.68126 13.2273 3.41325C12.878 3.14523 12.45 2.99995 12.0098 2.99995C11.5695 2.99995 11.1415 3.14523 10.7922 3.41325C10.443 3.68126 10.1919 4.05705 10.0779 4.48231C9.96397 4.90758 9.99353 5.35856 10.162 5.76532C10.3305 6.17207 10.6285 6.51187 11.0098 6.732ZM8.96877 7.598C8.47215 7.01682 8.15247 6.30549 8.04759 5.54824C7.94271 4.791 8.05703 4.01957 8.377 3.32528C8.69697 2.63099 9.20919 2.04294 9.85302 1.63074C10.4968 1.21855 11.2453 0.999481 12.0098 0.999481C12.7742 0.999481 13.5227 1.21855 14.1665 1.63074C14.8104 2.04294 15.3226 2.63099 15.6425 3.32528C15.9625 4.01957 16.0768 4.791 15.9719 5.54824C15.8671 6.30549 15.5474 7.01682 15.0508 7.598C16.764 8.30296 18.1795 9.5805 19.0558 11.2127C19.9322 12.8449 20.2151 14.7305 19.8562 16.548C19.4974 18.3655 18.519 20.0021 17.0881 21.1788C15.6572 22.3554 13.8623 22.9991 12.0098 23C10.1559 23.0014 8.35914 22.359 6.92648 21.1824C5.49383 20.0059 4.51424 18.3684 4.15515 16.5496C3.79605 14.7309 4.07974 12.8439 4.95773 11.2112C5.83572 9.57842 7.25351 8.30127 8.96877 7.598ZM12.0098 21C12.7977 21 13.5779 20.8448 14.3059 20.5433C15.0338 20.2418 15.6953 19.7998 16.2524 19.2426C16.8096 18.6855 17.2515 18.0241 17.553 17.2961C17.8546 16.5682 18.0098 15.7879 18.0098 15C18.0098 14.2121 17.8546 13.4319 17.553 12.7039C17.2515 11.9759 16.8096 11.3145 16.2524 10.7574C15.6953 10.2002 15.0338 9.75826 14.3059 9.45673C13.5779 9.1552 12.7977 9 12.0098 9C10.4185 9 8.89235 9.63214 7.76713 10.7574C6.64191 11.8826 6.00977 13.4087 6.00977 15C6.00977 16.5913 6.64191 18.1174 7.76713 19.2426C8.89235 20.3679 10.4185 21 12.0098 21Z" fill="#21272A"/>
</svg>
