<svg width="24" height="24" viewBox="0 0 24 24" fill="none" xmlns="http://www.w3.org/2000/svg">
<path d="M10.0098 21.8C5.44577 20.873 2.00977 16.838 2.00977 12C2.00977 6.477 6.48677 2 12.0098 2C17.5328 2 22.0098 6.477 22.0098 12C22.0098 16.838 18.5738 20.873 14.0098 21.8V19.748C15.8951 19.2612 17.5381 18.1035 18.631 16.492C19.7238 14.8804 20.1914 12.9256 19.946 10.994C19.7007 9.06237 18.7592 7.28653 17.2982 5.99936C15.8372 4.71218 13.9569 4.00203 12.0098 4.00203C10.0626 4.00203 8.18231 4.71218 6.7213 5.99936C5.26029 7.28653 4.31888 9.06237 4.07353 10.994C3.82818 12.9256 4.29574 14.8804 5.38856 16.492C6.48139 18.1035 8.12445 19.2612 10.0098 19.748V21.8ZM10.0098 17.659C8.67534 17.1872 7.55066 16.2589 6.8345 15.038C6.11835 13.8172 5.85683 12.3825 6.09617 10.9875C6.33552 9.59254 7.06031 8.32707 8.14245 7.41479C9.22458 6.50251 10.5944 6.00215 12.0098 6.00215C13.4251 6.00215 14.7949 6.50251 15.8771 7.41479C16.9592 8.32707 17.684 9.59254 17.9234 10.9875C18.1627 12.3825 17.9012 13.8172 17.185 15.038C16.4689 16.2589 15.3442 17.1872 14.0098 17.659V15.465C14.7723 15.0247 15.3683 14.3451 15.7053 13.5316C16.0423 12.7181 16.1014 11.8162 15.8735 10.9656C15.6456 10.1151 15.1434 9.36352 14.4448 8.82749C13.7462 8.29145 12.8903 8.0009 12.0098 8.0009C11.1292 8.0009 10.2733 8.29145 9.57472 8.82749C8.87614 9.36352 8.37396 10.1151 8.14606 10.9656C7.91816 11.8162 7.97728 12.7181 8.31425 13.5316C8.65121 14.3451 9.2472 15.0247 10.0098 15.465V17.659ZM13.0098 13.732V22H11.0098V13.732C10.6285 13.5119 10.3305 13.1721 10.162 12.7653C9.99352 12.3586 9.96396 11.9076 10.0779 11.4823C10.1919 11.057 10.443 10.6813 10.7922 10.4132C11.1415 10.1452 11.5695 9.99995 12.0098 9.99995C12.45 9.99995 12.878 10.1452 13.2273 10.4132C13.5766 10.6813 13.8277 11.057 13.9416 11.4823C14.0556 11.9076 14.026 12.3586 13.8575 12.7653C13.689 13.1721 13.391 13.5119 13.0098 13.732Z" fill="#21272A"/>
</svg>
