<svg width="24" height="24" viewBox="0 0 24 24" fill="none" xmlns="http://www.w3.org/2000/svg">
<path d="M15.0098 6.6C14.8291 6.52896 14.6737 6.40549 14.5638 6.24546C14.4538 6.08543 14.3943 5.89616 14.3928 5.702C14.3928 5.166 14.8408 4.73 15.3928 4.73C15.5088 4.73 15.6208 4.75 15.7248 4.785C15.7258 4.782 15.7268 4.781 15.7288 4.782C18.8438 6.158 21.0098 9.208 21.0098 12.752C21.0098 17.582 16.9798 21.5 12.0098 21.5C7.03977 21.5 3.00977 17.583 3.00977 12.751C3.00977 9.232 5.14677 6.2 8.22777 4.81C8.35216 4.75914 8.48537 4.73331 8.61977 4.734C9.17177 4.734 9.61977 5.169 9.61977 5.705C9.61856 5.89804 9.5599 6.08635 9.45126 6.24592C9.34262 6.4055 9.18892 6.52911 9.00977 6.601C6.64477 7.693 5.00977 10.037 5.00977 12.751C5.00977 16.509 8.14377 19.556 12.0098 19.556C15.8758 19.556 19.0098 16.509 19.0098 12.751C19.0098 10.037 17.3748 7.693 15.0098 6.601V6.6ZM12.0098 2.5C12.275 2.5 12.5293 2.60536 12.7169 2.79289C12.9044 2.98043 13.0098 3.23478 13.0098 3.5V9.5C13.0098 9.76522 12.9044 10.0196 12.7169 10.2071C12.5293 10.3946 12.275 10.5 12.0098 10.5C11.7445 10.5 11.4902 10.3946 11.3027 10.2071C11.1151 10.0196 11.0098 9.76522 11.0098 9.5V3.5C11.0098 3.23478 11.1151 2.98043 11.3027 2.79289C11.4902 2.60536 11.7445 2.5 12.0098 2.5V2.5Z" fill="#21272A"/>
</svg>
