<svg width="24" height="24" viewBox="0 0 24 24" fill="none" xmlns="http://www.w3.org/2000/svg">
<path d="M18.0098 16H19.0098C19.275 16 19.5293 15.8946 19.7169 15.7071C19.9044 15.5196 20.0098 15.2652 20.0098 15V9C20.0098 8.73478 19.9044 8.48043 19.7169 8.29289C19.5293 8.10536 19.275 8 19.0098 8H5.00977C4.74455 8 4.4902 8.10536 4.30266 8.29289C4.11512 8.48043 4.00977 8.73478 4.00977 9V15C4.00977 15.2652 4.11512 15.5196 4.30266 15.7071C4.4902 15.8946 4.74455 16 5.00977 16H6.00977V11H18.0098V16ZM6.00977 6V2H18.0098V6H19.0098C19.8054 6 20.5685 6.31607 21.1311 6.87868C21.6937 7.44129 22.0098 8.20435 22.0098 9V15C22.0098 15.7956 21.6937 16.5587 21.1311 17.1213C20.5685 17.6839 19.8054 18 19.0098 18H18.0098V22H6.00977V18H5.00977C4.21412 18 3.45105 17.6839 2.88845 17.1213C2.32584 16.5587 2.00977 15.7956 2.00977 15V9C2.00977 8.20435 2.32584 7.44129 2.88845 6.87868C3.45105 6.31607 4.21412 6 5.00977 6H6.00977ZM8.00977 20H16.0098V13H8.00977V20ZM8.00977 6H16.0098V4H8.00977V6Z" fill="#21272A"/>
</svg>
