<svg width="24" height="24" viewBox="0 0 24 24" fill="none" xmlns="http://www.w3.org/2000/svg">
<path d="M15.0098 20H18.0098C18.5402 20 19.0489 19.7893 19.424 19.4142C19.7991 19.0391 20.0098 18.5304 20.0098 18V15C20.0098 14.7348 20.1151 14.4804 20.3027 14.2929C20.4902 14.1054 20.7445 14 21.0098 14C21.275 14 21.5293 14.1054 21.7169 14.2929C21.9044 14.4804 22.0098 14.7348 22.0098 15V18C22.0098 19.0609 21.5883 20.0783 20.8382 20.8284C20.088 21.5786 19.0706 22 18.0098 22H6.00977C4.9489 22 3.93148 21.5786 3.18134 20.8284C2.43119 20.0783 2.00977 19.0609 2.00977 18V15C2.00977 14.7348 2.11512 14.4804 2.30266 14.2929C2.4902 14.1054 2.74455 14 3.00977 14C3.27498 14 3.52934 14.1054 3.71687 14.2929C3.90441 14.4804 4.00977 14.7348 4.00977 15V18C4.00977 18.5304 4.22048 19.0391 4.59555 19.4142C4.97062 19.7893 5.47933 20 6.00977 20H9.00977C9.27498 20 9.52934 20.1054 9.71687 20.2929C9.90441 20.4804 10.0098 20.7348 10.0098 21C10.0098 21.2652 9.90441 21.5196 9.71687 21.7071C9.52934 21.8946 9.27498 22 9.00977 22H15.0098C14.7445 22 14.4902 21.8946 14.3027 21.7071C14.1151 21.5196 14.0098 21.2652 14.0098 21C14.0098 20.7348 14.1151 20.4804 14.3027 20.2929C14.4902 20.1054 14.7445 20 15.0098 20ZM4.00977 9C4.00977 9.26522 3.90441 9.51957 3.71687 9.70711C3.52934 9.89464 3.27498 10 3.00977 10C2.74455 10 2.4902 9.89464 2.30266 9.70711C2.11512 9.51957 2.00977 9.26522 2.00977 9V6C2.00977 4.93913 2.43119 3.92172 3.18134 3.17157C3.93148 2.42143 4.9489 2 6.00977 2H9.00977C9.27498 2 9.52934 2.10536 9.71687 2.29289C9.90441 2.48043 10.0098 2.73478 10.0098 3C10.0098 3.26522 9.90441 3.51957 9.71687 3.70711C9.52934 3.89464 9.27498 4 9.00977 4H6.00977C5.47933 4 4.97062 4.21071 4.59555 4.58579C4.22048 4.96086 4.00977 5.46957 4.00977 6V9ZM20.0098 9V6C20.0098 5.46957 19.7991 4.96086 19.424 4.58579C19.0489 4.21071 18.5402 4 18.0098 4H15.0098C14.7445 4 14.4902 3.89464 14.3027 3.70711C14.1151 3.51957 14.0098 3.26522 14.0098 3C14.0098 2.73478 14.1151 2.48043 14.3027 2.29289C14.4902 2.10536 14.7445 2 15.0098 2H18.0098C19.0706 2 20.088 2.42143 20.8382 3.17157C21.5883 3.92172 22.0098 4.93913 22.0098 6V9C22.0098 9.26522 21.9044 9.51957 21.7169 9.70711C21.5293 9.89464 21.275 10 21.0098 10C20.7445 10 20.4902 9.89464 20.3027 9.70711C20.1151 9.51957 20.0098 9.26522 20.0098 9Z" fill="#21272A"/>
</svg>
