<svg width="24" height="24" viewBox="0 0 24 24" fill="none" xmlns="http://www.w3.org/2000/svg">
<path d="M16.0798 14.847C16.0798 14.847 16.0308 15.565 15.3838 15.565C14.8838 15.565 14.5428 15.18 14.2238 14.681C14.6931 14.264 15.0681 13.7517 15.3238 13.1784C15.5795 12.6051 15.7101 11.9838 15.7068 11.356C15.7068 8.95 13.8308 7 11.5168 7C9.20277 7 7.32677 8.95 7.32677 11.356C7.32677 13.761 9.20277 15.712 11.5168 15.712C11.9368 15.712 12.3428 15.647 12.7248 15.528C13.2088 16.303 13.8228 17 14.7848 17C16.7428 17 16.8238 14.847 16.8238 14.847H16.0798ZM11.5168 14.994C10.1668 14.994 9.07377 13.365 9.07377 11.356C9.07377 9.346 10.1678 7.718 11.5168 7.718C12.8668 7.718 13.9598 9.347 13.9598 11.356C13.9598 12.155 13.7868 12.893 13.4938 13.494C13.1628 13.017 12.7648 12.611 12.1968 12.481C11.1878 12.252 10.3198 12.71 10.0448 12.938L10.3038 13.477C10.3038 13.477 10.5648 13.325 11.2138 13.477C11.6238 13.572 11.9408 14.144 12.3038 14.8C12.0605 14.9261 11.7908 14.9926 11.5168 14.994Z" fill="#21272A"/>
<path d="M6.00977 4C5.47933 4 4.97062 4.21071 4.59555 4.58579C4.22048 4.96086 4.00977 5.46957 4.00977 6V18C4.00977 18.5304 4.22048 19.0391 4.59555 19.4142C4.97062 19.7893 5.47933 20 6.00977 20H18.0098C18.5402 20 19.0489 19.7893 19.424 19.4142C19.7991 19.0391 20.0098 18.5304 20.0098 18V6C20.0098 5.46957 19.7991 4.96086 19.424 4.58579C19.0489 4.21071 18.5402 4 18.0098 4H6.00977ZM6.00977 2H18.0098C19.0706 2 20.088 2.42143 20.8382 3.17157C21.5883 3.92172 22.0098 4.93913 22.0098 6V18C22.0098 19.0609 21.5883 20.0783 20.8382 20.8284C20.088 21.5786 19.0706 22 18.0098 22H6.00977C4.9489 22 3.93148 21.5786 3.18134 20.8284C2.43119 20.0783 2.00977 19.0609 2.00977 18V6C2.00977 4.93913 2.43119 3.92172 3.18134 3.17157C3.93148 2.42143 4.9489 2 6.00977 2V2Z" fill="#21272A"/>
</svg>
