<svg width="24" height="24" viewBox="0 0 24 24" fill="none" xmlns="http://www.w3.org/2000/svg">
<path d="M20.0048 17.682C20.0048 17.682 19.9078 19.116 18.6148 19.116C17.6148 19.116 16.9328 18.348 16.2948 17.351C18.1088 15.754 19.2608 13.369 19.2608 10.705C19.2608 5.897 15.5108 2 10.8868 2C6.26176 2 2.51276 5.897 2.51276 10.705C2.51276 15.513 6.26176 19.41 10.8868 19.41C11.7268 19.41 12.5368 19.281 13.3008 19.042C14.2678 20.592 15.4958 21.985 17.4178 21.985C21.3298 21.985 21.4918 17.682 21.4918 17.682H20.0048ZM10.8868 17.975C8.19076 17.975 6.00476 14.72 6.00476 10.705C6.00476 6.69 8.19076 3.435 10.8868 3.435C13.5828 3.435 15.7688 6.69 15.7688 10.705C15.7688 12.302 15.4228 13.778 14.8368 14.977C14.1748 14.024 13.3808 13.213 12.2448 12.955C10.2298 12.496 8.49476 13.411 7.94476 13.867L8.46176 14.943C8.46176 14.943 8.98476 14.64 10.2818 14.943C11.0988 15.133 11.7338 16.277 12.4618 17.589C11.9748 17.8406 11.4349 17.973 10.8868 17.975Z" fill="#21272A"/>
</svg>
