<svg width="24" height="24" viewBox="0 0 24 24" fill="none" xmlns="http://www.w3.org/2000/svg">
<path d="M12.0098 19.5C13.9989 19.5 15.9065 18.7098 17.3131 17.3033C18.7196 15.8968 19.5098 13.9891 19.5098 12C19.5098 10.0109 18.7196 8.10322 17.3131 6.6967C15.9065 5.29018 13.9989 4.5 12.0098 4.5C10.0206 4.5 8.11299 5.29018 6.70646 6.6967C5.29994 8.10322 4.50977 10.0109 4.50977 12C4.50977 13.9891 5.29994 15.8968 6.70646 17.3033C8.11299 18.7098 10.0206 19.5 12.0098 19.5ZM12.0098 21.5C9.49021 21.5 7.07385 20.4991 5.29225 18.7175C3.51066 16.9359 2.50977 14.5196 2.50977 12C2.50977 9.48044 3.51066 7.06408 5.29225 5.28249C7.07385 3.50089 9.49021 2.5 12.0098 2.5C14.5293 2.5 16.9457 3.50089 18.7273 5.28249C20.5089 7.06408 21.5098 9.48044 21.5098 12C21.5098 14.5196 20.5089 16.9359 18.7273 18.7175C16.9457 20.4991 14.5293 21.5 12.0098 21.5Z" fill="#21272A"/>
<path d="M16.5798 15.347C16.5798 15.347 16.5308 16.065 15.8838 16.065C15.3838 16.065 15.0428 15.68 14.7238 15.181C15.1931 14.764 15.5681 14.2517 15.8238 13.6784C16.0795 13.1051 16.2101 12.4838 16.2068 11.856C16.2068 9.45 14.3308 7.5 12.0168 7.5C9.70277 7.5 7.82677 9.45 7.82677 11.856C7.82677 14.261 9.70277 16.212 12.0168 16.212C12.4368 16.212 12.8428 16.147 13.2248 16.028C13.7088 16.803 14.3228 17.5 15.2848 17.5C17.2428 17.5 17.3238 15.347 17.3238 15.347H16.5798ZM12.0168 15.494C10.6668 15.494 9.57377 13.865 9.57377 11.856C9.57377 9.846 10.6678 8.218 12.0168 8.218C13.3668 8.218 14.4598 9.847 14.4598 11.856C14.4598 12.655 14.2868 13.393 13.9938 13.994C13.6628 13.517 13.2648 13.111 12.6968 12.981C11.6878 12.752 10.8198 13.21 10.5448 13.438L10.8038 13.977C10.8038 13.977 11.0648 13.825 11.7138 13.977C12.1238 14.072 12.4408 14.644 12.8038 15.3C12.5605 15.4261 12.2908 15.4926 12.0168 15.494Z" fill="#21272A"/>
</svg>
