<svg width="24" height="24" viewBox="0 0 24 24" fill="none" xmlns="http://www.w3.org/2000/svg">
<path d="M10.0098 7C10.275 7 10.5293 7.10536 10.7169 7.29289C10.9044 7.48043 11.0098 7.73478 11.0098 8C11.0098 8.26522 10.9044 8.51957 10.7169 8.70711C10.5293 8.89464 10.275 9 10.0098 9C9.11677 9 8.31477 9.39 7.76477 10.01C8.36654 9.96069 8.96919 10.0941 9.49392 10.3928C10.0186 10.6915 10.441 11.1416 10.7058 11.6842C10.9707 12.2269 11.0656 12.8368 10.9782 13.4342C10.8908 14.0316 10.6252 14.5888 10.216 15.0328C9.80688 15.4769 9.27327 15.7871 8.68497 15.923C8.09667 16.0589 7.48105 16.0141 6.91862 15.7945C6.35618 15.5749 5.8731 15.1907 5.53253 14.6921C5.19197 14.1935 5.00977 13.6038 5.00977 13V12C5.00977 10.6739 5.53655 9.40215 6.47423 8.46447C7.41191 7.52678 8.68368 7 10.0098 7V7ZM18.0098 7C18.275 7 18.5293 7.10536 18.7169 7.29289C18.9044 7.48043 19.0098 7.73478 19.0098 8C19.0098 8.26522 18.9044 8.51957 18.7169 8.70711C18.5293 8.89464 18.275 9 18.0098 9C17.1168 9 16.3148 9.39 15.7648 10.01C16.3665 9.96069 16.9692 10.0941 17.4939 10.3928C18.0186 10.6915 18.441 11.1416 18.7058 11.6842C18.9707 12.2269 19.0656 12.8368 18.9782 13.4342C18.8908 14.0316 18.6252 14.5888 18.216 15.0328C17.8069 15.4769 17.2733 15.7871 16.685 15.923C16.0967 16.0589 15.4811 16.0141 14.9186 15.7945C14.3562 15.5749 13.8731 15.1907 13.5325 14.6921C13.192 14.1935 13.0098 13.6038 13.0098 13V12C13.0098 10.6739 13.5365 9.40215 14.4742 8.46447C15.4119 7.52678 16.6837 7 18.0098 7V7ZM8.00977 12C7.74455 12 7.4902 12.1054 7.30266 12.2929C7.11512 12.4804 7.00977 12.7348 7.00977 13C7.00977 13.2652 7.11512 13.5196 7.30266 13.7071C7.4902 13.8946 7.74455 14 8.00977 14C8.27498 14 8.52934 13.8946 8.71687 13.7071C8.90441 13.5196 9.00977 13.2652 9.00977 13C9.00977 12.7348 8.90441 12.4804 8.71687 12.2929C8.52934 12.1054 8.27498 12 8.00977 12ZM16.0098 12C15.7445 12 15.4902 12.1054 15.3027 12.2929C15.1151 12.4804 15.0098 12.7348 15.0098 13C15.0098 13.2652 15.1151 13.5196 15.3027 13.7071C15.4902 13.8946 15.7445 14 16.0098 14C16.275 14 16.5293 13.8946 16.7169 13.7071C16.9044 13.5196 17.0098 13.2652 17.0098 13C17.0098 12.7348 16.9044 12.4804 16.7169 12.2929C16.5293 12.1054 16.275 12 16.0098 12Z" fill="#21272A"/>
</svg>
