<svg width="24" height="24" viewBox="0 0 24 24" fill="none" xmlns="http://www.w3.org/2000/svg">
<path d="M2.00977 17C2.00977 11.477 6.48677 7 12.0098 7C17.5328 7 22.0098 11.477 22.0098 17H20.0098C20.0098 14.8783 19.1669 12.8434 17.6666 11.3431C16.1663 9.84285 14.1315 9 12.0098 9C9.88803 9 7.8532 9.84285 6.35291 11.3431C4.85262 12.8434 4.00977 14.8783 4.00977 17H2.00977ZM6.00977 17C6.00977 15.4087 6.64191 13.8826 7.76713 12.7574C8.89234 11.6321 10.4185 11 12.0098 11C13.6011 11 15.1272 11.6321 16.2524 12.7574C17.3776 13.8826 18.0098 15.4087 18.0098 17H16.0098C16.0098 15.9391 15.5883 14.9217 14.8382 14.1716C14.088 13.4214 13.0706 13 12.0098 13C10.9489 13 9.93148 13.4214 9.18134 14.1716C8.43119 14.9217 8.00977 15.9391 8.00977 17H6.00977ZM10.0098 17C10.0098 16.4696 10.2205 15.9609 10.5956 15.5858C10.9706 15.2107 11.4793 15 12.0098 15C12.5402 15 13.0489 15.2107 13.424 15.5858C13.7991 15.9609 14.0098 16.4696 14.0098 17H10.0098Z" fill="#21272A"/>
</svg>
