<svg width="24" height="24" viewBox="0 0 24 24" fill="none" xmlns="http://www.w3.org/2000/svg">
<path d="M12.0098 18C12.7977 18 13.5779 17.8448 14.3059 17.5433C15.0338 17.2417 15.6953 16.7998 16.2524 16.2426C16.8096 15.6855 17.2515 15.0241 17.553 14.2961C17.8546 13.5681 18.0098 12.7879 18.0098 12C18.0098 11.2121 17.8546 10.4319 17.553 9.7039C17.2515 8.97595 16.8096 8.31451 16.2524 7.75736C15.6953 7.20021 15.0338 6.75825 14.3059 6.45672C13.5779 6.15519 12.7977 6 12.0098 6C10.4185 6 8.89234 6.63214 7.76712 7.75736C6.64191 8.88258 6.00977 10.4087 6.00977 12C6.00977 13.5913 6.64191 15.1174 7.76712 16.2426C8.89234 17.3679 10.4185 18 12.0098 18ZM12.0098 20C9.88803 20 7.8532 19.1571 6.35291 17.6569C4.85262 16.1566 4.00977 14.1217 4.00977 12C4.00977 9.87827 4.85262 7.84344 6.35291 6.34315C7.8532 4.84285 9.88803 4 12.0098 4C14.1315 4 16.1663 4.84285 17.6666 6.34315C19.1669 7.84344 20.0098 9.87827 20.0098 12C20.0098 14.1217 19.1669 16.1566 17.6666 17.6569C16.1663 19.1571 14.1315 20 12.0098 20Z" fill="#21272A"/>
</svg>
