<svg width="24" height="24" viewBox="0 0 24 24" fill="none" xmlns="http://www.w3.org/2000/svg">
<path d="M21.9958 11.029C21.995 10.5329 21.8473 10.0481 21.5712 9.63587C21.2951 9.22365 20.903 8.90251 20.4445 8.713C19.986 8.52349 19.4816 8.47412 18.995 8.57113C18.5085 8.66813 18.0616 8.90716 17.7108 9.25801C16.3068 8.35201 14.5138 7.77501 12.5448 7.68501C12.5444 7.27415 12.6366 6.86847 12.8146 6.49816C12.9926 6.12784 13.2517 5.80239 13.5728 5.54601C13.8932 5.28778 14.2678 5.1052 14.6687 5.01188C15.0695 4.91855 15.4862 4.91689 15.8878 5.00701L15.9998 5.03201C15.9998 5.06001 15.9958 5.08801 15.9958 5.11601C15.9947 5.62054 16.1757 6.10852 16.5056 6.49027C16.8355 6.87202 17.292 7.12191 17.7914 7.19401C18.2907 7.26611 18.7993 7.15559 19.2237 6.88274C19.6481 6.6099 19.9598 6.19306 20.1015 5.70884C20.2431 5.22461 20.2053 4.70551 19.9949 4.24694C19.7846 3.78836 19.4158 3.42111 18.9563 3.21267C18.4968 3.00422 17.9776 2.96859 17.494 3.11232C17.0103 3.25604 16.5948 3.56947 16.3238 3.99501L16.1228 3.95001C15.5628 3.82429 14.9817 3.82661 14.4228 3.95682C13.8638 4.08703 13.3415 4.34176 12.8948 4.70201C12.4471 5.05958 12.0858 5.51345 11.8377 6.0299C11.5896 6.54634 11.4611 7.11207 11.4618 7.68501C9.49177 7.77501 7.69977 8.35201 6.29677 9.25701C6.04165 8.99949 5.73377 8.80028 5.39432 8.67309C5.05486 8.54589 4.69189 8.49374 4.33036 8.52021C3.96882 8.54667 3.61731 8.65114 3.30001 8.82641C2.9827 9.00168 2.70712 9.24361 2.49222 9.53554C2.27733 9.82748 2.12822 10.1625 2.05515 10.5176C1.98208 10.8726 1.98678 11.2393 2.06893 11.5924C2.15109 11.9454 2.30874 12.2765 2.53106 12.5628C2.75337 12.8492 3.03507 13.0839 3.35677 13.251C3.29577 13.561 3.26377 13.879 3.26377 14.203C3.26377 17.809 7.17577 20.733 12.0038 20.733C16.8298 20.733 20.7428 17.809 20.7428 14.203C20.7428 13.879 20.7108 13.562 20.6498 13.251C21.0556 13.0388 21.3956 12.7196 21.6329 12.3279C21.8702 11.9362 21.9957 11.487 21.9958 11.029ZM18.0908 4.10401C18.3538 4.11228 18.6033 4.22258 18.7864 4.41155C18.9695 4.60053 19.0719 4.85336 19.0719 5.11651C19.0719 5.37967 18.9695 5.63249 18.7864 5.82147C18.6033 6.01045 18.3538 6.12075 18.0908 6.12901C17.8277 6.12075 17.5783 6.01045 17.3951 5.82147C17.212 5.63249 17.1096 5.37967 17.1096 5.11651C17.1096 4.85336 17.212 4.60053 17.3951 4.41155C17.5783 4.22258 17.8277 4.11228 18.0908 4.10401ZM3.09277 11.03C3.09277 10.243 3.73277 9.60301 4.51977 9.60301C4.85677 9.60301 5.16577 9.72101 5.40977 9.91701C4.64677 10.572 4.05577 11.342 3.68877 12.187C3.50456 12.0555 3.3544 11.8819 3.25074 11.6806C3.14709 11.4794 3.09293 11.2564 3.09277 11.03ZM17.5348 17.953C16.0698 19.048 14.1048 19.651 12.0028 19.651C9.90077 19.651 7.93577 19.048 6.47177 17.953C5.10177 16.93 4.34677 15.598 4.34677 14.203C4.34677 12.809 5.10077 11.478 6.47177 10.453C7.93577 9.35901 9.89977 8.75701 12.0028 8.75701C14.1058 8.75701 16.0698 9.35901 17.5348 10.454C18.9048 11.478 19.6598 12.809 19.6598 14.204C19.6598 15.598 18.9048 16.93 17.5348 17.954V17.953ZM20.3168 12.186C19.9498 11.341 19.3588 10.572 18.5958 9.91701C18.8398 9.72101 19.1498 9.60301 19.4858 9.60301C20.2728 9.60301 20.9128 10.243 20.9128 11.03C20.9128 11.506 20.6778 11.928 20.3168 12.186Z" fill="#21272A"/>
<path d="M8.81076 13.821C9.44202 13.821 9.95376 13.3093 9.95376 12.678C9.95376 12.0467 9.44202 11.535 8.81076 11.535C8.1795 11.535 7.66776 12.0467 7.66776 12.678C7.66776 13.3093 8.1795 13.821 8.81076 13.821Z" fill="#21272A"/>
<path d="M15.1948 13.821C15.826 13.821 16.3378 13.3093 16.3378 12.678C16.3378 12.0467 15.826 11.535 15.1948 11.535C14.5635 11.535 14.0518 12.0467 14.0518 12.678C14.0518 13.3093 14.5635 13.821 15.1948 13.821Z" fill="#21272A"/>
<path d="M14.7108 15.455C13.9072 16.188 12.8585 16.5939 11.7708 16.593C11.1709 16.5955 10.5771 16.4733 10.0271 16.234C9.47706 15.9947 8.98282 15.6436 8.57577 15.203C8.4779 15.0978 8.34227 15.0359 8.19871 15.0307C8.05515 15.0256 7.91542 15.0776 7.81027 15.1755C7.70511 15.2734 7.64313 15.409 7.63798 15.5526C7.63282 15.6961 7.6849 15.8358 7.78277 15.941C8.29354 16.4875 8.91098 16.9235 9.59692 17.2219C10.2829 17.5203 11.0227 17.6749 11.7708 17.676C13.1286 17.6772 14.4378 17.1703 15.4408 16.255C15.4933 16.2071 15.5359 16.1493 15.5661 16.0849C15.5962 16.0205 15.6135 15.9508 15.6167 15.8798C15.62 15.8087 15.6092 15.7377 15.585 15.6709C15.5608 15.604 15.5237 15.5425 15.4758 15.49C15.4278 15.4375 15.37 15.3949 15.3056 15.3647C15.2413 15.3345 15.1716 15.3173 15.1005 15.3141C15.0295 15.3108 14.9585 15.3216 14.8916 15.3458C14.8248 15.37 14.7633 15.4071 14.7108 15.455Z" fill="#21272A"/>
</svg>
