<svg width="24" height="24" viewBox="0 0 24 24" fill="none" xmlns="http://www.w3.org/2000/svg">
<path d="M20.3568 9.24L21.2038 7.974C21.2766 7.86614 21.37 7.7738 21.4788 7.70231C21.5875 7.63082 21.7093 7.58161 21.8372 7.55752C21.9651 7.53343 22.0965 7.53495 22.2238 7.56198C22.3511 7.58901 22.4717 7.64102 22.5788 7.715C23.0348 8.025 23.1588 8.645 22.8558 9.098L20.6598 12.38C20.587 12.4879 20.4935 12.5802 20.3848 12.6517C20.276 12.7232 20.1542 12.7724 20.0263 12.7965C19.8984 12.8206 19.7671 12.819 19.6398 12.792C19.5125 12.765 19.3918 12.713 19.2848 12.639L15.9798 10.393C15.7609 10.2455 15.6091 10.0177 15.5572 9.75894C15.5053 9.50018 15.5576 9.23141 15.7028 9.011C15.7755 8.90306 15.8689 8.81063 15.9776 8.73904C16.0863 8.66746 16.2081 8.61815 16.336 8.59397C16.4639 8.56979 16.5953 8.57121 16.7226 8.59817C16.8499 8.62512 16.9707 8.67707 17.0778 8.751L18.4218 9.666C17.4378 6.386 14.4298 4 10.8728 4C6.51577 4 2.98277 7.582 2.98277 12C2.98277 16.418 6.51577 20 10.8728 20C11.4178 20 11.8598 20.448 11.8598 21C11.8598 21.552 11.4178 22 10.8728 22C5.42577 22 1.00977 17.523 1.00977 12C1.00977 6.477 5.42577 2 10.8728 2C15.3768 2 19.1748 5.06 20.3568 9.24Z" fill="#21272A"/>
</svg>
