<svg width="24" height="24" viewBox="0 0 24 24" fill="none" xmlns="http://www.w3.org/2000/svg">
<path d="M6.36876 7.808L7.96276 7.32C8.08837 7.28159 8.22032 7.26829 8.35107 7.28087C8.48181 7.29345 8.6088 7.33166 8.72478 7.39332C8.84076 7.45498 8.94346 7.53888 9.02702 7.64023C9.11058 7.74158 9.17335 7.85839 9.21176 7.984C9.25018 8.10961 9.26347 8.24155 9.25089 8.3723C9.23831 8.50305 9.2001 8.63004 9.13844 8.74602C9.07678 8.862 8.99288 8.9647 8.89154 9.04825C8.79019 9.13181 8.67337 9.19459 8.54776 9.233L4.72276 10.403C4.59709 10.4414 4.46508 10.4547 4.33427 10.4421C4.20346 10.4294 4.07643 10.3911 3.96043 10.3294C3.84443 10.2676 3.74174 10.1836 3.65824 10.0821C3.57473 9.98065 3.51205 9.86371 3.47376 9.738L2.30376 5.913C2.26535 5.78739 2.25206 5.65544 2.26464 5.5247C2.27722 5.39395 2.31543 5.26696 2.37709 5.15098C2.43875 5.035 2.52264 4.9323 2.62399 4.84874C2.72534 4.76519 2.84216 4.70241 2.96776 4.664C3.22144 4.58642 3.49555 4.6128 3.72978 4.73732C3.96402 4.86185 4.13919 5.07432 4.21676 5.328L4.65676 6.769C7.06476 3.06 11.8418 1.465 16.0828 3.203C17.3511 3.72286 18.49 4.51434 19.4195 5.52176C20.349 6.52917 21.0465 7.72804 21.4628 9.034C21.5054 9.1598 21.5226 9.29285 21.5133 9.42537C21.504 9.55789 21.4684 9.68722 21.4085 9.80582C21.3487 9.92441 21.2658 10.0299 21.1647 10.1161C21.0636 10.2023 20.9464 10.2675 20.8198 10.3079C20.6933 10.3483 20.5599 10.3631 20.4276 10.3514C20.2953 10.3396 20.1666 10.3017 20.0491 10.2397C19.9316 10.1777 19.8277 10.0929 19.7433 9.99029C19.6589 9.88767 19.5959 9.76927 19.5578 9.642C19.1353 8.31537 18.3462 7.13528 17.2817 6.238C16.2171 5.34071 14.9204 4.76282 13.5414 4.57105C12.1624 4.37927 10.7573 4.58144 9.48831 5.15421C8.21931 5.72698 7.13818 6.64698 6.36976 7.808H6.36876ZM18.6958 16.003L16.9208 16.446C16.7922 16.4812 16.658 16.4904 16.5258 16.4731C16.3937 16.4557 16.2664 16.412 16.1513 16.3448C16.0363 16.2775 15.9359 16.1878 15.856 16.0812C15.7761 15.9745 15.7183 15.853 15.686 15.7237C15.6538 15.5944 15.6477 15.4599 15.6681 15.3282C15.6886 15.1965 15.7351 15.0702 15.8051 14.9568C15.875 14.8434 15.9669 14.745 16.0754 14.6676C16.1839 14.5902 16.3067 14.5353 16.4368 14.506L20.0798 13.597C20.2696 13.5067 20.4831 13.4787 20.6898 13.517C20.8889 13.5432 21.0755 13.6287 21.2254 13.7625C21.3752 13.8963 21.4813 14.0721 21.5298 14.267L22.4978 18.147C22.5551 18.4018 22.5105 18.669 22.3734 18.8913C22.2363 19.1137 22.0177 19.2736 21.7642 19.3368C21.5108 19.4 21.2427 19.3616 21.0172 19.2297C20.7917 19.0978 20.6268 18.8829 20.5578 18.631L20.2278 17.309C19.2649 18.6946 17.9462 19.7948 16.4106 20.4938C14.8749 21.1928 13.1791 21.4647 11.5019 21.2809C9.82472 21.097 8.22813 20.4642 6.88037 19.4491C5.53261 18.434 4.48357 17.0742 3.84376 15.513L3.58376 14.879C3.53399 14.7575 3.50865 14.6273 3.50918 14.496C3.50971 14.3646 3.5361 14.2347 3.58684 14.1136C3.63759 13.9924 3.7117 13.8825 3.80494 13.79C3.89818 13.6975 4.00873 13.6243 4.13026 13.5745C4.37572 13.474 4.65106 13.4751 4.8957 13.5776C5.01683 13.6283 5.12678 13.7024 5.21928 13.7957C5.31177 13.8889 5.38499 13.9995 5.43476 14.121L5.69476 14.754C6.20451 15.9978 7.04426 17.0788 8.12338 17.8803C9.2025 18.6819 10.48 19.1735 11.8181 19.3021C13.1561 19.4308 14.5039 19.1916 15.716 18.6103C16.928 18.0291 17.9584 17.1279 18.6958 16.004V16.003Z" fill="#21272A"/>
</svg>
