<svg width="24" height="24" viewBox="0 0 24 24" fill="none" xmlns="http://www.w3.org/2000/svg">
<path d="M19.3398 6.69401L19.7598 5.31701C19.7982 5.1914 19.861 5.07459 19.9445 4.97324C20.0281 4.87189 20.1308 4.78799 20.2467 4.72633C20.3627 4.66468 20.4897 4.62647 20.6205 4.61389C20.7512 4.6013 20.8832 4.6146 21.0088 4.65301C21.1344 4.69142 21.2512 4.7542 21.3525 4.83775C21.4539 4.92131 21.5378 5.02401 21.5994 5.13999C21.6611 5.25597 21.6993 5.38296 21.7119 5.51371C21.7245 5.64446 21.7112 5.7764 21.6728 5.90201L20.5028 9.72701C20.4252 9.9805 20.2502 10.1928 20.0162 10.3173C19.7822 10.4418 19.5083 10.4683 19.2548 10.391L15.4298 9.22101C15.3015 9.18492 15.1818 9.12356 15.0776 9.04055C14.9734 8.95754 14.8869 8.85455 14.823 8.73762C14.7592 8.6207 14.7193 8.49219 14.7059 8.35966C14.6924 8.22713 14.7055 8.09323 14.7445 7.96584C14.7835 7.83846 14.8475 7.72014 14.9328 7.61784C15.0182 7.51554 15.1231 7.43133 15.2414 7.37014C15.3597 7.30895 15.4891 7.27203 15.6219 7.26153C15.7547 7.25103 15.8883 7.26717 16.0148 7.30901L17.6868 7.82001C16.9476 6.69891 15.9166 5.80069 14.7048 5.22209C13.493 4.6435 12.1464 4.40645 10.8098 4.53649C9.47329 4.66652 8.19756 5.1587 7.12002 5.96003C6.04247 6.76135 5.20395 7.84145 4.69477 9.08401L4.43477 9.71701C4.38748 9.84197 4.31563 9.95618 4.22347 10.0529C4.13131 10.1496 4.0207 10.2269 3.89818 10.2802C3.77565 10.3334 3.6437 10.3616 3.5101 10.363C3.37651 10.3644 3.24398 10.3391 3.12035 10.2884C2.99673 10.2378 2.8845 10.1629 2.79031 10.0681C2.69612 9.97336 2.62187 9.86069 2.57194 9.73677C2.52201 9.61285 2.49743 9.48018 2.49963 9.34659C2.50183 9.21301 2.53078 9.08122 2.58477 8.95901L2.84477 8.32601C3.491 6.74929 4.55449 5.37836 5.92104 4.36043C7.2876 3.3425 8.90562 2.71601 10.6014 2.54824C12.2971 2.38047 14.0065 2.67774 15.546 3.40814C17.0856 4.13855 18.3971 5.27449 19.3398 6.69401ZM3.81777 17.307L3.49077 18.618C3.46151 18.748 3.40656 18.8709 3.32914 18.9794C3.25172 19.0878 3.15341 19.1798 3.03996 19.2497C2.92652 19.3196 2.80024 19.3662 2.66855 19.3866C2.53685 19.4071 2.4024 19.401 2.2731 19.3687C2.14379 19.3365 2.02224 19.2787 1.91558 19.1988C1.80892 19.1189 1.71931 19.0185 1.65201 18.9034C1.58472 18.7884 1.5411 18.6611 1.52371 18.5289C1.50632 18.3968 1.51552 18.2625 1.55077 18.134L2.51777 14.254C2.55039 14.1219 2.60963 13.9978 2.69187 13.8894C2.7741 13.781 2.8776 13.6905 2.99602 13.6235C3.11444 13.5565 3.2453 13.5143 3.38058 13.4996C3.51586 13.4849 3.65271 13.498 3.78277 13.538L7.61077 14.492C7.86816 14.5562 8.08951 14.72 8.22613 14.9474C8.36275 15.1748 8.40345 15.4471 8.33927 15.7045C8.27508 15.9619 8.11128 16.1833 7.88389 16.3199C7.65651 16.4565 7.38416 16.4972 7.12677 16.433L5.34077 15.988C6.10428 17.1569 7.18352 18.0853 8.45331 18.6656C9.72309 19.246 11.1314 19.4544 12.5148 19.2668C13.8983 19.0793 15.2002 18.5033 16.2696 17.6058C17.339 16.7083 18.1321 15.526 18.5568 14.196C18.6374 13.9433 18.8151 13.7329 19.0509 13.6112C19.1676 13.5509 19.295 13.5142 19.4259 13.5032C19.5568 13.4922 19.6886 13.5071 19.8138 13.547C19.9389 13.5869 20.055 13.6511 20.1553 13.7359C20.2557 13.8207 20.3383 13.9244 20.3986 14.0411C20.4589 14.1578 20.4956 14.2853 20.5066 14.4162C20.5176 14.5471 20.5027 14.6789 20.4628 14.804C20.0465 16.11 19.349 17.3088 18.4195 18.3163C17.49 19.3237 16.3511 20.1152 15.0828 20.635C13.1066 21.4446 10.9134 21.5561 8.86532 20.951C6.81724 20.3459 5.03673 19.0605 3.81777 17.307Z" fill="#21272A"/>
</svg>
