<svg width="24" height="24" viewBox="0 0 24 24" fill="none" xmlns="http://www.w3.org/2000/svg">
<path d="M13.7838 18L14.9598 19.176C15.1419 19.3646 15.2427 19.6172 15.2404 19.8794C15.2382 20.1416 15.133 20.3924 14.9476 20.5778C14.7622 20.7632 14.5114 20.8684 14.2492 20.8707C13.987 20.873 13.7344 20.7722 13.5458 20.59L10.7168 17.762C10.5293 17.5745 10.424 17.3202 10.424 17.055C10.424 16.7898 10.5293 16.5355 10.7168 16.348L13.5458 13.519C13.7334 13.3315 13.9878 13.2262 14.2531 13.2263C14.5184 13.2264 14.7728 13.3319 14.9603 13.5195C15.1478 13.7071 15.2531 13.9616 15.253 14.2269C15.2529 14.4921 15.1474 14.7465 14.9598 14.934L13.8928 16H16.0098C17.0706 16 18.088 15.5786 18.8382 14.8284C19.5883 14.0783 20.0098 13.0609 20.0098 12C20.0098 10.9391 19.5883 9.92173 18.8382 9.17158C18.088 8.42144 17.0706 8.00001 16.0098 8.00001C15.7445 8.00001 15.4902 7.89465 15.3027 7.70712C15.1151 7.51958 15.0098 7.26523 15.0098 7.00001C15.0098 6.73479 15.1151 6.48044 15.3027 6.2929C15.4902 6.10537 15.7445 6.00001 16.0098 6.00001C17.6011 6.00001 19.1272 6.63215 20.2524 7.75737C21.3776 8.88259 22.0098 10.4087 22.0098 12C22.0098 13.5913 21.3776 15.1174 20.2524 16.2427C19.1272 17.3679 17.6011 18 16.0098 18H13.7838ZM10.2828 6.00001L9.18577 4.90401C9.09286 4.8111 9.01916 4.7008 8.96887 4.57941C8.91859 4.45801 8.89271 4.3279 8.89271 4.19651C8.89271 3.93115 8.99813 3.67665 9.18577 3.48901C9.37341 3.30137 9.6279 3.19595 9.89327 3.19595C10.1586 3.19595 10.4131 3.30137 10.6008 3.48901L13.4288 6.31801C13.6162 6.50554 13.7216 6.75985 13.7216 7.02501C13.7216 7.29017 13.6162 7.54448 13.4288 7.73201L10.6008 10.56C10.4133 10.7477 10.1589 10.8531 9.89362 10.8532C9.62835 10.8533 9.37391 10.748 9.18627 10.5605C8.99862 10.373 8.89316 10.1186 8.89306 9.85336C8.89297 9.58809 8.99826 9.33365 9.18577 9.14601L10.3328 8.00001H8.00977C6.9489 8.00001 5.93148 8.42144 5.18134 9.17158C4.43119 9.92173 4.00977 10.9391 4.00977 12C4.00977 13.0609 4.43119 14.0783 5.18134 14.8284C5.93148 15.5786 6.9489 16 8.00977 16C8.27498 16 8.52934 16.1054 8.71687 16.2929C8.90441 16.4804 9.00977 16.7348 9.00977 17C9.00977 17.2652 8.90441 17.5196 8.71687 17.7071C8.52934 17.8947 8.27498 18 8.00977 18C6.41847 18 4.89234 17.3679 3.76712 16.2427C2.64191 15.1174 2.00977 13.5913 2.00977 12C2.00977 10.4087 2.64191 8.88259 3.76712 7.75737C4.89234 6.63215 6.41847 6.00001 8.00977 6.00001H10.2828Z" fill="#21272A"/>
</svg>
