<svg width="24" height="24" viewBox="0 0 24 24" fill="none" xmlns="http://www.w3.org/2000/svg">
<path d="M12.3178 15.471L12.3938 14.407L13.3208 13.878C14.2108 13.3622 15.0286 12.7307 15.7528 12C18.3928 9.35901 19.1988 6.25401 18.2278 5.28201C17.2558 4.31201 14.1508 5.11601 11.5098 7.75701C10.7498 8.51701 10.1128 9.34701 9.63176 10.189L9.10176 11.116L8.03876 11.192C7.16642 11.2532 6.33864 11.6005 5.68376 12.18C6.93372 12.73 8.07014 13.5083 9.03476 14.475C10.0148 15.455 10.7868 16.592 11.3298 17.826C11.9093 17.1711 12.2566 16.3433 12.3178 15.471ZM9.34476 18.3C9.14365 18.5735 8.92201 18.8312 8.68176 19.071C7.50976 20.243 5.74176 20.596 3.37776 20.131C2.91376 17.768 3.26776 16 4.43776 14.828C4.68576 14.582 4.94376 14.36 5.20976 14.165C4.38997 13.7645 3.5139 13.4914 2.61176 13.355C2.9022 12.4433 3.40737 11.6148 4.08476 10.939C5.10316 9.91807 6.45633 9.29973 7.89476 9.19801C8.49855 8.15319 9.23834 7.19314 10.0948 6.34301C13.4148 3.02301 17.6888 1.91601 19.6418 3.86801C21.5938 5.82101 20.4858 10.095 17.1668 13.414C16.3166 14.2704 15.3566 15.0102 14.3118 15.614C14.21 17.0524 13.5917 18.4056 12.5708 19.424C11.8956 20.1024 11.0668 20.608 10.1548 20.898C10.0184 19.9959 9.74525 19.1198 9.34476 18.3ZM7.61976 15.89C7.45874 15.7286 7.27718 15.5891 7.07976 15.475C6.64776 15.625 6.13976 15.955 5.67476 16.419C5.45576 16.639 5.18776 17.378 5.18476 18.324C6.13076 18.321 6.87276 18.05 7.08976 17.834C7.55476 17.368 7.88476 16.861 8.03376 16.429C7.92001 16.2316 7.78082 16.0501 7.61976 15.889V15.89ZM15.3978 8.11001C15.3001 8.01828 15.2218 7.90786 15.1677 7.7853C15.1135 7.66274 15.0845 7.53055 15.0824 7.39657C15.0804 7.26259 15.1052 7.12956 15.1556 7.00538C15.2059 6.8812 15.2807 6.7684 15.3755 6.67368C15.4702 6.57897 15.5831 6.50427 15.7073 6.45402C15.8315 6.40377 15.9646 6.379 16.0985 6.38117C16.2325 6.38335 16.3647 6.41243 16.4872 6.46668C16.6097 6.52094 16.7201 6.59926 16.8118 6.69701C16.9842 6.88717 17.0769 7.13636 17.0707 7.39298C17.0644 7.6496 16.9598 7.894 16.7783 8.07558C16.5969 8.25715 16.3525 8.362 16.0959 8.36841C15.8393 8.37482 15.59 8.2823 15.3998 8.11001H15.3978Z" fill="#21272A"/>
</svg>
