<svg width="24" height="24" viewBox="0 0 24 24" fill="none" xmlns="http://www.w3.org/2000/svg">
<path d="M6.00577 19.97C5.74365 19.97 5.4841 19.9184 5.24193 19.8181C4.99977 19.7178 4.77973 19.5707 4.59439 19.3854C4.40904 19.2 4.26201 18.98 4.16171 18.7378C4.0614 18.4957 4.00977 18.2361 4.00977 17.974C4.00977 17.7119 4.0614 17.4523 4.16171 17.2102C4.26201 16.968 4.40904 16.748 4.59439 16.5626C4.77973 16.3773 4.99977 16.2303 5.24193 16.1299C5.4841 16.0296 5.74365 15.978 6.00577 15.978C6.53514 15.978 7.04283 16.1883 7.41716 16.5626C7.79148 16.9369 8.00177 17.4446 8.00177 17.974C8.00177 18.5034 7.79148 19.0111 7.41716 19.3854C7.04283 19.7597 6.53514 19.97 6.00577 19.97ZM5.12977 11.977C4.87077 12.0026 4.61201 11.926 4.40867 11.7636C4.20533 11.6011 4.0735 11.3657 4.04128 11.1074C4.00906 10.8491 4.07901 10.5885 4.23621 10.3811C4.3934 10.1736 4.62542 10.0358 4.88277 9.99701C6.02281 9.85451 7.18012 9.95608 8.27791 10.295C9.37571 10.6339 10.3889 11.2023 11.2502 11.9627C12.1115 12.723 12.8013 13.6578 13.2738 14.7051C13.7463 15.7523 13.9907 16.8881 13.9908 18.037V18.972C13.9908 19.2367 13.8856 19.4905 13.6985 19.6777C13.5113 19.8649 13.2575 19.97 12.9928 19.97C12.7281 19.97 12.4742 19.8649 12.2871 19.6777C12.0999 19.4905 11.9948 19.2367 11.9948 18.972V18.038C11.9946 17.1721 11.8104 16.316 11.4542 15.5267C11.0981 14.7374 10.5781 14.0329 9.92895 13.4598C9.27975 12.8867 8.51612 12.4582 7.68872 12.2028C6.86131 11.9473 5.98904 11.8707 5.12977 11.978V11.977ZM4.00977 5.06501C4.00094 4.93412 4.018 4.80279 4.05998 4.6785C4.10195 4.55422 4.16802 4.43943 4.25439 4.3407C4.34077 4.24197 4.44576 4.16124 4.56336 4.10313C4.68097 4.04501 4.80888 4.01065 4.93977 4.00201C12.7268 3.48301 19.4578 9.37401 19.9768 17.16C20.0188 17.786 20.0188 18.414 19.9768 19.04C19.968 19.1708 19.9336 19.2986 19.8755 19.4161C19.8174 19.5336 19.7367 19.6385 19.638 19.7248C19.5394 19.8111 19.4247 19.8772 19.3005 19.9191C19.1763 19.9611 19.0451 19.9782 18.9143 19.9695C18.7835 19.9608 18.6557 19.9264 18.5382 19.8682C18.4207 19.8101 18.3158 19.7294 18.2295 19.6308C18.1432 19.5321 18.0771 19.4174 18.0351 19.2932C17.9932 19.169 17.976 19.0378 17.9848 18.907C18.0208 18.369 18.0208 17.83 17.9848 17.293C17.5398 10.607 11.7598 5.54801 5.07477 5.99401C4.94373 6.00311 4.81218 5.98625 4.68766 5.9444C4.56315 5.90255 4.44812 5.83654 4.34917 5.75013C4.25023 5.66373 4.16932 5.55865 4.11107 5.4409C4.05283 5.32316 4.0184 5.19508 4.00977 5.06401V5.06501Z" fill="#21272A"/>
</svg>
