<svg width="24" height="24" viewBox="0 0 24 24" fill="none" xmlns="http://www.w3.org/2000/svg">
<path d="M11.0168 8V17C11.0168 17.2655 10.9113 17.5201 10.7236 17.7078C10.5359 17.8955 10.2812 18.001 10.0158 18.001C9.75028 18.001 9.49568 17.8955 9.30795 17.7078C9.12023 17.5201 9.01477 17.2655 9.01477 17V12H8.01377C7.61954 12.0003 7.22912 11.9229 6.8648 11.7723C6.50048 11.6216 6.16939 11.4007 5.89045 11.1221C5.6115 10.8436 5.39015 10.5128 5.23904 10.1487C5.08794 9.78454 5.01003 9.39423 5.00977 9C5.00977 7.343 6.35477 6 8.01377 6H15.0218C15.287 6 15.5413 6.10536 15.7289 6.29289C15.9164 6.48043 16.0218 6.73478 16.0218 7C16.0218 7.26522 15.9164 7.51957 15.7289 7.70711C15.5413 7.89464 15.287 8 15.0218 8H14.0218V17C14.0218 17.2656 13.9163 17.5203 13.7284 17.7082C13.5406 17.896 13.2859 18.0015 13.0203 18.0015C12.7547 18.0015 12.4999 17.896 12.3121 17.7082C12.1243 17.5203 12.0188 17.2656 12.0188 17V8H11.0168ZM17.3008 14.877L18.7168 16.291C18.9042 16.4785 19.0096 16.7328 19.0096 16.998C19.0096 17.2632 18.9042 17.5175 18.7168 17.705C18.3258 18.095 17.6918 18.095 17.3008 17.705L15.1768 15.584C15.0838 15.4911 15.01 15.3808 14.9597 15.2594C14.9094 15.138 14.8835 15.0079 14.8835 14.8765C14.8835 14.7451 14.9094 14.615 14.9597 14.4936C15.01 14.3722 15.0838 14.2619 15.1768 14.169L17.3008 12.049C17.4886 11.8614 17.7433 11.756 18.0088 11.756C18.2743 11.756 18.5289 11.8614 18.7168 12.049C18.9039 12.2365 19.0091 12.4906 19.0091 12.7555C19.0091 13.0204 18.9039 13.2745 18.7168 13.462L17.2998 14.877H17.3008ZM9.01477 8H8.01377C7.74855 8 7.4942 8.10536 7.30666 8.29289C7.11912 8.48043 7.01377 8.73478 7.01377 9C7.01377 9.26522 7.11912 9.51957 7.30666 9.70711C7.4942 9.89464 7.74855 10 8.01377 10H9.01377V8H9.01477Z" fill="#21272A"/>
</svg>
