<svg width="24" height="24" viewBox="0 0 24 24" fill="none" xmlns="http://www.w3.org/2000/svg">
<path d="M14.2378 15.228L9.99477 10.985L4.33777 16.642L6.45977 18.763C7.02235 19.3254 7.78528 19.6414 8.58077 19.6414C9.37626 19.6414 10.1392 19.3254 10.7018 18.763L14.2378 15.228ZM12.7938 19.5H15.5098C15.775 19.5 16.0293 19.6054 16.2169 19.7929C16.4044 19.9804 16.5098 20.2348 16.5098 20.5C16.5098 20.7652 16.4044 21.0196 16.2169 21.2071C16.0293 21.3946 15.775 21.5 15.5098 21.5H4.50977C4.25624 21.4998 4.01226 21.4033 3.82718 21.23C3.6421 21.0567 3.52975 20.8196 3.51285 20.5667C3.49595 20.3137 3.57577 20.0637 3.73616 19.8674C3.89654 19.671 4.12552 19.5429 4.37677 19.509L2.92377 18.056C2.54883 17.6809 2.3382 17.1723 2.3382 16.642C2.3382 16.1117 2.54883 15.6031 2.92377 15.228L14.2378 3.914C14.6128 3.53906 15.1214 3.32843 15.6518 3.32843C16.1821 3.32843 16.6907 3.53906 17.0658 3.914L21.3098 8.157C21.6847 8.53206 21.8953 9.04067 21.8953 9.571C21.8953 10.1013 21.6847 10.6099 21.3098 10.985L12.7938 19.5Z" fill="#21272A"/>
</svg>
