<svg width="24" height="24" viewBox="0 0 24 24" fill="none" xmlns="http://www.w3.org/2000/svg">
<path d="M16.9598 9.87899L16.2528 9.17199C16.0651 8.98448 15.9597 8.73011 15.9596 8.46484C15.9595 8.19957 16.0648 7.94513 16.2523 7.75749C16.4398 7.56984 16.6941 7.46438 16.9594 7.46428C17.2247 7.46419 17.4791 7.56948 17.6668 7.75699L18.3738 8.46399L19.7878 7.04999L16.9598 4.22198L4.23177 16.95L7.05977 19.778L8.47377 18.364L7.05977 16.95C6.87761 16.7614 6.77681 16.5088 6.77909 16.2466C6.78137 15.9844 6.88654 15.7336 7.07195 15.5482C7.25736 15.3628 7.50817 15.2576 7.77036 15.2553C8.03256 15.253 8.28516 15.3538 8.47377 15.536L9.88977 16.95L11.3038 15.536L10.5968 14.828C10.419 14.6387 10.3218 14.3876 10.3259 14.1279C10.3299 13.8682 10.4348 13.6203 10.6184 13.4366C10.802 13.2529 11.0498 13.1478 11.3095 13.1436C11.5692 13.1393 11.8203 13.2363 12.0098 13.414L12.7168 14.121L14.1308 12.707L12.7168 11.293C12.5346 11.1044 12.4338 10.8518 12.4361 10.5896C12.4384 10.3274 12.5435 10.0766 12.7289 9.89117C12.9144 9.70576 13.1652 9.60059 13.4274 9.59831C13.6896 9.59603 13.9422 9.69683 14.1308 9.87899L15.5458 11.293L16.9598 9.87899ZM2.81777 15.536L15.5458 2.80799C15.9208 2.43304 16.4294 2.22241 16.9598 2.22241C17.4901 2.22241 17.9987 2.43304 18.3738 2.80799L21.2018 5.63598C21.5767 6.01104 21.7873 6.51966 21.7873 7.04999C21.7873 7.58031 21.5767 8.08893 21.2018 8.46399L8.47377 21.192C8.09871 21.5669 7.59009 21.7776 7.05977 21.7776C6.52944 21.7776 6.02082 21.5669 5.64577 21.192L2.81777 18.364C2.44282 17.9889 2.23219 17.4803 2.23219 16.95C2.23219 16.4197 2.44282 15.911 2.81777 15.536Z" fill="#21272A"/>
</svg>
