<svg width="24" height="24" viewBox="0 0 24 24" fill="none" xmlns="http://www.w3.org/2000/svg">
<path d="M5.00977 3H16.2298C16.7272 3.00005 17.2067 3.18545 17.5748 3.52L20.3548 6.047C20.561 6.23444 20.7259 6.46292 20.8387 6.71778C20.9515 6.97265 21.0097 7.24829 21.0098 7.527V19C21.0098 19.5304 20.7991 20.0391 20.424 20.4142C20.0489 20.7893 19.5402 21 19.0098 21H5.00977C4.47933 21 3.97062 20.7893 3.59555 20.4142C3.22048 20.0391 3.00977 19.5304 3.00977 19V5C3.00977 4.46957 3.22048 3.96086 3.59555 3.58579C3.97062 3.21071 4.47933 3 5.00977 3V3ZM5.00977 5V19H19.0098V7.527L16.2298 5H5.00977ZM9.00977 13H15.0098C15.5402 13 16.0489 13.2107 16.424 13.5858C16.7991 13.9609 17.0098 14.4696 17.0098 15V19C17.0098 19.5304 16.7991 20.0391 16.424 20.4142C16.0489 20.7893 15.5402 21 15.0098 21H9.00977C8.47933 21 7.97062 20.7893 7.59555 20.4142C7.22048 20.0391 7.00977 19.5304 7.00977 19V15C7.00977 14.4696 7.22048 13.9609 7.59555 13.5858C7.97062 13.2107 8.47933 13 9.00977 13ZM9.00977 15V19H15.0098V15H9.00977ZM16.0098 6C16.275 6 16.5293 6.10536 16.7169 6.29289C16.9044 6.48043 17.0098 6.73478 17.0098 7V10C17.0098 10.2652 16.9044 10.5196 16.7169 10.7071C16.5293 10.8946 16.275 11 16.0098 11C15.7445 11 15.4902 10.8946 15.3027 10.7071C15.1151 10.5196 15.0098 10.2652 15.0098 10V7C15.0098 6.73478 15.1151 6.48043 15.3027 6.29289C15.4902 6.10536 15.7445 6 16.0098 6ZM8.00977 6H13.0098C13.275 6 13.5293 6.10536 13.7169 6.29289C13.9044 6.48043 14.0098 6.73478 14.0098 7V10C14.0098 10.2652 13.9044 10.5196 13.7169 10.7071C13.5293 10.8946 13.275 11 13.0098 11H8.00977C7.74455 11 7.4902 10.8946 7.30266 10.7071C7.11512 10.5196 7.00977 10.2652 7.00977 10V7C7.00977 6.73478 7.11512 6.48043 7.30266 6.29289C7.4902 6.10536 7.74455 6 8.00977 6ZM9.00977 9H12.0098V8H9.00977V9Z" fill="#21272A"/>
</svg>
