<svg width="24" height="24" viewBox="0 0 24 24" fill="none" xmlns="http://www.w3.org/2000/svg">
<path d="M11.6168 13.054L9.87277 15.13C10.3878 15.8509 10.6484 16.7226 10.6137 17.6079C10.5789 18.4931 10.2507 19.3417 9.68077 20.02C8.99812 20.8315 8.02143 21.3391 6.96501 21.4313C5.90859 21.5235 4.85872 21.1929 4.04577 20.512C3.64342 20.1751 3.31146 19.7622 3.06889 19.2969C2.82631 18.8316 2.67788 18.323 2.63208 17.8003C2.58629 17.2775 2.64404 16.7509 2.80202 16.2504C2.96001 15.75 3.21512 15.2857 3.55277 14.884C4.12338 14.2054 4.90305 13.7354 5.76954 13.5475C6.63603 13.3597 7.54036 13.4646 8.34077 13.846L10.3108 11.5L4.92277 5.08701C4.83837 4.98659 4.7746 4.87051 4.7351 4.74543C4.69561 4.62034 4.68116 4.48869 4.69258 4.35801C4.704 4.22733 4.74108 4.10019 4.80168 3.98385C4.86228 3.86752 4.94523 3.76427 5.04577 3.68001C5.14635 3.59556 5.26259 3.53175 5.38784 3.49222C5.51309 3.4527 5.6449 3.43823 5.77574 3.44966C5.90659 3.46108 6.0339 3.49816 6.1504 3.55879C6.26691 3.61942 6.37033 3.70241 6.45477 3.80301L11.6168 9.94701L16.7778 3.80301C16.8622 3.70226 16.9657 3.61915 17.0823 3.55843C17.1989 3.49771 17.3263 3.46058 17.4573 3.44916C17.5882 3.43773 17.7202 3.45224 17.8455 3.49185C17.9708 3.53147 18.0872 3.5954 18.1878 3.68001C18.2883 3.76427 18.3712 3.86752 18.4319 3.98385C18.4925 4.10019 18.5295 4.22733 18.541 4.35801C18.5524 4.48869 18.5379 4.62034 18.4984 4.74543C18.4589 4.87051 18.3952 4.98659 18.3108 5.08701L12.9218 11.5L14.8918 13.845C15.6922 13.4636 16.5965 13.3587 17.463 13.5465C18.3295 13.7344 19.1091 14.2044 19.6798 14.883C20.0174 15.2847 20.2725 15.749 20.4305 16.2494C20.5885 16.7499 20.6462 17.2765 20.6005 17.7993C20.5547 18.322 20.4062 18.8306 20.1636 19.2959C19.9211 19.7612 19.5891 20.1741 19.1868 20.511C18.3738 21.1919 17.3239 21.5225 16.2675 21.4303C15.2111 21.3381 14.2344 20.8305 13.5518 20.019C12.9818 19.3407 12.6536 18.4921 12.6189 17.6069C12.5841 16.7216 12.8447 15.8499 13.3598 15.129L11.6168 13.054ZM5.33177 18.981C5.74028 19.2969 6.25513 19.4425 6.76855 19.3874C7.28198 19.3323 7.7542 19.0807 8.08638 18.6854C8.41855 18.29 8.58494 17.7815 8.55072 17.2662C8.51649 16.751 8.28431 16.269 7.90277 15.921C7.49626 15.5804 6.97122 15.415 6.44288 15.4611C5.91455 15.5072 5.42611 15.7611 5.08477 16.167C4.37477 17.012 4.48477 18.272 5.33177 18.981ZM17.9018 18.981C18.1028 18.8125 18.2687 18.606 18.3899 18.3733C18.5111 18.1407 18.5853 17.8864 18.6081 17.625C18.631 17.3637 18.6021 17.1004 18.5231 16.8502C18.4441 16.6 18.3166 16.3679 18.1478 16.167C17.8065 15.7614 17.3182 15.5077 16.7901 15.4616C16.262 15.4155 15.7372 15.5807 15.3308 15.921C15.1296 16.0894 14.9636 16.2959 14.8423 16.5285C14.7211 16.7612 14.6468 17.0154 14.6239 17.2768C14.6009 17.5382 14.6297 17.8015 14.7087 18.0517C14.7876 18.3019 14.915 18.5341 15.0838 18.735C15.7938 19.58 17.0558 19.69 17.9018 18.981Z" fill="#21272A"/>
</svg>
