<svg width="24" height="24" viewBox="0 0 24 24" fill="none" xmlns="http://www.w3.org/2000/svg">
<path d="M6.35277 19.071C6.54024 19.2585 6.64555 19.5128 6.64555 19.778C6.64555 20.0432 6.54024 20.2975 6.35277 20.485L4.93976 21.9C4.75224 22.0875 4.49793 22.1928 4.23276 22.1928C3.9676 22.1928 3.71329 22.0875 3.52576 21.9L2.10976 20.485C1.92229 20.2975 1.81698 20.0432 1.81698 19.778C1.81698 19.5128 1.92229 19.2585 2.10976 19.071L3.52376 17.657C3.71129 17.4695 3.9656 17.3642 4.23076 17.3642C4.49593 17.3642 4.75024 17.4695 4.93776 17.657L10.5958 12C10.2208 11.625 10.0102 11.1163 10.0102 10.586C10.0102 10.0557 10.2208 9.54706 10.5958 9.17201L17.6658 2.10101C17.8515 1.91506 18.0721 1.76754 18.3149 1.66689C18.5577 1.56624 18.8179 1.51443 19.0808 1.51443C19.3436 1.51443 19.6039 1.56624 19.8466 1.66689C20.0894 1.76754 20.31 1.91506 20.4958 2.10101L21.9088 3.51501C22.2837 3.89006 22.4943 4.39868 22.4943 4.92901C22.4943 5.45934 22.2837 5.96795 21.9088 6.34301L14.8388 13.414C14.653 13.5998 14.4325 13.7472 14.1898 13.8478C13.9471 13.9483 13.687 14.0001 13.4243 14.0001C13.1616 14.0001 12.9014 13.9483 12.6587 13.8478C12.416 13.7472 12.1955 13.5998 12.0098 13.414L6.35277 19.071ZM13.4238 12L20.4948 4.92901L19.0808 3.51501L12.0098 10.585L13.4238 12Z" fill="#21272A"/>
</svg>
