<svg width="24" height="24" viewBox="0 0 24 24" fill="none" xmlns="http://www.w3.org/2000/svg">
<path d="M5.00977 5C4.74455 5 4.4902 5.10536 4.30266 5.29289C4.11512 5.48043 4.00977 5.73478 4.00977 6V15C4.00977 15.2652 4.11512 15.5196 4.30266 15.7071C4.4902 15.8946 4.74455 16 5.00977 16H19.0098C19.275 16 19.5293 15.8946 19.7169 15.7071C19.9044 15.5196 20.0098 15.2652 20.0098 15V6C20.0098 5.73478 19.9044 5.48043 19.7169 5.29289C19.5293 5.10536 19.275 5 19.0098 5H5.00977ZM5.00977 3H19.0098C19.8054 3 20.5685 3.31607 21.1311 3.87868C21.6937 4.44129 22.0098 5.20435 22.0098 6V15C22.0098 15.7956 21.6937 16.5587 21.1311 17.1213C20.5685 17.6839 19.8054 18 19.0098 18H5.00977C4.21412 18 3.45105 17.6839 2.88845 17.1213C2.32584 16.5587 2.00977 15.7956 2.00977 15V6C2.00977 5.20435 2.32584 4.44129 2.88845 3.87868C3.45105 3.31607 4.21412 3 5.00977 3V3ZM9.00977 19H15.0098C15.275 19 15.5293 19.1054 15.7169 19.2929C15.9044 19.4804 16.0098 19.7348 16.0098 20C16.0098 20.2652 15.9044 20.5196 15.7169 20.7071C15.5293 20.8946 15.275 21 15.0098 21H9.00977C8.74455 21 8.4902 20.8946 8.30266 20.7071C8.11512 20.5196 8.00977 20.2652 8.00977 20C8.00977 19.7348 8.11512 19.4804 8.30266 19.2929C8.4902 19.1054 8.74455 19 9.00977 19Z" fill="#21272A"/>
</svg>
