<svg width="24" height="24" viewBox="0 0 24 24" fill="none" xmlns="http://www.w3.org/2000/svg">
<path d="M19.0098 18C18.7445 18 18.4902 17.8946 18.3027 17.7071C18.1151 17.5196 18.0098 17.2652 18.0098 17C18.0098 16.7348 18.1151 16.4804 18.3027 16.2929C18.4902 16.1054 18.7445 16 19.0098 16C19.275 16 19.5293 15.8946 19.7169 15.7071C19.9044 15.5196 20.0098 15.2652 20.0098 15V7C20.0098 6.73478 19.9044 6.48043 19.7169 6.29289C19.5293 6.10536 19.275 6 19.0098 6H11.4248L10.9538 4.666C10.8845 4.47105 10.7566 4.30233 10.5875 4.18307C10.4185 4.06381 10.2166 3.99985 10.0098 4H5.00977C4.74455 4 4.4902 4.10536 4.30266 4.29289C4.11512 4.48043 4.00977 4.73478 4.00977 5V15C4.00977 15.2652 4.11512 15.5196 4.30266 15.7071C4.4902 15.8946 4.74455 16 5.00977 16C5.27498 16 5.52934 16.1054 5.71687 16.2929C5.90441 16.4804 6.00977 16.7348 6.00977 17C6.00977 17.2652 5.90441 17.5196 5.71687 17.7071C5.52934 17.8946 5.27498 18 5.00977 18C4.21412 18 3.45105 17.6839 2.88845 17.1213C2.32584 16.5587 2.00977 15.7956 2.00977 15V5C2.00977 4.20435 2.32584 3.44129 2.88845 2.87868C3.45105 2.31607 4.21412 2 5.00977 2H10.0098C11.3158 2 12.4268 2.835 12.8398 4H19.0098C19.8054 4 20.5685 4.31607 21.1311 4.87868C21.6937 5.44129 22.0098 6.20435 22.0098 7V15C22.0098 15.7956 21.6937 16.5587 21.1311 17.1213C20.5685 17.6839 19.8054 18 19.0098 18ZM13.9998 17.904C12.9658 18.5824 11.7172 18.8537 10.495 18.6656C9.27272 18.4775 8.16348 17.8433 7.38134 16.8854C6.59921 15.9276 6.19962 14.7139 6.25972 13.4787C6.31982 12.2436 6.83533 11.0744 7.70677 10.197C8.58281 9.32012 9.75333 8.79989 10.9913 8.73724C12.2292 8.67459 13.4462 9.07398 14.4063 9.85793C15.3664 10.6419 16.0011 11.7545 16.1873 12.98C16.3734 14.2054 16.0978 15.4563 15.4138 16.49L18.3138 19.39C18.4958 19.5787 18.5964 19.8314 18.594 20.0936C18.5915 20.3558 18.4861 20.6065 18.3006 20.7918C18.1151 20.9771 17.8642 21.0821 17.602 21.0842C17.3398 21.0863 17.0872 20.9853 16.8988 20.803L13.9988 17.904H13.9998ZM13.3638 15.854C13.6424 15.5753 13.8635 15.2445 14.0143 14.8804C14.1651 14.5163 14.2427 14.1261 14.2427 13.732C14.2427 13.3379 14.1651 12.9477 14.0143 12.5836C13.8635 12.2195 13.6424 11.8887 13.3638 11.61C13.0851 11.3313 12.7543 11.1103 12.3902 10.9595C12.0261 10.8087 11.6359 10.731 11.2418 10.731C10.8477 10.731 10.4574 10.8087 10.0933 10.9595C9.72925 11.1103 9.39843 11.3313 9.11977 11.61C8.55711 12.1727 8.24101 12.9358 8.24101 13.7315C8.24101 14.5272 8.55711 15.2903 9.11977 15.853C9.68242 16.4157 10.4455 16.7318 11.2413 16.7318C12.037 16.7318 12.8001 16.4157 13.3628 15.853L13.3638 15.854Z" fill="#21272A"/>
</svg>
