<svg width="24" height="24" viewBox="0 0 24 24" fill="none" xmlns="http://www.w3.org/2000/svg">
<path d="M5.01977 17C5.2829 17.0032 5.53418 17.1099 5.71913 17.2971C5.90408 17.4843 6.00778 17.7368 6.00777 18H18.0118C18.0118 17.7348 18.1171 17.4804 18.3047 17.2929C18.4922 17.1054 18.7465 17 19.0118 17V7C18.7465 7 18.4922 6.89464 18.3047 6.70711C18.1171 6.51957 18.0118 6.26522 18.0118 6H6.01977C6.01977 6.26522 5.91441 6.51957 5.72687 6.70711C5.53934 6.89464 5.28498 7 5.01977 7V17ZM6.00777 20C6.00777 20.2652 5.90241 20.5196 5.71487 20.7071C5.52734 20.8946 5.27298 21 5.00777 21H3.00977C2.74455 21 2.4902 20.8946 2.30266 20.7071C2.11512 20.5196 2.00977 20.2652 2.00977 20V18C2.00977 17.7348 2.11512 17.4804 2.30266 17.2929C2.4902 17.1054 2.74455 17 3.00977 17H3.01977V7C2.7549 6.99947 2.50106 6.89388 2.31395 6.7064C2.12685 6.51892 2.02177 6.26487 2.02177 6V4C2.02177 3.73496 2.12699 3.48075 2.31431 3.29325C2.50163 3.10574 2.75572 3.00027 3.02077 3H5.01977C5.28498 3 5.53934 3.10536 5.72687 3.29289C5.91441 3.48043 6.01977 3.73478 6.01977 4H18.0118C18.0118 3.73478 18.1171 3.48043 18.3047 3.29289C18.4922 3.10536 18.7465 3 19.0118 3H21.0098C21.275 3 21.5293 3.10536 21.7169 3.29289C21.9044 3.48043 22.0098 3.73478 22.0098 4V6C22.0098 6.26522 21.9044 6.51957 21.7169 6.70711C21.5293 6.89464 21.275 7 21.0098 7V17C21.275 17 21.5293 17.1054 21.7169 17.2929C21.9044 17.4804 22.0098 17.7348 22.0098 18V20C22.0098 20.2652 21.9044 20.5196 21.7169 20.7071C21.5293 20.8946 21.275 21 21.0098 21H19.0118C18.7465 21 18.4922 20.8946 18.3047 20.7071C18.1171 20.5196 18.0118 20.2652 18.0118 20H6.00777Z" fill="#21272A"/>
</svg>
