<svg width="24" height="24" viewBox="0 0 24 24" fill="none" xmlns="http://www.w3.org/2000/svg">
<path d="M6.00977 2H18.0098C19.0706 2 20.088 2.42143 20.8382 3.17157C21.5883 3.92172 22.0098 4.93913 22.0098 6V18C22.0098 19.0609 21.5883 20.0783 20.8382 20.8284C20.088 21.5786 19.0706 22 18.0098 22H6.00977C4.9489 22 3.93148 21.5786 3.18134 20.8284C2.43119 20.0783 2.00977 19.0609 2.00977 18V6C2.00977 4.93913 2.43119 3.92172 3.18134 3.17157C3.93148 2.42143 4.9489 2 6.00977 2V2ZM6.00977 4C5.47933 4 4.97062 4.21071 4.59555 4.58579C4.22048 4.96086 4.00977 5.46957 4.00977 6V18C4.00977 18.5304 4.22048 19.0391 4.59555 19.4142C4.97062 19.7893 5.47933 20 6.00977 20H18.0098C18.5402 20 19.0489 19.7893 19.424 19.4142C19.7991 19.0391 20.0098 18.5304 20.0098 18V6C20.0098 5.46957 19.7991 4.96086 19.424 4.58579C19.0489 4.21071 18.5402 4 18.0098 4H6.00977ZM14.5238 13.836L10.5948 16.644C9.68977 17.29 8.46477 17.033 7.85877 16.068C7.63935 15.7172 7.52325 15.3117 7.52377 14.898V9.102C7.52377 7.942 8.40677 7 9.49677 7C9.88677 7 10.2698 7.124 10.5948 7.356L14.5248 10.164V8C14.5248 7.73478 14.6301 7.48043 14.8177 7.29289C15.0052 7.10536 15.2595 7 15.5248 7C15.79 7 16.0443 7.10536 16.2319 7.29289C16.4194 7.48043 16.5248 7.73478 16.5248 8V16C16.5248 16.2652 16.4194 16.5196 16.2319 16.7071C16.0443 16.8946 15.79 17 15.5248 17C15.2595 17 15.0052 16.8946 14.8177 16.7071C14.6301 16.5196 14.5248 16.2652 14.5248 16V13.836H14.5238ZM9.49677 9.102V14.898L13.5518 12L9.49677 9.102Z" fill="#21272A"/>
</svg>
