<svg width="24" height="24" viewBox="0 0 24 24" fill="none" xmlns="http://www.w3.org/2000/svg">
<path d="M12.0098 22C6.48677 22 2.00977 17.523 2.00977 12C2.00977 6.477 6.48677 2 12.0098 2C17.5328 2 22.0098 6.477 22.0098 12C22.0098 17.523 17.5328 22 12.0098 22ZM12.0098 20C14.1315 20 16.1663 19.1571 17.6666 17.6569C19.1669 16.1566 20.0098 14.1217 20.0098 12C20.0098 9.87827 19.1669 7.84344 17.6666 6.34315C16.1663 4.84285 14.1315 4 12.0098 4C9.88803 4 7.8532 4.84285 6.35291 6.34315C4.85262 7.84344 4.00977 9.87827 4.00977 12C4.00977 14.1217 4.85262 16.1566 6.35291 17.6569C7.8532 19.1571 9.88803 20 12.0098 20ZM14.5238 13.836L10.5948 16.644C9.68977 17.29 8.46477 17.033 7.85877 16.068C7.63935 15.7172 7.52325 15.3117 7.52377 14.898V9.102C7.52377 7.942 8.40677 7 9.49677 7C9.88677 7 10.2698 7.124 10.5948 7.356L14.5248 10.164V8C14.5248 7.73478 14.6301 7.48043 14.8177 7.29289C15.0052 7.10536 15.2595 7 15.5248 7C15.79 7 16.0443 7.10536 16.2319 7.29289C16.4194 7.48043 16.5248 7.73478 16.5248 8V16C16.5248 16.2652 16.4194 16.5196 16.2319 16.7071C16.0443 16.8946 15.79 17 15.5248 17C15.2595 17 15.0052 16.8946 14.8177 16.7071C14.6301 16.5196 14.5248 16.2652 14.5248 16V13.836H14.5238ZM9.49677 9.102V14.898L13.5518 12L9.49677 9.102Z" fill="#21272A"/>
</svg>
