<svg width="24" height="24" viewBox="0 0 24 24" fill="none" xmlns="http://www.w3.org/2000/svg">
<path d="M12.0098 22C6.48677 22 2.00977 17.523 2.00977 12C2.00977 6.477 6.48677 2 12.0098 2C17.5328 2 22.0098 6.477 22.0098 12C22.0098 17.523 17.5328 22 12.0098 22ZM12.0098 20C14.1315 20 16.1663 19.1571 17.6666 17.6569C19.1669 16.1566 20.0098 14.1217 20.0098 12C20.0098 9.87827 19.1669 7.84344 17.6666 6.34315C16.1663 4.84285 14.1315 4 12.0098 4C9.88803 4 7.8532 4.84285 6.35291 6.34315C4.85262 7.84344 4.00977 9.87827 4.00977 12C4.00977 14.1217 4.85262 16.1566 6.35291 17.6569C7.8532 19.1571 9.88803 20 12.0098 20ZM9.52377 13.836V16C9.52377 16.2652 9.41841 16.5196 9.23087 16.7071C9.04334 16.8946 8.78898 17 8.52377 17C8.25855 17 8.0042 16.8946 7.81666 16.7071C7.62912 16.5196 7.52377 16.2652 7.52377 16V8C7.52377 7.73478 7.62912 7.48043 7.81666 7.29289C8.0042 7.10536 8.25855 7 8.52377 7C8.78898 7 9.04334 7.10536 9.23087 7.29289C9.41841 7.48043 9.52377 7.73478 9.52377 8V10.164L13.4538 7.356C13.7736 7.12556 14.1576 7.00107 14.5518 7C15.6418 7 16.5238 7.941 16.5238 9.102V14.898C16.5238 15.315 16.4078 15.722 16.1898 16.068C15.5838 17.033 14.3578 17.29 13.4538 16.644L9.52377 13.836ZM14.5518 9.102L10.4968 12L14.5518 14.898V9.102Z" fill="#21272A"/>
</svg>
