<svg width="24" height="24" viewBox="0 0 24 24" fill="none" xmlns="http://www.w3.org/2000/svg">
<path d="M15.8298 12.523C15.9 12.4128 15.9473 12.2896 15.969 12.1608C15.9907 12.032 15.9863 11.9001 15.9561 11.773C15.9259 11.6458 15.8705 11.5261 15.7931 11.4208C15.7157 11.3155 15.618 11.2268 15.5058 11.16L5.58377 5.128C5.42242 5.03033 5.23737 4.9788 5.04877 4.979C4.48877 4.979 4.03577 5.422 4.03577 5.969V18.03C4.03577 18.215 4.08877 18.396 4.18877 18.553C4.48477 19.017 5.10877 19.159 5.58377 18.87L15.5058 12.839C15.6368 12.759 15.7488 12.65 15.8308 12.522L15.8298 12.523ZM16.0098 14.864L6.65477 20.551C5.22977 21.418 3.35477 20.991 2.46877 19.6C2.16921 19.1311 2.00996 18.5864 2.00977 18.03V5.97C2.00977 4.329 3.36977 3 5.04977 3C5.61677 3 6.17277 3.155 6.65477 3.448L16.0098 9.135V5C16.0098 4.46957 16.2205 3.96086 16.5956 3.58579C16.9706 3.21071 17.4793 3 18.0098 3H20.0098C20.5402 3 21.0489 3.21071 21.424 3.58579C21.7991 3.96086 22.0098 4.46957 22.0098 5V19C22.0098 19.5304 21.7991 20.0391 21.424 20.4142C21.0489 20.7893 20.5402 21 20.0098 21H18.0098C17.4793 21 16.9706 20.7893 16.5956 20.4142C16.2205 20.0391 16.0098 19.5304 16.0098 19V14.864ZM18.0098 5V19H20.0098V5H18.0098Z" fill="#21272A"/>
</svg>
