<svg width="24" height="24" viewBox="0 0 24 24" fill="none" xmlns="http://www.w3.org/2000/svg">
<path d="M5.42277 2.64601L21.3928 18.584C21.6729 18.8634 21.8638 19.2197 21.9415 19.6076C22.0191 19.9956 21.9799 20.3979 21.8289 20.7635C21.6778 21.1292 21.4217 21.4419 21.0929 21.662C20.7641 21.8821 20.3774 21.9997 19.9818 22H4.00977C3.47933 22 2.97062 21.7893 2.59555 21.4142C2.22048 21.0391 2.00977 20.5304 2.00977 20V4.06101C2.00985 3.66563 2.12712 3.27914 2.34677 2.95038C2.56641 2.62162 2.87857 2.36534 3.2438 2.21392C3.60904 2.0625 4.01096 2.02273 4.39879 2.09963C4.78662 2.17654 5.14295 2.36667 5.42277 2.64601ZM4.00977 4.06001V20H19.9798L4.00977 4.06101V4.06001ZM6.00977 11.413C6.00981 11.2153 6.06848 11.022 6.17836 10.8575C6.28825 10.6931 6.44441 10.565 6.62711 10.4893C6.80981 10.4137 7.01084 10.3939 7.2048 10.4324C7.39875 10.471 7.57691 10.5662 7.71677 10.706L13.3028 16.292C13.4429 16.4318 13.5384 16.6101 13.5772 16.8042C13.616 16.9983 13.5962 17.1996 13.5205 17.3825C13.4448 17.5654 13.3165 17.7217 13.1519 17.8316C12.9873 17.9416 12.7937 18.0002 12.5958 18H7.00977C6.74455 18 6.4902 17.8946 6.30266 17.7071C6.11512 17.5196 6.00977 17.2652 6.00977 17V11.414V11.413ZM8.00977 16H10.0098L8.00977 14V16ZM15.0098 19C15.275 19 15.5293 19.1054 15.7169 19.2929C15.9044 19.4804 16.0098 19.7348 16.0098 20C16.0098 20.2652 15.9044 20.5196 15.7169 20.7071C15.5293 20.8947 15.275 21 15.0098 21C14.7445 21 14.4902 20.8947 14.3027 20.7071C14.1151 20.5196 14.0098 20.2652 14.0098 20C14.0098 19.7348 14.1151 19.4804 14.3027 19.2929C14.4902 19.1054 14.7445 19 15.0098 19ZM7.00977 19C7.27498 19 7.52934 19.1054 7.71687 19.2929C7.90441 19.4804 8.00977 19.7348 8.00977 20C8.00977 20.2652 7.90441 20.5196 7.71687 20.7071C7.52934 20.8947 7.27498 21 7.00977 21C6.74455 21 6.4902 20.8947 6.30266 20.7071C6.11512 20.5196 6.00977 20.2652 6.00977 20C6.00977 19.7348 6.11512 19.4804 6.30266 19.2929C6.4902 19.1054 6.74455 19 7.00977 19ZM11.0098 19C11.275 19 11.5293 19.1054 11.7169 19.2929C11.9044 19.4804 12.0098 19.7348 12.0098 20C12.0098 20.2652 11.9044 20.5196 11.7169 20.7071C11.5293 20.8947 11.275 21 11.0098 21C10.7445 21 10.4902 20.8947 10.3027 20.7071C10.1151 20.5196 10.0098 20.2652 10.0098 20C10.0098 19.7348 10.1151 19.4804 10.3027 19.2929C10.4902 19.1054 10.7445 19 11.0098 19Z" fill="#21272A"/>
</svg>
