<svg width="24" height="24" viewBox="0 0 24 24" fill="none" xmlns="http://www.w3.org/2000/svg">
<path d="M6.00977 2H18.0098C19.0706 2 20.088 2.42143 20.8382 3.17157C21.5883 3.92172 22.0098 4.93913 22.0098 6V18C22.0098 19.0609 21.5883 20.0783 20.8382 20.8284C20.088 21.5786 19.0706 22 18.0098 22H6.00977C4.9489 22 3.93148 21.5786 3.18134 20.8284C2.43119 20.0783 2.00977 19.0609 2.00977 18V6C2.00977 4.93913 2.43119 3.92172 3.18134 3.17157C3.93148 2.42143 4.9489 2 6.00977 2V2ZM6.00977 4C5.47933 4 4.97062 4.21071 4.59555 4.58579C4.22048 4.96086 4.00977 5.46957 4.00977 6V18C4.00977 18.5304 4.22048 19.0391 4.59555 19.4142C4.97062 19.7893 5.47933 20 6.00977 20H18.0098C18.5402 20 19.0489 19.7893 19.424 19.4142C19.7991 19.0391 20.0098 18.5304 20.0098 18V6C20.0098 5.46957 19.7991 4.96086 19.424 4.58579C19.0489 4.21071 18.5402 4 18.0098 4H6.00977ZM9.52377 13.836V16C9.52377 16.2652 9.41841 16.5196 9.23087 16.7071C9.04334 16.8946 8.78898 17 8.52377 17C8.25855 17 8.0042 16.8946 7.81666 16.7071C7.62912 16.5196 7.52377 16.2652 7.52377 16V8C7.52377 7.73478 7.62912 7.48043 7.81666 7.29289C8.0042 7.10536 8.25855 7 8.52377 7C8.78898 7 9.04334 7.10536 9.23087 7.29289C9.41841 7.48043 9.52377 7.73478 9.52377 8V10.164L13.4538 7.356C13.7736 7.12556 14.1576 7.00107 14.5518 7C15.6418 7 16.5238 7.941 16.5238 9.102V14.898C16.5238 15.315 16.4078 15.722 16.1898 16.068C15.5838 17.033 14.3578 17.29 13.4538 16.644L9.52377 13.836ZM14.5518 9.102L10.4968 12L14.5518 14.898V9.102Z" fill="#21272A"/>
</svg>
