<svg width="24" height="24" viewBox="0 0 24 24" fill="none" xmlns="http://www.w3.org/2000/svg">
<path d="M8.18977 11.477C8.11958 11.5872 8.07223 11.7104 8.05052 11.8392C8.02882 11.968 8.03321 12.0999 8.06343 12.227C8.09364 12.3542 8.14907 12.4739 8.22643 12.5792C8.30378 12.6845 8.4015 12.7732 8.51377 12.84L18.4358 18.872C18.5958 18.969 18.7818 19.021 18.9708 19.021C19.5308 19.021 19.9838 18.578 19.9838 18.031V5.97C19.9836 5.78465 19.9305 5.6032 19.8308 5.447C19.6851 5.22315 19.458 5.06484 19.1975 5.00566C18.9371 4.94648 18.6639 4.99108 18.4358 5.13L8.51377 11.16C8.38277 11.24 8.27077 11.349 8.18877 11.477H8.18977ZM8.00977 9.136L17.3648 3.449C18.7898 2.582 20.6648 3.009 21.5508 4.4C21.8508 4.871 22.0098 5.414 22.0098 5.969V18.03C22.0098 19.671 20.6498 21 18.9698 21C18.4039 21.0003 17.8487 20.8454 17.3648 20.552L8.00977 14.865V19C8.00977 19.5304 7.79905 20.0391 7.42398 20.4142C7.04891 20.7893 6.5402 21 6.00977 21H4.00977C3.47933 21 2.97062 20.7893 2.59555 20.4142C2.22048 20.0391 2.00977 19.5304 2.00977 19V5C2.00977 4.46957 2.22048 3.96086 2.59555 3.58579C2.97062 3.21071 3.47933 3 4.00977 3H6.00977C6.5402 3 7.04891 3.21071 7.42398 3.58579C7.79905 3.96086 8.00977 4.46957 8.00977 5V9.136ZM4.00977 5V19H6.00977V5H4.00977Z" fill="#21272A"/>
</svg>
