<svg width="24" height="24" viewBox="0 0 24 24" fill="none" xmlns="http://www.w3.org/2000/svg">
<path d="M11.0098 16V5C11.0098 4.73478 11.1151 4.48043 11.3027 4.29289C11.4902 4.10536 11.7445 4 12.0098 4C12.275 4 12.5293 4.10536 12.7169 4.29289C12.9044 4.48043 13.0098 4.73478 13.0098 5V16H14.0098C14.275 16 14.5293 16.1054 14.7169 16.2929C14.9044 16.4804 15.0098 16.7348 15.0098 17C15.0098 17.2652 14.9044 17.5196 14.7169 17.7071C14.5293 17.8946 14.275 18 14.0098 18H13.0098V19C13.0098 19.2652 12.9044 19.5196 12.7169 19.7071C12.5293 19.8946 12.275 20 12.0098 20C11.7445 20 11.4902 19.8946 11.3027 19.7071C11.1151 19.5196 11.0098 19.2652 11.0098 19V18H10.0098C9.74455 18 9.4902 17.8946 9.30266 17.7071C9.11512 17.5196 9.00977 17.2652 9.00977 17C9.00977 16.7348 9.11512 16.4804 9.30266 16.2929C9.4902 16.1054 9.74455 16 10.0098 16H11.0098ZM18.0098 6V5C18.0098 4.73478 18.1151 4.48043 18.3027 4.29289C18.4902 4.10536 18.7445 4 19.0098 4C19.275 4 19.5293 4.10536 19.7169 4.29289C19.9044 4.48043 20.0098 4.73478 20.0098 5V6H21.0098C21.275 6 21.5293 6.10536 21.7169 6.29289C21.9044 6.48043 22.0098 6.73478 22.0098 7C22.0098 7.26522 21.9044 7.51957 21.7169 7.70711C21.5293 7.89464 21.275 8 21.0098 8H20.0098V19C20.0098 19.2652 19.9044 19.5196 19.7169 19.7071C19.5293 19.8946 19.275 20 19.0098 20C18.7445 20 18.4902 19.8946 18.3027 19.7071C18.1151 19.5196 18.0098 19.2652 18.0098 19V8H17.0098C16.7445 8 16.4902 7.89464 16.3027 7.70711C16.1151 7.51957 16.0098 7.26522 16.0098 7C16.0098 6.73478 16.1151 6.48043 16.3027 6.29289C16.4902 6.10536 16.7445 6 17.0098 6H18.0098ZM6.00977 9H7.00977C7.27498 9 7.52934 9.10536 7.71687 9.29289C7.90441 9.48043 8.00977 9.73478 8.00977 10C8.00977 10.2652 7.90441 10.5196 7.71687 10.7071C7.52934 10.8946 7.27498 11 7.00977 11H6.00977V19C6.00977 19.2652 5.90441 19.5196 5.71687 19.7071C5.52934 19.8946 5.27498 20 5.00977 20C4.74455 20 4.4902 19.8946 4.30266 19.7071C4.11512 19.5196 4.00977 19.2652 4.00977 19V11H3.00977C2.74455 11 2.4902 10.8946 2.30266 10.7071C2.11512 10.5196 2.00977 10.2652 2.00977 10C2.00977 9.73478 2.11512 9.48043 2.30266 9.29289C2.4902 9.10536 2.74455 9 3.00977 9H4.00977V5C4.00977 4.73478 4.11512 4.48043 4.30266 4.29289C4.4902 4.10536 4.74455 4 5.00977 4C5.27498 4 5.52934 4.10536 5.71687 4.29289C5.90441 4.48043 6.00977 4.73478 6.00977 5V9Z" fill="#21272A"/>
</svg>
