<svg width="24" height="24" viewBox="0 0 24 24" fill="none" xmlns="http://www.w3.org/2000/svg">
<path d="M18.0098 8C18.5402 8 19.0489 7.78929 19.424 7.41421C19.7991 7.03914 20.0098 6.53043 20.0098 6C20.0098 5.46957 19.7991 4.96086 19.424 4.58579C19.0489 4.21071 18.5402 4 18.0098 4C17.4793 4 16.9706 4.21071 16.5956 4.58579C16.2205 4.96086 16.0098 5.46957 16.0098 6C16.0098 6.53043 16.2205 7.03914 16.5956 7.41421C16.9706 7.78929 17.4793 8 18.0098 8ZM9.93777 11.24C10.0425 11.7839 10.0336 12.3436 9.91177 12.884L14.9518 15.421C15.5797 14.677 16.4574 14.1876 17.4203 14.0444C18.3833 13.9012 19.3654 14.1141 20.1826 14.6432C20.9998 15.1724 21.596 15.9814 21.8594 16.9186C22.1228 17.8558 22.0354 18.857 21.6135 19.7343C21.1916 20.6117 20.4642 21.3051 19.5676 21.6846C18.6711 22.064 17.6669 22.1034 16.7433 21.7955C15.8198 21.4875 15.0402 20.8534 14.5508 20.0118C14.0614 19.1702 13.8957 18.179 14.0848 17.224L8.99477 14.662C8.45168 15.2711 7.7353 15.6995 6.94174 15.8897C6.14818 16.08 5.31543 16.0229 4.55521 15.7263C3.79499 15.4297 3.14369 14.9076 2.68869 14.2302C2.2337 13.5528 1.99678 12.7524 2.00974 11.9364C2.02269 11.1205 2.28489 10.3281 2.76116 9.66541C3.23743 9.00277 3.90498 8.50165 4.67423 8.2293C5.44348 7.95694 6.27763 7.92638 7.06475 8.14172C7.85187 8.35706 8.55429 8.80799 9.07777 9.434L14.1138 6.912C13.8917 5.96412 14.023 4.9678 14.483 4.10978C14.943 3.25176 15.7001 2.59095 16.6124 2.25121C17.5248 1.91146 18.5297 1.9161 19.4388 2.26426C20.348 2.61242 21.099 3.2802 21.551 4.14243C22.003 5.00466 22.1251 6.00215 21.8943 6.94794C21.6636 7.89373 21.0958 8.72289 20.2974 9.28001C19.499 9.83713 18.5249 10.084 17.5575 9.97424C16.5902 9.86452 15.6961 9.40578 15.0428 8.684L9.93777 11.24ZM6.00977 14C6.54021 14 7.04891 13.7893 7.42399 13.4142C7.79906 13.0391 8.00977 12.5304 8.00977 12C8.00977 11.4696 7.79906 10.9609 7.42399 10.5858C7.04891 10.2107 6.54021 10 6.00977 10C5.47934 10 4.97063 10.2107 4.59556 10.5858C4.22049 10.9609 4.00977 11.4696 4.00977 12C4.00977 12.5304 4.22049 13.0391 4.59556 13.4142C4.97063 13.7893 5.47934 14 6.00977 14ZM18.0098 20C18.5402 20 19.0489 19.7893 19.424 19.4142C19.7991 19.0391 20.0098 18.5304 20.0098 18C20.0098 17.4696 19.7991 16.9609 19.424 16.5858C19.0489 16.2107 18.5402 16 18.0098 16C17.4793 16 16.9706 16.2107 16.5956 16.5858C16.2205 16.9609 16.0098 17.4696 16.0098 18C16.0098 18.5304 16.2205 19.0391 16.5956 19.4142C16.9706 19.7893 17.4793 20 18.0098 20Z" fill="#21272A"/>
</svg>
