<svg width="24" height="24" viewBox="0 0 24 24" fill="none" xmlns="http://www.w3.org/2000/svg">
<path d="M13.0098 8.414V14.056C13.0098 14.3212 12.9044 14.5756 12.7169 14.7631C12.5293 14.9506 12.275 15.056 12.0098 15.056C11.7445 15.056 11.4902 14.9506 11.3027 14.7631C11.1151 14.5756 11.0098 14.3212 11.0098 14.056V8.414L9.88877 9.536C9.70099 9.72364 9.44637 9.829 9.18091 9.82891C8.91545 9.82881 8.66091 9.72327 8.47327 9.5355C8.28562 9.34772 8.18026 9.0931 8.18036 8.82764C8.18045 8.56219 8.28599 8.30764 8.47377 8.12L11.3028 5.293C11.3954 5.19981 11.5056 5.12586 11.6269 5.0754C11.7482 5.02494 11.8784 4.99896 12.0098 4.99896C12.1412 4.99896 12.2713 5.02494 12.3926 5.0754C12.514 5.12586 12.6241 5.19981 12.7168 5.293L15.5458 8.121C15.6387 8.21397 15.7124 8.32434 15.7626 8.44579C15.8129 8.56725 15.8387 8.69741 15.8387 8.82885C15.8386 8.96029 15.8127 9.09044 15.7624 9.21186C15.712 9.33327 15.6382 9.44359 15.5453 9.5365C15.4523 9.62941 15.3419 9.70309 15.2205 9.75335C15.099 9.80361 14.9689 9.82945 14.8374 9.82941C14.706 9.82936 14.5758 9.80343 14.4544 9.75308C14.333 9.70274 14.2227 9.62897 14.1298 9.536L13.0098 8.414ZM8.00977 11C8.27498 11 8.52934 11.1054 8.71687 11.2929C8.90441 11.4804 9.00977 11.7348 9.00977 12C9.00977 12.2652 8.90441 12.5196 8.71687 12.7071C8.52934 12.8946 8.27498 13 8.00977 13H7.00977V17H17.0098V13H16.0098C15.7445 13 15.4902 12.8946 15.3027 12.7071C15.1151 12.5196 15.0098 12.2652 15.0098 12C15.0098 11.7348 15.1151 11.4804 15.3027 11.2929C15.4902 11.1054 15.7445 11 16.0098 11H17.0098C17.5402 11 18.0489 11.2107 18.424 11.5858C18.7991 11.9609 19.0098 12.4696 19.0098 13V17C19.0098 17.5304 18.7991 18.0391 18.424 18.4142C18.0489 18.7893 17.5402 19 17.0098 19H7.00977C6.47933 19 5.97062 18.7893 5.59555 18.4142C5.22048 18.0391 5.00977 17.5304 5.00977 17V13C5.00977 12.4696 5.22048 11.9609 5.59555 11.5858C5.97062 11.2107 6.47933 11 7.00977 11H8.00977Z" fill="#21272A"/>
</svg>
