<svg width="24" height="24" viewBox="0 0 24 24" fill="none" xmlns="http://www.w3.org/2000/svg">
<path d="M12.0098 4.136L6.00977 6.386V10C6.00991 11.2854 6.28479 12.556 6.81598 13.7265C7.34718 14.897 8.12242 15.9405 9.08977 16.787L12.0098 19.342V4.136ZM4.65877 4.756L12.0098 2L19.3608 4.757C19.5513 4.82844 19.7156 4.95632 19.8315 5.12357C19.9475 5.29082 20.0097 5.48948 20.0098 5.693V10C20.0098 13.177 18.6378 16.2 16.2468 18.293L12.0098 22L7.77277 18.293C6.59073 17.2587 5.64346 15.9837 4.99446 14.5534C4.34545 13.1231 4.00972 11.5706 4.00977 10V5.693C4.00984 5.48948 4.07202 5.29082 4.18798 5.12357C4.30395 4.95632 4.46819 4.82844 4.65877 4.757V4.756Z" fill="#21272A"/>
</svg>
