<svg width="24" height="24" viewBox="0 0 24 24" fill="none" xmlns="http://www.w3.org/2000/svg">
<path d="M6.00977 6.386V10C6.00991 11.2854 6.28479 12.556 6.81598 13.7265C7.34718 14.897 8.12242 15.9405 9.08977 16.787L12.0098 19.342L14.9298 16.787C15.8972 15.9405 16.6724 14.8971 17.2036 13.7265C17.7348 12.556 18.0097 11.2854 18.0098 10V6.386L12.0098 4.136L6.00977 6.386ZM4.65877 4.756L12.0098 2L19.3608 4.757C19.5513 4.82844 19.7156 4.95632 19.8315 5.12357C19.9475 5.29082 20.0097 5.48948 20.0098 5.693V10C20.0098 13.177 18.6378 16.2 16.2468 18.293L12.0098 22L7.77277 18.293C6.59073 17.2587 5.64346 15.9837 4.99446 14.5534C4.34545 13.1231 4.00972 11.5706 4.00977 10V5.693C4.00984 5.48948 4.07202 5.29082 4.18798 5.12357C4.30395 4.95632 4.46819 4.82844 4.65877 4.757V4.756ZM10.9488 12.268L14.4848 8.732C14.6734 8.54984 14.926 8.44905 15.1882 8.45133C15.4504 8.4536 15.7012 8.55877 15.8866 8.74418C16.072 8.92959 16.1772 9.1804 16.1794 9.4426C16.1817 9.7048 16.0809 9.9574 15.8988 10.146L11.6558 14.39C11.4682 14.5775 11.2139 14.6828 10.9488 14.6828C10.6836 14.6828 10.4293 14.5775 10.2418 14.39L8.12077 12.269C7.93861 12.0804 7.83781 11.8278 7.84009 11.5656C7.84237 11.3034 7.94754 11.0526 8.13295 10.8672C8.31836 10.6818 8.56917 10.5766 8.83136 10.5743C9.09356 10.572 9.34616 10.6728 9.53477 10.855L10.9488 12.269V12.268Z" fill="#21272A"/>
</svg>
