<svg width="24" height="24" viewBox="0 0 24 24" fill="none" xmlns="http://www.w3.org/2000/svg">
<path d="M6.00977 6.386V10C6.00991 11.2854 6.28479 12.556 6.81598 13.7265C7.34718 14.897 8.12242 15.9405 9.08977 16.787L12.0098 19.342L14.9298 16.787C15.8972 15.9405 16.6724 14.8971 17.2036 13.7265C17.7348 12.556 18.0097 11.2854 18.0098 10V6.386L12.0098 4.136L6.00977 6.386ZM4.65877 4.756L12.0098 2L19.3608 4.757C19.5513 4.82844 19.7156 4.95632 19.8315 5.12357C19.9475 5.29082 20.0097 5.48948 20.0098 5.693V10C20.0098 13.177 18.6378 16.2 16.2468 18.293L12.0098 22L7.77277 18.293C6.59073 17.2587 5.64346 15.9837 4.99446 14.5534C4.34545 13.1231 4.00972 11.5706 4.00977 10V5.693C4.00984 5.48948 4.07202 5.29082 4.18798 5.12357C4.30395 4.95632 4.46819 4.82844 4.65877 4.757V4.756ZM13.0098 10H15.0098C15.275 10 15.5293 10.1054 15.7169 10.2929C15.9044 10.4804 16.0098 10.7348 16.0098 11C16.0098 11.2652 15.9044 11.5196 15.7169 11.7071C15.5293 11.8946 15.275 12 15.0098 12H13.0098V14C13.0098 14.2652 12.9044 14.5196 12.7169 14.7071C12.5293 14.8946 12.275 15 12.0098 15C11.7445 15 11.4902 14.8946 11.3027 14.7071C11.1151 14.5196 11.0098 14.2652 11.0098 14V12H9.00977C8.74455 12 8.4902 11.8946 8.30266 11.7071C8.11512 11.5196 8.00977 11.2652 8.00977 11C8.00977 10.7348 8.11512 10.4804 8.30266 10.2929C8.4902 10.1054 8.74455 10 9.00977 10H11.0098V8C11.0098 7.73478 11.1151 7.48043 11.3027 7.29289C11.4902 7.10536 11.7445 7 12.0098 7C12.275 7 12.5293 7.10536 12.7169 7.29289C12.9044 7.48043 13.0098 7.73478 13.0098 8V10Z" fill="#21272A"/>
</svg>
