<svg width="24" height="24" viewBox="0 0 24 24" fill="none" xmlns="http://www.w3.org/2000/svg">
<path d="M6.00977 6.386V10C6.00991 11.2854 6.28479 12.556 6.81598 13.7265C7.34718 14.897 8.12242 15.9405 9.08977 16.787L12.0098 19.342L14.9298 16.787C15.8972 15.9405 16.6724 14.8971 17.2036 13.7265C17.7348 12.556 18.0097 11.2854 18.0098 10V6.386L12.0098 4.136L6.00977 6.386ZM4.65877 4.756L12.0098 2L19.3608 4.757C19.5513 4.82844 19.7156 4.95632 19.8315 5.12357C19.9475 5.29082 20.0097 5.48948 20.0098 5.693V10C20.0098 13.177 18.6378 16.2 16.2468 18.293L12.0098 22L7.77277 18.293C6.59073 17.2587 5.64346 15.9837 4.99446 14.5534C4.34545 13.1231 4.00972 11.5706 4.00977 10V5.693C4.00984 5.48948 4.07202 5.29082 4.18798 5.12357C4.30395 4.95632 4.46819 4.82844 4.65877 4.757V4.756ZM13.4238 11L14.8378 12.414C14.9333 12.5062 15.0095 12.6166 15.0619 12.7386C15.1143 12.8606 15.1419 12.9918 15.143 13.1246C15.1442 13.2574 15.1189 13.3891 15.0686 13.512C15.0183 13.6349 14.9441 13.7465 14.8502 13.8404C14.7563 13.9343 14.6446 14.0085 14.5217 14.0588C14.3988 14.1091 14.2671 14.1344 14.1344 14.1333C14.0016 14.1321 13.8704 14.1045 13.7484 14.0521C13.6264 13.9997 13.516 13.9235 13.4238 13.828L12.0098 12.414L10.5958 13.828C10.4072 14.0102 10.1546 14.111 9.89236 14.1087C9.63017 14.1064 9.37935 14.0012 9.19395 13.8158C9.00854 13.6304 8.90337 13.3796 8.90109 13.1174C8.89881 12.8552 8.99961 12.6026 9.18177 12.414L10.5958 11L9.18177 9.586C9.08626 9.49375 9.01007 9.38341 8.95766 9.2614C8.90525 9.1394 8.87767 9.00818 8.87652 8.8754C8.87536 8.74262 8.90066 8.61094 8.95094 8.48805C9.00122 8.36515 9.07548 8.2535 9.16937 8.15961C9.26326 8.06571 9.37492 7.99146 9.49781 7.94118C9.62071 7.8909 9.75239 7.8656 9.88517 7.86675C10.0179 7.8679 10.1492 7.89549 10.2712 7.9479C10.3932 8.00031 10.5035 8.07649 10.5958 8.172L12.0098 9.586L13.4238 8.172C13.516 8.07649 13.6264 8.00031 13.7484 7.9479C13.8704 7.89549 14.0016 7.8679 14.1344 7.86675C14.2671 7.8656 14.3988 7.8909 14.5217 7.94118C14.6446 7.99146 14.7563 8.06571 14.8502 8.15961C14.9441 8.2535 15.0183 8.36515 15.0686 8.48805C15.1189 8.61094 15.1442 8.74262 15.143 8.8754C15.1419 9.00818 15.1143 9.1394 15.0619 9.2614C15.0095 9.38341 14.9333 9.49375 14.8378 9.586L13.4238 11Z" fill="#21272A"/>
</svg>
