<svg width="24" height="24" viewBox="0 0 24 24" fill="none" xmlns="http://www.w3.org/2000/svg">
<path d="M10.0098 20C9.47933 20 8.97063 19.7893 8.59555 19.4142C8.22048 19.0391 8.00977 18.5304 8.00977 18C8.00977 17.4696 8.22048 16.9609 8.59555 16.5858C8.97063 16.2107 9.47933 16 10.0098 16C10.5402 16 11.0489 16.2107 11.424 16.5858C11.7991 16.9609 12.0098 17.4696 12.0098 18C12.0098 18.5304 11.7991 19.0391 11.424 19.4142C11.0489 19.7893 10.5402 20 10.0098 20ZM17.0098 20C16.4793 20 15.9706 19.7893 15.5956 19.4142C15.2205 19.0391 15.0098 18.5304 15.0098 18C15.0098 17.4696 15.2205 16.9609 15.5956 16.5858C15.9706 16.2107 16.4793 16 17.0098 16C17.5402 16 18.0489 16.2107 18.424 16.5858C18.7991 16.9609 19.0098 17.4696 19.0098 18C19.0098 18.5304 18.7991 19.0391 18.424 19.4142C18.0489 19.7893 17.5402 20 17.0098 20ZM3.97177 5.923C3.72213 5.91495 3.48541 5.81012 3.31166 5.63068C3.13792 5.45125 3.04078 5.21127 3.04078 4.9615C3.04078 4.71173 3.13792 4.47175 3.31166 4.29232C3.48541 4.11288 3.72213 4.00805 3.97177 4H5.12277C6.02477 4 6.80477 4.626 7.00077 5.506L8.25377 11.148C8.44977 12.028 9.22977 12.654 10.1318 12.654H17.6438L19.0858 6.884H9.74077C9.49348 6.87272 9.26006 6.76654 9.08905 6.58755C8.91805 6.40857 8.82262 6.17055 8.82262 5.923C8.82262 5.67545 8.91805 5.43743 9.08905 5.25845C9.26006 5.07946 9.49348 4.97328 9.74077 4.962H19.0858C19.3781 4.96191 19.6666 5.02848 19.9294 5.15663C20.1921 5.28479 20.4222 5.47116 20.6021 5.70158C20.782 5.93201 20.907 6.20041 20.9676 6.4864C21.0282 6.77238 21.0228 7.06842 20.9518 7.352L19.5098 13.12C19.4058 13.5362 19.1657 13.9057 18.8276 14.1697C18.4894 14.4337 18.0727 14.5771 17.6438 14.577H10.1318C9.25656 14.5771 8.40749 14.2787 7.72478 13.7311C7.04207 13.1835 6.56655 12.4194 6.37677 11.565L5.12277 5.923H3.97177Z" fill="#21272A"/>
</svg>
