<svg width="24" height="24" viewBox="0 0 24 24" fill="none" xmlns="http://www.w3.org/2000/svg">
<path d="M7.00977 10V19C7.00977 19.2652 7.11512 19.5196 7.30266 19.7071C7.4902 19.8946 7.74455 20 8.00977 20H16.0098C16.275 20 16.5293 19.8946 16.7169 19.7071C16.9044 19.5196 17.0098 19.2652 17.0098 19V10H7.00977ZM7.00977 8V5C7.00977 4.20435 7.32584 3.44129 7.88845 2.87868C8.45105 2.31607 9.21412 2 10.0098 2H14.0098C14.8054 2 15.5685 2.31607 16.1311 2.87868C16.6937 3.44129 17.0098 4.20435 17.0098 5V8H19.0098V19C19.0098 19.7956 18.6937 20.5587 18.1311 21.1213C17.5685 21.6839 16.8054 22 16.0098 22H8.00977C7.21412 22 6.45105 21.6839 5.88845 21.1213C5.32584 20.5587 5.00977 19.7956 5.00977 19V8H7.00977ZM9.00977 8H15.0098V5C15.0098 4.73478 14.9044 4.48043 14.7169 4.29289C14.5293 4.10536 14.275 4 14.0098 4H10.0098C9.74455 4 9.4902 4.10536 9.30266 4.29289C9.11512 4.48043 9.00977 4.73478 9.00977 5V8Z" fill="#21272A"/>
</svg>
