<svg width="24" height="24" viewBox="0 0 24 24" fill="none" xmlns="http://www.w3.org/2000/svg">
<path d="M15.3478 4.395C15.3592 4.403 15.3699 4.41204 15.3798 4.422L16.5598 5.593L18.1598 5.713C18.2328 5.719 18.3198 5.774 18.3338 5.874L20.5058 20.567L14.3578 21.897L3.00977 19.771C3.00977 19.771 4.46577 8.509 4.52077 8.11C4.59377 7.586 4.61177 7.569 5.16877 7.394L6.96477 6.837C7.34877 5.208 8.57477 2 11.1398 2C11.4748 2 11.8628 2.18 12.1768 2.594L12.2698 2.591C13.3708 2.591 13.9968 3.53 14.3518 4.551L14.9468 4.367C15.0268 4.343 15.2248 4.311 15.3468 4.395H15.3478ZM12.2708 9.11C12.2708 9.11 11.7578 8.813 10.7208 8.813C8.02877 8.813 6.69477 10.611 6.69477 12.469C6.69477 14.677 8.89777 14.737 8.89777 16.08C8.89777 16.405 8.66777 16.85 8.10277 16.85C7.23877 16.85 6.21477 15.97 6.21477 15.97L5.69377 17.694C5.69377 17.694 6.68977 18.906 8.63777 18.906C10.2608 18.906 11.4648 17.684 11.4648 15.786C11.4648 13.373 8.77977 12.979 8.77977 11.949C8.77977 11.759 8.83977 11.011 10.0338 11.011C10.5465 11.019 11.0511 11.1399 11.5118 11.365L12.2708 9.11ZM13.7258 4.744C13.4828 4.001 13.1048 3.355 12.5368 3.284C12.6778 3.689 12.7668 4.2 12.7668 4.834L12.7658 5.042L13.7258 4.744ZM11.8328 3.41C11.2068 3.678 10.4908 4.39 10.1098 5.864L12.0928 5.25V5.139C12.0928 4.373 11.9908 3.805 11.8328 3.409V3.41ZM11.0708 2.688C9.22677 2.688 8.19177 5.108 7.75577 6.593L9.32277 6.107C9.69577 4.161 10.5768 3.187 11.3998 2.8C11.3036 2.73043 11.1884 2.69204 11.0698 2.69L11.0708 2.688Z" fill="#21272A"/>
</svg>
