<svg width="24" height="24" viewBox="0 0 24 24" fill="none" xmlns="http://www.w3.org/2000/svg">
<path d="M5.00977 12C4.74455 12 4.4902 12.1054 4.30266 12.2929C4.11512 12.4804 4.00977 12.7348 4.00977 13V16C4.00977 17.0609 4.43119 18.0783 5.18134 18.8284C5.93148 19.5786 6.9489 20 8.00977 20H16.0098C17.0706 20 18.088 19.5786 18.8382 18.8284C19.5883 18.0783 20.0098 17.0609 20.0098 16V13C20.0098 12.7348 19.9044 12.4804 19.7169 12.2929C19.5293 12.1054 19.275 12 19.0098 12H5.00977ZM7.00977 10V7C7.00977 5.67392 7.53655 4.40215 8.47423 3.46447C9.41191 2.52678 10.6837 2 12.0098 2C13.3358 2 14.6076 2.52678 15.5453 3.46447C16.483 4.40215 17.0098 5.67392 17.0098 7V10H19.0098C19.8054 10 20.5685 10.3161 21.1311 10.8787C21.6937 11.4413 22.0098 12.2044 22.0098 13V16C22.0098 17.5913 21.3776 19.1174 20.2524 20.2426C19.1272 21.3679 17.6011 22 16.0098 22H8.00977C6.41847 22 4.89234 21.3679 3.76712 20.2426C2.64191 19.1174 2.00977 17.5913 2.00977 16L2.00977 13C2.00977 12.2044 2.32584 11.4413 2.88845 10.8787C3.45105 10.3161 4.21412 10 5.00977 10H7.00977ZM9.00977 10H15.0098V7C15.0098 6.20435 14.6937 5.44129 14.1311 4.87868C13.5685 4.31607 12.8054 4 12.0098 4C11.2141 4 10.4511 4.31607 9.88845 4.87868C9.32584 5.44129 9.00977 6.20435 9.00977 7V10Z" fill="#21272A"/>
</svg>
