<svg width="24" height="24" viewBox="0 0 24 24" fill="none" xmlns="http://www.w3.org/2000/svg">
<path d="M15.2738 8.83299L14.4688 8.77299L13.8768 8.18399L14.4688 8.77399C14.4688 8.77399 15.2388 8.82999 15.2738 8.83399C15.3108 8.83599 15.3538 8.86399 15.3618 8.91399L16.4528 16.299L13.3628 16.967L7.65976 15.9C7.65976 15.9 8.39176 10.24 8.41976 10.04C8.45576 9.77599 8.46476 9.76699 8.74476 9.67999L9.64676 9.39999C9.84076 8.57999 10.4568 6.96799 11.7468 6.96799C11.9148 6.96799 12.1098 7.05799 12.2668 7.26699C12.2824 7.26588 12.2981 7.26522 12.3138 7.26499C12.8678 7.26499 13.1818 7.73699 13.3608 8.24999L13.6598 8.15799C13.7036 8.14556 13.7495 8.14215 13.7948 8.14799L15.2738 8.83299ZM12.3138 10.541C12.3138 10.541 12.0568 10.391 11.5348 10.391C10.1818 10.391 9.51176 11.295 9.51176 12.229C9.51176 13.339 10.6188 13.369 10.6188 14.044C10.6192 14.096 10.6091 14.1476 10.589 14.1955C10.5688 14.2435 10.5392 14.2868 10.5017 14.323C10.4643 14.3591 10.4199 14.3872 10.3713 14.4056C10.3226 14.424 10.2707 14.4323 10.2188 14.43C9.78476 14.43 9.27076 13.989 9.27076 13.989L9.00876 14.855C9.00876 14.855 9.50876 15.464 10.4888 15.464C11.3038 15.464 11.9088 14.85 11.9088 13.896C11.9088 12.683 10.5588 12.485 10.5588 11.967C10.5588 11.872 10.5898 11.496 11.1898 11.496C11.5998 11.496 11.9328 11.674 11.9328 11.674L12.3138 10.541ZM13.0458 8.34599C12.9228 7.97299 12.7328 7.64799 12.4478 7.61299C12.5188 7.81599 12.5628 8.07299 12.5628 8.39199V8.49599L13.0458 8.34599ZM12.0938 7.67599C11.7798 7.81099 11.4198 8.16799 11.2278 8.90899L12.2248 8.60099V8.54499C12.2248 8.15999 12.1728 7.87499 12.0948 7.67499L12.0938 7.67599ZM11.7108 7.31299C10.7848 7.31299 10.2638 8.52899 10.0448 9.27499L10.8328 9.03099C11.0198 8.05299 11.4628 7.56299 11.8758 7.36899C11.8278 7.33391 11.7702 7.31436 11.7108 7.31299Z" fill="#21272A"/>
<path d="M6.00977 4C5.47933 4 4.97062 4.21071 4.59555 4.58579C4.22048 4.96086 4.00977 5.46957 4.00977 6V18C4.00977 18.5304 4.22048 19.0391 4.59555 19.4142C4.97062 19.7893 5.47933 20 6.00977 20H18.0098C18.5402 20 19.0489 19.7893 19.424 19.4142C19.7991 19.0391 20.0098 18.5304 20.0098 18V6C20.0098 5.46957 19.7991 4.96086 19.424 4.58579C19.0489 4.21071 18.5402 4 18.0098 4H6.00977ZM6.00977 2H18.0098C19.0706 2 20.088 2.42143 20.8382 3.17157C21.5883 3.92172 22.0098 4.93913 22.0098 6V18C22.0098 19.0609 21.5883 20.0783 20.8382 20.8284C20.088 21.5786 19.0706 22 18.0098 22H6.00977C4.9489 22 3.93148 21.5786 3.18134 20.8284C2.43119 20.0783 2.00977 19.0609 2.00977 18V6C2.00977 4.93913 2.43119 3.92172 3.18134 3.17157C3.93148 2.42143 4.9489 2 6.00977 2V2Z" fill="#21272A"/>
</svg>
