<svg width="24" height="24" viewBox="0 0 24 24" fill="none" xmlns="http://www.w3.org/2000/svg">
<path d="M21.5578 7.837L18.8848 10.51C18.6973 10.6976 18.4429 10.8031 18.1776 10.8032C17.9123 10.8033 17.6579 10.698 17.4703 10.5105C17.2826 10.323 17.1772 10.0686 17.1771 9.80335C17.177 9.53808 17.2823 9.28364 17.4698 9.096L18.5658 8H17.1098C15.9273 8.00001 14.7799 8.40149 13.8553 9.13871C12.9308 9.87593 12.284 10.9052 12.0208 12.058C12.3135 13.1864 12.9726 14.1856 13.8945 14.8991C14.8164 15.6125 15.949 15.9997 17.1148 16H18.6168L17.4698 14.853C17.2823 14.6654 17.177 14.4109 17.1771 14.1456C17.1772 13.8804 17.2826 13.626 17.4703 13.4385C17.6579 13.251 17.9123 13.1457 18.1776 13.1458C18.4429 13.1459 18.6973 13.2514 18.8848 13.439L21.7128 16.267C21.865 16.419 21.9639 16.6161 21.9948 16.829C22.0275 17.0213 22.0036 17.219 21.926 17.3979C21.8484 17.5769 21.7205 17.7294 21.5578 17.837L18.8848 20.51C18.6973 20.6976 18.4429 20.8031 18.1776 20.8032C17.9123 20.8033 17.6579 20.698 17.4703 20.5105C17.2826 20.323 17.1772 20.0686 17.1771 19.8034C17.177 19.5381 17.2823 19.2836 17.4698 19.096L18.5658 18H17.1148C15.8974 18.0002 14.6996 17.6944 13.6312 17.1108C12.5629 16.5272 11.6584 15.6844 11.0008 14.66C10.3483 15.6838 9.44827 16.5266 8.38379 17.1104C7.31932 17.6942 6.12482 18.0002 4.91077 18H3.00977C2.74455 18 2.4902 17.8946 2.30266 17.7071C2.11512 17.5196 2.00977 17.2652 2.00977 17C2.00977 16.7348 2.11512 16.4804 2.30266 16.2929C2.4902 16.1054 2.74455 16 3.00977 16H4.91077C6.0718 16.0001 7.19972 15.6131 8.11614 14.9002C9.03257 14.1874 9.68518 13.1894 9.97077 12.064C9.70024 10.9078 9.04666 9.877 8.11624 9.1392C7.18581 8.40139 6.03322 7.99991 4.84577 8H3.00977C2.74455 8 2.4902 7.89464 2.30266 7.70711C2.11512 7.51957 2.00977 7.26522 2.00977 7C2.00977 6.73478 2.11512 6.48043 2.30266 6.29289C2.4902 6.10536 2.74455 6 3.00977 6H4.84577C6.07239 5.99997 7.27904 6.31057 8.35321 6.90282C9.42738 7.49508 10.3341 8.3497 10.9888 9.387C11.6384 8.34999 12.541 7.49512 13.6117 6.90265C14.6824 6.31019 15.8861 5.99958 17.1098 6H18.6178L17.4698 4.853C17.3769 4.76009 17.3033 4.6498 17.2531 4.52843C17.2028 4.40707 17.177 4.277 17.1771 4.14565C17.1771 4.0143 17.203 3.88425 17.2533 3.76291C17.3036 3.64158 17.3774 3.53134 17.4703 3.4385C17.5632 3.34566 17.6735 3.27202 17.7948 3.2218C17.9162 3.17158 18.0463 3.14575 18.1776 3.1458C18.309 3.14584 18.439 3.17176 18.5604 3.22207C18.6817 3.27238 18.7919 3.34609 18.8848 3.439L21.7128 6.267C21.865 6.41897 21.9639 6.61613 21.9948 6.829C22.0275 7.0213 22.0036 7.21896 21.926 7.39792C21.8484 7.57689 21.7205 7.72944 21.5578 7.837Z" fill="#21272A"/>
</svg>
