<svg width="24" height="24" viewBox="0 0 24 24" fill="none" xmlns="http://www.w3.org/2000/svg">
<path d="M6.00977 15C6.27498 15 6.52934 15.1054 6.71687 15.2929C6.90441 15.4804 7.00977 15.7348 7.00977 16V18C7.00977 18.2652 6.90441 18.5196 6.71687 18.7071C6.52934 18.8946 6.27498 19 6.00977 19C5.74455 19 5.4902 18.8946 5.30266 18.7071C5.11512 18.5196 5.00977 18.2652 5.00977 18V16C5.00977 15.7348 5.11512 15.4804 5.30266 15.2929C5.4902 15.1054 5.74455 15 6.00977 15ZM10.0098 11C10.275 11 10.5293 11.1054 10.7169 11.2929C10.9044 11.4804 11.0098 11.7348 11.0098 12V18C11.0098 18.2652 10.9044 18.5196 10.7169 18.7071C10.5293 18.8946 10.275 19 10.0098 19C9.74455 19 9.4902 18.8946 9.30266 18.7071C9.11512 18.5196 9.00977 18.2652 9.00977 18V12C9.00977 11.7348 9.11512 11.4804 9.30266 11.2929C9.4902 11.1054 9.74455 11 10.0098 11ZM14.0098 7C14.275 7 14.5293 7.10536 14.7169 7.29289C14.9044 7.48043 15.0098 7.73478 15.0098 8V18C15.0098 18.2652 14.9044 18.5196 14.7169 18.7071C14.5293 18.8946 14.275 19 14.0098 19C13.7445 19 13.4902 18.8946 13.3027 18.7071C13.1151 18.5196 13.0098 18.2652 13.0098 18V8C13.0098 7.73478 13.1151 7.48043 13.3027 7.29289C13.4902 7.10536 13.7445 7 14.0098 7ZM18.0098 5C18.275 5 18.5293 5.10536 18.7169 5.29289C18.9044 5.48043 19.0098 5.73478 19.0098 6V18C19.0098 18.2652 18.9044 18.5196 18.7169 18.7071C18.5293 18.8946 18.275 19 18.0098 19C17.7445 19 17.4902 18.8946 17.3027 18.7071C17.1151 18.5196 17.0098 18.2652 17.0098 18V6C17.0098 5.73478 17.1151 5.48043 17.3027 5.29289C17.4902 5.10536 17.7445 5 18.0098 5V5Z" fill="#21272A"/>
</svg>
