<svg width="24" height="24" viewBox="0 0 24 24" fill="none" xmlns="http://www.w3.org/2000/svg">
<path d="M13.0098 20H15.0098C15.275 20 15.5293 19.8946 15.7169 19.7071C15.9044 19.5196 16.0098 19.2652 16.0098 19V16.93L17.0748 16.367C17.9609 15.9001 18.7027 15.1999 19.2199 14.3422C19.7372 13.4844 20.0103 12.5016 20.0098 11.5V9.5C20.0098 8.04131 19.4303 6.64236 18.3989 5.61091C17.3674 4.57946 15.9685 4 14.5098 4H9.50977C8.05108 4 6.65213 4.57946 5.62068 5.61091C4.58923 6.64236 4.00977 8.04131 4.00977 9.5V11.5C4.00923 12.5016 4.28234 13.4844 4.7996 14.3422C5.31686 15.1999 6.05861 15.9001 6.94477 16.367L8.00977 16.93V19C8.00977 19.2652 8.11512 19.5196 8.30266 19.7071C8.4902 19.8946 8.74455 20 9.00977 20H11.0098V18C11.0098 17.7348 11.1151 17.4804 11.3027 17.2929C11.4902 17.1054 11.7445 17 12.0098 17C12.275 17 12.5293 17.1054 12.7169 17.2929C12.9044 17.4804 13.0098 17.7348 13.0098 18V20ZM18.0098 19C18.0098 19.7956 17.6937 20.5587 17.1311 21.1213C16.5685 21.6839 15.8054 22 15.0098 22H9.00977C8.21412 22 7.45106 21.6839 6.88845 21.1213C6.32584 20.5587 6.00977 19.7956 6.00977 19V18.135C4.8022 17.498 3.79146 16.5433 3.08655 15.3741C2.38165 14.2048 2.00934 12.8653 2.00977 11.5V9.5C2.00977 7.51088 2.79994 5.60322 4.20647 4.1967C5.61299 2.79018 7.52064 2 9.50977 2H14.5098C16.4989 2 18.4065 2.79018 19.8131 4.1967C21.2196 5.60322 22.0098 7.51088 22.0098 9.5V11.5C22.0102 12.8653 21.6379 14.2048 20.933 15.3741C20.2281 16.5433 19.2173 17.498 18.0098 18.135V19ZM8.00977 13C7.47933 13 6.97063 12.7893 6.59555 12.4142C6.22048 12.0391 6.00977 11.5304 6.00977 11C6.00977 10.4696 6.22048 9.96086 6.59555 9.58579C6.97063 9.21071 7.47933 9 8.00977 9C8.5402 9 9.04891 9.21071 9.42398 9.58579C9.79905 9.96086 10.0098 10.4696 10.0098 11C10.0098 11.5304 9.79905 12.0391 9.42398 12.4142C9.04891 12.7893 8.5402 13 8.00977 13ZM16.0098 13C15.4793 13 14.9706 12.7893 14.5956 12.4142C14.2205 12.0391 14.0098 11.5304 14.0098 11C14.0098 10.4696 14.2205 9.96086 14.5956 9.58579C14.9706 9.21071 15.4793 9 16.0098 9C16.5402 9 17.0489 9.21071 17.424 9.58579C17.7991 9.96086 18.0098 10.4696 18.0098 11C18.0098 11.5304 17.7991 12.0391 17.424 12.4142C17.0489 12.7893 16.5402 13 16.0098 13Z" fill="#21272A"/>
</svg>
