<svg width="24" height="24" viewBox="0 0 24 24" fill="none" xmlns="http://www.w3.org/2000/svg">
<path d="M16.5928 12.724C16.7069 12.0011 16.6485 11.2614 16.4221 10.5654C16.1958 9.86935 15.8081 9.23674 15.2905 8.71922C14.773 8.20169 14.1404 7.81393 13.4444 7.58761C12.7484 7.36129 12.0087 7.30283 11.2858 7.41699C10.7485 7.08574 10.1151 6.94545 9.48823 7.01883C8.86131 7.09222 8.27749 7.37497 7.83123 7.82135C7.38496 8.26773 7.10236 8.85162 7.02914 9.47856C6.95592 10.1055 7.09637 10.7388 7.42777 11.276C7.31337 11.999 7.37168 12.7387 7.59792 13.4349C7.82416 14.131 8.21192 14.7637 8.72949 15.2813C9.24707 15.7988 9.87978 16.1866 10.5759 16.4128C11.272 16.6391 12.0118 16.6974 12.7348 16.583C13.2721 16.9148 13.9056 17.0554 14.5328 16.9823C15.16 16.9091 15.7442 16.6264 16.1907 16.1799C16.6372 15.7334 16.9199 15.1492 16.9931 14.522C17.0662 13.8948 16.9255 13.2613 16.5938 12.724H16.5928ZM14.2128 14.11C14.0158 14.393 13.7278 14.613 13.3508 14.772C12.9738 14.932 12.5278 15.011 12.0118 15.011C11.3948 15.011 10.8838 14.902 10.4798 14.684C10.2004 14.5337 9.96102 14.3187 9.78177 14.057C9.60277 13.795 9.51177 13.539 9.51177 13.289C9.51128 13.2176 9.52581 13.1468 9.5544 13.0814C9.583 13.0159 9.62503 12.9572 9.67777 12.909C9.79149 12.8031 9.94242 12.7463 10.0978 12.751C10.2266 12.748 10.3521 12.7921 10.4508 12.875C10.558 12.9743 10.6405 13.0972 10.6918 13.234C10.7708 13.417 10.8558 13.569 10.9468 13.691C11.0368 13.811 11.1638 13.911 11.3278 13.99C11.4908 14.069 11.7078 14.108 11.9778 14.108C12.3488 14.108 12.6478 14.028 12.8778 13.87C13.1078 13.71 13.2188 13.516 13.2188 13.281C13.2224 13.197 13.208 13.1133 13.1766 13.0353C13.1452 12.9574 13.0975 12.887 13.0368 12.829C12.8995 12.7037 12.7353 12.6117 12.5568 12.56C12.2934 12.4807 12.0265 12.4139 11.7568 12.36C11.3705 12.2814 10.9925 12.1666 10.6278 12.017C10.3442 11.9013 10.0943 11.7163 9.90077 11.479C9.72077 11.249 9.63077 10.965 9.63077 10.627C9.63077 10.306 9.72577 10.017 9.91577 9.76699C10.1058 9.51699 10.3798 9.32399 10.7378 9.18999C11.0948 9.05599 11.5138 8.98999 11.9948 8.98999C12.3798 8.98999 12.7118 9.03399 12.9938 9.12199C13.2738 9.21199 13.5088 9.32899 13.6958 9.47699C13.8818 9.62399 14.0188 9.77999 14.1058 9.94299C14.1918 10.106 14.2358 10.266 14.2358 10.422C14.2345 10.5695 14.1748 10.7105 14.0698 10.814C14.017 10.8703 13.9529 10.9148 13.8817 10.9446C13.8106 10.9744 13.7339 10.9889 13.6568 10.987C13.5098 10.987 13.3938 10.953 13.3138 10.881C13.2358 10.811 13.1538 10.701 13.0638 10.546C12.9682 10.3506 12.831 10.1786 12.6618 10.042C12.5098 9.92399 12.2588 9.86199 11.9098 9.86399C11.5858 9.86399 11.3278 9.92999 11.1328 10.059C10.9358 10.19 10.8428 10.342 10.8428 10.521C10.8428 10.632 10.8748 10.727 10.9388 10.807C11.0144 10.8961 11.1082 10.968 11.2138 11.018C11.3308 11.078 11.4508 11.125 11.5708 11.159C11.6918 11.193 11.8938 11.243 12.1738 11.309C12.5248 11.385 12.8438 11.469 13.1298 11.562C13.4158 11.654 13.6598 11.766 13.8618 11.899C14.0648 12.032 14.2228 12.201 14.3368 12.406C14.4508 12.61 14.5068 12.861 14.5068 13.155C14.5078 13.509 14.4088 13.828 14.2128 14.11Z" fill="#21272A"/>
<path d="M6.00977 4C5.47933 4 4.97062 4.21071 4.59555 4.58579C4.22048 4.96086 4.00977 5.46957 4.00977 6V18C4.00977 18.5304 4.22048 19.0391 4.59555 19.4142C4.97062 19.7893 5.47933 20 6.00977 20H18.0098C18.5402 20 19.0489 19.7893 19.424 19.4142C19.7991 19.0391 20.0098 18.5304 20.0098 18V6C20.0098 5.46957 19.7991 4.96086 19.424 4.58579C19.0489 4.21071 18.5402 4 18.0098 4H6.00977ZM6.00977 2H18.0098C19.0706 2 20.088 2.42143 20.8382 3.17157C21.5883 3.92172 22.0098 4.93913 22.0098 6V18C22.0098 19.0609 21.5883 20.0783 20.8382 20.8284C20.088 21.5786 19.0706 22 18.0098 22H6.00977C4.9489 22 3.93148 21.5786 3.18134 20.8284C2.43119 20.0783 2.00977 19.0609 2.00977 18V6C2.00977 4.93913 2.43119 3.92172 3.18134 3.17157C3.93148 2.42143 4.9489 2 6.00977 2V2Z" fill="#21272A"/>
</svg>
