<svg width="24" height="24" viewBox="0 0 24 24" fill="none" xmlns="http://www.w3.org/2000/svg">
<path d="M21.1358 13.425C21.3636 11.9822 21.2469 10.5059 20.7952 9.11684C20.3435 7.72774 19.5695 6.46521 18.5366 5.43239C17.5037 4.39957 16.2411 3.62575 14.852 3.17416C13.4628 2.72257 11.9866 2.60601 10.5438 2.834C9.47153 2.17233 8.20738 1.89187 6.95592 2.03801C5.70447 2.18415 4.53895 2.74834 3.64803 3.63927C2.7571 4.53019 2.19291 5.69571 2.04677 6.94716C1.90062 8.19862 2.18109 9.46277 2.84276 10.535C2.61454 11.9778 2.73094 13.4542 3.18246 14.8434C3.63397 16.2327 4.40778 17.4954 5.44065 18.5284C6.47353 19.5613 7.73615 20.3353 9.12535 20.7869C10.5146 21.2385 11.9909 21.3551 13.4338 21.127C14.2878 21.652 15.2938 21.958 16.3728 21.958C17.3689 21.9581 18.347 21.6922 19.2061 21.1879C20.0652 20.6836 20.774 19.9591 21.2595 19.0892C21.745 18.2194 21.9895 17.2357 21.9677 16.2398C21.946 15.2439 21.6588 14.2718 21.1358 13.424V13.425ZM16.3858 16.191C15.9938 16.755 15.4188 17.195 14.6658 17.512C13.9128 17.83 13.0228 17.988 11.9938 17.988C10.7618 17.988 9.74076 17.772 8.93576 17.337C8.37809 17.0369 7.90042 16.6076 7.54276 16.085C7.18576 15.563 7.00376 15.051 7.00376 14.553C7.00376 14.259 7.11576 14.003 7.33376 13.794C7.55476 13.584 7.83876 13.479 8.17376 13.479C8.44876 13.479 8.68476 13.562 8.87776 13.726C9.06776 13.89 9.22776 14.128 9.35876 14.442C9.51576 14.807 9.68576 15.112 9.86676 15.354C10.0468 15.594 10.3008 15.794 10.6288 15.951C10.9538 16.108 11.3858 16.187 11.9258 16.187C12.6658 16.187 13.2638 16.027 13.7218 15.711C14.1818 15.393 14.4018 15.005 14.4018 14.537C14.4018 14.163 14.2838 13.867 14.0388 13.635C13.7928 13.401 13.4748 13.222 13.0788 13.098C12.5536 12.9389 12.0209 12.8054 11.4828 12.698C10.5868 12.502 9.83776 12.275 9.23076 12.013C8.62376 11.751 8.13976 11.393 7.78076 10.939C7.42076 10.482 7.24176 9.913 7.24176 9.239C7.24176 8.597 7.43176 8.023 7.80976 7.523C8.18876 7.022 8.73676 6.638 9.44976 6.371C10.1618 6.104 10.9998 5.971 11.9598 5.971C12.7278 5.971 13.3918 6.059 13.9538 6.236C14.5138 6.414 14.9808 6.649 15.3538 6.943C15.7258 7.238 15.9988 7.548 16.1718 7.873C16.3448 8.2 16.4318 8.519 16.4318 8.83C16.4318 9.12 16.3198 9.382 16.1018 9.612C15.8818 9.842 15.6028 9.959 15.2768 9.958C14.9828 9.958 14.7518 9.89 14.5918 9.747C14.4358 9.607 14.2718 9.387 14.0948 9.077C13.8708 8.647 13.6028 8.312 13.2908 8.072C12.9868 7.837 12.4858 7.714 11.7888 7.716C11.1438 7.716 10.6288 7.847 10.2388 8.106C9.84676 8.367 9.65876 8.671 9.65876 9.026C9.65876 9.25 9.72376 9.438 9.85276 9.599C9.98276 9.761 10.1658 9.902 10.3998 10.02C10.6348 10.14 10.8728 10.234 11.1128 10.3C11.3548 10.37 11.7578 10.469 12.3168 10.6C13.0178 10.752 13.6538 10.92 14.2258 11.104C14.7958 11.289 15.2828 11.512 15.6858 11.778C16.0898 12.043 16.4068 12.381 16.6328 12.789C16.8608 13.198 16.9748 13.697 16.9748 14.284C16.9748 14.992 16.7788 15.628 16.3848 16.191H16.3858Z" fill="#21272A"/>
</svg>
