<svg width="24" height="24" viewBox="0 0 24 24" fill="none" xmlns="http://www.w3.org/2000/svg">
<path d="M21.8838 12.725C21.8119 12.5028 21.6969 12.2969 21.5453 12.1192C21.3938 11.9414 21.2088 11.7953 21.0007 11.6891C20.7927 11.583 20.5657 11.5189 20.3329 11.5005C20.1001 11.4821 19.8659 11.5098 19.6438 11.582L17.8518 12.165L16.6348 8.415L18.4268 7.832C18.8763 7.68613 19.2495 7.36765 19.4642 6.94663C19.6789 6.52562 19.7176 6.03654 19.5718 5.587C19.4259 5.13745 19.1074 4.76427 18.6864 4.54954C18.2654 4.33481 17.7763 4.29613 17.3268 4.442L15.5368 5.027L14.9538 3.232C14.8821 3.00961 14.7672 2.80355 14.6158 2.62563C14.4643 2.4477 14.2793 2.30142 14.0712 2.19514C13.8631 2.08887 13.6361 2.0247 13.4031 2.00632C13.1702 1.98793 12.9359 2.01569 12.7138 2.088C12.265 2.23469 11.8927 2.5535 11.6788 2.97443C11.4648 3.39536 11.4267 3.88398 11.5728 4.333L12.1548 6.128L8.41276 7.347C8.05976 6.255 7.82976 5.552 7.82976 5.552C7.75797 5.32968 7.64305 5.12371 7.49157 4.94586C7.34009 4.76801 7.15503 4.62177 6.94698 4.51551C6.73892 4.40926 6.51196 4.34507 6.27907 4.32662C6.04619 4.30817 5.81195 4.33582 5.58976 4.408C5.3674 4.48031 5.16147 4.59572 4.98372 4.74764C4.80598 4.89956 4.65991 5.08502 4.55386 5.2934C4.44781 5.50179 4.38385 5.72903 4.36565 5.96215C4.34744 6.19526 4.37534 6.42967 4.44776 6.652L5.03076 8.448L3.18076 9.05C2.75667 9.20458 2.4071 9.51442 2.20271 9.91687C1.99833 10.3193 1.95438 10.7844 2.07976 11.218C2.35176 12.163 3.35376 12.739 4.27976 12.438L6.12976 11.835L7.34576 15.585L5.49676 16.188C5.07296 16.3428 4.72355 16.6524 4.51889 17.0545C4.31423 17.4566 4.26952 17.9213 4.39376 18.355C4.66576 19.3 5.66776 19.878 6.59376 19.575C6.60176 19.573 7.32976 19.337 8.44476 18.973L9.04576 20.825C9.19914 21.2492 9.50797 21.5993 9.90972 21.8045C10.3115 22.0096 10.7762 22.0545 11.2098 21.93C12.1528 21.658 12.7298 20.654 12.4268 19.725L11.8268 17.873L15.5698 16.654L16.1708 18.507C16.3241 18.931 16.6328 19.2809 17.0343 19.4861C17.4359 19.6912 17.9003 19.7362 18.3338 19.612C19.2778 19.339 19.8538 18.335 19.5518 17.407L18.9508 15.554C19.5477 15.3593 20.1447 15.1646 20.7418 14.97C21.1906 14.8233 21.5629 14.5045 21.777 14.0836C21.9911 13.6628 22.0295 13.1742 21.8838 12.725ZM10.7278 14.485L9.51176 10.735L13.2538 9.517L14.4708 13.267L10.7278 14.485Z" fill="#21272A"/>
</svg>
