<svg width="24" height="24" viewBox="0 0 24 24" fill="none" xmlns="http://www.w3.org/2000/svg">
<path d="M16.9658 12.362C16.9296 12.2508 16.8719 12.1478 16.7959 12.059C16.72 11.9701 16.6273 11.8971 16.5231 11.844C16.4189 11.791 16.3052 11.759 16.1887 11.7499C16.0721 11.7408 15.9549 11.7548 15.8438 11.791L14.9458 12.082C14.7478 11.47 14.5358 10.819 14.3358 10.207L15.2338 9.916C15.4585 9.84306 15.6451 9.68382 15.7525 9.47331C15.8599 9.2628 15.8792 9.01827 15.8063 8.7935C15.7333 8.56872 15.5741 8.38213 15.3636 8.27477C15.1531 8.1674 14.9085 8.14806 14.6838 8.221L13.7858 8.513L13.4938 7.616C13.4577 7.50483 13.4 7.40187 13.3241 7.31299C13.2482 7.2241 13.1555 7.15104 13.0514 7.09797C12.9472 7.04491 12.8337 7.01287 12.7171 7.00369C12.6006 6.99452 12.4834 7.00838 12.3723 7.0445C12.1478 7.11743 11.9614 7.27656 11.8542 7.48688C11.8012 7.59102 11.7691 7.7046 11.76 7.82112C11.7508 7.93764 11.7647 8.05483 11.8008 8.166L12.0928 9.064L10.2178 9.674L9.92576 8.776C9.85283 8.55136 9.69365 8.36489 9.48323 8.25762C9.37904 8.20451 9.26541 8.17243 9.14883 8.16323C9.03225 8.15403 8.91499 8.16788 8.80376 8.204C8.69254 8.24011 8.58951 8.29778 8.50057 8.37371C8.41162 8.44964 8.33851 8.54234 8.28539 8.64653C8.17812 8.85695 8.15883 9.10136 8.23176 9.326L8.52376 10.224L7.59776 10.525C7.38519 10.6017 7.20975 10.7564 7.10705 10.9577C7.00436 11.159 6.98209 11.3919 7.04476 11.609C7.18076 12.081 7.68276 12.369 8.14776 12.219L9.07376 11.917L9.68376 13.792L8.75676 14.094C8.54456 14.1709 8.36944 14.3255 8.2668 14.5265C8.16415 14.7275 8.14162 14.96 8.20376 15.177C8.34076 15.65 8.84276 15.939 9.30676 15.787C9.31076 15.787 9.67476 15.668 10.2338 15.487L10.5348 16.412C10.6117 16.6244 10.7664 16.7997 10.9677 16.9024C11.1689 17.005 11.4016 17.0274 11.6188 16.965C12.0908 16.829 12.3798 16.327 12.2288 15.862C12.2278 15.859 12.1088 15.495 11.9288 14.936C12.5408 14.737 13.1918 14.526 13.8028 14.326L14.1038 15.253C14.1807 15.4654 14.3354 15.6407 14.5367 15.7434C14.7379 15.846 14.9706 15.8684 15.1878 15.806C15.6608 15.669 15.9488 15.167 15.7978 14.703L15.4968 13.777L16.3938 13.485C16.5051 13.4488 16.6082 13.3911 16.6972 13.3151C16.7861 13.2391 16.8593 13.1463 16.9124 13.042C16.9655 12.9377 16.9976 12.824 17.0067 12.7073C17.0159 12.5906 17.002 12.4733 16.9658 12.362ZM11.3778 13.242L10.7678 11.367C11.3808 11.169 12.0318 10.957 12.6428 10.758L13.2528 12.633L11.3778 13.243V13.242Z" fill="#21272A"/>
<path d="M12.0098 20C14.1315 20 16.1663 19.1571 17.6666 17.6569C19.1669 16.1566 20.0098 14.1217 20.0098 12C20.0098 9.87827 19.1669 7.84344 17.6666 6.34315C16.1663 4.84285 14.1315 4 12.0098 4C9.88803 4 7.8532 4.84285 6.35291 6.34315C4.85262 7.84344 4.00977 9.87827 4.00977 12C4.00977 14.1217 4.85262 16.1566 6.35291 17.6569C7.8532 19.1571 9.88803 20 12.0098 20ZM12.0098 22C6.48677 22 2.00977 17.523 2.00977 12C2.00977 6.477 6.48677 2 12.0098 2C17.5328 2 22.0098 6.477 22.0098 12C22.0098 17.523 17.5328 22 12.0098 22Z" fill="#21272A"/>
</svg>
