<svg width="24" height="24" viewBox="0 0 24 24" fill="none" xmlns="http://www.w3.org/2000/svg">
<path d="M12.0098 22C6.48677 22 2.00977 17.523 2.00977 12C2.00977 6.477 6.48677 2 12.0098 2C17.5328 2 22.0098 6.477 22.0098 12C22.0098 17.523 17.5328 22 12.0098 22ZM12.0098 20C14.1315 20 16.1663 19.1571 17.6666 17.6569C19.1669 16.1566 20.0098 14.1217 20.0098 12C20.0098 9.87827 19.1669 7.84344 17.6666 6.34315C16.1663 4.84285 14.1315 4 12.0098 4C9.88803 4 7.8532 4.84285 6.35291 6.34315C4.85262 7.84344 4.00977 9.87827 4.00977 12C4.00977 14.1217 4.85262 16.1566 6.35291 17.6569C7.8532 19.1571 9.88803 20 12.0098 20ZM8.08977 15.394C8.03802 15.2732 8.01059 15.1434 8.00902 15.0119C8.00745 14.8805 8.03178 14.7501 8.08063 14.6281C8.12947 14.506 8.20187 14.3948 8.29369 14.3008C8.38551 14.2068 8.49495 14.1317 8.61577 14.08C8.73658 14.0283 8.86641 14.0008 8.99783 13.9993C9.12925 13.9977 9.25969 14.022 9.3817 14.0709C9.50372 14.1197 9.61492 14.1921 9.70896 14.2839C9.80299 14.3757 9.87803 14.4852 9.92977 14.606C10.1046 15.0127 10.3948 15.3592 10.7645 15.6027C11.1341 15.8462 11.5671 15.976 12.0098 15.976C12.4524 15.976 12.8854 15.8462 13.2551 15.6027C13.6248 15.3592 13.915 15.0127 14.0898 14.606C14.1415 14.4852 14.2165 14.3757 14.3106 14.2839C14.4046 14.1921 14.5158 14.1197 14.6378 14.0709C14.7598 14.022 14.8903 13.9977 15.0217 13.9993C15.1531 14.0008 15.2829 14.0283 15.4038 14.08C15.5246 14.1317 15.634 14.2068 15.7258 14.3008C15.8177 14.3948 15.8901 14.506 15.9389 14.6281C15.9877 14.7501 16.0121 14.8805 16.0105 15.0119C16.0089 15.1434 15.9815 15.2732 15.9298 15.394C15.6013 16.1615 15.0547 16.8156 14.3579 17.2753C13.661 17.7351 12.8446 17.9801 12.0098 17.9801C11.1749 17.9801 10.3585 17.7351 9.66166 17.2753C8.96483 16.8156 8.41827 16.1615 8.08977 15.394ZM9.00977 8C9.27498 8 9.52934 8.10536 9.71687 8.29289C9.90441 8.48043 10.0098 8.73478 10.0098 9V11C10.0098 11.2652 9.90441 11.5196 9.71687 11.7071C9.52934 11.8946 9.27498 12 9.00977 12C8.74455 12 8.4902 11.8946 8.30266 11.7071C8.11512 11.5196 8.00977 11.2652 8.00977 11V9C8.00977 8.73478 8.11512 8.48043 8.30266 8.29289C8.4902 8.10536 8.74455 8 9.00977 8ZM15.0098 8C15.275 8 15.5293 8.10536 15.7169 8.29289C15.9044 8.48043 16.0098 8.73478 16.0098 9V11C16.0098 11.2652 15.9044 11.5196 15.7169 11.7071C15.5293 11.8946 15.275 12 15.0098 12C14.7445 12 14.4902 11.8946 14.3027 11.7071C14.1151 11.5196 14.0098 11.2652 14.0098 11V9C14.0098 8.73478 14.1151 8.48043 14.3027 8.29289C14.4902 8.10536 14.7445 8 15.0098 8Z" fill="#21272A"/>
</svg>
