<svg width="24" height="24" viewBox="0 0 24 24" fill="none" xmlns="http://www.w3.org/2000/svg">
<path d="M17.9088 10.25C18.2408 10.175 18.4088 10.121 18.4098 10.086C18.4433 10.0715 18.4767 10.0565 18.5098 10.041C18.6376 9.98473 18.7761 9.95675 18.9158 9.959C19.0678 9.959 19.2198 9.987 19.3508 10.041C19.7418 10.18 19.9868 10.465 19.9928 10.785C19.9958 10.916 19.9558 11.119 19.7508 11.33C19.5778 11.506 19.3178 11.662 18.9528 11.806C18.8565 11.842 18.7591 11.875 18.6608 11.905C18.2908 12.022 17.7308 12.2 17.5848 12.542C17.5098 12.716 17.5418 12.945 17.6898 13.245C17.7378 13.361 18.9428 16.1 21.6168 16.54C21.7304 16.5581 21.8333 16.6178 21.9055 16.7073C21.9777 16.7969 22.0142 16.9101 22.0078 17.025C22.0036 17.0961 21.9866 17.1659 21.9578 17.231C21.8618 17.454 21.6408 17.642 21.2818 17.809C20.8418 18.012 20.1848 18.182 19.3258 18.317C19.2828 18.4 19.2358 18.612 19.2068 18.745C19.1741 18.9013 19.1357 19.0564 19.0918 19.21C19.0208 19.454 18.8328 19.594 18.5558 19.594C18.4398 19.594 18.2898 19.574 18.0958 19.537C17.7507 19.4653 17.3992 19.4284 17.0468 19.427C16.8028 19.427 16.5508 19.447 16.2968 19.49C15.8068 19.571 15.3848 19.869 14.8948 20.214C14.1798 20.717 13.3698 21.289 12.1318 21.289C12.0837 21.2891 12.0357 21.2878 11.9878 21.285C11.9542 21.2876 11.9205 21.2889 11.8868 21.289C10.6498 21.289 9.83977 20.717 9.12477 20.212C8.63477 19.867 8.21277 19.57 7.72277 19.489C7.47496 19.447 7.2241 19.4256 6.97277 19.425C6.53477 19.425 6.18177 19.494 5.92477 19.544C5.74777 19.577 5.59677 19.607 5.46477 19.607C5.11477 19.607 4.98077 19.395 4.92777 19.217C4.88339 19.0625 4.84503 18.9064 4.81277 18.749C4.78177 18.607 4.73677 18.401 4.69277 18.319C3.83477 18.185 3.17677 18.014 2.73677 17.809C2.37677 17.644 2.15577 17.455 2.05977 17.229C2.03119 17.1648 2.01426 17.0961 2.00977 17.026C2.00335 16.9107 2.03986 16.7972 2.11225 16.7072C2.18465 16.6173 2.28778 16.5574 2.40177 16.539C3.01014 16.4377 3.59098 16.2116 4.10777 15.875C4.5624 15.5778 4.97164 15.2164 5.32277 14.802C5.73541 14.3264 6.07819 13.7943 6.34077 13.222C6.47677 12.945 6.50977 12.716 6.43577 12.542C6.28977 12.2 5.72777 12.022 5.35777 11.905C5.25177 11.871 5.15077 11.84 5.06577 11.806C4.74177 11.679 4.49177 11.535 4.32077 11.38C4.00977 11.097 4.00977 10.819 4.03577 10.679C4.07677 10.465 4.22677 10.274 4.45977 10.137C4.641 10.0298 4.84723 9.97224 5.05777 9.97C5.17452 9.96832 5.29023 9.99221 5.39677 10.04C5.46877 10.074 5.53977 10.104 5.60877 10.13C5.61077 10.162 5.74877 10.202 6.02277 10.253C6.11577 10.27 6.20477 10.279 6.28777 10.279C6.40024 10.2816 6.512 10.2605 6.61577 10.217L6.58777 9.771C6.50277 8.419 6.39677 6.735 6.84477 5.736C7.13202 5.07958 7.54592 4.48626 8.06277 3.99C8.48577 3.59 8.97577 3.266 9.52177 3.026C10.2431 2.71141 11.0208 2.54675 11.8078 2.542L12.2018 2.539C12.6468 2.539 13.5348 2.601 14.4858 3.021C15.0255 3.25627 15.5208 3.5827 15.9498 3.986C16.4693 4.48296 16.885 5.07814 17.1728 5.737C17.6208 6.737 17.5148 8.421 17.4278 9.775L17.4248 9.832C17.4148 9.965 17.4078 10.094 17.4008 10.219C17.4882 10.256 17.5818 10.2763 17.6768 10.279C17.7508 10.275 17.8278 10.265 17.9088 10.249V10.25Z" fill="#21272A"/>
</svg>
