<svg width="24" height="24" viewBox="0 0 24 24" fill="none" xmlns="http://www.w3.org/2000/svg">
<path d="M12.0098 20C14.1315 20 16.1663 19.1571 17.6666 17.6569C19.1669 16.1566 20.0098 14.1217 20.0098 12C20.0098 9.87827 19.1669 7.84344 17.6666 6.34315C16.1663 4.84285 14.1315 4 12.0098 4C9.88803 4 7.8532 4.84285 6.35291 6.34315C4.85262 7.84344 4.00977 9.87827 4.00977 12C4.00977 14.1217 4.85262 16.1566 6.35291 17.6569C7.8532 19.1571 9.88803 20 12.0098 20ZM12.0098 22C6.48677 22 2.00977 17.523 2.00977 12C2.00977 6.477 6.48677 2 12.0098 2C17.5328 2 22.0098 6.477 22.0098 12C22.0098 17.523 17.5328 22 12.0098 22Z" fill="#21272A"/>
<path d="M16.8138 14.292C15.4768 14.072 14.8738 12.702 14.8498 12.645C14.7758 12.495 14.7598 12.38 14.7978 12.293C14.8708 12.122 15.1508 12.033 15.3358 11.975C15.3849 11.9599 15.4336 11.9432 15.4818 11.925C15.6298 11.8742 15.7657 11.7931 15.8808 11.687C15.9184 11.6521 15.9485 11.6098 15.9693 11.5629C15.9901 11.516 16.0011 11.4653 16.0018 11.414C15.9988 11.254 15.8758 11.112 15.6808 11.043C15.6115 11.0148 15.5375 11.0002 15.4628 11C15.3932 10.9993 15.3243 11.0136 15.2608 11.042C15.1306 11.1077 14.989 11.1478 14.8438 11.16C14.7963 11.1586 14.7495 11.1485 14.7058 11.13L14.7178 10.937L14.7198 10.908C14.7628 10.232 14.8158 9.39 14.5918 8.89C14.4478 8.56035 14.2398 8.26259 13.9798 8.014C13.7654 7.81208 13.5177 7.64868 13.2478 7.531C12.8874 7.37423 12.4988 7.29257 12.1058 7.291L11.9088 7.292C11.5154 7.29397 11.1265 7.37597 10.7658 7.533C10.4966 7.65059 10.2496 7.81364 10.0358 8.015C9.77724 8.26343 9.57029 8.56044 9.42676 8.889C9.20376 9.389 9.25676 10.23 9.29876 10.907L9.31276 11.13C9.26081 11.1514 9.20493 11.1616 9.14876 11.16C9.02276 11.16 8.87276 11.12 8.70376 11.041C8.65034 11.017 8.59231 11.0051 8.53376 11.006C8.42818 11.0076 8.32481 11.0365 8.23376 11.09C8.18136 11.1173 8.13541 11.1556 8.09902 11.2021C8.06262 11.2487 8.03662 11.3025 8.02276 11.36C8.00976 11.43 8.00976 11.57 8.16476 11.711C8.25076 11.788 8.37576 11.861 8.53776 11.924C8.57976 11.941 8.63076 11.957 8.68376 11.974C8.86876 12.032 9.14976 12.121 9.22276 12.292C9.25976 12.379 9.24276 12.494 9.17476 12.632C9.15276 12.684 8.99376 13.042 8.66676 13.422C8.49104 13.6294 8.28625 13.8102 8.05876 13.959C7.80029 14.127 7.50987 14.2396 7.20576 14.29C7.14863 14.2991 7.09693 14.3291 7.0607 14.3742C7.02447 14.4193 7.00632 14.4763 7.00976 14.534C7.01176 14.569 7.01976 14.603 7.03476 14.636C7.08276 14.749 7.19376 14.843 7.37376 14.926C7.59376 15.028 7.92176 15.114 8.35176 15.181C8.37376 15.221 8.39576 15.325 8.41176 15.396C8.42776 15.471 8.44476 15.548 8.46876 15.63C8.49476 15.719 8.56276 15.825 8.73676 15.825C8.80376 15.825 8.87876 15.81 8.96676 15.793C9.09676 15.768 9.27176 15.733 9.49176 15.733C9.61376 15.733 9.73976 15.744 9.86676 15.766C10.1118 15.806 10.3228 15.955 10.5668 16.127C10.9248 16.38 11.3298 16.666 11.9488 16.666L11.9988 16.664L12.0708 16.666C12.6898 16.666 13.0948 16.38 13.4528 16.128C13.6978 15.956 13.9088 15.807 14.1528 15.766C14.4515 15.7154 14.7572 15.7235 15.0528 15.79C15.1498 15.809 15.2248 15.818 15.2828 15.818C15.4218 15.818 15.5158 15.748 15.5508 15.626C15.5748 15.546 15.5918 15.471 15.6088 15.394C15.6228 15.327 15.6468 15.221 15.6688 15.18C16.0978 15.112 16.4258 15.027 16.6458 14.926C16.8258 14.842 16.9358 14.748 16.9848 14.636C16.9991 14.6038 17.0076 14.5692 17.0098 14.534C17.013 14.4764 16.9947 14.4197 16.9585 14.3748C16.9223 14.3299 16.8707 14.3001 16.8138 14.291V14.292Z" fill="#21272A"/>
</svg>
