<svg width="24" height="24" viewBox="0 0 24 24" fill="none" xmlns="http://www.w3.org/2000/svg">
<path d="M16.8138 14.292C15.4768 14.072 14.8738 12.702 14.8498 12.645C14.7758 12.495 14.7598 12.38 14.7978 12.293C14.8708 12.122 15.1508 12.033 15.3358 11.975C15.3849 11.9599 15.4336 11.9432 15.4818 11.925C15.6298 11.8742 15.7657 11.7931 15.8808 11.687C15.9184 11.6521 15.9485 11.6098 15.9693 11.5629C15.9901 11.516 16.0011 11.4653 16.0018 11.414C15.9988 11.254 15.8758 11.112 15.6808 11.043C15.6116 11.0148 15.5375 11.0002 15.4628 11C15.3932 10.9993 15.3243 11.0136 15.2608 11.042C15.1306 11.1077 14.989 11.1478 14.8438 11.16C14.7963 11.1586 14.7495 11.1485 14.7058 11.13L14.7178 10.937L14.7198 10.908C14.7628 10.232 14.8158 9.39 14.5918 8.89C14.4478 8.56035 14.2398 8.26259 13.9798 8.014C13.7654 7.81208 13.5177 7.64868 13.2478 7.531C12.8874 7.37423 12.4988 7.29257 12.1058 7.291L11.9088 7.292C11.5154 7.29397 11.1265 7.37597 10.7658 7.533C10.4966 7.65059 10.2496 7.81364 10.0358 8.015C9.77725 8.26343 9.57029 8.56044 9.42677 8.889C9.20377 9.389 9.25677 10.23 9.29877 10.907L9.31277 11.13C9.26082 11.1514 9.20494 11.1616 9.14877 11.16C9.02277 11.16 8.87277 11.12 8.70377 11.041C8.65035 11.017 8.59231 11.0051 8.53377 11.006C8.42818 11.0076 8.32481 11.0365 8.23377 11.09C8.18136 11.1173 8.13542 11.1556 8.09902 11.2021C8.06263 11.2487 8.03663 11.3025 8.02277 11.36C8.00977 11.43 8.00977 11.57 8.16477 11.711C8.25077 11.788 8.37577 11.861 8.53777 11.924C8.57977 11.941 8.63077 11.957 8.68377 11.974C8.86877 12.032 9.14977 12.121 9.22277 12.292C9.25977 12.379 9.24277 12.494 9.17477 12.632C9.15277 12.684 8.99377 13.042 8.66677 13.422C8.49104 13.6294 8.28626 13.8102 8.05877 13.959C7.80029 14.127 7.50988 14.2396 7.20577 14.29C7.14864 14.2991 7.09693 14.3291 7.0607 14.3742C7.02447 14.4193 7.00632 14.4763 7.00977 14.534C7.01177 14.569 7.01977 14.603 7.03477 14.636C7.08277 14.749 7.19377 14.843 7.37377 14.926C7.59377 15.028 7.92177 15.114 8.35177 15.181C8.37377 15.221 8.39577 15.325 8.41177 15.396C8.42777 15.471 8.44477 15.548 8.46877 15.63C8.49477 15.719 8.56277 15.825 8.73677 15.825C8.80377 15.825 8.87877 15.81 8.96677 15.793C9.09677 15.768 9.27177 15.733 9.49177 15.733C9.61377 15.733 9.73977 15.744 9.86677 15.766C10.1118 15.806 10.3228 15.955 10.5668 16.127C10.9248 16.38 11.3298 16.666 11.9488 16.666L11.9988 16.664L12.0708 16.666C12.6898 16.666 13.0948 16.38 13.4528 16.128C13.6978 15.956 13.9088 15.807 14.1528 15.766C14.4515 15.7154 14.7572 15.7235 15.0528 15.79C15.1498 15.809 15.2248 15.818 15.2828 15.818C15.4218 15.818 15.5158 15.748 15.5508 15.626C15.5748 15.546 15.5918 15.471 15.6088 15.394C15.6228 15.327 15.6468 15.221 15.6688 15.18C16.0978 15.112 16.4258 15.027 16.6458 14.926C16.8258 14.842 16.9358 14.748 16.9848 14.636C16.9991 14.6038 17.0076 14.5692 17.0098 14.534C17.013 14.4764 16.9947 14.4197 16.9585 14.3748C16.9223 14.3299 16.8707 14.3001 16.8138 14.291V14.292Z" fill="#21272A"/>
<path d="M6.00977 4C5.47933 4 4.97062 4.21071 4.59555 4.58579C4.22048 4.96086 4.00977 5.46957 4.00977 6V18C4.00977 18.5304 4.22048 19.0391 4.59555 19.4142C4.97062 19.7893 5.47933 20 6.00977 20H18.0098C18.5402 20 19.0489 19.7893 19.424 19.4142C19.7991 19.0391 20.0098 18.5304 20.0098 18V6C20.0098 5.46957 19.7991 4.96086 19.424 4.58579C19.0489 4.21071 18.5402 4 18.0098 4H6.00977ZM6.00977 2H18.0098C19.0706 2 20.088 2.42143 20.8382 3.17157C21.5883 3.92172 22.0098 4.93913 22.0098 6V18C22.0098 19.0609 21.5883 20.0783 20.8382 20.8284C20.088 21.5786 19.0706 22 18.0098 22H6.00977C4.9489 22 3.93148 21.5786 3.18134 20.8284C2.43119 20.0783 2.00977 19.0609 2.00977 18V6C2.00977 4.93913 2.43119 3.92172 3.18134 3.17157C3.93148 2.42143 4.9489 2 6.00977 2V2Z" fill="#21272A"/>
</svg>
