<svg width="24" height="24" viewBox="0 0 24 24" fill="none" xmlns="http://www.w3.org/2000/svg">
<path d="M20.5198 3.52699C20.9542 3.96161 21.2932 4.48213 21.515 5.05526C21.7368 5.62838 21.8366 6.24149 21.8079 6.85536C21.7792 7.46924 21.6226 8.07036 21.3483 8.62029C21.074 9.17021 20.6879 9.65682 20.2148 10.049C16.5249 13.1071 13.1289 16.5032 10.0708 20.193C9.67859 20.6661 9.19198 21.0522 8.64206 21.3265C8.09214 21.6009 7.49101 21.7574 6.87714 21.7861C6.26326 21.8148 5.65015 21.7151 5.07703 21.4933C4.50391 21.2715 3.98339 20.9325 3.54877 20.498C3.1154 20.0647 2.77752 19.5454 2.55685 18.9737C2.33617 18.402 2.2376 17.7904 2.26745 17.1783C2.29731 16.5661 2.45494 15.9671 2.73021 15.4195C3.00548 14.872 3.39229 14.3881 3.86577 13.999C7.57237 10.952 10.9731 7.5509 14.0198 3.84399C14.4089 3.37051 14.8927 2.9837 15.4403 2.70843C15.9878 2.43317 16.5869 2.27554 17.199 2.24568C17.8112 2.21582 18.4227 2.3144 18.9945 2.53507C19.5662 2.75574 20.0854 3.09363 20.5188 3.52699H20.5198ZM19.1048 4.94099C18.8687 4.70491 18.5859 4.52085 18.2745 4.40065C17.963 4.28045 17.6299 4.22677 17.2964 4.24307C16.963 4.25936 16.6367 4.34527 16.3384 4.49527C16.0402 4.64526 15.7767 4.85602 15.5648 5.11399C12.4353 8.92131 8.94208 12.4145 5.13477 15.544C4.86231 15.768 4.64277 16.0496 4.49189 16.3684C4.34101 16.6873 4.26252 17.0356 4.26204 17.3883C4.26156 17.7411 4.33911 18.0896 4.48913 18.4088C4.63914 18.7281 4.85791 19.0102 5.12977 19.235C5.62301 19.6437 6.25834 19.8397 6.8961 19.7801C7.53386 19.7205 8.12184 19.41 8.53077 18.917C11.6688 15.1314 15.1536 11.6473 18.9398 8.50999C19.1985 8.29537 19.4097 8.02911 19.5596 7.72823C19.7096 7.42735 19.7952 7.09848 19.8108 6.76266C19.8264 6.42683 19.7718 6.09144 19.6504 5.77794C19.529 5.46443 19.3435 5.17971 19.1058 4.94199L19.1048 4.94099ZM13.4478 10.57C13.2603 10.3824 13.155 10.1279 13.1551 9.86264C13.1551 9.73129 13.181 9.60124 13.2313 9.47991C13.2816 9.35857 13.3554 9.24834 13.4483 9.15549C13.5412 9.06265 13.6515 8.98901 13.7728 8.93879C13.8942 8.88857 14.0243 8.86274 14.1556 8.86279C14.4209 8.86288 14.6753 8.96835 14.8628 9.15599C14.9556 9.2489 15.0292 9.35919 15.0795 9.48056C15.1297 9.60193 15.1555 9.732 15.1555 9.86335C15.1554 9.9947 15.1295 10.1248 15.0792 10.2461C15.0289 10.3674 14.9552 10.4776 14.8623 10.5705C14.7694 10.6633 14.6591 10.737 14.5377 10.7872C14.4163 10.8374 14.2863 10.8632 14.1549 10.8632C14.0236 10.8631 13.8935 10.8372 13.7722 10.7869C13.6508 10.7366 13.5406 10.6629 13.4478 10.57ZM8.49777 15.52C8.40486 15.4271 8.33116 15.3168 8.28088 15.1954C8.23059 15.074 8.20471 14.9439 8.20471 14.8125C8.20471 14.6811 8.23059 14.551 8.28088 14.4296C8.33116 14.3082 8.40486 14.1979 8.49777 14.105C8.59068 14.0121 8.70098 13.9384 8.82237 13.8881C8.94377 13.8378 9.07387 13.8119 9.20527 13.8119C9.33666 13.8119 9.46677 13.8378 9.58816 13.8881C9.70956 13.9384 9.81986 14.0121 9.91277 14.105C10.1004 14.2925 10.2059 14.5469 10.206 14.8121C10.2061 15.0774 10.1008 15.3319 9.91327 15.5195C9.72576 15.7071 9.47139 15.8126 9.20612 15.8127C8.94085 15.8128 8.68641 15.7075 8.49877 15.52H8.49777Z" fill="#21272A"/>
</svg>
