<svg width="24" height="24" viewBox="0 0 24 24" fill="none" xmlns="http://www.w3.org/2000/svg">
<path d="M11.0098 8.126V3C11.0098 2.73478 11.1151 2.48043 11.3027 2.29289C11.4902 2.10536 11.7445 2 12.0098 2C12.275 2 12.5293 2.10536 12.7169 2.29289C12.9044 2.48043 13.0098 2.73478 13.0098 3V8.126C13.3768 8.22 13.7238 8.366 14.0418 8.554L16.2518 6.344C16.3439 6.24843 16.4542 6.17217 16.5762 6.11968C16.6982 6.06718 16.8294 6.0395 16.9621 6.03826C17.0949 6.03701 17.2266 6.06222 17.3495 6.11241C17.4725 6.16261 17.5842 6.23678 17.6781 6.33061C17.7721 6.42443 17.8464 6.53603 17.8968 6.65889C17.9472 6.78175 17.9726 6.91341 17.9715 7.04619C17.9704 7.17897 17.943 7.31021 17.8906 7.43225C17.8383 7.55429 17.7622 7.66469 17.6668 7.757L15.4568 9.968C15.6438 10.286 15.7898 10.633 15.8838 11H21.0098C21.275 11 21.5293 11.1054 21.7169 11.2929C21.9044 11.4804 22.0098 11.7348 22.0098 12C22.0098 12.2652 21.9044 12.5196 21.7169 12.7071C21.5293 12.8946 21.275 13 21.0098 13H15.8838C15.7906 13.3625 15.6465 13.71 15.4558 14.032L17.6658 16.242C17.7613 16.3342 17.8376 16.4445 17.8901 16.5664C17.9426 16.6884 17.9703 16.8196 17.9715 16.9524C17.9728 17.0852 17.9475 17.2169 17.8974 17.3398C17.8472 17.4627 17.773 17.5744 17.6792 17.6684C17.5853 17.7623 17.4737 17.8367 17.3509 17.887C17.228 17.9374 17.0964 17.9628 16.9636 17.9617C16.8308 17.9607 16.6996 17.9332 16.5775 17.8809C16.4555 17.8285 16.3451 17.7524 16.2528 17.657L14.0418 15.447C13.7196 15.6372 13.3721 15.7809 13.0098 15.874V21C13.0098 21.2652 12.9044 21.5196 12.7169 21.7071C12.5293 21.8946 12.275 22 12.0098 22C11.7445 22 11.4902 21.8946 11.3027 21.7071C11.1151 21.5196 11.0098 21.2652 11.0098 21V15.874C10.6473 15.7806 10.2999 15.6365 9.97777 15.446L7.76777 17.656C7.57929 17.8383 7.32676 17.9393 7.06456 17.9372C6.80236 17.9351 6.55147 17.8301 6.36593 17.6448C6.18039 17.4595 6.07504 17.2088 6.07258 16.9466C6.07012 16.6844 6.17074 16.4317 6.35277 16.243L8.56277 14.032C8.37293 13.7097 8.22952 13.3623 8.13677 13H3.00977C2.74455 13 2.4902 12.8946 2.30266 12.7071C2.11512 12.5196 2.00977 12.2652 2.00977 12C2.00977 11.7348 2.11512 11.4804 2.30266 11.2929C2.4902 11.1054 2.74455 11 3.00977 11H8.13577C8.22895 10.6375 8.37305 10.29 8.56377 9.968L6.35377 7.758C6.17147 7.56953 6.07049 7.317 6.07258 7.05479C6.07468 6.79259 6.17967 6.5417 6.36495 6.35616C6.55022 6.17062 6.80097 6.06528 7.06316 6.06281C7.32536 6.06035 7.57804 6.16097 7.76677 6.343L9.97777 8.553C10.3 8.36317 10.6474 8.21975 11.0098 8.127V8.126ZM12.0098 14C11.4793 14 10.9706 13.7893 10.5956 13.4142C10.2205 13.0391 10.0098 12.5304 10.0098 12C10.0098 11.4696 10.2205 10.9609 10.5956 10.5858C10.9706 10.2107 11.4793 10 12.0098 10C12.5402 10 13.0489 10.2107 13.424 10.5858C13.7991 10.9609 14.0098 11.4696 14.0098 12C14.0098 12.5304 13.7991 13.0391 13.424 13.4142C13.0489 13.7893 12.5402 14 12.0098 14ZM11.0098 19.318L10.6168 19.711C10.432 19.8955 10.1815 19.9991 9.92041 19.999C9.6593 19.9989 9.4089 19.8951 9.22427 19.7105C9.03963 19.5259 8.93586 19.2755 8.93577 19.0144C8.93567 18.7532 9.03926 18.5028 9.22377 18.318L11.0098 16.532V19.318ZM13.0098 16.532L14.7958 18.318C14.9803 18.5028 15.0839 18.7532 15.0838 19.0144C15.0837 19.2755 14.9799 19.5259 14.7953 19.7105C14.6106 19.8951 14.3602 19.9989 14.0991 19.999C13.838 19.9991 13.5875 19.8955 13.4028 19.711L13.0098 19.318V16.532ZM13.0098 4.682L13.4028 4.289C13.5875 4.1045 13.838 4.00091 14.0991 4.001C14.3602 4.00109 14.6106 4.10486 14.7953 4.2895C14.9799 4.47414 15.0837 4.72453 15.0838 4.98565C15.0839 5.24676 14.9803 5.49723 14.7958 5.682L13.0098 7.468V4.682ZM11.0098 7.468L9.22377 5.682C9.03926 5.49723 8.93567 5.24676 8.93577 4.98565C8.93586 4.72453 9.03963 4.47414 9.22427 4.2895C9.4089 4.10486 9.6593 4.00109 9.92041 4.001C10.1815 4.00091 10.432 4.1045 10.6168 4.289L11.0098 4.682V7.468ZM19.3278 13L19.7208 13.393C19.9053 13.5778 20.0089 13.8282 20.0088 14.0894C20.0087 14.3505 19.9049 14.6009 19.7203 14.7855C19.5356 14.9701 19.2852 15.0739 19.0241 15.074C18.763 15.0741 18.5125 14.9705 18.3278 14.786L16.5418 13H19.3278ZM16.5418 11L18.3278 9.214C18.5125 9.0295 18.763 8.92591 19.0241 8.926C19.2852 8.92609 19.5356 9.02986 19.7203 9.2145C19.9049 9.39914 20.0087 9.64953 20.0088 9.91065C20.0089 10.1718 19.9053 10.4222 19.7208 10.607L19.3278 11H16.5418ZM4.69177 11L4.29877 10.607C4.11426 10.4222 4.01067 10.1718 4.01077 9.91065C4.01086 9.64953 4.11463 9.39914 4.29927 9.2145C4.4839 9.02986 4.7343 8.92609 4.99541 8.926C5.25653 8.92591 5.507 9.0295 5.69177 9.214L7.47777 11H4.69177ZM7.47777 13L5.69177 14.786C5.507 14.9705 5.25653 15.0741 4.99541 15.074C4.7343 15.0739 4.4839 14.9701 4.29927 14.7855C4.11463 14.6009 4.01086 14.3505 4.01077 14.0894C4.01067 13.8282 4.11426 13.5778 4.29877 13.393L4.69177 13H7.47777Z" fill="#21272A"/>
</svg>
