<svg width="24" height="24" viewBox="0 0 24 24" fill="none" xmlns="http://www.w3.org/2000/svg">
<path d="M21.9918 13.862C21.9118 12.644 20.9598 11.666 19.7978 11.607C19.3708 11.5846 18.9465 11.686 18.5758 11.899C18.5278 9.474 16.6418 7.52299 14.3208 7.52299C13.7058 7.52299 13.1228 7.65999 12.5958 7.90499C12.5392 7.93267 12.4917 7.97585 12.4588 8.0295C12.4259 8.08315 12.4088 8.14505 12.4098 8.20799V16.133C12.4098 16.316 12.5518 16.465 12.7258 16.465H19.6828C21.0158 16.465 22.0848 15.282 21.9928 13.862H21.9918ZM11.7948 8.036C11.7519 8.03703 11.7098 8.0465 11.6706 8.06385C11.6314 8.0812 11.5961 8.10609 11.5666 8.13711C11.537 8.16812 11.5139 8.20466 11.4985 8.24462C11.4831 8.28458 11.4757 8.32718 11.4768 8.36999V16.122C11.4768 16.306 11.6188 16.456 11.7948 16.456C11.9698 16.456 12.1128 16.306 12.1128 16.122V8.36999C12.1138 8.32718 12.1064 8.28458 12.091 8.24462C12.0756 8.20466 12.0525 8.16812 12.023 8.13711C11.9934 8.10609 11.9581 8.0812 11.9189 8.06385C11.8798 8.0465 11.8376 8.03703 11.7948 8.036ZM10.7428 8.86C10.6999 8.86103 10.6578 8.8705 10.6186 8.88785C10.5794 8.9052 10.5441 8.93009 10.5146 8.96111C10.485 8.99212 10.4619 9.02866 10.4465 9.06862C10.4311 9.10858 10.4237 9.15118 10.4248 9.19399V16.122C10.4248 16.306 10.5678 16.456 10.7428 16.456C10.9188 16.456 11.0608 16.306 11.0608 16.122V9.19399C11.0618 9.15118 11.0544 9.10858 11.039 9.06862C11.0236 9.02866 11.0005 8.99212 10.971 8.96111C10.9414 8.93009 10.9061 8.9052 10.8669 8.88785C10.8278 8.8705 10.7856 8.86103 10.7428 8.86ZM9.69076 9.23599C9.64795 9.23703 9.60576 9.2465 9.5666 9.26385C9.52744 9.2812 9.49209 9.30609 9.46256 9.33711C9.43303 9.36812 9.4099 9.40466 9.39449 9.44462C9.37908 9.48458 9.3717 9.52718 9.37276 9.56999V16.122C9.37276 16.306 9.51576 16.456 9.69076 16.456C9.86676 16.456 10.0088 16.306 10.0088 16.122V9.56999C10.0098 9.52718 10.0024 9.48458 9.98703 9.44462C9.97163 9.40466 9.9485 9.36812 9.91896 9.33711C9.88943 9.30609 9.85408 9.2812 9.81492 9.26385C9.77577 9.2465 9.73358 9.23703 9.69076 9.23599ZM8.63976 8.735C8.59686 8.7359 8.55456 8.74527 8.51529 8.76256C8.47602 8.77985 8.44055 8.80473 8.41091 8.83576C8.38128 8.86679 8.35806 8.90337 8.34259 8.94339C8.32712 8.98341 8.3197 9.0261 8.32076 9.06899V16.122C8.32076 16.306 8.46376 16.456 8.63876 16.456C8.81476 16.456 8.95676 16.306 8.95676 16.122V9.07C8.95783 9.02718 8.95044 8.98458 8.93503 8.94462C8.91963 8.90466 8.8965 8.86812 8.86696 8.83711C8.83743 8.80609 8.80208 8.7812 8.76292 8.76385C8.72377 8.7465 8.68158 8.73703 8.63876 8.73599L8.63976 8.735ZM7.58676 9.06899C7.54395 9.07003 7.50176 9.0795 7.4626 9.09685C7.42344 9.1142 7.38809 9.13909 7.35856 9.17011C7.32903 9.20112 7.3059 9.23766 7.29049 9.27762C7.27508 9.31758 7.2677 9.36018 7.26876 9.40299V16.123C7.26876 16.306 7.41176 16.456 7.58676 16.456C7.76276 16.456 7.90476 16.306 7.90476 16.122V9.40199C7.90664 9.3157 7.87422 9.23218 7.8146 9.16975C7.75499 9.10733 7.67305 9.07109 7.58676 9.06899ZM6.53476 9.73699C6.44847 9.73935 6.36663 9.77584 6.3072 9.83845C6.24778 9.90107 6.21561 9.9847 6.21776 10.071V16.122C6.21776 16.306 6.35976 16.456 6.53476 16.456C6.71076 16.456 6.85276 16.306 6.85276 16.122V10.071C6.85383 10.0282 6.84644 9.98558 6.83103 9.94562C6.81563 9.90566 6.7925 9.86912 6.76296 9.83811C6.73343 9.80709 6.69808 9.7822 6.65892 9.76485C6.61977 9.7475 6.57758 9.73803 6.53476 9.73699ZM5.48376 11.03C5.44095 11.031 5.39876 11.0405 5.3596 11.0578C5.32044 11.0752 5.28509 11.1001 5.25556 11.1311C5.22603 11.1621 5.2029 11.1987 5.18749 11.2386C5.17208 11.2786 5.1647 11.3212 5.16576 11.364V16.122C5.16576 16.306 5.30776 16.456 5.48376 16.456C5.65876 16.456 5.80076 16.306 5.80076 16.122V11.364C5.80264 11.2779 5.77036 11.1945 5.71096 11.1321C5.65156 11.0697 5.56988 11.0334 5.48376 11.031V11.03ZM4.43176 11.573C4.38895 11.574 4.34676 11.5835 4.3076 11.6008C4.26844 11.6182 4.23309 11.6431 4.20356 11.6741C4.17403 11.7051 4.1509 11.7417 4.13549 11.7816C4.12008 11.8216 4.1127 11.8642 4.11376 11.907V16.122C4.11376 16.306 4.25576 16.456 4.43176 16.456C4.60676 16.456 4.74976 16.306 4.74976 16.122V11.907C4.75083 11.8642 4.74344 11.8216 4.72803 11.7816C4.71263 11.7417 4.6895 11.7051 4.65996 11.6741C4.63043 11.6431 4.59508 11.6182 4.55592 11.6008C4.51677 11.5835 4.47458 11.574 4.43176 11.573ZM3.37976 11.698C3.29347 11.7001 3.21153 11.7363 3.15192 11.7988C3.09231 11.8612 3.05988 11.9447 3.06176 12.031V15.998C3.06176 16.182 3.20376 16.331 3.37976 16.331C3.55476 16.331 3.69776 16.181 3.69776 15.998V12.03C3.69964 11.9437 3.66722 11.8602 3.6076 11.7978C3.54799 11.7353 3.46605 11.6991 3.37976 11.697V11.698ZM2.32776 12.57C2.24165 12.5721 2.15986 12.6082 2.10028 12.6704C2.04069 12.7326 2.00815 12.8159 2.00976 12.902V15.187C2.00976 15.372 2.15176 15.521 2.32776 15.521C2.50276 15.521 2.64576 15.371 2.64576 15.187V12.903C2.64683 12.8602 2.63944 12.8176 2.62403 12.7776C2.60863 12.7377 2.5855 12.7011 2.55596 12.6701C2.52643 12.6391 2.49108 12.6142 2.45192 12.5968C2.41277 12.5795 2.37058 12.57 2.32776 12.569V12.57Z" fill="#21272A"/>
</svg>
