<svg width="24" height="24" viewBox="0 0 24 24" fill="none" xmlns="http://www.w3.org/2000/svg">
<path d="M8.00977 2H16.0098C16.8054 2 17.5685 2.31607 18.1311 2.87868C18.6937 3.44129 19.0098 4.20435 19.0098 5V19C19.0098 19.7956 18.6937 20.5587 18.1311 21.1213C17.5685 21.6839 16.8054 22 16.0098 22H8.00977C7.21412 22 6.45105 21.6839 5.88845 21.1213C5.32584 20.5587 5.00977 19.7956 5.00977 19V5C5.00977 4.20435 5.32584 3.44129 5.88845 2.87868C6.45105 2.31607 7.21412 2 8.00977 2V2ZM8.00977 4C7.74455 4 7.4902 4.10536 7.30266 4.29289C7.11512 4.48043 7.00977 4.73478 7.00977 5V19C7.00977 19.2652 7.11512 19.5196 7.30266 19.7071C7.4902 19.8946 7.74455 20 8.00977 20H16.0098C16.275 20 16.5293 19.8946 16.7169 19.7071C16.9044 19.5196 17.0098 19.2652 17.0098 19V5C17.0098 4.73478 16.9044 4.48043 16.7169 4.29289C16.5293 4.10536 16.275 4 16.0098 4H8.00977ZM12.0098 19C10.9489 19 9.93148 18.5786 9.18134 17.8284C8.43119 17.0783 8.00977 16.0609 8.00977 15C8.00977 13.9391 8.43119 12.9217 9.18134 12.1716C9.93148 11.4214 10.9489 11 12.0098 11C13.0706 11 14.088 11.4214 14.8382 12.1716C15.5883 12.9217 16.0098 13.9391 16.0098 15C16.0098 16.0609 15.5883 17.0783 14.8382 17.8284C14.088 18.5786 13.0706 19 12.0098 19ZM12.0098 17C12.5402 17 13.0489 16.7893 13.424 16.4142C13.7991 16.0391 14.0098 15.5304 14.0098 15C14.0098 14.4696 13.7991 13.9609 13.424 13.5858C13.0489 13.2107 12.5402 13 12.0098 13C11.4793 13 10.9706 13.2107 10.5956 13.5858C10.2205 13.9609 10.0098 14.4696 10.0098 15C10.0098 15.5304 10.2205 16.0391 10.5956 16.4142C10.9706 16.7893 11.4793 17 12.0098 17ZM12.0098 9C11.7445 9 11.4902 8.89464 11.3027 8.70711C11.1151 8.51957 11.0098 8.26522 11.0098 8C11.0098 7.73478 11.1151 7.48043 11.3027 7.29289C11.4902 7.10536 11.7445 7 12.0098 7C12.275 7 12.5293 7.10536 12.7169 7.29289C12.9044 7.48043 13.0098 7.73478 13.0098 8C13.0098 8.26522 12.9044 8.51957 12.7169 8.70711C12.5293 8.89464 12.275 9 12.0098 9Z" fill="#21272A"/>
</svg>
