<svg width="24" height="24" viewBox="0 0 24 24" fill="none" xmlns="http://www.w3.org/2000/svg">
<path fill-rule="evenodd" clip-rule="evenodd" d="M10.5498 11.002H7.46677L6.95977 12.39C6.78977 12.856 6.22577 13.112 5.69977 12.96C5.17777 12.81 4.88977 12.309 5.05977 11.842L7.10677 6.23C7.44677 5.296 8.57477 4.785 9.62477 5.087C10.2348 5.263 10.7128 5.687 10.9098 6.229L12.9578 11.84C13.1278 12.307 12.8398 12.807 12.3148 12.959C11.7898 13.109 11.2258 12.854 11.0558 12.388L10.5498 11.002ZM9.81977 9.002L9.00777 6.776L8.19677 9.002H9.81977ZM12.3558 16.585L17.3038 11.633C17.4914 11.4456 17.7458 11.3405 18.011 11.3407C18.1423 11.3407 18.2723 11.3667 18.3935 11.417C18.5148 11.4674 18.625 11.5411 18.7178 11.634C18.8105 11.7269 18.8841 11.8372 18.9343 11.9585C18.9844 12.0799 19.0102 12.2099 19.0101 12.3412C19.01 12.4725 18.9841 12.6025 18.9337 12.7238C18.8834 12.8451 18.8097 12.9552 18.7168 13.048L13.0628 18.707C12.97 18.7999 12.8598 18.8737 12.7385 18.924C12.6171 18.9743 12.4871 19.0002 12.3558 19.0002C12.2244 19.0002 12.0944 18.9743 11.9731 18.924C11.8518 18.8737 11.7416 18.7999 11.6488 18.707L8.82177 15.877C8.64885 15.6866 8.55582 15.437 8.56199 15.1799C8.56816 14.9228 8.67304 14.678 8.85489 14.4961C9.03674 14.3143 9.2816 14.2094 9.5387 14.2032C9.7958 14.1971 10.0454 14.2901 10.2358 14.463L12.3558 16.585Z" fill="#21272A"/>
</svg>
