<svg width="24" height="24" viewBox="0 0 24 24" fill="none" xmlns="http://www.w3.org/2000/svg">
<path d="M12.0018 2C6.48377 2 2.00977 6.474 2.00977 11.992C2.00977 17.51 6.48377 21.984 12.0018 21.984C17.5198 21.984 21.9938 17.51 21.9938 11.992C21.9938 6.474 17.5198 2 12.0018 2ZM16.3498 17.683C16.2228 18.012 15.9948 18.195 15.7598 18.195C15.6316 18.1922 15.509 18.1419 15.4158 18.054C13.6198 16.466 11.5458 16.211 10.1218 16.276C8.54377 16.349 7.38677 16.82 7.37477 16.825C7.01177 16.975 6.63477 16.651 6.53577 16.101C6.43577 15.551 6.64977 14.982 7.01277 14.831C7.06477 14.809 8.30977 14.297 10.0418 14.211C11.0251 14.1562 12.0107 14.2644 12.9588 14.531C14.1244 14.8668 15.1996 15.4605 16.1048 16.268C16.4308 16.557 16.5408 17.19 16.3498 17.683ZM17.6198 14.62C17.4698 14.949 17.1998 15.132 16.9208 15.132C16.7734 15.1306 16.6305 15.0811 16.5138 14.991C14.3868 13.403 11.9298 13.148 10.2428 13.213C8.37277 13.286 7.00277 13.757 6.98977 13.762C6.55877 13.912 6.11377 13.588 5.99477 13.038C5.87677 12.488 6.12977 11.919 6.56077 11.768C6.62177 11.746 8.09677 11.234 10.1478 11.148C11.3558 11.097 12.5178 11.205 13.6038 11.468C14.9508 11.7881 16.2185 12.3791 17.3298 13.205C17.7158 13.493 17.8458 14.127 17.6198 14.62ZM18.4018 11.624C18.2252 11.6236 18.0522 11.5745 17.9018 11.482C12.8448 8.404 6.28577 10.234 6.21977 10.252C5.69177 10.405 5.14477 10.082 4.99977 9.531C4.85377 8.98 5.16477 8.411 5.69277 8.259C5.76877 8.237 7.57777 7.725 10.0928 7.639C11.5137 7.5835 12.9363 7.69087 14.3328 7.959C16.0188 8.292 17.5558 8.876 18.9028 9.697C19.3768 9.985 19.5358 10.618 19.2598 11.111C19.1755 11.2653 19.0516 11.3942 18.9007 11.4844C18.7498 11.5746 18.5775 11.6228 18.4018 11.624Z" fill="#21272A"/>
</svg>
