<svg width="24" height="24" viewBox="0 0 24 24" fill="none" xmlns="http://www.w3.org/2000/svg">
<path d="M5.31477 11.16L11.3098 5.134C11.6664 4.7746 12.0907 4.48935 12.5581 4.29468C13.0256 4.10002 13.5269 3.9998 14.0333 3.9998C14.5396 3.9998 15.0409 4.10002 15.5084 4.29468C15.9758 4.48935 16.4001 4.7746 16.7568 5.134C16.929 5.32117 17.0224 5.56761 17.0173 5.82193C17.0123 6.07624 16.9093 6.3188 16.7298 6.499C16.6406 6.58907 16.5345 6.66057 16.4175 6.70937C16.3005 6.75817 16.175 6.78329 16.0483 6.78329C15.9215 6.78329 15.796 6.75817 15.6791 6.70937C15.5621 6.66057 15.4559 6.58907 15.3668 6.499L15.2768 6.394C14.9086 6.08037 14.4354 5.91744 13.9522 5.93783C13.4689 5.95823 13.0112 6.16046 12.6708 6.504L6.54277 12.664C6.13977 13.038 5.52977 13.038 5.15477 12.66C5.05282 12.5575 4.97504 12.4335 4.92712 12.2971C4.8792 12.1607 4.86233 12.0154 4.87776 11.8716C4.89319 11.7279 4.94052 11.5894 5.0163 11.4663C5.09207 11.3432 5.19439 11.2385 5.31577 11.16H5.31477ZM18.7708 11.291C18.6691 11.1885 18.5457 11.1103 18.4097 11.0621C18.2736 11.0139 18.1285 10.9971 17.985 11.0127C17.8415 11.0284 17.7034 11.0762 17.581 11.1526C17.4585 11.229 17.3549 11.332 17.2778 11.454L11.3098 17.456C11.1313 17.6356 10.9191 17.7781 10.6854 17.8754C10.4516 17.9727 10.2009 18.0227 9.94777 18.0227C9.69459 18.0227 9.44391 17.9727 9.21016 17.8754C8.97642 17.7781 8.76421 17.6356 8.58577 17.456L8.55877 17.451C8.46954 17.3612 8.36344 17.2899 8.24657 17.2413C8.12969 17.1927 8.00435 17.1676 7.87777 17.1676C7.75118 17.1676 7.62584 17.1927 7.50897 17.2413C7.39209 17.2899 7.28599 17.3612 7.19677 17.451C7.09521 17.553 7.0176 17.6763 6.96956 17.812C6.92151 17.9477 6.90424 18.0923 6.91898 18.2355C6.93371 18.3787 6.9801 18.5168 7.05478 18.6399C7.12946 18.7629 7.23056 18.8678 7.35077 18.947C8.08149 19.6181 9.04369 19.9801 10.0355 19.9572C11.0274 19.9343 11.9718 19.5281 12.6708 18.824L18.7718 12.66C18.9523 12.478 19.0537 12.2319 19.0537 11.9755C19.0537 11.7191 18.9523 11.4731 18.7718 11.291H18.7708ZM9.40077 15.267C9.27924 15.3454 9.17678 15.45 9.10089 15.5731C9.025 15.6962 8.97761 15.8348 8.96217 15.9786C8.94674 16.1224 8.96366 16.2678 9.01169 16.4042C9.05972 16.5406 9.13764 16.6646 9.23977 16.767C9.61477 17.144 10.2238 17.144 10.6278 16.771L16.7558 10.61C16.9341 10.4304 17.1462 10.2879 17.3799 10.1907C17.6136 10.0934 17.8642 10.0434 18.1173 10.0434C18.3704 10.0434 18.621 10.0934 18.8546 10.1907C19.0883 10.2879 19.3004 10.4304 19.4788 10.61C19.8404 10.9739 20.0434 11.466 20.0434 11.979C20.0434 12.492 19.8404 12.9842 19.4788 13.348L13.6688 19.218C13.8472 19.3975 14.0593 19.5399 14.293 19.637C14.5266 19.7342 14.7772 19.7842 15.0303 19.7842C15.2833 19.7842 15.5339 19.7342 15.7675 19.637C16.0012 19.5399 16.2133 19.3975 16.3918 19.218L20.8418 14.718C21.5644 13.9898 21.9698 13.0054 21.9698 11.9795C21.9698 10.9536 21.5644 9.96926 20.8418 9.241C20.4849 8.88181 20.0605 8.59675 19.593 8.40222C19.1255 8.2077 18.6241 8.10756 18.1178 8.10756C17.6114 8.10756 17.1101 8.2077 16.6426 8.40222C16.1751 8.59675 15.7507 8.88181 15.3938 9.241L9.39977 15.267H9.40077ZM8.58477 14.717L14.6848 8.553C14.8656 8.37108 14.9671 8.125 14.9671 7.8685C14.9671 7.61201 14.8656 7.36593 14.6848 7.184C14.5832 7.08155 14.4599 7.00332 14.3239 6.95514C14.1879 6.90696 14.0429 6.89007 13.8995 6.90574C13.7561 6.92141 13.618 6.96922 13.4957 7.04562C13.3733 7.12202 13.2698 7.22504 13.1928 7.347L7.22277 13.35C7.04447 13.5297 6.83237 13.6723 6.5987 13.7696C6.36503 13.867 6.1144 13.9171 5.86127 13.9171C5.60813 13.9171 5.35751 13.867 5.12383 13.7696C4.89016 13.6723 4.67806 13.5297 4.49977 13.35C4.13783 12.9861 3.93466 12.4937 3.93466 11.9805C3.93466 11.4673 4.13783 10.9749 4.49977 10.611L10.3108 4.742C10.1325 4.56217 9.92029 4.41942 9.68653 4.32201C9.45276 4.22459 9.20202 4.17444 8.94877 4.17444C8.69551 4.17444 8.44477 4.22459 8.211 4.32201C7.97724 4.41942 7.76508 4.56217 7.58677 4.742L3.13777 9.242C2.41553 9.97004 2.01027 10.954 2.01027 11.9795C2.01027 13.005 2.41553 13.989 3.13777 14.717C3.49437 15.0765 3.91863 15.3619 4.38607 15.5566C4.85351 15.7514 5.35488 15.8516 5.86127 15.8516C6.36765 15.8516 6.86902 15.7514 7.33646 15.5566C7.8039 15.3619 8.22816 15.0765 8.58477 14.717Z" fill="#21272A"/>
</svg>
