<svg width="24" height="24" viewBox="0 0 24 24" fill="none" xmlns="http://www.w3.org/2000/svg">
<path d="M12.0098 20C14.1315 20 16.1663 19.1571 17.6666 17.6569C19.1669 16.1566 20.0098 14.1217 20.0098 12C20.0098 9.87827 19.1669 7.84344 17.6666 6.34315C16.1663 4.84285 14.1315 4 12.0098 4C9.88803 4 7.8532 4.84285 6.35291 6.34315C4.85262 7.84344 4.00977 9.87827 4.00977 12C4.00977 14.1217 4.85262 16.1566 6.35291 17.6569C7.8532 19.1571 9.88803 20 12.0098 20ZM12.0098 22C6.48677 22 2.00977 17.523 2.00977 12C2.00977 6.477 6.48677 2 12.0098 2C17.5328 2 22.0098 6.477 22.0098 12C22.0098 17.523 17.5328 22 12.0098 22Z" fill="#21272A"/>
<path d="M7.99677 11.513L11.6008 7.89C11.8152 7.67391 12.0703 7.5024 12.3514 7.38537C12.6324 7.26833 12.9338 7.20807 13.2383 7.20807C13.5427 7.20807 13.8441 7.26833 14.1252 7.38537C14.4062 7.5024 14.6613 7.67391 14.8758 7.89C14.9791 8.00254 15.0351 8.15064 15.0319 8.30341C15.0287 8.45619 14.9667 8.60184 14.8588 8.71C14.8051 8.76403 14.7413 8.80691 14.6711 8.83618C14.6008 8.86544 14.5254 8.88051 14.4493 8.88051C14.3731 8.88051 14.2978 8.86544 14.2275 8.83618C14.1572 8.80691 14.0934 8.76403 14.0398 8.71L13.9858 8.647C13.7644 8.45833 13.4799 8.36029 13.1893 8.37252C12.8987 8.38476 12.6235 8.50638 12.4188 8.713L8.73477 12.417C8.6227 12.5254 8.47278 12.5858 8.31686 12.5855C8.16094 12.5851 8.01131 12.5239 7.89977 12.415C7.83849 12.3533 7.79175 12.2788 7.76296 12.1968C7.73416 12.1147 7.72405 12.0273 7.73334 11.9409C7.74264 11.8545 7.77111 11.7712 7.81668 11.6972C7.86226 11.6231 7.92378 11.5602 7.99677 11.513ZM16.0868 11.592C16.0257 11.5305 15.9515 11.4835 15.8698 11.4546C15.788 11.4257 15.7008 11.4156 15.6147 11.425C15.5285 11.4344 15.4455 11.4631 15.372 11.509C15.2984 11.5549 15.2361 11.6167 15.1898 11.69L11.5998 15.298C11.4925 15.4059 11.365 15.4915 11.2245 15.55C11.084 15.6084 10.9334 15.6385 10.7813 15.6385C10.6291 15.6385 10.4785 15.6084 10.338 15.55C10.1975 15.4915 10.07 15.4059 9.96277 15.298L9.94677 15.295C9.89313 15.241 9.82934 15.1981 9.75906 15.1688C9.68877 15.1396 9.6134 15.1245 9.53727 15.1245C9.46114 15.1245 9.38576 15.1396 9.31548 15.1688C9.2452 15.1981 9.1814 15.241 9.12777 15.295C9.06661 15.3563 9.01986 15.4304 8.99088 15.5121C8.96191 15.5937 8.95145 15.6807 8.96026 15.7668C8.96906 15.853 8.99692 15.9361 9.0418 16.0101C9.08668 16.0842 9.14747 16.1473 9.21977 16.195C10.1298 17.029 11.5398 17.005 12.4198 16.121L16.0868 12.415C16.1952 12.3055 16.256 12.1576 16.256 12.0035C16.256 11.8494 16.1952 11.7015 16.0868 11.592ZM10.4528 13.982C10.3796 14.0291 10.318 14.092 10.2723 14.166C10.2266 14.24 10.1981 14.3233 10.1888 14.4098C10.1795 14.4963 10.1896 14.5838 10.2185 14.6658C10.2474 14.7479 10.2943 14.8224 10.3558 14.884C10.4673 14.9928 10.6168 15.054 10.7727 15.0546C10.9285 15.0551 11.0784 14.995 11.1908 14.887L14.8758 11.182C14.983 11.0741 15.1105 10.9885 15.251 10.93C15.3915 10.8716 15.5421 10.8415 15.6943 10.8415C15.8464 10.8415 15.997 10.8716 16.1375 10.93C16.278 10.9885 16.4055 11.0741 16.5128 11.182C16.7303 11.4008 16.8525 11.6969 16.8525 12.0055C16.8525 12.3141 16.7303 12.6102 16.5128 12.829L13.0198 16.358C13.127 16.4659 13.2545 16.5515 13.395 16.61C13.5355 16.6684 13.6861 16.6985 13.8383 16.6985C13.9904 16.6985 14.141 16.6684 14.2815 16.61C14.422 16.5515 14.5495 16.4659 14.6568 16.358L17.3318 13.652C17.7661 13.2141 18.0099 12.6223 18.0099 12.0055C18.0099 11.3887 17.7661 10.7969 17.3318 10.359C17.1172 10.143 16.8621 9.97163 16.5811 9.85467C16.3001 9.7377 15.9987 9.67749 15.6943 9.67749C15.3899 9.67749 15.0885 9.7377 14.8074 9.85467C14.5264 9.97163 14.2713 10.143 14.0568 10.359L10.4528 13.982ZM9.96277 13.652L13.6308 9.946C13.7394 9.8366 13.8004 9.68868 13.8004 9.5345C13.8004 9.38033 13.7394 9.2324 13.6308 9.123C13.5698 9.06131 13.4956 9.01418 13.4139 8.98516C13.3321 8.95613 13.2448 8.94595 13.1586 8.95537C13.0724 8.9648 12.9894 8.99358 12.9158 9.03958C12.8422 9.08557 12.78 9.14759 12.7338 9.221L9.14377 12.829C9.03658 12.937 8.90908 13.0228 8.7686 13.0813C8.62812 13.1398 8.47745 13.1699 8.32527 13.1699C8.17309 13.1699 8.02242 13.1398 7.88194 13.0813C7.74146 13.0228 7.61395 12.937 7.50677 12.829C7.28919 12.6102 7.16706 12.3141 7.16706 12.0055C7.16706 11.6969 7.28919 11.4008 7.50677 11.182L11.0008 7.654C10.8936 7.54582 10.766 7.45995 10.6254 7.40135C10.4849 7.34275 10.3341 7.31257 10.1818 7.31257C10.0295 7.31257 9.87868 7.34275 9.73811 7.40135C9.59754 7.45995 9.46997 7.54582 9.36277 7.654L6.68777 10.359C6.25316 10.7968 6.00926 11.3886 6.00926 12.0055C6.00926 12.6224 6.25316 13.2142 6.68777 13.652C7.59277 14.562 9.05877 14.562 9.96277 13.652Z" fill="#21272A"/>
</svg>
