<svg width="24" height="24" viewBox="0 0 24 24" fill="none" xmlns="http://www.w3.org/2000/svg">
<path d="M12.0098 20C14.1315 20 16.1663 19.1571 17.6666 17.6569C19.1669 16.1566 20.0098 14.1217 20.0098 12C20.0098 9.87827 19.1669 7.84344 17.6666 6.34315C16.1663 4.84285 14.1315 4 12.0098 4C9.88803 4 7.8532 4.84285 6.35291 6.34315C4.85262 7.84344 4.00977 9.87827 4.00977 12C4.00977 14.1217 4.85262 16.1566 6.35291 17.6569C7.8532 19.1571 9.88803 20 12.0098 20ZM12.0098 22C6.48677 22 2.00977 17.523 2.00977 12C2.00977 6.477 6.48677 2 12.0098 2C17.5328 2 22.0098 6.477 22.0098 12C22.0098 17.523 17.5328 22 12.0098 22Z" fill="#21272A"/>
<path d="M14.7558 16.068V13.432H15.5878V16.943H8.07477V13.432H8.90677V16.068H14.7558Z" fill="#21272A"/>
<path d="M9.82576 13.182L13.9128 14.08L14.0858 13.216L9.99876 12.318L9.82576 13.182ZM10.3658 11.136L14.1508 12.989L14.4958 12.193L10.7128 10.33L10.3668 11.136H10.3658ZM11.4158 9.182L14.6258 11.989L15.1558 11.319L11.9458 8.511L11.4158 9.18101V9.182ZM13.4908 7.10201L12.8208 7.625L15.3068 11.148L15.9768 10.625L13.4908 7.10201ZM9.73976 15.182H13.9128V14.307H9.73976V15.182Z" fill="#21272A"/>
</svg>
