<svg width="24" height="24" viewBox="0 0 24 24" fill="none" xmlns="http://www.w3.org/2000/svg">
<path d="M17.5018 20.136V14.864H19.1668V21.886H4.13976V14.864H5.80476V20.136H17.5018Z" fill="#21272A"/>
<path d="M7.64176 14.364L15.8148 16.159L16.1608 14.432L7.98776 12.636L7.64176 14.364ZM8.72376 10.273L16.2908 13.977L16.9828 12.387L9.41476 8.659L8.72376 10.273ZM10.8208 6.363L17.2418 11.977L18.3018 10.637L11.8798 5.022L10.8198 6.362L10.8208 6.363ZM14.9718 2.206L13.6318 3.25L18.6048 10.295L19.9448 9.25L14.9718 2.205V2.206ZM7.46976 18.364H15.8158V16.614H7.46976V18.364Z" fill="#21272A"/>
</svg>
