<svg width="24" height="24" viewBox="0 0 24 24" fill="none" xmlns="http://www.w3.org/2000/svg">
<path d="M14.7558 16.068V13.432H15.5878V16.943H8.07477V13.432H8.90677V16.068H14.7558Z" fill="#21272A"/>
<path d="M9.82576 13.182L13.9128 14.08L14.0858 13.216L9.99876 12.318L9.82576 13.182ZM10.3658 11.136L14.1508 12.989L14.4958 12.193L10.7128 10.33L10.3668 11.136H10.3658ZM11.4158 9.182L14.6258 11.989L15.1558 11.319L11.9458 8.511L11.4158 9.18101V9.182ZM13.4908 7.10201L12.8208 7.625L15.3068 11.148L15.9768 10.625L13.4908 7.10201ZM9.73976 15.182H13.9128V14.307H9.73976V15.182Z" fill="#21272A"/>
<path d="M6.00977 4C5.47933 4 4.97062 4.21071 4.59555 4.58579C4.22048 4.96086 4.00977 5.46957 4.00977 6V18C4.00977 18.5304 4.22048 19.0391 4.59555 19.4142C4.97062 19.7893 5.47933 20 6.00977 20H18.0098C18.5402 20 19.0489 19.7893 19.424 19.4142C19.7991 19.0391 20.0098 18.5304 20.0098 18V6C20.0098 5.46957 19.7991 4.96086 19.424 4.58579C19.0489 4.21071 18.5402 4 18.0098 4H6.00977ZM6.00977 2H18.0098C19.0706 2 20.088 2.42143 20.8382 3.17157C21.5883 3.92172 22.0098 4.93913 22.0098 6V18C22.0098 19.0609 21.5883 20.0783 20.8382 20.8284C20.088 21.5786 19.0706 22 18.0098 22H6.00977C4.9489 22 3.93148 21.5786 3.18134 20.8284C2.43119 20.0783 2.00977 19.0609 2.00977 18V6C2.00977 4.93913 2.43119 3.92172 3.18134 3.17157C3.93148 2.42143 4.9489 2 6.00977 2V2Z" fill="#21272A"/>
</svg>
