<svg width="24" height="24" viewBox="0 0 24 24" fill="none" xmlns="http://www.w3.org/2000/svg">
<path d="M20.0098 20V18H4.00977V20H20.0098ZM9.00977 16V11C8.17024 10.3704 7.5501 9.49252 7.2372 8.49084C6.9243 7.48916 6.9345 6.41442 7.26635 5.41886C7.5982 4.4233 8.23489 3.55739 9.08621 2.94379C9.93754 2.33019 10.9604 2 12.0098 2C13.0592 2 14.082 2.33019 14.9333 2.94379C15.7846 3.55739 16.4213 4.4233 16.7532 5.41886C17.085 6.41442 17.0952 7.48916 16.7823 8.49084C16.4694 9.49252 15.8493 10.3704 15.0098 11V16H20.0098C20.5402 16 21.0489 16.2107 21.424 16.5858C21.7991 16.9609 22.0098 17.4696 22.0098 18V22H2.00977V18C2.00977 17.4696 2.22048 16.9609 2.59555 16.5858C2.97062 16.2107 3.47933 16 4.00977 16H9.00977ZM13.0098 16V10.001L13.8088 9.401C14.3127 9.02336 14.6851 8.4967 14.873 7.89565C15.061 7.2946 15.055 6.64964 14.856 6.05216C14.657 5.45468 14.275 4.93498 13.7641 4.56671C13.2533 4.19843 12.6395 4.00025 12.0098 4.00025C11.38 4.00025 10.7662 4.19843 10.2554 4.56671C9.74454 4.93498 9.36254 5.45468 9.16352 6.05216C8.9645 6.64964 8.95854 7.2946 9.1465 7.89565C9.33446 8.4967 9.70681 9.02336 10.2108 9.401L11.0098 10.001V16H13.0098Z" fill="#21272A"/>
</svg>
