<svg width="24" height="24" viewBox="0 0 24 24" fill="none" xmlns="http://www.w3.org/2000/svg">
<path d="M8.93177 17.152C8.04041 16.6196 7.30254 15.865 6.79034 14.9619C6.27815 14.0588 6.00918 13.0382 6.00977 12C6.00935 10.9422 6.28867 9.90317 6.81939 8.98818C7.35012 8.07319 8.11338 7.31483 9.03177 6.79C9.06219 6.77124 9.09704 6.76089 9.13277 6.76C9.28338 6.70801 9.44425 6.69279 9.60194 6.71563C9.75963 6.73846 9.90957 6.79869 10.0392 6.89127C10.1689 6.98385 10.2746 7.10611 10.3474 7.24785C10.4202 7.38958 10.458 7.54667 10.4578 7.706C10.4579 7.89643 10.4037 8.08295 10.3015 8.24363C10.1993 8.4043 10.0533 8.53245 9.88077 8.613C9.30766 8.97298 8.83534 9.4726 8.50809 10.065C8.18084 10.6574 8.00937 11.3232 8.00977 12C8.00977 13.48 8.81377 14.773 10.0098 15.465V15.466C10.2249 15.6045 10.3787 15.8203 10.4396 16.0688C10.5005 16.3173 10.4639 16.5797 10.3371 16.802C10.2104 17.0243 10.0033 17.1896 9.75845 17.2638C9.51358 17.338 9.24957 17.3155 9.02077 17.201C9.00977 17.1964 8.99908 17.191 8.98877 17.185L8.97777 17.178C8.96221 17.1697 8.94687 17.1611 8.93177 17.152ZM15.1768 17.097C15.0677 17.182 14.9422 17.2435 14.8081 17.2776C14.6741 17.3117 14.5344 17.3175 14.398 17.2949C14.2615 17.2722 14.1313 17.2215 14.0154 17.1459C13.8996 17.0703 13.8007 16.9715 13.725 16.8558C13.6493 16.74 13.5984 16.6098 13.5756 16.4734C13.5528 16.337 13.5585 16.1973 13.5924 16.0632C13.6263 15.9292 13.6877 15.8036 13.7726 15.6944C13.8575 15.5852 13.9641 15.4949 14.0858 15.429C14.0921 15.4201 14.0999 15.4123 14.1088 15.406C14.6902 15.0479 15.1702 14.5469 15.5029 13.9506C15.8357 13.3544 16.0102 12.6828 16.0098 12C16.0098 10.52 15.2058 9.227 14.0098 8.535V8.533C13.7907 8.38721 13.6379 8.16095 13.5846 7.90327C13.5312 7.64559 13.5816 7.37726 13.7247 7.15647C13.8679 6.93567 14.0923 6.78021 14.3493 6.72377C14.6064 6.66734 14.8753 6.71449 15.0978 6.855C15.9862 7.38799 16.7215 8.14206 17.2318 9.04374C17.7421 9.94541 18.0102 10.9639 18.0098 12C18.0103 13.0205 17.7504 14.0242 17.2546 14.9161C16.7589 15.808 16.0437 16.5587 15.1768 17.097ZM12.0098 14C11.4793 14 10.9706 13.7893 10.5956 13.4142C10.2205 13.0391 10.0098 12.5304 10.0098 12C10.0098 11.4696 10.2205 10.9609 10.5956 10.5858C10.9706 10.2107 11.4793 10 12.0098 10C12.5402 10 13.0489 10.2107 13.424 10.5858C13.7991 10.9609 14.0098 11.4696 14.0098 12C14.0098 12.5304 13.7991 13.0391 13.424 13.4142C13.0489 13.7893 12.5402 14 12.0098 14ZM14.7688 21.608C14.5091 21.6626 14.2384 21.6119 14.0162 21.4669C13.7939 21.322 13.6384 21.0946 13.5838 20.835C13.5291 20.5754 13.5799 20.3046 13.7248 20.0824C13.8698 19.8602 14.0971 19.7046 14.3568 19.65C15.9972 19.1452 17.4319 18.1264 18.4492 16.744C19.4665 15.3615 20.0124 13.6887 20.0065 11.9724C20.0006 10.256 19.443 8.58701 18.4162 7.21166C17.3894 5.83632 15.9477 4.82747 14.3038 4.334C14.293 4.33027 14.2829 4.32487 14.2738 4.318C14.1428 4.27962 14.0211 4.21485 13.9162 4.12768C13.8112 4.04051 13.7252 3.93278 13.6634 3.81112C13.6016 3.68946 13.5654 3.55644 13.557 3.42026C13.5485 3.28408 13.5681 3.14761 13.6143 3.01926C13.6606 2.8909 13.7326 2.77337 13.826 2.6739C13.9194 2.57443 14.0322 2.49512 14.1574 2.44086C14.2826 2.3866 14.4175 2.35853 14.554 2.35838C14.6904 2.35824 14.8255 2.38601 14.9508 2.44C19.0398 3.696 22.0098 7.5 22.0098 12C22.0098 16.547 18.9758 20.384 14.8218 21.6C14.8045 21.6049 14.7867 21.6076 14.7688 21.608ZM9.15577 21.587C5.02377 20.359 2.00977 16.53 2.00977 12C2.00977 7.479 5.00977 3.658 9.12977 2.421C9.16255 2.40925 9.19593 2.39924 9.22977 2.391L9.23777 2.39C9.31126 2.3733 9.3864 2.36492 9.46177 2.365C9.70475 2.36309 9.94011 2.44972 10.1239 2.60869C10.3076 2.76767 10.4272 2.98812 10.4603 3.22885C10.4934 3.46957 10.4377 3.71411 10.3036 3.91676C10.1695 4.11941 9.96626 4.26631 9.73177 4.33C8.07787 4.82214 6.62731 5.83559 5.5963 7.21927C4.5653 8.60296 4.00907 10.2828 4.01053 12.0084C4.01199 13.7339 4.57107 15.4128 5.60441 16.7947C6.63776 18.1767 8.09004 19.1877 9.74477 19.677C9.87441 19.712 9.99567 19.7728 10.1013 19.8557C10.207 19.9386 10.2948 20.0419 10.3597 20.1595C10.4245 20.2771 10.465 20.4066 10.4787 20.5402C10.4925 20.6738 10.4791 20.8088 10.4396 20.9371C10.4 21.0654 10.335 21.1845 10.2484 21.2871C10.1618 21.3898 10.0555 21.4739 9.93564 21.5346C9.81583 21.5952 9.68503 21.6311 9.55104 21.6401C9.41705 21.6492 9.28262 21.6311 9.15577 21.587Z" fill="#21272A"/>
</svg>
