<svg width="24" height="24" viewBox="0 0 24 24" fill="none" xmlns="http://www.w3.org/2000/svg">
<path d="M7.10377 18.32C8.64294 19.5165 10.5661 20.1098 12.5118 19.9885C14.4576 19.8671 16.2921 19.0394 17.6706 17.6608C19.0491 16.2823 19.8769 14.4478 19.9982 12.5021C20.1196 10.5563 19.5263 8.63317 18.3298 7.094L7.10377 18.32ZM5.68977 16.906L16.9158 5.68C15.3766 4.48347 13.4535 3.89016 11.5077 4.01154C9.56194 4.13291 7.72746 4.96062 6.34893 6.33916C4.97039 7.7177 4.14268 9.55218 4.0213 11.4979C3.89992 13.4437 4.49324 15.3668 5.68977 16.906ZM12.0098 22C6.48677 22 2.00977 17.523 2.00977 12C2.00977 6.477 6.48677 2 12.0098 2C17.5328 2 22.0098 6.477 22.0098 12C22.0098 17.523 17.5328 22 12.0098 22Z" fill="#21272A"/>
</svg>
