<svg width="24" height="24" viewBox="0 0 24 24" fill="none" xmlns="http://www.w3.org/2000/svg">
<path d="M8.00977 6C7.47933 6 6.97062 6.21071 6.59555 6.58579C6.22048 6.96086 6.00977 7.46957 6.00977 8V16C6.00977 16.5304 6.22048 17.0391 6.59555 17.4142C6.97062 17.7893 7.47933 18 8.00977 18H16.0098C16.5402 18 17.0489 17.7893 17.424 17.4142C17.7991 17.0391 18.0098 16.5304 18.0098 16V8C18.0098 7.46957 17.7991 6.96086 17.424 6.58579C17.0489 6.21071 16.5402 6 16.0098 6H8.00977ZM8.00977 4H16.0098C17.0706 4 18.088 4.42143 18.8382 5.17157C19.5883 5.92172 20.0098 6.93913 20.0098 8V16C20.0098 17.0609 19.5883 18.0783 18.8382 18.8284C18.088 19.5786 17.0706 20 16.0098 20H8.00977C6.9489 20 5.93148 19.5786 5.18134 18.8284C4.43119 18.0783 4.00977 17.0609 4.00977 16V8C4.00977 6.93913 4.43119 5.92172 5.18134 5.17157C5.93148 4.42143 6.9489 4 8.00977 4V4Z" fill="#21272A"/>
</svg>
