<svg width="24" height="24" viewBox="0 0 24 24" fill="none" xmlns="http://www.w3.org/2000/svg">
<path d="M8.00977 4H5.00977C4.74455 4 4.4902 4.10536 4.30266 4.29289C4.11513 4.48043 4.00977 4.73478 4.00977 5V7C4.00977 7.26522 4.11513 7.51957 4.30266 7.70711C4.4902 7.89464 4.74455 8 5.00977 8H7.00977C7.27498 8 7.52934 7.89464 7.71688 7.70711C7.90441 7.51957 8.00977 7.26522 8.00977 7V4ZM5.01977 10V19.965H7.00977V15C7.00977 14.4696 7.22048 13.9609 7.59555 13.5858C7.97063 13.2107 8.47934 13 9.00977 13H11.0098C11.5402 13 12.0489 13.2107 12.424 13.5858C12.7991 13.9609 13.0098 14.4696 13.0098 15V19.965H19.0228V10H17.0098C16.2418 10 15.5398 9.711 15.0098 9.236C14.4603 9.72888 13.7479 10.001 13.0098 10H11.0098C10.2418 10 9.53977 9.711 9.00977 9.236C8.46031 9.72888 7.7479 10.001 7.00977 10H5.01977ZM3.01977 9.246C2.70174 8.96469 2.4472 8.61893 2.27307 8.23169C2.09893 7.84445 2.00918 7.42459 2.00977 7V5C2.00977 4.20435 2.32584 3.44129 2.88845 2.87868C3.45106 2.31607 4.21412 2 5.00977 2H19.0098C19.8054 2 20.5685 2.31607 21.1311 2.87868C21.6937 3.44129 22.0098 4.20435 22.0098 5V7C22.0098 7.882 21.6298 8.676 21.0228 9.225V19.965C21.0228 20.4954 20.8121 21.0041 20.437 21.3792C20.0619 21.7543 19.5532 21.965 19.0228 21.965H11.3828C11.2598 21.9883 11.1349 22 11.0098 22H9.00977C8.88462 22 8.75974 21.9883 8.63677 21.965H5.02077C4.49034 21.965 3.98163 21.7543 3.60655 21.3792C3.23148 21.0041 3.02077 20.4954 3.02077 19.965V9.245L3.01977 9.246ZM11.0098 19.966V15H9.00977V19.965H11.0098V19.966ZM14.0098 4H10.0098V7C10.0098 7.26522 10.1151 7.51957 10.3027 7.70711C10.4902 7.89464 10.7446 8 11.0098 8H13.0098C13.275 8 13.5293 7.89464 13.7169 7.70711C13.9044 7.51957 14.0098 7.26522 14.0098 7V4ZM16.0098 4V7C16.0098 7.26522 16.1151 7.51957 16.3027 7.70711C16.4902 7.89464 16.7446 8 17.0098 8H19.0098C19.275 8 19.5293 7.89464 19.7169 7.70711C19.9044 7.51957 20.0098 7.26522 20.0098 7V5C20.0098 4.73478 19.9044 4.48043 19.7169 4.29289C19.5293 4.10536 19.275 4 19.0098 4H16.0098ZM16.0098 13H17.0098C17.275 13 17.5293 13.1054 17.7169 13.2929C17.9044 13.4804 18.0098 13.7348 18.0098 14V17C18.0098 17.2652 17.9044 17.5196 17.7169 17.7071C17.5293 17.8946 17.275 18 17.0098 18H16.0098C15.7446 18 15.4902 17.8946 15.3027 17.7071C15.1151 17.5196 15.0098 17.2652 15.0098 17V14C15.0098 13.7348 15.1151 13.4804 15.3027 13.2929C15.4902 13.1054 15.7446 13 16.0098 13Z" fill="#21272A"/>
</svg>
