<svg width="24" height="24" viewBox="0 0 24 24" fill="none" xmlns="http://www.w3.org/2000/svg">
<path d="M10.6668 10.435H8.15977C8.06001 10.1317 8.00937 9.81432 8.00977 9.495V8.998C8.00977 8.07027 8.3783 7.18054 9.03431 6.52454C9.35913 6.19972 9.74474 5.94206 10.1691 5.76627C10.5935 5.59048 11.0484 5.5 11.5078 5.5H13.0098C13.8054 5.5 14.5685 5.81607 15.1311 6.37868C15.6937 6.94129 16.0098 7.70435 16.0098 8.5C16.0098 8.76522 15.9044 9.01957 15.7169 9.20711C15.5293 9.39464 15.275 9.5 15.0098 9.5C14.7445 9.5 14.4902 9.39464 14.3027 9.20711C14.1151 9.01957 14.0098 8.76522 14.0098 8.5C14.0098 8.23478 13.9044 7.98043 13.7169 7.79289C13.5293 7.60536 13.275 7.5 13.0098 7.5H11.5078C10.6798 7.5 10.0098 8.17 10.0098 8.998V9.495C10.0096 9.70015 10.0726 9.90039 10.1901 10.0685C10.3077 10.2367 10.4741 10.3646 10.6668 10.435ZM15.8528 12.535C15.9548 12.836 16.0098 13.159 16.0098 13.495V14.023C16.0098 14.9587 15.6381 15.856 14.9764 16.5177C14.3148 17.1793 13.4174 17.551 12.4818 17.551H11.0098C10.2141 17.551 9.45105 17.2349 8.88845 16.6723C8.32584 16.1097 8.00977 15.3466 8.00977 14.551V14.5C8.00977 14.2348 8.11512 13.9804 8.30266 13.7929C8.4902 13.6054 8.74455 13.5 9.00977 13.5C9.27498 13.5 9.52934 13.6054 9.71687 13.7929C9.90441 13.9804 10.0098 14.2348 10.0098 14.5V14.55C10.0098 14.8152 10.1151 15.0696 10.3027 15.2571C10.4902 15.4446 10.7445 15.55 11.0098 15.55H12.4818C13.3258 15.55 14.0098 14.867 14.0098 14.023V13.495C14.0098 13.2786 13.9396 13.0681 13.8098 12.895C13.6799 12.7219 13.4975 12.5956 13.2898 12.535H15.8528ZM7.50977 11.01H16.5098C16.6424 11.01 16.7696 11.0627 16.8633 11.1564C16.9571 11.2502 17.0098 11.3774 17.0098 11.51C17.0098 11.6426 16.9571 11.7698 16.8633 11.8636C16.7696 11.9573 16.6424 12.01 16.5098 12.01H7.50977C7.37716 12.01 7.24998 11.9573 7.15621 11.8636C7.06244 11.7698 7.00977 11.6426 7.00977 11.51C7.00977 11.3774 7.06244 11.2502 7.15621 11.1564C7.24998 11.0627 7.37716 11.01 7.50977 11.01Z" fill="#21272A"/>
</svg>
