<svg width="24" height="24" viewBox="0 0 24 24" fill="none" xmlns="http://www.w3.org/2000/svg">
<path d="M15.3978 12.155V13.29C15.3978 13.672 15.0968 13.997 14.7288 13.99C14.5533 13.9832 14.3875 13.9081 14.2668 13.7806C14.1461 13.6532 14.08 13.4835 14.0828 13.308V12.214C14.0835 12.1831 14.0767 12.1524 14.0629 12.1248C14.0491 12.0971 14.0287 12.0732 14.0036 12.0552C13.9785 12.0371 13.9493 12.0255 13.9187 12.0213C13.888 12.0171 13.8568 12.0204 13.8278 12.031L13.2478 12.253C13.2046 12.2697 13.1567 12.2694 13.1138 12.252L12.7678 12.11C12.7386 12.0988 12.7072 12.095 12.6762 12.0988C12.6452 12.1027 12.6157 12.1141 12.5902 12.1321C12.5647 12.1501 12.544 12.1741 12.53 12.202C12.5159 12.2299 12.509 12.2608 12.5098 12.292V13.272C12.5098 14.543 13.4818 15.603 14.7058 15.622C15.9508 15.642 16.9708 14.596 16.9708 13.308V12.155C16.9716 12.109 16.9541 12.0646 16.9223 12.0314C16.8904 11.9983 16.8467 11.979 16.8008 11.978H15.5688C15.5459 11.9784 15.5234 11.9833 15.5024 11.9924C15.4814 12.0015 15.4625 12.0146 15.4466 12.0311C15.4307 12.0475 15.4182 12.0669 15.4099 12.0882C15.4015 12.1094 15.3974 12.1321 15.3978 12.155Z" fill="#21272A"/>
<path d="M12.5498 10.208V10.75C12.5498 10.83 12.5968 10.903 12.6688 10.933L13.1648 11.136C13.208 11.1536 13.2563 11.154 13.2998 11.137L13.9988 10.869C14.0354 10.8543 14.0668 10.8289 14.0887 10.796C14.1107 10.7632 14.1222 10.7245 14.1218 10.685V10.225C14.1218 9.022 13.2018 8.019 12.0418 8C10.8628 7.982 9.89777 8.972 9.89777 10.192V13.339C9.89777 13.721 9.59677 14.046 9.22877 14.039C9.05335 14.0322 8.88754 13.9571 8.76681 13.8296C8.64608 13.7022 8.58003 13.5325 8.58277 13.357V12.204C8.58357 12.158 8.56614 12.1136 8.53429 12.0804C8.50243 12.0473 8.45874 12.028 8.41277 12.027H7.17977C7.15692 12.0274 7.13437 12.0323 7.11341 12.0414C7.09245 12.0505 7.07348 12.0636 7.0576 12.0801C7.04172 12.0965 7.02924 12.1159 7.02086 12.1372C7.01248 12.1584 7.00837 12.1811 7.00877 12.204V13.322C7.00877 14.592 7.98077 15.652 9.20477 15.672C10.4498 15.692 11.4698 14.645 11.4698 13.357V10.192C11.4684 10.1176 11.4821 10.0436 11.5102 9.97467C11.5382 9.9057 11.5799 9.84314 11.6328 9.79079C11.6858 9.73843 11.7488 9.69736 11.818 9.67006C11.8873 9.64277 11.9614 9.62982 12.0358 9.632C12.3258 9.648 12.5478 9.907 12.5478 10.208H12.5498Z" fill="#21272A"/>
<path d="M6.00977 4C5.47933 4 4.97062 4.21071 4.59555 4.58579C4.22048 4.96086 4.00977 5.46957 4.00977 6V18C4.00977 18.5304 4.22048 19.0391 4.59555 19.4142C4.97062 19.7893 5.47933 20 6.00977 20H18.0098C18.5402 20 19.0489 19.7893 19.424 19.4142C19.7991 19.0391 20.0098 18.5304 20.0098 18V6C20.0098 5.46957 19.7991 4.96086 19.424 4.58579C19.0489 4.21071 18.5402 4 18.0098 4H6.00977ZM6.00977 2H18.0098C19.0706 2 20.088 2.42143 20.8382 3.17157C21.5883 3.92172 22.0098 4.93913 22.0098 6V18C22.0098 19.0609 21.5883 20.0783 20.8382 20.8284C20.088 21.5786 19.0706 22 18.0098 22H6.00977C4.9489 22 3.93148 21.5786 3.18134 20.8284C2.43119 20.0783 2.00977 19.0609 2.00977 18V6C2.00977 4.93913 2.43119 3.92172 3.18134 3.17157C3.93148 2.42143 4.9489 2 6.00977 2V2Z" fill="#21272A"/>
</svg>
