<svg width="24" height="24" viewBox="0 0 24 24" fill="none" xmlns="http://www.w3.org/2000/svg">
<path d="M18.8268 12.719V14.927C18.8268 15.67 18.2268 16.303 17.4918 16.29C17.1457 16.2816 16.8167 16.1378 16.5755 15.8895C16.3343 15.6412 16.2001 15.3082 16.2018 14.962V12.833C16.2023 12.772 16.188 12.7119 16.1601 12.6576C16.1323 12.6034 16.0917 12.5567 16.0418 12.5216C15.992 12.4865 15.9344 12.464 15.8739 12.4561C15.8135 12.4481 15.752 12.455 15.6948 12.476L14.5368 12.909C14.4499 12.9416 14.3539 12.9405 14.2678 12.906L13.5778 12.631C13.5204 12.6086 13.4584 12.6006 13.3973 12.6077C13.3361 12.6148 13.2776 12.6368 13.2269 12.6717C13.1762 12.7067 13.1348 12.7535 13.1064 12.8081C13.0779 12.8627 13.0633 12.9234 13.0638 12.985V14.893C13.0638 17.366 15.0038 19.429 17.4448 19.466C19.9308 19.505 21.9648 17.469 21.9648 14.962V12.718C21.965 12.6274 21.9294 12.5403 21.8657 12.4759C21.802 12.4114 21.7154 12.3748 21.6248 12.374H19.1668C19.076 12.3748 18.9892 12.4116 18.9255 12.4762C18.8617 12.5409 18.8262 12.6282 18.8268 12.719Z" fill="#21272A"/>
<path d="M13.0638 8.834V9.89C13.0638 10.047 13.1578 10.187 13.3018 10.245L14.2918 10.64C14.3782 10.6748 14.4746 10.6759 14.5618 10.643L15.9558 10.121C16.0282 10.0936 16.0906 10.0447 16.1345 9.9809C16.1785 9.91712 16.2019 9.84146 16.2018 9.764V8.868C16.2018 6.528 14.3648 4.574 12.0518 4.538C9.69977 4.501 7.77377 6.428 7.77377 8.803V14.927C7.77377 15.67 7.17377 16.303 6.43877 16.29C6.09269 16.2816 5.7637 16.1378 5.52249 15.8895C5.28128 15.6412 5.1471 15.3082 5.14877 14.962V12.719C5.1493 12.6282 5.11381 12.5409 5.05008 12.4762C4.98634 12.4116 4.89957 12.3748 4.80877 12.374H2.34977C2.25898 12.3748 2.1722 12.4116 2.10846 12.4762C2.04473 12.5409 2.00924 12.6282 2.00977 12.719V14.893C2.00977 17.366 3.94977 19.429 6.39077 19.466C8.87677 19.505 10.9108 17.469 10.9108 14.962V8.802C10.9108 8.184 11.4238 7.684 12.0408 7.714C12.6198 7.744 13.0638 8.248 13.0638 8.834Z" fill="#21272A"/>
</svg>
