<svg width="24" height="24" viewBox="0 0 24 24" fill="none" xmlns="http://www.w3.org/2000/svg">
<path d="M12.0098 20C14.1315 20 16.1663 19.1571 17.6666 17.6569C19.1669 16.1566 20.0098 14.1217 20.0098 12C20.0098 9.87827 19.1669 7.84344 17.6666 6.34315C16.1663 4.84285 14.1315 4 12.0098 4C9.88803 4 7.8532 4.84285 6.35291 6.34315C4.85262 7.84344 4.00977 9.87827 4.00977 12C4.00977 14.1217 4.85262 16.1566 6.35291 17.6569C7.8532 19.1571 9.88803 20 12.0098 20ZM12.0098 22C6.48677 22 2.00977 17.523 2.00977 12C2.00977 6.477 6.48677 2 12.0098 2C17.5328 2 22.0098 6.477 22.0098 12C22.0098 17.523 17.5328 22 12.0098 22Z" fill="#21272A"/>
<path d="M15.3978 12.155V13.29C15.3978 13.672 15.0968 13.997 14.7288 13.99C14.5533 13.9832 14.3875 13.9081 14.2668 13.7806C14.1461 13.6532 14.08 13.4835 14.0828 13.308V12.214C14.0835 12.1831 14.0767 12.1524 14.0629 12.1248C14.0491 12.0971 14.0287 12.0732 14.0036 12.0552C13.9785 12.0371 13.9493 12.0255 13.9187 12.0213C13.888 12.0171 13.8568 12.0204 13.8278 12.031L13.2478 12.253C13.2046 12.2697 13.1567 12.2694 13.1138 12.252L12.7678 12.11C12.7386 12.0988 12.7072 12.095 12.6762 12.0988C12.6452 12.1027 12.6157 12.1141 12.5902 12.1321C12.5647 12.1501 12.544 12.1741 12.53 12.202C12.5159 12.2299 12.509 12.2608 12.5098 12.292V13.272C12.5098 14.543 13.4818 15.603 14.7058 15.622C15.9508 15.642 16.9708 14.596 16.9708 13.308V12.155C16.9716 12.109 16.9541 12.0646 16.9223 12.0314C16.8904 11.9983 16.8467 11.979 16.8008 11.978H15.5688C15.5459 11.9784 15.5234 11.9833 15.5024 11.9924C15.4814 12.0015 15.4625 12.0146 15.4466 12.0311C15.4307 12.0475 15.4182 12.0669 15.4099 12.0882C15.4015 12.1094 15.3974 12.1321 15.3978 12.155Z" fill="#21272A"/>
<path d="M12.5498 10.208V10.75C12.5498 10.83 12.5968 10.903 12.6688 10.933L13.1648 11.136C13.208 11.1536 13.2563 11.154 13.2998 11.137L13.9988 10.869C14.0354 10.8543 14.0668 10.8289 14.0887 10.796C14.1107 10.7632 14.1222 10.7245 14.1218 10.685V10.225C14.1218 9.022 13.2018 8.019 12.0418 8C10.8628 7.982 9.89777 8.972 9.89777 10.192V13.339C9.89777 13.721 9.59677 14.046 9.22877 14.039C9.05335 14.0322 8.88754 13.9571 8.76681 13.8296C8.64608 13.7022 8.58003 13.5325 8.58277 13.357V12.204C8.58357 12.158 8.56614 12.1136 8.53429 12.0804C8.50243 12.0473 8.45874 12.028 8.41277 12.027H7.17977C7.15692 12.0274 7.13437 12.0323 7.11341 12.0414C7.09245 12.0505 7.07348 12.0636 7.0576 12.0801C7.04172 12.0965 7.02924 12.1159 7.02086 12.1372C7.01248 12.1584 7.00837 12.1811 7.00877 12.204V13.322C7.00877 14.592 7.98077 15.652 9.20477 15.672C10.4498 15.692 11.4698 14.645 11.4698 13.357V10.192C11.4684 10.1176 11.4821 10.0436 11.5102 9.97467C11.5382 9.9057 11.5799 9.84314 11.6328 9.79079C11.6858 9.73843 11.7488 9.69736 11.818 9.67006C11.8873 9.64277 11.9614 9.62982 12.0358 9.632C12.3258 9.648 12.5478 9.907 12.5478 10.208H12.5498Z" fill="#21272A"/>
</svg>
