<svg width="24" height="24" viewBox="0 0 24 24" fill="none" xmlns="http://www.w3.org/2000/svg">
<path d="M10.9442 9.5L13.7752 12.306C13.8681 12.3977 13.9418 12.5069 13.9921 12.6274C14.0424 12.7478 14.0683 12.877 14.0683 13.0075C14.0683 13.138 14.0424 13.2672 13.9921 13.3876C13.9418 13.5081 13.8681 13.6173 13.7752 13.709C13.5868 13.8951 13.3326 13.9994 13.0677 13.9994C12.8029 13.9994 12.5487 13.8951 12.3602 13.709L9.53023 10.903L6.69723 13.71C6.50877 13.8961 6.25458 14.0004 5.98973 14.0004C5.72488 14.0004 5.4707 13.8961 5.28223 13.71C5.18938 13.6183 5.11566 13.5091 5.06534 13.3886C5.01503 13.2682 4.98912 13.139 4.98912 13.0085C4.98912 12.878 5.01503 12.7488 5.06534 12.6284C5.11566 12.5079 5.18938 12.3987 5.28223 12.307L8.11323 9.5L5.28423 6.694C5.19138 6.60229 5.11766 6.49306 5.06734 6.37264C5.01703 6.25222 4.99112 6.12301 4.99112 5.9925C4.99112 5.86199 5.01703 5.73278 5.06734 5.61236C5.11766 5.49195 5.19138 5.38271 5.28423 5.291C5.4727 5.10492 5.72688 5.00059 5.99173 5.00059C6.25658 5.00059 6.51077 5.10492 6.69923 5.291L9.53023 8.097L12.3602 5.29C12.5487 5.10362 12.8031 4.99909 13.0682 4.99909C13.3333 4.99909 13.5877 5.10362 13.7762 5.29C13.8691 5.38171 13.9428 5.49095 13.9931 5.61136C14.0434 5.73178 14.0693 5.86099 14.0693 5.9915C14.0693 6.12201 14.0434 6.25122 13.9931 6.37164C13.9428 6.49206 13.8691 6.60129 13.7762 6.693L10.9452 9.5H10.9442ZM18.9902 17.352V19H14.0682V17.986L14.1692 17.74L15.9702 15.827C16.4032 15.392 16.7702 15.057 16.9002 14.816C17.0252 14.586 17.0842 14.389 17.0842 14.229C17.0875 14.1685 17.0778 14.108 17.0557 14.0516C17.0336 13.9952 16.9997 13.9442 16.9562 13.902C16.9089 13.8577 16.8529 13.8236 16.7919 13.8018C16.7308 13.7799 16.6659 13.7708 16.6012 13.775C16.5337 13.7727 16.4664 13.7857 16.4046 13.8131C16.3428 13.8404 16.288 13.8814 16.2442 13.933C16.1382 14.05 16.0772 14.221 16.0692 14.458L16.0572 14.796H14.2172L14.2342 14.43C14.2682 13.695 14.5082 13.1 14.9572 12.66C15.4072 12.22 15.9872 12 16.6762 12C17.1032 12 17.4882 12.091 17.8252 12.275C18.1652 12.461 18.4372 12.73 18.6392 13.075C18.8392 13.418 18.9402 13.775 18.9402 14.138C18.9402 14.554 18.7092 14.987 18.4802 15.445C18.2572 15.895 17.9422 16.321 17.4082 17L17.2902 17.123L17.0352 17.352H18.9902Z" fill="#21272A"/>
</svg>
