<svg width="24" height="24" viewBox="0 0 24 24" fill="none" xmlns="http://www.w3.org/2000/svg">
<path d="M15 5C16.0496 5.00046 17.0857 5.23694 18.0315 5.69195C18.9774 6.14697 19.8088 6.80886 20.4642 7.62864C21.1197 8.44843 21.5824 9.40512 21.8181 10.4279C22.0539 11.4507 22.0566 12.5134 21.826 13.5374C21.5955 14.5614 21.1377 15.5204 20.4864 16.3435C19.8351 17.1666 19.0071 17.8327 18.0635 18.2925C17.12 18.7523 16.0852 18.9941 15.0356 18.9999C13.986 19.0057 12.9485 18.7754 12 18.326C10.9331 18.8312 9.75568 19.0584 8.57735 18.9865C7.39903 18.9145 6.25805 18.5457 5.26053 17.9144C4.26301 17.283 3.44137 16.4097 2.87202 15.3755C2.30266 14.3414 2.0041 13.18 2.0041 11.9995C2.0041 10.819 2.30266 9.65763 2.87202 8.62348C3.44137 7.58933 4.26301 6.71597 5.26053 6.08463C6.25805 5.45329 7.39903 5.08449 8.57735 5.01252C9.75568 4.94055 10.9331 5.16775 12 5.673C12.9374 5.22793 13.9623 4.99799 15 5ZM9 7C8.30152 7.00098 7.611 7.1483 6.97293 7.43245C6.33486 7.71661 5.76341 8.1313 5.2954 8.6498C4.8274 9.1683 4.47322 9.77911 4.25569 10.4429C4.03816 11.1066 3.96212 11.8086 4.03245 12.5035C4.10279 13.1984 4.31794 13.8709 4.66405 14.4776C5.01017 15.0843 5.47955 15.6117 6.04196 16.0259C6.60437 16.4402 7.24732 16.7319 7.92939 16.8825C8.61145 17.033 9.31749 17.039 10.002 16.9C8.71649 15.5933 7.99726 13.833 8 12C8 10.093 8.763 8.363 10 7.1C9.6709 7.033 9.33586 6.9995 9 7ZM15 7C13.6739 7 12.4022 7.52678 11.4645 8.46446C10.5268 9.40215 10 10.6739 10 12C10 13.3261 10.5268 14.5978 11.4645 15.5355C12.4022 16.4732 13.6739 17 15 17C16.3261 17 17.5979 16.4732 18.5355 15.5355C19.4732 14.5978 20 13.3261 20 12C20 10.6739 19.4732 9.40215 18.5355 8.46446C17.5979 7.52678 16.3261 7 15 7Z" fill="#21272A"/>
</svg>
