<svg width="24" height="24" viewBox="0 0 24 24" fill="none" xmlns="http://www.w3.org/2000/svg">
<path d="M11.9902 15C12.7859 15 13.5489 14.6839 14.1116 14.1213C14.6742 13.5587 14.9902 12.7956 14.9902 12C14.9902 11.2044 14.6742 10.4413 14.1116 9.87868C13.5489 9.31607 12.7859 9 11.9902 9C11.1946 9 10.4315 9.31607 9.86891 9.87868C9.3063 10.4413 8.99023 11.2044 8.99023 12C8.99023 12.7956 9.3063 13.5587 9.86891 14.1213C10.4315 14.6839 11.1946 15 11.9902 15ZM11.9902 17C10.6642 17 9.39238 16.4732 8.4547 15.5355C7.51702 14.5979 6.99023 13.3261 6.99023 12C6.99023 10.6739 7.51702 9.40215 8.4547 8.46447C9.39238 7.52678 10.6642 7 11.9902 7C13.3163 7 14.5881 7.52678 15.5258 8.46447C16.4635 9.40215 16.9902 10.6739 16.9902 12C16.9902 13.3261 16.4635 14.5979 15.5258 15.5355C14.5881 16.4732 13.3163 17 11.9902 17ZM11.9902 2C12.2555 2 12.5098 2.10536 12.6973 2.29289C12.8849 2.48043 12.9902 2.73478 12.9902 3V5C12.9902 5.26522 12.8849 5.51957 12.6973 5.70711C12.5098 5.89464 12.2555 6 11.9902 6C11.725 6 11.4707 5.89464 11.2831 5.70711C11.0956 5.51957 10.9902 5.26522 10.9902 5V3C10.9902 2.73478 11.0956 2.48043 11.2831 2.29289C11.4707 2.10536 11.725 2 11.9902 2V2ZM11.9902 18C12.2555 18 12.5098 18.1054 12.6973 18.2929C12.8849 18.4804 12.9902 18.7348 12.9902 19V21C12.9902 21.2652 12.8849 21.5196 12.6973 21.7071C12.5098 21.8946 12.2555 22 11.9902 22C11.725 22 11.4707 21.8946 11.2831 21.7071C11.0956 21.5196 10.9902 21.2652 10.9902 21V19C10.9902 18.7348 11.0956 18.4804 11.2831 18.2929C11.4707 18.1054 11.725 18 11.9902 18ZM2.99023 11H4.99023C5.25545 11 5.5098 11.1054 5.69734 11.2929C5.88488 11.4804 5.99023 11.7348 5.99023 12C5.99023 12.2652 5.88488 12.5196 5.69734 12.7071C5.5098 12.8946 5.25545 13 4.99023 13H2.99023C2.72502 13 2.47066 12.8946 2.28313 12.7071C2.09559 12.5196 1.99023 12.2652 1.99023 12C1.99023 11.7348 2.09559 11.4804 2.28313 11.2929C2.47066 11.1054 2.72502 11 2.99023 11ZM18.9902 11H20.9902C21.2555 11 21.5098 11.1054 21.6973 11.2929C21.8849 11.4804 21.9902 11.7348 21.9902 12C21.9902 12.2652 21.8849 12.5196 21.6973 12.7071C21.5098 12.8946 21.2555 13 20.9902 13H18.9902C18.725 13 18.4707 12.8946 18.2831 12.7071C18.0956 12.5196 17.9902 12.2652 17.9902 12C17.9902 11.7348 18.0956 11.4804 18.2831 11.2929C18.4707 11.1054 18.725 11 18.9902 11ZM19.0612 4.929C19.2487 5.11653 19.354 5.37084 19.354 5.636C19.354 5.90116 19.2487 6.15547 19.0612 6.343L17.6472 7.757C17.555 7.85251 17.4446 7.92869 17.3226 7.9811C17.2006 8.03351 17.0694 8.0611 16.9366 8.06225C16.8039 8.0634 16.6722 8.0381 16.5493 7.98782C16.4264 7.93754 16.3147 7.86329 16.2208 7.76939C16.1269 7.6755 16.0527 7.56385 16.0024 7.44095C15.9521 7.31806 15.9268 7.18638 15.928 7.0536C15.9291 6.92082 15.9567 6.7896 16.0091 6.6676C16.0615 6.54559 16.1377 6.43525 16.2332 6.343L17.6472 4.929C17.8348 4.74153 18.0891 4.63621 18.3542 4.63621C18.6194 4.63621 18.8737 4.74153 19.0612 4.929ZM7.74723 16.243C7.93471 16.4305 8.04002 16.6848 8.04002 16.95C8.04002 17.2152 7.93471 17.4695 7.74723 17.657L6.33323 19.07C6.24099 19.1655 6.13064 19.2417 6.00864 19.2941C5.88663 19.3465 5.75541 19.3741 5.62264 19.3752C5.48986 19.3764 5.35818 19.3511 5.23528 19.3008C5.11238 19.2505 5.00073 19.1763 4.90684 19.0824C4.81295 18.9885 4.73869 18.8769 4.68841 18.754C4.63813 18.6311 4.61283 18.4994 4.61398 18.3666C4.61514 18.2338 4.64272 18.1026 4.69513 17.9806C4.74754 17.8586 4.82372 17.7482 4.91923 17.656L6.33323 16.242C6.52076 16.0545 6.77507 15.9492 7.04023 15.9492C7.3054 15.9492 7.55971 16.0545 7.74723 16.242V16.243ZM6.33323 4.929L7.74723 6.343C7.92939 6.5316 8.03019 6.7842 8.02791 7.0464C8.02563 7.3086 7.92046 7.55941 7.73505 7.74482C7.54964 7.93023 7.29883 8.0354 7.03664 8.03767C6.77444 8.03995 6.52184 7.93916 6.33323 7.757L4.92023 6.343C4.74548 6.15313 4.65089 5.90306 4.65624 5.64507C4.66158 5.38708 4.76645 5.14115 4.94892 4.95868C5.13138 4.77621 5.37732 4.67135 5.63531 4.666C5.8933 4.66066 6.14337 4.75525 6.33323 4.93V4.929ZM17.6472 16.243L19.0612 17.657C19.2434 17.8456 19.3442 18.0982 19.3419 18.3604C19.3396 18.6226 19.2345 18.8734 19.0491 19.0588C18.8636 19.2442 18.6128 19.3494 18.3506 19.3517C18.0884 19.354 17.8358 19.2532 17.6472 19.071L16.2332 17.657C16.1377 17.5648 16.0615 17.4544 16.0091 17.3324C15.9567 17.2104 15.9291 17.0792 15.928 16.9464C15.9268 16.8136 15.9521 16.6819 16.0024 16.559C16.0527 16.4361 16.1269 16.3245 16.2208 16.2306C16.3147 16.1367 16.4264 16.0625 16.5493 16.0122C16.6722 15.9619 16.8039 15.9366 16.9366 15.9377C17.0694 15.9389 17.2006 15.9665 17.3226 16.0189C17.4446 16.0713 17.555 16.1475 17.6472 16.243Z" fill="#21272A"/>
</svg>
