<svg width="24" height="24" viewBox="0 0 24 24" fill="none" xmlns="http://www.w3.org/2000/svg">
<path d="M6.69823 10.29L9.53023 13.098L12.3602 10.29C12.5487 10.1036 12.8031 9.99909 13.0682 9.99909C13.3333 9.99909 13.5877 10.1036 13.7762 10.29C13.8691 10.3817 13.9428 10.4909 13.9931 10.6114C14.0434 10.7318 14.0693 10.861 14.0693 10.9915C14.0693 11.122 14.0434 11.2512 13.9931 11.3716C13.9428 11.4921 13.8691 11.6013 13.7762 11.693L10.9452 14.5L13.7752 17.306C13.8681 17.3977 13.9418 17.5069 13.9921 17.6274C14.0424 17.7478 14.0683 17.877 14.0683 18.0075C14.0683 18.138 14.0424 18.2672 13.9921 18.3876C13.9418 18.5081 13.8681 18.6173 13.7752 18.709C13.5868 18.8951 13.3326 18.9994 13.0677 18.9994C12.8029 18.9994 12.5487 18.8951 12.3602 18.709L9.53023 15.903L6.69823 18.709C6.50977 18.8951 6.25558 18.9994 5.99073 18.9994C5.72589 18.9994 5.4717 18.8951 5.28323 18.709C5.19038 18.6173 5.11666 18.5081 5.06635 18.3876C5.01603 18.2672 4.99012 18.138 4.99012 18.0075C4.99012 17.877 5.01603 17.7478 5.06635 17.6274C5.11666 17.5069 5.19038 17.3977 5.28323 17.306L8.11323 14.5L5.28423 11.694C5.19138 11.6023 5.11766 11.4931 5.06735 11.3726C5.01703 11.2522 4.99112 11.123 4.99112 10.9925C4.99112 10.862 5.01703 10.7328 5.06735 10.6124C5.11766 10.4919 5.19138 10.3827 5.28423 10.291C5.4727 10.1049 5.72689 10.0006 5.99173 10.0006C6.25658 10.0006 6.51077 10.1049 6.69923 10.291L6.69823 10.29ZM16.6762 5C17.1032 5 17.4882 5.091 17.8252 5.275C18.1652 5.461 18.4372 5.73 18.6392 6.075C18.8392 6.418 18.9402 6.775 18.9402 7.138C18.9402 7.554 18.7092 7.987 18.4802 8.445C18.2572 8.895 17.9422 9.321 17.4082 10L17.2902 10.123L17.0352 10.352H18.9902V12H14.0682V10.986L14.1692 10.74L15.9702 8.827C16.4032 8.392 16.7702 8.057 16.9002 7.816C17.0252 7.586 17.0842 7.389 17.0842 7.229C17.0875 7.16851 17.0778 7.10803 17.0557 7.05163C17.0336 6.99522 16.9997 6.9442 16.9562 6.902C16.9089 6.85772 16.8529 6.82361 16.7919 6.80177C16.7308 6.77993 16.6659 6.77082 16.6012 6.775C16.5337 6.77269 16.4664 6.7857 16.4046 6.81307C16.3428 6.84043 16.288 6.88143 16.2442 6.933C16.1382 7.05 16.0772 7.221 16.0692 7.458L16.0572 7.796H14.2172L14.2342 7.43C14.2682 6.695 14.5082 6.1 14.9572 5.66C15.4072 5.22 15.9872 5 16.6762 5V5Z" fill="#21272A"/>
</svg>
