<svg width="24" height="24" viewBox="0 0 24 24" fill="none" xmlns="http://www.w3.org/2000/svg">
<path d="M8.99023 7C7.66415 7 6.39238 7.52678 5.4547 8.46447C4.51702 9.40215 3.99023 10.6739 3.99023 12C3.99023 13.3261 4.51702 14.5979 5.4547 15.5355C6.39238 16.4732 7.66415 17 8.99023 17H14.9902C16.3163 17 17.5881 16.4732 18.5258 15.5355C19.4634 14.5979 19.9902 13.3261 19.9902 12C19.9902 10.6739 19.4634 9.40215 18.5258 8.46447C17.5881 7.52678 16.3163 7 14.9902 7H8.99023ZM8.99023 5H14.9902C16.8468 5 18.6272 5.7375 19.94 7.05025C21.2527 8.36301 21.9902 10.1435 21.9902 12C21.9902 13.8565 21.2527 15.637 19.94 16.9497C18.6272 18.2625 16.8468 19 14.9902 19H8.99023C7.13372 19 5.35324 18.2625 4.04049 16.9497C2.72773 15.637 1.99023 13.8565 1.99023 12C1.99023 10.1435 2.72773 8.36301 4.04049 7.05025C5.35324 5.7375 7.13372 5 8.99023 5V5ZM14.9902 16C13.9294 16 12.912 15.5786 12.1618 14.8284C11.4117 14.0783 10.9902 13.0609 10.9902 12C10.9902 10.9391 11.4117 9.92172 12.1618 9.17157C12.912 8.42143 13.9294 8 14.9902 8C16.0511 8 17.0685 8.42143 17.8187 9.17157C18.5688 9.92172 18.9902 10.9391 18.9902 12C18.9902 13.0609 18.5688 14.0783 17.8187 14.8284C17.0685 15.5786 16.0511 16 14.9902 16ZM14.9902 14C15.5207 14 16.0294 13.7893 16.4044 13.4142C16.7795 13.0391 16.9902 12.5304 16.9902 12C16.9902 11.4696 16.7795 10.9609 16.4044 10.5858C16.0294 10.2107 15.5207 10 14.9902 10C14.4598 10 13.9511 10.2107 13.576 10.5858C13.2009 10.9609 12.9902 11.4696 12.9902 12C12.9902 12.5304 13.2009 13.0391 13.576 13.4142C13.9511 13.7893 14.4598 14 14.9902 14Z" fill="#21272A"/>
</svg>
