<svg width="24" height="24" viewBox="0 0 24 24" fill="none" xmlns="http://www.w3.org/2000/svg">
<path d="M8.99023 7C7.66415 7 6.39238 7.52678 5.4547 8.46447C4.51702 9.40215 3.99023 10.6739 3.99023 12C3.99023 13.3261 4.51702 14.5979 5.4547 15.5355C6.39238 16.4732 7.66415 17 8.99023 17H14.9902C16.3163 17 17.5881 16.4732 18.5258 15.5355C19.4634 14.5979 19.9902 13.3261 19.9902 12C19.9902 10.6739 19.4634 9.40215 18.5258 8.46447C17.5881 7.52678 16.3163 7 14.9902 7H8.99023ZM8.99023 5H14.9902C16.8468 5 18.6272 5.7375 19.94 7.05025C21.2527 8.36301 21.9902 10.1435 21.9902 12C21.9902 13.8565 21.2527 15.637 19.94 16.9497C18.6272 18.2625 16.8468 19 14.9902 19H8.99023C7.13372 19 5.35324 18.2625 4.04049 16.9497C2.72773 15.637 1.99023 13.8565 1.99023 12C1.99023 10.1435 2.72773 8.36301 4.04049 7.05025C5.35324 5.7375 7.13372 5 8.99023 5V5ZM8.99023 16C7.92937 16 6.91195 15.5786 6.16181 14.8284C5.41166 14.0783 4.99023 13.0609 4.99023 12C4.99023 10.9391 5.41166 9.92172 6.16181 9.17157C6.91195 8.42143 7.92937 8 8.99023 8C10.0511 8 11.0685 8.42143 11.8187 9.17157C12.5688 9.92172 12.9902 10.9391 12.9902 12C12.9902 13.0609 12.5688 14.0783 11.8187 14.8284C11.0685 15.5786 10.0511 16 8.99023 16ZM8.99023 14C9.52067 14 10.0294 13.7893 10.4044 13.4142C10.7795 13.0391 10.9902 12.5304 10.9902 12C10.9902 11.4696 10.7795 10.9609 10.4044 10.5858C10.0294 10.2107 9.52067 10 8.99023 10C8.4598 10 7.95109 10.2107 7.57602 10.5858C7.20095 10.9609 6.99023 11.4696 6.99023 12C6.99023 12.5304 7.20095 13.0391 7.57602 13.4142C7.95109 13.7893 8.4598 14 8.99023 14Z" fill="#21272A"/>
</svg>
