<svg width="24" height="24" viewBox="0 0 24 24" fill="none" xmlns="http://www.w3.org/2000/svg">
<path d="M9.26824 13.228L10.6822 14.642L19.1182 6.207L18.8822 5.028L17.7042 4.792L9.26824 13.228ZM6.44024 18.885C6.6224 19.0736 6.72319 19.3262 6.72091 19.5884C6.71863 19.8506 6.61346 20.1014 6.42806 20.2868C6.24265 20.4722 5.99184 20.5774 5.72964 20.5797C5.46744 20.582 5.21484 20.4812 5.02624 20.299L3.61024 18.885C3.42273 18.6974 3.31744 18.4429 3.31754 18.1776C3.31763 17.9124 3.4231 17.658 3.61074 17.4705C3.79838 17.283 4.05282 17.1777 4.31809 17.1778C4.58336 17.1779 4.83773 17.2834 5.02524 17.471L7.85324 14.642L6.43924 13.228C6.25708 13.0394 6.15629 12.7868 6.15856 12.5246C6.16084 12.2624 6.26601 12.0116 6.45142 11.8262C6.63683 11.6408 6.88764 11.5356 7.14984 11.5333C7.41203 11.5311 7.66464 11.6318 7.85324 11.814L17.0462 2.62L20.5822 3.327L21.2892 6.863L12.0972 16.055C12.2849 16.2426 12.3903 16.4971 12.3903 16.7625C12.3903 17.0279 12.2849 17.2824 12.0972 17.47C11.9096 17.6576 11.6551 17.7631 11.3897 17.7631C11.1244 17.7631 10.8699 17.6576 10.6822 17.47L9.26824 16.055L6.44024 18.884V18.885Z" fill="#21272A"/>
</svg>
