<svg width="24" height="24" viewBox="0 0 24 24" fill="none" xmlns="http://www.w3.org/2000/svg">
<path d="M19.9902 8V9H12.9902V6H5.99023C5.4598 6 4.95109 6.21071 4.57602 6.58579C4.20095 6.96086 3.99023 7.46957 3.99023 8V16C3.99023 16.5304 4.20095 17.0391 4.57602 17.4142C4.95109 17.7893 5.4598 18 5.99023 18H17.9902C18.5207 18 19.0294 17.7893 19.4044 17.4142C19.7795 17.0391 19.9902 16.5304 19.9902 16V8ZM5.99023 4H17.9902C19.0511 4 20.0685 4.42143 20.8187 5.17157C21.5688 5.92172 21.9902 6.93913 21.9902 8V16C21.9902 17.0609 21.5688 18.0783 20.8187 18.8284C20.0685 19.5786 19.0511 20 17.9902 20H5.99023C4.92937 20 3.91195 19.5786 3.16181 18.8284C2.41166 18.0783 1.99023 17.0609 1.99023 16V8C1.99023 6.93913 2.41166 5.92172 3.16181 5.17157C3.91195 4.42143 4.92937 4 5.99023 4V4Z" fill="#21272A"/>
</svg>
