<svg width="24" height="24" viewBox="0 0 24 24" fill="none" xmlns="http://www.w3.org/2000/svg">
<path d="M6.99023 11H10.9902V7H6.99023V11ZM6.99023 13V17H10.9902V13H6.99023ZM16.9902 11V7H12.9902V11H16.9902ZM16.9902 13H12.9902V17H16.9902V13ZM6.99023 5H16.9902C17.5207 5 18.0294 5.21071 18.4044 5.58579C18.7795 5.96086 18.9902 6.46957 18.9902 7V17C18.9902 17.5304 18.7795 18.0391 18.4044 18.4142C18.0294 18.7893 17.5207 19 16.9902 19H6.99023C6.4598 19 5.95109 18.7893 5.57602 18.4142C5.20095 18.0391 4.99023 17.5304 4.99023 17V7C4.99023 6.46957 5.20095 5.96086 5.57602 5.58579C5.95109 5.21071 6.4598 5 6.99023 5V5Z" fill="#21272A"/>
</svg>
