<svg width="24" height="24" viewBox="0 0 24 24" fill="none" xmlns="http://www.w3.org/2000/svg">
<path d="M17.0098 13V7H16.0098C15.7445 7 15.4902 6.89464 15.3027 6.70711C15.1151 6.51957 15.0098 6.26522 15.0098 6C15.0098 5.73478 15.1151 5.48043 15.3027 5.29289C15.4902 5.10536 15.7445 5 16.0098 5H17.0098C17.5402 5 18.0489 5.21071 18.424 5.58579C18.7991 5.96086 19.0098 6.46957 19.0098 7V17C19.0098 17.5304 18.7991 18.0391 18.424 18.4142C18.0489 18.7893 17.5402 19 17.0098 19H7.00977C6.47933 19 5.97062 18.7893 5.59555 18.4142C5.22048 18.0391 5.00977 17.5304 5.00977 17V7C5.00977 6.46957 5.22048 5.96086 5.59555 5.58579C5.97062 5.21071 6.47933 5 7.00977 5H8.00977C8.27498 5 8.52934 5.10536 8.71687 5.29289C8.90441 5.48043 9.00977 5.73478 9.00977 6C9.00977 6.26522 8.90441 6.51957 8.71687 6.70711C8.52934 6.89464 8.27498 7 8.00977 7H7.00977V13H17.0098ZM17.0098 15H15.0098V17H17.0098V15ZM13.0098 17V15H11.0098V17H13.0098ZM9.00977 17V15H7.00977V17H9.00977ZM11.0098 8V7C11.0098 6.73478 11.1151 6.48043 11.3027 6.29289C11.4902 6.10536 11.7445 6 12.0098 6C12.275 6 12.5293 6.10536 12.7169 6.29289C12.9044 6.48043 13.0098 6.73478 13.0098 7V8H14.0098C14.275 8 14.5293 8.10536 14.7169 8.29289C14.9044 8.48043 15.0098 8.73478 15.0098 9C15.0098 9.26522 14.9044 9.51957 14.7169 9.70711C14.5293 9.89464 14.275 10 14.0098 10H13.0098V11C13.0098 11.2652 12.9044 11.5196 12.7169 11.7071C12.5293 11.8946 12.275 12 12.0098 12C11.7445 12 11.4902 11.8946 11.3027 11.7071C11.1151 11.5196 11.0098 11.2652 11.0098 11V10H10.0098C9.74455 10 9.4902 9.89464 9.30266 9.70711C9.11512 9.51957 9.00977 9.26522 9.00977 9C9.00977 8.73478 9.11512 8.48043 9.30266 8.29289C9.4902 8.10536 9.74455 8 10.0098 8H11.0098Z" fill="#21272A"/>
</svg>
