<svg width="24" height="24" viewBox="0 0 24 24" fill="none" xmlns="http://www.w3.org/2000/svg">
<path d="M15.0098 7H7.00977V17H15.0098V7ZM17.0098 5C17.5402 5 18.0489 5.21071 18.424 5.58579C18.7991 5.96086 19.0098 6.46957 19.0098 7V17C19.0098 17.5304 18.7991 18.0391 18.424 18.4142C18.0489 18.7893 17.5402 19 17.0098 19H7.00977C6.47933 19 5.97062 18.7893 5.59555 18.4142C5.22048 18.0391 5.00977 17.5304 5.00977 17V7C5.00977 6.46957 5.22048 5.96086 5.59555 5.58579C5.97062 5.21071 6.47933 5 7.00977 5H17.0098Z" fill="#21272A"/>
</svg>
