<svg width="24" height="24" viewBox="0 0 24 24" fill="none" xmlns="http://www.w3.org/2000/svg">
<path d="M13.0098 17V7H7.00977V8C7.00977 8.26522 6.90441 8.51957 6.71687 8.70711C6.52934 8.89464 6.27498 9 6.00977 9C5.74455 9 5.4902 8.89464 5.30266 8.70711C5.11512 8.51957 5.00977 8.26522 5.00977 8V7C5.00977 6.46957 5.22048 5.96086 5.59555 5.58579C5.97062 5.21071 6.47933 5 7.00977 5H17.0098C17.5402 5 18.0489 5.21071 18.424 5.58579C18.7991 5.96086 19.0098 6.46957 19.0098 7V17C19.0098 17.5304 18.7991 18.0391 18.424 18.4142C18.0489 18.7893 17.5402 19 17.0098 19H7.00977C6.47933 19 5.97062 18.7893 5.59555 18.4142C5.22048 18.0391 5.00977 17.5304 5.00977 17V16C5.00977 15.7348 5.11512 15.4804 5.30266 15.2929C5.4902 15.1054 5.74455 15 6.00977 15C6.27498 15 6.52934 15.1054 6.71687 15.2929C6.90441 15.4804 7.00977 15.7348 7.00977 16V17H13.0098ZM15.0098 17H17.0098V15H15.0098V17ZM17.0098 13V11H15.0098V13H17.0098ZM17.0098 9V7H15.0098V9H17.0098ZM8.00977 11V10C8.00977 9.73478 8.11512 9.48043 8.30266 9.29289C8.4902 9.10536 8.74455 9 9.00977 9C9.27498 9 9.52934 9.10536 9.71687 9.29289C9.90441 9.48043 10.0098 9.73478 10.0098 10V11H11.0098C11.275 11 11.5293 11.1054 11.7169 11.2929C11.9044 11.4804 12.0098 11.7348 12.0098 12C12.0098 12.2652 11.9044 12.5196 11.7169 12.7071C11.5293 12.8946 11.275 13 11.0098 13H10.0098V14C10.0098 14.2652 9.90441 14.5196 9.71687 14.7071C9.52934 14.8946 9.27498 15 9.00977 15C8.74455 15 8.4902 14.8946 8.30266 14.7071C8.11512 14.5196 8.00977 14.2652 8.00977 14V13H7.00977C6.74455 13 6.4902 12.8946 6.30266 12.7071C6.11512 12.5196 6.00977 12.2652 6.00977 12C6.00977 11.7348 6.11512 11.4804 6.30266 11.2929C6.4902 11.1054 6.74455 11 7.00977 11H8.00977Z" fill="#21272A"/>
</svg>
