<svg width="24" height="24" viewBox="0 0 24 24" fill="none" xmlns="http://www.w3.org/2000/svg">
<path d="M7.00977 5H17.0098C17.5402 5 18.0489 5.21071 18.424 5.58579C18.7991 5.96086 19.0098 6.46957 19.0098 7V17C19.0098 17.5304 18.7991 18.0391 18.424 18.4142C18.0489 18.7893 17.5402 19 17.0098 19H7.00977C6.47933 19 5.97062 18.7893 5.59555 18.4142C5.22048 18.0391 5.00977 17.5304 5.00977 17V7C5.00977 6.46957 5.22048 5.96086 5.59555 5.58579C5.97062 5.21071 6.47933 5 7.00977 5V5ZM7.00977 9V17H17.0098V9H7.00977ZM12.0098 14.414L10.5958 15.828C10.5035 15.9235 10.3932 15.9997 10.2712 16.0521C10.1492 16.1045 10.0179 16.1321 9.88517 16.1333C9.75239 16.1344 9.62071 16.1091 9.49781 16.0588C9.37492 16.0085 9.26326 15.9343 9.16937 15.8404C9.07548 15.7465 9.00122 15.6349 8.95094 15.512C8.90066 15.3891 8.87536 15.2574 8.87652 15.1246C8.87767 14.9918 8.90526 14.8606 8.95766 14.7386C9.01007 14.6166 9.08626 14.5062 9.18177 14.414L10.5958 13L9.18177 11.586C9.08626 11.4938 9.01007 11.3834 8.95766 11.2614C8.90526 11.1394 8.87767 11.0082 8.87652 10.8754C8.87536 10.7426 8.90066 10.6109 8.95094 10.488C9.00122 10.3651 9.07548 10.2535 9.16937 10.1596C9.26326 10.0657 9.37492 9.99146 9.49781 9.94118C9.62071 9.8909 9.75239 9.8656 9.88517 9.86675C10.0179 9.8679 10.1492 9.89549 10.2712 9.9479C10.3932 10.0003 10.5035 10.0765 10.5958 10.172L12.0098 11.586L13.4238 10.172C13.516 10.0765 13.6264 10.0003 13.7484 9.9479C13.8704 9.89549 14.0016 9.8679 14.1344 9.86675C14.2671 9.8656 14.3988 9.8909 14.5217 9.94118C14.6446 9.99146 14.7563 10.0657 14.8502 10.1596C14.9441 10.2535 15.0183 10.3651 15.0686 10.488C15.1189 10.6109 15.1442 10.7426 15.143 10.8754C15.1419 11.0082 15.1143 11.1394 15.0619 11.2614C15.0095 11.3834 14.9333 11.4938 14.8378 11.586L13.4238 13L14.8378 14.414C15.0199 14.6026 15.1207 14.8552 15.1184 15.1174C15.1162 15.3796 15.011 15.6304 14.8256 15.8158C14.6402 16.0012 14.3894 16.1064 14.1272 16.1087C13.865 16.111 13.6124 16.0102 13.4238 15.828L12.0098 14.414Z" fill="#21272A"/>
</svg>
