<svg width="24" height="24" viewBox="0 0 24 24" fill="none" xmlns="http://www.w3.org/2000/svg">
<path d="M7.00977 11V17H8.00977C8.27498 17 8.52934 17.1054 8.71687 17.2929C8.90441 17.4804 9.00977 17.7348 9.00977 18C9.00977 18.2652 8.90441 18.5196 8.71687 18.7071C8.52934 18.8946 8.27498 19 8.00977 19H7.00977C6.47933 19 5.97062 18.7893 5.59555 18.4142C5.22048 18.0391 5.00977 17.5304 5.00977 17V7C5.00977 6.46957 5.22048 5.96086 5.59555 5.58579C5.97062 5.21071 6.47933 5 7.00977 5H17.0098C17.5402 5 18.0489 5.21071 18.424 5.58579C18.7991 5.96086 19.0098 6.46957 19.0098 7V17C19.0098 17.5304 18.7991 18.0391 18.424 18.4142C18.0489 18.7893 17.5402 19 17.0098 19H16.0098C15.7445 19 15.4902 18.8946 15.3027 18.7071C15.1151 18.5196 15.0098 18.2652 15.0098 18C15.0098 17.7348 15.1151 17.4804 15.3027 17.2929C15.4902 17.1054 15.7445 17 16.0098 17H17.0098V11H7.00977ZM7.00977 9H9.00977V7H7.00977V9ZM11.0098 7V9H13.0098V7H11.0098ZM15.0098 7V9H17.0098V7H15.0098ZM13.0098 16V17C13.0098 17.2652 12.9044 17.5196 12.7169 17.7071C12.5293 17.8946 12.275 18 12.0098 18C11.7445 18 11.4902 17.8946 11.3027 17.7071C11.1151 17.5196 11.0098 17.2652 11.0098 17V16H10.0098C9.74455 16 9.4902 15.8946 9.30266 15.7071C9.11512 15.5196 9.00977 15.2652 9.00977 15C9.00977 14.7348 9.11512 14.4804 9.30266 14.2929C9.4902 14.1054 9.74455 14 10.0098 14H11.0098V13C11.0098 12.7348 11.1151 12.4804 11.3027 12.2929C11.4902 12.1054 11.7445 12 12.0098 12C12.275 12 12.5293 12.1054 12.7169 12.2929C12.9044 12.4804 13.0098 12.7348 13.0098 13V14H14.0098C14.275 14 14.5293 14.1054 14.7169 14.2929C14.9044 14.4804 15.0098 14.7348 15.0098 15C15.0098 15.2652 14.9044 15.5196 14.7169 15.7071C14.5293 15.8946 14.275 16 14.0098 16H13.0098Z" fill="#21272A"/>
</svg>
