<svg width="24" height="24" viewBox="0 0 24 24" fill="none" xmlns="http://www.w3.org/2000/svg">
<path d="M17.0098 5C17.5402 5 18.0489 5.21071 18.424 5.58579C18.7991 5.96086 19.0098 6.46957 19.0098 7V8C19.0098 8.26522 18.9044 8.51957 18.7169 8.70711C18.5293 8.89464 18.275 9 18.0098 9C17.7445 9 17.4902 8.89464 17.3027 8.70711C17.1151 8.51957 17.0098 8.26522 17.0098 8V7H11.0098V17H17.0098V16C17.0098 15.7348 17.1151 15.4804 17.3027 15.2929C17.4902 15.1054 17.7445 15 18.0098 15C18.275 15 18.5293 15.1054 18.7169 15.2929C18.9044 15.4804 19.0098 15.7348 19.0098 16V17C19.0098 17.5304 18.7991 18.0391 18.424 18.4142C18.0489 18.7893 17.5402 19 17.0098 19H7.00977C6.47933 19 5.97062 18.7893 5.59555 18.4142C5.22048 18.0391 5.00977 17.5304 5.00977 17V7C5.00977 6.46957 5.22048 5.96086 5.59555 5.58579C5.97062 5.21071 6.47933 5 7.00977 5H17.0098ZM9.00977 15H7.00977V17H9.00977V15ZM15.0098 9C15.275 9 15.5293 9.10536 15.7169 9.29289C15.9044 9.48043 16.0098 9.73478 16.0098 10V11H17.0098C17.275 11 17.5293 11.1054 17.7169 11.2929C17.9044 11.4804 18.0098 11.7348 18.0098 12C18.0098 12.2652 17.9044 12.5196 17.7169 12.7071C17.5293 12.8946 17.275 13 17.0098 13H16.0098V14C16.0098 14.2652 15.9044 14.5196 15.7169 14.7071C15.5293 14.8946 15.275 15 15.0098 15C14.7445 15 14.4902 14.8946 14.3027 14.7071C14.1151 14.5196 14.0098 14.2652 14.0098 14V13H13.0098C12.7445 13 12.4902 12.8946 12.3027 12.7071C12.1151 12.5196 12.0098 12.2652 12.0098 12C12.0098 11.7348 12.1151 11.4804 12.3027 11.2929C12.4902 11.1054 12.7445 11 13.0098 11H14.0098V10C14.0098 9.73478 14.1151 9.48043 14.3027 9.29289C14.4902 9.10536 14.7445 9 15.0098 9ZM9.00977 11H7.00977V13H9.00977V11ZM9.00977 7H7.00977V9H9.00977V7Z" fill="#21272A"/>
</svg>
