<svg width="24" height="24" viewBox="0 0 24 24" fill="none" xmlns="http://www.w3.org/2000/svg">
<path d="M18.5238 2.372L21.9718 5.819C22.2415 6.08886 22.4284 6.43024 22.5105 6.80287C22.5925 7.1755 22.5662 7.56381 22.4348 7.922L20.6718 12.734C20.6217 12.8704 20.5426 12.9943 20.4398 13.097L12.1168 21.42C11.931 21.6058 11.7105 21.7532 11.4678 21.8538C11.2251 21.9543 10.965 22.0061 10.7023 22.0061C10.4396 22.0061 10.1794 21.9543 9.93671 21.8538C9.69401 21.7532 9.4735 21.6058 9.28777 21.42L2.92377 15.056C2.54883 14.6809 2.3382 14.1723 2.3382 13.642C2.3382 13.1117 2.54883 12.6031 2.92377 12.228L11.2568 3.895C11.3598 3.79209 11.484 3.71291 11.6208 3.663L16.4228 1.908C16.7808 1.77707 17.1687 1.75119 17.541 1.8334C17.9132 1.9156 18.2542 2.10247 18.5238 2.372ZM12.5148 5.466L4.33777 13.642L10.7018 20.006L18.8698 11.839L20.5568 7.234L17.1098 3.786L12.5148 5.466ZM15.2988 9.046C15.1531 8.90826 15.0365 8.74271 14.9559 8.55914C14.8752 8.37557 14.8323 8.1777 14.8294 7.97722C14.8266 7.77675 14.864 7.57774 14.9394 7.39197C15.0147 7.20619 15.1266 7.03741 15.2684 6.8956C15.4101 6.7538 15.5788 6.64185 15.7646 6.56637C15.9503 6.49089 16.1493 6.45341 16.3498 6.45615C16.5502 6.45889 16.7481 6.5018 16.9317 6.58233C17.1154 6.66285 17.281 6.77938 17.4188 6.925C17.6837 7.20935 17.828 7.58544 17.8211 7.97405C17.8143 8.36265 17.6568 8.73342 17.382 9.00824C17.1072 9.28307 16.7364 9.44049 16.3478 9.44735C15.9592 9.45421 15.5831 9.30996 15.2988 9.045V9.046Z" fill="#21272A"/>
</svg>
