<svg width="24" height="24" viewBox="0 0 24 24" fill="none" xmlns="http://www.w3.org/2000/svg">
<g clip-path="url(#clip0_105_32318)">
<path d="M11.5958 18.071L13.0098 16.657L14.4238 18.071L20.5888 11.906L21.6788 8.354L19.1948 5.871L18.1158 6.207L16.5178 4.609L18.6008 3.96C18.9489 3.85182 19.32 3.84085 19.6739 3.92827C20.0278 4.01569 20.3511 4.19817 20.6088 4.456L23.0918 6.939C23.3485 7.19576 23.5305 7.51757 23.6182 7.86991C23.706 8.22225 23.6961 8.59183 23.5898 8.939L22.3548 12.97L14.4248 20.9L11.5948 18.072L11.5958 18.071ZM14.2458 3.75L16.7278 6.233C16.9845 6.48976 17.1665 6.81157 17.2542 7.16391C17.342 7.51625 17.3321 7.88583 17.2258 8.233L15.9908 12.261L8.06077 20.192L0.280769 12.414L8.17977 4.516L12.2368 3.254C12.5849 3.14582 12.956 3.13485 13.3099 3.22227C13.6638 3.30969 13.9871 3.49217 14.2448 3.75H14.2458ZM3.10977 12.414L8.05977 17.364L14.2238 11.199L15.3138 7.647L12.8298 5.164L9.24477 6.279L3.10977 12.414ZM10.5338 9.939C10.3905 9.80063 10.2762 9.63511 10.1976 9.45211C10.119 9.2691 10.0776 9.07227 10.0759 8.8731C10.0742 8.67393 10.1121 8.47641 10.1875 8.29207C10.263 8.10772 10.3743 7.94025 10.5152 7.79941C10.656 7.65857 10.8235 7.54719 11.0078 7.47177C11.1922 7.39635 11.3897 7.35839 11.5889 7.36012C11.788 7.36186 11.9849 7.40323 12.1679 7.48185C12.3509 7.56046 12.5164 7.67473 12.6548 7.818C12.9232 8.10171 13.0705 8.47895 13.0651 8.86952C13.0598 9.26008 12.9023 9.63316 12.6262 9.90942C12.35 10.1857 11.977 10.3433 11.5865 10.3489C11.1959 10.3544 10.8186 10.2073 10.5348 9.939H10.5338ZM17.4198 10.961L18.2018 8.083C18.6518 8.235 18.9568 8.408 19.1188 8.601C19.3744 8.90575 19.4985 9.29956 19.4638 9.69581C19.4291 10.0921 19.2385 10.4583 18.9338 10.714C18.6438 10.958 18.1388 11.04 17.4198 10.961Z" fill="#21272A"/>
</g>
<defs>
<clipPath id="clip0_105_32318">
<rect width="24" height="24" fill="white" transform="translate(0.00976562)"/>
</clipPath>
</defs>
</svg>
