<svg width="24" height="24" viewBox="0 0 24 24" fill="none" xmlns="http://www.w3.org/2000/svg">
<path d="M12.0098 22C6.48677 22 2.00977 17.523 2.00977 12C2.00977 6.477 6.48677 2 12.0098 2C17.5328 2 22.0098 6.477 22.0098 12C22.0098 17.523 17.5328 22 12.0098 22ZM12.0098 20C14.1315 20 16.1663 19.1571 17.6666 17.6569C19.1669 16.1566 20.0098 14.1217 20.0098 12C20.0098 9.87827 19.1669 7.84344 17.6666 6.34315C16.1663 4.84285 14.1315 4 12.0098 4C9.88803 4 7.8532 4.84285 6.35291 6.34315C4.85262 7.84344 4.00977 9.87827 4.00977 12C4.00977 14.1217 4.85262 16.1566 6.35291 17.6569C7.8532 19.1571 9.88803 20 12.0098 20ZM12.0098 19C11.0905 19 10.1803 18.8189 9.33098 18.4672C8.4817 18.1154 7.71003 17.5998 7.06002 16.9497C6.41001 16.2997 5.89439 15.5281 5.54261 14.6788C5.19083 13.8295 5.00977 12.9193 5.00977 12C5.00977 11.0807 5.19083 10.1705 5.54261 9.32122C5.89439 8.47194 6.41001 7.70026 7.06002 7.05025C7.71003 6.40024 8.4817 5.88463 9.33098 5.53284C10.1803 5.18106 11.0905 5 12.0098 5C13.8663 5 15.6468 5.7375 16.9595 7.05025C18.2723 8.36301 19.0098 10.1435 19.0098 12C19.0098 13.8565 18.2723 15.637 16.9595 16.9497C15.6468 18.2625 13.8663 19 12.0098 19ZM12.0098 17C13.3358 17 14.6076 16.4732 15.5453 15.5355C16.483 14.5979 17.0098 13.3261 17.0098 12C17.0098 10.6739 16.483 9.40215 15.5453 8.46447C14.6076 7.52678 13.3358 7 12.0098 7C10.6837 7 9.41191 7.52678 8.47423 8.46447C7.53655 9.40215 7.00977 10.6739 7.00977 12C7.00977 13.3261 7.53655 14.5979 8.47423 15.5355C9.41191 16.4732 10.6837 17 12.0098 17ZM12.0098 16C10.9489 16 9.93148 15.5786 9.18134 14.8284C8.43119 14.0783 8.00977 13.0609 8.00977 12C8.00977 10.9391 8.43119 9.92172 9.18134 9.17157C9.93148 8.42143 10.9489 8 12.0098 8C13.0706 8 14.088 8.42143 14.8382 9.17157C15.5883 9.92172 16.0098 10.9391 16.0098 12C16.0098 13.0609 15.5883 14.0783 14.8382 14.8284C14.088 15.5786 13.0706 16 12.0098 16ZM12.0098 14C12.5402 14 13.0489 13.7893 13.424 13.4142C13.7991 13.0391 14.0098 12.5304 14.0098 12C14.0098 11.4696 13.7991 10.9609 13.424 10.5858C13.0489 10.2107 12.5402 10 12.0098 10C11.4793 10 10.9706 10.2107 10.5956 10.5858C10.2205 10.9609 10.0098 11.4696 10.0098 12C10.0098 12.5304 10.2205 13.0391 10.5956 13.4142C10.9706 13.7893 11.4793 14 12.0098 14ZM12.0098 13C11.7445 13 11.4902 12.8946 11.3027 12.7071C11.1151 12.5196 11.0098 12.2652 11.0098 12C11.0098 11.7348 11.1151 11.4804 11.3027 11.2929C11.4902 11.1054 11.7445 11 12.0098 11C12.275 11 12.5293 11.1054 12.7169 11.2929C12.9044 11.4804 13.0098 11.7348 13.0098 12C13.0098 12.2652 12.9044 12.5196 12.7169 12.7071C12.5293 12.8946 12.275 13 12.0098 13Z" fill="#21272A"/>
</svg>
