<svg width="24" height="24" viewBox="0 0 24 24" fill="none" xmlns="http://www.w3.org/2000/svg">
<path d="M8.00977 2H16.0098C17.6011 2 19.1272 2.63214 20.2524 3.75736C21.3776 4.88258 22.0098 6.4087 22.0098 8V16C22.0098 17.5913 21.3776 19.1174 20.2524 20.2426C19.1272 21.3679 17.6011 22 16.0098 22H8.00977C6.41847 22 4.89234 21.3679 3.76712 20.2426C2.64191 19.1174 2.00977 17.5913 2.00977 16L2.00977 8C2.00977 6.4087 2.64191 4.88258 3.76712 3.75736C4.89234 2.63214 6.41847 2 8.00977 2V2ZM8.00977 4C6.9489 4 5.93148 4.42143 5.18134 5.17157C4.43119 5.92172 4.00977 6.93913 4.00977 8V16C4.00977 17.0609 4.43119 18.0783 5.18134 18.8284C5.93148 19.5786 6.9489 20 8.00977 20H16.0098C17.0706 20 18.088 19.5786 18.8382 18.8284C19.5883 18.0783 20.0098 17.0609 20.0098 16V8C20.0098 6.93913 19.5883 5.92172 18.8382 5.17157C18.088 4.42143 17.0706 4 16.0098 4H8.00977ZM14.0098 11H17.0098C17.275 11 17.5293 11.1054 17.7169 11.2929C17.9044 11.4804 18.0098 11.7348 18.0098 12C18.0098 12.2652 17.9044 12.5196 17.7169 12.7071C17.5293 12.8946 17.275 13 17.0098 13H14.0098C13.7445 13 13.4902 12.8946 13.3027 12.7071C13.1151 12.5196 13.0098 12.2652 13.0098 12C13.0098 11.7348 13.1151 11.4804 13.3027 11.2929C13.4902 11.1054 13.7445 11 14.0098 11ZM12.0098 15H17.0098C17.275 15 17.5293 15.1054 17.7169 15.2929C17.9044 15.4804 18.0098 15.7348 18.0098 16C18.0098 16.2652 17.9044 16.5196 17.7169 16.7071C17.5293 16.8946 17.275 17 17.0098 17H12.0098C11.7445 17 11.4902 16.8946 11.3027 16.7071C11.1151 16.5196 11.0098 16.2652 11.0098 16C11.0098 15.7348 11.1151 15.4804 11.3027 15.2929C11.4902 15.1054 11.7445 15 12.0098 15ZM12.0098 7H17.0098C17.275 7 17.5293 7.10536 17.7169 7.29289C17.9044 7.48043 18.0098 7.73478 18.0098 8C18.0098 8.26522 17.9044 8.51957 17.7169 8.70711C17.5293 8.89464 17.275 9 17.0098 9H12.0098C11.7445 9 11.4902 8.89464 11.3027 8.70711C11.1151 8.51957 11.0098 8.26522 11.0098 8C11.0098 7.73478 11.1151 7.48043 11.3027 7.29289C11.4902 7.10536 11.7445 7 12.0098 7ZM7.83777 12.243L9.95977 10.12C10.0527 10.0272 10.163 9.95352 10.2843 9.9033C10.4057 9.85308 10.5358 9.82725 10.6671 9.8273C10.7985 9.82734 10.9285 9.85326 11.0499 9.90357C11.1712 9.95388 11.2814 10.0276 11.3743 10.1205C11.4671 10.2134 11.5407 10.3237 11.591 10.4451C11.6412 10.5664 11.667 10.6965 11.667 10.8279C11.6669 10.9592 11.641 11.0893 11.5907 11.2106C11.5404 11.3319 11.4667 11.4422 11.3738 11.535L8.54577 14.363C8.45289 14.456 8.3426 14.5297 8.22121 14.5801C8.09981 14.6304 7.96968 14.6563 7.83827 14.6563C7.70685 14.6563 7.57672 14.6304 7.45533 14.5801C7.33393 14.5297 7.22364 14.456 7.13077 14.363L5.71677 12.95C5.53461 12.7614 5.43381 12.5088 5.43609 12.2466C5.43837 11.9844 5.54354 11.7336 5.72895 11.5482C5.91436 11.3628 6.16517 11.2576 6.42736 11.2553C6.68956 11.253 6.94216 11.3538 7.13077 11.536L7.83777 12.243Z" fill="#21272A"/>
</svg>
