<svg width="24" height="24" viewBox="0 0 24 24" fill="none" xmlns="http://www.w3.org/2000/svg">
<path d="M11.0098 17H16.0098C16.275 17 16.5293 16.8946 16.7169 16.7071C16.9044 16.5196 17.0098 16.2652 17.0098 16V11H11.0098V17ZM9.00977 17V11H7.00977V16C7.00977 16.2652 7.11512 16.5196 7.30266 16.7071C7.4902 16.8946 7.74455 17 8.00977 17H9.00977ZM17.0098 8C17.0098 7.73478 16.9044 7.48043 16.7169 7.29289C16.5293 7.10536 16.275 7 16.0098 7H8.00977C7.74455 7 7.4902 7.10536 7.30266 7.29289C7.11512 7.48043 7.00977 7.73478 7.00977 8V9H17.0098V8ZM8.00977 5H16.0098C16.8054 5 17.5685 5.31607 18.1311 5.87868C18.6937 6.44129 19.0098 7.20435 19.0098 8V16C19.0098 16.7956 18.6937 17.5587 18.1311 18.1213C17.5685 18.6839 16.8054 19 16.0098 19H8.00977C7.21412 19 6.45105 18.6839 5.88845 18.1213C5.32584 17.5587 5.00977 16.7956 5.00977 16V8C5.00977 7.20435 5.32584 6.44129 5.88845 5.87868C6.45105 5.31607 7.21412 5 8.00977 5V5Z" fill="#21272A"/>
</svg>
