<svg width="24" height="24" viewBox="0 0 24 24" fill="none" xmlns="http://www.w3.org/2000/svg">
<path d="M9.243 12.071L4.293 7.121C4.19749 7.02875 4.12131 6.91841 4.0689 6.7964C4.01649 6.6744 3.98891 6.54318 3.98775 6.4104C3.9866 6.27762 4.0119 6.14594 4.06218 6.02305C4.11246 5.90015 4.18672 5.7885 4.28061 5.69461C4.3745 5.60071 4.48615 5.52646 4.60905 5.47618C4.73195 5.4259 4.86363 5.4006 4.99641 5.40175C5.12919 5.4029 5.26041 5.43049 5.38241 5.4829C5.50441 5.53531 5.61476 5.61149 5.707 5.707L11.364 11.364C11.5515 11.5515 11.6568 11.8058 11.6568 12.071C11.6568 12.3362 11.5515 12.5905 11.364 12.778L5.707 18.435C5.5184 18.6172 5.2658 18.718 5.0036 18.7157C4.74141 18.7134 4.49059 18.6082 4.30519 18.4228C4.11978 18.2374 4.01461 17.9866 4.01233 17.7244C4.01005 17.4622 4.11085 17.2096 4.293 17.021L9.243 12.071ZM10.929 17H18.929C19.1942 17 19.4486 17.1054 19.6361 17.2929C19.8236 17.4804 19.929 17.7348 19.929 18C19.929 18.2652 19.8236 18.5196 19.6361 18.7071C19.4486 18.8946 19.1942 19 18.929 19H10.929C10.6638 19 10.4094 18.8946 10.2219 18.7071C10.0344 18.5196 9.929 18.2652 9.929 18C9.929 17.7348 10.0344 17.4804 10.2219 17.2929C10.4094 17.1054 10.6638 17 10.929 17Z" fill="#21272A"/>
</svg>
