<svg width="24" height="24" viewBox="0 0 24 24" fill="none" xmlns="http://www.w3.org/2000/svg">
<path d="M18.0098 7V9C18.0098 9.26522 17.9044 9.51957 17.7169 9.70711C17.5293 9.89464 17.275 10 17.0098 10C16.7445 10 16.4902 9.89464 16.3027 9.70711C16.1151 9.51957 16.0098 9.26522 16.0098 9V8H13.0098V16H14.0098C14.275 16 14.5293 16.1054 14.7169 16.2929C14.9044 16.4804 15.0098 16.7348 15.0098 17C15.0098 17.2652 14.9044 17.5196 14.7169 17.7071C14.5293 17.8946 14.275 18 14.0098 18H10.0098C9.74455 18 9.4902 17.8946 9.30266 17.7071C9.11512 17.5196 9.00977 17.2652 9.00977 17C9.00977 16.7348 9.11512 16.4804 9.30266 16.2929C9.4902 16.1054 9.74455 16 10.0098 16H11.0098V8H8.00977V9C8.00977 9.26522 7.90441 9.51957 7.71687 9.70711C7.52934 9.89464 7.27498 10 7.00977 10C6.74455 10 6.4902 9.89464 6.30266 9.70711C6.11512 9.51957 6.00977 9.26522 6.00977 9V7C6.00977 6.73478 6.11512 6.48043 6.30266 6.29289C6.4902 6.10536 6.74455 6 7.00977 6H17.0098C17.275 6 17.5293 6.10536 17.7169 6.29289C17.9044 6.48043 18.0098 6.73478 18.0098 7Z" fill="#21272A"/>
</svg>
