<svg width="24" height="24" viewBox="0 0 24 24" fill="none" xmlns="http://www.w3.org/2000/svg">
<path d="M14.997 8.968H12.708V5C12.708 4.73478 12.6026 4.48043 12.4151 4.29289C12.2276 4.10536 11.9732 4 11.708 4H9C8.73478 4 8.48043 4.10536 8.29289 4.29289C8.10536 4.48043 8 4.73478 8 5V10.923C7.99985 11.1824 8.10053 11.4318 8.28077 11.6184C8.46102 11.8049 8.70672 11.9142 8.966 11.923L10.903 11.984V19.388C10.9034 19.5142 10.9472 19.6363 11.0271 19.734C11.107 19.8316 11.2181 19.8988 11.3417 19.9241C11.4653 19.9495 11.5938 19.9315 11.7057 19.8732C11.8176 19.8149 11.906 19.7198 11.956 19.604L15.916 10.362C15.9812 10.2098 16.0077 10.0438 15.9929 9.87893C15.9782 9.71402 15.9227 9.55536 15.8315 9.41717C15.7403 9.27899 15.6162 9.16561 15.4704 9.08721C15.3246 9.00882 15.1616 8.96785 14.996 8.968H14.997ZM14.708 5V6.968H14.997C15.4933 6.96813 15.9818 7.09138 16.4188 7.32673C16.8558 7.56208 17.2275 7.90216 17.5007 8.3165C17.774 8.73084 17.9401 9.20649 17.9843 9.70084C18.0285 10.1952 17.9494 10.6928 17.754 11.149L13.794 20.392C13.5624 20.931 13.152 21.3737 12.632 21.6453C12.1119 21.9168 11.5141 22.0007 10.9394 21.8827C10.3648 21.7648 9.84835 21.4522 9.47736 20.9977C9.10637 20.5432 8.90351 19.9747 8.903 19.388V13.922C8.12446 13.8968 7.38623 13.5698 6.84446 13.0101C6.30269 12.4504 5.99985 11.702 6 10.923V5C6 4.20435 6.31607 3.44129 6.87868 2.87868C7.44129 2.31607 8.20435 2 9 2H11.708C12.5036 2 13.2667 2.31607 13.8293 2.87868C14.3919 3.44129 14.708 4.20435 14.708 5Z" fill="#21272A"/>
</svg>
