<svg width="24" height="24" viewBox="0 0 24 24" fill="none" xmlns="http://www.w3.org/2000/svg">
<path d="M16.0098 11H14.0098C13.7445 11 13.4902 10.8946 13.3027 10.7071C13.1151 10.5196 13.0098 10.2652 13.0098 10C13.0098 9.73478 13.1151 9.48043 13.3027 9.29289C13.4902 9.10536 13.7445 9 14.0098 9H16.0098V4.001C15.5442 4.62216 14.9403 5.12635 14.246 5.47361C13.5517 5.82087 12.7861 6.00167 12.0098 6.00167C11.2335 6.00167 10.4678 5.82087 9.77355 5.47361C9.07926 5.12635 8.47538 4.62216 8.00977 4.001V9H10.0098C10.275 9 10.5293 9.10536 10.7169 9.29289C10.9044 9.48043 11.0098 9.73478 11.0098 10C11.0098 10.2652 10.9044 10.5196 10.7169 10.7071C10.5293 10.8946 10.275 11 10.0098 11H8.00977V19.999C8.47538 19.3778 9.07926 18.8737 9.77355 18.5264C10.4678 18.1791 11.2335 17.9983 12.0098 17.9983C12.7861 17.9983 13.5517 18.1791 14.246 18.5264C14.9403 18.8737 15.5442 19.3778 16.0098 19.999V11ZM6.00977 22V2H9.17977C9.38637 2.58553 9.7695 3.09257 10.2764 3.45121C10.7832 3.80985 11.3889 4.00245 12.0098 4.00245C12.6307 4.00245 13.2363 3.80985 13.7432 3.45121C14.25 3.09257 14.6332 2.58553 14.8398 2H18.0098V22H14.8398C14.6332 21.4145 14.25 20.9074 13.7432 20.5488C13.2363 20.1901 12.6307 19.9975 12.0098 19.9975C11.3889 19.9975 10.7832 20.1901 10.2764 20.5488C9.7695 20.9074 9.38637 21.4145 9.17977 22H6.00977Z" fill="#21272A"/>
</svg>
