<svg width="24" height="24" viewBox="0 0 24 24" fill="none" xmlns="http://www.w3.org/2000/svg">
<g clip-path="url(#clip0_105_32302)">
<path d="M2.00976 9.654L4.82276 12.476L11.1548 6.126L8.34076 3.303L2.00876 9.653L2.00976 9.654ZM6.45076 17.782L8.56076 15.665C8.65304 15.5722 8.76274 15.4986 8.88355 15.4484C9.00437 15.3982 9.13392 15.3723 9.26476 15.3723C9.39561 15.3723 9.52516 15.3982 9.64597 15.4484C9.76679 15.4986 9.87649 15.5722 9.96876 15.665C10.1553 15.8524 10.2601 16.1061 10.2601 16.3705C10.2601 16.6349 10.1553 16.8886 9.96876 17.076L7.85876 19.193C8.04532 19.3804 8.15005 19.6341 8.15005 19.8985C8.15005 20.1629 8.04532 20.4166 7.85876 20.604L6.44976 22.015C6.3575 22.1076 6.24787 22.1811 6.12714 22.2312C6.00642 22.2814 5.87698 22.3072 5.74626 22.3072C5.61554 22.3072 5.4861 22.2814 5.36538 22.2312C5.24466 22.1811 5.13502 22.1076 5.04276 22.015L3.63576 20.605C3.4489 20.4176 3.34397 20.1637 3.34397 19.899C3.34397 19.6343 3.4489 19.3804 3.63576 19.193L5.04276 17.782C5.13502 17.6894 5.24466 17.6159 5.36538 17.5658C5.4861 17.5156 5.61554 17.4898 5.74626 17.4898C5.87698 17.4898 6.00642 17.5156 6.12714 17.5658C6.24787 17.6159 6.3575 17.6894 6.44976 17.782H6.45076ZM15.5968 11.432L21.9278 5.082L20.5208 3.67L14.1898 10.02C13.4128 9.24 13.2778 8.113 13.8878 7.5L19.4158 1.956C20.0258 1.344 21.1508 1.479 21.9278 2.259L23.3348 3.669C24.1128 4.449 24.2478 5.578 23.6368 6.189L18.1088 11.734C17.4988 12.346 16.3738 12.211 15.5968 11.431V11.432ZM14.6728 15.298L9.74776 10.36L9.04376 11.066L13.9688 16.005L14.6728 15.299V15.298ZM16.0798 16.71L15.3758 17.415L17.1348 19.179C17.3288 19.374 17.6448 19.374 17.8378 19.179C17.9309 19.0853 17.9832 18.9586 17.9832 18.8265C17.9832 18.6944 17.9309 18.5677 17.8378 18.474L16.0798 16.71ZM2.06976 6.77C1.93655 6.49065 1.89301 6.17694 1.94511 5.87187C1.99721 5.5668 2.1424 5.28531 2.36076 5.066L3.76776 3.656C3.98566 3.43709 4.2662 3.2913 4.57058 3.23881C4.87496 3.18632 5.18813 3.22972 5.46676 3.363L6.93376 1.892C7.11828 1.70678 7.33755 1.55981 7.579 1.45953C7.82045 1.35925 8.07932 1.30762 8.34076 1.30762C8.60221 1.30762 8.86108 1.35925 9.10253 1.45953C9.34398 1.55981 9.56325 1.70678 9.74776 1.892L12.5618 4.715C12.9349 5.08981 13.1443 5.59714 13.1443 6.126C13.1443 6.65486 12.9349 7.16219 12.5618 7.537L11.1548 8.948L19.2448 17.062C19.7113 17.5305 19.9732 18.1648 19.9732 18.826C19.9732 19.4872 19.7113 20.1215 19.2448 20.59C19.0142 20.8215 18.7401 21.0052 18.4383 21.1306C18.1366 21.2559 17.813 21.3204 17.4863 21.3204C17.1595 21.3204 16.8359 21.2559 16.5342 21.1306C16.2324 21.0052 15.9584 20.8215 15.7278 20.59L7.63776 12.476L6.22976 13.887C5.45276 14.667 4.19276 14.667 3.41576 13.887L0.601762 11.065C0.228347 10.6902 0.0186844 10.1826 0.0186844 9.6535C0.0186844 9.1244 0.228347 8.61685 0.601762 8.242L2.06876 6.772L2.06976 6.77Z" fill="#21272A"/>
</g>
<defs>
<clipPath id="clip0_105_32302">
<rect width="24" height="24" fill="white" transform="translate(0.00976562)"/>
</clipPath>
</defs>
</svg>
