<svg width="24" height="24" viewBox="0 0 24 24" fill="none" xmlns="http://www.w3.org/2000/svg">
<path d="M10.0098 11V12L11.2598 12.43L11.8618 20.863C11.8618 20.9023 11.8774 20.9399 11.9051 20.9677C11.9329 20.9954 11.9705 21.011 12.0098 21.011C12.049 21.011 12.0867 20.9954 12.1144 20.9677C12.1422 20.9399 12.1578 20.9023 12.1578 20.863L12.7598 12.43L14.0098 12V11H10.0098ZM8.54477 9C8.19322 8.39216 8.00864 7.70218 8.00977 7C8.00977 5.527 9.34277 3.527 12.0098 1C14.6768 3.527 16.0098 5.527 16.0098 7C16.0098 7.729 15.8148 8.412 15.4748 9H16.0098V12C16.0099 12.4167 15.8798 12.823 15.6378 13.1622C15.3958 13.5014 15.0538 13.7566 14.6598 13.892L14.1518 21.005C14.1113 21.5454 13.8681 22.0505 13.4708 22.4191C13.0736 22.7877 12.5517 22.9926 12.0098 22.9926C11.4679 22.9926 10.946 22.7877 10.5487 22.4191C10.1515 22.0505 9.90824 21.5454 9.86777 21.005L9.35877 13.892C8.96487 13.7564 8.62315 13.5012 8.38131 13.162C8.13947 12.8228 8.00958 12.4166 8.00977 12V9H8.54477ZM10.6748 5.505C10.2058 6.205 10.0098 6.719 10.0098 7C10.0098 7.53043 10.2205 8.03914 10.5956 8.41421C10.9706 8.78929 11.4793 9 12.0098 9C12.5402 9 13.0489 8.78929 13.424 8.41421C13.7991 8.03914 14.0098 7.53043 14.0098 7C14.0098 6.719 13.8128 6.205 13.3458 5.505C13.0128 5.005 12.5668 4.449 12.0098 3.842C11.523 4.36176 11.0764 4.91769 10.6738 5.505H10.6748Z" fill="#21272A"/>
</svg>
