<svg width="24" height="24" viewBox="0 0 24 24" fill="none" xmlns="http://www.w3.org/2000/svg">
<path d="M10.0098 20H14.0098V5C14.0098 4.73478 13.9044 4.48043 13.7169 4.29289C13.5293 4.10536 13.275 4 13.0098 4H11.0098C10.7445 4 10.4902 4.10536 10.3027 4.29289C10.1151 4.48043 10.0098 4.73478 10.0098 5V20ZM16.0098 20.268C16.3138 20.4435 16.5663 20.696 16.7418 21C16.9173 21.3041 17.0098 21.6489 17.0098 22H7.00977C7.00977 21.6489 7.10219 21.3041 7.27773 21C7.45326 20.696 7.70573 20.4435 8.00977 20.268V5C8.00977 4.20435 8.32584 3.44129 8.88845 2.87868C9.45105 2.31607 10.2141 2 11.0098 2H13.0098C13.8054 2 14.5685 2.31607 15.1311 2.87868C15.6937 3.44129 16.0098 4.20435 16.0098 5V20.268ZM11.0098 11H13.0098V13H11.0098V11ZM12.0098 7C11.7445 7 11.4902 6.89464 11.3027 6.70711C11.1151 6.51957 11.0098 6.26522 11.0098 6C11.0098 5.73478 11.1151 5.48043 11.3027 5.29289C11.4902 5.10536 11.7445 5 12.0098 5C12.275 5 12.5293 5.10536 12.7169 5.29289C12.9044 5.48043 13.0098 5.73478 13.0098 6C13.0098 6.26522 12.9044 6.51957 12.7169 6.70711C12.5293 6.89464 12.275 7 12.0098 7ZM3.29577 8H20.7288C20.8808 8 21.0308 8.03466 21.1674 8.10134C21.304 8.16801 21.4236 8.26495 21.5171 8.38479C21.6106 8.50462 21.6756 8.6442 21.7071 8.79291C21.7385 8.94162 21.7357 9.09555 21.6988 9.243L20.3888 14.485C20.2806 14.9177 20.0309 15.3018 19.6794 15.5763C19.3279 15.8508 18.8948 15.9999 18.4488 16H5.59777C5.15301 16.0002 4.7209 15.8521 4.36973 15.5791C4.01857 15.3062 3.7684 14.924 3.65877 14.493L2.32677 9.246C2.28931 9.09843 2.28605 8.94426 2.31722 8.79524C2.3484 8.64622 2.41319 8.50628 2.50665 8.3861C2.60011 8.26592 2.71978 8.16867 2.85654 8.10176C2.99329 8.03484 3.14352 8.00004 3.29577 8ZM4.58177 10L5.59877 14H18.4488L19.4488 10H4.58077H4.58177Z" fill="#21272A"/>
</svg>
