<svg width="24" height="24" viewBox="0 0 24 24" fill="none" xmlns="http://www.w3.org/2000/svg">
<path d="M8.00977 17H16.0098C16.5402 17 17.0489 16.7893 17.424 16.4142C17.7991 16.0391 18.0098 15.5304 18.0098 15V13H6.00977V15C6.00977 15.5304 6.22048 16.0391 6.59555 16.4142C6.97062 16.7893 7.47933 17 8.00977 17ZM16.8228 18.917C17.0174 19.2191 17.127 19.5681 17.14 19.9272C17.1531 20.2864 17.0692 20.6424 16.8971 20.9579C16.725 21.2733 16.471 21.5366 16.162 21.72C15.8529 21.9034 15.5001 22.0001 15.1408 22H8.87977C8.52039 22.0001 8.16763 21.9034 7.85857 21.72C7.54951 21.5366 7.29558 21.2733 7.12346 20.9579C6.95135 20.6424 6.86742 20.2864 6.88049 19.9272C6.89357 19.5681 7.00317 19.2191 7.19777 18.917C6.29708 18.7301 5.48831 18.2385 4.90764 17.5251C4.32698 16.8116 4.00989 15.9199 4.00977 15V6C4.00977 4.93913 4.43119 3.92172 5.18134 3.17157C5.93148 2.42143 6.9489 2 8.00977 2H16.0098C17.0706 2 18.088 2.42143 18.8382 3.17157C19.5883 3.92172 20.0098 4.93913 20.0098 6V15C20.0097 15.9197 19.6927 16.8114 19.1123 17.5248C18.5318 18.2382 17.7233 18.7299 16.8228 18.917ZM18.0098 11V6C18.0098 5.46957 17.7991 4.96086 17.424 4.58579C17.0489 4.21071 16.5402 4 16.0098 4H8.00977C7.47933 4 6.97062 4.21071 6.59555 4.58579C6.22048 4.96086 6.00977 5.46957 6.00977 6V11H18.0098ZM16.0098 5C16.275 5 16.5293 5.10536 16.7169 5.29289C16.9044 5.48043 17.0098 5.73478 17.0098 6V9C17.0098 9.26522 16.9044 9.51957 16.7169 9.70711C16.5293 9.89464 16.275 10 16.0098 10C15.7445 10 15.4902 9.89464 15.3027 9.70711C15.1151 9.51957 15.0098 9.26522 15.0098 9V6C15.0098 5.73478 15.1151 5.48043 15.3027 5.29289C15.4902 5.10536 15.7445 5 16.0098 5ZM8.00977 16C7.74455 16 7.4902 15.8946 7.30266 15.7071C7.11512 15.5196 7.00977 15.2652 7.00977 15C7.00977 14.7348 7.11512 14.4804 7.30266 14.2929C7.4902 14.1054 7.74455 14 8.00977 14C8.27498 14 8.52934 14.1054 8.71687 14.2929C8.90441 14.4804 9.00977 14.7348 9.00977 15C9.00977 15.2652 8.90441 15.5196 8.71687 15.7071C8.52934 15.8946 8.27498 16 8.00977 16ZM16.0098 16C15.7445 16 15.4902 15.8946 15.3027 15.7071C15.1151 15.5196 15.0098 15.2652 15.0098 15C15.0098 14.7348 15.1151 14.4804 15.3027 14.2929C15.4902 14.1054 15.7445 14 16.0098 14C16.275 14 16.5293 14.1054 16.7169 14.2929C16.9044 14.4804 17.0098 14.7348 17.0098 15C17.0098 15.2652 16.9044 15.5196 16.7169 15.7071C16.5293 15.8946 16.275 16 16.0098 16ZM8.87877 20H15.1408L14.4748 19H9.54477L8.87877 20Z" fill="#21272A"/>
</svg>
