<svg width="24" height="24" viewBox="0 0 24 24" fill="none" xmlns="http://www.w3.org/2000/svg">
<path d="M10.0098 15.5C11.3358 15.5 12.6076 14.9732 13.5453 14.0355C14.483 13.0978 15.0098 11.8261 15.0098 10.5C15.0098 9.17392 14.483 7.90215 13.5453 6.96446C12.6076 6.02678 11.3358 5.5 10.0098 5.5C8.68368 5.5 7.41191 6.02678 6.47423 6.96446C5.53655 7.90215 5.00976 9.17392 5.00976 10.5C5.00976 11.8261 5.53655 13.0978 6.47423 14.0355C7.41191 14.9732 8.68368 15.5 10.0098 15.5ZM16.0228 6.914C16.613 7.90392 16.9497 9.02422 17.003 10.1755C17.0564 11.3268 16.8247 12.4734 16.3286 13.5137C15.8325 14.5539 15.0873 15.4557 14.1591 16.1389C13.231 16.822 12.1485 17.2655 11.0078 17.43L11.0098 17.5V18.5H12.0098C12.275 18.5 12.5293 18.6054 12.7169 18.7929C12.9044 18.9804 13.0098 19.2348 13.0098 19.5C13.0098 19.7652 12.9044 20.0196 12.7169 20.2071C12.5293 20.3946 12.275 20.5 12.0098 20.5H11.0098V21.5C11.0098 21.7652 10.9044 22.0196 10.7169 22.2071C10.5293 22.3946 10.275 22.5 10.0098 22.5C9.74455 22.5 9.49019 22.3946 9.30266 22.2071C9.11512 22.0196 9.00976 21.7652 9.00976 21.5V20.5H8.00976C7.74455 20.5 7.49019 20.3946 7.30266 20.2071C7.11512 20.0196 7.00976 19.7652 7.00976 19.5C7.00976 19.2348 7.11512 18.9804 7.30266 18.7929C7.49019 18.6054 7.74455 18.5 8.00976 18.5H9.00976V17.5C9.00976 17.476 9.00976 17.453 9.01176 17.43C7.26297 17.1738 5.67578 16.2656 4.56869 14.8878C3.46159 13.5101 2.91651 11.7646 3.04282 10.0016C3.16912 8.23866 3.95747 6.5887 5.24967 5.38281C6.54186 4.17692 8.2423 3.50433 10.0098 3.5C11.7684 3.49785 13.463 4.15963 14.7548 5.353L16.6048 3.503H15.0198C14.7545 3.503 14.5002 3.39764 14.3127 3.21011C14.1251 3.02257 14.0198 2.76821 14.0198 2.503C14.0198 2.23778 14.1251 1.98343 14.3127 1.79589C14.5002 1.60836 14.7545 1.503 15.0198 1.503H19.0198C19.285 1.503 19.5393 1.60836 19.7269 1.79589C19.9144 1.98343 20.0198 2.23778 20.0198 2.503V6.503C20.0198 6.76821 19.9144 7.02257 19.7269 7.21011C19.5393 7.39764 19.285 7.503 19.0198 7.503C18.7545 7.503 18.5002 7.39764 18.3127 7.21011C18.1251 7.02257 18.0198 6.76821 18.0198 6.503V4.917L16.0238 6.914H16.0228Z" fill="#21272A"/>
</svg>
