<svg width="24" height="24" viewBox="0 0 24 24" fill="none" xmlns="http://www.w3.org/2000/svg">
<path d="M18.8428 7L18.1148 20.11C18.0866 20.6206 17.864 21.1011 17.4926 21.4526C17.1211 21.8041 16.6292 22 16.1178 22H7.90177C7.39037 22 6.8984 21.8041 6.52698 21.4526C6.15555 21.1011 5.93289 20.6206 5.90477 20.11L5.17677 7H5.00977C4.74455 7 4.4902 6.89464 4.30266 6.70711C4.11512 6.51957 4.00977 6.26522 4.00977 6V3C4.00977 2.73478 4.11512 2.48043 4.30266 2.29289C4.4902 2.10536 4.74455 2 5.00977 2H19.0098C19.275 2 19.5293 2.10536 19.7169 2.29289C19.9044 2.48043 20.0098 2.73478 20.0098 3V6C20.0098 6.26522 19.9044 6.51957 19.7169 6.70711C19.5293 6.89464 19.275 7 19.0098 7H18.8428ZM16.8398 7H7.17977L7.90177 20H16.1178L16.8398 7ZM6.00977 4V5H18.0098V4H6.00977ZM10.0098 9C10.275 9 10.5293 9.10536 10.7169 9.29289C10.9044 9.48043 11.0098 9.73478 11.0098 10V17C11.0098 17.2652 10.9044 17.5196 10.7169 17.7071C10.5293 17.8946 10.275 18 10.0098 18C9.74455 18 9.4902 17.8946 9.30266 17.7071C9.11512 17.5196 9.00977 17.2652 9.00977 17V10C9.00977 9.73478 9.11512 9.48043 9.30266 9.29289C9.4902 9.10536 9.74455 9 10.0098 9ZM14.0098 9C14.275 9 14.5293 9.10536 14.7169 9.29289C14.9044 9.48043 15.0098 9.73478 15.0098 10V17C15.0098 17.2652 14.9044 17.5196 14.7169 17.7071C14.5293 17.8946 14.275 18 14.0098 18C13.7445 18 13.4902 17.8946 13.3027 17.7071C13.1151 17.5196 13.0098 17.2652 13.0098 17V10C13.0098 9.73478 13.1151 9.48043 13.3027 9.29289C13.4902 9.10536 13.7445 9 14.0098 9Z" fill="#21272A"/>
</svg>
