<svg width="24" height="24" viewBox="0 0 24 24" fill="none" xmlns="http://www.w3.org/2000/svg">
<path d="M9.00977 4V3C9.00977 2.73478 9.11512 2.48043 9.30266 2.29289C9.4902 2.10536 9.74455 2 10.0098 2H14.0098C14.275 2 14.5293 2.10536 14.7169 2.29289C14.9044 2.48043 15.0098 2.73478 15.0098 3V4H19.0098C19.5402 4 20.0489 4.21071 20.424 4.58579C20.7991 4.96086 21.0098 5.46957 21.0098 6V7C21.0098 7.53043 20.7991 8.03914 20.424 8.41421C20.0489 8.78929 19.5402 9 19.0098 9H18.8768L18.1968 19.2C18.146 19.9593 17.8087 20.6709 17.2529 21.1908C16.6972 21.7107 15.9647 21.9999 15.2038 22H8.83577C8.07544 22 7.34348 21.7113 6.78788 21.1922C6.23227 20.6732 5.89447 19.9626 5.84277 19.204L5.14677 9H5.00977C4.47933 9 3.97062 8.78929 3.59555 8.41421C3.22048 8.03914 3.00977 7.53043 3.00977 7V6C3.00977 5.46957 3.22048 4.96086 3.59555 4.58579C3.97062 4.21071 4.47933 4 5.00977 4H9.00977ZM19.0098 6H5.00977V7H19.0098V6ZM7.15077 9L7.83777 19.068C7.855 19.3209 7.96765 19.5578 8.15292 19.7309C8.3382 19.9039 8.58227 20.0001 8.83577 20H15.2038C15.4576 20 15.7019 19.9036 15.8873 19.7301C16.0726 19.5567 16.185 19.3193 16.2018 19.066L16.8718 9H7.15177H7.15077ZM10.0098 10C10.275 10 10.5293 10.1054 10.7169 10.2929C10.9044 10.4804 11.0098 10.7348 11.0098 11V18C11.0098 18.2652 10.9044 18.5196 10.7169 18.7071C10.5293 18.8946 10.275 19 10.0098 19C9.74455 19 9.4902 18.8946 9.30266 18.7071C9.11512 18.5196 9.00977 18.2652 9.00977 18V11C9.00977 10.7348 9.11512 10.4804 9.30266 10.2929C9.4902 10.1054 9.74455 10 10.0098 10ZM14.0098 10C14.275 10 14.5293 10.1054 14.7169 10.2929C14.9044 10.4804 15.0098 10.7348 15.0098 11V18C15.0098 18.2652 14.9044 18.5196 14.7169 18.7071C14.5293 18.8946 14.275 19 14.0098 19C13.7445 19 13.4902 18.8946 13.3027 18.7071C13.1151 18.5196 13.0098 18.2652 13.0098 18V11C13.0098 10.7348 13.1151 10.4804 13.3027 10.2929C13.4902 10.1054 13.7445 10 14.0098 10Z" fill="#21272A"/>
</svg>
