<svg width="24" height="24" viewBox="0 0 24 24" fill="none" xmlns="http://www.w3.org/2000/svg">
<path d="M15.7378 7.547L15.1058 7.101L14.9388 6.346C14.7893 5.68074 14.4179 5.08617 13.8855 4.66014C13.3531 4.23411 12.6916 4.002 12.0098 4.002C11.3279 4.002 10.6664 4.23411 10.134 4.66014C9.60169 5.08617 9.23022 5.68074 9.08077 6.346L8.91377 7.101L8.28177 7.547C7.8979 7.71522 7.55354 7.96201 7.27088 8.27146C6.98823 8.58091 6.77354 8.94615 6.64067 9.34365C6.5078 9.74114 6.4597 10.1621 6.49945 10.5793C6.5392 10.9965 6.66594 11.4008 6.87148 11.766C7.07702 12.1313 7.35682 12.4494 7.69283 12.6999C8.02884 12.9504 8.41361 13.1277 8.82233 13.2204C9.23106 13.3131 9.65468 13.3192 10.0659 13.2381C10.4771 13.1571 10.8668 12.9908 11.2098 12.75L12.0108 12.4L12.8108 12.75C13.4924 13.0491 14.2609 13.084 14.9669 12.8481C15.6729 12.6122 16.2659 12.1222 16.6308 11.4735C16.9957 10.8247 17.1064 10.0634 16.9414 9.33757C16.7763 8.61174 16.3473 7.97319 15.7378 7.546V7.547ZM13.0098 14.9V21C13.0098 21.2652 12.9044 21.5196 12.7169 21.7071C12.5293 21.8946 12.275 22 12.0098 22C11.7446 22 11.4902 21.8946 11.3027 21.7071C11.1151 21.5196 11.0098 21.2652 11.0098 21V14.9C9.88426 15.1308 8.71361 14.9669 7.69474 14.436C6.67586 13.905 5.87092 13.0394 5.41532 11.9846C4.95973 10.9299 4.88127 9.75045 5.19314 8.64466C5.50502 7.53888 6.1882 6.57424 7.12777 5.913C7.37541 4.80291 7.99398 3.81035 8.88147 3.09903C9.76897 2.3877 10.8724 2.00007 12.0098 2.00007C13.1471 2.00007 14.2506 2.3877 15.1381 3.09903C16.0256 3.81035 16.6441 4.80291 16.8918 5.913C17.8313 6.57424 18.5145 7.53888 18.8264 8.64466C19.1383 9.75045 19.0598 10.9299 18.6042 11.9846C18.1486 13.0394 17.3437 13.905 16.3248 14.436C15.3059 14.9669 14.1353 15.1308 13.0098 14.9Z" fill="#21272A"/>
</svg>
