<svg width="24" height="24" viewBox="0 0 24 24" fill="none" xmlns="http://www.w3.org/2000/svg">
<path d="M8.35777 14H15.6618L13.0918 9.226L14.5498 9.12L12.0098 4.887L9.47077 9.12L10.9308 9.224L8.35677 14H8.35777ZM16.3158 10.997L18.2158 14.526C18.2978 14.6783 18.3388 14.8493 18.335 15.0222C18.3312 15.1951 18.2825 15.3641 18.1939 15.5126C18.1052 15.6611 17.9795 15.7841 17.8291 15.8695C17.6787 15.955 17.5087 15.9999 17.3358 16H13.0098V21C13.0098 21.2652 12.9044 21.5196 12.7169 21.7071C12.5293 21.8946 12.275 22 12.0098 22C11.7446 22 11.4902 21.8946 11.3027 21.7071C11.1151 21.5196 11.0098 21.2652 11.0098 21V16H6.68377C6.5108 15.9999 6.34081 15.955 6.19041 15.8695C6.04001 15.7841 5.91434 15.6611 5.82567 15.5126C5.73701 15.3641 5.68838 15.1951 5.68454 15.0222C5.6807 14.8493 5.72178 14.6783 5.80377 14.526L7.70377 10.997L6.98377 10.61C6.86082 10.4511 6.78882 10.2587 6.77722 10.0581C6.76562 9.85746 6.81496 9.65804 6.91877 9.486L11.1528 2.429C11.2417 2.28115 11.3673 2.15881 11.5175 2.07388C11.6677 1.98895 11.8372 1.94432 12.0098 1.94432C12.1823 1.94432 12.3519 1.98895 12.5021 2.07388C12.6522 2.15881 12.7779 2.28115 12.8668 2.429L17.1008 9.486C17.204 9.65801 17.253 9.85708 17.2416 10.0574C17.2302 10.2576 17.1588 10.4498 17.0368 10.609L16.3168 10.997H16.3158Z" fill="#21272A"/>
</svg>
