<svg width="24" height="24" viewBox="0 0 24 24" fill="none" xmlns="http://www.w3.org/2000/svg">
<path d="M19.5718 2H4.44777C4.128 1.99961 3.81128 2.0622 3.5157 2.18421C3.22012 2.30621 2.95147 2.48524 2.72508 2.71107C2.49869 2.93691 2.319 3.20512 2.19627 3.5004C2.07353 3.79567 2.01016 4.11223 2.00977 4.432V19.519C2.01016 19.8388 2.07353 20.1553 2.19627 20.4506C2.319 20.7459 2.49869 21.0141 2.72508 21.2399C2.95147 21.4658 3.22012 21.6448 3.5157 21.7668C3.81128 21.8888 4.128 21.9514 4.44777 21.951H19.5718C19.8915 21.9514 20.2083 21.8888 20.5038 21.7668C20.7994 21.6448 21.0681 21.4658 21.2945 21.2399C21.5208 21.0141 21.7005 20.7459 21.8233 20.4506C21.946 20.1553 22.0094 19.8388 22.0098 19.519V4.432C22.0094 4.11223 21.946 3.79567 21.8233 3.5004C21.7005 3.20512 21.5208 2.93691 21.2945 2.71107C21.0681 2.48524 20.7994 2.30621 20.5038 2.18421C20.2083 2.0622 19.8915 1.99961 19.5718 2ZM10.7098 17.55C10.7098 17.6986 10.6805 17.8457 10.6236 17.9829C10.5666 18.1201 10.4832 18.2448 10.3781 18.3497C10.2729 18.4547 10.1481 18.5379 10.0108 18.5946C9.87348 18.6512 9.72633 18.6803 9.57777 18.68H5.74177C5.5932 18.6803 5.44605 18.6512 5.30872 18.5946C5.17139 18.5379 5.04658 18.4547 4.94144 18.3497C4.8363 18.2448 4.75289 18.1201 4.69597 17.9829C4.63906 17.8457 4.60977 17.6986 4.60977 17.55V5.893C4.60977 5.269 5.11677 4.763 5.74177 4.763H9.57777C9.72633 4.76274 9.87348 4.79177 10.0108 4.84844C10.1481 4.90511 10.2729 4.98831 10.3781 5.09326C10.4832 5.19822 10.5666 5.32288 10.6236 5.46011C10.6805 5.59734 10.7098 5.74444 10.7098 5.893V17.55ZM19.4098 12.535C19.4098 12.6836 19.3805 12.8307 19.3236 12.9679C19.2666 13.1051 19.1832 13.2298 19.0781 13.3347C18.9729 13.4397 18.8481 13.5229 18.7108 13.5796C18.5735 13.6362 18.4263 13.6653 18.2778 13.665H14.4418C14.2932 13.6653 14.146 13.6362 14.0087 13.5796C13.8714 13.5229 13.7466 13.4397 13.6414 13.3347C13.5363 13.2298 13.4529 13.1051 13.396 12.9679C13.3391 12.8307 13.3098 12.6836 13.3098 12.535V5.893C13.3098 5.269 13.8168 4.763 14.4418 4.763H18.2778C18.4263 4.76274 18.5735 4.79177 18.7108 4.84844C18.8481 4.90511 18.9729 4.98831 19.0781 5.09326C19.1832 5.19822 19.2666 5.32288 19.3236 5.46011C19.3805 5.59734 19.4098 5.74444 19.4098 5.893V12.535Z" fill="#21272A"/>
</svg>
