<svg width="24" height="24" viewBox="0 0 24 24" fill="none" xmlns="http://www.w3.org/2000/svg">
<path d="M12.5378 6.358C12.3127 6.21793 12.0412 6.17296 11.783 6.23296C11.5248 6.29297 11.301 6.45304 11.1608 6.678L5.06577 16.472C4.97163 16.6234 4.91969 16.7972 4.91531 16.9755C4.91094 17.1537 4.95429 17.3298 5.04088 17.4857C5.12747 17.6415 5.25415 17.7714 5.4078 17.8618C5.56145 17.9522 5.73648 18 5.91477 18H18.1048C18.2831 18.0001 18.4583 17.9526 18.6121 17.8622C18.7659 17.7718 18.8927 17.642 18.9794 17.4861C19.0661 17.3303 19.1096 17.154 19.1052 16.9757C19.1009 16.7974 19.0489 16.6235 18.9548 16.472L12.8588 6.678C12.778 6.54828 12.6685 6.43881 12.5388 6.358H12.5378ZM14.5568 5.621L20.6518 15.415C20.9344 15.8692 21.0905 16.3908 21.1037 16.9256C21.117 17.4605 20.987 17.9891 20.7272 18.4568C20.4674 18.9245 20.0872 19.3142 19.6261 19.5856C19.165 19.8569 18.6398 20 18.1048 20H5.91477C5.37976 20 4.8545 19.8569 4.3934 19.5856C3.9323 19.3142 3.55216 18.9245 3.29235 18.4568C3.03255 17.9891 2.90254 17.4605 2.9158 16.9256C2.92906 16.3908 3.08511 15.8692 3.36777 15.415L9.46277 5.62C9.73213 5.1872 10.1073 4.83017 10.553 4.58263C10.9986 4.33508 11.5 4.20518 12.0098 4.20518C12.5195 4.20518 13.0209 4.33508 13.4666 4.58263C13.9122 4.83017 14.2874 5.1872 14.5568 5.62V5.621Z" fill="#21272A"/>
</svg>
