<svg width="24" height="24" viewBox="0 0 24 24" fill="none" xmlns="http://www.w3.org/2000/svg">
<path d="M14.8098 4.613L21.5108 15.774C22.4738 17.377 22.0008 19.486 20.4538 20.484C19.9345 20.8202 19.3293 20.9994 18.7108 21H5.30777C3.48677 21 2.00977 19.47 2.00977 17.581C2.00977 16.942 2.18277 16.317 2.50777 15.774L9.20977 4.613C10.1718 3.01 12.2058 2.519 13.7528 3.517C14.1808 3.793 14.5428 4.168 14.8098 4.613ZM12.5898 5.452C12.4673 5.37326 12.3302 5.32015 12.1867 5.29588C12.0432 5.27161 11.8962 5.27669 11.7547 5.3108C11.6132 5.34492 11.4801 5.40736 11.3634 5.49437C11.2467 5.58137 11.1489 5.69112 11.0758 5.817L4.37477 16.98C4.26591 17.1619 4.20854 17.37 4.20877 17.582C4.20877 18.212 4.70077 18.722 5.30877 18.722H18.7098C18.9158 18.722 19.1168 18.662 19.2908 18.55C19.5404 18.3841 19.7165 18.1283 19.7823 17.8358C19.848 17.5434 19.7984 17.2368 19.6438 16.98L12.9428 5.817C12.8549 5.67003 12.7345 5.54516 12.5908 5.452H12.5898ZM12.0098 17C11.7445 17 11.4902 16.8946 11.3027 16.7071C11.1151 16.5196 11.0098 16.2652 11.0098 16C11.0098 15.7348 11.1151 15.4804 11.3027 15.2929C11.4902 15.1054 11.7445 15 12.0098 15C12.275 15 12.5293 15.1054 12.7169 15.2929C12.9044 15.4804 13.0098 15.7348 13.0098 16C13.0098 16.2652 12.9044 16.5196 12.7169 16.7071C12.5293 16.8946 12.275 17 12.0098 17ZM12.0098 8C12.275 8 12.5293 8.10536 12.7169 8.2929C12.9044 8.48043 13.0098 8.73479 13.0098 9V13C13.0098 13.2652 12.9044 13.5196 12.7169 13.7071C12.5293 13.8946 12.275 14 12.0098 14C11.7445 14 11.4902 13.8946 11.3027 13.7071C11.1151 13.5196 11.0098 13.2652 11.0098 13V9C11.0098 8.73479 11.1151 8.48043 11.3027 8.2929C11.4902 8.10536 11.7445 8 12.0098 8Z" fill="#21272A"/>
</svg>
