<svg width="24" height="24" viewBox="0 0 24 24" fill="none" xmlns="http://www.w3.org/2000/svg">
<path d="M11.0098 9C11.275 9 11.5293 9.10536 11.7169 9.29289C11.9044 9.48043 12.0098 9.73478 12.0098 10C12.0098 10.2652 11.9044 10.5196 11.7169 10.7071C11.5293 10.8946 11.275 11 11.0098 11V13C11.275 13 11.5293 13.1054 11.7169 13.2929C11.9044 13.4804 12.0098 13.7348 12.0098 14C12.0098 14.2652 11.9044 14.5196 11.7169 14.7071C11.5293 14.8946 11.275 15 11.0098 15V19C11.0098 19.2652 11.1151 19.5196 11.3027 19.7071C11.4902 19.8946 11.7445 20 12.0098 20C12.275 20 12.5293 19.8946 12.7169 19.7071C12.9044 19.5196 13.0098 19.2652 13.0098 19V4H11.0098V9ZM9.00977 2H15.0098V19C15.0098 19.7956 14.6937 20.5587 14.1311 21.1213C13.5685 21.6839 12.8054 22 12.0098 22C11.2141 22 10.4511 21.6839 9.88845 21.1213C9.32584 20.5587 9.00977 19.7956 9.00977 19V2Z" fill="#21272A"/>
</svg>
