<svg width="24" height="24" viewBox="0 0 24 24" fill="none" xmlns="http://www.w3.org/2000/svg">
<path d="M14.4508 14.953C14.4508 14.953 14.1438 15.293 13.5608 15.293C12.9768 15.293 12.7158 14.953 12.7158 14.448V11.59H14.6028V9.857H12.7158V7H11.2948C11.0718 8.282 10.1968 9.35 9.00977 9.874V11.59H10.3958V14.881C10.3958 15.338 10.8418 17 13.1158 17C14.4508 17 15.0038 16.17 15.0038 16.17L14.4508 14.953Z" fill="#21272A"/>
<path d="M12.0098 20C14.1315 20 16.1663 19.1571 17.6666 17.6569C19.1669 16.1566 20.0098 14.1217 20.0098 12C20.0098 9.87827 19.1669 7.84344 17.6666 6.34315C16.1663 4.84285 14.1315 4 12.0098 4C9.88803 4 7.8532 4.84285 6.35291 6.34315C4.85262 7.84344 4.00977 9.87827 4.00977 12C4.00977 14.1217 4.85262 16.1566 6.35291 17.6569C7.8532 19.1571 9.88803 20 12.0098 20ZM12.0098 22C6.48677 22 2.00977 17.523 2.00977 12C2.00977 6.477 6.48677 2 12.0098 2C17.5328 2 22.0098 6.477 22.0098 12C22.0098 17.523 17.5328 22 12.0098 22Z" fill="#21272A"/>
</svg>
