<svg width="24" height="24" viewBox="0 0 24 24" fill="none" xmlns="http://www.w3.org/2000/svg">
<path d="M12.0098 20C14.1315 20 16.1663 19.1571 17.6666 17.6569C19.1669 16.1566 20.0098 14.1217 20.0098 12C20.0098 9.87827 19.1669 7.84344 17.6666 6.34315C16.1663 4.84285 14.1315 4 12.0098 4C9.88803 4 7.8532 4.84285 6.35291 6.34315C4.85262 7.84344 4.00977 9.87827 4.00977 12C4.00977 14.1217 4.85262 16.1566 6.35291 17.6569C7.8532 19.1571 9.88803 20 12.0098 20ZM12.0098 22C6.48677 22 2.00977 17.523 2.00977 12C2.00977 6.477 6.48677 2 12.0098 2C17.5328 2 22.0098 6.477 22.0098 12C22.0098 17.523 17.5328 22 12.0098 22Z" fill="#21272A"/>
<path d="M17.0098 8.947C16.6418 9.107 16.2468 9.217 15.8318 9.265C16.2558 9.015 16.5798 8.619 16.7338 8.148C16.3297 8.38347 15.8889 8.54912 15.4298 8.638C15.2366 8.43558 15.0043 8.27461 14.7469 8.16492C14.4896 8.05523 14.2125 7.99912 13.9328 8C12.7998 8 11.8818 8.905 11.8818 10.02C11.8818 10.178 11.8998 10.332 11.9348 10.48C11.1221 10.4414 10.3264 10.2338 9.59841 9.87055C8.87044 9.50725 8.22619 8.9962 7.70677 8.37C7.52433 8.6771 7.42828 9.0278 7.42877 9.385C7.42877 10.085 7.79177 10.705 8.34177 11.066C8.01621 11.0558 7.69763 10.9691 7.41177 10.813V10.838C7.41485 11.3075 7.58057 11.7613 7.88068 12.1224C8.1808 12.4834 8.59677 12.7292 9.05777 12.818C8.75512 12.898 8.43846 12.9096 8.13077 12.852C8.26489 13.2559 8.52144 13.608 8.86479 13.8594C9.20814 14.1108 9.62125 14.2491 10.0468 14.255C9.31673 14.8176 8.42041 15.1215 7.49877 15.119C7.33377 15.119 7.17077 15.109 7.00977 15.091C7.95024 15.6863 9.04073 16.0016 10.1538 16C13.9278 16 15.9908 12.922 15.9908 10.252L15.9838 9.99C16.3861 9.70728 16.7337 9.35389 17.0098 8.947Z" fill="#21272A"/>
</svg>
