<svg width="24" height="24" viewBox="0 0 24 24" fill="none" xmlns="http://www.w3.org/2000/svg">
<path d="M17.0098 8.947C16.6418 9.107 16.2468 9.217 15.8318 9.265C16.2558 9.015 16.5798 8.619 16.7338 8.148C16.3297 8.38347 15.8889 8.54912 15.4298 8.638C15.2366 8.43558 15.0043 8.27461 14.7469 8.16492C14.4896 8.05523 14.2125 7.99912 13.9328 8C12.7998 8 11.8818 8.905 11.8818 10.02C11.8818 10.178 11.8998 10.332 11.9348 10.48C11.1221 10.4414 10.3264 10.2338 9.59841 9.87055C8.87044 9.50725 8.22619 8.9962 7.70677 8.37C7.52433 8.6771 7.42828 9.0278 7.42877 9.385C7.42877 10.085 7.79177 10.705 8.34177 11.066C8.01621 11.0558 7.69763 10.9691 7.41177 10.813V10.838C7.41485 11.3075 7.58057 11.7613 7.88068 12.1224C8.1808 12.4834 8.59677 12.7292 9.05777 12.818C8.75512 12.898 8.43846 12.9096 8.13077 12.852C8.26489 13.2559 8.52144 13.608 8.86479 13.8594C9.20814 14.1108 9.62125 14.2491 10.0468 14.255C9.31673 14.8176 8.42041 15.1215 7.49877 15.119C7.33377 15.119 7.17077 15.109 7.00977 15.091C7.95024 15.6863 9.04073 16.0016 10.1538 16C13.9278 16 15.9908 12.922 15.9908 10.252L15.9838 9.99C16.3861 9.70728 16.7337 9.35389 17.0098 8.947Z" fill="#21272A"/>
<path d="M6.00977 4C5.47933 4 4.97062 4.21071 4.59555 4.58579C4.22048 4.96086 4.00977 5.46957 4.00977 6V18C4.00977 18.5304 4.22048 19.0391 4.59555 19.4142C4.97062 19.7893 5.47933 20 6.00977 20H18.0098C18.5402 20 19.0489 19.7893 19.424 19.4142C19.7991 19.0391 20.0098 18.5304 20.0098 18V6C20.0098 5.46957 19.7991 4.96086 19.424 4.58579C19.0489 4.21071 18.5402 4 18.0098 4H6.00977ZM6.00977 2H18.0098C19.0706 2 20.088 2.42143 20.8382 3.17157C21.5883 3.92172 22.0098 4.93913 22.0098 6V18C22.0098 19.0609 21.5883 20.0783 20.8382 20.8284C20.088 21.5786 19.0706 22 18.0098 22H6.00977C4.9489 22 3.93148 21.5786 3.18134 20.8284C2.43119 20.0783 2.00977 19.0609 2.00977 18V6C2.00977 4.93913 2.43119 3.92172 3.18134 3.17157C3.93148 2.42143 4.9489 2 6.00977 2V2Z" fill="#21272A"/>
</svg>
