<svg width="24" height="24" viewBox="0 0 24 24" fill="none" xmlns="http://www.w3.org/2000/svg">
<path d="M12.0098 5C10.236 5.00006 8.51248 5.58941 7.11004 6.67545C5.70761 7.76149 4.70571 9.28267 4.26177 11H19.7578C18.8698 7.55 15.7378 5 12.0098 5ZM11.0098 13H2.00977C2.00977 7.814 5.95677 3.55 11.0108 3.05L11.0098 3C11.0105 2.86705 11.0378 2.73558 11.0899 2.61329C11.1421 2.491 11.2181 2.38034 11.3136 2.28778C11.409 2.19523 11.5219 2.12263 11.6458 2.07424C11.7696 2.02585 11.9018 2.00263 12.0348 2.00596C12.1677 2.00928 12.2986 2.03908 12.4198 2.0936C12.5411 2.14812 12.6503 2.22627 12.741 2.32349C12.8316 2.4207 12.902 2.53502 12.948 2.65977C12.994 2.78452 13.0147 2.91718 13.0088 3.05C18.0628 3.55 22.0098 7.813 22.0098 13H13.0098V19C13.0098 19.2652 13.1151 19.5196 13.3027 19.7071C13.4902 19.8946 13.7445 20 14.0098 20C14.275 20 14.5293 19.8946 14.7169 19.7071C14.9044 19.5196 15.0098 19.2652 15.0098 19C15.0098 18.7348 15.1151 18.4804 15.3027 18.2929C15.4902 18.1054 15.7445 18 16.0098 18C16.275 18 16.5293 18.1054 16.7169 18.2929C16.9044 18.4804 17.0098 18.7348 17.0098 19C17.0098 19.7956 16.6937 20.5587 16.1311 21.1213C15.5685 21.6839 14.8054 22 14.0098 22C13.2141 22 12.4511 21.6839 11.8884 21.1213C11.3258 20.5587 11.0098 19.7956 11.0098 19V13Z" fill="#21272A"/>
</svg>
