<svg width="24" height="24" viewBox="0 0 24 24" fill="none" xmlns="http://www.w3.org/2000/svg">
<path d="M11.0098 15.418L5.00977 17L11.2438 3.642C11.1216 3.49614 11.0435 3.31843 11.0188 3.12975C10.994 2.94107 11.0236 2.74925 11.1041 2.57682C11.1846 2.40438 11.3126 2.25849 11.4731 2.15627C11.6336 2.05405 11.82 1.99976 12.0103 1.99976C12.2006 1.99976 12.3869 2.05405 12.5474 2.15627C12.7079 2.25849 12.8359 2.40438 12.9164 2.57682C12.9969 2.74925 13.0265 2.94107 13.0018 3.12975C12.977 3.31843 12.899 3.49614 12.7768 3.642L19.0098 17L13.0098 15.418V19C13.0098 19.2652 13.1151 19.5196 13.3027 19.7071C13.4902 19.8946 13.7445 20 14.0098 20C14.275 20 14.5293 19.8946 14.7169 19.7071C14.9044 19.5196 15.0098 19.2652 15.0098 19C15.0098 18.7348 15.1151 18.4804 15.3027 18.2929C15.4902 18.1054 15.7445 18 16.0098 18C16.275 18 16.5293 18.1054 16.7169 18.2929C16.9044 18.4804 17.0098 18.7348 17.0098 19C17.0098 19.7956 16.6937 20.5587 16.1311 21.1213C15.5685 21.6839 14.8054 22 14.0098 22C13.2141 22 12.4511 21.6839 11.8884 21.1213C11.3258 20.5587 11.0098 19.7956 11.0098 19V15.418ZM12.0098 6.73L8.62677 13.979L12.0098 13.086L15.3928 13.978L12.0098 6.729V6.73Z" fill="#21272A"/>
</svg>
