<svg width="24" height="24" viewBox="0 0 24 24" fill="none" xmlns="http://www.w3.org/2000/svg">
<path d="M8.50977 16.5H15.5098C15.6424 16.5 15.7696 16.5527 15.8633 16.6464C15.9571 16.7402 16.0098 16.8674 16.0098 17C16.0098 17.1326 15.9571 17.2598 15.8633 17.3536C15.7696 17.4473 15.6424 17.5 15.5098 17.5H8.50977C8.37716 17.5 8.24998 17.4473 8.15621 17.3536C8.06244 17.2598 8.00977 17.1326 8.00977 17C8.00977 16.8674 8.06244 16.7402 8.15621 16.6464C8.24998 16.5527 8.37716 16.5 8.50977 16.5ZM14.0098 8.5C13.7445 8.5 13.4902 8.39464 13.3027 8.20711C13.1151 8.01957 13.0098 7.76522 13.0098 7.5C13.0098 7.23478 13.1151 6.98043 13.3027 6.79289C13.4902 6.60536 13.7445 6.5 14.0098 6.5H16.0098C16.275 6.5 16.5293 6.60536 16.7169 6.79289C16.9044 6.98043 17.0098 7.23478 17.0098 7.5C17.0098 7.76522 16.9044 8.01957 16.7169 8.20711C16.5293 8.39464 16.275 8.5 16.0098 8.5V11.5C16.0098 12.5609 15.5883 13.5783 14.8382 14.3284C14.088 15.0786 13.0706 15.5 12.0098 15.5C10.9489 15.5 9.93148 15.0786 9.18134 14.3284C8.43119 13.5783 8.00977 12.5609 8.00977 11.5V8.5C7.74455 8.5 7.4902 8.39464 7.30266 8.20711C7.11512 8.01957 7.00977 7.76522 7.00977 7.5C7.00977 7.23478 7.11512 6.98043 7.30266 6.79289C7.4902 6.60536 7.74455 6.5 8.00977 6.5H10.0098C10.275 6.5 10.5293 6.60536 10.7169 6.79289C10.9044 6.98043 11.0098 7.23478 11.0098 7.5C11.0098 7.76522 10.9044 8.01957 10.7169 8.20711C10.5293 8.39464 10.275 8.5 10.0098 8.5V11.5C10.0098 12.0304 10.2205 12.5391 10.5956 12.9142C10.9706 13.2893 11.4793 13.5 12.0098 13.5C12.5402 13.5 13.0489 13.2893 13.424 12.9142C13.7991 12.5391 14.0098 12.0304 14.0098 11.5V8.5Z" fill="#21272A"/>
</svg>
