<svg width="24" height="24" viewBox="0 0 24 24" fill="none" xmlns="http://www.w3.org/2000/svg">
<path d="M5.81777 9.612L7.16977 8.689C7.27725 8.61562 7.39825 8.56436 7.52573 8.53821C7.65321 8.51205 7.78463 8.51153 7.91231 8.53665C8.04 8.56178 8.16142 8.61206 8.26948 8.68457C8.37755 8.75708 8.47011 8.85037 8.54177 8.959C8.68828 9.17903 8.74251 9.4478 8.69275 9.70742C8.643 9.96705 8.49325 10.1967 8.27577 10.347L4.99877 12.584C4.89129 12.6574 4.77028 12.7086 4.6428 12.7348C4.51532 12.7609 4.38391 12.7615 4.25622 12.7363C4.12853 12.7112 4.00712 12.6609 3.89905 12.5884C3.79099 12.5159 3.69843 12.4226 3.62677 12.314L1.41677 8.998C1.26968 8.77797 1.21512 8.50889 1.2649 8.24895C1.31468 7.98901 1.46479 7.75912 1.68277 7.609C1.79025 7.53562 1.91125 7.48436 2.03873 7.45821C2.16621 7.43205 2.29763 7.43153 2.42531 7.45665C2.553 7.48178 2.67442 7.53206 2.78248 7.60457C2.89055 7.67708 2.98311 7.77037 3.05477 7.879L3.89377 9.138C5.10977 5.01 8.88977 2 13.3648 2C18.8228 2 23.2468 6.477 23.2468 12C23.2468 17.523 18.8228 22 13.3648 22C13.2342 21.9992 13.1051 21.9727 12.9848 21.922C12.8645 21.8714 12.7554 21.7975 12.6637 21.7046C12.5719 21.6118 12.4994 21.5017 12.4501 21.3808C12.4009 21.2599 12.376 21.1305 12.3768 21C12.3768 20.448 12.8198 20 13.3648 20C17.7308 20 21.2708 16.418 21.2708 12C21.2708 7.582 17.7308 4 13.3648 4C9.82077 4 6.82177 6.36 5.81777 9.612Z" fill="#21272A"/>
</svg>
