<svg width="24" height="24" viewBox="0 0 24 24" fill="none" xmlns="http://www.w3.org/2000/svg">
<path d="M6.00977 7H18.0098C18.275 7 18.5293 7.10536 18.7169 7.29289C18.9044 7.48043 19.0098 7.73478 19.0098 8C19.0098 8.26522 18.9044 8.51957 18.7169 8.70711C18.5293 8.89464 18.275 9 18.0098 9H6.00977C5.74455 9 5.4902 8.89464 5.30266 8.70711C5.11512 8.51957 5.00977 8.26522 5.00977 8C5.00977 7.73478 5.11512 7.48043 5.30266 7.29289C5.4902 7.10536 5.74455 7 6.00977 7V7ZM6.00977 15H18.0098C18.275 15 18.5293 15.1054 18.7169 15.2929C18.9044 15.4804 19.0098 15.7348 19.0098 16C19.0098 16.2652 18.9044 16.5196 18.7169 16.7071C18.5293 16.8946 18.275 17 18.0098 17H6.00977C5.74455 17 5.4902 16.8946 5.30266 16.7071C5.11512 16.5196 5.00977 16.2652 5.00977 16C5.00977 15.7348 5.11512 15.4804 5.30266 15.2929C5.4902 15.1054 5.74455 15 6.00977 15ZM12.0098 11H18.0098C18.275 11 18.5293 11.1054 18.7169 11.2929C18.9044 11.4804 19.0098 11.7348 19.0098 12C19.0098 12.2652 18.9044 12.5196 18.7169 12.7071C18.5293 12.8946 18.275 13 18.0098 13H12.0098C11.7445 13 11.4902 12.8946 11.3027 12.7071C11.1151 12.5196 11.0098 12.2652 11.0098 12C11.0098 11.7348 11.1151 11.4804 11.3027 11.2929C11.4902 11.1054 11.7445 11 12.0098 11ZM5.56977 11.143L7.62677 9.909C7.77849 9.81785 7.95168 9.7686 8.12866 9.76628C8.30564 9.76396 8.48007 9.80865 8.63413 9.8958C8.78818 9.98294 8.91635 10.1094 9.00553 10.2623C9.09472 10.4152 9.14173 10.589 9.14177 10.766V13.234C9.14173 13.411 9.09472 13.5848 9.00553 13.7377C8.91635 13.8906 8.78818 14.0171 8.63413 14.1042C8.48007 14.1913 8.30564 14.236 8.12866 14.2337C7.95168 14.2314 7.77849 14.1822 7.62677 14.091L5.57077 12.857C5.42291 12.7681 5.30058 12.6425 5.21565 12.4923C5.13072 12.3421 5.08608 12.1725 5.08608 12C5.08608 11.8275 5.13072 11.6579 5.21565 11.5077C5.30058 11.3575 5.42291 11.2319 5.57077 11.143H5.56977Z" fill="#21272A"/>
</svg>
