<svg width="24" height="24" viewBox="0 0 24 24" fill="none" xmlns="http://www.w3.org/2000/svg">
<path d="M12.8678 7.48L12.0098 7.888L11.1518 7.48C10.3897 7.11958 9.54884 6.9577 8.70741 7.00941C7.86598 7.06112 7.05128 7.32474 6.33906 7.77576C5.62684 8.22678 5.04022 8.85056 4.63374 9.58911C4.22726 10.3277 4.0141 11.157 4.0141 12C4.0141 12.843 4.22726 13.6723 4.63374 14.4109C5.04022 15.1494 5.62684 15.7732 6.33906 16.2242C7.05128 16.6753 7.86598 16.9389 8.70741 16.9906C9.54884 17.0423 10.3897 16.8804 11.1518 16.52L12.0098 16.112L12.8678 16.52C13.6299 16.8804 14.4707 17.0423 15.3121 16.9906C16.1536 16.9389 16.9683 16.6753 17.6805 16.2242C18.3927 15.7732 18.9793 15.1494 19.3858 14.4109C19.7923 13.6723 20.0054 12.843 20.0054 12C20.0054 11.157 19.7923 10.3277 19.3858 9.58911C18.9793 8.85056 18.3927 8.22678 17.6805 7.77576C16.9683 7.32474 16.1536 7.06112 15.3121 7.00941C14.4707 6.9577 13.6299 7.11958 12.8678 7.48ZM15.0098 5C16.0594 5.00046 17.0954 5.23694 18.0413 5.69195C18.9871 6.14697 19.8186 6.80886 20.474 7.62864C21.1295 8.44843 21.5922 9.40512 21.8279 10.4279C22.0636 11.4507 22.0663 12.5134 21.8358 13.5374C21.6053 14.5614 21.1474 15.5204 20.4962 16.3435C19.8449 17.1666 19.0168 17.8327 18.0733 18.2925C17.1298 18.7523 16.0949 18.9941 15.0454 18.9999C13.9958 19.0057 12.9583 18.7754 12.0098 18.326C10.9428 18.8312 9.76544 19.0584 8.58712 18.9865C7.40879 18.9145 6.26781 18.5457 5.27029 17.9144C4.27278 17.283 3.45113 16.4097 2.88178 15.3755C2.31243 14.3414 2.01387 13.18 2.01387 11.9995C2.01387 10.819 2.31243 9.65763 2.88178 8.62348C3.45113 7.58933 4.27278 6.71597 5.27029 6.08463C6.26781 5.45329 7.40879 5.08449 8.58712 5.01252C9.76544 4.94055 10.9428 5.16775 12.0098 5.673C12.9472 5.22825 13.9721 4.99833 15.0098 5Z" fill="#21272A"/>
</svg>
