<svg width="24" height="24" viewBox="0 0 24 24" fill="none" xmlns="http://www.w3.org/2000/svg">
<path d="M3.694 20.306C1.784 18.394 3.952 13.126 8.539 8.539C13.126 3.952 18.394 1.783 20.306 3.694C22.216 5.606 20.048 10.874 15.461 15.461C10.874 20.048 5.606 22.217 3.694 20.306ZM5.08 18.92C5.895 19.736 10.182 17.97 14.077 14.075C17.972 10.18 19.737 5.893 18.922 5.078C18.107 4.262 13.82 6.028 9.925 9.923C6.03 13.818 4.265 18.105 5.08 18.92ZM8.54 15.46C3.952 10.874 1.783 5.606 3.694 3.694C5.606 1.784 10.874 3.952 15.461 8.539C20.048 13.126 22.217 18.394 20.306 20.306C18.394 22.216 13.126 20.048 8.539 15.461L8.54 15.46ZM9.925 14.075C13.82 17.97 18.107 19.735 18.922 18.92C19.738 18.105 17.972 13.818 14.077 9.923C10.182 6.028 5.895 4.263 5.08 5.078C4.264 5.893 6.03 10.18 9.925 14.075ZM12 14C11.4696 14 10.9609 13.7893 10.5858 13.4142C10.2107 13.0391 10 12.5304 10 12C10 11.4696 10.2107 10.9609 10.5858 10.5858C10.9609 10.2107 11.4696 10 12 10C12.5304 10 13.0391 10.2107 13.4142 10.5858C13.7893 10.9609 14 11.4696 14 12C14 12.5304 13.7893 13.0391 13.4142 13.4142C13.0391 13.7893 12.5304 14 12 14Z" fill="#21272A"/>
</svg>
