<svg width="24" height="24" viewBox="0 0 24 24" fill="none" xmlns="http://www.w3.org/2000/svg">
<path d="M9.46576 13.218C9.13368 13.1226 8.78212 13.118 8.44764 13.2045C8.11315 13.291 7.80794 13.4656 7.56376 13.71L5.50976 15.762C5.14668 16.1251 4.9427 16.6175 4.9427 17.131C4.9427 17.6445 5.14668 18.1369 5.50976 18.5C5.87284 18.8631 6.36529 19.0671 6.87876 19.0671C7.39223 19.0671 7.88468 18.8631 8.24776 18.5L10.2998 16.447C10.5442 16.2028 10.7187 15.8976 10.8053 15.5631C10.8918 15.2286 10.8871 14.8771 10.7918 14.545C10.6068 14.6544 10.3908 14.6992 10.1776 14.6722C9.96448 14.6453 9.76633 14.5483 9.61441 14.3964C9.46249 14.2444 9.36542 14.0463 9.33851 13.8331C9.3116 13.62 9.35637 13.4039 9.46576 13.219V13.218ZM13.9118 8.772C14.0967 8.6626 14.3127 8.61784 14.5259 8.64475C14.739 8.67166 14.9372 8.76872 15.0891 8.92065C15.241 9.07257 15.3381 9.27071 15.365 9.48387C15.3919 9.69703 15.3472 9.91308 15.2378 10.098C15.5698 10.1934 15.9214 10.198 16.2559 10.1115C16.5904 10.025 16.8956 9.85042 17.1398 9.606L18.5098 8.238C18.6895 8.05822 18.8321 7.84479 18.9294 7.6099C19.0267 7.375 19.0768 7.12324 19.0768 6.869C19.0768 6.61475 19.0267 6.36299 18.9294 6.1281C18.8321 5.89321 18.6895 5.67978 18.5098 5.5C18.33 5.32022 18.1166 5.17761 17.8817 5.08031C17.6468 4.98302 17.395 4.93294 17.1408 4.93294C16.8865 4.93294 16.6348 4.98302 16.3999 5.08031C16.165 5.17761 15.9515 5.32022 15.7718 5.5L14.4038 6.87C14.1593 7.11418 13.9848 7.41939 13.8983 7.75387C13.8117 8.08836 13.8164 8.43992 13.9118 8.772ZM19.8768 4.133C20.6025 4.85876 21.0103 5.84311 21.0103 6.8695C21.0103 7.89588 20.6025 8.88023 19.8768 9.606L18.5088 10.974C18.1493 11.3334 17.7226 11.6184 17.2531 11.8129C16.7835 12.0073 16.2802 12.1074 15.7719 12.1073C14.7454 12.1073 13.761 11.6994 13.0353 10.9735C12.6759 10.6141 12.3908 10.1874 12.1964 9.71779C12.0019 9.2482 11.9019 8.74491 11.9019 8.23664C11.902 7.21016 12.3099 6.22576 13.0358 5.5L14.4038 4.132C15.1295 3.40623 16.1139 2.9985 17.1403 2.9985C18.1666 2.9985 19.151 3.40623 19.8768 4.132V4.133ZM11.6678 12.342C12.3932 13.0677 12.8008 14.0519 12.8008 15.078C12.8008 16.1041 12.3932 17.0883 11.6678 17.814L9.61576 19.867C8.88961 20.5909 7.90585 20.9971 6.88049 20.9963C5.85514 20.9955 4.87201 20.5878 4.14697 19.8628C3.42193 19.1378 3.01426 18.1546 3.01347 17.1293C3.01269 16.1039 3.41884 15.1201 4.14276 14.394L6.19576 12.342C6.92149 11.6165 7.90562 11.209 8.93176 11.209C9.9579 11.209 10.942 11.6165 11.6678 12.342Z" fill="#21272A"/>
</svg>
