<svg width="24" height="24" viewBox="0 0 24 24" fill="none" xmlns="http://www.w3.org/2000/svg">
<path d="M9.00977 7H18.0098C18.275 7 18.5293 7.10536 18.7169 7.29289C18.9044 7.48043 19.0098 7.73478 19.0098 8C19.0098 8.26522 18.9044 8.51957 18.7169 8.70711C18.5293 8.89464 18.275 9 18.0098 9H9.00977C8.74455 9 8.4902 8.89464 8.30266 8.70711C8.11512 8.51957 8.00977 8.26522 8.00977 8C8.00977 7.73478 8.11512 7.48043 8.30266 7.29289C8.4902 7.10536 8.74455 7 9.00977 7V7ZM9.00977 15H18.0098C18.275 15 18.5293 15.1054 18.7169 15.2929C18.9044 15.4804 19.0098 15.7348 19.0098 16C19.0098 16.2652 18.9044 16.5196 18.7169 16.7071C18.5293 16.8946 18.275 17 18.0098 17H9.00977C8.74455 17 8.4902 16.8946 8.30266 16.7071C8.11512 16.5196 8.00977 16.2652 8.00977 16C8.00977 15.7348 8.11512 15.4804 8.30266 15.2929C8.4902 15.1054 8.74455 15 9.00977 15ZM9.00977 11H18.0098C18.275 11 18.5293 11.1054 18.7169 11.2929C18.9044 11.4804 19.0098 11.7348 19.0098 12C19.0098 12.2652 18.9044 12.5196 18.7169 12.7071C18.5293 12.8946 18.275 13 18.0098 13H9.00977C8.74455 13 8.4902 12.8946 8.30266 12.7071C8.11512 12.5196 8.00977 12.2652 8.00977 12C8.00977 11.7348 8.11512 11.4804 8.30266 11.2929C8.4902 11.1054 8.74455 11 9.00977 11ZM6.00977 7C6.27498 7 6.52934 7.10536 6.71687 7.29289C6.90441 7.48043 7.00977 7.73478 7.00977 8C7.00977 8.26522 6.90441 8.51957 6.71687 8.70711C6.52934 8.89464 6.27498 9 6.00977 9C5.74455 9 5.4902 8.89464 5.30266 8.70711C5.11512 8.51957 5.00977 8.26522 5.00977 8C5.00977 7.73478 5.11512 7.48043 5.30266 7.29289C5.4902 7.10536 5.74455 7 6.00977 7V7ZM6.00977 15C6.27498 15 6.52934 15.1054 6.71687 15.2929C6.90441 15.4804 7.00977 15.7348 7.00977 16C7.00977 16.2652 6.90441 16.5196 6.71687 16.7071C6.52934 16.8946 6.27498 17 6.00977 17C5.74455 17 5.4902 16.8946 5.30266 16.7071C5.11512 16.5196 5.00977 16.2652 5.00977 16C5.00977 15.7348 5.11512 15.4804 5.30266 15.2929C5.4902 15.1054 5.74455 15 6.00977 15ZM6.00977 11C6.27498 11 6.52934 11.1054 6.71687 11.2929C6.90441 11.4804 7.00977 11.7348 7.00977 12C7.00977 12.2652 6.90441 12.5196 6.71687 12.7071C6.52934 12.8946 6.27498 13 6.00977 13C5.74455 13 5.4902 12.8946 5.30266 12.7071C5.11512 12.5196 5.00977 12.2652 5.00977 12C5.00977 11.7348 5.11512 11.4804 5.30266 11.2929C5.4902 11.1054 5.74455 11 6.00977 11Z" fill="#21272A"/>
</svg>
