<svg width="24" height="24" viewBox="0 0 24 24" fill="none" xmlns="http://www.w3.org/2000/svg">
<path d="M13.6058 12.72C13.6058 13.587 12.9188 14.262 12.1058 14.262C11.2938 14.262 10.6058 13.587 10.6058 12.719C10.6058 11.851 11.2938 11.176 12.1058 11.176C12.9498 11.208 13.6058 11.883 13.6058 12.719V12.72ZM17.1058 10.34V15.13C17.1058 15.87 16.5128 16.512 15.7628 16.512H8.44977C7.69977 16.512 7.10577 15.902 7.10577 15.13V10.308C7.10577 9.56901 7.69977 8.92601 8.44977 8.92601H9.60577L9.85577 8.18701C9.98077 7.83301 10.3878 7.54401 10.7628 7.54401H13.4498C13.8248 7.54401 14.2308 7.83401 14.3558 8.18701L14.6058 8.95801H15.7628C16.5128 8.95801 17.1058 9.56901 17.1058 10.341V10.34ZM14.4188 12.751C14.4188 11.433 13.3878 10.341 12.0748 10.341C10.7938 10.341 9.73077 11.433 9.73077 12.751C9.73077 14.069 10.7628 15.162 12.0748 15.162C12.7037 15.1486 13.3021 14.8883 13.7407 14.4374C14.1793 13.9865 14.4228 13.3811 14.4188 12.752V12.751Z" fill="#21272A"/>
<path d="M6.00977 4C5.47933 4 4.97062 4.21071 4.59555 4.58579C4.22048 4.96086 4.00977 5.46957 4.00977 6V18C4.00977 18.5304 4.22048 19.0391 4.59555 19.4142C4.97062 19.7893 5.47933 20 6.00977 20H18.0098C18.5402 20 19.0489 19.7893 19.424 19.4142C19.7991 19.0391 20.0098 18.5304 20.0098 18V6C20.0098 5.46957 19.7991 4.96086 19.424 4.58579C19.0489 4.21071 18.5402 4 18.0098 4H6.00977ZM6.00977 2H18.0098C19.0706 2 20.088 2.42143 20.8382 3.17157C21.5883 3.92172 22.0098 4.93913 22.0098 6V18C22.0098 19.0609 21.5883 20.0783 20.8382 20.8284C20.088 21.5786 19.0706 22 18.0098 22H6.00977C4.9489 22 3.93148 21.5786 3.18134 20.8284C2.43119 20.0783 2.00977 19.0609 2.00977 18V6C2.00977 4.93913 2.43119 3.92172 3.18134 3.17157C3.93148 2.42143 4.9489 2 6.00977 2V2Z" fill="#21272A"/>
</svg>
