<svg width="24" height="24" viewBox="0 0 24 24" fill="none" xmlns="http://www.w3.org/2000/svg">
<path d="M15.0098 13.35C15.0098 15.086 13.6348 16.436 12.0098 16.436C10.3848 16.436 9.00977 15.086 9.00977 13.35C9.00977 11.614 10.3848 10.264 12.0098 10.264C13.6978 10.329 15.0098 11.679 15.0098 13.35ZM22.0098 8.593V18.171C22.0098 19.65 20.8218 20.936 19.3218 20.936H4.69777C3.19777 20.936 2.00977 19.714 2.00977 18.17V8.53C2.00977 7.05 3.19777 5.764 4.69777 5.764H7.00977L7.50977 4.286C7.75977 3.579 8.57277 3 9.32277 3H14.6978C15.4478 3 16.2598 3.579 16.5098 4.286L17.0098 5.829H19.3228C20.8228 5.829 22.0098 7.05 22.0098 8.593ZM16.6348 13.414C16.6348 10.779 14.5718 8.593 11.9468 8.593C9.38477 8.593 7.25977 10.779 7.25977 13.414C7.25977 16.05 9.32277 18.236 11.9478 18.236C13.2058 18.209 14.4026 17.688 15.2797 16.7857C16.1567 15.8834 16.6435 14.6723 16.6348 13.414Z" fill="#21272A"/>
</svg>
