<svg width="24" height="24" viewBox="0 0 24 24" fill="none" xmlns="http://www.w3.org/2000/svg">
<path d="M12.0098 20C14.1315 20 16.1663 19.1571 17.6666 17.6569C19.1669 16.1566 20.0098 14.1217 20.0098 12C20.0098 9.87827 19.1669 7.84344 17.6666 6.34315C16.1663 4.84285 14.1315 4 12.0098 4C9.88803 4 7.8532 4.84285 6.35291 6.34315C4.85262 7.84344 4.00977 9.87827 4.00977 12C4.00977 14.1217 4.85262 16.1566 6.35291 17.6569C7.8532 19.1571 9.88803 20 12.0098 20ZM12.0098 22C6.48677 22 2.00977 17.523 2.00977 12C2.00977 6.477 6.48677 2 12.0098 2C17.5328 2 22.0098 6.477 22.0098 12C22.0098 17.523 17.5328 22 12.0098 22Z" fill="#21272A"/>
<path d="M13.6058 12.72C13.6058 13.587 12.9188 14.262 12.1058 14.262C11.2938 14.262 10.6058 13.587 10.6058 12.719C10.6058 11.851 11.2938 11.176 12.1058 11.176C12.9498 11.208 13.6058 11.883 13.6058 12.719V12.72ZM17.1058 10.34V15.13C17.1058 15.87 16.5128 16.512 15.7628 16.512H8.44977C7.69977 16.512 7.10577 15.902 7.10577 15.13V10.308C7.10577 9.56901 7.69977 8.92601 8.44977 8.92601H9.60577L9.85577 8.18701C9.98077 7.83301 10.3878 7.54401 10.7628 7.54401H13.4498C13.8248 7.54401 14.2308 7.83401 14.3558 8.18701L14.6058 8.95801H15.7628C16.5128 8.95801 17.1058 9.56901 17.1058 10.341V10.34ZM14.4188 12.751C14.4188 11.433 13.3878 10.341 12.0748 10.341C10.7938 10.341 9.73077 11.433 9.73077 12.751C9.73077 14.069 10.7628 15.162 12.0748 15.162C12.7037 15.1486 13.3021 14.8883 13.7407 14.4374C14.1793 13.9865 14.4228 13.3811 14.4188 12.752V12.751Z" fill="#21272A"/>
</svg>
