<svg width="24" height="24" viewBox="0 0 24 24" fill="none" xmlns="http://www.w3.org/2000/svg">
<path d="M13.0098 8.414V14.056C13.0098 14.3212 12.9044 14.5756 12.7169 14.7631C12.5293 14.9506 12.275 15.056 12.0098 15.056C11.7445 15.056 11.4902 14.9506 11.3027 14.7631C11.1151 14.5756 11.0098 14.3212 11.0098 14.056V8.414L9.88877 9.536C9.70099 9.72364 9.44637 9.829 9.18091 9.82891C8.91545 9.82882 8.66091 9.72327 8.47327 9.5355C8.28562 9.34773 8.18026 9.0931 8.18036 8.82765C8.18045 8.56219 8.28599 8.30764 8.47377 8.12L11.3028 5.293C11.4903 5.10553 11.7446 5.00021 12.0098 5.00021C12.2749 5.00021 12.5292 5.10553 12.7168 5.293L15.5458 8.121C15.6387 8.21398 15.7124 8.32434 15.7626 8.4458C15.8129 8.56725 15.8387 8.69741 15.8387 8.82885C15.8386 8.96029 15.8127 9.09044 15.7624 9.21186C15.712 9.33328 15.6382 9.44359 15.5453 9.5365C15.4523 9.62941 15.3419 9.7031 15.2205 9.75336C15.099 9.80361 14.9689 9.82946 14.8374 9.82941C14.706 9.82936 14.5758 9.80343 14.4544 9.75308C14.333 9.70274 14.2227 9.62898 14.1298 9.536L13.0098 8.414ZM6.00977 17H18.0098C18.275 17 18.5293 17.1054 18.7169 17.2929C18.9044 17.4804 19.0098 17.7348 19.0098 18C19.0098 18.2652 18.9044 18.5196 18.7169 18.7071C18.5293 18.8946 18.275 19 18.0098 19H6.00977C5.74455 19 5.4902 18.8946 5.30266 18.7071C5.11512 18.5196 5.00977 18.2652 5.00977 18C5.00977 17.7348 5.11512 17.4804 5.30266 17.2929C5.4902 17.1054 5.74455 17 6.00977 17Z" fill="#21272A"/>
</svg>
