<svg width="24" height="24" viewBox="0 0 24 24" fill="none" xmlns="http://www.w3.org/2000/svg">
<path d="M5.54377 12.07C5.66671 12.0175 5.79893 11.9903 5.93259 11.9898C6.06626 11.9893 6.19867 12.0156 6.32199 12.0672C6.44531 12.1188 6.55705 12.1945 6.65058 12.29C6.74412 12.3855 6.81756 12.4988 6.86657 12.6231C6.91558 12.7475 6.93916 12.8804 6.93592 13.014C6.93267 13.1477 6.90267 13.2793 6.84768 13.4011C6.7927 13.523 6.71384 13.6325 6.61578 13.7234C6.51772 13.8142 6.40244 13.8845 6.27677 13.93C5.60831 14.1934 5.03459 14.6519 4.63027 15.2458C4.22595 15.8397 4.00974 16.5415 4.00977 17.26V19C4.00977 19.2652 4.11512 19.5196 4.30266 19.7071C4.4902 19.8946 4.74455 20 5.00977 20H13.0098C13.275 20 13.5293 19.8946 13.7169 19.7071C13.9044 19.5196 14.0098 19.2652 14.0098 19V17.353C14.0099 16.6115 13.7846 15.8874 13.3639 15.2768C12.9431 14.6662 12.3467 14.1979 11.6538 13.934C11.5273 13.8901 11.4109 13.8213 11.3116 13.7316C11.2122 13.6419 11.1319 13.5332 11.0753 13.4119C11.0187 13.2905 10.9871 13.1591 10.9823 13.0253C10.9774 12.8916 10.9995 12.7582 11.0472 12.6331C11.0949 12.508 11.1672 12.3938 11.2598 12.2972C11.3524 12.2006 11.4635 12.1235 11.5865 12.0706C11.7095 12.0177 11.8418 11.9901 11.9757 11.9893C12.1095 11.9885 12.2422 12.0146 12.3658 12.066C13.4374 12.4742 14.3597 13.1983 15.0104 14.1425C15.6612 15.0867 16.0097 16.2063 16.0098 17.353V19C16.0098 19.7956 15.6937 20.5587 15.1311 21.1213C14.5685 21.6839 13.8054 22 13.0098 22H5.00977C4.21412 22 3.45105 21.6839 2.88845 21.1213C2.32584 20.5587 2.00977 19.7956 2.00977 19V17.26C2.0099 16.1402 2.34704 15.0463 2.97733 14.1206C3.60761 13.195 4.50187 12.4805 5.54377 12.07ZM9.00977 2C10.0706 2 11.088 2.42143 11.8382 3.17157C12.5883 3.92172 13.0098 4.93913 13.0098 6V8C13.0098 9.06087 12.5883 10.0783 11.8382 10.8284C11.088 11.5786 10.0706 12 9.00977 12C7.9489 12 6.93148 11.5786 6.18134 10.8284C5.43119 10.0783 5.00977 9.06087 5.00977 8V6C5.00977 4.93913 5.43119 3.92172 6.18134 3.17157C6.93148 2.42143 7.9489 2 9.00977 2V2ZM9.00977 4C8.47933 4 7.97062 4.21071 7.59555 4.58579C7.22048 4.96086 7.00977 5.46957 7.00977 6V8C7.00977 8.53043 7.22048 9.03914 7.59555 9.41421C7.97062 9.78929 8.47933 10 9.00977 10C9.5402 10 10.0489 9.78929 10.424 9.41421C10.7991 9.03914 11.0098 8.53043 11.0098 8V6C11.0098 5.46957 10.7991 4.96086 10.424 4.58579C10.0489 4.21071 9.5402 4 9.00977 4ZM19.0098 7H21.0098C21.275 7 21.5293 7.10536 21.7169 7.29289C21.9044 7.48043 22.0098 7.73478 22.0098 8C22.0098 8.26522 21.9044 8.51957 21.7169 8.70711C21.5293 8.89464 21.275 9 21.0098 9H19.0098V11C19.0098 11.2652 18.9044 11.5196 18.7169 11.7071C18.5293 11.8946 18.275 12 18.0098 12C17.7445 12 17.4902 11.8946 17.3027 11.7071C17.1151 11.5196 17.0098 11.2652 17.0098 11V9H15.0098C14.7445 9 14.4902 8.89464 14.3027 8.70711C14.1151 8.51957 14.0098 8.26522 14.0098 8C14.0098 7.73478 14.1151 7.48043 14.3027 7.29289C14.4902 7.10536 14.7445 7 15.0098 7H17.0098V5C17.0098 4.73478 17.1151 4.48043 17.3027 4.29289C17.4902 4.10536 17.7445 4 18.0098 4C18.275 4 18.5293 4.10536 18.7169 4.29289C18.9044 4.48043 19.0098 4.73478 19.0098 5V7Z" fill="#21272A"/>
</svg>
