<svg width="24" height="24" viewBox="0 0 24 24" fill="none" xmlns="http://www.w3.org/2000/svg">
<path d="M12.0098 22C6.48677 22 2.00977 17.523 2.00977 12C2.00977 6.477 6.48677 2 12.0098 2C17.5328 2 22.0098 6.477 22.0098 12C22.0098 17.523 17.5328 22 12.0098 22ZM12.0098 20C14.1315 20 16.1663 19.1571 17.6666 17.6569C19.1669 16.1566 20.0098 14.1217 20.0098 12C20.0098 9.87827 19.1669 7.84344 17.6666 6.34315C16.1663 4.84285 14.1315 4 12.0098 4C9.88803 4 7.8532 4.84285 6.35291 6.34315C4.85262 7.84344 4.00977 9.87827 4.00977 12C4.00977 14.1217 4.85262 16.1566 6.35291 17.6569C7.8532 19.1571 9.88803 20 12.0098 20ZM12.0098 6C13.0706 6 14.088 6.42143 14.8382 7.17157C15.5883 7.92172 16.0098 8.93913 16.0098 10V12C16.0098 13.0609 15.5883 14.0783 14.8382 14.8284C14.088 15.5786 13.0706 16 12.0098 16C10.9489 16 9.93148 15.5786 9.18134 14.8284C8.43119 14.0783 8.00977 13.0609 8.00977 12V10C8.00977 8.93913 8.43119 7.92172 9.18134 7.17157C9.93148 6.42143 10.9489 6 12.0098 6ZM12.0098 8C11.4793 8 10.9706 8.21071 10.5956 8.58579C10.2205 8.96086 10.0098 9.46957 10.0098 10V12C10.0098 12.5304 10.2205 13.0391 10.5956 13.4142C10.9706 13.7893 11.4793 14 12.0098 14C12.5402 14 13.0489 13.7893 13.424 13.4142C13.7991 13.0391 14.0098 12.5304 14.0098 12V10C14.0098 9.46957 13.7991 8.96086 13.424 8.58579C13.0489 8.21071 12.5402 8 12.0098 8ZM7.91977 18.876C7.34375 18.5329 6.81295 18.119 6.33977 17.644C6.93374 16.946 7.69079 16.4053 8.54377 16.07C8.66671 16.0175 8.79893 15.9903 8.93259 15.9898C9.06626 15.9893 9.19867 16.0156 9.32199 16.0672C9.44531 16.1188 9.55705 16.1945 9.65058 16.29C9.74412 16.3855 9.81756 16.4988 9.86657 16.6231C9.91558 16.7475 9.93916 16.8804 9.93592 17.014C9.93267 17.1477 9.90267 17.2793 9.84768 17.4011C9.7927 17.523 9.71384 17.6325 9.61578 17.7234C9.51772 17.8142 9.40244 17.8845 9.27677 17.93C8.74477 18.14 8.28377 18.468 7.91877 18.876H7.91977ZM16.0638 18.898C15.6766 18.4697 15.1934 18.1394 14.6538 17.934C14.5273 17.8901 14.4109 17.8213 14.3116 17.7316C14.2122 17.6419 14.1319 17.5332 14.0753 17.4119C14.0187 17.2905 13.9871 17.1591 13.9823 17.0253C13.9774 16.8916 13.9995 16.7582 14.0472 16.6331C14.0949 16.508 14.1672 16.3938 14.2598 16.2972C14.3524 16.2006 14.4635 16.1235 14.5865 16.0706C14.7095 16.0177 14.8418 15.9901 14.9757 15.9893C15.1095 15.9885 15.2422 16.0146 15.3658 16.066C16.2496 16.4021 17.0349 16.9547 17.6498 17.673C17.1743 18.1459 16.6415 18.5575 16.0638 18.898Z" fill="#21272A"/>
</svg>
