<svg width="24" height="24" viewBox="0 0 24 24" fill="none" xmlns="http://www.w3.org/2000/svg">
<path d="M8.54377 12.07C8.66671 12.0175 8.79893 11.9903 8.93259 11.9898C9.06626 11.9893 9.19867 12.0156 9.32199 12.0672C9.44531 12.1188 9.55705 12.1945 9.65058 12.29C9.74412 12.3855 9.81756 12.4988 9.86657 12.6231C9.91558 12.7475 9.93916 12.8804 9.93592 13.014C9.93267 13.1477 9.90267 13.2793 9.84768 13.4011C9.7927 13.523 9.71384 13.6325 9.61578 13.7234C9.51772 13.8142 9.40244 13.8845 9.27677 13.93C8.60831 14.1934 8.03459 14.6519 7.63027 15.2458C7.22595 15.8397 7.00974 16.5415 7.00977 17.26V19C7.00977 19.2652 7.11512 19.5196 7.30266 19.7071C7.4902 19.8946 7.74455 20 8.00977 20H16.0098C16.275 20 16.5293 19.8946 16.7169 19.7071C16.9044 19.5196 17.0098 19.2652 17.0098 19V17.353C17.0099 16.6115 16.7846 15.8874 16.3639 15.2768C15.9431 14.6662 15.3467 14.1979 14.6538 13.934C14.5273 13.8901 14.4109 13.8213 14.3116 13.7316C14.2122 13.6419 14.1319 13.5332 14.0753 13.4119C14.0187 13.2905 13.9871 13.1591 13.9823 13.0253C13.9774 12.8916 13.9995 12.7582 14.0472 12.6331C14.0949 12.508 14.1672 12.3938 14.2598 12.2972C14.3524 12.2006 14.4635 12.1235 14.5865 12.0706C14.7095 12.0177 14.8418 11.9901 14.9757 11.9893C15.1095 11.9885 15.2422 12.0146 15.3658 12.066C16.4374 12.4742 17.3597 13.1983 18.0104 14.1425C18.6612 15.0867 19.0097 16.2063 19.0098 17.353V19C19.0098 19.7956 18.6937 20.5587 18.1311 21.1213C17.5685 21.6839 16.8054 22 16.0098 22H8.00977C7.21412 22 6.45105 21.6839 5.88845 21.1213C5.32584 20.5587 5.00977 19.7956 5.00977 19V17.26C5.0099 16.1402 5.34704 15.0463 5.97733 14.1206C6.60761 13.195 7.50187 12.4805 8.54377 12.07ZM12.0098 2C13.0706 2 14.088 2.42143 14.8382 3.17157C15.5883 3.92172 16.0098 4.93913 16.0098 6V8C16.0098 9.06087 15.5883 10.0783 14.8382 10.8284C14.088 11.5786 13.0706 12 12.0098 12C10.9489 12 9.93148 11.5786 9.18134 10.8284C8.43119 10.0783 8.00977 9.06087 8.00977 8V6C8.00977 4.93913 8.43119 3.92172 9.18134 3.17157C9.93148 2.42143 10.9489 2 12.0098 2V2ZM12.0098 4C11.4793 4 10.9706 4.21071 10.5956 4.58579C10.2205 4.96086 10.0098 5.46957 10.0098 6V8C10.0098 8.53043 10.2205 9.03914 10.5956 9.41421C10.9706 9.78929 11.4793 10 12.0098 10C12.5402 10 13.0489 9.78929 13.424 9.41421C13.7991 9.03914 14.0098 8.53043 14.0098 8V6C14.0098 5.46957 13.7991 4.96086 13.424 4.58579C13.0489 4.21071 12.5402 4 12.0098 4Z" fill="#21272A"/>
</svg>
