<svg width="24" height="24" viewBox="0 0 24 24" fill="none" xmlns="http://www.w3.org/2000/svg">
<path d="M5.54377 12.07C5.66671 12.0175 5.79893 11.9903 5.93259 11.9898C6.06626 11.9893 6.19867 12.0156 6.32199 12.0672C6.44531 12.1188 6.55705 12.1945 6.65058 12.29C6.74412 12.3855 6.81756 12.4988 6.86657 12.6231C6.91558 12.7475 6.93916 12.8804 6.93592 13.014C6.93267 13.1477 6.90267 13.2793 6.84768 13.4011C6.7927 13.523 6.71384 13.6325 6.61578 13.7234C6.51772 13.8142 6.40244 13.8845 6.27677 13.93C5.60831 14.1934 5.03459 14.6519 4.63027 15.2458C4.22595 15.8397 4.00974 16.5415 4.00977 17.26V19C4.00977 19.2652 4.11512 19.5196 4.30266 19.7071C4.4902 19.8946 4.74455 20 5.00977 20H13.0098C13.275 20 13.5293 19.8946 13.7169 19.7071C13.9044 19.5196 14.0098 19.2652 14.0098 19V17.353C14.0099 16.6115 13.7846 15.8874 13.3639 15.2768C12.9431 14.6662 12.3467 14.1979 11.6538 13.934C11.5273 13.8901 11.4109 13.8213 11.3116 13.7316C11.2122 13.6419 11.1319 13.5332 11.0753 13.4119C11.0187 13.2905 10.9871 13.1591 10.9823 13.0253C10.9774 12.8916 10.9995 12.7582 11.0472 12.6331C11.0949 12.508 11.1672 12.3938 11.2598 12.2972C11.3524 12.2006 11.4635 12.1235 11.5865 12.0706C11.7095 12.0177 11.8418 11.9901 11.9757 11.9893C12.1095 11.9885 12.2422 12.0146 12.3658 12.066C13.4374 12.4742 14.3597 13.1983 15.0104 14.1425C15.6612 15.0867 16.0097 16.2063 16.0098 17.353V19C16.0098 19.7956 15.6937 20.5587 15.1311 21.1213C14.5685 21.6839 13.8054 22 13.0098 22H5.00977C4.21412 22 3.45105 21.6839 2.88845 21.1213C2.32584 20.5587 2.00977 19.7956 2.00977 19V17.26C2.0099 16.1402 2.34704 15.0463 2.97733 14.1206C3.60761 13.195 4.50187 12.4805 5.54377 12.07ZM9.00977 2C10.0706 2 11.088 2.42143 11.8382 3.17157C12.5883 3.92172 13.0098 4.93913 13.0098 6V8C13.0098 9.06087 12.5883 10.0783 11.8382 10.8284C11.088 11.5786 10.0706 12 9.00977 12C7.9489 12 6.93148 11.5786 6.18134 10.8284C5.43119 10.0783 5.00977 9.06087 5.00977 8V6C5.00977 4.93913 5.43119 3.92172 6.18134 3.17157C6.93148 2.42143 7.9489 2 9.00977 2V2ZM9.00977 4C8.47933 4 7.97062 4.21071 7.59555 4.58579C7.22048 4.96086 7.00977 5.46957 7.00977 6V8C7.00977 8.53043 7.22048 9.03914 7.59555 9.41421C7.97062 9.78929 8.47933 10 9.00977 10C9.5402 10 10.0489 9.78929 10.424 9.41421C10.7991 9.03914 11.0098 8.53043 11.0098 8V6C11.0098 5.46957 10.7991 4.96086 10.424 4.58579C10.0489 4.21071 9.5402 4 9.00977 4ZM19.4238 8L20.8378 9.414C21.0199 9.6026 21.1207 9.8552 21.1184 10.1174C21.1162 10.3796 21.011 10.6304 20.8256 10.8158C20.6402 11.0012 20.3894 11.1064 20.1272 11.1087C19.865 11.111 19.6124 11.0102 19.4238 10.828L18.0098 9.414L16.5958 10.828C16.5035 10.9235 16.3932 10.9997 16.2712 11.0521C16.1492 11.1045 16.0179 11.1321 15.8852 11.1333C15.7524 11.1344 15.6207 11.1091 15.4978 11.0588C15.3749 11.0085 15.2633 10.9343 15.1694 10.8404C15.0755 10.7465 15.0012 10.6349 14.9509 10.512C14.9007 10.3891 14.8754 10.2574 14.8765 10.1246C14.8777 9.99182 14.9053 9.8606 14.9577 9.7386C15.0101 9.61659 15.0863 9.50625 15.1818 9.414L16.5958 8L15.1818 6.586C14.9996 6.3974 14.8988 6.1448 14.9011 5.8826C14.9034 5.6204 15.0085 5.36959 15.1939 5.18418C15.3794 4.99877 15.6302 4.8936 15.8924 4.89133C16.1546 4.88905 16.4072 4.98984 16.5958 5.172L18.0098 6.586L19.4238 5.172C19.516 5.07649 19.6264 5.00031 19.7484 4.9479C19.8704 4.89549 20.0016 4.8679 20.1344 4.86675C20.2671 4.8656 20.3988 4.8909 20.5217 4.94118C20.6446 4.99146 20.7563 5.06571 20.8502 5.15961C20.9441 5.2535 21.0183 5.36515 21.0686 5.48805C21.1189 5.61094 21.1442 5.74262 21.143 5.8754C21.1419 6.00818 21.1143 6.1394 21.0619 6.2614C21.0095 6.38341 20.9333 6.49375 20.8378 6.586L19.4238 8Z" fill="#21272A"/>
</svg>
