<svg width="24" height="24" viewBox="0 0 24 24" fill="none" xmlns="http://www.w3.org/2000/svg">
<path d="M6.00977 2H18.0098C19.0706 2 20.088 2.42143 20.8382 3.17157C21.5883 3.92172 22.0098 4.93913 22.0098 6V18C22.0098 19.0609 21.5883 20.0783 20.8382 20.8284C20.088 21.5786 19.0706 22 18.0098 22H6.00977C4.9489 22 3.93148 21.5786 3.18134 20.8284C2.43119 20.0783 2.00977 19.0609 2.00977 18V6C2.00977 4.93913 2.43119 3.92172 3.18134 3.17157C3.93148 2.42143 4.9489 2 6.00977 2V2ZM6.00977 4C5.47933 4 4.97062 4.21071 4.59555 4.58579C4.22048 4.96086 4.00977 5.46957 4.00977 6V18C4.00977 18.5304 4.22048 19.0391 4.59555 19.4142C4.97062 19.7893 5.47933 20 6.00977 20H18.0098C18.5402 20 19.0489 19.7893 19.424 19.4142C19.7991 19.0391 20.0098 18.5304 20.0098 18V6C20.0098 5.46957 19.7991 4.96086 19.424 4.58579C19.0489 4.21071 18.5402 4 18.0098 4H6.00977ZM7.23877 20H6.00977C5.72971 20.0002 5.45273 19.9416 5.19677 19.828C5.42132 18.9832 5.8412 18.203 6.42256 17.5503C7.00393 16.8975 7.73052 16.3905 8.54377 16.07C8.66671 16.0175 8.79893 15.9903 8.93259 15.9898C9.06626 15.9893 9.19867 16.0156 9.32199 16.0672C9.44531 16.1188 9.55705 16.1945 9.65058 16.29C9.74412 16.3855 9.81756 16.4988 9.86657 16.6231C9.91558 16.7475 9.93916 16.8804 9.93592 17.014C9.93267 17.1477 9.90267 17.2793 9.84768 17.4011C9.7927 17.523 9.71384 17.6325 9.61578 17.7234C9.51772 17.8142 9.40244 17.8845 9.27677 17.93C8.81124 18.1134 8.38935 18.3924 8.03831 18.7489C7.68727 19.1055 7.4149 19.5317 7.23877 20ZM16.7508 20C16.5634 19.5292 16.2802 19.1024 15.9193 18.7467C15.5583 18.3911 15.1273 18.1143 14.6538 17.934C14.5273 17.8901 14.4109 17.8213 14.3116 17.7316C14.2122 17.6419 14.1319 17.5332 14.0753 17.4119C14.0187 17.2905 13.9871 17.1591 13.9823 17.0253C13.9774 16.8916 13.9995 16.7582 14.0472 16.6331C14.0949 16.508 14.1672 16.3938 14.2598 16.2972C14.3524 16.2006 14.4635 16.1235 14.5865 16.0706C14.7095 16.0177 14.8418 15.9901 14.9757 15.9893C15.1095 15.9885 15.2422 16.0146 15.3658 16.066C16.1938 16.3814 16.9362 16.8869 17.5332 17.5417C18.1302 18.1965 18.565 18.9824 18.8028 19.836C18.5524 19.9444 18.2825 20.0002 18.0098 20H16.7498H16.7508ZM12.0098 6C13.0706 6 14.088 6.42143 14.8382 7.17157C15.5883 7.92172 16.0098 8.93913 16.0098 10V12C16.0098 13.0609 15.5883 14.0783 14.8382 14.8284C14.088 15.5786 13.0706 16 12.0098 16C10.9489 16 9.93148 15.5786 9.18134 14.8284C8.43119 14.0783 8.00977 13.0609 8.00977 12V10C8.00977 8.93913 8.43119 7.92172 9.18134 7.17157C9.93148 6.42143 10.9489 6 12.0098 6ZM12.0098 8C11.4793 8 10.9706 8.21071 10.5956 8.58579C10.2205 8.96086 10.0098 9.46957 10.0098 10V12C10.0098 12.5304 10.2205 13.0391 10.5956 13.4142C10.9706 13.7893 11.4793 14 12.0098 14C12.5402 14 13.0489 13.7893 13.424 13.4142C13.7991 13.0391 14.0098 12.5304 14.0098 12V10C14.0098 9.46957 13.7991 8.96086 13.424 8.58579C13.0489 8.21071 12.5402 8 12.0098 8Z" fill="#21272A"/>
</svg>
