<svg width="24" height="24" viewBox="0 0 24 24" fill="none" xmlns="http://www.w3.org/2000/svg">
<path d="M5.54377 12.57C5.66671 12.5175 5.79893 12.4903 5.93259 12.4898C6.06626 12.4893 6.19867 12.5156 6.32199 12.5672C6.44531 12.6188 6.55705 12.6945 6.65058 12.79C6.74412 12.8855 6.81756 12.9988 6.86657 13.1231C6.91558 13.2475 6.93916 13.3804 6.93592 13.514C6.93267 13.6477 6.90267 13.7793 6.84768 13.9011C6.7927 14.023 6.71384 14.1325 6.61578 14.2234C6.51772 14.3142 6.40244 14.3845 6.27677 14.43C5.60831 14.6934 5.03459 15.1519 4.63027 15.7458C4.22595 16.3397 4.00974 17.0415 4.00977 17.76V19.5C4.00977 19.7652 4.11512 20.0196 4.30266 20.2071C4.4902 20.3946 4.74455 20.5 5.00977 20.5H13.0098C13.275 20.5 13.5293 20.3946 13.7169 20.2071C13.9044 20.0196 14.0098 19.7652 14.0098 19.5V17.853C14.0099 17.1115 13.7846 16.3874 13.3639 15.7768C12.9431 15.1662 12.3467 14.6979 11.6538 14.434C11.5273 14.3901 11.4109 14.3213 11.3116 14.2316C11.2122 14.1419 11.1319 14.0332 11.0753 13.9119C11.0187 13.7905 10.9871 13.6591 10.9823 13.5253C10.9774 13.3916 10.9995 13.2582 11.0472 13.1331C11.0949 13.008 11.1672 12.8938 11.2598 12.7972C11.3524 12.7006 11.4635 12.6235 11.5865 12.5706C11.7095 12.5177 11.8418 12.4901 11.9757 12.4893C12.1095 12.4885 12.2422 12.5146 12.3658 12.566C13.4374 12.9742 14.3597 13.6983 15.0104 14.6425C15.6612 15.5867 16.0097 16.7063 16.0098 17.853V19.5C16.0098 20.2956 15.6937 21.0587 15.1311 21.6213C14.5685 22.1839 13.8054 22.5 13.0098 22.5H5.00977C4.21412 22.5 3.45105 22.1839 2.88845 21.6213C2.32584 21.0587 2.00977 20.2956 2.00977 19.5V17.76C2.0099 16.6402 2.34704 15.5463 2.97733 14.6206C3.60761 13.695 4.50187 12.9805 5.54377 12.57ZM9.00977 2.5C10.0706 2.5 11.088 2.92143 11.8382 3.67157C12.5883 4.42172 13.0098 5.43913 13.0098 6.5V8.5C13.0098 9.56087 12.5883 10.5783 11.8382 11.3284C11.088 12.0786 10.0706 12.5 9.00977 12.5C7.9489 12.5 6.93148 12.0786 6.18134 11.3284C5.43119 10.5783 5.00977 9.56087 5.00977 8.5V6.5C5.00977 5.43913 5.43119 4.42172 6.18134 3.67157C6.93148 2.92143 7.9489 2.5 9.00977 2.5ZM9.00977 4.5C8.47933 4.5 7.97062 4.71071 7.59555 5.08579C7.22048 5.46086 7.00977 5.96957 7.00977 6.5V8.5C7.00977 9.03043 7.22048 9.53914 7.59555 9.91421C7.97062 10.2893 8.47933 10.5 9.00977 10.5C9.5402 10.5 10.0489 10.2893 10.424 9.91421C10.7991 9.53914 11.0098 9.03043 11.0098 8.5V6.5C11.0098 5.96957 10.7991 5.46086 10.424 5.08579C10.0489 4.71071 9.5402 4.5 9.00977 4.5ZM18.0098 21.5C17.7445 21.5 17.4902 21.3946 17.3027 21.2071C17.1151 21.0196 17.0098 20.7652 17.0098 20.5C17.0098 20.2348 17.1151 19.9804 17.3027 19.7929C17.4902 19.6054 17.7445 19.5 18.0098 19.5H19.0098C19.275 19.5 19.5293 19.3946 19.7169 19.2071C19.9044 19.0196 20.0098 18.7652 20.0098 18.5V16.662C20.0097 15.9512 19.786 15.2583 19.3704 14.6817C18.9547 14.105 18.3681 13.6738 17.6938 13.449C17.5691 13.4075 17.4539 13.3419 17.3547 13.2558C17.2554 13.1698 17.1741 13.0651 17.1153 12.9476C17.0565 12.8301 17.0214 12.7022 17.0121 12.5712C17.0027 12.4402 17.0193 12.3086 17.0608 12.184C17.1023 12.0594 17.1679 11.9441 17.2539 11.8449C17.34 11.7456 17.4447 11.6643 17.5622 11.6055C17.6796 11.5467 17.8075 11.5117 17.9385 11.5023C18.0696 11.493 18.2011 11.5095 18.3258 11.551C19.3986 11.9085 20.3316 12.5945 20.9928 13.5118C21.654 14.4291 22.0098 15.5312 22.0098 16.662V18.5C22.0098 19.2956 21.6937 20.0587 21.1311 20.6213C20.5685 21.1839 19.8054 21.5 19.0098 21.5H18.0098ZM15.0098 3.5C14.7445 3.5 14.4902 3.39464 14.3027 3.20711C14.1151 3.01957 14.0098 2.76522 14.0098 2.5C14.0098 2.23478 14.1151 1.98043 14.3027 1.79289C14.4902 1.60536 14.7445 1.5 15.0098 1.5C16.0706 1.5 17.088 1.92143 17.8382 2.67157C18.5883 3.42172 19.0098 4.43913 19.0098 5.5V7.5C19.0098 8.56087 18.5883 9.57828 17.8382 10.3284C17.088 11.0786 16.0706 11.5 15.0098 11.5C14.7445 11.5 14.4902 11.3946 14.3027 11.2071C14.1151 11.0196 14.0098 10.7652 14.0098 10.5C14.0098 10.2348 14.1151 9.98043 14.3027 9.79289C14.4902 9.60536 14.7445 9.5 15.0098 9.5C15.5402 9.5 16.0489 9.28929 16.424 8.91421C16.7991 8.53914 17.0098 8.03043 17.0098 7.5V5.5C17.0098 4.96957 16.7991 4.46086 16.424 4.08579C16.0489 3.71071 15.5402 3.5 15.0098 3.5Z" fill="#21272A"/>
</svg>
