<svg width="24" height="24" viewBox="0 0 24 24" fill="none" xmlns="http://www.w3.org/2000/svg">
<path d="M16.7198 12.006C16.7078 11.973 16.6898 11.943 16.6738 11.91C16.4908 12.005 16.3188 12.101 16.1408 12.183C15.9658 12.263 15.7878 12.335 15.6068 12.398C15.4218 12.462 15.2328 12.512 15.0468 12.566C15.0478 12.583 15.0468 12.594 15.0498 12.604C15.0578 12.628 15.0658 12.653 15.0758 12.677C15.328 13.3276 15.4575 14.0192 15.4578 14.717C15.4676 15.3 15.3867 15.8809 15.2178 16.439C14.9598 17.282 14.5428 18.037 13.9278 18.672C13.0308 19.599 11.9278 20.098 10.6468 20.214C10.5288 20.225 10.4088 20.224 10.2808 20.228C10.2858 20.199 10.2848 20.193 10.2878 20.191C10.3548 20.141 10.4218 20.092 10.4878 20.041C11.8155 19.0455 12.8905 17.7517 13.6258 16.264C14.2381 15.0251 14.568 13.6658 14.5918 12.284C14.6068 11.601 14.5468 10.924 14.4288 10.252C14.2926 9.49008 14.0867 8.74227 13.8138 8.018C13.7984 7.98042 13.7811 7.9437 13.7618 7.908C13.7538 7.84824 13.7451 7.78857 13.7358 7.729C13.7358 7.709 13.7358 7.671 13.7338 7.663C13.6693 7.03302 13.5508 6.40973 13.3798 5.8C13.1521 4.97271 12.8022 4.18403 12.3418 3.46C12.0262 2.95757 11.6392 2.5038 11.1928 2.113C11.1498 2.077 11.1048 2.043 11.0518 2C11.0498 2.028 11.0438 2.045 11.0488 2.056C11.0808 2.116 11.1158 2.173 11.1498 2.232C11.938 3.58725 12.6303 4.99603 13.2218 6.448C13.3848 6.848 13.5328 7.252 13.6878 7.654L13.7338 7.738L13.7588 7.916C13.7668 8.128 13.7788 8.346 13.7828 8.534C13.8103 9.63542 13.7703 10.7375 13.6628 11.834C13.6125 12.3405 13.5452 12.8451 13.4608 13.347C13.3558 13.9771 13.2138 14.6005 13.0358 15.214C12.8223 15.9692 12.5293 16.6996 12.1618 17.393C11.8363 18.0098 11.4181 18.5731 10.9218 19.063C10.4588 19.513 9.93176 19.867 9.33376 20.115C9.27246 20.1419 9.20426 20.1489 9.13876 20.135C8.33455 19.981 7.57924 19.6356 6.93676 19.128C6.38197 18.6863 5.92441 18.1348 5.59276 17.508C5.23133 16.8446 5.00753 16.115 4.93476 15.363C4.89253 14.9176 4.89924 14.4689 4.95476 14.025C5.01692 13.4826 5.16054 12.9526 5.38076 12.453C5.71364 11.7163 6.20019 11.0593 6.80776 10.526C7.26982 10.1054 7.80635 9.77471 8.38976 9.551C8.76944 9.40903 9.16504 9.31399 9.56776 9.268C9.92442 9.22796 10.2841 9.22293 10.6418 9.253C11.0988 9.288 11.5448 9.387 11.9738 9.554C12.0108 9.569 12.0498 9.578 12.1048 9.594C12.1428 9.296 12.2018 9.012 12.2898 8.736C12.3825 8.4609 12.4927 8.19201 12.6198 7.931C12.5528 7.878 12.4798 7.866 12.4118 7.844C11.832 7.6604 11.2311 7.55184 10.6238 7.521C9.9747 7.48327 9.32346 7.5283 8.68576 7.655C7.9248 7.80477 7.19777 8.09287 6.54076 8.505C5.91693 8.90156 5.35803 9.39199 4.88376 9.959C3.81576 11.213 3.24576 12.666 3.15776 14.309C3.13226 14.7816 3.14933 15.2555 3.20876 15.725C3.29276 16.389 3.46076 17.029 3.72676 17.643C4.15411 18.6227 4.7847 19.5004 5.57676 20.218C6.16476 20.758 6.83376 21.171 7.57976 21.456C8.27119 21.7163 8.99964 21.8648 9.73776 21.896C10.4232 21.9351 11.1109 21.8857 11.7838 21.749C12.6875 21.5647 13.5401 21.1852 14.2818 20.637C14.8601 20.2022 15.371 19.6843 15.7978 19.1C16.647 17.9705 17.1382 16.6124 17.2078 15.201C17.2424 14.6144 17.2119 14.0258 17.1168 13.446C17.0368 12.9532 16.9041 12.4704 16.7208 12.006H16.7198Z" fill="#21272A"/>
<path d="M20.0798 4.23C19.9328 3.67205 19.7133 3.1358 19.4268 2.635C19.3858 2.563 19.3398 2.495 19.2868 2.41L19.1828 2.598C18.9828 2.978 18.7328 3.32 18.4228 3.619C17.9548 4.071 17.4148 4.399 16.7778 4.555C16.7228 4.568 16.6678 4.584 16.6118 4.6C16.1416 4.73136 15.6889 4.91905 15.2638 5.159C14.9746 5.32465 14.7208 5.5455 14.5168 5.809C14.1372 6.28566 13.9449 6.8845 13.9758 7.493C13.9978 8.005 14.1448 8.483 14.3918 8.932C14.4038 8.953 14.4218 8.972 14.4468 9.006C16.4608 8.512 17.9748 7.359 19.0208 5.536C19.0168 5.598 19.0188 5.628 19.0118 5.656C18.9778 5.814 18.9218 5.964 18.8508 6.109C18.6898 6.42413 18.4866 6.71582 18.2468 6.976C17.8368 7.436 17.3718 7.835 16.8838 8.206C16.2918 8.658 15.6718 9.066 15.0288 9.439C14.9818 9.466 14.9258 9.484 14.8898 9.544C14.9768 9.622 15.0598 9.7 15.1468 9.774C15.4768 10.049 15.8358 10.274 16.2468 10.409C16.6338 10.536 17.0268 10.571 17.4298 10.501C17.9081 10.4157 18.3536 10.1998 18.7168 9.877C19.0788 9.565 19.3638 9.189 19.6038 8.779C19.7438 8.541 19.8728 8.298 19.9618 8.036C20.3753 6.80634 20.4164 5.48191 20.0798 4.229V4.23Z" fill="#21272A"/>
</svg>
