<svg width="24" height="24" viewBox="0 0 24 24" fill="none" xmlns="http://www.w3.org/2000/svg">
<path d="M19.2998 10.107C19.3238 7.215 16.8608 4.564 13.8098 4.197C13.7438 4.18878 13.6781 4.17878 13.6128 4.167C13.4594 4.13764 13.3039 4.12092 13.1478 4.117C12.5218 4.117 12.3548 4.557 12.3108 4.818C12.2678 5.073 12.3088 5.288 12.4318 5.455C12.6388 5.736 13.0038 5.786 13.2968 5.826C13.3818 5.838 13.4628 5.849 13.5308 5.864C16.2728 6.477 17.1958 7.44 17.6468 10.159C17.6578 10.225 17.6628 10.307 17.6688 10.394C17.6888 10.719 17.7288 11.395 18.4558 11.395C18.5158 11.395 18.5818 11.39 18.6498 11.38C19.3258 11.277 19.3048 10.659 19.2948 10.362C19.2918 10.278 19.2888 10.199 19.2968 10.146C19.2984 10.1327 19.299 10.1194 19.2988 10.106L19.2998 10.107Z" fill="#21272A"/>
<path d="M12.9698 3.136C13.0518 3.142 13.1278 3.148 13.1918 3.157C17.6948 3.85 19.7658 5.983 20.3388 10.521C20.3488 10.598 20.3508 10.692 20.3518 10.791C20.3578 11.146 20.3698 11.884 21.1618 11.899H21.1858C21.4348 11.899 21.6318 11.824 21.7738 11.676C22.0198 11.419 22.0038 11.036 21.9888 10.728C21.9858 10.652 21.9828 10.581 21.9828 10.518C22.0408 5.878 18.0228 1.669 13.3868 1.513C13.3668 1.513 13.3488 1.513 13.3308 1.516C13.3125 1.5183 13.2941 1.5193 13.2758 1.519C13.2288 1.519 13.1728 1.515 13.1118 1.511C13.0398 1.506 12.9568 1.5 12.8718 1.5C12.1338 1.5 11.9938 2.025 11.9758 2.338C11.9348 3.061 12.6338 3.112 12.9698 3.136ZM20.1218 16.386C20.0252 16.3126 19.9295 16.2379 19.8348 16.162C19.3428 15.766 18.8198 15.402 18.3148 15.049L17.9998 14.829C17.3518 14.374 16.7698 14.153 16.2198 14.153C15.4778 14.153 14.8318 14.563 14.2978 15.37C14.0618 15.728 13.7748 15.902 13.4218 15.902C13.1766 15.8934 12.936 15.8331 12.7158 15.725C10.6258 14.777 9.13177 13.323 8.27777 11.404C7.86477 10.476 7.99877 9.87 8.72477 9.376C9.13777 9.096 9.90477 8.575 9.85177 7.576C9.78977 6.443 7.28877 3.032 6.23477 2.645C5.78418 2.48064 5.29028 2.47923 4.83877 2.641C3.62777 3.048 2.75977 3.764 2.32477 4.709C1.90477 5.623 1.92477 6.696 2.37877 7.812C3.69377 11.039 5.54177 13.853 7.87277 16.175C10.1538 18.448 12.9578 20.309 16.2058 21.708C16.4988 21.834 16.8058 21.903 17.0308 21.953C17.1068 21.97 17.1728 21.985 17.2208 21.998C17.2472 22.0051 17.2744 22.0088 17.3018 22.009H17.3278C18.8558 22.009 20.6908 20.613 21.2538 19.022C21.7478 17.628 20.8458 16.939 20.1218 16.386ZM13.6458 6.823C13.3848 6.829 12.8398 6.843 12.6488 7.397C12.5588 7.657 12.5698 7.881 12.6808 8.066C12.8428 8.336 13.1538 8.42 13.4358 8.466C14.4608 8.63 14.9878 9.196 15.0928 10.249C15.1418 10.739 15.4728 11.082 15.8958 11.082C15.9279 11.082 15.9599 11.0799 15.9918 11.076C16.5018 11.016 16.7488 10.641 16.7268 9.962C16.7348 9.254 16.3648 8.45 15.7338 7.81C15.1018 7.168 14.3398 6.806 13.6458 6.823Z" fill="#21272A"/>
</svg>
