<svg width="24" height="24" viewBox="0 0 24 24" fill="none" xmlns="http://www.w3.org/2000/svg">
<path d="M15.6538 11.404C15.6658 9.912 14.4348 8.544 12.9098 8.355L12.8098 8.34C12.7333 8.32481 12.6557 8.31611 12.5778 8.314C12.2648 8.314 12.1818 8.54 12.1598 8.675C12.1473 8.73106 12.1462 8.78906 12.1565 8.84557C12.1668 8.90207 12.1883 8.95594 12.2198 9.004C12.3238 9.149 12.5058 9.174 12.6518 9.196C12.6948 9.202 12.7358 9.207 12.7688 9.216C14.1398 9.531 14.6018 10.028 14.8268 11.431C14.8328 11.466 14.8348 11.508 14.8368 11.553C14.8468 11.72 14.8678 12.069 15.2318 12.069C15.2618 12.069 15.2938 12.067 15.3278 12.061C15.6668 12.008 15.6558 11.689 15.6508 11.536C15.6482 11.499 15.6482 11.462 15.6508 11.425C15.6519 11.4184 15.6525 11.4117 15.6528 11.405L15.6538 11.404Z" fill="#21272A"/>
<path d="M12.4898 7.807C12.5298 7.81 12.5698 7.813 12.6008 7.818C14.8508 8.176 15.8868 9.276 16.1738 11.618C16.1788 11.658 16.1788 11.706 16.1798 11.758C16.1828 11.941 16.1888 12.321 16.5848 12.329H16.5968C16.6511 12.3319 16.7055 12.3231 16.7562 12.3033C16.8069 12.2835 16.8528 12.253 16.8908 12.214C17.0138 12.081 17.0058 11.884 16.9988 11.724C16.9968 11.686 16.9948 11.649 16.9958 11.617C17.0238 9.222 15.0158 7.05 12.6978 6.97L12.6698 6.971C12.6608 6.97231 12.6518 6.97298 12.6428 6.973C12.6198 6.973 12.5908 6.971 12.5608 6.969C12.5209 6.96535 12.4808 6.96335 12.4408 6.963C12.0718 6.963 12.0018 7.233 11.9928 7.395C11.9728 7.768 12.3218 7.795 12.4898 7.807ZM16.0648 14.644C16.0166 14.6063 15.9689 14.5679 15.9218 14.529C15.6758 14.325 15.4138 14.137 15.1618 13.955C15.109 13.9171 15.0564 13.8791 15.0038 13.841C14.6798 13.607 14.3888 13.492 14.1138 13.492C13.7438 13.492 13.4208 13.704 13.1538 14.121C13.0358 14.305 12.8918 14.395 12.7158 14.395C12.5929 14.3906 12.4724 14.3596 12.3628 14.304C11.3178 13.814 10.5708 13.064 10.1438 12.074C9.93776 11.594 10.0038 11.282 10.3678 11.027C10.5738 10.883 10.9578 10.614 10.9308 10.099C10.9008 9.514 9.64976 7.754 9.12276 7.554C8.89796 7.46916 8.65005 7.46845 8.42476 7.552C7.81976 7.762 7.38476 8.132 7.16776 8.619C6.95776 9.091 6.96776 9.644 7.19576 10.22C7.85276 11.886 8.77576 13.338 9.94176 14.536C11.0818 15.709 12.4838 16.669 14.1078 17.391C14.2538 17.456 14.4078 17.491 14.5198 17.517L14.6148 17.541C14.6278 17.5447 14.6412 17.5468 14.6548 17.547H14.6678C15.4318 17.547 16.3488 16.827 16.6308 16.005C16.8778 15.285 16.4268 14.93 16.0648 14.645V14.644ZM12.8278 9.71C12.6978 9.713 12.4248 9.72 12.3288 10.006C12.2848 10.14 12.2898 10.256 12.3448 10.351C12.4258 10.491 12.5818 10.534 12.7228 10.557C13.2348 10.642 13.4988 10.935 13.5508 11.477C13.5758 11.731 13.7408 11.907 13.9528 11.907C13.9688 11.9073 13.9848 11.9067 14.0008 11.905C14.2558 11.873 14.3788 11.68 14.3678 11.33C14.3718 10.964 14.1868 10.55 13.8718 10.22C13.5558 9.888 13.1748 9.701 12.8278 9.71Z" fill="#21272A"/>
<path d="M6.00977 4C5.47933 4 4.97062 4.21071 4.59555 4.58579C4.22048 4.96086 4.00977 5.46957 4.00977 6V18C4.00977 18.5304 4.22048 19.0391 4.59555 19.4142C4.97062 19.7893 5.47933 20 6.00977 20H18.0098C18.5402 20 19.0489 19.7893 19.424 19.4142C19.7991 19.0391 20.0098 18.5304 20.0098 18V6C20.0098 5.46957 19.7991 4.96086 19.424 4.58579C19.0489 4.21071 18.5402 4 18.0098 4H6.00977ZM6.00977 2H18.0098C19.0706 2 20.088 2.42143 20.8382 3.17157C21.5883 3.92172 22.0098 4.93913 22.0098 6V18C22.0098 19.0609 21.5883 20.0783 20.8382 20.8284C20.088 21.5786 19.0706 22 18.0098 22H6.00977C4.9489 22 3.93148 21.5786 3.18134 20.8284C2.43119 20.0783 2.00977 19.0609 2.00977 18V6C2.00977 4.93913 2.43119 3.92172 3.18134 3.17157C3.93148 2.42143 4.9489 2 6.00977 2V2Z" fill="#21272A"/>
</svg>
