<svg width="24" height="24" viewBox="0 0 24 24" fill="none" xmlns="http://www.w3.org/2000/svg">
<path d="M6.00977 13.5C5.47933 13.5 4.97062 13.7107 4.59555 14.0858C4.22048 14.4609 4.00977 14.9696 4.00977 15.5V17.5C4.00977 18.0304 4.22048 18.5391 4.59555 18.9142C4.97062 19.2893 5.47933 19.5 6.00977 19.5H12.0098C12.5402 19.5 13.0489 19.2893 13.424 18.9142C13.7991 18.5391 14.0098 18.0304 14.0098 17.5V15.5C14.0098 14.9696 13.7991 14.4609 13.424 14.0858C13.0489 13.7107 12.5402 13.5 12.0098 13.5H6.00977ZM15.7078 13.973L17.5958 12.086C17.9708 11.7109 18.4794 11.5001 19.0098 11.5H19.5958C20.1262 11.5 20.6349 11.7107 21.01 12.0858C21.3851 12.4609 21.5958 12.9696 21.5958 13.5V19.5C21.5958 20.0304 21.3851 20.5391 21.01 20.9142C20.6349 21.2893 20.1262 21.5 19.5958 21.5H19.0098C18.4794 21.4999 17.9708 21.2891 17.5958 20.914L15.7078 19.027C15.4053 19.7589 14.8925 20.3846 14.2342 20.8248C13.5759 21.2651 12.8017 21.5001 12.0098 21.5H6.00977C4.9489 21.5 3.93148 21.0786 3.18134 20.3284C2.43119 19.5783 2.00977 18.5609 2.00977 17.5V15.5C2.00977 14.4391 2.43119 13.4217 3.18134 12.6716C3.93148 11.9214 4.9489 11.5 6.00977 11.5H12.0098C12.8017 11.4999 13.5759 11.7349 14.2342 12.1752C14.8925 12.6154 15.4053 13.2411 15.7078 13.973ZM19.0098 19.5H19.5958V13.5H19.0098L16.0098 16.5L19.0098 19.5ZM11.2688 4.879C11.9089 4.21435 12.7379 3.76257 13.6434 3.58487C14.5489 3.40717 15.4871 3.51214 16.331 3.88556C17.1748 4.25898 17.8835 4.8828 18.3609 5.67247C18.8383 6.46215 19.0614 7.37951 19 8.30023C18.9385 9.22096 18.5955 10.1005 18.0174 10.8198C17.4393 11.539 16.6541 12.0632 15.7681 12.3212C14.8821 12.5792 13.9383 12.5586 13.0644 12.2621C12.1905 11.9657 11.4289 11.4078 10.8828 10.664C10.212 11.4849 9.29766 12.0714 8.27181 12.3387C7.24597 12.606 6.16171 12.5404 5.1756 12.1512C4.1895 11.7621 3.3526 11.0696 2.78576 10.1738C2.21892 9.27796 1.95148 8.22515 2.02205 7.1674C2.09263 6.10964 2.49758 5.1017 3.17841 4.28911C3.85924 3.47653 4.78073 2.90138 5.80979 2.6467C6.83885 2.39203 7.92222 2.47102 8.90346 2.87227C9.88469 3.27352 10.713 3.97625 11.2688 4.879ZM7.00977 18.5C6.74455 18.5 6.4902 18.3946 6.30266 18.2071C6.11512 18.0196 6.00977 17.7652 6.00977 17.5C6.00977 17.2348 6.11512 16.9804 6.30266 16.7929C6.4902 16.6054 6.74455 16.5 7.00977 16.5C7.27498 16.5 7.52934 16.6054 7.71687 16.7929C7.90441 16.9804 8.00977 17.2348 8.00977 17.5C8.00977 17.7652 7.90441 18.0196 7.71687 18.2071C7.52934 18.3946 7.27498 18.5 7.00977 18.5ZM7.00977 10.5C7.80542 10.5 8.56848 10.1839 9.13109 9.62132C9.6937 9.05871 10.0098 8.29565 10.0098 7.5C10.0098 6.70435 9.6937 5.94129 9.13109 5.37868C8.56848 4.81607 7.80542 4.5 7.00977 4.5C6.21412 4.5 5.45105 4.81607 4.88845 5.37868C4.32584 5.94129 4.00977 6.70435 4.00977 7.5C4.00977 8.29565 4.32584 9.05871 4.88845 9.62132C5.45105 10.1839 6.21412 10.5 7.00977 10.5ZM14.5098 10.5C15.1728 10.5 15.8087 10.2366 16.2775 9.76776C16.7464 9.29892 17.0098 8.66304 17.0098 8C17.0098 7.33696 16.7464 6.70107 16.2775 6.23223C15.8087 5.76339 15.1728 5.5 14.5098 5.5C13.8467 5.5 13.2108 5.76339 12.742 6.23223C12.2732 6.70107 12.0098 7.33696 12.0098 8C12.0098 8.66304 12.2732 9.29892 12.742 9.76776C13.2108 10.2366 13.8467 10.5 14.5098 10.5Z" fill="#21272A"/>
</svg>
