<svg width="24" height="24" viewBox="0 0 24 24" fill="none" xmlns="http://www.w3.org/2000/svg">
<path d="M6.00977 8C5.47933 8 4.97062 8.21071 4.59555 8.58579C4.22048 8.96086 4.00977 9.46957 4.00977 10V14C4.00977 14.5304 4.22048 15.0391 4.59555 15.4142C4.97062 15.7893 5.47933 16 6.00977 16H12.0098C12.5402 16 13.0489 15.7893 13.424 15.4142C13.7991 15.0391 14.0098 14.5304 14.0098 14V10C14.0098 9.46957 13.7991 8.96086 13.424 8.58579C13.0489 8.21071 12.5402 8 12.0098 8H6.00977ZM15.9898 9.605L18.0098 7.585C18.3849 7.21027 18.8935 6.99985 19.4238 7H20.0098C20.5402 7 21.0489 7.21071 21.424 7.58579C21.7991 7.96086 22.0098 8.46957 22.0098 9V15C22.0098 15.5304 21.7991 16.0391 21.424 16.4142C21.0489 16.7893 20.5402 17 20.0098 17H19.4238C18.8934 16.9999 18.3848 16.7891 18.0098 16.414L15.9898 14.395C15.8918 15.3826 15.4302 16.2984 14.6946 16.9646C13.9591 17.6309 13.0022 17.9999 12.0098 18H6.00977C4.9489 18 3.93148 17.5786 3.18134 16.8284C2.43119 16.0783 2.00977 15.0609 2.00977 14V10C2.00977 8.93913 2.43119 7.92172 3.18134 7.17157C3.93148 6.42143 4.9489 6 6.00977 6H12.0098C13.0022 6.00011 13.9591 6.36913 14.6946 7.03536C15.4302 7.70159 15.8918 8.61745 15.9898 9.605ZM19.4248 15H20.0098V9H19.4238L16.4238 12L19.4238 15H19.4248ZM7.00977 14C6.74455 14 6.4902 13.8946 6.30266 13.7071C6.11512 13.5196 6.00977 13.2652 6.00977 13C6.00977 12.7348 6.11512 12.4804 6.30266 12.2929C6.4902 12.1054 6.74455 12 7.00977 12C7.27498 12 7.52934 12.1054 7.71687 12.2929C7.90441 12.4804 8.00977 12.7348 8.00977 13C8.00977 13.2652 7.90441 13.5196 7.71687 13.7071C7.52934 13.8946 7.27498 14 7.00977 14Z" fill="#21272A"/>
</svg>
