<svg width="24" height="24" viewBox="0 0 24 24" fill="none" xmlns="http://www.w3.org/2000/svg">
<path d="M16.5958 8.21599C16.3538 7.95199 16.0028 7.81199 15.5538 7.79899C14.2868 7.75699 13.3898 8.43899 12.8898 9.82299C12.877 9.8585 12.8741 9.89683 12.8815 9.93385C12.8889 9.97086 12.9063 10.0051 12.9318 10.033C12.9566 10.061 12.9888 10.0814 13.0247 10.0921C13.0606 10.1027 13.0987 10.103 13.1348 10.093C13.2778 10.053 13.4208 10.033 13.5588 10.033C13.7438 10.033 13.9888 10.067 14.1118 10.23C14.2058 10.356 14.2188 10.544 14.1498 10.79C14.0918 10.997 13.7928 11.551 13.4238 12.138C12.9738 12.853 12.7238 13.173 12.6538 13.173C12.4158 13.173 11.5568 9.32799 11.5338 9.24299C11.2868 8.36299 11.1638 7.91999 10.3638 7.91999C9.75277 7.91999 8.39177 9.04599 7.27377 10.027L7.10377 10.177C7.05178 10.222 7.0189 10.2851 7.01184 10.3535C7.00477 10.4218 7.02406 10.4903 7.06577 10.545L7.27377 10.816C7.31536 10.871 7.37684 10.9076 7.44506 10.9179C7.51327 10.9282 7.5828 10.9113 7.63877 10.871L7.64977 10.862C8.01177 10.602 8.35277 10.357 8.61077 10.344C8.89077 10.33 9.13377 10.772 9.42377 11.824C9.97577 13.868 10.8138 16.304 11.6748 16.304C12.5748 16.304 13.6478 15.534 15.0348 13.71C16.2898 12.06 16.9618 10.751 17.0048 9.79899C17.0378 9.07899 16.8998 8.54699 16.5958 8.21599Z" fill="#21272A"/>
<path d="M6.00977 4C5.47933 4 4.97062 4.21071 4.59555 4.58579C4.22048 4.96086 4.00977 5.46957 4.00977 6V18C4.00977 18.5304 4.22048 19.0391 4.59555 19.4142C4.97062 19.7893 5.47933 20 6.00977 20H18.0098C18.5402 20 19.0489 19.7893 19.424 19.4142C19.7991 19.0391 20.0098 18.5304 20.0098 18V6C20.0098 5.46957 19.7991 4.96086 19.424 4.58579C19.0489 4.21071 18.5402 4 18.0098 4H6.00977ZM6.00977 2H18.0098C19.0706 2 20.088 2.42143 20.8382 3.17157C21.5883 3.92172 22.0098 4.93913 22.0098 6V18C22.0098 19.0609 21.5883 20.0783 20.8382 20.8284C20.088 21.5786 19.0706 22 18.0098 22H6.00977C4.9489 22 3.93148 21.5786 3.18134 20.8284C2.43119 20.0783 2.00977 19.0609 2.00977 18V6C2.00977 4.93913 2.43119 3.92172 3.18134 3.17157C3.93148 2.42143 4.9489 2 6.00977 2V2Z" fill="#21272A"/>
</svg>
