<svg width="24" height="24" viewBox="0 0 24 24" fill="none" xmlns="http://www.w3.org/2000/svg">
<path d="M21.1388 4.349C20.6558 3.823 19.9558 3.542 19.0598 3.516C16.5298 3.433 14.7408 4.793 13.7428 7.556C13.7169 7.62691 13.711 7.70355 13.7256 7.7776C13.7402 7.85164 13.7749 7.92026 13.8258 7.976C13.8756 8.03136 13.94 8.07172 14.0115 8.09256C14.083 8.1134 14.159 8.1139 14.2308 8.094C14.5188 8.014 14.8028 7.974 15.0778 7.974C15.4468 7.974 15.9378 8.042 16.1808 8.368C16.3688 8.618 16.3938 8.994 16.2568 9.484C16.1418 9.897 15.5458 11.004 14.8078 12.174C13.9098 13.601 13.4138 14.241 13.2708 14.241C12.7968 14.241 11.0838 6.568 11.0368 6.399C10.5448 4.641 10.2988 3.76 8.69976 3.76C7.48376 3.758 4.76776 6.004 2.53776 7.961L2.19576 8.26C2.09208 8.35023 2.0267 8.47659 2.01295 8.61334C1.9992 8.75009 2.03811 8.88694 2.12176 8.996L2.53676 9.536C2.61971 9.64551 2.7422 9.71822 2.87806 9.73858C3.01391 9.75895 3.15234 9.72537 3.26376 9.645L3.28676 9.628C4.00976 9.111 4.68976 8.621 5.20476 8.594C5.76376 8.567 6.24876 9.449 6.82676 11.549C7.92876 15.627 9.60176 20.489 11.3198 20.489C13.1138 20.489 15.2548 18.951 18.0228 15.313C20.5278 12.019 21.8688 9.408 21.9558 7.507C22.0198 6.072 21.7458 5.009 21.1388 4.349Z" fill="#21272A"/>
</svg>
