<svg width="24" height="24" viewBox="0 0 24 24" fill="none" xmlns="http://www.w3.org/2000/svg">
<path d="M16.5958 8.21599C16.3538 7.95199 16.0028 7.81199 15.5538 7.79899C14.2868 7.75699 13.3898 8.43899 12.8898 9.82299C12.877 9.8585 12.8741 9.89683 12.8815 9.93385C12.8889 9.97086 12.9063 10.0051 12.9318 10.033C12.9566 10.061 12.9888 10.0814 13.0247 10.0921C13.0606 10.1027 13.0987 10.103 13.1348 10.093C13.2778 10.053 13.4208 10.033 13.5588 10.033C13.7438 10.033 13.9888 10.067 14.1118 10.23C14.2058 10.356 14.2188 10.544 14.1498 10.79C14.0918 10.997 13.7928 11.551 13.4238 12.138C12.9738 12.853 12.7238 13.173 12.6538 13.173C12.4158 13.173 11.5568 9.32799 11.5338 9.24299C11.2868 8.36299 11.1638 7.91999 10.3638 7.91999C9.75277 7.91999 8.39177 9.04599 7.27377 10.027L7.10377 10.177C7.05178 10.222 7.0189 10.2851 7.01184 10.3535C7.00477 10.4218 7.02406 10.4903 7.06577 10.545L7.27377 10.816C7.31536 10.871 7.37684 10.9076 7.44506 10.9179C7.51327 10.9282 7.5828 10.9113 7.63877 10.871L7.64977 10.862C8.01177 10.602 8.35277 10.357 8.61077 10.344C8.89077 10.33 9.13377 10.772 9.42377 11.824C9.97577 13.868 10.8138 16.304 11.6748 16.304C12.5748 16.304 13.6478 15.534 15.0348 13.71C16.2898 12.06 16.9618 10.751 17.0048 9.79899C17.0378 9.07899 16.8998 8.54699 16.5958 8.21599Z" fill="#21272A"/>
<path d="M12.0098 20C14.1315 20 16.1663 19.1571 17.6666 17.6569C19.1669 16.1566 20.0098 14.1217 20.0098 12C20.0098 9.87827 19.1669 7.84344 17.6666 6.34315C16.1663 4.84285 14.1315 4 12.0098 4C9.88803 4 7.8532 4.84285 6.35291 6.34315C4.85262 7.84344 4.00977 9.87827 4.00977 12C4.00977 14.1217 4.85262 16.1566 6.35291 17.6569C7.8532 19.1571 9.88803 20 12.0098 20ZM12.0098 22C6.48677 22 2.00977 17.523 2.00977 12C2.00977 6.477 6.48677 2 12.0098 2C17.5328 2 22.0098 6.477 22.0098 12C22.0098 17.523 17.5328 22 12.0098 22Z" fill="#21272A"/>
</svg>
