<svg width="24" height="24" viewBox="0 0 24 24" fill="none" xmlns="http://www.w3.org/2000/svg">
<path d="M16.6228 11.925C16.6133 11.8528 16.576 11.7871 16.5188 11.7419C16.4617 11.6967 16.3892 11.6756 16.3168 11.683C16.2046 11.6963 16.0917 11.7033 15.9788 11.704C15.2508 11.704 14.2118 11.648 13.5698 11.21C13.3367 11.0506 13.1465 10.8364 13.0159 10.5861C12.8853 10.3358 12.8183 10.0573 12.8208 9.77499C12.8178 9.29499 12.9288 8.93999 13.1528 8.72099C13.2978 8.57918 13.4901 8.49586 13.6928 8.48699C13.7839 8.49807 13.8714 8.52977 13.9485 8.57966C14.0256 8.62956 14.0903 8.69636 14.1378 8.77499C14.2738 8.97899 14.4418 9.44499 14.2308 10.399C14.2199 10.4478 14.2268 10.4989 14.2503 10.5431C14.2738 10.5873 14.3122 10.6217 14.3588 10.64C14.6918 10.766 15.1118 10.818 15.4368 10.838C15.5368 10.844 15.6268 10.775 15.6468 10.675C15.7448 10.215 15.7858 9.78899 15.7688 9.40099C15.7428 8.83299 15.5948 8.34099 15.3288 7.94299C14.9628 7.39499 14.3798 7.04799 13.7688 7.01399C13.3308 6.98999 12.6768 7.14599 12.1558 7.65499C11.7958 8.00599 11.3698 8.66099 11.3788 9.78699C11.3778 10.2442 11.4747 10.6963 11.6629 11.113C11.851 11.5297 12.1262 11.9014 12.4698 12.203C12.6828 12.39 12.9558 12.581 13.3008 12.746C12.7737 13.6955 12.1189 14.5683 11.3548 15.34C10.2598 14.45 9.61077 12.784 9.25077 11.471C8.98924 10.5 8.80664 9.50943 8.70477 8.50899C8.6994 8.44372 8.66862 8.38316 8.61907 8.34033C8.56951 8.29751 8.50513 8.27584 8.43977 8.27999L7.96377 8.31299L8.68377 8.26399L7.49677 8.34499C7.46303 8.34773 7.43019 8.35721 7.40018 8.37287C7.37017 8.38853 7.34361 8.41005 7.32207 8.43616C7.30053 8.46227 7.28445 8.49243 7.27478 8.52487C7.26511 8.5573 7.26204 8.59135 7.26577 8.62499C7.31577 9.15599 7.46877 10.428 7.85477 11.843C8.15177 12.933 8.52777 13.884 8.97277 14.67C9.55677 15.702 10.2648 16.46 11.0788 16.92C11.2049 16.9915 11.3499 17.0225 11.4942 17.0089C11.6385 16.9953 11.7752 16.9378 11.8858 16.844C11.9118 16.822 12.5298 16.299 13.2708 15.38C13.83 14.687 14.3187 13.94 14.7298 13.15C15.3195 13.2202 15.9155 13.2182 16.5048 13.144C16.542 13.1391 16.5779 13.1268 16.6103 13.1079C16.6427 13.089 16.6711 13.0639 16.6937 13.0339C16.7163 13.0039 16.7327 12.9698 16.742 12.9334C16.7513 12.897 16.7533 12.8591 16.7478 12.822L16.6228 11.925Z" fill="#21272A"/>
<path d="M6.00977 4C5.47933 4 4.97062 4.21071 4.59555 4.58579C4.22048 4.96086 4.00977 5.46957 4.00977 6V18C4.00977 18.5304 4.22048 19.0391 4.59555 19.4142C4.97062 19.7893 5.47933 20 6.00977 20H18.0098C18.5402 20 19.0489 19.7893 19.424 19.4142C19.7991 19.0391 20.0098 18.5304 20.0098 18V6C20.0098 5.46957 19.7991 4.96086 19.424 4.58579C19.0489 4.21071 18.5402 4 18.0098 4H6.00977ZM6.00977 2H18.0098C19.0706 2 20.088 2.42143 20.8382 3.17157C21.5883 3.92172 22.0098 4.93913 22.0098 6V18C22.0098 19.0609 21.5883 20.0783 20.8382 20.8284C20.088 21.5786 19.0706 22 18.0098 22H6.00977C4.9489 22 3.93148 21.5786 3.18134 20.8284C2.43119 20.0783 2.00977 19.0609 2.00977 18V6C2.00977 4.93913 2.43119 3.92172 3.18134 3.17157C3.93148 2.42143 4.9489 2 6.00977 2V2Z" fill="#21272A"/>
</svg>
