<svg width="24" height="24" viewBox="0 0 24 24" fill="none" xmlns="http://www.w3.org/2000/svg">
<path d="M21.2498 11.818C21.2312 11.6735 21.157 11.5421 21.0428 11.4516C20.9286 11.3612 20.7836 11.319 20.6388 11.334C20.4144 11.3609 20.1887 11.3752 19.9628 11.377C18.5088 11.377 16.4328 11.265 15.1498 10.389C15.0395 10.3113 14.9333 10.2278 14.8318 10.139C13.8688 9.292 13.6598 8.249 13.6538 7.522C13.6458 6.562 13.8688 5.852 14.3148 5.417C14.6044 5.13316 14.9886 4.96616 15.3938 4.948C15.4468 4.951 15.9298 4.992 16.2838 5.523C16.5568 5.932 16.8918 6.863 16.4698 8.768C16.4473 8.86584 16.4609 8.96847 16.5079 9.05715C16.5549 9.14583 16.6322 9.21464 16.7258 9.251C17.3918 9.503 18.2298 9.606 18.8788 9.646C19.0788 9.658 19.2588 9.52 19.3008 9.32C19.4958 8.4 19.5768 7.55 19.5428 6.775C19.4928 5.639 19.1968 4.658 18.6638 3.861C17.9338 2.765 16.7678 2.07 15.5478 2.005C14.6718 1.957 13.3638 2.268 12.3228 3.285C11.6048 3.987 10.7528 5.296 10.7718 7.546C10.7868 9.436 11.5618 11.15 12.9518 12.373C13.3768 12.747 13.9218 13.13 14.6118 13.458C13.5587 15.3555 12.2506 17.0998 10.7238 18.642C8.53377 16.864 7.23877 13.536 6.51777 10.912C5.99513 8.9713 5.63027 6.99152 5.42677 4.992C5.41553 4.86173 5.35381 4.74101 5.25479 4.65563C5.15576 4.57024 5.02728 4.52695 4.89677 4.535L3.94577 4.601L5.38377 4.503L3.01377 4.665C2.94658 4.6705 2.88116 4.68937 2.82137 4.7205C2.76157 4.75163 2.70859 4.79439 2.66555 4.84628C2.62252 4.89817 2.59028 4.95814 2.57074 5.02266C2.5512 5.08718 2.54475 5.15496 2.55177 5.222C2.76719 7.39489 3.16051 9.54644 3.72777 11.655C4.32177 13.833 5.07377 15.733 5.96177 17.304C7.12977 19.367 8.54577 20.879 10.1718 21.799C10.4237 21.9421 10.7135 22.0044 11.002 21.9774C11.2905 21.9504 11.5638 21.8354 11.7848 21.648C11.8368 21.604 13.0698 20.559 14.5518 18.722C15.4081 17.6626 16.1824 16.5393 16.8678 15.362C17.0778 15 17.2778 14.635 17.4658 14.268C18.4788 14.398 19.6538 14.413 21.0138 14.255C21.0884 14.2453 21.1603 14.2209 21.2253 14.183C21.2903 14.1452 21.3471 14.0948 21.3924 14.0347C21.4377 13.9746 21.4705 13.9061 21.4889 13.8332C21.5074 13.7603 21.511 13.6844 21.4998 13.61L21.2498 11.818Z" fill="#21272A"/>
</svg>
