<svg width="24" height="24" viewBox="0 0 24 24" fill="none" xmlns="http://www.w3.org/2000/svg">
<g clip-path="url(#clip0_105_32823)">
<path d="M9.75276 15.5H14.2668C13.4852 14.5523 13.0434 13.3702 13.0118 12.1422C12.9802 10.9142 13.3607 9.71098 14.0924 8.72433C14.8242 7.73768 15.8652 7.02441 17.0495 6.69821C18.2338 6.37201 19.4932 6.45167 20.627 6.92449C21.7608 7.39731 22.7036 8.23607 23.3052 9.30706C23.9069 10.3781 24.1326 11.6196 23.9466 12.8339C23.7605 14.0481 23.1733 15.1651 22.2786 16.0068C21.3838 16.8485 20.2331 17.3664 19.0098 17.478V17.5H6.00976V17.478C4.7437 17.5936 3.47666 17.2671 2.42419 16.5539C1.37172 15.8408 0.598816 14.785 0.236956 13.5663C-0.124905 12.3475 -0.0533741 11.041 0.439381 9.86907C0.932136 8.69711 1.81568 7.73204 2.93972 7.13804C4.06376 6.54404 5.35887 6.35779 6.60475 6.61096C7.85062 6.86414 8.97031 7.54111 9.77336 8.52672C10.5764 9.51233 11.0132 10.7457 11.0094 12.017C11.0057 13.2884 10.5616 14.5191 9.75276 15.5ZM5.50976 15.5C5.96939 15.5 6.42452 15.4095 6.84916 15.2336C7.2738 15.0577 7.65963 14.7999 7.98464 14.4749C8.30964 14.1499 8.56745 13.764 8.74334 13.3394C8.91924 12.9148 9.00976 12.4596 9.00976 12C9.00976 11.5404 8.91924 11.0852 8.74334 10.6606C8.56745 10.236 8.30964 9.85013 7.98464 9.52513C7.65963 9.20012 7.2738 8.94231 6.84916 8.76642C6.42452 8.59053 5.96939 8.5 5.50976 8.5C4.58151 8.5 3.69127 8.86875 3.03489 9.52513C2.37851 10.1815 2.00976 11.0717 2.00976 12C2.00976 12.9283 2.37851 13.8185 3.03489 14.4749C3.69127 15.1313 4.58151 15.5 5.50976 15.5ZM18.5098 15.5C18.9694 15.5 19.4245 15.4095 19.8492 15.2336C20.2738 15.0577 20.6596 14.7999 20.9846 14.4749C21.3096 14.1499 21.5674 13.764 21.7433 13.3394C21.9192 12.9148 22.0098 12.4596 22.0098 12C22.0098 11.5404 21.9192 11.0852 21.7433 10.6606C21.5674 10.236 21.3096 9.85013 20.9846 9.52513C20.6596 9.20012 20.2738 8.94231 19.8492 8.76642C19.4245 8.59053 18.9694 8.5 18.5098 8.5C17.5815 8.5 16.6913 8.86875 16.0349 9.52513C15.3785 10.1815 15.0098 11.0717 15.0098 12C15.0098 12.9283 15.3785 13.8185 16.0349 14.4749C16.6913 15.1313 17.5815 15.5 18.5098 15.5Z" fill="#21272A"/>
</g>
<defs>
<clipPath id="clip0_105_32823">
<rect width="24" height="24" fill="white" transform="translate(0.00976562)"/>
</clipPath>
</defs>
</svg>
