<svg width="24" height="24" viewBox="0 0 24 24" fill="none" xmlns="http://www.w3.org/2000/svg">
<path d="M6.00977 2H18.0098C19.0706 2 20.088 2.42143 20.8382 3.17157C21.5883 3.92172 22.0098 4.93913 22.0098 6V18C22.0098 19.0609 21.5883 20.0783 20.8382 20.8284C20.088 21.5786 19.0706 22 18.0098 22H6.00977C4.9489 22 3.93148 21.5786 3.18134 20.8284C2.43119 20.0783 2.00977 19.0609 2.00977 18V6C2.00977 4.93913 2.43119 3.92172 3.18134 3.17157C3.93148 2.42143 4.9489 2 6.00977 2V2ZM6.00977 4C5.47933 4 4.97062 4.21071 4.59555 4.58579C4.22048 4.96086 4.00977 5.46957 4.00977 6V18C4.00977 18.5304 4.22048 19.0391 4.59555 19.4142C4.97062 19.7893 5.47933 20 6.00977 20H18.0098C18.5402 20 19.0489 19.7893 19.424 19.4142C19.7991 19.0391 20.0098 18.5304 20.0098 18V6C20.0098 5.46957 19.7991 4.96086 19.424 4.58579C19.0489 4.21071 18.5402 4 18.0098 4H6.00977ZM9.34577 15.241C8.81533 15.241 8.30662 15.0303 7.93155 14.6552C7.55648 14.2801 7.34577 13.7714 7.34577 13.241V10.741C7.34577 10.2106 7.55648 9.70186 7.93155 9.32679C8.30662 8.95171 8.81533 8.741 9.34577 8.741H10.3498L12.1728 7.032C12.5436 6.68479 13.0327 6.49172 13.5408 6.492H13.7458C14.1701 6.492 14.5771 6.66057 14.8771 6.96063C15.1772 7.26069 15.3458 7.66765 15.3458 8.092V15.892C15.3458 16.3163 15.1772 16.7233 14.8771 17.0234C14.5771 17.3234 14.1701 17.492 13.7458 17.492H13.5408C13.0325 17.4917 12.5433 17.2979 12.1728 16.95L10.3498 15.241H9.34577ZM11.1408 10.741H9.34577V13.241H11.1398L13.3448 15.308V8.674L11.1398 10.741H11.1408Z" fill="#21272A"/>
</svg>
