<svg width="24" height="24" viewBox="0 0 24 24" fill="none" xmlns="http://www.w3.org/2000/svg">
<path d="M17.0098 5H16.4098C16.1399 5.0001 15.8728 5.05482 15.6247 5.16085C15.3765 5.26689 15.1524 5.42205 14.9658 5.617L11.2488 9.5H7.00977V14.5H11.2488L14.9658 18.383C15.1524 18.5779 15.3765 18.7331 15.6247 18.8391C15.8728 18.9452 16.1399 18.9999 16.4098 19H17.0098V5ZM10.3948 7.5L13.5198 4.234C13.8933 3.84374 14.3421 3.53321 14.839 3.32112C15.3358 3.10904 15.8705 2.9998 16.4108 3H18.0098C18.275 3 18.5293 3.10536 18.7169 3.29289C18.9044 3.48043 19.0098 3.73478 19.0098 4V20C19.0098 20.2652 18.9044 20.5196 18.7169 20.7071C18.5293 20.8946 18.275 21 18.0098 21H16.4098C15.8699 20.9999 15.3356 20.8906 14.8391 20.6785C14.3425 20.4664 13.8941 20.156 13.5208 19.766L10.3948 16.5H7.00977C6.47933 16.5 5.97062 16.2893 5.59555 15.9142C5.22048 15.5391 5.00977 15.0304 5.00977 14.5V9.5C5.00977 8.96957 5.22048 8.46086 5.59555 8.08579C5.97062 7.71071 6.47933 7.5 7.00977 7.5H10.3948Z" fill="#21272A"/>
</svg>
