<svg width="24" height="24" viewBox="0 0 24 24" fill="none" xmlns="http://www.w3.org/2000/svg">
<path d="M6.00977 2H18.0098C19.0706 2 20.088 2.42143 20.8382 3.17157C21.5883 3.92172 22.0098 4.93913 22.0098 6V18C22.0098 19.0609 21.5883 20.0783 20.8382 20.8284C20.088 21.5786 19.0706 22 18.0098 22H6.00977C4.9489 22 3.93148 21.5786 3.18134 20.8284C2.43119 20.0783 2.00977 19.0609 2.00977 18V6C2.00977 4.93913 2.43119 3.92172 3.18134 3.17157C3.93148 2.42143 4.9489 2 6.00977 2V2ZM6.00977 4C5.47933 4 4.97062 4.21071 4.59555 4.58579C4.22048 4.96086 4.00977 5.46957 4.00977 6V18C4.00977 18.5304 4.22048 19.0391 4.59555 19.4142C4.97062 19.7893 5.47933 20 6.00977 20H18.0098C18.5402 20 19.0489 19.7893 19.424 19.4142C19.7991 19.0391 20.0098 18.5304 20.0098 18V6C20.0098 5.46957 19.7991 4.96086 19.424 4.58579C19.0489 4.21071 18.5402 4 18.0098 4H6.00977ZM8.04777 15.23C7.51733 15.23 7.00863 15.0193 6.63355 14.6442C6.25848 14.2691 6.04777 13.7604 6.04777 13.23V10.73C6.04777 10.1996 6.25848 9.69086 6.63355 9.31579C7.00863 8.94071 7.51733 8.73 8.04777 8.73H9.05277L10.8758 7.021C11.2464 6.67402 11.7351 6.48097 12.2428 6.481H12.4478C12.8721 6.481 13.2791 6.64957 13.5791 6.94963C13.8792 7.24969 14.0478 7.65665 14.0478 8.081V15.881C14.0478 16.3053 13.8792 16.7123 13.5791 17.0124C13.2791 17.3124 12.8721 17.481 12.4478 17.481H12.2428C11.7348 17.4805 11.2461 17.2867 10.8758 16.939L9.05277 15.23H8.04777ZM9.84277 10.73H8.04777V13.23H9.84277L12.0478 15.297V8.664L9.84277 10.73ZM15.7128 10.99C15.4475 10.99 15.1932 10.8846 15.0057 10.6971C14.8181 10.5096 14.7128 10.2552 14.7128 9.99C14.7128 9.72478 14.8181 9.47043 15.0057 9.28289C15.1932 9.09536 15.4475 8.99 15.7128 8.99C16.5084 8.99 17.2715 9.30607 17.8341 9.86868C18.3967 10.4313 18.7128 11.1944 18.7128 11.99C18.7128 12.7856 18.3967 13.5487 17.8341 14.1113C17.2715 14.6739 16.5084 14.99 15.7128 14.99C15.4475 14.99 15.1932 14.8846 15.0057 14.6971C14.8181 14.5096 14.7128 14.2552 14.7128 13.99C14.7128 13.7248 14.8181 13.4704 15.0057 13.2829C15.1932 13.0954 15.4475 12.99 15.7128 12.99C15.978 12.99 16.2323 12.8846 16.4199 12.6971C16.6074 12.5096 16.7128 12.2552 16.7128 11.99C16.7128 11.7248 16.6074 11.4704 16.4199 11.2829C16.2323 11.0954 15.978 10.99 15.7128 10.99Z" fill="#21272A"/>
</svg>
