<svg width="24" height="24" viewBox="0 0 24 24" fill="none" xmlns="http://www.w3.org/2000/svg">
<path d="M12.0098 22C6.48677 22 2.00977 17.523 2.00977 12C2.00977 6.477 6.48677 2 12.0098 2C17.5328 2 22.0098 6.477 22.0098 12C22.0098 17.523 17.5328 22 12.0098 22ZM12.0098 20C14.1315 20 16.1663 19.1571 17.6666 17.6569C19.1669 16.1566 20.0098 14.1217 20.0098 12C20.0098 9.87827 19.1669 7.84344 17.6666 6.34315C16.1663 4.84285 14.1315 4 12.0098 4C9.88803 4 7.8532 4.84285 6.35291 6.34315C4.85262 7.84344 4.00977 9.87827 4.00977 12C4.00977 14.1217 4.85262 16.1566 6.35291 17.6569C7.8532 19.1571 9.88803 20 12.0098 20ZM8.04777 15.23C7.51733 15.23 7.00863 15.0193 6.63355 14.6442C6.25848 14.2691 6.04777 13.7604 6.04777 13.23V10.73C6.04777 10.1996 6.25848 9.69086 6.63355 9.31579C7.00863 8.94071 7.51733 8.73 8.04777 8.73H9.05277L10.8758 7.021C11.2464 6.67402 11.7351 6.48097 12.2428 6.481H12.4478C12.8721 6.481 13.2791 6.64957 13.5791 6.94963C13.8792 7.24969 14.0478 7.65665 14.0478 8.081V15.881C14.0478 16.3053 13.8792 16.7123 13.5791 17.0124C13.2791 17.3124 12.8721 17.481 12.4478 17.481H12.2428C11.7348 17.4805 11.2461 17.2867 10.8758 16.939L9.05277 15.23H8.04777ZM9.84277 10.73H8.04777V13.23H9.84277L12.0478 15.297V8.664L9.84277 10.73ZM15.7128 10.99C15.4475 10.99 15.1932 10.8846 15.0057 10.6971C14.8181 10.5096 14.7128 10.2552 14.7128 9.99C14.7128 9.72478 14.8181 9.47043 15.0057 9.28289C15.1932 9.09536 15.4475 8.99 15.7128 8.99C16.5084 8.99 17.2715 9.30607 17.8341 9.86868C18.3967 10.4313 18.7128 11.1944 18.7128 11.99C18.7128 12.7856 18.3967 13.5487 17.8341 14.1113C17.2715 14.6739 16.5084 14.99 15.7128 14.99C15.4475 14.99 15.1932 14.8846 15.0057 14.6971C14.8181 14.5096 14.7128 14.2552 14.7128 13.99C14.7128 13.7248 14.8181 13.4704 15.0057 13.2829C15.1932 13.0954 15.4475 12.99 15.7128 12.99C15.978 12.99 16.2323 12.8846 16.4199 12.6971C16.6074 12.5096 16.7128 12.2552 16.7128 11.99C16.7128 11.7248 16.6074 11.4704 16.4199 11.2829C16.2323 11.0954 15.978 10.99 15.7128 10.99Z" fill="#21272A"/>
</svg>
