<svg width="24" height="24" viewBox="0 0 24 24" fill="none" xmlns="http://www.w3.org/2000/svg">
<path d="M12.0098 22C6.48677 22 2.00977 17.523 2.00977 12C2.00977 6.477 6.48677 2 12.0098 2C17.5328 2 22.0098 6.477 22.0098 12C22.0098 17.523 17.5328 22 12.0098 22ZM12.0098 20C14.1315 20 16.1663 19.1571 17.6666 17.6569C19.1669 16.1566 20.0098 14.1217 20.0098 12C20.0098 9.87827 19.1669 7.84344 17.6666 6.34315C16.1663 4.84285 14.1315 4 12.0098 4C9.88803 4 7.8532 4.84285 6.35291 6.34315C4.85262 7.84344 4.00977 9.87827 4.00977 12C4.00977 14.1217 4.85262 16.1566 6.35291 17.6569C7.8532 19.1571 9.88803 20 12.0098 20ZM7.12977 15.256C6.59933 15.256 6.09062 15.0453 5.71555 14.6702C5.34048 14.2951 5.12977 13.7864 5.12977 13.256V10.756C5.12977 10.2256 5.34048 9.71686 5.71555 9.34179C6.09062 8.96671 6.59933 8.756 7.12977 8.756H8.13477L9.95877 7.046C10.3294 6.69902 10.8181 6.50597 11.3258 6.506H11.5308C11.9551 6.506 12.3621 6.67457 12.6621 6.97463C12.9622 7.27469 13.1308 7.68165 13.1308 8.106V15.906C13.1308 16.3303 12.9622 16.7373 12.6621 17.0374C12.3621 17.3374 11.9551 17.506 11.5308 17.506H11.3258C10.8179 17.5058 10.3292 17.3123 9.95877 16.965L8.13477 15.255H7.13077L7.12977 15.256ZM8.92577 10.756H7.13077V13.256H8.92577L11.1308 15.323V8.689L8.92577 10.756ZM15.0068 10.025C14.7415 10.025 14.4872 9.91964 14.2997 9.73211C14.1121 9.54457 14.0068 9.29022 14.0068 9.025C14.0068 8.75978 14.1121 8.50543 14.2997 8.31789C14.4872 8.13036 14.7415 8.025 15.0068 8.025C16.06 8.025 17.0702 8.44334 17.815 9.18802C18.5599 9.9327 18.9785 10.9427 18.9788 11.996V12.036C18.9788 12.5576 18.876 13.0741 18.6764 13.556C18.4768 14.0379 18.1842 14.4758 17.8154 14.8446C17.4466 15.2135 17.0087 15.506 16.5268 15.7056C16.0449 15.9053 15.5284 16.008 15.0068 16.008C14.7415 16.008 14.4872 15.9026 14.2997 15.7151C14.1121 15.5276 14.0068 15.2732 14.0068 15.008C14.0068 14.7428 14.1121 14.4884 14.2997 14.3009C14.4872 14.1134 14.7415 14.008 15.0068 14.008C15.5298 14.008 16.0314 13.8002 16.4012 13.4304C16.771 13.0606 16.9788 12.559 16.9788 12.036V11.996C16.9785 11.4732 16.7706 10.9718 16.4008 10.6022C16.031 10.2326 15.5296 10.025 15.0068 10.025ZM15.0098 11C15.275 11 15.5293 11.1054 15.7169 11.2929C15.9044 11.4804 16.0098 11.7348 16.0098 12C16.0098 12.2652 15.9044 12.5196 15.7169 12.7071C15.5293 12.8946 15.275 13 15.0098 13C14.7445 13 14.4902 12.8946 14.3027 12.7071C14.1151 12.5196 14.0098 12.2652 14.0098 12C14.0098 11.7348 14.1151 11.4804 14.3027 11.2929C14.4902 11.1054 14.7445 11 15.0098 11Z" fill="#21272A"/>
</svg>
