<svg width="24" height="24" viewBox="0 0 24 24" fill="none" xmlns="http://www.w3.org/2000/svg">
<g clip-path="url(#clip0_105_32314)">
<path d="M12.0098 5H11.4098C11.1399 5.0001 10.8728 5.05482 10.6247 5.16085C10.3765 5.26689 10.1524 5.42205 9.96577 5.617L6.24877 9.5H2.00977V14.5H6.24877L9.96577 18.383C10.1524 18.5779 10.3765 18.7331 10.6247 18.8391C10.8728 18.9452 11.1399 18.9999 11.4098 19H12.0098V5ZM5.39477 7.5L8.51977 4.234C8.89334 3.84374 9.3421 3.53321 9.83897 3.32112C10.3358 3.10904 10.8705 2.9998 11.4108 3H13.0098C13.275 3 13.5293 3.10536 13.7169 3.29289C13.9044 3.48043 14.0098 3.73478 14.0098 4V20C14.0098 20.2652 13.9044 20.5196 13.7169 20.7071C13.5293 20.8946 13.275 21 13.0098 21H11.4098C10.8699 20.9999 10.3356 20.8906 9.83905 20.6785C9.34254 20.4664 8.89411 20.156 8.52077 19.766L5.39477 16.5H2.00977C1.47933 16.5 0.970625 16.2893 0.595552 15.9142C0.220479 15.5391 0.00976563 15.0304 0.00976562 14.5V9.5C0.00976563 8.96957 0.220479 8.46086 0.595552 8.08579C0.970625 7.71071 1.47933 7.5 2.00977 7.5H5.39477ZM16.0098 10C15.7445 10 15.4902 9.89464 15.3027 9.70711C15.1151 9.51957 15.0098 9.26522 15.0098 9C15.0098 8.73478 15.1151 8.48043 15.3027 8.29289C15.4902 8.10536 15.7445 8 16.0098 8C17.0706 8 18.088 8.42143 18.8382 9.17157C19.5883 9.92172 20.0098 10.9391 20.0098 12C20.0098 13.0609 19.5883 14.0783 18.8382 14.8284C18.088 15.5786 17.0706 16 16.0098 16C15.7445 16 15.4902 15.8946 15.3027 15.7071C15.1151 15.5196 15.0098 15.2652 15.0098 15C15.0098 14.7348 15.1151 14.4804 15.3027 14.2929C15.4902 14.1054 15.7445 14 16.0098 14C16.5402 14 17.0489 13.7893 17.424 13.4142C17.7991 13.0391 18.0098 12.5304 18.0098 12C18.0098 11.4696 17.7991 10.9609 17.424 10.5858C17.0489 10.2107 16.5402 10 16.0098 10ZM16.0098 6C15.7445 6 15.4902 5.89464 15.3027 5.70711C15.1151 5.51957 15.0098 5.26522 15.0098 5C15.0098 4.73478 15.1151 4.48043 15.3027 4.29289C15.4902 4.10536 15.7445 4 16.0098 4C18.1315 4 20.1663 4.84286 21.6666 6.34315C23.1669 7.84344 24.0098 9.87827 24.0098 12C24.0098 14.1217 23.1669 16.1566 21.6666 17.6569C20.1663 19.1571 18.1315 20 16.0098 20C15.7445 20 15.4902 19.8946 15.3027 19.7071C15.1151 19.5196 15.0098 19.2652 15.0098 19C15.0098 18.7348 15.1151 18.4804 15.3027 18.2929C15.4902 18.1054 15.7445 18 16.0098 18C17.6011 18 19.1272 17.3679 20.2524 16.2426C21.3776 15.1174 22.0098 13.5913 22.0098 12C22.0098 10.4087 21.3776 8.88258 20.2524 7.75736C19.1272 6.63214 17.6011 6 16.0098 6Z" fill="#21272A"/>
</g>
<defs>
<clipPath id="clip0_105_32314">
<rect width="24" height="24" fill="white" transform="translate(0.00976562)"/>
</clipPath>
</defs>
</svg>
