<svg width="24" height="24" viewBox="0 0 24 24" fill="none" xmlns="http://www.w3.org/2000/svg">
<path d="M12.0098 22C6.48677 22 2.00977 17.523 2.00977 12C2.00977 6.477 6.48677 2 12.0098 2C17.5328 2 22.0098 6.477 22.0098 12C22.0098 17.523 17.5328 22 12.0098 22ZM12.0098 20C14.1315 20 16.1663 19.1571 17.6666 17.6569C19.1669 16.1566 20.0098 14.1217 20.0098 12C20.0098 9.87827 19.1669 7.84344 17.6666 6.34315C16.1663 4.84285 14.1315 4 12.0098 4C9.88803 4 7.8532 4.84285 6.35291 6.34315C4.85262 7.84344 4.00977 9.87827 4.00977 12C4.00977 14.1217 4.85262 16.1566 6.35291 17.6569C7.8532 19.1571 9.88803 20 12.0098 20ZM9.34577 15.241C8.81533 15.241 8.30662 15.0303 7.93155 14.6552C7.55648 14.2801 7.34577 13.7714 7.34577 13.241V10.741C7.34577 10.2106 7.55648 9.70186 7.93155 9.32679C8.30662 8.95171 8.81533 8.741 9.34577 8.741H10.3498L12.1728 7.032C12.5436 6.68479 13.0327 6.49172 13.5408 6.492H13.7458C14.1701 6.492 14.5771 6.66057 14.8771 6.96063C15.1772 7.26069 15.3458 7.66765 15.3458 8.092V15.892C15.3458 16.3163 15.1772 16.7233 14.8771 17.0234C14.5771 17.3234 14.1701 17.492 13.7458 17.492H13.5408C13.0325 17.4917 12.5433 17.2979 12.1728 16.95L10.3498 15.241H9.34577ZM11.1408 10.741H9.34577V13.241H11.1398L13.3448 15.308V8.674L11.1398 10.741H11.1408Z" fill="#21272A"/>
</svg>
