<svg width="24" height="24" viewBox="0 0 24 24" fill="none" xmlns="http://www.w3.org/2000/svg">
<path d="M14.0098 5H13.4098C13.1399 5.0001 12.8728 5.05482 12.6247 5.16085C12.3765 5.26689 12.1524 5.42205 11.9658 5.617L8.24877 9.5H4.00977V14.5H8.24877L11.9658 18.383C12.1524 18.5779 12.3765 18.7331 12.6247 18.8391C12.8728 18.9452 13.1399 18.9999 13.4098 19H14.0098V5ZM7.39477 7.5L10.5198 4.234C10.8933 3.84374 11.3421 3.53321 11.839 3.32112C12.3358 3.10904 12.8705 2.9998 13.4108 3H15.0098C15.275 3 15.5293 3.10536 15.7169 3.29289C15.9044 3.48043 16.0098 3.73478 16.0098 4V20C16.0098 20.2652 15.9044 20.5196 15.7169 20.7071C15.5293 20.8946 15.275 21 15.0098 21H13.4098C12.8699 20.9999 12.3356 20.8906 11.8391 20.6785C11.3425 20.4664 10.8941 20.156 10.5208 19.766L7.39477 16.5H4.00977C3.47933 16.5 2.97062 16.2893 2.59555 15.9142C2.22048 15.5391 2.00977 15.0304 2.00977 14.5V9.5C2.00977 8.96957 2.22048 8.46086 2.59555 8.08579C2.97062 7.71071 3.47933 7.5 4.00977 7.5H7.39477ZM18.0098 10C17.7445 10 17.4902 9.89464 17.3027 9.70711C17.1151 9.51957 17.0098 9.26522 17.0098 9C17.0098 8.73478 17.1151 8.48043 17.3027 8.29289C17.4902 8.10536 17.7445 8 18.0098 8C19.0706 8 20.088 8.42143 20.8382 9.17157C21.5883 9.92172 22.0098 10.9391 22.0098 12C22.0098 13.0609 21.5883 14.0783 20.8382 14.8284C20.088 15.5786 19.0706 16 18.0098 16C17.7445 16 17.4902 15.8946 17.3027 15.7071C17.1151 15.5196 17.0098 15.2652 17.0098 15C17.0098 14.7348 17.1151 14.4804 17.3027 14.2929C17.4902 14.1054 17.7445 14 18.0098 14C18.5402 14 19.0489 13.7893 19.424 13.4142C19.7991 13.0391 20.0098 12.5304 20.0098 12C20.0098 11.4696 19.7991 10.9609 19.424 10.5858C19.0489 10.2107 18.5402 10 18.0098 10Z" fill="#21272A"/>
</svg>
