<svg width="24" height="24" viewBox="0 0 24 24" fill="none" xmlns="http://www.w3.org/2000/svg">
<path d="M6.00977 2H18.0098C19.0706 2 20.088 2.42143 20.8382 3.17157C21.5883 3.92172 22.0098 4.93913 22.0098 6V18C22.0098 19.0609 21.5883 20.0783 20.8382 20.8284C20.088 21.5786 19.0706 22 18.0098 22H6.00977C4.9489 22 3.93148 21.5786 3.18134 20.8284C2.43119 20.0783 2.00977 19.0609 2.00977 18V6C2.00977 4.93913 2.43119 3.92172 3.18134 3.17157C3.93148 2.42143 4.9489 2 6.00977 2V2ZM6.00977 4C5.47933 4 4.97062 4.21071 4.59555 4.58579C4.22048 4.96086 4.00977 5.46957 4.00977 6V18C4.00977 18.5304 4.22048 19.0391 4.59555 19.4142C4.97062 19.7893 5.47933 20 6.00977 20H18.0098C18.5402 20 19.0489 19.7893 19.424 19.4142C19.7991 19.0391 20.0098 18.5304 20.0098 18V6C20.0098 5.46957 19.7991 4.96086 19.424 4.58579C19.0489 4.21071 18.5402 4 18.0098 4H6.00977ZM17.6678 12.057L18.3748 12.764C18.5569 12.9526 18.6577 13.2052 18.6554 13.4674C18.6532 13.7296 18.548 13.9804 18.3626 14.1658C18.1772 14.3512 17.9264 14.4564 17.6642 14.4587C17.402 14.461 17.1494 14.3602 16.9608 14.178L16.2538 13.471L15.5468 14.178C15.3582 14.3602 15.1056 14.461 14.8434 14.4587C14.5812 14.4564 14.3304 14.3512 14.1449 14.1658C13.9595 13.9804 13.8544 13.7296 13.8521 13.4674C13.8498 13.2052 13.9506 12.9526 14.1328 12.764L14.8398 12.057L14.1328 11.35C14.0399 11.2572 13.9661 11.1469 13.9158 11.0256C13.8655 10.9043 13.8396 10.7742 13.8396 10.6429C13.8395 10.5115 13.8653 10.3814 13.9156 10.2601C13.9658 10.1387 14.0394 10.0284 14.1323 9.9355C14.2251 9.84259 14.3353 9.76888 14.4567 9.71857C14.578 9.66826 14.7081 9.64234 14.8394 9.6423C14.9708 9.64225 15.1008 9.66808 15.2222 9.7183C15.3436 9.76852 15.4539 9.84216 15.5468 9.935L16.2538 10.643L16.9608 9.935C17.1484 9.74749 17.4028 9.6422 17.6681 9.6423C17.9334 9.64239 18.1878 9.74786 18.3753 9.9355C18.5628 10.1231 18.6681 10.3776 18.668 10.6429C18.6679 10.9081 18.5624 11.1625 18.3748 11.35L17.6678 12.057ZM7.29177 15.287C6.76133 15.287 6.25262 15.0763 5.87755 14.7012C5.50248 14.3261 5.29177 13.8174 5.29177 13.287V10.787C5.29177 10.2566 5.50248 9.74786 5.87755 9.37279C6.25262 8.99771 6.76133 8.787 7.29177 8.787H8.29677L10.1198 7.078C10.4906 6.73079 10.9797 6.53772 11.4878 6.538H11.6918C12.1161 6.538 12.5231 6.70657 12.8231 7.00663C13.1232 7.30669 13.2918 7.71365 13.2918 8.138V15.938C13.2918 16.3623 13.1232 16.7693 12.8231 17.0694C12.5231 17.3694 12.1161 17.538 11.6918 17.538H11.4878C10.9795 17.5377 10.4903 17.3439 10.1198 16.996L8.29677 15.287H7.29177ZM9.08777 10.787H7.29177V13.287H9.08777L11.2918 15.354V8.72L9.08777 10.787Z" fill="#21272A"/>
</svg>
