<svg width="24" height="24" viewBox="0 0 24 24" fill="none" xmlns="http://www.w3.org/2000/svg">
<path d="M13.0098 5H12.4098C12.1399 5.0001 11.8728 5.05482 11.6247 5.16085C11.3765 5.26689 11.1524 5.42205 10.9658 5.617L7.24877 9.5H3.00977V14.5H7.24877L10.9658 18.383C11.1524 18.5779 11.3765 18.7331 11.6247 18.8391C11.8728 18.9452 12.1399 18.9999 12.4098 19H13.0098V5ZM6.39477 7.5L9.51977 4.234C9.89334 3.84374 10.3421 3.53321 10.839 3.32112C11.3358 3.10904 11.8705 2.9998 12.4108 3H14.0098C14.275 3 14.5293 3.10536 14.7169 3.29289C14.9044 3.48043 15.0098 3.73478 15.0098 4V20C15.0098 20.2652 14.9044 20.5196 14.7169 20.7071C14.5293 20.8946 14.275 21 14.0098 21H12.4098C11.8699 20.9999 11.3356 20.8906 10.8391 20.6785C10.3425 20.4664 9.89411 20.156 9.52077 19.766L6.39477 16.5H3.00977C2.47933 16.5 1.97062 16.2893 1.59555 15.9142C1.22048 15.5391 1.00977 15.0304 1.00977 14.5V9.5C1.00977 8.96957 1.22048 8.46086 1.59555 8.08579C1.97062 7.71071 2.47933 7.5 3.00977 7.5H6.39477ZM20.4248 12L21.8378 13.414C21.9333 13.5062 22.0095 13.6166 22.0619 13.7386C22.1143 13.8606 22.1419 13.9918 22.143 14.1246C22.1442 14.2574 22.1189 14.3891 22.0686 14.512C22.0183 14.6349 21.9441 14.7465 21.8502 14.8404C21.7563 14.9343 21.6446 15.0085 21.5217 15.0588C21.3988 15.1091 21.2671 15.1344 21.1344 15.1333C21.0016 15.1321 20.8704 15.1045 20.7484 15.0521C20.6264 14.9997 20.516 14.9235 20.4238 14.828L19.0098 13.414L17.5958 14.828C17.5035 14.9235 17.3932 14.9997 17.2712 15.0521C17.1492 15.1045 17.0179 15.1321 16.8852 15.1333C16.7524 15.1344 16.6207 15.1091 16.4978 15.0588C16.3749 15.0085 16.2633 14.9343 16.1694 14.8404C16.0755 14.7465 16.0012 14.6349 15.9509 14.512C15.9007 14.3891 15.8754 14.2574 15.8765 14.1246C15.8777 13.9918 15.9053 13.8606 15.9577 13.7386C16.0101 13.6166 16.0863 13.5062 16.1818 13.414L17.5958 12L16.1818 10.586C15.9996 10.3974 15.8988 10.1448 15.9011 9.8826C15.9034 9.6204 16.0085 9.36959 16.1939 9.18418C16.3794 8.99877 16.6302 8.8936 16.8924 8.89133C17.1546 8.88905 17.4072 8.98984 17.5958 9.172L19.0098 10.586L20.4238 9.172C20.516 9.07649 20.6264 9.00031 20.7484 8.9479C20.8704 8.89549 21.0016 8.8679 21.1344 8.86675C21.2671 8.8656 21.3988 8.8909 21.5217 8.94118C21.6446 8.99146 21.7563 9.06571 21.8502 9.15961C21.9441 9.2535 22.0183 9.36515 22.0686 9.48805C22.1189 9.61094 22.1442 9.74262 22.143 9.8754C22.1419 10.0082 22.1143 10.1394 22.0619 10.2614C22.0095 10.3834 21.9333 10.4938 21.8378 10.586L20.4238 12H20.4248Z" fill="#21272A"/>
</svg>
