<svg width="24" height="24" viewBox="0 0 24 24" fill="none" xmlns="http://www.w3.org/2000/svg">
<path d="M12.0098 22C6.48677 22 2.00977 17.523 2.00977 12C2.00977 6.477 6.48677 2 12.0098 2C17.5328 2 22.0098 6.477 22.0098 12C22.0098 17.523 17.5328 22 12.0098 22ZM12.0098 20C14.1315 20 16.1663 19.1571 17.6666 17.6569C19.1669 16.1566 20.0098 14.1217 20.0098 12C20.0098 9.87827 19.1669 7.84344 17.6666 6.34315C16.1663 4.84285 14.1315 4 12.0098 4C9.88803 4 7.8532 4.84285 6.35291 6.34315C4.85262 7.84344 4.00977 9.87827 4.00977 12C4.00977 14.1217 4.85262 16.1566 6.35291 17.6569C7.8532 19.1571 9.88803 20 12.0098 20ZM17.6678 12.057L18.3748 12.764C18.5569 12.9526 18.6577 13.2052 18.6554 13.4674C18.6532 13.7296 18.548 13.9804 18.3626 14.1658C18.1772 14.3512 17.9264 14.4564 17.6642 14.4587C17.402 14.461 17.1494 14.3602 16.9608 14.178L16.2538 13.471L15.5468 14.178C15.3582 14.3602 15.1056 14.461 14.8434 14.4587C14.5812 14.4564 14.3304 14.3512 14.1449 14.1658C13.9595 13.9804 13.8544 13.7296 13.8521 13.4674C13.8498 13.2052 13.9506 12.9526 14.1328 12.764L14.8398 12.057L14.1328 11.35C14.0399 11.2572 13.9661 11.1469 13.9158 11.0256C13.8655 10.9043 13.8396 10.7742 13.8396 10.6429C13.8395 10.5115 13.8653 10.3814 13.9156 10.2601C13.9658 10.1387 14.0394 10.0284 14.1323 9.9355C14.2251 9.84259 14.3353 9.76888 14.4567 9.71857C14.578 9.66826 14.7081 9.64234 14.8394 9.6423C14.9708 9.64225 15.1008 9.66808 15.2222 9.7183C15.3436 9.76852 15.4539 9.84216 15.5468 9.935L16.2538 10.643L16.9608 9.935C17.1484 9.74749 17.4028 9.6422 17.6681 9.6423C17.9334 9.64239 18.1878 9.74786 18.3753 9.9355C18.5628 10.1231 18.6681 10.3776 18.668 10.6429C18.6679 10.9081 18.5624 11.1625 18.3748 11.35L17.6678 12.057ZM7.29177 15.287C6.76133 15.287 6.25262 15.0763 5.87755 14.7012C5.50248 14.3261 5.29177 13.8174 5.29177 13.287V10.787C5.29177 10.2566 5.50248 9.74786 5.87755 9.37279C6.25262 8.99771 6.76133 8.787 7.29177 8.787H8.29677L10.1198 7.078C10.4906 6.73079 10.9797 6.53772 11.4878 6.538H11.6918C12.1161 6.538 12.5231 6.70657 12.8231 7.00663C13.1232 7.30669 13.2918 7.71365 13.2918 8.138V15.938C13.2918 16.3623 13.1232 16.7693 12.8231 17.0694C12.5231 17.3694 12.1161 17.538 11.6918 17.538H11.4878C10.9795 17.5377 10.4903 17.3439 10.1198 16.996L8.29677 15.287H7.29177ZM9.08777 10.787H7.29177V13.287H9.08777L11.2918 15.354V8.72L9.08777 10.787Z" fill="#21272A"/>
</svg>
