<svg width="24" height="24" viewBox="0 0 24 24" fill="none" xmlns="http://www.w3.org/2000/svg">
<path d="M13.0098 11H15.0098C15.275 11 15.5293 11.1054 15.7169 11.2929C15.9044 11.4804 16.0098 11.7348 16.0098 12C16.0098 12.2652 15.9044 12.5196 15.7169 12.7071C15.5293 12.8946 15.275 13 15.0098 13H12.0098C11.7446 13 11.4902 12.8946 11.3027 12.7071C11.1151 12.5196 11.0098 12.2652 11.0098 12V8C11.0098 7.73478 11.1151 7.48043 11.3027 7.29289C11.4902 7.10536 11.7446 7 12.0098 7C12.275 7 12.5293 7.10536 12.7169 7.29289C12.9044 7.48043 13.0098 7.73478 13.0098 8V11ZM8.00977 5.07V4C8.00977 3.20435 8.32584 2.44129 8.88845 1.87868C9.45106 1.31607 10.2141 1 11.0098 1L13.0098 1C13.8054 1 14.5685 1.31607 15.1311 1.87868C15.6937 2.44129 16.0098 3.20435 16.0098 4V5.07C17.2264 5.77207 18.2366 6.7822 18.9388 7.99875C19.641 9.2153 20.0104 10.5953 20.0098 12C20.0104 13.4047 19.641 14.7847 18.9388 16.0013C18.2366 17.2178 17.2264 18.2279 16.0098 18.93V20C16.0098 20.7956 15.6937 21.5587 15.1311 22.1213C14.5685 22.6839 13.8054 23 13.0098 23H11.0098C10.2141 23 9.45106 22.6839 8.88845 22.1213C8.32584 21.5587 8.00977 20.7956 8.00977 20V18.93C6.79314 18.2279 5.7829 17.2178 5.08071 16.0013C4.37852 14.7847 4.00915 13.4047 4.00977 12C4.00915 10.5953 4.37852 9.2153 5.08071 7.99875C5.7829 6.7822 6.79314 5.77207 8.00977 5.07ZM10.0098 4.252C10.6632 4.08416 11.3352 3.99949 12.0098 4C12.6998 4 13.3698 4.088 14.0098 4.252V4C14.0098 3.73478 13.9044 3.48043 13.7169 3.29289C13.5293 3.10536 13.275 3 13.0098 3H11.0098C10.7446 3 10.4902 3.10536 10.3027 3.29289C10.1151 3.48043 10.0098 3.73478 10.0098 4V4.252ZM10.0098 19.748V20C10.0098 20.2652 10.1151 20.5196 10.3027 20.7071C10.4902 20.8946 10.7446 21 11.0098 21H13.0098C13.275 21 13.5293 20.8946 13.7169 20.7071C13.9044 20.5196 14.0098 20.2652 14.0098 20V19.748C12.6977 20.0847 11.3218 20.0847 10.0098 19.748ZM12.0098 18C12.7977 18 13.5779 17.8448 14.3059 17.5433C15.0338 17.2417 15.6953 16.7998 16.2524 16.2426C16.8096 15.6855 17.2515 15.0241 17.553 14.2961C17.8546 13.5681 18.0098 12.7879 18.0098 12C18.0098 11.2121 17.8546 10.4319 17.553 9.7039C17.2515 8.97595 16.8096 8.31451 16.2524 7.75736C15.6953 7.20021 15.0338 6.75825 14.3059 6.45672C13.5779 6.15519 12.7977 6 12.0098 6C10.4185 6 8.89234 6.63214 7.76713 7.75736C6.64191 8.88258 6.00977 10.4087 6.00977 12C6.00977 13.5913 6.64191 15.1174 7.76713 16.2426C8.89234 17.3679 10.4185 18 12.0098 18Z" fill="#21272A"/>
</svg>
