<svg width="24" height="24" viewBox="0 0 24 24" fill="none" xmlns="http://www.w3.org/2000/svg">
<path d="M7.00977 15C7.00977 16.3261 7.53655 17.5979 8.47423 18.5355C9.41191 19.4732 10.6837 20 12.0098 20C13.3358 20 14.6076 19.4732 15.5453 18.5355C16.483 17.5979 17.0098 16.3261 17.0098 15C17.0098 13.274 15.3498 9.969 12.0098 5.347C8.66977 9.969 7.00977 13.274 7.00977 15ZM12.0098 2C16.6768 8.09 19.0098 12.423 19.0098 15C19.0098 16.8565 18.2723 18.637 16.9595 19.9497C15.6468 21.2625 13.8663 22 12.0098 22C10.1533 22 8.37277 21.2625 7.06002 19.9497C5.74726 18.637 5.00977 16.8565 5.00977 15C5.00977 12.423 7.34277 8.09 12.0098 2Z" fill="#21272A"/>
</svg>
