<svg width="24" height="24" viewBox="0 0 24 24" fill="none" xmlns="http://www.w3.org/2000/svg">
<path d="M11.5258 2.012C6.21577 2.262 2.02677 6.652 2.04277 11.929C2.0454 13.4823 2.41729 15.0127 3.12777 16.394L2.06977 21.495C2.05686 21.5588 2.06024 21.6248 2.0796 21.6869C2.09895 21.749 2.13366 21.8053 2.18051 21.8504C2.22736 21.8956 2.28484 21.9282 2.34764 21.9452C2.41043 21.9623 2.47651 21.9633 2.53977 21.948L7.57377 20.764C8.90705 21.4229 10.3707 21.7755 11.8578 21.796C17.2848 21.879 21.8088 17.601 21.9778 12.216C22.1598 6.441 17.3608 1.735 11.5258 2.011V2.012ZM17.5328 17.379C16.8073 18.1019 15.9462 18.6746 14.999 19.0641C14.0518 19.4536 13.037 19.6524 12.0128 19.649C10.8078 19.6527 9.61845 19.3761 8.53877 18.841L7.83777 18.494L4.75077 19.22L5.40077 16.089L5.05477 15.417C4.49387 14.3297 4.20301 13.1234 4.20677 11.9C4.20677 9.83 5.01877 7.883 6.49277 6.42C7.96197 4.9657 9.94552 4.14964 12.0128 4.149C14.0988 4.149 16.0588 4.955 17.5328 6.419C18.259 7.13464 18.8353 7.98785 19.2279 8.92877C19.6206 9.86969 19.8218 10.8794 19.8198 11.899C19.8198 13.951 18.9948 15.929 17.5328 17.38V17.379Z" fill="#21272A"/>
<path d="M16.8518 14.045L14.9208 13.495C14.7962 13.4592 14.6642 13.4576 14.5388 13.4903C14.4134 13.5231 14.299 13.5889 14.2078 13.681L13.7358 14.159C13.6381 14.2579 13.5134 14.3259 13.3774 14.3543C13.2413 14.3828 13.0999 14.3705 12.9708 14.319C12.0578 13.952 10.1358 12.256 9.64477 11.407C9.57594 11.2871 9.5445 11.1493 9.55447 11.0114C9.56445 10.8735 9.61539 10.7418 9.70077 10.633L10.1128 10.103C10.1921 10.0015 10.2423 9.88023 10.2579 9.75234C10.2736 9.62445 10.2542 9.4947 10.2018 9.377L9.38977 7.553C9.34384 7.45105 9.2749 7.36114 9.18835 7.29034C9.1018 7.21954 9.00001 7.16979 8.89099 7.14498C8.78196 7.12017 8.66866 7.12098 8.56 7.14736C8.45134 7.17374 8.35028 7.22496 8.26477 7.297C7.72577 7.75 7.08577 8.437 7.00877 9.2C6.87177 10.543 7.45177 12.236 9.64577 14.27C12.1808 16.619 14.2118 16.93 15.5328 16.611C16.2828 16.431 16.8828 15.708 17.2598 15.117C17.3201 15.0231 17.3575 14.9164 17.369 14.8054C17.3806 14.6945 17.3659 14.5823 17.3262 14.4781C17.2865 14.3738 17.2229 14.2803 17.1405 14.2051C17.0581 14.1299 16.9592 14.075 16.8518 14.045Z" fill="#21272A"/>
</svg>
