<svg width="24" height="24" viewBox="0 0 24 24" fill="none" xmlns="http://www.w3.org/2000/svg">
<path d="M12.0098 18.992C11.7445 18.992 11.4902 18.8866 11.3027 18.6991C11.1151 18.5116 11.0098 18.2572 11.0098 17.992C11.0098 17.7268 11.1151 17.4724 11.3027 17.2849C11.4902 17.0974 11.7445 16.992 12.0098 16.992C12.275 16.992 12.5293 17.0974 12.7169 17.2849C12.9044 17.4724 13.0098 17.7268 13.0098 17.992C13.0098 18.2572 12.9044 18.5116 12.7169 18.6991C12.5293 18.8866 12.275 18.992 12.0098 18.992ZM9.90376 16.44C9.78042 16.6687 9.57288 16.8405 9.32511 16.9188C9.07734 16.9972 8.8088 16.976 8.57637 16.8598C8.34394 16.7436 8.16588 16.5414 8.0799 16.2962C7.99392 16.051 8.00678 15.7819 8.11576 15.546C8.4777 14.8233 9.03365 14.2155 9.72137 13.7908C10.4091 13.366 11.2015 13.1411 12.0098 13.1411C12.8181 13.1411 13.6104 13.366 14.2982 13.7908C14.9859 14.2155 15.5418 14.8233 15.9038 15.546C15.9673 15.6639 16.0066 15.7933 16.0192 15.9266C16.0317 16.06 16.0174 16.1945 15.977 16.3222C15.9367 16.4499 15.871 16.5681 15.7841 16.67C15.6971 16.7718 15.5906 16.8552 15.4708 16.9151C15.351 16.975 15.2204 17.0102 15.0868 17.0186C14.9531 17.0271 14.8191 17.0086 14.6927 16.9643C14.5664 16.92 14.4502 16.8508 14.351 16.7607C14.2519 16.6706 14.1719 16.5616 14.1158 16.44C13.9206 16.0484 13.6202 15.719 13.2482 15.4887C12.8761 15.2584 12.4473 15.1365 12.0098 15.1365C11.5722 15.1365 11.1434 15.2584 10.7714 15.4887C10.3994 15.719 10.0989 16.0484 9.90376 16.44ZM6.80976 13.595C6.73097 13.7001 6.63225 13.7886 6.51926 13.8555C6.40626 13.9224 6.28119 13.9664 6.15118 13.9849C5.88863 14.0225 5.62194 13.9541 5.40976 13.795C5.19759 13.6359 5.05732 13.399 5.01981 13.1364C5.00124 13.0064 5.00846 12.874 5.04105 12.7468C5.07364 12.6196 5.13097 12.5001 5.20976 12.395C6.00188 11.3399 7.02867 10.4836 8.20889 9.89379C9.38912 9.30402 10.6904 8.997 12.0098 8.997C13.3291 8.997 14.6304 9.30402 15.8106 9.89379C16.9909 10.4836 18.0176 11.3399 18.8098 12.395C18.8886 12.5001 18.9459 12.6196 18.9785 12.7468C19.0111 12.874 19.0183 13.0064 18.9997 13.1364C18.9811 13.2664 18.9371 13.3915 18.8702 13.5045C18.8033 13.6175 18.7148 13.7162 18.6098 13.795C18.5047 13.8738 18.3852 13.9311 18.2579 13.9637C18.1307 13.9963 17.9983 14.0035 17.8683 13.9849C17.7383 13.9664 17.6133 13.9224 17.5003 13.8555C17.3873 13.7886 17.2886 13.7001 17.2098 13.595C16.6039 12.7883 15.8187 12.1336 14.9162 11.6826C14.0137 11.2317 13.0186 10.997 12.0098 10.997C11.0009 10.997 10.0058 11.2317 9.10332 11.6826C8.20081 12.1336 7.41559 12.7883 6.80976 13.595ZM3.75276 10.665C3.57243 10.8495 3.32775 10.9572 3.06986 10.9656C2.81197 10.9739 2.56084 10.8822 2.36897 10.7097C2.17709 10.5372 2.05932 10.2972 2.04027 10.0399C2.02123 9.7826 2.10238 9.52788 2.26676 9.329C7.10976 3.952 15.3968 3.516 20.7788 8.356C21.1208 8.663 21.4458 8.988 21.7528 9.329C21.8406 9.42657 21.9084 9.54049 21.9522 9.66426C21.996 9.78802 22.0151 9.91921 22.0082 10.0503C22.0013 10.1814 21.9687 10.3099 21.9122 10.4284C21.8556 10.5469 21.7763 10.6531 21.6788 10.741C21.5812 10.8289 21.4673 10.8966 21.3435 10.9405C21.2197 10.9843 21.0886 11.0033 20.9574 10.9964C20.8263 10.9896 20.6978 10.9569 20.5793 10.9004C20.4608 10.8439 20.3546 10.7646 20.2668 10.667C20.0064 10.3771 19.7306 10.1014 19.4408 9.841C14.8808 5.74 7.85676 6.108 3.75276 10.666V10.665Z" fill="#21272A"/>
</svg>
