<svg width="24" height="24" viewBox="0 0 24 24" fill="none" xmlns="http://www.w3.org/2000/svg">
<path d="M21.8668 6.02099H17.8848V6.70799H18.2828C18.5938 6.70799 18.8748 6.86899 19.0338 7.13899C19.112 7.27042 19.1546 7.41996 19.1574 7.57287C19.1602 7.72578 19.1231 7.87678 19.0498 8.01099L14.7668 15.941L12.8168 11.251L14.6528 7.84899C14.8377 7.50452 15.1124 7.21655 15.4478 7.01566C15.7832 6.81476 16.1668 6.70845 16.5578 6.70799H16.7748V6.01999H12.6628V6.70799H13.0608C13.3718 6.70799 13.6528 6.86899 13.8108 7.13899C13.8891 7.27033 13.9319 7.41982 13.9349 7.57273C13.9379 7.72565 13.901 7.8767 13.8278 8.01099L12.4948 10.478L11.3068 7.62199C11.2643 7.52189 11.2474 7.41277 11.2577 7.30452C11.268 7.19626 11.3052 7.09228 11.3658 7.00199C11.4244 6.91115 11.5049 6.83657 11.6 6.78518C11.6951 6.73378 11.8017 6.70723 11.9098 6.70799H12.3448V6.01999H7.47677V6.70799H7.67077C8.57977 6.70799 9.39377 7.25399 9.74477 8.09899L11.4998 12.32L9.54477 15.942L6.08477 7.62199C6.04228 7.52189 6.02542 7.41277 6.03573 7.30452C6.04603 7.19626 6.08316 7.09228 6.14377 7.00199C6.20236 6.91115 6.28294 6.83657 6.37804 6.78518C6.47313 6.73378 6.57967 6.70723 6.68777 6.70799H7.28577V6.01999H2.00977V6.70799H2.44877C3.35677 6.70799 4.17177 7.25399 4.52277 8.09899L8.51077 17.69C8.54302 17.7678 8.59664 17.8349 8.66544 17.8835C8.73424 17.9321 8.8154 17.9602 8.89952 17.9646C8.98364 17.969 9.06728 17.9495 9.14077 17.9083C9.21426 17.8672 9.27458 17.806 9.31477 17.732L9.83477 16.768L11.8208 13.092L13.7328 17.69C13.7651 17.7678 13.8188 17.8348 13.8877 17.8833C13.9565 17.9318 14.0377 17.9598 14.1218 17.9641C14.2059 17.9684 14.2896 17.9488 14.363 17.9075C14.4364 17.8663 14.4967 17.8051 14.5368 17.731L15.0568 16.768L19.8758 7.84799C20.0609 7.50404 20.3356 7.21657 20.6708 7.01605C21.006 6.81553 21.3892 6.70943 21.7798 6.70899H21.9968V6.01999H21.8668V6.02099Z" fill="#21272A"/>
</svg>
