<svg width="24" height="24" viewBox="0 0 24 24" fill="none" xmlns="http://www.w3.org/2000/svg">
<path d="M11.9998 2C6.48377 2 2.00977 6.473 2.00977 11.99C2.00977 17.508 6.48277 21.981 11.9998 21.981C17.5178 21.981 21.9908 17.508 21.9908 11.991C21.9908 6.473 17.5178 2 12.0008 2H11.9998ZM3.43777 11.99C3.43777 10.782 3.70577 9.633 4.17977 8.596L8.26477 19.496C5.40777 18.145 3.43777 15.291 3.43777 11.991V11.99ZM12.0018 20.333C11.1833 20.3322 10.3689 20.2181 9.58177 19.994L12.1518 12.721L14.7818 19.745L14.8418 19.861C13.9276 20.1737 12.968 20.3332 12.0018 20.333ZM13.1778 8.08C13.6928 8.053 14.1578 8 14.1578 8C14.6188 7.947 14.5658 7.288 14.1048 7.313C14.1048 7.313 12.7168 7.419 11.8208 7.419C10.9808 7.419 9.56477 7.313 9.56477 7.313C9.10277 7.287 9.04977 7.973 9.50977 8.001C9.50977 8.001 9.94777 8.053 10.4078 8.08L11.7428 11.64L9.86877 17.115L6.75177 8.081C7.26877 8.055 7.73177 8.002 7.73177 8.002C8.19177 7.948 8.13877 7.289 7.67777 7.314C7.67777 7.314 6.29077 7.42 5.39677 7.42L4.84577 7.41C6.37577 5.146 9.00777 3.65 11.9988 3.65C14.2288 3.65 16.2578 4.48 17.7828 5.84L17.6708 5.832C16.8298 5.832 16.2338 6.545 16.2338 7.312C16.2338 8 16.6398 8.58 17.0738 9.268C17.4028 9.825 17.7798 10.538 17.7798 11.568C17.7798 12.282 17.4998 13.11 17.1298 14.266L16.2738 17.045L13.1778 8.08ZM16.3048 19.197L18.9218 11.832C19.4118 10.642 19.5718 9.692 19.5718 8.845C19.5718 8.538 19.5518 8.253 19.5158 7.987C20.2038 9.20895 20.5651 10.5877 20.5648 11.99C20.5638 15.067 18.8518 17.753 16.3048 19.197Z" fill="#21272A"/>
</svg>
