<svg width="24" height="24" viewBox="0 0 24 24" fill="none" xmlns="http://www.w3.org/2000/svg">
<path d="M4.26177 10C4.09392 10.6534 4.00925 11.3254 4.00977 12C4.00977 12.69 4.09777 13.36 4.26177 14H7.10977C6.97495 12.6701 6.97495 11.3299 7.10977 10H4.26177ZM5.07977 8H7.42577C7.69177 6.783 8.07577 5.693 8.54677 4.786C7.09495 5.48542 5.88698 6.60523 5.07977 8ZM19.7578 10H16.9098C17.0446 11.3299 17.0446 12.6701 16.9098 14H19.7578C20.0944 12.6879 20.0944 11.3121 19.7578 10ZM18.9398 8C18.1326 6.60523 16.9246 5.48542 15.4728 4.786C15.9448 5.693 16.3278 6.783 16.5938 8H18.9398ZM9.12177 10C9.04684 10.664 9.00945 11.3318 9.00977 12C9.00977 12.685 9.04777 13.355 9.12177 14H14.8978C15.0484 12.6709 15.0484 11.3291 14.8978 10H9.12177ZM9.47977 8H14.5398C14.3578 7.2483 14.0953 6.51841 13.7568 5.823C13.1288 4.568 12.4568 4 12.0098 4C11.5618 4 10.8908 4.568 10.2628 5.823C9.94777 6.455 9.68277 7.19 9.47977 8ZM5.07977 16C5.88698 17.3948 7.09495 18.5146 8.54677 19.214C8.07477 18.307 7.69177 17.217 7.42577 16H5.07977ZM18.9398 16H16.5938C16.3278 17.217 15.9438 18.307 15.4728 19.214C16.9246 18.5146 18.1326 17.3948 18.9398 16ZM9.47977 16C9.68277 16.81 9.94777 17.545 10.2628 18.177C10.8908 19.432 11.5628 20 12.0098 20C12.4578 20 13.1288 19.432 13.7568 18.177C14.0718 17.545 14.3368 16.81 14.5398 16H9.47977ZM12.0098 22C6.48677 22 2.00977 17.523 2.00977 12C2.00977 6.477 6.48677 2 12.0098 2C17.5328 2 22.0098 6.477 22.0098 12C22.0098 17.523 17.5328 22 12.0098 22Z" fill="#21272A"/>
</svg>
