<svg width="24" height="24" viewBox="0 0 24 24" fill="none" xmlns="http://www.w3.org/2000/svg">
<path d="M3.47377 7.74801C3.53377 8.69001 3.92377 9.61301 4.63777 10.326C5.13423 10.8233 5.75302 11.1809 6.43175 11.3628C7.11048 11.5447 7.82517 11.5444 8.50377 11.362L9.61776 11.064L18.7798 20.225C18.9684 20.4072 19.221 20.508 19.4832 20.5057C19.7454 20.5034 19.9962 20.3982 20.1816 20.2128C20.367 20.0274 20.4722 19.7766 20.4744 19.5144C20.4767 19.2522 20.3759 18.9996 20.1938 18.811L11.0318 9.65001L11.3298 8.53501C11.512 7.85656 11.5121 7.14207 11.3302 6.46354C11.1484 5.785 10.7909 5.16638 10.2938 4.67001C9.60514 3.9806 8.6883 3.56663 7.71576 3.50601L8.93976 4.72801C9.50229 5.2908 9.81821 6.054 9.81802 6.84972C9.81783 7.64544 9.50155 8.40849 8.93877 8.97101C8.37598 9.53354 7.61277 9.84945 6.81706 9.84927C6.02134 9.84908 5.25829 9.5328 4.69577 8.97001L3.47377 7.74801ZM2.57377 4.02101L6.10977 7.55601C6.29727 7.74365 6.55164 7.84912 6.81691 7.84921C7.08218 7.84931 7.33662 7.74402 7.52427 7.55651C7.71191 7.369 7.81737 7.11464 7.81747 6.84937C7.81756 6.5841 7.71227 6.32965 7.52477 6.14201L3.98877 2.60601C4.99565 1.89105 6.19857 1.50407 7.43346 1.49785C8.66836 1.49163 9.87511 1.86647 10.8891 2.57126C11.9032 3.27604 12.6751 4.27646 13.0998 5.43608C13.5244 6.5957 13.5809 7.85806 13.2618 9.05101L21.6078 17.397C22.1704 17.9597 22.4865 18.7228 22.4865 19.5185C22.4865 20.3142 22.1704 21.0774 21.6078 21.64C21.0451 22.2027 20.282 22.5188 19.4863 22.5188C18.6905 22.5188 17.9274 22.2027 17.3648 21.64L9.01977 13.294C7.82666 13.6134 6.56407 13.557 5.40424 13.1323C4.24441 12.7077 3.24382 11.9356 2.53896 10.9214C1.83411 9.90714 1.45932 8.70013 1.46573 7.46504C1.47214 6.22994 1.85943 5.02689 2.57477 4.02001L2.57377 4.02101ZM18.0738 19.517L19.4938 18.107L18.0738 16.693L16.6548 18.107L18.0728 19.517H18.0738Z" fill="#21272A"/>
</svg>
