<svg width="24" height="24" viewBox="0 0 24 24" fill="none" xmlns="http://www.w3.org/2000/svg">
<path d="M7.72977 16.456L9.49077 15.948L20.0938 5.218C20.1774 5.1323 20.224 5.01713 20.2234 4.89738C20.2228 4.77764 20.1752 4.66291 20.0908 4.578L19.4558 3.936C19.4147 3.89384 19.3657 3.86027 19.3116 3.83726C19.2574 3.81424 19.1992 3.80225 19.1404 3.80197C19.0816 3.80169 19.0233 3.81313 18.9689 3.83563C18.9145 3.85813 18.8652 3.89123 18.8238 3.933L8.24877 14.635L7.72877 16.455L7.72977 16.456ZM20.7128 2.664L21.3478 3.307C22.2238 4.194 22.2318 5.625 21.3638 6.503L10.4378 17.561L6.67377 18.645C6.44396 18.7093 6.19803 18.6798 5.98993 18.5631C5.78183 18.4463 5.62856 18.2517 5.56377 18.022C5.51555 17.8569 5.51485 17.6815 5.56177 17.516L6.65677 13.676L17.5538 2.647C17.761 2.43836 18.0077 2.27306 18.2794 2.16075C18.5512 2.04844 18.8426 1.99137 19.1366 1.99286C19.4307 1.99435 19.7215 2.05437 19.9921 2.16943C20.2627 2.28448 20.5077 2.45227 20.7128 2.663V2.664ZM9.19377 3.817C9.68977 3.817 10.0918 4.224 10.0918 4.726C10.0926 4.84467 10.0699 4.96233 10.0252 5.07225C9.98052 5.18218 9.91458 5.28221 9.83118 5.36663C9.74778 5.45105 9.64855 5.51821 9.53918 5.56426C9.42981 5.61031 9.31243 5.63434 9.19377 5.635H5.60177C4.60977 5.635 3.80577 6.449 3.80577 7.452V18.358C3.80577 19.362 4.60977 20.176 5.60177 20.176H16.3778C17.3698 20.176 18.1748 19.362 18.1748 18.358V14.723C18.1748 14.221 18.5768 13.814 19.0728 13.814C19.5688 13.814 19.9708 14.221 19.9708 14.724V18.358C19.9708 20.366 18.3618 21.994 16.3778 21.994H5.60177C3.61777 21.994 2.00977 20.366 2.00977 18.358V7.452C2.00977 5.445 3.61777 3.817 5.60177 3.817H9.19377Z" fill="#21272A"/>
</svg>
