<svg width="24" height="24" viewBox="0 0 24 24" fill="none" xmlns="http://www.w3.org/2000/svg">
<path d="M12.0098 20C14.1315 20 16.1663 19.1571 17.6666 17.6569C19.1669 16.1566 20.0098 14.1217 20.0098 12C20.0098 9.87827 19.1669 7.84344 17.6666 6.34315C16.1663 4.84285 14.1315 4 12.0098 4C9.88803 4 7.8532 4.84285 6.35291 6.34315C4.85262 7.84344 4.00977 9.87827 4.00977 12C4.00977 14.1217 4.85262 16.1566 6.35291 17.6569C7.8532 19.1571 9.88803 20 12.0098 20ZM12.0098 22C6.48677 22 2.00977 17.523 2.00977 12C2.00977 6.477 6.48677 2 12.0098 2C17.5328 2 22.0098 6.477 22.0098 12C22.0098 17.523 17.5328 22 12.0098 22Z" fill="#21272A"/>
<path d="M15.0648 10.483C14.8198 10.549 12.5808 12.285 12.4338 12.711C12.4008 12.859 12.4368 14.285 12.4698 14.499C12.6168 14.532 13.6818 14.504 13.8778 14.536L13.8538 14.977C13.6628 14.962 12.3088 14.966 11.5368 14.966C11.1448 14.966 9.88277 15.009 9.49577 14.998L9.56877 14.578C9.78177 14.563 10.6618 14.618 10.8538 14.412C10.9498 14.31 10.9198 12.954 10.8878 12.724C10.8058 12.479 8.84377 10.021 8.33077 9.618H7.00977V9H11.4668V9.043C11.4718 9.04296 11.4768 9.04329 11.4818 9.044L11.4668 9.149V9.618H10.1228C10.7218 10.494 11.5798 11.551 11.9468 12.059L13.7418 10.433H12.6748L12.5248 9.815H16.4328L16.4028 9.859L16.4178 9.86L16.1378 10.265L16.1298 10.266L16.0168 10.433H15.2958C15.2028 10.453 15.1208 10.472 15.0648 10.483ZM16.3398 14.353L15.9948 14.337L15.6098 14.29L15.6138 14.95L15.9168 14.976L16.2438 15L16.3398 14.354V14.353ZM17.0098 11.2C16.5711 11.1667 16.1333 11.1231 15.6968 11.069L15.7138 13.857L16.3128 13.905L17.0098 11.199V11.2Z" fill="#21272A"/>
</svg>
