<svg width="24" height="24" viewBox="0 0 24 24" fill="none" xmlns="http://www.w3.org/2000/svg">
<path d="M18.0868 8.96C17.5978 9.092 13.1298 12.557 12.8348 13.408C12.7708 13.701 12.8418 16.549 12.9068 16.976C13.2008 17.042 15.3268 16.985 15.7168 17.05L15.6698 17.93C15.2878 17.9 12.5868 17.907 11.0458 17.907C10.2628 17.907 7.74577 17.994 6.97177 17.972L7.11777 17.134C7.54177 17.102 9.29777 17.212 9.68277 16.802C9.87377 16.598 9.81377 13.892 9.74877 13.434C9.58677 12.944 5.67077 8.037 4.64677 7.234H2.00977V6H10.9048V6.085C10.9128 6.085 10.9268 6.086 10.9348 6.088L10.9048 6.296V7.233H8.22277C9.41777 8.982 11.1328 11.093 11.8628 12.106L15.4458 8.86H13.3158L13.0158 7.628H20.8168L20.7588 7.715L20.7868 7.717L20.2298 8.525C20.2237 8.52527 20.2176 8.52628 20.2118 8.528L19.9868 8.86H18.5478C18.3618 8.9 18.1978 8.937 18.0868 8.96ZM20.6318 16.686L19.9438 16.652L19.1748 16.558L19.1818 17.875L19.7878 17.927L20.4408 17.975L20.6318 16.685V16.686ZM21.9688 10.389C21.7368 10.381 19.6238 10.181 19.3488 10.127L19.3808 15.691L20.5768 15.788L21.9688 10.389Z" fill="#21272A"/>
</svg>
