<svg width="24" height="24" viewBox="0 0 24 24" fill="none" xmlns="http://www.w3.org/2000/svg">
<path d="M15.0648 10.483C14.8198 10.549 12.5808 12.285 12.4338 12.711C12.4008 12.859 12.4368 14.285 12.4698 14.499C12.6168 14.532 13.6818 14.504 13.8778 14.536L13.8538 14.977C13.6628 14.962 12.3088 14.966 11.5368 14.966C11.1448 14.966 9.88277 15.009 9.49577 14.998L9.56877 14.578C9.78177 14.563 10.6618 14.618 10.8538 14.412C10.9498 14.31 10.9198 12.954 10.8878 12.724C10.8058 12.479 8.84377 10.021 8.33077 9.618H7.00977V9H11.4668V9.043C11.4718 9.04296 11.4768 9.04329 11.4818 9.044L11.4668 9.149V9.618H10.1228C10.7218 10.494 11.5798 11.551 11.9468 12.059L13.7418 10.433H12.6748L12.5248 9.815H16.4328L16.4028 9.859L16.4178 9.86L16.1378 10.265L16.1298 10.266L16.0168 10.433H15.2958C15.2028 10.453 15.1208 10.472 15.0648 10.483ZM16.3398 14.353L15.9948 14.337L15.6098 14.29L15.6138 14.95L15.9168 14.976L16.2438 15L16.3398 14.354V14.353ZM17.0098 11.2C16.5711 11.1667 16.1333 11.1231 15.6968 11.069L15.7138 13.857L16.3128 13.905L17.0098 11.199V11.2Z" fill="#21272A"/>
<path d="M6.00977 4C5.47933 4 4.97062 4.21071 4.59555 4.58579C4.22048 4.96086 4.00977 5.46957 4.00977 6V18C4.00977 18.5304 4.22048 19.0391 4.59555 19.4142C4.97062 19.7893 5.47933 20 6.00977 20H18.0098C18.5402 20 19.0489 19.7893 19.424 19.4142C19.7991 19.0391 20.0098 18.5304 20.0098 18V6C20.0098 5.46957 19.7991 4.96086 19.424 4.58579C19.0489 4.21071 18.5402 4 18.0098 4H6.00977ZM6.00977 2H18.0098C19.0706 2 20.088 2.42143 20.8382 3.17157C21.5883 3.92172 22.0098 4.93913 22.0098 6V18C22.0098 19.0609 21.5883 20.0783 20.8382 20.8284C20.088 21.5786 19.0706 22 18.0098 22H6.00977C4.9489 22 3.93148 21.5786 3.18134 20.8284C2.43119 20.0783 2.00977 19.0609 2.00977 18V6C2.00977 4.93913 2.43119 3.92172 3.18134 3.17157C3.93148 2.42143 4.9489 2 6.00977 2V2Z" fill="#21272A"/>
</svg>
