<svg width="24" height="24" viewBox="0 0 24 24" fill="none" xmlns="http://www.w3.org/2000/svg">
<path d="M11.2098 14.095L9.82777 15.777C9.78239 15.832 9.75069 15.8969 9.73524 15.9664C9.7198 16.036 9.72106 16.1082 9.73891 16.1772C9.75677 16.2462 9.79071 16.3099 9.83796 16.3633C9.88522 16.4166 9.94444 16.458 10.0108 16.484L11.3618 17.015C11.4292 17.0416 11.5021 17.0515 11.5742 17.0439C11.6463 17.0363 11.7155 17.0114 11.776 16.9713C11.8364 16.9313 11.8863 16.8773 11.9214 16.8139C11.9566 16.7504 11.9759 16.6795 11.9778 16.607L12.0368 14.404C12.0395 14.3066 12.0117 14.2109 11.9572 14.1301C11.9028 14.0493 11.8245 13.9876 11.7332 13.9535C11.642 13.9195 11.5423 13.9148 11.4483 13.9402C11.3543 13.9655 11.2705 14.0197 11.2088 14.095H11.2098ZM10.9798 12.423L8.92977 11.687C8.86284 11.663 8.7912 11.6552 8.72067 11.6641C8.65015 11.6731 8.58274 11.6986 8.52395 11.7386C8.46516 11.7786 8.41665 11.8319 8.38238 11.8942C8.34811 11.9564 8.32906 12.026 8.32677 12.097L8.28077 13.548C8.27077 13.861 8.57477 14.088 8.87177 13.991L10.9668 13.306C11.0591 13.2757 11.1398 13.2173 11.1974 13.139C11.255 13.0607 11.2867 12.9664 11.2882 12.8692C11.2896 12.7719 11.2607 12.6767 11.2054 12.5967C11.1501 12.5168 11.0712 12.456 10.9798 12.423ZM13.3278 12.659L15.4268 12.08C15.4954 12.0611 15.5586 12.0263 15.6112 11.9783C15.6637 11.9303 15.7042 11.8706 15.7293 11.804C15.7543 11.7374 15.7633 11.6658 15.7554 11.595C15.7475 11.5243 15.7229 11.4564 15.6838 11.397L14.8868 10.184C14.8469 10.1232 14.793 10.0729 14.7295 10.0374C14.666 10.0019 14.5949 9.98232 14.5223 9.98026C14.4496 9.97819 14.3775 9.99374 14.3121 10.0256C14.2467 10.0574 14.19 10.1045 14.1468 10.163L12.8298 11.93C12.7718 12.008 12.7396 12.1021 12.7377 12.1993C12.7358 12.2964 12.7642 12.3917 12.819 12.472C12.8738 12.5522 12.9523 12.6133 13.0435 12.6469C13.1347 12.6804 13.234 12.6846 13.3278 12.659ZM11.8078 7.61601C11.8117 7.53165 11.7957 7.44755 11.7609 7.37059C11.7261 7.29364 11.6736 7.226 11.6076 7.17323C11.5417 7.12046 11.4642 7.08405 11.3815 7.06698C11.2988 7.04991 11.2132 7.05266 11.1318 7.07501L9.47077 7.52801C9.38763 7.5506 9.31118 7.59292 9.24791 7.65139C9.18464 7.70985 9.13643 7.78273 9.10737 7.86383C9.07831 7.94492 9.06926 8.03184 9.08099 8.11718C9.09273 8.20252 9.1249 8.28377 9.17477 8.35401L11.0798 11.656C11.0951 11.6832 11.1128 11.709 11.1328 11.733C11.1965 11.8064 11.2783 11.8619 11.3702 11.8937C11.462 11.9256 11.5606 11.9327 11.6561 11.9145C11.7516 11.8963 11.8406 11.8533 11.9143 11.7899C11.9879 11.7264 12.0436 11.6447 12.0758 11.553C12.0983 11.483 12.1064 11.4092 12.0998 11.336L11.8068 7.61601H11.8078ZM15.4408 14.168L13.3338 13.521C13.2406 13.4922 13.1408 13.4932 13.0483 13.5239C12.9558 13.5547 12.8752 13.6136 12.8179 13.6924C12.7605 13.7713 12.7293 13.8661 12.7286 13.9636C12.7278 14.061 12.7576 14.1563 12.8138 14.236L14.0638 16.018C14.2408 16.268 14.6098 16.275 14.7938 16.03L15.6688 14.872C15.7127 14.8141 15.742 14.7465 15.7541 14.6748C15.7662 14.6032 15.7609 14.5296 15.7385 14.4605C15.7161 14.3914 15.6773 14.3287 15.6255 14.2778C15.5737 14.2268 15.5103 14.1892 15.4408 14.168Z" fill="#21272A"/>
<path d="M6.00977 4C5.47933 4 4.97062 4.21071 4.59555 4.58579C4.22048 4.96086 4.00977 5.46957 4.00977 6V18C4.00977 18.5304 4.22048 19.0391 4.59555 19.4142C4.97062 19.7893 5.47933 20 6.00977 20H18.0098C18.5402 20 19.0489 19.7893 19.424 19.4142C19.7991 19.0391 20.0098 18.5304 20.0098 18V6C20.0098 5.46957 19.7991 4.96086 19.424 4.58579C19.0489 4.21071 18.5402 4 18.0098 4H6.00977ZM6.00977 2H18.0098C19.0706 2 20.088 2.42143 20.8382 3.17157C21.5883 3.92172 22.0098 4.93913 22.0098 6V18C22.0098 19.0609 21.5883 20.0783 20.8382 20.8284C20.088 21.5786 19.0706 22 18.0098 22H6.00977C4.9489 22 3.93148 21.5786 3.18134 20.8284C2.43119 20.0783 2.00977 19.0609 2.00977 18V6C2.00977 4.93913 2.43119 3.92172 3.18134 3.17157C3.93148 2.42143 4.9489 2 6.00977 2V2Z" fill="#21272A"/>
</svg>
