<svg width="24" height="24" viewBox="0 0 24 24" fill="none" xmlns="http://www.w3.org/2000/svg">
<path d="M10.4028 16.08L7.63977 19.444C7.54948 19.554 7.48647 19.6838 7.45589 19.8228C7.42531 19.9619 7.42802 20.1061 7.4638 20.2439C7.49958 20.3816 7.56741 20.509 7.66178 20.6155C7.75614 20.7221 7.87435 20.8048 8.00677 20.857L10.7078 21.92C10.8428 21.9731 10.9886 21.9928 11.1328 21.9776C11.277 21.9624 11.4155 21.9127 11.5365 21.8326C11.6574 21.7526 11.7573 21.6446 11.8277 21.5177C11.8981 21.3909 11.9369 21.249 11.9408 21.104L12.0578 16.697C12.0808 15.808 10.9678 15.393 10.4028 16.08ZM9.94377 12.735L5.84577 11.264C5.71187 11.2161 5.56853 11.2004 5.42744 11.2183C5.28634 11.2363 5.15148 11.2873 5.03383 11.3672C4.91618 11.4471 4.81907 11.5537 4.75042 11.6783C4.68177 11.8028 4.64352 11.9419 4.63877 12.084L4.54577 14.986C4.54133 15.1309 4.57185 15.2747 4.63473 15.4054C4.69761 15.536 4.79101 15.6495 4.90704 15.7364C5.02307 15.8233 5.15831 15.881 5.30134 15.9046C5.44437 15.9282 5.59098 15.917 5.72877 15.872L9.91877 14.5C10.7638 14.224 10.7798 13.035 9.94377 12.735ZM14.6398 13.207L18.8378 12.05C18.9749 12.0121 19.1011 11.9423 19.2061 11.8463C19.3112 11.7503 19.392 11.6309 19.4421 11.4977C19.4922 11.3646 19.5102 11.2214 19.4945 11.08C19.4788 10.9386 19.4299 10.8029 19.3518 10.684L17.7568 8.25801C17.6769 8.13708 17.5692 8.03713 17.4426 7.96662C17.316 7.8961 17.1743 7.85709 17.0294 7.85287C16.8846 7.84866 16.7409 7.87936 16.6104 7.94239C16.4799 8.00542 16.3665 8.09893 16.2798 8.21501L13.6438 11.749C13.1128 12.462 13.7838 13.443 14.6398 13.207ZM11.5998 3.12001C11.6073 2.95168 11.5749 2.78395 11.5053 2.63049C11.4357 2.47703 11.3308 2.34218 11.1993 2.23691C11.0677 2.13165 10.9131 2.05895 10.7481 2.02473C10.5831 1.99052 10.4124 1.99575 10.2498 2.04001L6.92577 2.94601C6.75983 2.9913 6.60724 3.07592 6.48095 3.19271C6.35466 3.3095 6.25839 3.45502 6.2003 3.61693C6.14221 3.77883 6.12401 3.95236 6.14725 4.1228C6.17048 4.29324 6.23446 4.45556 6.33377 4.59601L10.1468 11.202C10.1768 11.256 10.2118 11.308 10.2518 11.355C10.8168 12.018 11.8768 11.773 12.1378 10.995C12.1848 10.856 12.1978 10.708 12.1858 10.561L11.6008 3.12101L11.5998 3.12001ZM18.8658 16.226L14.6508 14.932C13.8008 14.672 13.1028 15.633 13.6128 16.361L16.1128 19.925C16.1946 20.0415 16.3028 20.1371 16.4285 20.2038C16.5543 20.2706 16.6941 20.3067 16.8364 20.3091C16.9788 20.3115 17.1197 20.2803 17.2477 20.2179C17.3756 20.1555 17.487 20.0637 17.5728 19.95L19.3218 17.633C19.4092 17.5172 19.4673 17.3819 19.4914 17.2388C19.5154 17.0957 19.5046 16.9489 19.4598 16.8109C19.4151 16.6728 19.3378 16.5476 19.2343 16.4458C19.1309 16.344 19.0045 16.2686 18.8658 16.226Z" fill="#21272A"/>
</svg>
