<svg width="24" height="24" viewBox="0 0 24 24" fill="none" xmlns="http://www.w3.org/2000/svg">
<path d="M14.9328 8.526H9.08677C7.93977 8.526 7.00977 9.446 7.00977 10.58V13.47C7.00977 14.605 7.93977 15.524 9.08677 15.524H14.9328C16.0798 15.524 17.0098 14.604 17.0098 13.47V10.58C17.0098 9.445 16.0798 8.526 14.9328 8.526ZM13.5288 12.166L10.7938 13.456C10.777 13.4639 10.7586 13.4675 10.7401 13.4663C10.7216 13.4652 10.7037 13.4595 10.6881 13.4496C10.6724 13.4397 10.6595 13.4261 10.6506 13.4099C10.6416 13.3937 10.6368 13.3755 10.6368 13.357V10.697C10.6369 10.6783 10.6419 10.6599 10.6512 10.6436C10.6604 10.6273 10.6737 10.6136 10.6897 10.6039C10.7058 10.5942 10.724 10.5887 10.7427 10.5881C10.7615 10.5874 10.7801 10.5915 10.7968 10.6L13.5308 11.97C13.5487 11.9794 13.5638 11.9936 13.5742 12.011C13.5846 12.0284 13.59 12.0483 13.5898 12.0686C13.5896 12.0889 13.5838 12.1087 13.573 12.1259C13.5622 12.1431 13.5469 12.157 13.5288 12.166Z" fill="#21272A"/>
<path d="M6.00977 4C5.47933 4 4.97062 4.21071 4.59555 4.58579C4.22048 4.96086 4.00977 5.46957 4.00977 6V18C4.00977 18.5304 4.22048 19.0391 4.59555 19.4142C4.97062 19.7893 5.47933 20 6.00977 20H18.0098C18.5402 20 19.0489 19.7893 19.424 19.4142C19.7991 19.0391 20.0098 18.5304 20.0098 18V6C20.0098 5.46957 19.7991 4.96086 19.424 4.58579C19.0489 4.21071 18.5402 4 18.0098 4H6.00977ZM6.00977 2H18.0098C19.0706 2 20.088 2.42143 20.8382 3.17157C21.5883 3.92172 22.0098 4.93913 22.0098 6V18C22.0098 19.0609 21.5883 20.0783 20.8382 20.8284C20.088 21.5786 19.0706 22 18.0098 22H6.00977C4.9489 22 3.93148 21.5786 3.18134 20.8284C2.43119 20.0783 2.00977 19.0609 2.00977 18V6C2.00977 4.93913 2.43119 3.92172 3.18134 3.17157C3.93148 2.42143 4.9489 2 6.00977 2V2Z" fill="#21272A"/>
</svg>
