<svg width="24" height="24" viewBox="0 0 24 24" fill="none" xmlns="http://www.w3.org/2000/svg">
<path d="M12.0098 20C14.1315 20 16.1663 19.1571 17.6666 17.6569C19.1669 16.1566 20.0098 14.1217 20.0098 12C20.0098 9.87827 19.1669 7.84344 17.6666 6.34315C16.1663 4.84285 14.1315 4 12.0098 4C9.88803 4 7.8532 4.84285 6.35291 6.34315C4.85262 7.84344 4.00977 9.87827 4.00977 12C4.00977 14.1217 4.85262 16.1566 6.35291 17.6569C7.8532 19.1571 9.88803 20 12.0098 20ZM12.0098 22C6.48677 22 2.00977 17.523 2.00977 12C2.00977 6.477 6.48677 2 12.0098 2C17.5328 2 22.0098 6.477 22.0098 12C22.0098 17.523 17.5328 22 12.0098 22Z" fill="#21272A"/>
<path d="M14.9328 8.526H9.08677C7.93977 8.526 7.00977 9.446 7.00977 10.58V13.47C7.00977 14.605 7.93977 15.524 9.08677 15.524H14.9328C16.0798 15.524 17.0098 14.604 17.0098 13.47V10.58C17.0098 9.445 16.0798 8.526 14.9328 8.526ZM13.5288 12.166L10.7938 13.456C10.777 13.4639 10.7586 13.4675 10.7401 13.4663C10.7216 13.4652 10.7037 13.4595 10.6881 13.4496C10.6724 13.4397 10.6595 13.4261 10.6506 13.4099C10.6416 13.3937 10.6368 13.3755 10.6368 13.357V10.697C10.6369 10.6783 10.6419 10.6599 10.6512 10.6436C10.6604 10.6273 10.6737 10.6136 10.6897 10.6039C10.7058 10.5942 10.724 10.5887 10.7427 10.5881C10.7615 10.5874 10.7801 10.5915 10.7968 10.6L13.5308 11.97C13.5487 11.9794 13.5638 11.9936 13.5742 12.011C13.5846 12.0284 13.59 12.0483 13.5898 12.0686C13.5896 12.0889 13.5838 12.1087 13.573 12.1259C13.5622 12.1431 13.5469 12.157 13.5288 12.166Z" fill="#21272A"/>
</svg>
